<svg xmlns="http://www.w3.org/2000/svg" width="32" height="32" viewBox="0 0 32 32"><path d="M7.356 15.136c-.14-.841.77-1.461 1.501-1.022l1.954 1.173c1.467-.808 3.255-1.287 5.189-1.287v-14l-1.778.003c-.257 0-.467.196-.495.451-.182 1.663-1.359 3.069-2.973 3.427-4.239.941-6.82 3.259-6.82 7.369 0 2.976 1.362 4.689 3.716 5.647l-.294-1.761z" fill="#78DF7C"/><path d="M21.113 3.881c-1.614-.358-2.792-1.764-2.973-3.427-.028-.255-.238-.45-.495-.451l-1.645-.003v14c1.934 0 3.722.479 5.189 1.287l1.954-1.173c.731-.439 1.641.181 1.501 1.022l-.284 1.701c2.266-.969 3.573-2.672 3.573-5.587 0-4.11-2.581-6.429-6.82-7.369z" fill="#54B668"/><path d="M19.617 29.285l.323 2.285c.035.247.246.43.495.43h3.134c.248 0 .458-.176.494-.422.217-1.511.937-6.71.937-9.578 0-4.418-3.477-8-9-8v16c1.469 0 2.36-.26 3.617-.715z" fill="#46B080"/><path d="M16 14c-5.523 0-9 3.582-9 8 0 2.868.72 8.067.938 9.578.036.246.246.422.494.422h3.134c.249 0 .46-.183.495-.43l.323-2.285c1.256.455 2.147.715 3.616.715v-16z" fill="#53BF8C"/><path d="M25 21c0-1.053-.307-2.048-.843-2.943l.487-2.921c.14-.841-.77-1.461-1.501-1.022l-1.954 1.173c-1.467-.808-3.255-1.287-5.189-1.287v14c4.971 0 9-3.134 9-7z" fill="#6EDCA2"/><path d="M16 14c-1.934 0-3.722.479-5.189 1.287l-1.954-1.173c-.731-.439-1.641.181-1.501 1.022l.487 2.921c-.536.895-.843 1.89-.843 2.943 0 3.866 4.029 7 9 7v-14z" fill="#7AEBAC"/><path d="M12.874 24h-1.767c-.996 0-1.92-.681-2.08-1.664-.203-1.253.758-2.336 1.973-2.336 1.907 0 2.602 1.617 2.855 2.795.134.621-.345 1.205-.981 1.205zM12.874 24h-1.767c-.996 0-1.92-.681-2.08-1.664-.203-1.253.758-2.336 1.973-2.336 1.907 0 2.602 1.617 2.855 2.795.134.621-.345 1.205-.981 1.205z" fill="#fff"/><path d="M11 20l-.244.027c-.465.528-.756 1.214-.756 1.973 0 .758.29 1.442.754 1.97l.353.03h1.767c.636 0 1.114-.584.981-1.205-.253-1.178-.948-2.795-2.855-2.795z" fill="#E85160"/><circle cx="11.5" cy="21.5" r=".5" fill="#fff"/><path d="M19.003 24h1.767c.996 0 1.92-.681 2.08-1.664.204-1.253-.758-2.336-1.972-2.336-1.907 0-2.602 1.617-2.855 2.795-.134.621.344 1.205.98 1.205zM19.003 24h1.767c.996 0 1.92-.681 2.08-1.664.204-1.253-.758-2.336-1.972-2.336-1.907 0-2.602 1.617-2.855 2.795-.134.621.344 1.205.98 1.205z" fill="#F7F7F7"/><path d="M20.878 20l.244.027c.465.528.756 1.214.756 1.973 0 .758-.29 1.442-.754 1.97l-.353.03h-1.767c-.636 0-1.114-.584-.981-1.205.253-1.178.947-2.795 2.855-2.795z" fill="#D84459"/><circle cx="20.5" cy="21.5" r=".5" fill="#F7F7F7"/><path d="M16 26.5v1.5c3.032 0 5.708-1.17 7.339-2.957 0 0-2.995.55-5.339.957-.786.136-1.498.505-2 .5z" fill="#60CD96"/><path d="M16 26.5v1.5c-3.032 0-5.708-1.17-7.339-2.957 0 0 2.995.55 5.339.957.786.136 1.498.505 2 .5z" fill="#6EDCA2"/><path d="M10.827 15.271c1.467-.808 3.255-1.287 5.189-1.287v-14h-1.317v.003c0 1.855-1.756 3.877-1.756 3.877s-3.928 3.259-3.928 7.369c0 1.609.584 2.84 1.405 3.793l.407.245z" fill="#6CD275"/><path d="M21.595 15.043c.821-.953 1.405-2.184 1.405-3.793 0-4.11-3.928-7.369-3.928-7.369s-1.756-2.023-1.756-3.877v-.004h-1.316v14c1.934 0 3.722.479 5.189 1.287l.406-.244z" fill="#60C46F"/><path d="M12.383 29.285l-.242 1.715h.468c.229 0 .429-.156.485-.379l.253-1.012c-.306-.094-.621-.2-.964-.324z" fill="#46B080"/><path d="M19.617 29.285c-.342.124-.657.23-.964.324l.253 1.012c.055.223.255.379.484.379h.468l-.241-1.715z" fill="#3AA176"/></svg>