<svg xmlns="http://www.w3.org/2000/svg" width="32" height="32" viewBox="0 0 32 32"><path d="M15.5 26.5c-2.209 0-4-1.791-4-4 0-.533.109-1.04.298-1.505l-1.418.956c-.177.451-.282.939-.282 1.453 0 2.209 1.791 4 4 4 .722 0 1.389-.206 1.974-.541l.335-.476c-.292.068-.594.113-.907.113z" fill="#FFD96C"/><path d="M6.868 14.864l.632-.364c-.638 0-1.242-.131-1.803-.349.572.746 1.171.713 1.171.713z" fill="#FFEAA7"/><path d="M11.842 20.966l-.342.034c-2.485 0-4.5-2.015-4.5-4.5 0-.712.18-1.376.474-1.974l.026-.026-.632.364c-.54.742-.868 1.648-.868 2.636 0 2.429 1.928 4.395 4.335 4.483l1.507-1.017z" fill="#FFE28A"/><path d="M19.456 22.063c-.221-2-1.897-3.563-3.956-3.563l-3.702 2.495c-.189.465-.298.972-.298 1.505 0 2.209 1.791 4 4 4 .313 0 .615-.045.908-.113l3.048-4.324z" fill="#9ACC2E"/><path d="M7.5 14.5l4.289-2.468c.652-1.101.93-2.451.514-3.908-.513-1.797-2.03-3.206-3.869-3.539-3.172-.575-5.934 1.848-5.934 4.915 0 .638.131 1.242.349 1.803l-.687 1.375c-.096.192-.059.425.094.577l1.49 1.49c.152.152.385.19.577.094l1.375-.687c.56.217 1.164.348 1.802.348z" fill="#AADB3D"/><circle cx="7.5" cy="9.5" r="3" fill="#FFEAA7"/><circle cx="7.5" cy="9.5" r="2" fill="#2B3332"/><path d="M11.5 21l.342-.034 3.658-2.466.016-.008c.3-.603.484-1.273.484-1.992 0-2.385-1.861-4.317-4.207-4.47l-4.293 2.47-.026.026c-.294.598-.474 1.262-.474 1.974 0 2.485 2.015 4.5 4.5 4.5z" fill="#A2D336"/><path d="M11.5 15c.827 0 1.5.673 1.5 1.5s-.673 1.5-1.5 1.5-1.5-.673-1.5-1.5.673-1.5 1.5-1.5m0-1c-1.381 0-2.5 1.119-2.5 2.5s1.119 2.5 2.5 2.5 2.5-1.119 2.5-2.5-1.119-2.5-2.5-2.5z" fill="#FFE28A"/><path d="M20.332 28.639l3.682-.307c2.29-.191 4.043-2.134 3.985-4.444-.027-1.06-.939-1.888-1.999-1.888l-6.544.063-3.05 4.327c.697 1.437 2.218 2.391 3.926 2.249z" fill="#93C427"/><path d="M2.5 9.5c0-.597.108-1.169.3-1.7l-.214-.214c-.375-.375-.586-.884-.586-1.414v-1.172c0-.552-.448-1-1-1s-1 .448-1 1v1.343c0 1.061.421 2.078 1.172 2.828l1.488 1.489c-.093-.374-.16-.757-.16-1.16z" fill="#F79654"/><g fill="#FFD04D"><path d="M24.014 28.332l-3.682.307c-1.708.142-3.229-.812-3.926-2.25l-.315.447c.502 1.624 2.057 2.774 3.848 2.641l3.472-.299c2.395-.206 4.251-2.082 4.518-4.413-.339 1.907-1.922 3.401-3.915 3.567zM27.973 24.245l.009-.112-.001-.007-.008.119z"/></g><path d="M24 24c-.552 0-1 .448-1 1s.448 1 1 1 1-.448 1-1-.448-1-1-1z" fill="#FFD04D"/><path d="M15.5 21.5c.551 0 1 .449 1 1s-.449 1-1 1-1-.449-1-1 .449-1 1-1m0-1c-1.105 0-2 .895-2 2s.895 2 2 2 2-.895 2-2-.895-2-2-2z" fill="#FFD96C"/><path d="M20 24.5c.276 0 .5.224.5.5s-.224.5-.5.5-.5-.224-.5-.5.224-.5.5-.5m0-1c-.828 0-1.5.672-1.5 1.5s.672 1.5 1.5 1.5 1.5-.672 1.5-1.5-.672-1.5-1.5-1.5zM31.373 16.198c-.957-.552-1.567.129-2.12 1.086-.361.625-1.115 2.389-1.284 3.723-.537.017-.969.452-.969.993 0 .552.448 1 1 1s1-.448 1-1c0-.158-.044-.302-.109-.435 1.076-.809 2.239-2.36 2.602-2.989.552-.956.836-1.826-.12-2.378z" fill="#FFD04D"/><circle cx="2" cy="6" r="1" fill="#FCA15E"/></svg>