<svg xmlns="http://www.w3.org/2000/svg" width="32" height="32" viewBox="0 0 32 32"><path d="M16 16h-15c0 8.284 6.716 15 15 15v-15z" fill="#F7F7F7"/><path d="M16 31c8.284 0 15-6.716 15-15h-15v15z" fill="#EDEEEE"/><path d="M16 1c-8.284 0-15 6.716-15 15h15v-15z" fill="#D84459"/><path d="M31 16c0-8.284-6.716-15-15-15v15h15z" fill="#C84054"/><path d="M12.752 12.497l-.613 1.227c-.085.169-.259.276-.448.276h-5.281c-.238 0-.444-.168-.49-.402l-.744-3.716c-.076-.384.299-.704.666-.566l6.638 2.489c.278.104.404.426.272.692z" fill="#fff"/><path d="M8.015 10.131l-.015.369c0 1.381.448 2.5 1 2.5.502 0 .913-.927.985-2.131l-1.97-.738z" fill="#373F3F"/><path d="M19.219 12.497l.613 1.227c.085.169.259.276.448.276h5.281c.238 0 .444-.168.49-.402l.743-3.716c.077-.385-.299-.704-.666-.566l-6.638 2.489c-.277.104-.403.426-.271.692z" fill="#F7F7F7"/><path d="M23.956 10.131l.015.369c0 1.381-.448 2.5-1 2.5-.502 0-.913-.927-.985-2.131l1.97-.738z" fill="#2B3332"/><path d="M16 16h-15c0 .68.044 1.344.132 2h14.868v-2z" fill="#373F3F"/><path d="M16 18h14.865c.087-.656.135-1.32.135-2h-15v2z" fill="#2B3332"/></svg>