<svg xmlns="http://www.w3.org/2000/svg" width="32" height="32" viewBox="0 0 32 32"><g><path d="M16 16h-15c0 8.284 6.716 15 15 15v-15z" fill="#D84459"/><path d="M16 31c8.284 0 15-6.716 15-15h-15v15z" fill="#C84054"/><path d="M16 1c-8.284 0-15 6.716-15 15h15v-15z" fill="#F7F7F7"/><path d="M31 16c0-8.284-6.716-15-15-15v15h15z" fill="#EDEEEE"/><path d="M16 16h-15c0 .68.044 1.344.132 2h14.868v-2z" fill="#373F3F"/><path d="M16 18h14.865c.087-.656.135-1.32.135-2h-15v2z" fill="#2B3332"/><ellipse cx="21" cy="12" rx="1" ry="2" fill="#2B3332"/><ellipse cx="11" cy="12" rx="1" ry="2" fill="#373F3F"/><path d="M18 10.375c-.098 0-.195-.038-.269-.114-.144-.148-.141-.386.008-.53l4.119-4c.094-.091.228-.127.355-.094l2.881.75c.201.052.321.257.269.457-.052.201-.259.319-.457.269l-2.677-.696-3.967 3.853c-.074.07-.168.105-.262.105z" fill="#2B3332"/><path d="M14 10.375c-.094 0-.188-.035-.261-.106l-3.968-3.853-2.677.696c-.201.05-.405-.068-.457-.269-.052-.2.068-.405.269-.457l2.881-.75c.128-.033.262.002.355.094l4.119 4c.148.145.152.382.008.53-.074.077-.171.115-.269.115z" fill="#373F3F"/></g></svg>