<svg xmlns="http://www.w3.org/2000/svg" width="32" height="32" viewBox="0 0 32 32"><g><path d="M23 20v-12s-3.571-.044-4.809 5.734c-1.341 6.266 4.809 6.266 4.809 6.266z" fill="#FAB8CD"/><path d="M23 20v-12s3.571-.044 4.809 5.734c1.341 6.266-4.809 6.266-4.809 6.266z" fill="#F9ADC8"/><path d="M23.806 9.772l-.647-.293 1.239-1.095c-.184-.09-.357-.16-.515-.212l-1.345 1.189c-.064.056-.094.141-.082.224.013.084.067.156.144.191l.999.452.103.022c.095 0 .186-.055.228-.147.057-.126.001-.274-.124-.331z" fill="#B38658"/><path d="M16 21v-14s-4.285-.052-5.77 6.69c-1.61 7.31 5.77 7.31 5.77 7.31z" fill="#FBCFD6"/><path d="M16 21v-14s4.285-.052 5.77 6.69c1.61 7.31-5.77 7.31-5.77 7.31z" fill="#FAC4D1"/><path d="M18.021 13.319l-.334.223c-.206.137-.109.458.139.458h.674c-.239 0-.43-.295-.479-.681zM18.925 12.716c.044.127.075.267.075.425 0 .474-.224.859-.5.859h1.25c.138 0 .25-.112.25-.25v-1.283c0-.2-.223-.319-.389-.208l-.686.457z" fill="#F7F7F7"/><path d="M19 13.141c0-.158-.031-.297-.075-.424l-.904.603c.049.385.24.68.479.68.276 0 .5-.385.5-.859z" fill="#2B3332"/><path d="M13.979 13.319l1.021.681h-1.5c.239 0 .43-.295.479-.681zM13.075 12.716c-.044.127-.075.267-.075.425 0 .474.224.859.5.859h-1.5v-2l1.075.716z" fill="#fff"/><path d="M13 13.141c0-.158.031-.297.075-.424l.904.603c-.049.385-.24.68-.479.68-.276 0-.5-.385-.5-.859zM13.176 15.823c-.098-.097-.256-.097-.354.001-.097.098-.097.255 0 .353.045.044 1.098 1.073 3.178 1.073v-.5c-1.861 0-2.814-.918-2.824-.927z" fill="#373F3F"/><path d="M19.177 15.824c-.098-.099-.256-.098-.354-.001-.009.009-.962.927-2.823.927v.5c2.08 0 3.133-1.029 3.177-1.073.097-.097.097-.255 0-.353z" fill="#2B3332"/><path d="M17.468 8.427l-.047-.041-.991-.669.412-.582c-.214-.058-.395-.091-.535-.11l-.406.572-1.944 1.255c-.051.033-.089.084-.105.143l-.219.781c-.037.133.04.271.173.308l.068.009c.109 0 .21-.072.241-.183l.193-.69 1.766-1.14 1.04.703.745.836c.049.056.118.084.187.084.059 0 .119-.021.166-.063.103-.092.112-.25.02-.353l-.764-.86z" fill="#C09265"/><path d="M6 22v-14s-4.285-.052-5.77 6.69c-1.61 7.31 5.77 7.31 5.77 7.31z" fill="#FBCFD6"/><path d="M6 22v-14s4.285-.052 5.77 6.69c1.61 7.31-5.77 7.31-5.77 7.31z" fill="#FAC4D1"/><path d="M8.021 14.319l-1.021.681h1.5c-.239 0-.43-.295-.479-.681zM8.925 13.716c.044.127.075.267.075.425 0 .474-.224.859-.5.859h1.5v-2l-1.075.716z" fill="#F7F7F7"/><path d="M9 14.141c0-.158-.031-.297-.075-.424l-.904.603c.049.385.24.68.479.68.276 0 .5-.385.5-.859z" fill="#2B3332"/><path d="M3.979 14.319l.334.223c.206.137.109.458-.139.458h-.674c.239 0 .43-.295.479-.681zM3.075 13.716c-.044.127-.075.267-.075.425 0 .474.224.859.5.859h-1.25c-.138 0-.25-.112-.25-.25v-1.283c0-.2.223-.319.389-.208l.686.457z" fill="#fff"/><path d="M3 14.141c0-.158.031-.297.075-.424l.904.603c-.049.385-.24.68-.479.68-.276 0-.5-.385-.5-.859zM6 16.75c-1.73 0-1.75.959-1.75 1 0 .134.107.24.241.245.144.024.249-.102.259-.236.013-.176.291-.509 1.25-.509l.031.001v-.499l-.031-.002z" fill="#373F3F"/><path d="M7.25 17.75c0 .138.112.25.25.25s.25-.112.25-.25c0-.041-.024-.985-1.719-.998v.499c.932.008 1.206.334 1.219.499z" fill="#2B3332"/><path d="M3.985 12.938l-.03-.002c-.137-.016-.235-.141-.218-.278l.156-1.297.079-.154.806-.738-.382-.868c-.055-.127.002-.274.128-.33.127-.056.274.002.329.128l.453 1.031c.043.098.019.213-.06.285l-.869.797-.145 1.205c-.015.127-.123.221-.247.221z" fill="#C09265"/><path d="M26 25v-14s-4.285-.052-5.77 6.69c-1.61 7.31 5.77 7.31 5.77 7.31z" fill="#FDE2E6"/><path d="M26 25v-14s4.285-.052 5.77 6.69c1.61 7.31-5.77 7.31-5.77 7.31z" fill="#FCD8DE"/><path d="M28.021 17.319l-.334.223c-.206.137-.109.458.139.458h.674c-.239 0-.43-.295-.479-.681zM28.925 16.716c.044.127.075.267.075.425 0 .474-.224.859-.5.859h1.25c.138 0 .25-.112.25-.25v-1.283c0-.2-.223-.319-.389-.208l-.686.457z" fill="#F7F7F7"/><path d="M29 17.141c0-.158-.031-.297-.075-.424l-.904.603c.049.385.24.68.479.68.276 0 .5-.385.5-.859z" fill="#2B3332"/><path d="M23.979 17.319l.334.223c.206.137.109.458-.139.458h-.674c.239 0 .43-.295.479-.681zM23.075 16.716c-.044.127-.075.267-.075.425 0 .474.224.859.5.859h-1.25c-.138 0-.25-.112-.25-.25v-1.283c0-.2.223-.319.389-.208l.686.457z" fill="#fff"/><path d="M23 17.141c0-.158.031-.297.075-.424l.904.603c-.049.385-.24.68-.479.68-.276 0-.5-.385-.5-.859zM25.002 20.552c-.137-.018-.263.077-.281.214-.019.137.077.263.213.281.028.004.279.037.628.037l.437-.022v-.5c-.525.048-.987-.009-.997-.01z" fill="#373F3F"/><path d="M27.637 20.049c-.101-.092-.26-.084-.353.017-.299.33-.816.454-1.284.496v.5c.574-.048 1.242-.207 1.654-.661.093-.102.085-.26-.017-.352z" fill="#2B3332"/><path d="M21.481 21.52l1.354.684.06 1.278.007.026.017.061.022.038.016.028.022.016.017.02 1.564 1.155c.436.091.808.134 1.066.155-.558-.403-1.409-1.028-2.083-1.527l1.263-1.109c.104-.091.114-.249.023-.353-.091-.104-.249-.114-.353-.023l-1.106.971-.042-.904c-.004-.09-.057-.171-.137-.212l-1.484-.75c-.124-.062-.274-.013-.336.11-.063.123-.013.274.11.336z" fill="#CDA073"/><path d="M11 25v-14s-4.285-.052-5.77 6.69c-1.61 7.31 5.77 7.31 5.77 7.31z" fill="#FDE2E6"/><path d="M11 25v-14s4.285-.052 5.77 6.69c1.61 7.31-5.77 7.31-5.77 7.31z" fill="#FCD8DE"/><path d="M12.754 16.311l.346-1.227c.021-.075.006-.156-.041-.219l-1.09-1.439.711-.737c.056-.058.081-.14.066-.219l-.199-1.081c-.195-.087-.379-.155-.547-.207l.231 1.253-.664.688-1.331-.406-.119-1.57c-.15.042-.314.098-.489.168l.122 1.61c.008.103.078.19.176.22l1.563.476 1.095 1.446-.341 1.208c-.018.065-.01.134.024.192l1.594 2.781c.046.081.13.126.217.126l.124-.033c.12-.069.161-.221.093-.341l-1.541-2.689z" fill="#CDA073"/><path d="M13.021 17.319l-.334.223c-.206.137-.109.458.139.458h.674c-.239 0-.43-.295-.479-.681zM13.925 16.716c.044.127.075.267.075.425 0 .474-.224.859-.5.859h1.25c.138 0 .25-.112.25-.25v-1.283c0-.2-.223-.319-.389-.208l-.686.457z" fill="#F7F7F7"/><path d="M14 17.141c0-.158-.031-.297-.075-.424l-.904.603c.049.385.24.68.479.68.276 0 .5-.385.5-.859z" fill="#2B3332"/><path d="M8.979 17.319l.334.223c.206.137.109.458-.139.458h-.674c.239 0 .43-.295.479-.681zM8.075 16.716c-.044.127-.075.267-.075.425 0 .474.224.859.5.859h-1.25c-.138 0-.25-.112-.25-.25v-1.283c0-.2.223-.319.389-.208l.686.457z" fill="#fff"/><path d="M8 17.141c0-.158.031-.297.075-.424l.904.603c-.049.385-.24.68-.479.68-.276 0-.5-.385-.5-.859zM9.25 20.75c0 .134.107.24.241.245.144.024.249-.102.259-.236.013-.176.291-.508 1.25-.508v-.5c-1.73-.001-1.75.958-1.75.999z" fill="#373F3F"/><path d="M12.25 20.75c0 .138.112.25.25.25s.25-.112.25-.25c0-.041-.02-1-1.75-1v.5c.959 0 1.237.333 1.25.5z" fill="#2B3332"/></g></svg>