<svg xmlns="http://www.w3.org/2000/svg" width="32" height="32" viewBox="0 0 32 32"><g><path d="M30.311 22.042c-.687.379-1.397.697-2.113.969l-.774-.814c-.272-.286-.753-.159-.848.224l-.298 1.201c-4.713 1.251-9.177.701-9.177.701s-4.083 3.5 3.25 3.875c4.955.253 8.655-3.146 10.533-5.377.335-.399-.118-1.03-.573-.779z" fill="#9E6E43"/><path d="M7 32h6.714s.815-.495-.309-1.466c-1.124-.971-6.405-.696-6.405 1.466z" fill="#B38658"/><path d="M14.133 22.438s-3.981-1.849-5.44 2.054-.315 4.683.67 5.751 4.601 1.18 5.395-.807c.795-1.987-.625-6.998-.625-6.998z" fill="#C09265"/><path d="M25 32h-6.714s-.815-.495.309-1.466c1.124-.971 6.405-.696 6.405 1.466z" fill="#A7794C"/><path d="M17.867 22.438s3.981-1.849 5.44 2.054.315 4.683-.67 5.751-4.601 1.18-5.395-.807c-.795-1.987.625-6.998.625-6.998zM11.5 16.018l-4.247-.725-1.647-.275c-.597-.099-1.19.202-1.46.744-.311.622-.11 1.378.469 1.764l1.285.858 3.701 2.468 1.899-4.834z" fill="#B38658"/><path d="M20.5 16.018l4.247-.725 1.647-.275c.597-.099 1.19.202 1.46.744.311.622.11 1.378-.469 1.764l-1.285.858-3.701 2.468-1.899-4.834z" fill="#A7794C"/><path d="M10.5 23.436c0-4.229 2.462-8.436 5.5-8.436v-4c-3.866 0-7 5.408-7 10.846 0 5.17 2.834 6.972 6.435 7.137-2.772-.162-4.935-1.583-4.935-5.547z" fill="#C09265"/><path d="M16 29l-.565-.016.565.016z" fill="#D49A87"/><path d="M21.5 23.436c0 3.964-2.163 5.385-4.935 5.548 3.601-.166 6.435-1.968 6.435-7.137 0-5.439-3.134-10.847-7-10.847v4c3.038 0 5.5 4.207 5.5 8.436z" fill="#B38658"/><path d="M16 29l.565-.016-.565.016z" fill="#D49A87"/><path d="M10.523 24.087c.228 3.469 2.298 4.743 4.912 4.897l.565.016v-3c-2.135 0-4.067-.731-5.477-1.913z" fill="#FAE09F"/><path d="M16 29l.565-.016c2.614-.154 4.684-1.428 4.912-4.897-1.41 1.182-3.343 1.913-5.477 1.913v3z" fill="#F7D684"/><path d="M16 22c-1.943 0-3.716-.608-5.082-1.607-.268.972-.418 2.007-.418 3.043 0 .226.009.441.023.651 1.41 1.182 3.342 1.913 5.477 1.913v-4z" fill="#FDEBBB"/><path d="M21.082 20.393c-1.366.999-3.139 1.607-5.082 1.607v4c2.134 0 4.067-.731 5.477-1.913.014-.21.023-.425.023-.651 0-1.037-.15-2.071-.418-3.043z" fill="#FAE09F"/><path d="M10.918 20.393c1.366.999 3.139 1.607 5.082 1.607v-7c-2.293 0-4.257 2.398-5.082 5.393z" fill="#FFF3D9"/><path d="M16 15v7c1.943 0 3.716-.608 5.082-1.607-.825-2.995-2.789-5.393-5.082-5.393z" fill="#FDEBBB"/><path d="M15.844 1.178l-3.273 1.071-2.759-2.168c-.189-.127-.406-.094-.565.022-.121.088-.213.22-.213.393l.108 3.787c0 .134-.054.263-.15.357l-.842.829c-.096.094-.15.222-.15.357v1.807c0 .144.062.282.171.377l.943.823c.109.095.171.232.171.377v2.828c0 .191.108.365.28.449l1.88.923.202.18 2.02 3.174c.05.079.122.142.207.183l1.911.911.215.049v-16.754l-.156.025z" fill="#DADDDC"/><path d="M23.85 5.469l-.843-.828c-.096-.094-.15-.223-.15-.357l.177-3.787c0-.125-.049-.228-.121-.309l-.092-.084c-.159-.116-.376-.149-.565-.023l-2.828 2.169-3.273-1.071-.155-.026v16.752l.215-.049 1.911-.912c.085-.04.156-.104.206-.183l2.021-3.173.201-.18 1.88-.923c.171-.084.28-.258.28-.449v-2.827c0-.144.062-.282.171-.377l.943-.823c.11-.095.172-.232.172-.376v-1.807c0-.135-.054-.263-.15-.357z" fill="#D1D4D4"/><path d="M13.751 10.495l.515.146-.266-1.641-.003-.003.003.066c0 .57-.097 1.078-.249 1.432zM12.708 7.728l-.708-.697v2.591c0 .224.149.42.364.481l.275.078c-.087-.317-.139-.701-.139-1.118 0-.519.08-.987.208-1.335z" fill="#fff"/><path d="M14 9.063l-.003-.065-1.289-1.269c-.128.347-.208.815-.208 1.334 0 .418.052.802.139 1.118l1.112.314c.152-.354.249-.862.249-1.432zM15.003 15.002l-.906-.799c-.111-.098-.125-.267-.032-.382l.613-.754.325 1.935z" fill="#373F3F"/><path d="M18.249 10.495l-.515.146.266-1.641.003-.003-.003.066c0 .57.097 1.078.249 1.432zM19.292 7.728l.708-.697v2.591c0 .224-.149.42-.364.481l-.275.078c.087-.317.139-.701.139-1.118 0-.519-.08-.987-.208-1.335z" fill="#F7F7F7"/><path d="M18 9.063l.003-.065 1.289-1.269c.128.347.208.815.208 1.334 0 .418-.052.802-.139 1.118l-1.112.314c-.152-.354-.249-.862-.249-1.432zM17.003 15.002l.906-.799c.111-.098.125-.267.032-.382l-.613-.754-.325 1.935z" fill="#2B3332"/><path d="M4.521 8.557l-.334-.182c-.404-.22-.906-.137-1.217.202l-.707.774c-.169.184-.263.425-.263.675v.851c0 .256.098.501.273.687l.953 1.008c.176.186.274.432.274.687v5.481c0 .256-.098.501-.273.687l-.953 1.008c-.176.186-.274.432-.274.688v.851c0 .25.094.491.263.675l.708.773c.311.339.813.423 1.217.202l.333-.182c.149-.081.314-.122.479-.122v-14.641c-.165 0-.33-.04-.479-.122z" fill="#EDEEEE"/><path d="M5.812 23.625c.404.22.906.137 1.217-.202l.708-.773c.169-.185.263-.426.263-.676v-.851c0-.255-.098-.501-.273-.687l-.953-1.008c-.176-.186-.274-.432-.274-.688v-5.481c0-.255.098-.501.273-.687l.953-1.008c.176-.185.274-.431.274-.687v-.851c0-.25-.094-.491-.263-.675l-.708-.773c-.311-.34-.813-.423-1.217-.203l-.333.182c-.149.082-.314.122-.479.122v14.641c.165 0 .33.041.479.122l.333.183zM15.689 1.229l-3.117 1.02-2.76-2.168c-.189-.127-.406-.094-.565.022l2.753 6.928 2 1.969 1 6-1.256 1.883 2.041.974.215.049v-16.753c-.105 0-.21.043-.311.076z" fill="#E3E5E5"/><path d="M18.256 16.883l-1.256-1.883 1-6 2-1.969 2.822-6.928c-.159-.116-.376-.149-.565-.023l-2.828 2.169-3.117-1.02c-.102-.033-.207-.08-.312-.08v16.756l.215-.049 2.041-.973z" fill="#DADDDC"/></g></svg>