<svg xmlns="http://www.w3.org/2000/svg" width="32" height="32" viewBox="0 0 32 32"><g><path d="M9.062 8.111l-1.749-.972-2.896 5.213c-.668.152-1.167.746-1.167 1.46 0 .828.672 1.5 1.5 1.5s1.5-.672 1.5-1.5c0-.171-.035-.332-.087-.484l2.899-5.217z" fill="#CDA073"/><path d="M27.583 12.352l-2.896-5.213-1.748.972 2.898 5.217c-.052.153-.087.314-.087.484 0 .828.672 1.5 1.5 1.5s1.5-.672 1.5-1.5c0-.713-.5-1.308-1.167-1.46z" fill="#C09265"/><path d="M6.354 31s-2.25 0-2.25 1h2.25v-1z" fill="#E3E5E5"/><path d="M10.198 18.911c-.371 1.126-.663 2.48-.878 4.066l3.24 1.048c.201-1.745.469-2.986.741-3.871l-3.103-1.243zM10.198 18.911c-.371 1.126-.663 2.48-.878 4.066l3.24 1.048c.201-1.745.469-2.986.741-3.871l-3.103-1.243z" fill="#FFF3D9"/><path d="M8.871 30.935h3.352c0-1.324.031-2.496.08-3.564l-3.334-.396c-.062 1.228-.098 2.539-.098 3.96z" fill="#FAE09F"/><path d="M9.32 22.978c-.162 1.197-.276 2.536-.351 3.998l3.334.396c.059-1.274.146-2.392.256-3.346l-3.239-1.048z" fill="#FDEBBB"/><path d="M8.676 5.018l-.176-.018c-1.381 0-2.5 1.119-2.5 2.5s1.119 2.5 2.5 2.5c.227 0 .442-.04.651-.096.401.935.909 1.705 1.302 2.683.45 1.12.437 2.349-.022 3.465l-.962 2.335c-.129.314-.015.668.28.869l3.779 2.566c.408.277.991.156 1.227-.254l1.245-2.735v-18.833s-6.239.017-7.324 5.018z" fill="#C09265"/><path d="M4.75 13.875c-.145-.533.17-1.082.703-1.227l2.445-.664c.533-.145 1.082.17 1.227.703.145.533-.17 1.082-.703 1.227l-2.445.664c-.533.145-1.082-.17-1.227-.703zM4.75 13.875c-.145-.533.17-1.082.703-1.227l2.445-.664c.533-.145 1.082.17 1.227.703.145.533-.17 1.082-.703 1.227l-2.445.664c-.533.145-1.082-.17-1.227-.703z" fill="#FFF3D9"/><path d="M11.274 13.018l-.643.179c-.216.061-.444.048-.623-.036l-.101-.066 1.792-.499c.399-.111.633-.525.521-.924-.111-.399-.522-.634-.924-.521l-1.791.499.052-.109c.109-.164.298-.292.515-.353l.643-.179c.399-.111.633-.525.521-.924-.111-.398-.523-.631-.924-.521l-.642.179c-.565.157-1.047.499-1.358.962-.331.492-.435 1.085-.283 1.628l.263.941c.151.542.546.997 1.084 1.247.306.142.642.214.983.214.225 0 .451-.031.675-.093l.643-.179c.398-.111.633-.524.521-.924-.112-.398-.522-.631-.924-.521z" fill="#CFAB81"/><path d="M6 32h6.714s.815-.742-.309-2.198-6.405-1.045-6.405 2.198z" fill="#B38658"/><path d="M14.806 6.678l-1.419-1.095-.16-.082-1.585-.478c-.357-.108-.701.2-.633.567l.29 1.574c.044.236.249.407.489.407h2.714c.474-.002.679-.603.304-.893z" fill="#373F3F"/><path d="M13.387 5.582l-.16-.082-1.067-.322c-.059.17-.097.355-.097.555 0 .735.447 1.331.999 1.331.464 0 .836-.43.949-1.002l-.624-.48z" fill="#fff"/><path d="M13.387 5.582l-.16-.082-.668-.201c-.113.119-.185.278-.185.455 0 .368.298.666.666.666.345 0 .619-.265.653-.601l-.306-.237z" fill="#373F3F"/><path d="M25.646 31s2.25 0 2.25 1h-2.25v-1z" fill="#DADDDC"/><path d="M21.802 18.911c.371 1.126.663 2.48.878 4.066l-3.24 1.048c-.201-1.745-.469-2.986-.741-3.871l3.103-1.243zM21.802 18.911c.371 1.126.663 2.48.878 4.066l-3.24 1.048c-.201-1.745-.469-2.986-.741-3.871l3.103-1.243z" fill="#FDEBBB"/><path d="M23.129 30.935h-3.352c0-1.324-.031-2.496-.08-3.564l3.334-.396c.062 1.228.098 2.539.098 3.96z" fill="#F7D684"/><path d="M22.68 22.978c.162 1.197.276 2.536.351 3.998l-3.334.396c-.059-1.274-.146-2.392-.256-3.346l3.239-1.048z" fill="#FAE09F"/><path d="M23.5 5l-.176.018c-1.085-5.001-7.324-5.018-7.324-5.018v18.833l1.245 2.733c.236.41.819.531 1.227.254l3.779-2.566c.295-.2.409-.555.28-.869l-.962-2.335c-.46-1.117-.472-2.345-.022-3.465.393-.978.901-1.748 1.302-2.683.209.058.424.098.651.098 1.381 0 2.5-1.119 2.5-2.5s-1.119-2.5-2.5-2.5z" fill="#B38658"/><path d="M27.25 13.875c.145-.533-.17-1.082-.703-1.227l-2.445-.664c-.533-.145-1.082.17-1.227.703-.145.533.17 1.082.703 1.227l2.445.664c.533.145 1.082-.17 1.227-.703zM27.25 13.875c.145-.533-.17-1.082-.703-1.227l-2.445-.664c-.533-.145-1.082.17-1.227.703-.145.533.17 1.082.703 1.227l2.445.664c.533.145 1.082-.17 1.227-.703z" fill="#FDEBBB"/><path d="M23.687 10.705c-.311-.463-.793-.805-1.357-.962l-.643-.179c-.4-.11-.812.123-.924.521-.111.399.122.813.521.924l.643.179c.217.061.405.189.515.353l.052.109-1.793-.499c-.401-.112-.812.122-.924.521-.111.399.122.812.521.924l1.792.499-.101.066c-.179.083-.407.097-.623.036l-.643-.179c-.401-.11-.812.123-.924.521-.111.399.123.813.521.924l.643.179c.224.062.45.093.675.093.342 0 .678-.072.983-.214.538-.25.933-.705 1.084-1.247l.263-.941c.154-.543.051-1.136-.281-1.628z" fill="#CDA073"/><path d="M26 32h-6.714s-.815-.742.309-2.198c1.124-1.457 6.405-1.045 6.405 2.198z" fill="#B38658"/><path d="M17.194 6.678l1.419-1.095.16-.082 1.585-.478c.357-.108.701.2.633.567l-.29 1.574c-.044.236-.249.407-.489.407h-2.714c-.474-.002-.679-.603-.304-.893z" fill="#2B3332"/><path d="M18.613 5.582l.16-.082 1.067-.322c.059.17.097.355.097.555 0 .735-.447 1.331-.999 1.331-.464 0-.836-.43-.949-1.002l.624-.48z" fill="#F7F7F7"/><path d="M18.613 5.582l.16-.082.668-.201c.113.119.185.278.185.455 0 .368-.298.666-.666.666-.345 0-.619-.265-.653-.601l.306-.237z" fill="#2B3332"/></g></svg>