<svg xmlns="http://www.w3.org/2000/svg" width="32" height="32" viewBox="0 0 32 32"><g><path d="M19.036 25.823l-3.03 1.118-.006-.001-3.036-1.12c-.045-.236-.169-.443-.343-.59-.272-.056-.539-.122-.805-.192-.462.089-.816.475-.816.962 0 .552.448 1 1 1 .272 0 .516-.11.697-.286l2.218.63-2.101.775c-.087-.071-.194-.119-.314-.119-.276 0-.5.224-.5.5s.224.5.5.5c.274 0 .494-.22.499-.493l3.001-.852.005-.001 2.996.85c.002.274.224.496.499.496.276 0 .5-.224.5-.5s-.224-.5-.5-.5c-.119 0-.224.047-.309.117l-2.095-.773 2.211-.628c.18.174.423.284.693.284.552 0 1-.448 1-1 0-.487-.354-.873-.815-.963-.266.069-.533.135-.804.191-.176.149-.301.357-.345.595z" fill="none"/><path d="M12.964 25.819l3.036 1.121v-.94c-.875 0-1.628-.214-2.161-.573-.411-.053-.819-.115-1.219-.198.175.148.299.354.344.59zM12.999 28.507c-.005.273-.225.493-.499.493-.276 0-.5-.224-.5-.5s.224-.5.5-.5c.12 0 .227.048.313.119l2.101-.775-2.218-.63c-.18.176-.424.286-.696.286-.552 0-1-.448-1-1 0-.487.354-.873.815-.963-5.066-1.32-9.077-4.963-10.592-9.617-.137.174-.223.385-.223.615v1.764c0 .379.214.725.553.894l1.7.85c.327 1.649.97 3.183 1.857 4.543l-.582 1.744c-.12.359-.026.756.242 1.023l1.247 1.247c.268.268.664.361 1.023.242l1.69-.563c2.075 1.402 4.577 2.221 7.27 2.221v-2.345l-3.001.852z" fill="#9179C6"/><path d="M20.185 25.037c.461.09.815.476.815.963 0 .552-.448 1-1 1-.27 0-.513-.11-.693-.284l-2.211.628 2.095.773c.085-.07.19-.117.309-.117.276 0 .5.224.5.5s-.224.5-.5.5c-.275 0-.497-.222-.499-.496l-2.996-.85-.005.001v2.345c2.709 0 5.223-.83 7.305-2.247l1.768.589c.359.12.755.026 1.023-.242l1.247-1.247c.268-.268.361-.664.242-1.023l-.621-1.863c.848-1.331 1.466-2.821 1.784-4.423l1.7-.85c.338-.17.552-.517.552-.895v-1.764c0-.229-.086-.441-.223-.615-1.515 4.655-5.526 8.297-10.592 9.617z" fill="#866EBA"/><path d="M16 26.94l.005.002 3.03-1.118c.044-.238.169-.446.345-.594-.4.083-.808.145-1.22.198-.532.358-1.285.572-2.16.572v.94z" fill="#7A63AD"/><path d="M12 25l-.185.037c.266.069.534.135.805.192-.167-.142-.381-.229-.62-.229zM19.381 25.229c.271-.056.539-.122.804-.191l-.185-.038c-.239 0-.452.088-.619.229z" fill="#F7F7F7"/><path d="M11.815 25.037l.185-.037c.239 0 .453.087.62.229.4.083.808.145 1.219.198-.527-.354-.839-.851-.839-1.427 0-1.159 1.262-2 3-2v-2c-3.798 0-5.618-1.272-6.425-2.159-.295-.324-.069-.841.369-.841h6.056v-15h-.882c-.379 0-.725.214-.894.553l-.858 1.715c-1.74.358-3.347 1.071-4.757 2.048l-1.431-.477c-.359-.12-.755-.026-1.023.242l-1.247 1.247c-.268.268-.362.664-.242 1.023l.495 1.484c-.879 1.327-1.517 2.823-1.861 4.431l-1.747.874c-.134.067-.241.167-.33.28 1.515 4.655 5.526 8.297 10.592 9.617z" fill="#9D85D3"/><path d="M30.447 15.14l-1.747-.873c-.31-1.447-.858-2.804-1.607-4.028l.629-1.887c.12-.359.026-.755-.242-1.023l-1.247-1.247c-.268-.268-.664-.361-1.023-.242l-1.69.563c-1.44-1.024-3.094-1.766-4.886-2.135l-.857-1.715c-.17-.339-.516-.553-.895-.553h-.882v15h6.056c.438 0 .664.517.369.841-.807.887-2.627 2.159-6.425 2.159v2c1.738 0 3 .841 3 2 0 .576-.313 1.073-.839 1.427.411-.054.819-.115 1.22-.198.167-.141.38-.229.619-.229l.185.037c5.066-1.32 9.077-4.963 10.592-9.617-.089-.113-.196-.213-.33-.28z" fill="#9179C6"/><path d="M14 24c0 .552.895 1 2 1v-2c-1.105 0-2 .448-2 1z" fill="#9E86BF"/><path d="M16 20v-3h-6.056c-.438 0-.664.517-.369.841.807.887 2.627 2.159 6.425 2.159z" fill="#FF805D"/><path d="M18 24c0-.552-.895-1-2-1v2c1.105 0 2-.448 2-1z" fill="#7A63AD"/><path d="M22.056 17h-6.056v3c3.798 0 5.618-1.272 6.425-2.159.295-.324.069-.841-.369-.841z" fill="#F57552"/><path d="M13 24c0 1.159 1.262 2 3 2v-1c-1.105 0-2-.448-2-1s.895-1 2-1v-1c-1.738 0-3 .841-3 2z" fill="#fff"/><path d="M18 24c0 .552-.895 1-2 1v1c1.738 0 3-.841 3-2s-1.262-2-3-2v1c1.105 0 2 .448 2 1z" fill="#F7F7F7"/><path d="M12 25c-.552 0-1 .448-1 1s.448 1 1 1c.272 0 .516-.11.697-.286l2.218.63-2.101.775c-.087-.071-.194-.119-.314-.119-.276 0-.5.224-.5.5s.224.5.5.5c.274 0 .494-.22.499-.493l3.001-.852v-.715l-3.036-1.12c-.088-.463-.476-.82-.964-.82z" fill="#fff"/><path d="M16.005 27.654l2.996.85c.002.274.224.496.499.496.276 0 .5-.224.5-.5s-.224-.5-.5-.5c-.119 0-.224.047-.309.117l-2.095-.773 2.211-.628c.18.174.423.284.693.284.552 0 1-.448 1-1s-.448-1-1-1c-.49 0-.878.359-.964.823l-3.03 1.118-.006-.001v.716l.005-.002z" fill="#F7F7F7"/><path d="M14 15l-6-.002s.001-2.999 3.001-2.998l2.999 3z" fill="#fff"/><ellipse cx="11.5" cy="13.25" rx=".5" ry=".75" fill="#373F3F"/><path d="M19 17l.823.823c.098.098.256.098.354 0l.823-.823h-2zM24 15l-6-.002s.001-2.999 3.001-2.998l2.999 3z" fill="#F7F7F7"/><path d="M11 17l.823.823c.098.098.256.098.354 0l.823-.823h-2z" fill="#fff"/><ellipse cx="20.5" cy="13.25" rx=".5" ry=".75" fill="#2B3332"/><path d="M30 1c-.375 0-.721.11-1.021.289-.104-.728-.723-1.289-1.479-1.289-.828 0-1.5.672-1.5 1.5 0 .693.472 1.27 1.11 1.442-.07.173-.11.36-.11.558 0 .828.672 1.5 1.5 1.5.25 0 .482-.067.689-.175.248.111.522.175.811.175 1.105 0 2-.895 2-2s-.895-2-2-2z" fill="#F0C877"/><path d="M4 27.5c0-.828-.672-1.5-1.5-1.5s-1.5.672-1.5 1.5c0 .248.066.478.172.684-.69.315-1.172 1.008-1.172 1.816 0 1.105.895 2 2 2s2-.895 2-2c0-.526-.207-1-.539-1.357.327-.275.539-.682.539-1.143z" fill="#F7D684"/></g></svg>