<svg xmlns="http://www.w3.org/2000/svg" width="32" height="32" viewBox="0 0 32 32"><path d="M23.575 29.319c-1.322.352-2.661.562-4 .639v-10.292c.928 1.084 2.123 1.948 3.534 2.439l.466.162v7.052z" fill="#A2D336"/><path d="M1.336 12.691l2.111-8.97c.079-.338.328-.61.657-.72l1.446-.482c.553-.184 1.145.141 1.287.706l.738 2.952c1.055 4.218 5.184 6.858 9.401 6.127.311-.054.599.169.599.485v1.528c0 2.014.75 3.888 2 5.348v10.292c-5.104.292-10.192-1.373-14.158-4.773l-.002-.002c-3.588-3.074-5.161-7.892-4.079-12.491z" fill="#B1E346"/><path d="M5.161 11.586c-.781.781-.781 2.047 0 2.828.781.781 2.047.781 2.828 0 .781-.781-.707-2.121-.707-2.121s-1.34-1.488-2.121-.707z" fill="#fff"/><ellipse transform="matrix(.707 -.707 .707 .707 -7.267 8.457)" cx="6.575" cy="13" rx="1" ry="1" fill="#2B3332"/><path d="M5.417 25.185l-.002-.002c-1.372-1.176-2.446-2.607-3.193-4.183h4.353c3 8 13 8.958 13 8.958-5.104.292-10.192-1.374-14.158-4.773z" fill="#9ACC2E"/><path d="M4.575 17l1.707 1.707c.188.188.293.442.293.707v1.586h-4.353c-.597-1.26-.985-2.611-1.142-4h3.495z" fill="#A2D336"/><path d="M1.336 12.691l.885-3.763c.001 5.929 2.354 8.072 2.354 8.072h-3.495c-.16-1.418-.081-2.874.256-4.309z" fill="#AADB3D"/><path d="M30.587 27.334l-3.012.858v-4.532l3.087 1.075c.547.19.913.706.913 1.284v.007c0 .607-.403 1.141-.988 1.308z" fill="#93C427"/><path d="M27.575 28.192l-3.666 1.044-.334.084v-7.052l4 1.393v4.531z" fill="#9ACC2E"/><path d="M19.575 26v-6.334c.928 1.084 2.123 1.948 3.534 2.439l.466.162v3.733h-4z" fill="#AADB3D"/><path fill="#A2D336" d="M23.575 26v-3.733l4 1.393v2.34z"/></svg>