<svg xmlns="http://www.w3.org/2000/svg" width="32" height="32" viewBox="0 0 32 32"><g><path d="M25.603 21.472l.896-8.24-2.998-.132-.355 8.038c-.309.092-.6.222-.858.402l-8.868-4.973-1.467 2.616 9.067 4.607-.02.21c0 1.657 1.343 3 3 3s3-1.343 3-3c0-1.066-.559-1.996-1.397-2.528z" fill="#7A63AD"/><path d="M24.519 6.005c-.324.003-.619.188-.761.479l-.456.93-.374.128-.76-.432c-.282-.16-.63-.147-.899.033l-.543.364c-.269.18-.413.497-.373.819l.117.916c-.913 1.051-1.47 2.422-1.47 3.925 0 3.314 2.686 6 6 6v-13.166l-.481.004z" fill="#866EBA"/><path d="M29.133 18.333c.311.091.647 0 .868-.238l.445-.478c.221-.237.289-.579.175-.882l-.3-.803c.432-.829.679-1.767.679-2.765 0-.391-.04-.771-.112-1.141l.529-.638c.207-.249.255-.594.125-.891l-.263-.598c-.13-.297-.417-.494-.741-.51l-.914-.045c-.818-.989-1.95-1.705-3.24-2.01l-.442-.867c-.148-.289-.445-.47-.769-.467l-.173.001v13.165c1.259 0 2.426-.389 3.391-1.052l.742.219z" fill="#7A63AD"/><path d="M5.646 17.762c-.188.188-.426.279-.665.279-.257 0-.516-.104-.718-.307-.391-.391-.36-1.051.03-1.442.303-.302 1.684-1.292 6.707-1.292v-9c-1.288 0-2.515.252-3.645.695l-.994-.564c-.329-.188-.736-.173-1.051.038l-.634.425c-.315.211-.484.582-.436.957l.125.981c-2.06 1.832-3.365 4.495-3.365 7.468l.017.331-.646.505c-.298.233-.439.615-.364.986l.152.749c.075.371.354.668.719.767l.783.211c.304.799.704 1.549 1.192 2.235l-.263.801c-.118.36-.023.756.246 1.022l.543.538c.269.267.666.358 1.024.237l.776-.263c.684.491 1.43.896 2.228 1.204l.225.805c.102.365.402.641.773.712l.75.145c.372.072.752-.073.983-.373l.484-.631.378.019v-9c-4.26 0-5.344.754-5.354.762z" fill="#9D85D3"/><path d="M4.263 17.735c.202.202.461.307.718.307.239 0 .477-.091.665-.279.01-.009 1.094-.763 5.354-.763v-2c-5.023 0-6.404.99-6.707 1.293-.391.391-.421 1.051-.03 1.442z" fill="#F57552"/><path d="M13.792 26.265c.288.246.69.309 1.039.161l.704-.297c.349-.147.585-.479.609-.857l.047-.737c2.88-1.756 4.809-4.916 4.809-8.535 0-2.973-1.305-5.636-3.365-7.467l.125-.981c.048-.376-.121-.746-.435-.957l-.635-.426c-.315-.211-.721-.226-1.051-.038l-.993.565c-1.131-.444-2.358-.696-3.646-.696v9c5.023 0 6.404.99 6.707 1.293.391.391.391 1.023 0 1.414s-1.022.391-1.413.001v.001c-.02 0-1.163-.709-5.294-.709v9c.754 0 1.485-.09 2.192-.249l.6.514z" fill="#9179C6"/><path d="M16.294 17.709v-.001c.391.39 1.022.39 1.413-.001s.391-1.023 0-1.414c-.303-.303-1.684-1.293-6.707-1.293v2c4.131 0 5.274.709 5.294.709z" fill="#EB6B48"/><path d="M8 20.429c0 .828 1.262 1.429 3 1.429v-.714c-1.105 0-2-.32-2-.714 0-.395.895-.714 2-.714v-.716c-1.738 0-3 .601-3 1.429zM7 21.143c-.552 0-1 .32-1 .714 0 .394.448.714 1 .714.272 0 .516-.079.697-.204l2.218.45-2.101.554c-.087-.051-.193-.085-.314-.085-.276 0-.5.16-.5.357 0 .197.224.357.5.357.274 0 .494-.157.499-.352l3.001-.609v-.511l-3.036-.8c-.088-.331-.476-.585-.964-.585z" fill="#fff"/><path d="M13 20.429c0 .394-.895.714-2 .714v.714c1.738 0 3-.601 3-1.429s-1.262-1.428-3-1.428v.714c1.105 0 2 .32 2 .715zM11.005 23.038l2.996.607c.002.197.224.355.499.355.276 0 .5-.16.5-.357 0-.197-.224-.357-.5-.357-.119 0-.224.034-.309.083l-2.095-.552 2.211-.448c.18.124.423.203.693.203.552 0 1-.32 1-.714 0-.395-.448-.714-1-.714-.49 0-.878.256-.964.588l-3.03.799-.006-.003v.511l.005-.001z" fill="#F7F7F7"/><path d="M22.75 17c0 .579.946 1 2.25 1v-.5c-.828 0-1.5-.224-1.5-.5s.672-.5 1.5-.5v-.5c-1.304 0-2.25.421-2.25 1z" fill="#fff"/><path d="M26.5 17c0 .276-.672.5-1.5.5v.5c1.304 0 2.25-.421 2.25-1s-.946-1-2.25-1v.5c.828 0 1.5.224 1.5.5zM17.781 12.947l-4.821-1.441c-.082-.025-.321.023-.354.131-.492 1.646.722 1.987 2.213 2.433 1.491.446 2.652.963 3.185-.819.033-.108-.14-.279-.223-.304zM17.781 12.947l-4.821-1.441c-.082-.025-.321.023-.354.131-.492 1.646.722 1.987 2.213 2.433 1.491.446 2.652.963 3.185-.819.033-.108-.14-.279-.223-.304z" fill="#F7F7F7"/><path d="M15.142 12.991c.486.145.98-.061 1.25-.459l-2.043-.611c.008.482.308.925.793 1.07zM15.142 12.991c.486.145.98-.061 1.25-.459l-2.043-.611c.008.482.308.925.793 1.07z" fill="#2B3332"/><path d="M4.227 12.947l4.821-1.441c.082-.025.321.023.354.131.492 1.646-.722 1.987-2.213 2.433-1.491.446-2.652.963-3.185-.819-.032-.108.141-.279.223-.304zM4.227 12.947l4.821-1.441c.082-.025.321.023.354.131.492 1.646-.722 1.987-2.213 2.433-1.491.446-2.652.963-3.185-.819-.032-.108.141-.279.223-.304z" fill="#fff"/><path d="M6.866 12.991c-.486.145-.98-.061-1.25-.459l2.043-.611c-.007.482-.307.925-.793 1.07zM6.866 12.991c-.486.145-.98-.061-1.25-.459l2.043-.611c-.007.482-.307.925-.793 1.07z" fill="#373F3F"/><path d="M14.269 17.194c.756.105 1.261.233 1.575.336l-.606-1.819c-.076-.228-.398-.228-.474 0l-.495 1.483z" fill="#F7F7F7"/><path d="M6.153 17.541c.324-.11.829-.239 1.579-.345l-.495-1.484c-.076-.228-.398-.228-.474 0l-.61 1.829zM29 11.984s-.469 1.604-1.818 1.185c-1.079-.335-.856-1.733-.856-1.733l2.674.548z" fill="#fff"/><ellipse transform="matrix(.767 -.641 .641 .767 -1.498 20.537)" cx="27.537" cy="12.331" rx=".5" ry=".5" fill="#2B3332"/><path d="M21 11.984s.469 1.604 1.818 1.185c1.079-.335.856-1.733.856-1.733l-2.674.548z" fill="#fff"/><ellipse transform="matrix(.641 -.767 .767 .641 -1.407 21.653)" cx="22.463" cy="12.331" rx=".5" ry=".5" fill="#2B3332"/><path d="M6 27c0-1.105-.895-2-2-2s-2 .895-2 2l.005.05c-1.143.23-2.005 1.239-2.005 2.45 0 1.381 1.119 2.5 2.5 2.5s2.5-1.119 2.5-2.5c0-.25-.048-.487-.116-.714.659-.328 1.116-1.001 1.116-1.786z" fill="#F7D684"/><path d="M30 1c-.375 0-.721.11-1.021.289-.104-.728-.723-1.289-1.479-1.289-.828 0-1.5.672-1.5 1.5 0 .693.472 1.27 1.11 1.442-.07.173-.11.36-.11.558 0 .828.672 1.5 1.5 1.5.25 0 .482-.067.689-.175.248.111.522.175.811.175 1.105 0 2-.895 2-2s-.895-2-2-2z" fill="#F0C877"/><g fill="#2B3332"><path d="M23.023 14.395l-1.103.368c-.131.044-.202.186-.158.316.044.131.186.201.316.158l1.103-.368c.586-.196 1.202-.294 1.818-.294v-.5c-.668.001-1.338.108-1.976.32zM27.921 15.237l.079.013c.104 0 .202-.066.237-.171.044-.131-.027-.272-.158-.316l-1.103-.368c-.638-.212-1.307-.319-1.977-.319v.5c.616 0 1.232.098 1.818.294l1.104.367zM23.023 14.395l-1.103.368c-.131.044-.202.186-.158.316.044.131.186.201.316.158l1.103-.368c.586-.196 1.202-.294 1.818-.294v-.5c-.668.001-1.338.108-1.976.32zM27.921 15.237l.079.013c.104 0 .202-.066.237-.171.044-.131-.027-.272-.158-.316l-1.103-.368c-.638-.212-1.307-.319-1.977-.319v.5c.616 0 1.232.098 1.818.294l1.104.367z"/></g></g></svg>