<svg xmlns="http://www.w3.org/2000/svg" width="32" height="32" viewBox="0 0 32 32"><g><path d="M15 .25s-.398 6.75-4 6.75l4 1.625v-8.375z" fill="#687271"/><path d="M2.169 15.272c-.405 1.037-.83 2.578-1.114 3.33-.118.313-.042.665.194.901l1.248 1.248c.159.159.249.376.249.601v.273c0 .632-.665 1.043-1.23.76l-.01-.005c-.42-.21-.93-.04-1.14.38l-.276.551c-.195.391-.063.866.307 1.099l4.212 2.654c.322.203.734.171 1.017-.083 1.315-1.181 4.897-4.428 4.744-4.606-.147-.172-4.79-5.204-6.788-7.369-.425-.461-1.185-.319-1.413.266z" fill="#505957"/><path d="M8.958 20.042s-5.958-4.2-5.958-9.042c0-6.18 4.568-7.791 5.182-7.98l.14-.02h1.45c.428 0 .662.5.379.822-1.22 1.392-2.834 4.299 1.942 6.74 5.683 2.905-3.135 9.48-3.135 9.48z" fill="#5C6664"/><path d="M13 8.458c1.426-.412 1.904-6.905 1.986-8.225.009-.132.118-.233.25-.233h.764v8l-3 .458z" fill="#838C8A"/><path d="M29.831 15.272c.405 1.037.83 2.578 1.114 3.33.118.313.042.665-.194.901l-1.248 1.248c-.159.159-.249.376-.249.601v.273c0 .632.665 1.043 1.23.76l.01-.005c.42-.21.93-.04 1.14.38l.275.551c.195.391.063.866-.307 1.099l-4.212 2.654c-.322.203-.734.171-1.017-.083-1.315-1.181-4.897-4.428-4.744-4.606.147-.172 4.79-5.204 6.788-7.369.426-.461 1.186-.319 1.414.266z" fill="#434C4B"/><path d="M23.044 20.042s5.958-4.2 5.958-9.042c0-6.18-4.568-7.791-5.182-7.98l-.14-.02h-1.45c-.428 0-.662.5-.379.822 1.22 1.392 2.834 4.299-1.942 6.74-5.683 2.905 3.135 9.48 3.135 9.48z" fill="#505957"/><path d="M17 .25s.398 6.75 4 6.75l-4 1.625v-8.375z" fill="#5C6664"/><path d="M19 8.458c-1.426-.412-1.904-6.905-1.986-8.225-.009-.132-.118-.233-.25-.233h-.764v8l3 .458z" fill="#757F7E"/><path d="M11.94 31h-7.746c-.677 0-1.194-.588-1.12-1.26.243-2.224 1.203-7.74 4.993-7.74s4.75 5.516 4.993 7.74c.073.672-.443 1.26-1.12 1.26z" fill="#687271"/><path d="M27.873 31h-7.746c-.677 0-1.194-.588-1.12-1.26.243-2.224 1.203-7.74 4.993-7.74s4.75 5.516 4.993 7.74c.073.672-.443 1.26-1.12 1.26z" fill="#5C6664"/><path d="M7.43 11.677l-3.928 3.833c-.301.294-.386.746-.212 1.129l4.337 9.541c.212.466.741.697 1.227.535l1.477-.492c.382-.127.8-.017 1.064.287.686.791 2.252 2.49 4.605 2.49v-5.471l-4.37-12.956-4.2 1.104z" fill="#838C8A"/><path d="M11.007 6.539l-.821-.433c-.152-.08-.319-.109-.486-.106v1.065c0 .552-.448 1-1 1h-3.455c-.15.177-.245.399-.245.64v2.643c0 .423.265.797.662.941 1.239.449 3.795 1.522 3.921 2.778.166 1.661 3.817 8.527 6.417 8.527v-6.176c-2.705-.039-5.112-6.636-4.993-10.879z" fill="#909997"/><path d="M9.7 6c-.136.003-.273.024-.399.082l-3.72 1.715c-.135.062-.244.159-.336.268h3.455c.552 0 1-.448 1-1v-1.065z" fill="#505957"/><path d="M24.57 11.677l3.927 3.833c.301.294.386.746.212 1.129l-4.337 9.541c-.212.466-.741.697-1.227.535l-1.477-.492c-.382-.127-.8-.017-1.064.287-.685.791-2.251 2.49-4.604 2.49v-5.471l4.37-12.956 4.2 1.104z" fill="#757F7E"/><path d="M20.993 6.539l.821-.433c.152-.08.319-.109.486-.106v1.065c0 .552.448 1 1 1h3.455c.15.177.245.399.245.64v2.643c0 .423-.265.797-.662.941-1.239.449-3.795 1.522-3.921 2.778-.166 1.661-3.817 8.527-6.417 8.527v-6.176c2.705-.039 5.112-6.636 4.993-10.879z" fill="#838C8A"/><path d="M22.3 6c.136.003.273.024.399.082l3.719 1.714c.135.062.244.159.337.268h-3.455c-.552 0-1-.448-1-1v-1.064z" fill="#434C4B"/><path d="M18.357 22.142c.393.075 2.157.363 2.477-.35.465-1.035-.036-2.285-.223-2.689-.663 1.11-1.449 2.208-2.254 3.039z" fill="#F7F7F7"/><path d="M18.954 21.476c.139.322.349.544.599.544.42 0 .76-.592.76-1.323 0-.318-.073-.598-.181-.827-.371.569-.769 1.113-1.178 1.606z" fill="#845331"/><path d="M19.267 21.086c.064.177.165.301.285.301.196 0 .355-.309.355-.689 0-.149-.03-.28-.071-.393-.185.269-.375.53-.569.781z" fill="#2B3332"/><path d="M13.669 22.142c-.393.075-2.157.363-2.477-.35-.465-1.035.036-2.285.223-2.689.664 1.11 1.449 2.208 2.254 3.039z" fill="#fff"/><path d="M13.073 21.476c-.139.322-.349.544-.599.544-.42 0-.76-.592-.76-1.323 0-.318.073-.598.181-.827.37.569.769 1.113 1.178 1.606z" fill="#8D5B36"/><path d="M12.76 21.086c-.064.177-.165.301-.285.301-.196 0-.355-.309-.355-.689 0-.149.03-.28.071-.393.185.269.374.53.569.781z" fill="#373F3F"/><path d="M12.942 7.16l-1.935-.622c-.119 4.243 2.288 10.84 4.993 10.878v-9.777c-1.032 0-2.063-.159-3.058-.479z" fill="#838C8A"/><path d="M20.993 6.539l-1.935.621c-.995.32-2.026.479-3.058.479v9.778c2.705-.038 5.112-6.635 4.993-10.878z" fill="#909997"/><path d="M27.497 32h-1.994c-.373 0-.616-.397-.449-.734l.987-1.987c.184-.371.708-.373.896-.004l1.008 1.987c.17.338-.072.738-.448.738zM22.497 32h-1.994c-.373 0-.616-.397-.449-.734l.987-1.987c.184-.371.708-.373.896-.004l1.008 1.987c.17.338-.072.738-.448.738zM11.497 32h-1.994c-.373 0-.616-.397-.449-.734l.987-1.987c.184-.371.708-.373.896-.004l1.008 1.987c.17.338-.072.738-.448.738zM6.497 32h-1.994c-.373 0-.616-.397-.449-.734l.987-1.987c.184-.371.708-.373.896-.004l1.008 1.987c.17.338-.072.738-.448.738z" fill="#EDEEEE"/><path d="M17.886 24.117l-1.431-3.124c-.089-.195-.272-.292-.455-.292v5.299c.427 0 .854-.09 1.264-.269l.189-.082c.485-.212.696-.958.433-1.532z" fill="#687271"/><path d="M15.545 20.992l-1.431 3.124c-.263.574-.053 1.32.433 1.532l.189.082c.41.18.837.27 1.264.27v-5.299c-.183 0-.365.097-.455.291z" fill="#757F7E"/></g></svg>