<svg xmlns="http://www.w3.org/2000/svg" width="32" height="32" viewBox="0 0 32 32"><g><path d="M18.606 20.623s3.316 4.206 6.062 1.938c2.481-2.05 4.404-4.099 6.731-4.662.434-.105.764.4.513.769-1.047 1.541-3.155 4.71-4.432 7.081-2.133 3.962-7.439 8.127-13.814 2.877l4.94-8.003z" fill="#434C4B"/><path d="M27.638 31.276l-.564-1.127c-.048-.097-.127-.175-.224-.224l-1.575-.787c-.168-.084-.275-.258-.275-.447v-2.466c0-.143-.062-.28-.169-.375l-3.134-2.769c-.233-.206-.595-.151-.758.114l-2.794 4.568c-.09.147-.098.33-.021.485l.823 1.646c.035.07.053.146.053.224v1.382c0 .276.224.5.5.5h7.691c.372 0 .613-.391.447-.724z" fill="#5C6664"/><path d="M10.303 23.082l-3.134 2.769c-.107.095-.169.231-.169.374v2.466c0 .189-.107.363-.276.447l-1.575.787c-.097.048-.175.127-.224.224l-.564 1.127c-.165.333.076.724.448.724h7.691c.276 0 .5-.224.5-.5v-1.382c0-.078.018-.154.053-.224l.823-1.646c.077-.154.069-.337-.021-.485l-2.794-4.568c-.162-.264-.525-.319-.758-.113z" fill="#687271"/><path d="M23 22.4c0-6.6-1.104-9.4-7-9.4v2c2.761 0 5 3.358 5 7.5 0 2.35-.721 4.445-1.849 5.821 1.858-.767 3.849-2.4 3.849-5.921z" fill="#505957"/><path d="M16 15v-2c-5.896 0-7 2.799-7 9.4 0 3.521 1.991 5.154 3.849 5.921-1.128-1.376-1.849-3.471-1.849-5.821 0-4.142 2.239-7.5 5-7.5z" fill="#5C6664"/><path d="M16 29s1.525-.009 3.151-.679c.676-.824 1.201-1.91 1.517-3.151-1.402.527-2.985.83-4.668.83v3z" fill="#C8CCCB"/><path d="M20.744 20.143c-1.42.545-3.031.857-4.744.857v5c1.683 0 3.266-.303 4.668-.83.212-.831.332-1.728.332-2.67 0-.824-.092-1.615-.256-2.357z" fill="#D1D4D4"/><path d="M16 15v6c1.713 0 3.324-.312 4.744-.857-.659-2.986-2.532-5.143-4.744-5.143z" fill="#DADDDC"/><path d="M12.849 28.321c1.626.67 3.151.679 3.151.679v-3c-1.683 0-3.266-.303-4.668-.83.316 1.241.842 2.327 1.517 3.151z" fill="#D1D4D4"/><path d="M11.256 20.143c-.164.742-.256 1.533-.256 2.357 0 .942.12 1.839.332 2.67 1.402.527 2.985.83 4.668.83v-5c-1.713 0-3.324-.312-4.744-.857z" fill="#DADDDC"/><path d="M11.256 20.143c1.42.545 3.031.857 4.744.857v-6c-2.212 0-4.085 2.157-4.744 5.143z" fill="#E3E5E5"/><path d="M16.001 12.243v2.757l2.926 2.195c.683.512 1.552.709 2.389.542l3.684-.737s.062-7-5-7l-3.999 2.243z" fill="#5C6664"/><path d="M27.992 16.605c.016-.814-.229-1.726-.76-2.567-1.107-1.756-3.004-2.525-4.237-1.717-1.233.807-1.334 2.885-.227 4.641.363.576.815 1.033 1.297 1.376-.04.214-.065.434-.065.662 0 1.657 1.119 3 2.5 3s2.5-1.343 2.5-3c0-.983-.4-1.848-1.008-2.395z" fill="#687271"/><circle cx="26.5" cy="22.5" r="2.5" fill="#757F7E"/><path d="M15.999 12.243v2.757l-2.926 2.195c-.683.512-1.552.709-2.389.542l-3.684-.737s-.062-7 5-7l3.999 2.243z" fill="#687271"/><path d="M9.005 12.321c-1.233-.807-3.129-.039-4.237 1.717-.53.841-.776 1.753-.76 2.567-.608.547-1.008 1.412-1.008 2.395 0 1.657 1.119 3 2.5 3s2.5-1.343 2.5-3c0-.228-.025-.448-.066-.662.482-.343.934-.8 1.297-1.376 1.108-1.756 1.006-3.834-.226-4.641z" fill="#757F7E"/><circle cx="5.5" cy="22.5" r="2.5" fill="#838C8A"/><path d="M21.907 9.685s-.49 4.315-5.907 4.315v-4l5.907-.315z" fill="#687271"/><path d="M10.093 9.685s.49 4.315 5.907 4.315v-4l-5.907-.315z" fill="#757F7E"/><path d="M13.699 2.768c-.001 0-1.837-2.035-3.19-2.589-1.353-.554-2.625.25-1.272 1.414s1.809 3.31 1.809 3.31l-.704 1.302-.677-.155c-.175-.04-.355.044-.44.206l-.284.544c-.107.205-.026.458.178.56l.52.258-1.496 1.578c-.157.166-.19.414-.08.615l.682 1.252c.152.278.49.361.758.192.7-.442 1.578-1.158 2.234-1.158 1.029 0 1.448 1.179 2.476 2.232 1.029 1.053 1.786.914 1.786.914h.001v-10.767c-.773 0-1.546.097-2.301.292z" fill="#838C8A"/><path d="M17.786 12.329c1.029-1.053 1.448-2.232 2.476-2.232.655 0 1.534.716 2.234 1.158.268.169.606.086.758-.192l.682-1.252c.109-.201.077-.449-.08-.615l-1.496-1.578.52-.258c.204-.101.285-.355.178-.559l-.284-.544c-.085-.162-.265-.246-.44-.206l-.678.154-.704-1.302s.407-2.146 1.76-3.31c1.353-1.164.081-1.967-1.272-1.413s-3.14 2.588-3.14 2.588h-.001c-.754-.195-1.526-.292-2.299-.292v10.767c.004.001.76.136 1.786-.914z" fill="#757F7E"/><path fill="#373F3F" d="M23.226.874l-1.601 5.33-.694-1.302-.119-2.816z"/><path fill="#434C4B" d="M8.704.877l1.638 5.327.704-1.302.071-2.816z"/><path d="M20.117 6l-.746.712v1.19c.443-.158.917-.315 1.056-.61.275-.584-.31-1.292-.31-1.292z" fill="#F7F7F7"/><path d="M18.5 7.542v.958c.254-.271.381-.312.871-.598v-1.19l-.871.83z" fill="#D84459"/><path d="M11.883 6l.746.712v1.19c-.443-.158-.917-.315-1.056-.61-.275-.584.31-1.292.31-1.292z" fill="#fff"/><path d="M13.5 7.542v.958c-.254-.271-.381-.312-.871-.598v-1.19l.871.83z" fill="#E85160"/><path d="M14.094 8.257c-.059.24-.094.47-.094.682 0 1.622 1.989 1.645 1.989 1.645v-1.585c-.706-.003-1.358-.279-1.895-.742z" fill="#D1D4D4"/><path d="M16 9l-.011-.001v1.585s1.989-.023 1.989-1.645c0-.206-.033-.431-.089-.665-.536.455-1.186.726-1.889.726z" fill="#C8CCCB"/><path d="M15.989 8.999v-2c-.45-.002-.87-.142-1.249-.37-.274.534-.52 1.105-.647 1.628.538.463 1.19.739 1.896.742z" fill="#DADDDC"/><path d="M16 7l-.011-.001v2l.011.001c.703 0 1.353-.271 1.89-.727-.126-.525-.372-1.098-.647-1.635-.377.225-.795.362-1.243.362z" fill="#D1D4D4"/><path fill="#838C8A" d="M15.761.775l-.704 2.283.704-2.283zM16.943 3.058l-.704-2.283c-.036-.118-.138-.176-.239-.176v3.401c.213 0 .427-.045.632-.134l.094-.041c.243-.107.348-.479.217-.767z"/><path d="M15.761.775l-.704 2.283c-.132.287-.026.66.216.766l.094.041c.206.09.42.135.633.135v-3.401c-.101 0-.203.058-.239.176z" fill="#909997"/><path d="M16.196 4.881c-.049-.073-.128-.11-.206-.11v2.228l.01.001c.448 0 .866-.137 1.243-.361-.374-.732-.8-1.393-1.047-1.758z" fill="#DADDDC"/><path d="M15.783 4.88l-.013.02-.068.101-.027.041-.102.157-.019.03-.093.145-.038.061-.087.141-.037.06-.127.211-.013.022-.116.201-.039.069-.095.172-.04.073-.128.244c.378.229.798.368 1.249.37v-2.227c-.079 0-.157.036-.207.109z" fill="#E3E5E5"/></g></svg>