<svg xmlns="http://www.w3.org/2000/svg" width="32" height="32" viewBox="0 0 32 32"><g><path d="M20.067 30s4.549 3.206 6.375 1.5c2.705-2.527-9.25-5.875-9.25-5.875l2.875 4.375z" fill="#F8A1C4"/><path d="M11.966 30s-4.549 3.206-6.375 1.5c-2.705-2.527 9.25-5.875 9.25-5.875l-2.875 4.375z" fill="#F9ADC8"/><path d="M5.478 3.842c-1.271-.181-2.478-.324-2.478.658 0 1.187 2.375 1.5 2.375 1.5-.598-.915-.285-1.671.103-2.158zM3.5 6.031c-.849.284-1.499.586-1.499 1.031.001.94.687.938 2.187.938.149 0 .314-.013.485-.032-.992-.463-1.189-1.31-1.173-1.937z" fill="#FAB8CD"/><path d="M11.239 2.237c-1.145.709-2.877 1.684-3.864 1.763-.539.043-1.227-.062-1.897-.158-.316.397-.574.975-.337 1.671l-1.641.518c-.016.627.181 1.472 1.171 1.935.123.497.387 1.076.984 1.422l.379-.207c-2.623 4.392-4.146 9.679-2.048 15.209 2.65 6.987 12.014 6.606 12.014 6.606v-30.996c-2.171 0-3.181.463-4.761 2.237z" fill="#FBCFD6"/><path d="M4.321 9.981c.227-.035.731-.273 1.333-.593-.692-.401-.948-1.122-1.041-1.657-.391.206-.752.426-1.042.688-1.312 1.187-.062 1.687.75 1.562z" fill="#FAB8CD"/><path d="M10 21s.5-7 6-7v7.916s-4.875.125-6-.916z" fill="#FFF3D9"/><path d="M26.522 3.842c1.271-.181 2.478-.324 2.478.658 0 1.187-2.375 1.5-2.375 1.5.598-.915.285-1.671-.103-2.158zM28.5 6.031c.849.284 1.499.586 1.499 1.032-.001.939-.687.937-2.187.937-.149 0-.314-.013-.485-.032.992-.463 1.189-1.31 1.173-1.937z" fill="#F9ADC8"/><path d="M25.967 9.181l.379.207c.597-.346.861-.925.984-1.422.99-.463 1.186-1.308 1.171-1.935l-1.641-.518c.237-.696-.021-1.274-.337-1.671-.671.096-1.359.201-1.898.158-.987-.079-2.719-1.054-3.864-1.763-1.58-1.774-2.59-2.237-4.761-2.237v30.996s9.364.381 12.014-6.606c2.098-5.53.575-10.817-2.047-15.209z" fill="#FAC4D1"/><path d="M27.679 9.981c-.227-.035-.731-.273-1.333-.593.692-.401.949-1.122 1.041-1.657.391.206.752.426 1.042.688 1.312 1.187.062 1.687-.75 1.562z" fill="#F9ADC8"/><path d="M22 21s-.5-7-6-7v7.916s4.667.167 6-.916z" fill="#FDEBBB"/><path d="M10 21s.396.916 6 .916v6.084s-6-.262-6-7z" fill="#F9ADC8"/><path d="M22 21s-.396.916-6 .916v6.084s6-.262 6-7z" fill="#F8A1C4"/><ellipse cx="13" cy="5.5" rx="1" ry="1.5" fill="#373F3F"/><ellipse cx="13" cy="5.062" rx=".5" ry=".625" fill="#fff"/><ellipse cx="19" cy="5.5" rx="1" ry="1.5" fill="#2B3332"/><ellipse cx="19" cy="5.062" rx=".5" ry=".625" fill="#F7F7F7"/><path d="M22.711 14.407c-.666-.586-1.763-.533-2.351.115l-2.014 2.217c-.503.554-.453 1.352.117 1.853.569.501 1.476.546 2.104.103l1.961-1.382c1.032-.727 1.117-2.083.183-2.906z" fill="#F9ADC8"/><path d="M9.289 14.407c.666-.586 1.763-.533 2.351.115l2.014 2.217c.503.554.453 1.352-.117 1.853-.569.501-1.476.546-2.104.103l-1.961-1.382c-1.032-.727-1.117-2.083-.183-2.906z" fill="#FAB8CD"/><path d="M16 8h-1.68c-.154 0-.273.137-.247.29.05.297.182.767.526 1.14.393-.26.874-.419 1.401-.427v-1.003z" fill="#D84459"/><path d="M14.599 9.429c.289.313.726.556 1.401.567v-.993c-.527.008-1.008.167-1.401.426z" fill="#E55D53"/><path d="M16.042 9c.543 0 1.039.163 1.443.429.345-.372.476-.843.526-1.14.025-.152-.093-.289-.247-.289h-1.764v1.003l.042-.003z" fill="#C84054"/><path d="M17.484 9.429c-.403-.266-.899-.429-1.442-.429l-.042.003v.993l.042.004c.701 0 1.147-.251 1.442-.571z" fill="#D64F45"/></g></svg>