<svg xmlns="http://www.w3.org/2000/svg" width="32" height="32" viewBox="0 0 32 32"><g><path d="M15.546.984l-1.546 3.349 2-1.25v-2.39c-.182 0-.365.097-.454.291zM16.454.984l1.546 3.349z" fill="#B0D3EA"/><path d="M16.454.984c-.089-.194-.272-.291-.454-.291v2.39l2 1.25-1.546-3.349z" fill="#9FC9E4"/><path d="M16 7.229s1.198-3.969 4.885-6.812c1.5-.656-.75.937-.187 1.75.32.462.599.702.781.823.11.073.142.217.072.329-.238.383-.628 1.198-.072 1.755.75.75-1.969 4.875-2.031 4.781l-3.448-2.626z" fill="#B0D3EA"/><path d="M27.224 19.867l4.538-1.75c.315-.121.318-.565.006-.691l-4.283-1.735 4.443-6.066c.233-.326-.144-.739-.49-.537l-5.29 3.097.144-.059-1.197 3.091c-.175.453 0 .967.417 1.217l.936.564c.683.411.633 1.417-.087 1.76l-.777.37c-.52.247-.724.882-.446 1.386l1.917 3.475 4.428 1.981c.363.151.682-.292.423-.588l-4.682-5.515z" fill="#FDEBBB"/><path d="M25.584 19.127l.777-.37c.72-.342.769-1.348.087-1.76l-.936-.564c-.416-.251-.592-.764-.417-1.217l1.197-3.091-.144.059-6.102 3.572.131 5.155 6.879 3.077-1.917-3.475c-.279-.504-.075-1.138.445-1.386z" fill="#9FC9E4"/><path d="M19.25 13.917l-3.25-.221v-1.241l2.182-1.038s4.818 1.75 4.818 5.583c.007 2.667-.725 3.559-2.917 5.75-.104.104-.203.228-.302.354 3.086-5.964-.531-9.187-.531-9.187z" fill="#B0D3EA"/><path d="M4.777 19.867l-4.538-1.75c-.315-.121-.318-.565-.006-.691l4.283-1.735-4.444-6.066c-.233-.326.144-.739.49-.537l5.29 3.097-.144-.059 1.197 3.091c.175.453 0 .967-.417 1.217l-.936.564c-.683.411-.633 1.417.087 1.76l.777.37c.52.247.724.882.446 1.386l-1.917 3.475-4.428 1.981c-.363.151-.682-.292-.423-.588l4.683-5.515z" fill="#FFF3D9"/><path d="M6.416 19.127l-.777-.37c-.72-.342-.769-1.348-.087-1.76l.936-.564c.416-.251.592-.764.417-1.217l-1.197-3.091.144.059 6.102 3.572-.131 5.155-6.879 3.077 1.917-3.475c.279-.504.075-1.138-.445-1.386z" fill="#B0D3EA"/><path d="M12.75 13.917l3.25-.221v-1.241l-2.182-1.038s-4.818 1.75-4.818 5.583c-.007 2.667.725 3.559 2.917 5.75.104.104.203.228.302.354-3.086-5.964.531-9.187.531-9.187z" fill="#C1DDEE"/><path d="M17.276 21.478l-.247.493c-.34.016-.681.029-1.029.029v8.455l.336.29c.301-.037.632-.141.987-.346.317-1.828 1.104-5.549 2.459-7.295.283-.547.493-1.063.671-1.564-.803.167-1.641.295-2.514.369l-.216-.431c-.092-.184-.355-.184-.447 0z" fill="#F7D684"/><path d="M14.97 21.972l-.247-.493c-.092-.184-.355-.184-.447 0l-.216.431c-.872-.074-1.71-.202-2.513-.369.178.501.388 1.017.671 1.564 1.355 1.746 2.141 5.466 2.459 7.295.356.205.686.31.987.346l.336-.291v-8.455c-.348 0-.69-.013-1.03-.028zM17.276 17.478l-.247.493c-.34.016-.681.029-1.029.029v4c.348 0 .689-.013 1.029-.028l.247-.493c.092-.184.355-.184.447 0l.216.431c.872-.074 1.71-.203 2.514-.369.576-1.618.643-2.987.479-4.104-.945.221-1.945.384-2.992.473l-.216-.431c-.093-.185-.356-.185-.448-.001z" fill="#FAE09F"/><path d="M19.25 13.917l-3.25-.221v4.304c.348 0 .689-.013 1.029-.028l.247-.493c.092-.184.355-.184.447 0l.216.431c1.047-.089 2.048-.253 2.992-.473-.339-2.305-1.681-3.52-1.681-3.52zM14.97 17.972l-.247-.493c-.092-.184-.355-.184-.447 0l-.216.431c-1.047-.089-2.047-.252-2.992-.473-.165 1.117-.097 2.486.479 4.104.803.167 1.641.295 2.513.369l.216-.431c.092-.184.355-.184.447 0l.247.493c.34.015.682.028 1.03.028v-4c-.348 0-.69-.013-1.03-.028z" fill="#FDEBBB"/><path d="M12.75 13.917s-1.342 1.215-1.681 3.52c.945.221 1.945.384 2.992.473l.216-.431c.092-.184.355-.184.447 0l.247.493c.339.015.681.028 1.029.028v-4.304l-3.25.221z" fill="#FFF3D9"/><path d="M18 30v-5.562c0-1.105-.895-2-2-2v9.562c1.105 0 2-.895 2-2zM18 30v-5.562c0-1.105-.895-2-2-2v9.562c1.105 0 2-.895 2-2z" fill="#C1DDEE"/><path d="M14 24.438v5.562c0 1.105.895 2 2 2v-9.562c-1.105 0-2 .895-2 2z" fill="#D2E6F3"/><path d="M16 7.229s-1.198-3.969-4.885-6.812c-1.5-.656.75.937.188 1.75-.32.462-.599.702-.781.823-.11.073-.142.217-.072.329.238.383.628 1.198.072 1.755-.75.75 1.969 4.875 2.031 4.781l3.447-2.626z" fill="#C1DDEE"/><path d="M19.375 7.542l7.506-6.563c.212-.186.522.067.382.312l-3.263 5.709 3.344.836c.225.056.259.362.051.466l-3.395 1.698.821 2.464c.069.206-.14.395-.338.308l-7.608-3.356 2.5-1.874z" fill="#9FC9E4"/><path d="M16 3v10.985s3.577.396 4.609-2.925c.572-1.839.578-4.044-.397-5.731-.939-1.627-2.49-2.175-4.121-2.322l-.091-.007zM12.625 7.542l-7.506-6.563c-.212-.186-.521.067-.381.312l3.262 5.709-3.344.836c-.226.056-.259.362-.052.466l3.396 1.698-.821 2.464c-.069.206.14.395.338.308l7.608-3.356-2.5-1.874z" fill="#B0D3EA"/><path d="M16 3v10.985s-3.577.396-4.609-2.925c-.572-1.839-.578-4.044.397-5.731.939-1.627 2.49-2.175 4.121-2.322l.091-.007z" fill="#C1DDEE"/><path d="M14.896 13.944c-.695 0-1.125-.627-.767-1.12l1.104-1.521c.087-.12.205-.209.338-.269s.281-.09.43-.09v-2c-.956 0-1.848.443-2.386 1.184l-1.104 1.521c-.588.81-.673 1.864-.221 2.749.486.953 1.485 1.545 2.607 1.545h1.103v-2h-1.104zM14.896 13.944c-.695 0-1.125-.627-.767-1.12l1.104-1.521c.087-.12.205-.209.338-.269s.281-.09.43-.09v-2c-.956 0-1.848.443-2.386 1.184l-1.104 1.521c-.588.81-.673 1.864-.221 2.749.486.953 1.485 1.545 2.607 1.545h1.103v-2h-1.104z" fill="#D2E6F3"/><path d="M19 7.498c0-.166-.011-.323-.028-.472l1.028-1.028v2c0 .552-.448 1-1 1h-.5c.276 0 .5-.672.5-1.5zM18.028 7.97c.066.596.251 1.028.472 1.028h-1.5l1.028-1.028z" fill="#F7F7F7"/><path d="M18.028 7.97l.944-.944c.017.149.028.306.028.472 0 .828-.224 1.5-.5 1.5-.221 0-.406-.432-.472-1.028z" fill="#2B3332"/><path d="M13 7.498c0-.166.011-.323.028-.472l-1.028-1.028v2c0 .552.448 1 1 1h.5c-.276 0-.5-.672-.5-1.5zM13.972 7.97c-.066.596-.251 1.028-.472 1.028h1.5l-1.028-1.028z" fill="#fff"/><path d="M13.972 7.97l-.944-.944c-.017.149-.028.306-.028.472 0 .828.224 1.5.5 1.5.221 0 .406-.432.472-1.028z" fill="#2B3332"/><path d="M15.233 11.303l-1.104 1.521c-.358.493.072 1.12.767 1.12h1.104v-3c-.148 0-.297.03-.43.09-.133.059-.25.149-.337.269z" fill="#373F3F"/><path d="M19.49 11.649l-1.104-1.521c-.538-.742-1.43-1.184-2.386-1.184v2c.297 0 .593.12.767.359l1.104 1.521.098.19.031.192c-.001.128-.043.253-.117.362-.15.218-.431.375-.779.375h-1.104v2h1.104c1.122 0 2.121-.592 2.607-1.545.452-.886.367-1.939-.221-2.749z" fill="#C1DDEE"/><path d="M17.104 13.944c.348 0 .629-.157.779-.375.075-.109.117-.234.117-.362l-.031-.193-.098-.19-1.104-1.521c-.174-.239-.471-.359-.767-.359v3h1.104z" fill="#2B3332"/></g></svg>