<svg xmlns="http://www.w3.org/2000/svg" width="32" height="32" viewBox="0 0 32 32"><g><path d="M.224 26.213c.39-1.112 1.632-2.096 3.086-2.914.13.197.243.405.324.63.177.494.43 1.186.712 1.937.546 1.449 2.418.802 3.701 2.5.194.257.372.466.543.655-.286.557-.54 1.173-.734 1.845-.469 1.625-2.997 1.656-3.943-.902-.845-2.282-4.753-.719-3.689-3.751z" fill="#F7F7F7"/><path d="M4.345 25.865c-.283-.75-.535-1.443-.712-1.937-.081-.224-.194-.433-.324-.63 2.76-1.554 6.295-2.497 6.295-2.497l2.031 4.5s-1.813 1.31-3.047 3.718c-.17-.188-.349-.398-.543-.655-1.282-1.697-3.154-1.05-3.7-2.499z" fill="#FFA68E"/><path d="M16 13v-12.958s-2.667 0-2.625 2.667c.033 2.128-2.999.924-4.083 2.291-.958 1.208-1 3.958 1.458 5.75 2.243 1.635 2.458 4.375 2.458 4.375l2.792-2.125z" fill="#EDEEEE"/><path d="M16 13.5v-8.042s-3.5.25-4.083 3.167c-.583 2.917-2.333 3.458-2.333 3.458l5.042 3.583 1.374-2.166z" fill="#FF8D6E"/><path d="M10.375 9s-1.292-1.25-3.167-1-2.083 1.708-3.25 2-3.958.792-3.958 3 3.542 2.375 4.125 4-.042 3.5 2.458 4l6.458-1.542 1.583-5.917-4.249-4.541z" fill="#F7F7F7"/><path d="M12.542 15.167s-1.792-3.958-3.875-4.125c-2.083-.167-2.481 1.036-3.875 1.292-2.042.375-2.083 1.542.458 3.333 1.928 1.359 1.25 2.208 2.833 2.833 2.023.799 3.583-1.125 3.583-1.125l.876-2.208z" fill="#FF9A7E"/><path d="M31.818 26.213c-.39-1.112-1.632-2.096-3.086-2.914-.13.197-.243.405-.324.63-.177.494-.43 1.186-.712 1.937-.546 1.449-2.418.802-3.701 2.5-.194.257-.372.466-.543.655.286.557.54 1.173.734 1.845.469 1.625 2.997 1.656 3.943-.902.845-2.282 4.753-.719 3.689-3.751z" fill="#EDEEEE"/><path d="M27.696 25.865c.283-.75.535-1.443.712-1.937.081-.224.194-.433.324-.63-2.76-1.554-6.295-2.497-6.295-2.497l-2.031 4.5s1.813 1.31 3.047 3.718c.17-.188.349-.398.543-.655 1.283-1.697 3.155-1.05 3.7-2.499z" fill="#FF9A7E"/><path d="M16 13v-12.958s2.667 0 2.625 2.667c-.033 2.128 2.999.924 4.083 2.291.958 1.208 1 3.958-1.458 5.75-2.243 1.635-2.458 4.375-2.458 4.375l-2.792-2.125z" fill="#E3E5E5"/><path d="M16 13.5v-8.042s3.5.25 4.083 3.167c.583 2.917 2.333 3.458 2.333 3.458l-5.042 3.583-1.374-2.166z" fill="#FF805D"/><path d="M21.625 9s1.292-1.25 3.167-1 2.083 1.708 3.25 2c1.166.292 3.958.792 3.958 3s-3.542 2.375-4.125 4 .042 3.5-2.458 4l-6.458-1.542-1.583-5.917 4.249-4.541z" fill="#EDEEEE"/><path d="M19.5 15.167s1.792-3.958 3.875-4.125c2.083-.167 2.481 1.036 3.875 1.292 2.042.375 2.083 1.542-.458 3.333-1.928 1.359-1.25 2.208-2.833 2.833-2.023.799-3.583-1.125-3.583-1.125l-.876-2.208z" fill="#FF8D6E"/><path d="M8.474 25.307c1.881 4.484 7.526 4.693 7.526 4.693v-3c-2.84 0-5.478-.787-7.679-2.131l.153.438z" fill="#EDEEEE"/><path d="M16.001 30s5.645-.209 7.526-4.693l.153-.439c-2.201 1.345-4.839 2.132-7.679 2.132v3z" fill="#E3E5E5"/><path d="M14.93 21.5c0-1.042-1.027-1.25-1.412-1.542-.385-.292-.642-.917-.471-2.042s.471-2.208-.599-2.75c-.263-.133-.388-.378-.43-.67-3.026 2.38-4.758 7.099-3.698 10.372 2.202 1.345 4.84 2.132 7.68 2.132v-4.583s-1.07.125-1.07-.917z" fill="#F7F7F7"/><path d="M12.449 15.167c1.07.542.77 1.625.599 2.75s.086 1.75.471 2.042c.385.292 1.412.5 1.412 1.542s1.07.917 1.07.917v-9.418c-1.464 0-2.815.579-3.981 1.496.04.293.166.538.429.671z" fill="#FF8D6E"/><path d="M19.982 14.496c-.042.292-.168.537-.43.67-1.07.542-.77 1.625-.599 2.75s-.086 1.75-.471 2.042c-.385.292-1.412.5-1.412 1.542s-1.07.917-1.07.917v4.583c2.84 0 5.478-.787 7.68-2.132 1.06-3.274-.672-7.992-3.698-10.372z" fill="#EDEEEE"/><path d="M17.07 21.5c0-1.042 1.027-1.25 1.412-1.542.385-.292.642-.917.471-2.042s-.471-2.208.599-2.75c.263-.133.388-.378.43-.67-1.166-.917-2.517-1.496-3.981-1.496v9.417s1.069.125 1.069-.917z" fill="#FF805D"/><path d="M21.531 22.719c0-.319-.073-.614-.197-.863l1.232-.915c.139.204.256.432.331.686.342 1.159-.199 2.34-1.209 2.638-.343.101-.695.082-1.024-.028.501-.199.867-.799.867-1.518z" fill="#F7F7F7"/><path d="M19.476 23.237l.353-.262c.077.251.251.427.454.427.275 0 .498-.321.498-.716 0-.134-.033-.253-.077-.361l.631-.469c.123.249.197.544.197.863 0 .719-.366 1.319-.866 1.518-.479-.159-.909-.511-1.19-1z" fill="#56C7CD"/><path d="M20.781 22.685c0 .396-.223.716-.498.716-.203 0-.377-.176-.454-.427l.875-.65c.045.108.077.227.077.361z" fill="#2B3332"/><path d="M20.45 20.068c.788-.233 1.623.146 2.117.872l-1.232.915-.631.469-.875.65-.353.262c-.094-.164-.178-.338-.235-.531-.045-.151-.073-.303-.088-.453-.103-.998.419-1.924 1.297-2.184z" fill="#FF9A7E"/><path fill="#2B3332" d="M16.793 26.5l.5.5-.5.5h-.793v-1z"/><path d="M18.354 26.646l-1-1c-.094-.093-.221-.146-.354-.146h-1v1h.689c.066 0 .13.026.177.073l.25.25c.098.098.098.256 0 .354l-.25.25c-.047.047-.11.073-.177.073h-.689v1h1c.133 0 .26-.053.353-.146l1-1c.196-.196.196-.512.001-.708z" fill="#EA8BB4"/><path d="M10.469 22.719c0-.319.073-.614.197-.863l-1.233-.916c-.139.204-.256.432-.331.686-.342 1.159.199 2.34 1.209 2.638.343.101.695.082 1.024-.028-.5-.198-.866-.798-.866-1.517z" fill="#fff"/><path d="M12.524 23.237l-.353-.262c-.077.251-.251.427-.454.427-.275 0-.498-.321-.498-.716 0-.134.033-.253.077-.361l-.631-.469c-.123.249-.197.544-.197.863 0 .719.366 1.319.866 1.518.479-.159.909-.511 1.19-1z" fill="#5BD3D5"/><path d="M11.219 22.685c0 .396.223.716.498.716.203 0 .377-.176.454-.427l-.875-.65c-.045.108-.077.227-.077.361z" fill="#373F3F"/><path d="M11.55 20.068c-.788-.233-1.623.146-2.117.872l1.232.915.631.469.875.65.353.262c.094-.164.178-.338.235-.531.045-.151.073-.303.088-.453.103-.998-.419-1.924-1.297-2.184z" fill="#FFA68E"/><path d="M16 11v6h-.755c-.426 0-.81-.371-.969-.938l-.196-.697c-.113-.402-.108-.865.033-1.248.255-.688.644-1.071.898-1.337.471-.494 0-1.582.989-1.78z" fill="#FFF5D8"/><path fill="#373F3F" d="M15.207 26.5l-.5.5.5.5h.793v-1z"/><path d="M15 25.5c-.133 0-.26.053-.354.146l-1 1c-.195.195-.195.512 0 .707l1 1c.094.094.221.147.354.147h1v-1h-.689c-.066 0-.13-.026-.177-.073l-.25-.25c-.098-.098-.098-.256 0-.354l.25-.25c.047-.047.11-.073.177-.073h.689v-1h-1z" fill="#F297BE"/><path d="M16 11v6h.755c.426 0 .81-.371.969-.938l.196-.697c.113-.402.108-.865-.033-1.248-.255-.688-.644-1.071-.898-1.337-.471-.494 0-1.582-.989-1.78z" fill="#FEF1C6"/><path d="M16.236 15.69c-.039-.113-.138-.169-.236-.169v4.479c.75 0 1.5-.625 1.5-.625l-1.264-3.685z" fill="#FCD2BE"/><path d="M15.764 15.69l-1.264 3.685s.75.625 1.5.625v-4.479c-.099 0-.198.056-.236.169z" fill="#FCDDCF"/></g></svg>