<svg xmlns="http://www.w3.org/2000/svg" width="32" height="32" viewBox="0 0 32 32"><g><path d="M18 24.821s-3.526 6.761-6.72 6.139c-3.194-.623.595-8.96.595-8.96l6.125 2.821zM18 9.405s-5.127-9.458-9-8.308-1.424 6.05-1.094 7.541-.453 2.471-1.772 2.343c-1.318-.128-3.008 1.874-1.607 3.663l8.158 6.453 5.315-11.692z" fill="#EDEEEE"/><path d="M0 25c0-3.25 1.067-2.245 1.628-4.62.561-2.375-2.484-2.625-1.162-4.833 1.574-2.629 8.933 5.083 8.933 5.083l.331 1.239c-2.557.493-6.557 1.603-9.592 4.003-.088-.239-.138-.524-.138-.872z" fill="#F7F7F7"/><path d="M4.913 29.005c-1.495-2.16-4.145-1.434-4.775-3.133 3.035-2.4 7.035-3.51 9.592-4.003l.27 1.011s-2.214 10.277-5.087 6.125z" fill="#EDEEEE"/><circle cx="5" cy="19" r="1" fill="#373F3F"/><circle cx="6" cy="26" r="1" fill="#373F3F"/><circle cx="2.5" cy="22.5" r=".5" fill="#373F3F"/><path d="M14 24.821s3.526 6.761 6.72 6.139c3.194-.622-.595-8.96-.595-8.96l-6.125 2.821zM14 9.405s5.127-9.458 9-8.308 1.424 6.05 1.094 7.541c-.33 1.491.453 2.471 1.772 2.343 1.318-.128 3.008 1.874 1.607 3.663-1.401 1.789-8.158 6.453-8.158 6.453l-5.315-11.692z" fill="#E3E5E5"/><path d="M32 25c0-3.25-1.067-2.245-1.628-4.62-.561-2.375 2.484-2.625 1.162-4.833-1.574-2.629-8.933 5.083-8.933 5.083l-.331 1.239c2.557.493 6.557 1.603 9.592 4.003.089-.239.138-.524.138-.872z" fill="#EDEEEE"/><path d="M27.087 29.005c1.495-2.16 4.145-1.434 4.775-3.133-3.035-2.4-7.035-3.51-9.592-4.003l-.27 1.011s2.214 10.277 5.087 6.125z" fill="#E3E5E5"/><path d="M16 11v-3c4.667 0 6.907 2.728 7.675 7.61-1.874-2.821-4.613-4.61-7.675-4.61z" fill="#2B3332"/><path d="M21.99 26.477l-1.281-2.883c-.161-.361-.519-.594-.914-.594h-3.795v-12c3.062 0 5.801 1.789 7.675 4.61.219 1.395.325 2.955.325 4.69 0 2.949-.858 4.891-2.01 6.177z" fill="#FF805D"/><path d="M21.99 26.477c-.748.835-1.618 1.396-2.461 1.769-1.831.808-3.529.753-3.529.753v-5.9990000000000006h3.795c.395 0 .753.233.914.594l1.281 2.883z" fill="#EDEEEE"/><ellipse cx="21" cy="16.75" rx="2" ry="2.25" fill="#2B3332"/><path d="M21 14.5c-1.105 0-2 1.007-2 2.25s.895 2.25 2 2.25 2-1.007 2-2.25-.895-2.25-2-2.25zm0 4c-.827 0-1.5-.785-1.5-1.75s.673-1.75 1.5-1.75 1.5.785 1.5 1.75-.673 1.75-1.5 1.75z" fill="#F7F7F7"/><circle cx="20.5" cy="16.5" r=".5" fill="#F7F7F7"/><path d="M16 11v-3c-4.667 0-6.907 2.728-7.675 7.61 1.874-2.821 4.613-4.61 7.675-4.61z" fill="#373F3F"/><path d="M10.01 26.477l1.281-2.883c.161-.361.519-.594.914-.594h3.795v-12c-3.062 0-5.801 1.789-7.675 4.61-.219 1.395-.325 2.955-.325 4.69 0 2.949.858 4.891 2.01 6.177z" fill="#FF8D6E"/><path d="M10.01 26.477c.748.835 1.618 1.396 2.461 1.769 1.831.808 3.529.753 3.529.753v-5.9990000000000006h-3.795c-.395 0-.753.233-.914.594l-1.281 2.883z" fill="#F7F7F7"/><ellipse cx="11" cy="16.75" rx="2" ry="2.25" fill="#373F3F"/><path d="M11 14.5c-1.105 0-2 1.007-2 2.25s.895 2.25 2 2.25 2-1.007 2-2.25-.895-2.25-2-2.25zm0 4c-.827 0-1.5-.785-1.5-1.75s.673-1.75 1.5-1.75 1.5.785 1.5 1.75-.673 1.75-1.5 1.75z" fill="#fff"/><circle cx="11.5" cy="16.5" r=".5" fill="#fff"/><path d="M16 10v-7s-2.874 2.874-2.996 5.808c-.005.113.071.217.178.252l2.818.94z" fill="#F7F7F7"/><path d="M16.004 10v-7s2.874 2.874 2.996 5.808c.005.113-.071.217-.178.252l-2.818.94z" fill="#EDEEEE"/><circle cx="27" cy="19" r="1" fill="#2B3332"/><circle cx="22" cy="5" r="1" fill="#2B3332"/><circle cx="10" cy="5" r="1" fill="#373F3F"/><circle cx="26" cy="26" r="1" fill="#2B3332"/><circle cx="29.5" cy="22.5" r=".5" fill="#2B3332"/><circle cx="25.5" cy="13.5" r=".5" fill="#2B3332"/><circle cx="6.5" cy="13.5" r=".5" fill="#373F3F"/><path d="M13.854 22.146l-.5.5c-.195.195-.195.512 0 .707l.5.5c.093.094.221.147.353.147h1.793v-2h-1.793c-.132 0-.26.053-.353.146z" fill="#FF805D"/><path d="M17.793 24c.133 0 .26-.053.354-.146l.5-.5c.195-.195.195-.512 0-.707l-.5-.5c-.094-.094-.222-.147-.354-.147h-1.793v2h1.793z" fill="#F57552"/><path d="M17 22h1l-.276.553c-.092.184-.355.184-.447 0l-.277-.553z" fill="#F7F7F7"/><path d="M14 22h1l-.276.553c-.092.184-.355.184-.447 0l-.277-.553z" fill="#fff"/><path d="M14.207 24c-.133 0-.26-.053-.354-.146l-.5-.5c-.195-.195-.195-.512 0-.707l.5-.5c.094-.094.222-.147.354-.147h1.793v-1h-1.793c-.401 0-.777.156-1.061.439l-.5.5c-.283.283-.439.66-.439 1.061 0 .401.156.777.44 1.061l.5.5c.283.283.659.439 1.06.439h1.793v-1h-1.793z" fill="#FFA68E"/><path d="M18.854 24.561l.5-.5c.283-.283.439-.66.439-1.061 0-.401-.156-.777-.44-1.061l-.5-.5c-.283-.283-.659-.439-1.06-.439h-1.793v1h1.793c.133 0 .26.053.354.146l.5.5c.195.195.195.512 0 .707l-.5.5c-.094.094-.222.147-.354.147h-1.793v1h1.793c.401 0 .777-.156 1.061-.439z" fill="#FF9A7E"/><path d="M16.477 7.501c-.074-.232-.276-.349-.477-.349v7.848c.694 0 1.389-.347 1.869-.656.383-.246.554-.714.416-1.148l-1.808-5.695z" fill="#FCD2BE"/><path d="M15.523 7.501l-1.808 5.696c-.138.434.033.902.416 1.148.48.308 1.175.655 1.869.655v-7.848c-.201 0-.403.117-.477.349z" fill="#FCDDCF"/></g></svg>