<svg xmlns="http://www.w3.org/2000/svg" width="32" height="32" viewBox="0 0 32 32"><path d="M16 12.809s3.988-12.809 9.969-12.809 8.972 12.809 1.994 18.632c-.699.583-1.347 1.05-1.967 1.459 2.951.345 6.004 1.325 6.004 3.909 0 5-2 8-6 8l-10-10.5v-8.691z" fill="#505957"/><path d="M31.61 6.075c.996 4.122.162 9.378-3.647 12.556-.651.543-1.255.98-1.836 1.368h-10.127v-6c0 .001 2.681-7.129 15.61-7.924z" fill="#434C4B"/><path d="M31.136 28.768c-.941 2.074-2.652 3.232-5.136 3.232-4 0-10-10.5-10-10.5v-1.5s5.092 5.423 15.136 8.768z" fill="#2B3332"/><path d="M26.127 20c2.951.345 5.873 1.416 5.873 4 0 1.895-.289 3.502-.864 4.768-10.044-3.345-15.136-8.768-15.136-8.768h10.127z" fill="#373F3F"/><path d="M26 31c.989 0 4-1 4-7 0-1.052-2.188-1.683-4.237-1.923-1.853-.217-2.426-2.628-.869-3.656.648-.427 1.216-.849 1.787-1.325 3.47-2.895 3.963-8.059 2.656-11.664-.6-1.659-1.801-4.432-3.368-4.432-3.312 0-7.723 7.308-8.969 11.121v9.841c2.817 4.786 7.563 9.038 9 9.038z" fill="#F7F7F7"/><path d="M17 20.939c1.761 1.553 5.881 4.737 12.331 7.182-.945 2.377-2.636 2.879-3.331 2.879-1.437 0-6.183-4.252-9-9.038v-1.023z" fill="#D1D4D4"/><path d="M17 20v-7.656c1.517-1.988 5.069-5.166 12.595-6.084.957 3.532.3 8.156-2.913 10.837-.571.477-1.139.898-1.787 1.325-.593.391-.873.983-.895 1.579h-7z" fill="#E3E5E5"/><path d="M17 20h6.999c-.036.967.617 1.943 1.764 2.077 2.049.24 4.237.871 4.237 1.923 0 1.783-.269 3.116-.669 4.121-6.45-2.445-10.57-5.628-12.331-7.182v-.939z" fill="#DADDDC"/><path d="M27 6.691c2.595-.431-.884 8.83-10.019 9.283v-3.63c1.332-1.747 4.235-4.409 10.019-5.653z" fill="#EDEEEE"/><path d="M16 12.809s-3.988-12.809-9.969-12.809c-5.982 0-8.972 12.809-1.994 18.632.699.583 1.347 1.05 1.967 1.459-2.951.345-6.004 1.325-6.004 3.909 0 5 2 8 6 8l10-10.5v-8.691z" fill="#5C6664"/><path d="M.39 6.075c-.996 4.122-.162 9.378 3.647 12.556.651.543 1.255.98 1.836 1.368h10.127v-6c0 .001-2.681-7.129-15.61-7.924z" fill="#505957"/><path d="M.864 28.768c.941 2.074 2.652 3.232 5.136 3.232 4 0 10-10.5 10-10.5v-1.5s-5.092 5.423-15.136 8.768z" fill="#373F3F"/><path d="M5.873 20c-2.951.345-5.873 1.416-5.873 4 0 1.895.289 3.502.864 4.768 10.044-3.345 15.136-8.768 15.136-8.768h-10.127z" fill="#434C4B"/><path d="M6 31c-.989 0-4-1-4-7 0-1.052 2.188-1.683 4.237-1.923 1.853-.217 2.426-2.628.869-3.656-.648-.427-1.216-.849-1.787-1.325-3.47-2.895-3.963-8.059-2.656-11.664.6-1.659 1.801-4.432 3.368-4.432 3.312 0 7.723 7.308 8.969 11.121v9.841c-2.817 4.786-7.563 9.038-9 9.038z" fill="#fff"/><path d="M15 20.939c-1.761 1.553-5.881 4.737-12.331 7.182.945 2.377 2.636 2.879 3.331 2.879 1.437 0 6.183-4.252 9-9.038v-1.023z" fill="#DADDDC"/><path d="M15 20v-7.656c-1.517-1.989-5.069-5.167-12.595-6.084-.957 3.532-.3 8.156 2.913 10.837.571.477 1.139.898 1.787 1.325.594.391.874.983.896 1.578h6.999z" fill="#EDEEEE"/><path d="M15 20h-6.999c.036.967-.617 1.943-1.764 2.077-2.049.24-4.237.871-4.237 1.923 0 1.783.269 3.116.669 4.121 6.45-2.445 10.57-5.628 12.331-7.182v-.939z" fill="#E3E5E5"/><path d="M4.981 6.691c-2.576-.431.884 8.83 10.019 9.283v-3.63c-1.332-1.747-4.235-4.409-10.019-5.653z" fill="#F7F7F7"/><ellipse transform="matrix(.966 -.259 .259 .966 -6.746 5.759)" cx="18.5" cy="28.5" rx="1.5" ry="3.5" fill="#51BAC5"/><ellipse transform="matrix(.259 -.966 .966 .259 -17.523 34.164)" cx="13.5" cy="28.5" rx="3.5" ry="1.5" fill="#56C7CD"/><path d="M16 19h-3.567c-1.469 1.063-2.433 3.083-2.433 5 0 3.222 2.686 5 6 5v-10z" fill="#945BA0"/><path d="M19.567 19h-3.567v10c3.314 0 6-1.778 6-5 0-1.917-.964-3.937-2.433-5z" fill="#845194"/><path d="M16 10c-3.314 0-6 2.612-6 5.833 0 1.917.964 2.103 2.433 3.167h3.567v-9z" fill="#A366AD"/><path d="M19.567 19c1.469-1.063 2.433-1.249 2.433-3.167 0-3.221-2.686-5.833-6-5.833v9h3.567z" fill="#945BA0"/><path d="M14.949 14.404c-.357 1.334-1.166 1.758-1.967 1.544-.8-.214-1.289-.986-.931-2.32s1.166-1.758 1.967-1.544 1.288.986.931 2.32z" fill="#F3586F"/><path d="M19.949 13.627c.357 1.334-.131 2.106-.931 2.32-.8.214-1.609-.21-1.967-1.544s.131-2.106.931-2.32c.801-.214 1.61.21 1.967 1.544z" fill="#E85160"/><path d="M16 16c-.828 0-1.5.264-1.5 1s.672 1 1.5 1v-2z" fill="#5BD3D5"/><path d="M17.5 17c0-.736-.672-1-1.5-1v2c.828 0 1.5-.264 1.5-1z" fill="#56C7CD"/><path d="M14 23c0 .828.328 1.5-.5 1.5s-1.5-.672-1.5-1.5.672-1.5 1.5-1.5.5.672.5 1.5z" fill="#5BD3D5"/><path d="M18 23c0 .828-.328 1.5.5 1.5s1.5-.672 1.5-1.5-.672-1.5-1.5-1.5-.5.672-.5 1.5z" fill="#56C7CD"/></svg>