<svg xmlns="http://www.w3.org/2000/svg" width="32" height="32" viewBox="0 0 32 32"><g><path d="M16 1c-.394 0-.788.215-.991.645l-3.779 8.021c-.161.342-.472.578-.832.633l5.602 6.925v-16.224zM1.047 12.419c-.103.383-.028.819.288 1.141l6.115 6.243c.26.266.379.649.318 1.025l-1.443 8.816c-.076.462.114.867.42 1.112l9.255-13.532-14.953-4.805z" fill="#E8BA36"/><path d="M21.602 10.299c-.36-.055-.671-.292-.832-.633l-3.779-8.021c-.203-.43-.597-.645-.991-.645v16.224l5.602-6.925zM25.196 30.799c.341-.238.561-.664.48-1.155l-1.443-8.816c-.061-.376.057-.759.318-1.025l6.115-6.243c.316-.322.391-.759.288-1.141l-14.954 4.805 9.196 13.575z" fill="#E0B12E"/><path d="M30.053 11.586l-8.45-1.286-5.603 6.924 14.953-4.805c-.111-.412-.43-.762-.9-.833zM10.398 10.299l-8.45 1.286c-.47.072-.789.421-.9.833l14.952 4.806-5.602-6.925zM16 26.569c.177 0 .353.044.514.133l7.558 4.162c.389.214.808.155 1.123-.065l-9.195-13.575v9.345zM7.928 30.864l7.558-4.162c.161-.089.338-.133.514-.133v-9.345l-9.256 13.532c.32.257.769.337 1.184.108z" fill="#DBA728"/><path d="M23.75 16h-1.84c-.153-.911-.509-1.751-1.023-2.473l1.3-1.3c.098-.098.098-.256 0-.354l-1.061-1.061c-.098-.098-.256-.098-.354 0l-1.3 1.3c-.98-.697-2.176-1.112-3.472-1.112v12c1.296 0 2.492-.415 3.473-1.113l1.3 1.3c.098.098.256.098.354 0l1.061-1.061c.098-.098.098-.256 0-.354l-1.3-1.3c.514-.722.87-1.562 1.023-2.473h1.84c.138 0 .25-.112.25-.25v-1.5c-.001-.137-.113-.249-.251-.249z" fill="#FFD04D"/><path d="M16 11c-1.296 0-2.492.415-3.473 1.113l-1.3-1.3c-.098-.098-.256-.098-.354 0l-1.061 1.061c-.098.098-.098.256 0 .354l1.3 1.3c-.514.722-.87 1.562-1.023 2.473h-1.839c-.138-.001-.25.111-.25.249v1.5c0 .138.112.25.25.25h1.84c.153.911.509 1.751 1.023 2.473l-1.3 1.3c-.098.098-.098.256 0 .354l1.061 1.061c.098.098.256.098.354 0l1.3-1.3c.98.697 2.176 1.112 3.472 1.112v-12z" fill="#FFD96C"/><path d="M20 17c0-2.209-1.791-4-4-4v8c2.209 0 4-1.791 4-4z" fill="#D64F45"/><path d="M12 17c0 2.209 1.791 4 4 4v-8c-2.209 0-4 1.791-4 4z" fill="#E55D53"/></g></svg>