<svg xmlns="http://www.w3.org/2000/svg" width="32" height="32" viewBox="0 0 32 32"><g><path d="M15.52 7.008l-8.056-2.886c-.364-.2-.754-.145-1.049.061-.318.222-.524.62-.448 1.079l2.348 7.23c.057.351-.054.708-.297.957l-5.709 5.829c-.295.301-.365.708-.269 1.065.104.385.401.711.84.778l7.889 1.201c.336.051.627.272.777.591l3.528 6.488c.189.402.557.603.925.603v-22.872c-.164 0-.329-.042-.479-.124z" fill="#A366AD"/><path d="M29.691 19.277l-5.709-5.829c-.243-.248-.354-.606-.297-.957l2.348-7.23c.071-.431-.106-.81-.392-1.038-.299-.24-.718-.314-1.105-.101l-8.056 2.886c-.15.082-.315.124-.48.124v22.871000000000002c.368 0 .736-.201.925-.603l3.528-6.488c.15-.319.441-.54.777-.591l7.889-1.201c.439-.067.737-.393.84-.778.097-.357.027-.764-.268-1.065z" fill="#945BA0"/><path d="M16 1c-.394 0-.788.215-.991.645l-3.779 8.021c-.161.342-.472.578-.832.633l5.602 6.925v-16.224zM1.047 12.419c-.103.383-.028.819.288 1.141l6.115 6.243c.26.266.379.649.318 1.025l-1.443 8.816c-.076.462.114.867.42 1.112l9.255-13.532-14.953-4.805z" fill="#C27BC6"/><path d="M21.602 10.299c-.36-.055-.671-.292-.832-.633l-3.779-8.021c-.203-.43-.597-.645-.991-.645v16.224l5.602-6.925zM25.196 30.799c.341-.238.561-.664.48-1.155l-1.443-8.816c-.061-.376.057-.759.318-1.025l6.115-6.243c.316-.322.391-.759.288-1.141l-14.954 4.805 9.196 13.575z" fill="#B370B9"/><path d="M30.053 11.586l-8.45-1.286-5.603 6.924 14.953-4.805c-.111-.412-.43-.762-.9-.833z" fill="#A366AD"/><path d="M10.398 10.299l-8.45 1.286c-.47.072-.789.421-.9.833l14.952 4.806-5.602-6.925z" fill="#B370B9"/><path d="M16 26.569c.177 0 .353.044.514.133l7.558 4.162c.389.214.808.155 1.123-.065l-9.195-13.575v9.345z" fill="#A366AD"/><path d="M7.928 30.864l7.558-4.162c.161-.089.338-.133.514-.133v-9.345l-9.256 13.532c.32.257.769.337 1.184.108z" fill="#B370B9"/><path d="M15.25 8c-.138 0-.25.112-.25.25v2.75h-1.071c-.265 0-.52.105-.707.293l-.757.757-1.945-1.945c-.098-.098-.256-.098-.354 0l-1.061 1.061c-.098.098-.098.256 0 .354l1.945 1.945-.757.757c-.188.187-.293.442-.293.707v1.071h-2.75c-.138 0-.25.112-.25.25v1.5c0 .138.112.25.25.25h2.75v1.071c0 .265.105.52.293.707l.757.757-1.944 1.945c-.098.098-.098.256 0 .354l1.061 1.061c.098.098.256.098.354 0l1.945-1.945.757.757c.186.188.441.293.706.293h1.071v2.75c0 .138.112.25.25.25h.75v-18h-.75z" fill="#FFD96C"/><path d="M24.75 16h-2.75v-1.071c0-.265-.105-.52-.293-.707l-.757-.757 1.945-1.945c.098-.098.098-.256 0-.354l-1.061-1.061c-.098-.098-.256-.098-.354 0l-1.945 1.945-.757-.757c-.187-.188-.442-.293-.707-.293h-1.071v-2.75c0-.138-.112-.25-.25-.25h-.75v18h.75c.138 0 .25-.112.25-.25v-2.75h1.071c.265 0 .52-.105.707-.293l.757-.757 1.945 1.945c.098.098.256.098.354 0l1.061-1.061c.098-.098.098-.256 0-.354l-1.945-1.945.757-.757c.188-.187.293-.442.293-.707v-1.071h2.75c.138 0 .25-.112.25-.25v-1.5c0-.138-.112-.25-.25-.25z" fill="#FFD04D"/><path d="M14.197 13.146l-2.05 2.05c-.094.094-.147.222-.147.354v2.9c0 .133.053.26.146.354l2.05 2.05c.094.093.222.146.354.146h1.45v-8h-1.45c-.132 0-.26.053-.353.146z" fill="#E8803A"/><path d="M20 18.45v-2.9c0-.133-.053-.26-.146-.354l-2.05-2.05c-.094-.093-.222-.146-.354-.146h-1.45v8h1.45c.133 0 .26-.053.354-.146l2.05-2.05c.093-.094.146-.222.146-.354z" fill="#DD7731"/></g></svg>