<svg xmlns="http://www.w3.org/2000/svg" width="32" height="32" viewBox="0 0 32 32"><g><path d="M17.654 3.191s2.492-1.444 1.801-2.847c-.092-.187.1-.394.298-.333.743.228 1.934.866 2.162 1.85 0 0 .461 1.498-.765 2.689l-3.496-1.359z" fill="#F7C845"/><path d="M14.346 3.191s-2.492-1.444-1.801-2.847c.092-.187-.1-.394-.298-.333-.743.228-1.934.866-2.162 1.85 0 0-.461 1.498.765 2.689l3.496-1.359z" fill="#FFD04D"/><path d="M16 12v17c4.418 0 7-3.582 7-8s-2.582-9-7-9z" fill="#EB6B48"/><path d="M9 21c0 4.418 2.582 8 7 8v-17c-4.418 0-7 4.582-7 9z" fill="#F57552"/><path d="M16 4c-3.314 0-6 2.686-6 6s2.686 6 6 6v-12z" fill="#FF805D"/><path d="M22 10c0-3.314-2.686-6-6-6v12c3.314 0 6-2.686 6-6z" fill="#F57552"/><path d="M16 9h4.945c.65-.635 1.056-1.519 1.056-2.5 0-1.933-1.567-3.5-3.5-3.5-.984 0-1.865.415-2.5 1.07l-.001 4.93z" fill="#EB6B48"/><path d="M23.25 24.365l.01-.021c-.731-2.076-2.979-4.846-3.881-5.906-.2-.236-.56-.235-.76.001-.574.675-1.692 2.041-2.619 3.48v7.081c3.215 0 5.979-1.9 7.25-4.635z" fill="#F7C845"/><path d="M22 29c-1.451 0-2.661 1.029-2.94 2.398-.063.31.18.602.497.602h4.887c.316 0 .559-.292.496-.602-.279-1.369-1.489-2.398-2.94-2.398z" fill="#EB6B48"/><circle cx="21.5" cy="26.5" r="3.5" fill="#FFD96C"/><path d="M27.5 25c.828 0 1.5-.171 1.5-1 0-1.69-2.658-5.279-3.854-6.475l-.586-.586c-.586-.586-1.535-.586-2.121 0-.586.585-.586 1.536 0 2.121l.586.586c.629.629 2.975 3.465 2.975 4.354 0 .829.672 1 1.5 1z" fill="#E26447"/><circle cx="28" cy="24" r="2" fill="#EB6B48"/><circle cx="22" cy="16" r="3" fill="#FFD96C"/><path d="M8.739 24.344c1.268 2.747 4.039 4.656 7.261 4.656v-7.081c-.927-1.439-2.045-2.805-2.619-3.48-.2-.236-.56-.237-.76-.001-.902 1.06-3.15 3.829-3.882 5.906z" fill="#FFD04D"/><path d="M10 29c-1.451 0-2.661 1.029-2.94 2.398-.063.31.18.602.497.602h4.887c.316 0 .559-.292.496-.602-.279-1.369-1.489-2.398-2.94-2.398z" fill="#F57552"/><circle cx="10.5" cy="26.5" r="3.5" fill="#FFE28A"/><path d="M4.5 25c-.828 0-1.5-.171-1.5-1 0-1.69 2.658-5.279 3.854-6.475l.586-.586c.586-.586 1.535-.586 2.121 0 .586.585.586 1.536 0 2.121l-.586.586c-.629.629-2.975 3.465-2.975 4.354 0 .829-.672 1-1.5 1z" fill="#EB6B48"/><circle cx="4" cy="24" r="2" fill="#F57552"/><circle cx="10" cy="16" r="3" fill="#FFE28A"/><path d="M15 9c0 1.105-.895 2-2 2s-2-.895-2-2h4z" fill="#fff"/><path d="M14 9c0 .552-.448 1-1 1s-1-.448-1-1h2z" fill="#373F3F"/><path d="M21 9c0 1.105-.895 2-2 2s-2-.895-2-2h4z" fill="#F7F7F7"/><path d="M20 9c0 .552-.448 1-1 1s-1-.448-1-1h2z" fill="#2B3332"/><path d="M16 10.766c-.274 0-.547.092-.756.277-.201.178-.473.277-.756.277h-.831c-.397 0-.656.371-.478.685.095.169.119.362.068.546l-.214.76c-.136.48.169.972.699 1.128.736.217 1.502.326 2.269.326v-3.999z" fill="#FFE28A"/><path d="M18.269 14.44c.53-.157.835-.648.699-1.128l-.214-.76c-.052-.183-.028-.377.068-.546.178-.315-.081-.685-.478-.685h-.831c-.284 0-.556-.1-.756-.277-.209-.185-.482-.277-.756-.277v4c.765-.001 1.531-.11 2.268-.327z" fill="#FFD96C"/><path d="M16 9h-4.945c-.65-.635-1.056-1.519-1.056-2.5 0-1.933 1.567-3.5 3.5-3.5.984 0 1.865.415 2.5 1.07l.001 4.93z" fill="#F57552"/></g></svg>