<svg xmlns="http://www.w3.org/2000/svg" width="32" height="32" viewBox="0 0 32 32"><g><path d="M30.888 22.553l-.531-1c-.083-.156-.209-.282-.356-.376v-2.177c0-.334-.167-.647-.445-.832l-6-4-1.109 1.664 5.332 3.555c.137.092.221.249.221.416v1.374c-.148.094-.274.22-.356.376l-.531 1c-.149.28-.149.615 0 .894l.531 1c.18.339.548.553.95.553h.812c.403 0 .771-.214.951-.553l.531-1c.148-.279.148-.615 0-.894z" fill="#C09265"/><path d="M4.356 21.553c-.082-.156-.208-.282-.356-.376v-1.374c0-.167.084-.323.223-.416l5.332-3.555-1.109-1.664-6 4c-.279.185-.446.498-.446.832v2.177c-.148.094-.274.22-.356.376l-.531 1c-.149.28-.149.615 0 .894l.531 1c.18.339.548.553.95.553h.812c.403 0 .771-.214.951-.553l.531-1c.149-.28.149-.615 0-.894l-.532-1z" fill="#CDA073"/><circle cx="8.5" cy="15.5" r="2.5" fill="#C09265"/><circle cx="23.5" cy="15.5" r="2.5" fill="#B38658"/><path d="M23.001 23.81c1.645 1.192 2.349 3.027 1.572 4.099-.777 1.071-2.739.973-4.384-.219s-3.158-3.614-2.382-4.685c.776-1.072 3.549-.387 5.194.805z" fill="#96643B"/><path d="M26.07 27.809c1.241 4.191 1.567 4.191-1.099 4.191-3.192 0-2.442 0-3.443-2.664-.715-1.902-.156-3.828 1.099-4.25 1.254-.422 2.866.775 3.443 2.723zM8.999 23.81c-1.645 1.192-2.349 3.027-1.572 4.099.777 1.071 2.739.973 4.384-.219s3.158-3.614 2.382-4.685c-.776-1.072-3.549-.387-5.194.805z" fill="#9E6E43"/><path d="M5.93 27.809c-1.241 4.191-1.567 4.191 1.099 4.191 3.192 0 2.442 0 3.443-2.664.715-1.902.156-3.828-1.099-4.25-1.254-.422-2.866.775-3.443 2.723z" fill="#B38658"/><path d="M5.002 3.629l-.578-.247c-.183-.078-.206-.327-.041-.437l.537-.36c-.086-2.053.31-3.278.554-2.162.204.935.71 1.749 1.356 2.458l.498-.16c.189-.061.37.112.318.304l-.142.52c.463.404.963.765 1.471 1.082l.52-.267c.176-.091.383.05.363.248l-.051.5c1.648.886 3.126 1.317 3.126 1.317l-3.145 5.484-2.433-2.031-.673.066c-.198.019-.338-.188-.246-.364l.312-.6s-.681-1.239-.954-1.972l-.579-.073c-.197-.025-.288-.258-.16-.41l.416-.492c-.236-.83-.384-1.648-.469-2.404z" fill="#E3E5E5"/><path d="M26.93 3.629l.578-.247c.182-.078.206-.327.041-.438l-.537-.36c.086-2.053-.309-3.278-.553-2.162-.204.935-.71 1.749-1.356 2.458l-.498-.16c-.189-.061-.37.112-.318.304l.142.52c-.463.404-.963.765-1.471 1.082l-.52-.267c-.176-.091-.383.05-.363.248l.051.5c-1.648.885-3.126 1.316-3.126 1.316l3.145 5.484 2.432-2.028.674.066c.197.019.338-.188.246-.364l-.312-.6s.681-1.239.954-1.972l.579-.073c.197-.025.288-.258.16-.41l-.418-.493c.237-.83.385-1.648.47-2.404z" fill="#DADDDC"/><path d="M16 21h-6s1.522 8 6 8v-8z" fill="#B38658"/><path d="M16 18h-6.076s-1.911 3-.238 6.043c1.468 2.669 4.264-.965 6.313-.965v-5.078z" fill="#C09265"/><path d="M16 14h-6.775s-2.488 2.968-.372 6.109c1.714 2.546 4.862-1.175 7.147-1.175v-4.934z" fill="#CDA073"/><path d="M16 4.996c-1.897 0-5.026.191-6.393 2.836-1.811 3.506-2.819 8.164 1.033 8.164 3.591 0 3.043-1.633 5.359-1.633v-9.367z" fill="#CFAB81"/><path d="M15.999 21h7s-1.776 8-7 8v-8z" fill="#A7794C"/><path d="M15.999 18h6.076s1.911 3 .238 6.043c-1.468 2.669-4.264-.965-6.313-.965v-5.078z" fill="#B38658"/><path d="M15.999 14h6.775s2.488 2.968.372 6.109c-1.714 2.546-4.862-1.175-7.147-1.175v-4.934z" fill="#C09265"/><path d="M15.999 4.996c1.898 0 5.026.191 6.393 2.836 1.811 3.506 2.819 8.164-1.033 8.164-3.591 0-3.043-1.633-5.359-1.633v-9.367z" fill="#CDA073"/><path d="M15.999 10s-3.999-.161-3.999 6.089c0 1.911 3.999 1.911 3.999 1.911v-8z" fill="#373F3F"/><path d="M16 10s3.999-.161 3.999 6.089c0 1.911-3.999 1.911-3.999 1.911v-8z" fill="#2B3332"/><path d="M12 8.498c0-.166.011-.323.028-.472l-1.028-1.028v2.5c0 .276.224.5.5.5h1c-.276 0-.5-.672-.5-1.5zM12.972 8.97c-.066.596-.251 1.028-.472 1.028h1.5l-1.028-1.028z" fill="#fff"/><path d="M12.972 8.97l-.944-.944c-.017.149-.028.306-.028.472 0 .828.224 1.5.5 1.5.221 0 .406-.432.472-1.028z" fill="#373F3F"/><path d="M20 8.498c0-.166-.011-.323-.028-.472l1.028-1.028v2.5c0 .276-.224.5-.5.5h-1c.276 0 .5-.672.5-1.5zM19.028 8.97c.066.596.251 1.028.472 1.028h-1.5l1.028-1.028z" fill="#F7F7F7"/><path d="M19.028 8.97l.944-.944c.017.149.028.306.028.472 0 .828-.224 1.5-.5 1.5-.221 0-.406-.432-.472-1.028z" fill="#2B3332"/><g fill="#F7F7F7"><path d="M12.488 12.878l1.914-.479c.222-.055.259-.355.058-.463l-1.121-.602c-.325.389-.619.897-.851 1.544zM14.355 13.949l-1.948-.847c-.17.534-.299 1.153-.362 1.887l2.271-.568c.232-.058.258-.377.039-.472zM14.328 15.953l-2.284-.942c-.028.337-.044.695-.044 1.078 0 .332.126.603.325.83l1.968-.492c.234-.059.258-.382.035-.474zM12.488 12.878l1.914-.479c.222-.055.259-.355.058-.463l-1.121-.602c-.325.389-.619.897-.851 1.544zM14.355 13.949l-1.948-.847c-.17.534-.299 1.153-.362 1.887l2.271-.568c.232-.058.258-.377.039-.472zM14.328 15.953l-2.284-.942c-.028.337-.044.695-.044 1.078 0 .332.126.603.325.83l1.968-.492c.234-.059.258-.382.035-.474z"/></g><g fill="#E3E5E5"><path d="M19.511 12.878l-1.914-.479c-.222-.055-.259-.355-.058-.463l1.121-.602c.325.389.618.897.851 1.544zM17.643 13.949l1.948-.847c.17.534.299 1.153.362 1.887l-2.271-.568c-.231-.058-.258-.377-.039-.472zM17.671 15.953l2.284-.942c.028.337.044.695.044 1.078 0 .332-.126.603-.326.83l-1.968-.492c-.234-.059-.257-.382-.034-.474zM19.511 12.878l-1.914-.479c-.222-.055-.259-.355-.058-.463l1.121-.602c.325.389.618.897.851 1.544zM17.643 13.949l1.948-.847c.17.534.299 1.153.362 1.887l-2.271-.568c-.231-.058-.258-.377-.039-.472zM17.671 15.953l2.284-.942c.028.337.044.695.044 1.078 0 .332-.126.603-.326.83l-1.968-.492c-.234-.059-.257-.382-.034-.474z"/></g></g></svg>