<svg xmlns="http://www.w3.org/2000/svg" width="32" height="32" viewBox="0 0 32 32"><g><path d="M13.216 23.536c-5.123-2.048-10.393-.086-10.614-.002l.355.935c.051-.02 5.133-1.906 9.887-.004 2.753 1.101 6.365 1.8 9.043 1.799 1.766 0 3.126-.304 3.565-.996.28-.442.569-1.042.308-1.754-.269-.732-1.076-1.64-4.19-2.95-.516.212-1.043.4-1.585.538-.267.068-.507.057-.722 0-2.615.412-11.468-.825-15.13-1.591l-.205.979c1.017.213 4.941.893 8.624 1.315 2.295.263 3.952.371 5.152.371 2.249 0 2.892-.38 3.128-.837 2.389.972 3.73 1.815 3.989 2.519.091.249.033.486-.213.875-.546.859-6.283.846-11.392-1.197zM28.627 22.965c-1.201-1.477-3.412-2.451-5.653-3.102-.432.254-.879.48-1.342.673 2.428.594 4.988 1.545 6.219 3.06.579.712.803 1.476.684 2.335-.055.393-.225.681-.533.907-1.564 1.142-6.166.349-10.617-.417-6.807-1.171-13.844-2.383-15.576 1.543l.914.403c1.419-3.213 8.364-2.016 14.492-.961 3.053.526 5.856 1.008 8.02 1.008 1.439 0 2.597-.213 3.357-.77.527-.386.842-.917.934-1.577.157-1.132-.145-2.176-.899-3.102z" fill="#96643B"/><path d="M13.03 29h-4v-6c0-1.105.895-2 2-2s2 .895 2 2v6z" fill="#A7794C"/><path d="M13.03 29l.638 1.276c.167.333-.075.724-.447.724h-4.382c-.372 0-.613-.391-.447-.724l.638-1.276h4zM22.03 29h-4v-6c0-1.105.895-2 2-2s2 .895 2 2v6z" fill="#9E6E43"/><path d="M22.03 29l.638 1.276c.167.333-.075.724-.447.724h-4.382c-.372 0-.613-.391-.447-.724l.638-1.276h4z" fill="#96643B"/><path d="M24.03 30h-4v-6c0-1.105.895-2 2-2s2 .895 2 2v6z" fill="#A7794C"/><path d="M24.03 30l.638 1.276c.167.333-.075.724-.447.724h-4.382c-.372 0-.613-.391-.447-.724l.638-1.276h4z" fill="#9E6E43"/><path d="M25.03 18.972c0 6.091-1.343 7.028-3 7.028s-3-.937-3-7.028 1.343-11.028 3-11.028 3 4.937 3 11.028zM12.03 30h-4v-6c0-1.105.895-2 2-2s2 .895 2 2v6z" fill="#B38658"/><path d="M12.03 30l.638 1.276c.167.333-.075.724-.447.724h-4.382c-.372 0-.613-.391-.447-.724l.638-1.276h4z" fill="#A7794C"/><path d="M13.03 18.972c0 6.091-1.343 7.028-3 7.028s-3-.937-3-7.028 1.343-11.028 3-11.028 3 4.937 3 11.028z" fill="#C09265"/><path d="M15.811.395l-.381.688-.981-.443c-.12-.054-.26-.007-.322.108-.276.509-1.135 1.827-2.897 2.501-2.212.847-7.2 2.751-7.2 8.803 0 5.992 5.938 8.981 7.058 10.461.089.117.257.134.366.035l.976-.881 3.392 5.026c.042.063.111.085.178.094v-26.514c-.075.01-.147.046-.189.122z" fill="#9E6E43"/><path d="M16.237 26.692l3.393-5.026.976.881c.109.099.277.082.366-.035 1.12-1.48 7.057-4.469 7.058-10.461 0-6.051-4.988-7.955-7.201-8.801-1.762-.674-2.62-1.993-2.897-2.501-.062-.116-.202-.163-.321-.109l-.981.443-.381-.688c-.054-.097-.154-.133-.249-.122v26.513c.089.012.18-.01.237-.094z" fill="#96643B"/><path d="M5.825.501s-.435.536-.757 1.444c-.17.443-.241.978-.188 1.477l.068.367.153.337c.118.216.265.412.454.587.207.169.376.341.651.469.227.145.473.271.763.365.273.101.503.216.796.274l.763.197c.226.067.483.083.682.122l.531.083.458.073.124.02c1.126.18 1.876 1.144 1.674 2.153-.201 1.009-1.277 1.681-2.403 1.501-.186-.03-.372-.085-.535-.155l-.532-.23-.606-.265c-.232-.111-.492-.198-.776-.363-.564-.327-1.22-.638-1.872-1.173-.332-.227-.653-.519-.953-.856-.32-.294-.569-.695-.801-1.084-.216-.391-.37-.844-.436-1.269l-.053-.643.08-.606c.168-.771.497-1.399.852-1.864.69-.933 1.344-1.384 1.344-1.384l.02-.014c.154-.106.375-.08.494.058.097.114.094.269.005.379z" fill="#E3E5E5"/><path d="M10.56 6.38l-.193.605-.659 2.118-.193.605c.178.826 1.018.841 1.018.841l.336-1.05.658-2.119.336-1.05c-.001-.001-.685-.505-1.303.05zM26.236.501s.435.536.757 1.444c.17.443.241.978.188 1.477l-.068.367-.153.338c-.118.216-.265.412-.454.587-.207.169-.376.341-.651.469-.227.145-.473.271-.763.365-.273.101-.503.216-.796.274l-.763.197c-.226.067-.483.084-.682.122l-.531.084-.458.073-.124.02c-1.126.18-1.876 1.144-1.674 2.153.201 1.009 1.277 1.681 2.403 1.501.187-.03.372-.086.536-.156l.532-.23.605-.265c.233-.111.492-.198.776-.363.564-.327 1.22-.638 1.872-1.173.333-.226.654-.518.953-.856.32-.294.569-.695.801-1.084.216-.392.37-.845.436-1.269l.053-.643-.08-.606c-.168-.771-.497-1.399-.852-1.864-.69-.933-1.344-1.384-1.344-1.384l-.02-.014c-.154-.106-.375-.08-.494.058-.097.113-.095.268-.005.378z" fill="#DADDDC"/><path d="M21.501 6.38l.193.605.658 2.119.193.605c-.178.826-1.018.841-1.018.841l-.336-1.05-.657-2.12-.336-1.05c0-.001.684-.505 1.303.05z" fill="#D1D4D4"/><path d="M16.03 5.097v15.896s2.256.204 2.99-1.74c.734-1.944.912-2.716.912-2.716s.147.105 1.01-.663 1.182-3.295 1.066-4.277l-.878-3.393c-.464-1.793-1.886-3.103-3.567-3.195-.453-.025-.962-.002-1.533.088z" fill="#C09265"/><path d="M16.03 5.097v15.896s-2.256.204-2.99-1.74c-.734-1.944-.912-2.716-.912-2.716s-.147.105-1.01-.663-1.182-3.295-1.066-4.277l.878-3.393c.464-1.793 1.886-3.103 3.567-3.195.454-.025.963-.002 1.533.088z" fill="#CDA073"/><path d="M16.03 18.34s-.919-.34-1.412-.34c-.492 0-.588.551-.588 1.061 0 .481.482.939 1 .939h1v-1.66z" fill="#724D31"/><path d="M16.03 18.34s.919-.34 1.412-.34c.492 0 .588.551.588 1.061 0 .481-.482.939-1 .939h-1v-1.66z" fill="#604631"/><path d="M13.467 13.597c-.069.233-.171.392-.291.392-.207 0-.375-.443-.375-.99 0-.149.014-.287.037-.413l-.366-.586-.326 1.157c-.067.236.048.485.27.589l1.614.754-.563-.903z" fill="#fff"/><path d="M13.176 13.989c.12 0 .223-.16.291-.392l-.63-1.01c-.022.127-.037.264-.037.413.001.546.169.989.376.989z" fill="#373F3F"/><path d="M18.593 13.597c.069.233.171.392.291.392.207 0 .375-.443.375-.99 0-.149-.014-.287-.037-.413l.367-.586.326 1.157c.067.236-.048.485-.27.589l-1.615.754.563-.903z" fill="#F7F7F7"/><path d="M18.884 13.989c-.12 0-.223-.16-.291-.392l.63-1.01c.022.127.037.264.037.413-.001.546-.168.989-.376.989z" fill="#2B3332"/><path d="M14.53 11.5c0 .828.672 1.5 1.5 1.5v-3c-.828 0-1.5.671-1.5 1.5z" fill="#E3E5E5"/><path d="M15.03 8.5c0 .552.448 1 1 1v-2c-.552 0-1 .447-1 1z" fill="#EDEEEE"/><path d="M15.53 6.5c0 .276.224.5.5.5v-1c-.276 0-.5.223-.5.5z" fill="#F7F7F7"/><path d="M17.53 11.5c0-.828-.672-1.5-1.5-1.5v3c.829 0 1.5-.672 1.5-1.5z" fill="#DADDDC"/><path d="M17.03 8.5c0-.552-.448-1-1-1v2c.553 0 1-.448 1-1z" fill="#E3E5E5"/><path d="M16.53 6.5c0-.276-.224-.5-.5-.5v1c.276 0 .5-.224.5-.5z" fill="#EDEEEE"/><path d="M4.947 20.174c.116-.54-.228-1.072-.768-1.188-.369-.079-1.715.115-2.521.245-.114.018-.185.102-.204.197l3.493.746z" fill="#6673AA"/><path d="M3.76 20.942c.54.116 1.071-.228 1.187-.768l-3.493-.747c-.019.093.013.196.107.258.681.45 1.828 1.178 2.199 1.257z" fill="#5C699E"/><path d="M3.89 23.713c-.15-.532-.703-.841-1.234-.691-.364.103-1.462.903-2.114 1.394-.092.069-.116.177-.089.269l3.437-.972z" fill="#6673AA"/><path d="M3.199 24.947c.531-.15.841-.702.691-1.233l-3.437.972c.027.091.103.167.215.178.812.078 2.166.186 2.531.083z" fill="#5C699E"/><path d="M2.998 27.148c-.482-.27-1.092-.098-1.361.384-.184.33-.395 1.673-.508 2.481-.016.114.043.207.128.253l1.741-3.118z" fill="#6673AA"/><path d="M3.382 28.509c.269-.482.098-1.091-.384-1.36l-1.742 3.119c.083.045.191.046.278-.026.629-.521 1.663-1.402 1.848-1.733z" fill="#5C699E"/></g></svg>