<svg xmlns="http://www.w3.org/2000/svg" width="32" height="32" viewBox="0 0 32 32"><g><path d="M14 23v4.941c0 .264.356.348.474.112l.526-1.053.776 1.553c.046.092.135.138.224.138v-5.691h-2z" fill="#FFE28A"/><path d="M16.224 28.553l.776-1.553.526 1.053c.118.236.474.152.474-.112v-4.941h-2v5.691c.089 0 .178-.046.224-.138z" fill="#FFD96C"/><path d="M9 21l-7.151 1.589c-.785.174-1.444-.601-1.145-1.348l1.145-2.864c.04-.101.053-.208.06-.315l7.091 2.212v.726z" fill="#EDEEEE"/><path d="M1.844 17.624l-1.349-3.254-.292-1.1 5.797 2.73 3 4v.274l-7.092-2.211c.009-.149-.006-.299-.064-.439z" fill="#F7F7F7"/><path d="M23 21l7.151 1.589c.785.174 1.444-.601 1.145-1.348l-1.145-2.864c-.04-.101-.053-.208-.06-.315l-7.091 2.212v.726z" fill="#EDEEEE"/><path d="M30.156 17.624l1.349-3.254.292-1.099-5.797 2.729-3 4v.274l7.092-2.211c-.009-.149.006-.299.064-.439z" fill="#F7F7F7"/><path d="M9.321 21.113l.801-.6-3.166-4.142s-5.609-2.97-6.234-3.303c-.625-.333-1.25.646 0 1.175.75.388 5.667 2.96 5.667 2.96l2.932 3.91z" fill="#F79654"/><path d="M22.679 21.113l-.801-.6 3.166-4.142s5.609-2.97 6.234-3.303c.625-.333 1.25.646 0 1.175-.75.388-5.667 2.96-5.667 2.96l-2.932 3.91z" fill="#EF8C48"/><path d="M16 19.113v-15.113c-6 0-8 4.492-8 12.3 0 4.862 2.327 6.998 4.472 7.945l1.528-5.132h2z" fill="#FCA15E"/><path d="M24 16.3c0-7.808-2-12.3-8-12.3v15.113h2l1.528 5.133c2.145-.948 4.472-3.084 4.472-7.946zM16 24.999v-5.886h-2l-1.528 5.133c1.83.808 3.528.753 3.528.753z" fill="#F79654"/><path d="M16 19.113v5.886s1.698.055 3.528-.754l-1.528-5.132h-2z" fill="#EF8C48"/><path d="M10.566 8.158s-2.007-.813-3.171 1.248l.802 3.702s1.675-.399 2.413-1.889c.903-1.821-.044-3.061-.044-3.061z" fill="#F7F7F7"/><path d="M21.434 8.158s2.007-.813 3.171 1.248c1.164 2.061-.802 3.702-.802 3.702s-1.675-.399-2.413-1.889c-.903-1.821.044-3.061.044-3.061z" fill="#EDEEEE"/><path d="M18.546 17.508l-.902-1.89c-.179-.374-.601-.618-1.07-.618h-1.148c-.469 0-.891.244-1.07.619l-.902 1.89c.81-.191 1.662-.3 2.546-.3.884-.001 1.736.108 2.546.299z" fill="#F57552"/><circle cx="8.5" cy="10.5" r=".5" fill="#373F3F"/><circle cx="23.5" cy="10.5" r=".5" fill="#2B3332"/><path d="M14.356 15.619l-1.01 2.115c-.121.253-.116.538.013.789l.974 1.885c.186.36.6.593 1.057.593h.61v-6h-.574c-.469-.001-.891.243-1.07.618z" fill="none"/><path d="M15.39 21c-.457 0-.871-.232-1.057-.593l-.974-1.885c-.129-.25-.134-.535-.013-.789l1.01-2.115c.179-.374.601-.618 1.07-.618h.574v-1h-1.349c-.469 0-.891.244-1.07.619l-1.494 3.13c-.121.253-.116.538.013.789l1.482 2.87c.186.36.6.593 1.057.593h1.361v-1h-.61z" fill="#FAB8CD"/><path d="M13.454 17.508l-.108.225c-.121.253-.116.538.013.789l.974 1.885c.186.36.6.593 1.057.593h.61v-3.792c-.884 0-1.736.109-2.546.3z" fill="#FF805D"/><path d="M17.487 20.652c-.216.217-.535.348-.877.348.343 0 .661-.131.877-.348z" fill="#EA8BB4"/><path d="M18.653 17.734l-1.01-2.115c-.178-.375-.6-.619-1.069-.619h-.574v2.208c.884 0 1.736.109 2.546.3l.107.226z" fill="#EB6B48"/><path d="M18.653 17.734l-.108-.225c-.81-.191-1.662-.3-2.546-.3v3.791h.61c.343 0 .661-.131.878-.348.072-.072.133-.155.179-.245l.974-1.885c.13-.25.134-.535.013-.788z" fill="#F57552"/><path d="M18.417 21.407l1.482-2.87c.129-.25.134-.535.013-.789l-1.494-3.13c-.178-.374-.6-.618-1.069-.618h-1.349v1h.574c.469 0 .891.244 1.07.619l1.01 2.115c.121.253.116.538-.013.789l-.974 1.885c-.186.36-.6.592-1.057.592h-.61v1h1.36c.457 0 .871-.232 1.057-.593z" fill="#F9ADC8"/><path d="M27.411 32c-.859 0-1.812-.274-2.597-.962-.952-.835-1.929-2.525-1.177-5.832.406-1.789.27-3.161-.405-4.08-.755-1.027-1.936-1.132-1.948-1.133-.274-.022-.48-.263-.458-.538.021-.276.269-.482.538-.459.066.005 1.65.146 2.674 1.538.854 1.163 1.048 2.809.574 4.894-.643 2.827.114 4.203.862 4.858.891.781 2.103.84 2.853.562.256-.095.547.037.642.296.096.259-.036.547-.296.643-.367.134-.801.213-1.262.213z" fill="#FFD96C"/><path d="M4.589 32c.859 0 1.812-.274 2.597-.962.952-.835 1.929-2.525 1.177-5.832-.406-1.789-.27-3.161.405-4.08.755-1.027 1.936-1.132 1.948-1.133.274-.022.48-.263.458-.538-.021-.276-.269-.482-.538-.459-.066.005-1.65.146-2.674 1.538-.854 1.163-1.048 2.809-.574 4.894.643 2.827-.114 4.203-.862 4.858-.891.781-2.103.84-2.853.562-.256-.095-.547.037-.642.296-.096.259.036.547.296.643.367.134.801.213 1.262.213zM15.757.189l-1.272 5.87c-.246.986.499 1.941 1.515 1.941v-8c-.106 0-.211.063-.243.189z" fill="#FFE28A"/><path d="M17.515 6.06l-1.272-5.87c-.032-.127-.138-.19-.243-.19v8c1.016 0 1.761-.955 1.515-1.94z" fill="#FFD96C"/></g></svg>