<svg xmlns="http://www.w3.org/2000/svg" width="32" height="32" viewBox="0 0 32 32"><g><path d="M29.681 14.041c-.134-.096-.249-.212-.354-.336l-5.223.815-1.604.084v-.896l2.74-5.539c-.096-.154-.18-.316-.232-.493l-.646-2.203-2.279 3.277s-.375 5.958-.624 6.095c-.249.136 5.666 2.197 5.666 2.197l4.866-1.346-2.31-1.655z" fill="#F7F7F7"/><path d="M22.5 14.604l1.604-.083 5.223-.815c-.217-.256-.374-.56-.442-.893l-.547-1.555c-.121-.596-.506-1.105-1.047-1.382l-1.278-.983c-.323-.166-.585-.421-.774-.723l-2.74 5.539v.895z" fill="#EDEEEE"/><path d="M14.962 3c-1.596 0-2.623.489-3.295 1.121-.132.124-.255.254-.369.387-.87 1.017-1.298 2.461-1.298 3.917v15.091999999999999c0 1.454.431 2.888 1.292 3.91.116.138.241.272.375.401.677.651 1.719 1.159 3.333 1.168v-25.993l-.038-.003z" fill="#5CA3D5"/><path d="M18.333 27.879c.132-.124.255-.254.369-.387.87-1.016 1.298-2.46 1.298-3.917v-15.093c0-1.454-.431-2.888-1.292-3.91-.116-.138-.241-.272-.375-.401-.677-.651-1.719-1.159-3.333-1.168v25.994l.038.003c1.596 0 2.623-.489 3.295-1.121zM31.991 15.696c-.109-.252-.401-.369-.653-.26l-.069.03-.337.145-.381.167-.517.144c-.184.065-.398.083-.618.114-.218.042-.454.048-.697.046-.24.016-.492-.016-.745-.041-.252-.01-.509-.089-.763-.13-1.017-.231-1.979-.706-2.654-1.11l-.408-.262c1.198-1.254 2.449-2.198 3.475-3.101 1.562-1.375.437-1.937-.688-1.375-1.374.695-2.659 1.527-3.808 2.364-.171-.707-.313-1.574-.277-2.446.027-.255.017-.524.073-.77.042-.251.076-.502.155-.73.062-.235.128-.461.226-.661.087-.204.161-.406.271-.567l.274-.462.26-.325.228-.287.047-.059c.15-.189.144-.464-.025-.647-.187-.201-.501-.213-.703-.027l-.316.292-.363.341-.411.503c-.161.18-.289.405-.432.64-.155.231-.279.492-.398.769-.136.272-.227.567-.323.868-.111.3-.152.614-.228.927-.238 1.259-.175 2.533-.055 3.472l.104.644c-1.912 1.596-2.675 2.536-2.675 2.536s-2.875 5.125 1.375 7.875c.345-3.625 1.434-6.13 2.767-8.019.238.124.53.265.894.421.875.362 2.088.754 3.366.853.322.008.636.05.954.021.316-.014.624-.025.922-.085.298-.043.583-.094.846-.183.265-.078.515-.142.731-.251l.592-.266.424-.262.365-.228c.207-.128.294-.39.195-.618z" fill="#529CCF"/><path d="M5 14v12.517c0 1.454.517 2.888 1.55 3.91.139.138.289.273.45.402v-16.829h-2z" fill="#71B1E1"/><path d="M15 14v16.879c.158-.124.306-.254.442-.387 1.044-1.017 1.558-2.461 1.558-3.918v-12.574h-2z" fill="#65A9DC"/><path d="M10.896 29c-1.39 0-2.707-.326-3.896-.896v2.725c.813.651 2.061 1.161 4 1.169v-3.004l-.104.006z" fill="#F7D684"/><path d="M11 31.998l.046.002c1.915 0 3.148-.489 3.954-1.121v-2.882c-1.213.621-2.566.981-4 .997v3.004z" fill="#F0C877"/><path d="M11 28.994v-4l-.104.006c-1.39 0-2.707-.326-3.896-.896v4c1.189.57 2.506.896 3.896.896l.104-.006z" fill="#FAE09F"/><path d="M11 24.994v4c1.434-.017 2.786-.376 4-.997v-4c-1.214.621-2.566.981-4 .997z" fill="#F7D684"/><path d="M7 14v10.104c1.189.57 2.506.896 3.896.896l.104-.006v-10.994h-4z" fill="#FDEBBB"/><path d="M11 14v10.994c1.434-.017 2.786-.376 4-.997v-9.997h-4z" fill="#FAE09F"/><path d="M21.78 17.683l-.469-1.802.004-.063-6.181-.879 6.893-1.123.019-.22-.559-2.502-1.387 2.059-4.956.722-.069 1.701 6.696 2.364c.023-.082.032-.17.009-.257z" fill="#F7F7F7"/><path d="M21.315 15.818c-.011-.086-.016-.174.017-.254l.688-1.668.007-.08-6.893 1.123 6.181.879zM19.975 19.078c.177.104.4.089.562-.038l1.068-.838c.086-.067.138-.161.166-.262l-6.696-2.364-.025.611 4.925 2.891z" fill="#EDEEEE"/><path d="M15.072 13.269l.254.017c.17.009.425.009.732-.004.614-.034 1.455-.141 2.251-.416.193-.079.401-.136.582-.232.187-.088.375-.171.539-.278.172-.098.336-.197.475-.31.144-.108.289-.206.396-.319l.315-.296.211-.254.187-.223.039-.046c.14-.167.386-.217.55-.11.148.096.177.287.077.447l-.178.284-.209.328-.326.399c-.115.153-.269.292-.429.446-.155.16-.338.306-.533.453-.189.157-.403.289-.621.426-.214.147-.45.249-.68.375-.934.46-1.924.719-2.665.858-.372.066-.683.108-.907.128l-.363.026c-.502-.009-.842-.396-.759-.865.085-.471.56-.844 1.062-.834z" fill="#529CCF"/><path d="M.273 17.683l.469-1.802-.004-.063 6.181-.879-6.893-1.123-.019-.22.559-2.502 1.387 2.059 4.956.722.069 1.701-6.696 2.364c-.022-.082-.031-.17-.009-.257z" fill="#F7F7F7"/><path d="M.738 15.818c.011-.086.016-.174-.017-.254l-.688-1.668-.007-.08 6.893 1.123-6.181.879zM2.078 19.078c-.177.104-.4.089-.562-.038l-1.068-.838c-.086-.067-.138-.161-.166-.262l6.696-2.364.025.611-4.925 2.891z" fill="#EDEEEE"/><path d="M6.981 13.269l-.254.017c-.17.009-.425.009-.732-.004-.614-.034-1.455-.141-2.251-.416-.193-.079-.401-.136-.582-.232-.187-.088-.375-.171-.539-.278-.172-.098-.336-.197-.475-.31-.144-.108-.289-.206-.396-.319l-.315-.296-.211-.254-.187-.223-.039-.046c-.14-.167-.386-.217-.55-.11-.148.096-.177.287-.077.447l.178.284.209.328.326.399c.114.15.268.29.428.444.155.16.338.306.533.453.189.157.403.289.621.426.214.147.45.249.68.375.934.46 1.924.719 2.665.858.372.066.683.108.907.128l.363.026c.502-.009.842-.396.759-.865-.084-.469-.558-.842-1.061-.832z" fill="#529CCF"/><path d="M11.955 13.651l.245.02c.147.017.353.049.608.112.506.125 1.223.381 1.944.926.722.535 1.397 1.387 1.789 2.398.399 1.008.565 2.134.568 3.226.002.536-.01 1.05.026 1.514.031.484.106.95.213 1.385.212.872.617 1.589 1.106 2.03.491.443 1.033.625 1.413.689.383.066.605.035.572.04.274-.034.524.161.557.435.034.274-.161.524-.435.557-.031.002-.335.049-.855-.025-.511-.071-1.266-.298-1.961-.892-.694-.59-1.227-1.521-1.503-2.538-.294-.998-.353-2.169-.36-3.171-.024-.987-.202-1.953-.542-2.755-.338-.806-.859-1.416-1.399-1.799-.54-.389-1.082-.569-1.458-.652-.189-.042-.338-.061-.434-.07l-.129-.008-.065-.004c-.392-.024-.691-.361-.667-.753s.361-.691.753-.667l.014.002z" fill="#4390BF"/><path d="M10.045 13.651l-.245.02c-.147.017-.353.049-.608.112-.506.125-1.223.381-1.944.926-.722.535-1.397 1.387-1.789 2.398-.399 1.008-.565 2.134-.568 3.226-.002.536.01 1.05-.026 1.514-.031.484-.106.95-.213 1.385-.212.872-.617 1.589-1.106 2.03-.491.443-1.033.625-1.413.689-.383.066-.605.035-.572.04-.274-.034-.524.161-.557.435-.034.274.161.524.435.558.031.002.335.049.855-.025.511-.071 1.266-.298 1.961-.892.694-.59 1.227-1.521 1.503-2.538.294-.998.353-2.169.36-3.171.024-.987.202-1.953.542-2.755.338-.806.859-1.416 1.399-1.799.54-.389 1.082-.569 1.458-.652.189-.042.338-.061.434-.07l.129-.008.065-.004c.392-.024.691-.361.667-.753s-.361-.691-.753-.667l-.014.001z" fill="#529CCF"/><path d="M17.547 8.297c.261.174.811.586 1.561.607.75.022.892.065.892.477s.02.694-.689.889c-.71.195-2.331 1.063-2.412 2.212-.081 1.149.973 1.236 1.095 1.258.122.022.142 1.41-.405 1.431-.547.022-2.737.022-3.548 2.581-.812 2.56-3.041 2.235-3.041 2.235v-14.987h2.898s.77-.027 1.181.526c.357.472 2.007 2.489 2.468 2.771z" fill="#7FB8E0"/><path d="M4.453 8.297c-.261.173-.811.585-1.561.607-.75.022-.892.065-.892.477s-.02.694.689.889c.71.195 2.331 1.063 2.412 2.212.081 1.149-.973 1.236-1.095 1.258-.122.022-.142 1.41.405 1.431.547.022 2.737.022 3.548 2.581l3.041 2.235v-14.987h-2.898s-.77-.027-1.181.526c-.357.472-2.007 2.489-2.468 2.771z" fill="#8EC0E0"/><path d="M10.95 14.307v.002l-.198.002h-.048l-.404-.007-.052-.001-.502-.03-.101-.009-.514-.067-.04-.005-.043-.011c-.172-.033-.336-.071-.474-.123l-.279-.081-.078-.009-.15-.014c-.096.001-.174.022-.239.053l-.043.026-.115.129-.009.01-.008.012c-.025.063-.027.14-.018.222l.01.061c.018.088.048.181.102.282.321.595.367 1.536.367 1.536v4.876c0 .115.02.213.05.3l.036.077.091.149.059.064.125.099.066.042.172.073.039.015.215.045.06.007.132.012.058.002h.089l.029-.001.041-.002h1.624v-7.735l-.05-.001z" fill="#373F3F"/><path d="M11 13.848v-3s1.002.174 2.585 1.376l.633 1.539-3.218.085z" fill="#71B1E1"/><path d="M11 13.848v-3s-1.002.174-2.585 1.376l-.633 1.539 3.218.085z" fill="#7FB8E0"/><path d="M11.932 11.233l.554-.499c.045.178.11.342.192.483l-.746.016zM14.113 9.271l.798-.718s.765.947.553 2.195c-.041.238-.243.417-.485.422l-.731.015c.128-.271.196-.61.169-.977-.027-.364-.141-.687-.304-.937z" fill="#F7F7F7"/><path d="M12.486 10.734l1.626-1.463c.163.249.277.572.303.937.026.368-.041.706-.169.977l-1.568.032c-.082-.141-.146-.304-.192-.483z" fill="#D84459"/><path d="M11 22.043h1.624l.04.002.029.001h.089l.058-.002.132-.012.06-.007.213-.047.039-.015.172-.073.066-.042.126-.099.059-.064.091-.149.036-.077c.03-.088.05-.185.05-.3v-4.876s.046-.941.367-1.536c.055-.101.084-.194.102-.282l.01-.061c.009-.083.007-.16-.018-.223l-.008-.012-.124-.139-.042-.025c-.065-.032-.143-.052-.239-.053l-.15.014-.078.009-.279.081c-.138.051-.302.09-.474.123l-.043.011-.04.005-.514.067-.101.009-.501.03-.052.001-.404.007h-.048l-.198-.002v-.002l-.05.001v7.737z" fill="#2B3332"/><path d="M9.05 14.062c-.152.933.07 1.47.331 1.754.155.169.443.058.436-.171-.021-.682.219-1.452.219-1.452l-.986-.131z" fill="#F7F7F7"/><path d="M11 22.425v-5.032s-.356-.393-1.119-.393c-1.102 0-1.848 3.423-1.848 3.423l.017 1.806 2.95.196z" fill="#F297BE"/><path d="M11 22.425v-5.032s.356-.393 1.119-.393c1.102 0 1.848 3.423 1.848 3.423l-.017 1.722-2.95.28z" fill="#EA8BB4"/><path d="M11.965 14.171s.24.785.219 1.473c-.007.23.282.341.437.172.261-.285.481-.822.33-1.753l-.986.108zM12.95 22.5c.158-.716-.088-1.116-.363-1.32-.168-.124-.405-.01-.403.199.005.491-.22 1.023-.22 1.023l.986.098z" fill="#EDEEEE"/><path d="M9.05 22.5c-.158-.716.088-1.116.363-1.32.168-.124.405-.01.403.199-.006.496.22 1.041.22 1.041l-.986.08z" fill="#F7F7F7"/><path d="M10.95 22.043h-1.574l-.041.002-.029.001-.047.001-.043-.001-.058-.002-.132-.012-.06-.007-.213-.047-.039-.015-.172-.073-.066-.042-.125-.099-.059-.064-.091-.149-.036-.077c-.03-.088-.05-.185-.05-.3v-4.876s-.046-.941-.367-1.536c-.055-.101-.084-.194-.102-.281l-.01-.062c-.009-.083-.007-.159.018-.222l.008-.012.123-.139.043-.026c.065-.032.143-.052.239-.053l.008-.002.143.016.078.009.279.081c.138.051.302.09.474.123l.083.016.515.067.101.009.502.03.052.001.404.007h.048l.198-.002v-.002l.05.001v-.752l-.751-.004c-.624-.024-1.135-.094-1.414-.198-.272-.101-.528-.153-.761-.153-.455 0-.834.199-1.041.546-.133.222-.302.694.055 1.357.181.336.266.965.278 1.216l-.003 4.842c0 .979.761 1.637 1.895 1.637l.143-.004h1.597v-.75h-.05z" fill="#FFF3D9"/><path d="M10.136.96l-.672 6.379c-.018.176-.224.279-.394.197l-4.776-2.915c-.515-.314-1.043.384-.6.794l6.067 5.608c.363.287.801.43 1.239.43v-11.453c-.788 0-.864.96-.864.96zM10.136.96l-.672 6.379c-.018.176-.224.279-.394.197l-4.776-2.915c-.515-.314-1.043.384-.6.794l6.067 5.608c.363.287.801.43 1.239.43v-11.453c-.788 0-.864.96-.864.96z" fill="#4896C8"/><path d="M12.597 22.793l.143.004c1.133 0 1.895-.658 1.895-1.637v-4.876c.015-.263.104-.859.277-1.18.357-.662.188-1.134.055-1.357-.207-.347-.587-.546-1.041-.546-.233 0-.489.051-.761.153-.272.101-.763.17-1.365.196l-.775.007h-.025v.752l.05-.001v.002l.198.002h.048l.404-.007.052-.001.502-.03.101-.009.514-.067.083-.016c.172-.033.336-.072.474-.123l.279-.081.078-.009.143-.016.008.002c.096.001.174.022.239.053l.042.025.124.139.007.008v.003c.025.063.027.14.018.223l-.01.061c-.018.088-.047.18-.102.282-.321.595-.367 1.536-.367 1.536v4.876c0 .116-.02.213-.05.3l-.036.077-.091.149-.059.064-.044.047-.082.052-.066.041-.172.073-.039.015-.213.047-.06.007-.133.012-.058.002-.043.001-.047-.001-.029-.001h-.009l-.031-.002h-1.623v.75h1.597z" fill="#FDEBBB"/><path d="M11.864.96l.672 6.379c.019.177.224.279.394.197l4.776-2.915c.515-.314 1.043.384.6.794l-6.067 5.608c-.363.287-.801.43-1.239.43v-11.453c.788 0 .864.96.864.96z" fill="#4390BF"/><path d="M10.068 11.233l-.554-.499c-.045.178-.11.342-.192.483l.746.016zM7.887 9.271l-.797-.717s-.765.947-.553 2.195c.041.238.243.417.485.422l.731.015c-.128-.271-.196-.61-.169-.977.026-.365.14-.688.303-.938z" fill="#fff"/><path d="M9.514 10.734l-1.627-1.463c-.163.25-.277.573-.303.937-.026.368.041.706.169.977l1.568.032c.082-.141.147-.304.193-.483z" fill="#E85160"/></g></svg>