<svg xmlns="http://www.w3.org/2000/svg" width="32" height="32" viewBox="0 0 32 32"><g><path d="M8 25v1l2.854 4.757c.091.151.253.243.429.243h4.717v-6h-8z" fill="#51BAC5"/><path d="M16 31h4.717c.176 0 .338-.092.429-.243l2.854-4.757v-1h-8v6z" fill="#4CAEBC"/><path fill="#111918" d="M23.313 19.283l-1.313-3.283 1.313 3.283z"/><path d="M10.014 15.965l-1.942 4.857c-.048.117-.072.243-.072.371v3.807h8v-9l-5.986-.035z" fill="#56C7CD"/><path d="M21.985 15.96l-5.985.04v9h8v-3.807c0-.127-.024-.253-.072-.371l-1.943-4.862z" fill="#51BAC5"/><path d="M8 21.701v9.799c0 .276-.224.5-.5.5h-7c-.276 0-.5-.224-.5-.5v-7.065c0-.206.126-.391.318-.466l7-2.734c.328-.128.682.114.682.466z" fill="#56C7CD"/><path d="M8 26.969l-8 2v2.531c0 .276.224.5.5.5h7c.276 0 .5-.224.5-.5v-4.531zM24 21.701v9.799c0 .276.224.5.5.5h7c.276 0 .5-.224.5-.5v-7.065c0-.206-.126-.391-.318-.466l-7-2.734c-.328-.128-.682.114-.682.466z" fill="#51BAC5"/><path d="M24 26.969l8 2v2.531c0 .276-.224.5-.5.5h-7c-.276 0-.5-.224-.5-.5v-4.531z" fill="#4CAEBC"/><path d="M12.535 0c-.193 0-.377.057-.535.157v4.843l1.003 8.045.204-.045h2.793v-13h-3.465z" fill="#FAB8CD"/><path d="M20 .157c-.158-.1-.342-.157-.535-.157h-3.465v13h2.793c.08 0 .156.021.226.056l.981-8.056v-4.843z" fill="#F9ADC8"/><path d="M23.832 5.748l-3.535-5.303c-.079-.118-.181-.214-.297-.288v4.843l-.981 8.056.128.09 2.84 2.84.066-.116 1.876-4.691c.047-.118.071-.244.071-.372v-4.504c0-.198-.058-.391-.168-.555z" fill="#F8A1C4"/><path d="M13.002 13.045l-1.002-8.045v-4.843c-.116.074-.218.17-.297.288l-3.535 5.303c-.11.164-.168.357-.168.555v4.505l.04.265.031.107 1.876 4.691.066.116 2.84-2.84.149-.102z" fill="#FAC4D1"/><path d="M19.869 5.096l-1.095.796c-.089.064-.125.179-.09.283l.765 2.254c.027.08.092.14.174.162l1.959.51c.073.019.15.004.21-.04l1.05-.766c.072-.053.111-.14.101-.229l-.146-1.33c-.009-.079-.054-.149-.123-.189l-2.533-1.464c-.086-.051-.193-.046-.272.013z" fill="#F7F7F7"/><ellipse transform="matrix(.617 -.787 .787 .617 2.529 19.2)" cx="21" cy="7" rx=".448" ry=".594" fill="#2B3332"/><path d="M12.152 5.096l1.095.796c.089.064.125.179.09.283l-.765 2.254c-.027.08-.092.14-.174.162l-1.959.51c-.073.019-.15.004-.21-.04l-1.05-.766c-.072-.053-.111-.14-.101-.229l.146-1.33c.009-.079.054-.149.123-.189l2.533-1.464c.086-.051.192-.046.272.013z" fill="#fff"/><ellipse transform="matrix(.787 -.617 .617 .787 -1.971 8.296)" cx="11.021" cy="7" rx=".594" ry=".448" fill="#373F3F"/><path d="M13.018 13.04l-.016.005-.149.101-2.84 2.84.075.075 3.803 2.852.126.063.996-.95-1.995-4.986z" fill="#51BAC5"/><path d="M21.986 15.986l-2.84-2.84-.128-.09-.038-.014-1.999 4.992.999.941.126-.063 3.803-2.852.077-.074z" fill="#4CAEBC"/><path d="M13.207 13l-.189.04 1.99 4.973.096-.019h.896v-4.994h-2.793z" fill="#56C7CD"/><path d="M15.104 17.994l-.096.019-.081.054-.908.908.113.018h1.868v-1h-.896z" fill="#5BD3D5"/><path d="M16.991 18.013l1.99-4.971-.188-.042h-2.793v4.994h.896l.095.019z" fill="#51BAC5"/><path d="M17.073 18.068l-.082-.054-.094-.019h-.897v1h1.868l.113-.018-.908-.909z" fill="#56C7CD"/></g></svg>