<svg xmlns="http://www.w3.org/2000/svg" width="32" height="32" viewBox="0 0 32 32"><g fill="#E0B12E"><path d="M9.433 19l-.297 1.779c-.449 2.696.224 5.458 1.864 7.644l.433.577 2-1-.16-.481c-.55-1.651-.66-3.417-.319-5.123l.479-2.396-4-1zM22.567 19l.297 1.779c.449 2.696-.224 5.458-1.864 7.644l-.433.577-2-1 .16-.481c.55-1.651.66-3.417.319-5.123l-.479-2.396 4-1z"/></g><path d="M9.433 19l-.297 1.779c-.449 2.696.224 5.458 1.864 7.644l.433.577 2-1-.16-.481c-.55-1.651-.66-3.417-.319-5.123l.479-2.396-4-1z" fill="#F7C845"/><path d="M22.567 19l.297 1.779c.449 2.696-.224 5.458-1.864 7.644l-.433.577-2-1 .16-.481c.55-1.651.66-3.417.319-5.123l-.479-2.396 4-1z" fill="#E0B12E"/><path d="M16 21h-2.767l-.279 1.396c-.341 1.706-.231 3.472.319 5.123l.16.481h2.567v-7z" fill="#F0C13E"/><path d="M18.767 21h-2.767v7h2.567l.16-.481c.55-1.651.66-3.417.319-5.123l-.279-1.396z" fill="#E8BA36"/><path d="M23 15l1.678 3.355c.192.385.117.85-.187 1.154l-.561.561c-1.876 1.876-4.42 2.93-7.072 2.93h-.858v-5l7-3z" fill="#F7C845"/><path d="M9 15l-1.678 3.355c-.192.385-.117.85.188 1.155l.561.561c1.875 1.875 4.419 2.929 7.071 2.929h.858v-5l-7-3zM23 11l1.678 3.355c.192.385.117.85-.187 1.154l-.561.561c-1.876 1.876-4.42 2.93-7.072 2.93h-.858v-5l7-3z" fill="#FFD04D"/><path d="M9 11l-1.678 3.355c-.192.385-.117.85.188 1.155l.561.561c1.875 1.875 4.419 2.929 7.071 2.929h.858v-5l-7-3z" fill="#FFD96C"/><path fill="#FFD04D" d="M16 28h-2.567l-2 1 .567 1h4z"/><path fill="#F7C845" d="M16 28v2h4l.567-1-2-1zM16 30h-4l.586.586c.905.905 2.133 1.414 3.414 1.414v-2z"/><path d="M16 32c1.281 0 2.509-.509 3.414-1.414l.586-.586h-4v2z" fill="#F0C13E"/><path d="M16 14.884l-2.499 4.262c-.328.559-.501 1.196-.501 1.844 0 .661.18 1.309.52 1.876l2.052 3.419c.097.162.263.243.429.243v-11.644z" fill="#FFE28A"/><path d="M16.429 26.285l2.052-3.419c.339-.567.519-1.215.519-1.876 0-.648-.173-1.285-.501-1.844l-2.499-4.262v11.644c.166 0 .332-.081.429-.243z" fill="#FFD96C"/><path d="M16 14h-4c.655 1.311 1.641 2.427 2.861 3.24l.585.39c.168.112.361.168.555.168v-3.798z" fill="#FFD04D"/><path d="M16.555 17.63l.585-.39c1.219-.813 2.205-1.93 2.861-3.24h-4v3.798c.192 0 .386-.056.554-.168z" fill="#F7C845"/><path d="M16 0v14.884c.572 0 1.143-.062 1.708-.187 2.61-.577 7.292-2.112 7.292-5.697 0-4.971-4.029-9-9-9z" fill="#FFD96C"/><path d="M7 9c0 3.585 4.682 5.12 7.292 5.697.565.125 1.136.187 1.708.187v-14.884c-4.971 0-9 4.029-9 9z" fill="#FFE28A"/><path d="M13.868 12.346l-2.377-2.971c-.372-.465-1.067-.504-1.488-.082l-.856.856c-.195.195-.195.512 0 .707 1.077 1.077 2.427 1.842 3.905 2.211l.304.076c.464.117.811-.423.512-.797z" fill="#373F3F"/><path d="M18.132 12.346l2.377-2.971c.372-.465 1.067-.504 1.488-.082l.856.856c.195.195.195.512 0 .707-1.077 1.077-2.427 1.842-3.905 2.211l-.304.076c-.464.117-.811-.423-.512-.797z" fill="#2B3332"/><circle cx="12.5" cy="12" r=".5" fill="#fff"/><circle cx="19.5" cy="12" r=".5" fill="#F7F7F7"/></svg>