<svg xmlns="http://www.w3.org/2000/svg" width="32" height="32" viewBox="0 0 32 32"><g><path d="M8.935 23.044l-2.407.059-2.718-2.632 2.633-1.964c.664-.495.801-1.435.305-2.099-.495-.664-1.435-.801-2.099-.305l-4.046 3.017-.181.159c-.576.595-.561 1.545.034 2.121l4.325 4.187.325.314c.369.359.959.352 1.319-.017l2.59-2.658.031-.078c-.002-.059-.052-.106-.111-.104z" fill="#FFD96C"/><path d="M3.562 20.16s-.75 4.812 12.438 4.812v-12h-12.125l-.313 7.188z" fill="#373F3F"/><circle cx="11" cy="20.972" r="2" fill="#FF7899"/><path d="M7.789 26.905l-1.261.031-2.718-2.632 2.582-1.927c.658-.491.854-1.427.383-2.099-.488-.696-1.45-.847-2.126-.343l-4.046 3.018-.181.16c-.576.595-.561 1.545.034 2.121l4.325 4.187.325.314c.369.359.959.352 1.319-.017l1.751-1.982c.289-.327.049-.841-.387-.831z" fill="#FFE28A"/><path d="M23.065 23.044l2.407.059 2.719-2.632-2.633-1.964c-.664-.495-.801-1.435-.305-2.099.495-.664 1.435-.801 2.099-.305l4.046 3.018.181.159c.576.595.561 1.545-.034 2.121l-4.325 4.187-.325.314c-.369.359-.959.352-1.319-.017l-2.59-2.658-.031-.078c.001-.06.051-.107.11-.105z" fill="#FFD04D"/><path d="M28.438 20.16s.75 4.812-12.438 4.812v-12h12.125l.313 7.188z" fill="#2B3332"/><path d="M24.211 26.905l1.261.031 2.719-2.632-2.582-1.927c-.658-.491-.854-1.427-.383-2.099.488-.696 1.45-.847 2.126-.343l4.046 3.018.181.159c.576.595.561 1.545-.034 2.121l-4.325 4.187-.325.314c-.369.359-.959.352-1.319-.017l-1.751-1.982c-.29-.326-.05-.84.386-.83z" fill="#FFD96C"/><circle cx="21" cy="20.972" r="2" fill="#FF6B8B"/><path d="M16 2c-3 0-7.877 1.321-11 3.972-1.469 1.247-2.455 2.881-3.068 4.589 3.479-2.812 8.484-4.589 14.068-4.589v-3.972z" fill="#CFAB81"/><path d="M30.068 10.561c-.613-1.708-1.599-3.342-3.068-4.589-3.123-2.651-8-3.972-11-3.972v3.972c5.584 0 10.589 1.777 14.068 4.589zM3.523 19.97c3.625.094 5.125-3.149 7.875-3.149.985 0 1.855.51 2.566 1.165.577.531 1.307.797 2.037.797v-12.811c-5.584 0-10.589 1.777-14.068 4.589-1.59 4.423-.597 9.352 1.59 9.409z" fill="#CDA073"/><path d="M16 18.783c.73 0 1.46-.266 2.037-.797.711-.655 1.581-1.165 2.566-1.165 2.75 0 4.25 3.243 7.875 3.149 2.187-.057 3.18-4.986 1.591-9.409-3.48-2.812-8.485-4.589-14.069-4.589v12.811z" fill="#C09265"/><circle cx="8.5" cy="11.472" r="1.5" fill="#373F3F"/><circle cx="24.5" cy="11.472" r="1.5" fill="#2B3332"/></g></svg>