<svg xmlns="http://www.w3.org/2000/svg" width="32" height="32" viewBox="0 0 32 32"><g><path fill="#B38658" d="M21.961 29.312h3.1l-.017-.146h-3.065zM11.011 13l-4.206 2.524c-.448.269-.614.837-.38 1.305l1.139 2.277c.247.494.848.694 1.342.447l1.105-.553 1.005 1.371-3.171 2.681c-.097.082-.159.197-.174.323l-.71 5.938h3.1l-.589-4.927c-.023-.192.067-.38.231-.483l2.673-1.675 3.232 4.41c.098.134.246.201.395.203v-12.843l-4.992-.998z"/><path d="M24.178 23.052l-3.171-2.681 1.004-1.371 1.106.553c.494.247 1.095.047 1.342-.447l1.139-2.277c.234-.467.068-1.036-.38-1.305l-4.207-2.524-5 1-.009-.002v12.842c.155.003.31-.065.412-.203l3.232-4.41 2.673 1.675c.164.103.254.291.231.483l-.571 4.781h3.065l-.692-5.792c-.015-.125-.077-.241-.174-.322z" fill="#A7794C"/><path fill="#CFAB81" d="M9.878 18.874l-1.733-.998 2.869-4.984 1.997.539z"/><path d="M4.561 17.874c.21-.508.782-.762 1.294-.563l3.822 1.485c.115.045.246-.001.307-.108l.363-.63-5.677-4.292c-.48-.363-1.17-.223-1.47.299l-.216.375c-.904 2.323-1.102 4.763-.85 7.045.174 1.536.52 2.602 1.025 3.738.119.267.518.152.477-.138-.165-1.168-.161-2.199.002-3.599.15-1.268.46-2.49.923-3.612zM16.011 13.01h-.071l-2.405.343c-.165.023-.307.128-.38.277l-1.022 2.116c-.039.08-.053.167-.047.253h3.925v-2.989z" fill="#DADDDC"/><path d="M19.936 16c.006-.086-.009-.173-.047-.253l-1.022-2.116c-.072-.15-.215-.254-.38-.277l-2.405-.343h-.071v2.989h3.925zM15.591 21.538c.099.152.259.229.42.229v-5.767h-3.925c.006.083.031.164.078.236l3.427 5.302z" fill="#D1D4D4"/><path d="M16.011 21.767c.161 0 .321-.076.42-.229l3.428-5.302c.046-.072.072-.153.078-.236h-3.925v5.767z" fill="#C8CCCB"/><path fill="#CDA073" d="M22.145 18.874l-3.134-5.443 1.998-.539 2.869 4.984z"/><path d="M14.011 14l-6.894-1.97c-.067-.019-.124-.066-.155-.129l-2.924-5.848-.027-.112v-5.636c0-.158.144-.276.299-.245l9.701 1.94v12z" fill="#C09265"/><path d="M16.011 1l-5.418-.903c-.305-.051-.582.184-.582.493v7.327l.059.141 3.941 5.942h2v-13z" fill="#CDA073"/><path d="M18.011 14l6.894-1.97c.067-.019.124-.066.155-.129l2.924-5.849.026-.112v-5.635c0-.158-.144-.276-.299-.245l-9.7 1.94v12z" fill="#B38658"/><path d="M16.011 1l5.418-.903c.305-.051.582.184.582.493v7.327l-.059.141-3.941 5.942h-2v-13z" fill="#C09265"/><path d="M27.439 17.874c-.21-.508-.782-.762-1.294-.563l-3.822 1.485c-.115.045-.246-.001-.307-.108l-.363-.63 5.677-4.292c.48-.363 1.17-.223 1.47.299l.216.375c.904 2.323 1.102 4.763.85 7.045-.174 1.536-.52 2.602-1.025 3.738-.119.267-.518.152-.477-.138.165-1.168.161-2.199-.002-3.599-.15-1.268-.46-2.49-.923-3.612z" fill="#C8CCCB"/><path d="M10.596 8.905l-.018.359c0 .871.279 1.577.623 1.577.167 0 .317-.168.429-.437l.784 1.135-2.08-.791c-.194-.074-.322-.26-.322-.467v-2.222l.584.846z" fill="#fff"/><path d="M11.201 10.841c-.344 0-.623-.706-.623-1.577l.018-.359 1.034 1.498c-.112.27-.263.438-.429.438z" fill="#373F3F"/><path d="M21.427 8.905l.018.359c0 .871-.279 1.577-.623 1.577-.167 0-.317-.168-.429-.437l-.784 1.135 2.08-.791c.194-.074.322-.26.322-.467v-2.222l-.584.846z" fill="#F7F7F7"/><path d="M20.822 10.841c.344 0 .623-.706.623-1.577l-.018-.359-1.034 1.498c.112.27.262.438.429.438z" fill="#2B3332"/><path d="M6.228 31.343l.66-2c.067-.205.259-.343.475-.343h2.288c.215 0 .406.138.474.342l.667 2c.108.324-.133.658-.474.658h-3.615c-.341 0-.582-.333-.475-.657z" fill="#DADDDC"/><path d="M25.795 31.343l-.66-2c-.068-.205-.259-.343-.475-.343h-2.288c-.215 0-.406.138-.474.342l-.667 2c-.108.324.133.658.474.658h3.615c.341 0 .581-.333.475-.657z" fill="#C8CCCB"/></g></svg>