<svg xmlns="http://www.w3.org/2000/svg" width="32" height="32" viewBox="0 0 32 32"><g><path d="M24.186 9.464c-4.22 1.694-5.695 4.485-5.709 4.514-.089.172-.264.272-.446.272-.075 0-.151-.018-.223-.054l-.435.507 1.627 4.297c1.404-2.363 4.16-3.702 7.943-3.957.275-.019.517-.145.686-.334-.805-1.36-2.231-3.778-3.307-5.604l-.136.359z" fill="#D285D2"/><path d="M27.878 13.977c-.354-4.773 2.351-8.776 3.559-10.308.31-.393.274-.958-.08-1.312l-1.007-1.008c-.055.055-.119.102-.198.127-5.74 1.826-5.658 7.278-5.651 7.509l-.177.119 3.307 5.604c.17-.193.267-.451.247-.731z" fill="#D799D6"/><path d="M7.5 8.985c.006-.231.089-5.683-5.651-7.509-.079-.025-.146-.07-.2-.125l-1.005 1.006c-.354.354-.391.919-.081 1.312 1.208 1.532 3.913 5.536 3.559 10.308-.022.296.09.566.282.762l3.231-5.407c-.086-.093-.138-.214-.135-.347z" fill="#E0ABDF"/><path d="M14.192 14.196c-.072.036-.147.054-.223.054-.182 0-.357-.1-.446-.272-.006-.013-.33-.685-1.071-1.574l.005.166c-.879-.948-2.355-2.187-4.643-3.106-.072-.029-.13-.077-.179-.131l-3.231 5.407c.167.171.394.286.653.303 3.783.254 6.539 1.594 7.943 3.957l1.627-4.298-.435-.506z" fill="#D799D6"/><path d="M26.112 18.134l-2.992 1.747c-.321.188-.332.648-.02.851l1.039.675-.293.334c-.253.24-.567.495-.938.729-.383.223-.805.438-1.257.606-.899.343-1.861.551-2.584.653-.362.05-.663.083-.868.096l-.311.017.393 2.671.402-.106c.248-.069.588-.178.992-.321.804-.288 1.852-.746 2.825-1.367.488-.306.948-.67 1.355-1.038.4-.384.73-.787.983-1.154l.303-.532.02-.043 1.065.606c.339.193.759-.06.747-.45l-.109-3.559c-.011-.378-.424-.607-.752-.415z" fill="#B8A5E4"/><path d="M13.601 21.562s-3.79 2.044-3.594 3.773c.07 1.506-.309 3.336-.464 3.708l-.094.12-2.297 1.379c-.2.12-.204.408-.008.534l1.358.873c.131.084.304.064.411-.049l1.293-1.356c.073-.076.104-.179.079-.281-.08-.319-.149-1.142.757-2.29.502-.636.718-1.128.81-1.493.896-.062 1.828-.534 2.064-1.302.471-1.533-.315-3.616-.315-3.616z" fill="#D4C9EF"/><path d="M24.847 30.542l-2.297-1.379-.094-.12c-.155-.371-.534-2.202-.464-3.708.196-1.729-3.594-3.773-3.594-3.773s-.786 2.083-.314 3.615c.236.768 1.168 1.24 2.064 1.302.092.365.308.857.81 1.493.906 1.148.837 1.971.757 2.29-.026.102.006.205.079.281l1.293 1.356c.107.113.28.133.411.049l1.358-.873c.196-.125.191-.413-.009-.533z" fill="#C6B7E9"/><path d="M16 15v13s-5 .109-5-4.54l1.5-8.46h3.5z" fill="#E3DBF4"/><path d="M16 15v13s5 .109 5-4.54l-1.5-8.46h-3.5z" fill="#D4C9EF"/><path d="M16 17.281v-8.312s-4.119-1.125-4.119-.812v2.687l1.562 6.437h2.557z" fill="#B38658"/><path d="M16 15.469v-7h-2.112c0-.001-1.523 7 2.112 7z" fill="#F8A1C4"/><path d="M16 17.281v-8.312s4.119-1.125 4.119-.812v2.687l-1.562 6.437h-2.557z" fill="#A7794C"/><path d="M16 15.469v-7h2.112c0-.001 1.523 7-2.112 7z" fill="#F297BE"/><path d="M13.042 10.479l1.289.461c.109.039.201.114.26.214l.979 1.632c.097.162.263.243.429.243v-11.28h-.015c-.1-.004-.693-.026-1.418.027-.137.01-.275-.034-.377-.126l-1.697-1.521c-.344-.308-.886-.025-.83.433l.21 1.705c.019.151-.036.299-.14.41l-.167.228c-.634 1.153-1.268 3.917-1.436 4.678-.029.135-.03.262-.003.397.064.323.201.988.354 1.607-.451-.239-.986-.479-1.707-.801-.166-.075-.288-.232-.305-.414-.157-1.68-1.071-6.18-6.317-7.849-.262-.085-.543.062-.628.326-.083.262.062.544.326.628 5.74 1.826 5.657 7.277 5.651 7.508-.006.209.12.4.314.478 1.762.707 3.041 1.604 3.938 2.412l.566 5.35c.016.153.102.291.233.372l1.668 1.037.182.069 1.585.263.013-.011v-1.955h-1.279c-.09 0-.179-.025-.257-.071l-.939-.563c-.124-.074-.209-.198-.235-.339l-.908-4.988c-.068-.378.299-.69.661-.56z" fill="#F1EDFA"/><path d="M30.477.849c-.084-.264-.365-.41-.628-.325-5.252 1.671-6.162 6.179-6.317 7.854-.017.179-.137.333-.302.406-.726.325-1.273.615-1.736.908.164-.648.313-1.371.381-1.712.027-.135.026-.261-.004-.395-.167-.761-.801-3.525-1.436-4.678l-.167-.228c-.104-.111-.159-.259-.14-.41l.21-1.705c.056-.459-.486-.742-.83-.433l-1.698 1.519c-.102.092-.24.136-.377.126-.726-.053-1.318-.031-1.418-.027h-.015v11.279c.166 0 .332-.081.429-.243l.979-1.632c.06-.099.152-.175.26-.214l1.289-.461c.362-.13.729.182.66.56l-.908 4.988c-.026.142-.111.265-.235.339l-.94.563c-.076.047-.165.072-.255.072h-1.279v1.886l.082.069 1.549-.257.126-.038 1.729-.789c.163-.075.274-.231.29-.41l.511-5.619c.895-.799 2.162-1.681 3.899-2.378.194-.078.319-.269.314-.478-.006-.231-.089-5.683 5.651-7.509.264-.084.409-.366.326-.628z" fill="#E3DBF4"/><path d="M18.766 4.233l.206-.307c.118-.176.387-.136.447.067.17.571.403 1.523.31 2.232-.019.145-.167.239-.308.201l-.451-.107c.121-.256.208-.542.208-.867.001-.487-.162-.916-.412-1.219z" fill="#F7F7F7"/><path d="M18.766 4.233l-.514.766-.515.768c-.105.156-.008.368.179.388l.48.062.574.104c.121-.256.208-.542.208-.867.001-.489-.162-.918-.412-1.221zM17.293 9.244c-.112 0-.211-.072-.239-.185-.017-.066-.131-.666.811-1.27.114-.076.27-.042.345.076.075.116.041.271-.076.345-.632.406-.593.738-.592.741.019.132-.068.262-.199.287l-.05.006z" fill="#2B3332"/><path d="M14.703 9.25l-.059-.007c-.131-.032-.212-.161-.186-.292.002-.022.021-.347-.592-.74-.116-.075-.15-.229-.076-.345.075-.117.229-.15.345-.076.941.604.827 1.203.811 1.27-.029.113-.131.19-.243.19z" fill="#373F3F"/><path d="M13.234 4.233l-.206-.307c-.118-.176-.387-.136-.447.067-.17.571-.403 1.523-.31 2.232.019.145.167.239.308.201l.451-.107c-.121-.256-.208-.542-.208-.867-.001-.487.162-.916.412-1.219z" fill="#fff"/><path d="M13.749 4.999l-.514-.766c-.25.304-.413.732-.413 1.22 0 .325.088.611.208.867l.574-.104.48-.062c.187-.02.284-.231.179-.388l-.514-.767z" fill="#373F3F"/></g></svg>