<svg xmlns="http://www.w3.org/2000/svg" width="32" height="32" viewBox="0 0 32 32"><g><path d="M17.543 13.729l5.337-2.668c.078-.039.14-.104.175-.183l3.883-8.738c.04-.089.113-.16.203-.196l4.344-1.738c.247-.099.515.083.515.348v2.242c0 .144-.082.275-.212.337l-1.788.867 1.797.927c.125.064.203.192.203.333v1.31c0 .204-.163.371-.367.375l-2.633.055 1.89 1.89c.07.07.11.166.11.265v.365c0 .244-.229.423-.466.364l-3.534-.884 2.89 2.89c.07.07.11.166.11.265v.364c0 .244-.229.423-.466.364l-3.534-.883 1.937 2.906c.041.061.063.134.063.208v.186c0 .3-.334.478-.583.312l-2.417-1.612v2.625c0 .207-.168.375-.375.375h-.47c-.099 0-.195-.04-.265-.11l-1.89-1.89v1.625c0 .207-.168.375-.375.375h-1.4c-.138 0-.266-.076-.331-.199l-.522-.978-.106-.124-1.781-1.336c-.223-.166-.192-.51.058-.634z" fill="#71B1E1"/><path d="M14.457 13.729l-5.337-2.669c-.078-.039-.14-.104-.175-.183l-3.883-8.738c-.04-.089-.113-.159-.204-.196l-4.344-1.737c-.246-.099-.514.083-.514.348v2.242c0 .144.082.275.212.338l1.788.866-1.797.927c-.125.064-.203.192-.203.333v1.31c0 .204.163.371.367.375l2.633.055-1.89 1.89c-.07.07-.11.166-.11.265v.365c0 .244.229.423.466.364l3.534-.884-2.89 2.89c-.07.07-.11.166-.11.265v.364c0 .244.229.423.466.364l3.534-.883-1.937 2.906c-.041.061-.063.134-.063.208v.186c0 .3.334.478.583.312l2.417-1.612v2.625c0 .207.168.375.375.375h.47c.099 0 .195-.04.265-.11l1.89-1.89v1.625c0 .207.168.375.375.375h1.4c.138 0 .266-.076.331-.199l.522-.978.106-.124 1.781-1.336c.223-.166.192-.51-.058-.634z" fill="#7FB8E0"/><path d="M19.333 19.325c0-2.582-1.492-4.675-3.333-4.675v-7.65l.833-1s2.498-.344 3.167 3.55c.375 2.669-.969 2.45-.854 3.905.112.843 1.854 1.354 1.854 5.445 0 3.316-2.807 4.623-4.274 4.985 1.492-.465 2.607-2.328 2.607-4.56z" fill="#8EC0E0"/><path d="M16 24l.203-.014-.203.014zM16.203 23.986c.141-.017.32-.05.524-.1-.171.052-.346.085-.524.1z" fill="#80C0DF"/><path d="M19.333 19.325c0 2.232-1.116 4.095-2.607 4.56-.204.05-.383.084-.524.1l-.202.015v-9.35c1.841 0 3.333 2.093 3.333 4.675z" fill="#D2E6F3"/><path d="M12.667 19.325c0-2.582 1.492-4.675 3.333-4.675v-7.65l-.833-1s-2.498-.344-3.167 3.55c-.375 2.669.969 2.45.854 3.905-.112.843-1.854 1.354-1.854 5.445 0 3.316 2.807 4.623 4.274 4.985-1.492-.465-2.607-2.328-2.607-4.56z" fill="#9FC9E4"/><path d="M16 24l-.203-.014.203.014zM15.797 23.986c-.141-.017-.32-.05-.524-.1.171.052.346.085.524.1z" fill="#80C0DF"/><path d="M12.667 19.325c0 2.232 1.116 4.095 2.607 4.56.204.05.383.084.524.1l.202.015v-9.35c-1.841 0-3.333 2.093-3.333 4.675z" fill="#E2EFF7"/><path d="M17.17 21.074l.467.192c.314.119.78.293 1.387.454.607.151 1.353.309 2.192.346.417.009.86.011 1.296-.063.224-.019.433-.087.653-.133l.313-.107.384-.14.402-.158.515-.153c.353-.094.682-.168 1.049-.214.72-.102 1.509-.14 2.362.044.842.177 1.782.605 2.54 1.422.76.814 1.185 1.98 1.249 3.033l.018.201.003.049-.012.251-.004.069-.018.276c.018.089-.089.606-.212.977-.262.753-.593 1.21-.99 1.67-.788.867-1.659 1.345-2.492 1.725-.839.384-1.666.621-2.495.791-.828.178-1.645.296-2.464.342-.409.025-.816.044-1.222.047l-.609.003-.304-.004-.152-.002-.076-.001-.192-.01-.035-.005c-.56-.032-1.982-.355-2.651-.687-1.599-.673-2.887-1.513-4.101-2.321l-3.382-2.269c-1.054-.676-2.064-1.241-2.975-1.543-.229-.081-.451-.15-.655-.172l-.311-.059-.336-.015-.38-.01-.292.013c-.19-.004-.39.029-.585.058-.777.117-1.404.416-1.864.756-.929.687-1.224 1.389-1.204 1.326-.091.274-.38.42-.645.325-.265-.095-.406-.394-.314-.668.009-.024.061-.248.231-.625.172-.373.463-.913 1-1.471.527-.562 1.315-1.132 2.323-1.483.25-.087.509-.178.806-.234l.444-.095.382-.048.446-.044.488.01c.34-.004.659.043.979.104 1.294.231 2.531.729 3.77 1.291 1.242.559 2.466 1.238 3.713 1.879 1.392.716 2.829 1.423 4.374 1.735 1.32.266 2.721.368 4.084.276 1.225-.083 2.483-.309 3.401-1.193.358-.345.698-.815.766-1.318.155-1.14-1.243-1.649-2.145-1.728-.879-.076-1.668.205-2.526.283-.316.029-.626.073-.919.062-.592.016-1.129-.058-1.626-.136-.99-.164-1.805-.413-2.461-.651-.657-.233-1.159-.445-1.499-.602l-.527-.255c-.372-.18-.533-.639-.359-1.024.168-.371.584-.538.947-.39l.05.021z" fill="#529CCF"/><path d="M21.5 27h-1.5v-1h-1v3.5c0 .276.224.5.5.5s.5-.224.5-.5v-.793l.543.543c.195.195.512.195.707 0 .195-.195.195-.512 0-.707l-.543-.543h.793c.276 0 .5-.224.5-.5s-.224-.5-.5-.5z" fill="#E0B12E"/><path d="M16.688 23.625s2 3.352 3.062 3.018c.729-.229.94-2.116 1.184-3.253.066-.603.074-1.143-.129-1.68l-.598-1.586-3.519 3.501z" fill="#71B1E1"/><path d="M12 26v1h-1.5c-.276 0-.5.224-.5.5s.224.5.5.5h.793l-.543.543c-.195.195-.195.512 0 .707.195.195.512.195.707 0l.543-.543v.793c0 .276.224.5.5.5s.5-.224.5-.5v-3.5h-1z" fill="#E8BA36"/><path d="M15.312 23.625s-2 3.352-3.062 3.018c-.729-.229-.94-2.116-1.184-3.253-.066-.603-.074-1.143.129-1.68l.598-1.586 3.519 3.501z" fill="#7FB8E0"/><path d="M10.335 3.671l1.516 3.031c.097.194.254.35.447.447l3.255 1.627c.118.059.245.088.374.097l-1.927-3.852-3.421-1.71c-.181-.017-.336.176-.244.36z" fill="#71B1E1"/><path d="M16.074 8.873c.128-.01.255-.038.374-.097l3.255-1.627c.194-.097.35-.254.447-.447l1.516-3.031c.092-.184-.063-.376-.244-.36l-3.422 1.71-1.926 3.852z" fill="#65A9DC"/><path d="M17.249 9.875l-.249.125s.007.506.371.798c-.088-.186-.144-.433-.144-.708l.022-.215zM18.148 9.426c.077.182.129.408.129.664 0 .399-.116.734-.282.909l.005.001c1 0 1-2 1-2l-.852.426z" fill="#F7F7F7"/><path d="M18.148 9.426l-.899.45-.022.215c0 .275.056.521.144.708.145.116.341.2.624.201.165-.176.282-.511.282-.909 0-.257-.052-.484-.129-.665z" fill="#D84459"/><path d="M16.726 23.885c1.439-.355 4.163-1.626 4.264-4.807-.512.414-1.085.763-1.706 1.039-.228 1.87-1.247 3.359-2.558 3.768z" fill="#7FB8E0"/><path d="M19.284 20.117c-.994.441-2.105.696-3.284.696v3.187l.203-.014c.179-.015.354-.047.524-.1 1.31-.41 2.329-1.899 2.557-3.769z" fill="#C1DDEE"/><path d="M12.716 20.117c-.621-.276-1.194-.625-1.706-1.039.101 3.181 2.825 4.452 4.264 4.807-1.311-.409-2.33-1.898-2.558-3.768z" fill="#8EC0E0"/><path d="M12.716 20.117c.228 1.87 1.247 3.359 2.558 3.768.17.053.345.085.524.1l.202.015v-3.188c-1.179 0-2.29-.254-3.284-.695z" fill="#D2E6F3"/><path d="M14.751 9.875l.249.125s-.007.506-.371.798c.088-.186.144-.433.144-.708l-.022-.215zM13.852 9.426c-.077.182-.129.408-.129.664 0 .399.116.734.282.909l-.005.001c-1 0-1-2-1-2l.852.426z" fill="#F7F7F7"/><path d="M13.852 9.426l.899.45.022.215c0 .275-.056.521-.144.708-.145.116-.341.2-.624.201-.165-.176-.282-.511-.282-.909 0-.257.052-.484.129-.665z" fill="#E85160"/><path d="M15.776 1.447l-1.776 3.553-3.329-1.665-.092-.025 3.421 1.711 1.926 3.853h.074v-7.565c-.089 0-.178.046-.224.138z" fill="#7FB8E0"/><path d="M18 5.021l3.421-1.71-.092.025-3.329 1.664-1.776-3.553c-.046-.092-.135-.138-.224-.138v7.564h.074l1.926-3.852z" fill="#71B1E1"/><path d="M16 10.309c-.089 0-.178.046-.224.138l-.696 1.392-.02.161h.94v-1.691z" fill="#E8BA36"/><path d="M16.94 12l-.02-.161-.696-1.392c-.046-.092-.135-.138-.224-.138v1.691h.94zM15.823 12.823c.049.049.113.073.177.073v-.896h-.94l.067.127.696.696z" fill="#E0B12E"/><path d="M16 12.896c.064 0 .128-.024.177-.073l.696-.696.067-.127h-.94v.896z" fill="#DBA728"/></g></svg>