<svg xmlns="http://www.w3.org/2000/svg" width="32" height="32" viewBox="0 0 32 32"><g><path d="M13.587 23.53c-1.262 1.022-2.451 5.408-.72 7.154.168.169.462.026.425-.21-.056-.362-.007-.794.409-1.083 0 0-.18 1.708 2.209 2.593l.09.016v-9.983s-.928.31-2.413 1.513z" fill="#EB6B48"/><path d="M18.298 29.392c.416.289.465.72.409 1.083-.036.235.258.379.425.21 1.731-1.746.542-6.132-.72-7.154-1.484-1.204-2.412-1.514-2.412-1.514v9.983l.09-.016c2.389-.885 2.208-2.592 2.208-2.592z" fill="#E55F4A"/><path d="M6.028 5.017l7 10h3v9.236l-8.785-3.893c-1.262-.631-2.144-1.786-2.419-3.167l-.442-2.21c-.041-.202-.196-.365-.396-.416l-.521-.13c-2.022-.506-3.436-2.315-3.436-4.4v-9.02l2.321 1.547 3.678 2.453z" fill="#EB6B48"/><path d="M.613 1.434c1.304.796 5.415 3.583 5.415 3.583l7 10v6l-4.891-2.445c-.7-.35-1.199-1.003-1.352-1.771l-.442-2.21c-.192-.961-.921-1.725-1.871-1.963l-.523-.131c-1.129-.282-1.921-1.296-1.921-2.46 0-.655-.253-1.284-.706-1.756l-.588-.612c-.453-.472-.706-1.101-.706-1.756l.022-4.989c.07.163.233.342.563.51z" fill="#FF805D"/><path d="M.613.434c1.104.566 4.719 2.617 5.978 3.334.292.166.549.377.77.63l6.383 7.295c.355-1.026.599-1.676.599-1.676l1.684.796v14.156s-2.704 2.359-4.567 0c-1.112-1.409.132-6.465 1.315-10.312l-6.43-9.186c-.21-.301-.472-.56-.776-.765-1.109-.749-3.919-2.64-4.956-3.272-1.063-.543-.529-1.216 0-1z" fill="#FFD96C"/><path d="M25.972 5.017l-7 10h-3v9.236l8.785-3.892c1.262-.631 2.144-1.786 2.419-3.167l.442-2.21c.041-.202.196-.365.396-.416l.521-.13c2.022-.506 3.436-2.315 3.436-4.4v-9.021l-2.321 1.547-3.678 2.453z" fill="#E55F4A"/><path d="M31.387 1.434c-1.305.796-5.415 3.583-5.415 3.583l-7 10v6l4.891-2.445c.7-.35 1.199-1.003 1.352-1.771l.442-2.21c.192-.961.921-1.725 1.871-1.963l.523-.131c1.129-.282 1.921-1.296 1.921-2.46 0-.655.253-1.284.706-1.756l.587-.611c.453-.472.706-1.102.706-1.756l-.021-4.99c-.07.163-.233.342-.563.51z" fill="#F57552"/><path d="M16 10.812v14.156s-2.704 2.359-4.567 0l2.883-14.951 1.684.795z" fill="#FFD96C"/><path d="M31.387.434c-1.104.566-4.719 2.617-5.978 3.334-.292.166-.549.377-.77.63l-6.383 7.295c-.355-1.026-.599-1.676-.599-1.676l-1.684.796v14.156s2.704 2.359 4.567 0c1.112-1.409-.132-6.465-1.315-10.312l6.43-9.186c.211-.301.473-.559.778-.765 1.109-.749 3.919-2.64 4.956-3.272 1.061-.543.527-1.216-.002-1z" fill="#FFD04D"/><path d="M21.5 25.017h-1.5v-1h-1v3.5c0 .276.224.5.5.5s.5-.224.5-.5v-.793l.543.543c.195.195.512.195.707 0 .195-.195.195-.512 0-.707l-.543-.543h.793c.276 0 .5-.224.5-.5s-.224-.5-.5-.5z" fill="#96643B"/><path d="M12 24.017v1h-1.5c-.276 0-.5.224-.5.5s.224.5.5.5h.793l-.543.543c-.195.195-.195.512 0 .707.195.195.512.195.707 0l.543-.543v.793c0 .276.224.5.5.5s.5-.224.5-.5v-3.5h-1z" fill="#9E6E43"/><path d="M13 10.017c0 2.209 1.343 4 3 4v-8c-1.657 0-3 1.791-3 4z" fill="#FFE28A"/><path d="M19 10.017c0-2.209-1.343-4-3-4v8c1.657 0 3-1.791 3-4z" fill="#FFD96C"/><path d="M18.965 5.699c-.749 1.119-1.799 1.818-2.965 1.818v1.501c1.519 0 2.761-1.019 2.959-2.337l.033-.294.008-.069-.003-.028c.006-.162-.004-.366-.032-.591z" fill="#F57552"/><path d="M16 7.517c-1.142 0-2.174-.668-2.92-1.746-.044.177-.08.357-.08.547 0 1.491 1.343 2.7 3 2.7v-1.501zM16.96 2.746c-.411-.261-.72-.5-.96-.721v5.491c1.166 0 2.216-.699 2.965-1.817l-.008-.08c-.122-.829-.572-1.969-1.997-2.873z" fill="#FF805D"/><path d="M16 7.517v-5.491c-.712-.656-.752-1.141-.597-1.47.092-.195-.083-.408-.29-.35-.241.067-.487.15-.673.243-.446.253-.833.607-1.138 1.039-.185.331-.302.733-.302 1.229 0 .979.34 1.562.684 1.904-.294.325-.502.712-.606 1.135l.003.015c.745 1.077 1.777 1.746 2.919 1.746z" fill="#FF8D6E"/><path d="M18.179 9.371c-.141.094-.27.235-.392.391.157.304.254.718.254 1.177l-.016.308c.286-.15.429-.381.429-.381s.214-1.061-.275-1.495z" fill="#F7F7F7"/><path d="M17.786 9.761l-.157.22.023.327c0 .426-.1.772-.223.772-.082 0-.151-.161-.19-.39-.15.324-.239.576-.239.576.45.175.786.105 1.024-.019l.016-.308c0-.459-.097-.874-.254-1.178z" fill="#4390BF"/><path d="M17.429 11.08c.123 0 .223-.345.223-.772l-.023-.327c-.155.235-.287.488-.39.709.04.229.108.39.19.39z" fill="#2B3332"/><path d="M13.821 9.371c.141.094.27.235.392.391-.157.304-.254.718-.254 1.177l.016.308c-.286-.15-.429-.381-.429-.381s-.214-1.061.275-1.495z" fill="#fff"/><path d="M14.214 9.761l.157.22-.023.327c0 .426.1.772.223.772.082 0 .151-.161.19-.39.151.324.24.575.24.575-.45.175-.786.105-1.024-.019l-.016-.308c-.001-.458.096-.873.253-1.177z" fill="#4896C8"/><path d="M14.571 11.08c-.123 0-.223-.345-.223-.772l.023-.327c.155.235.287.488.39.709-.04.229-.108.39-.19.39z" fill="#373F3F"/><path d="M16 11.119c-.064 0-.128.024-.177.073l-.729.729-.058.095h.964v-.897z" fill="#A7794C"/><path d="M16.964 12.015l-.058-.095-.729-.729c-.049-.049-.113-.073-.177-.073v.896h.964zM15.026 12.146l.729 3.643c.027.134.136.201.245.201v-3.975h-.964l-.01.131z" fill="#9E6E43"/><path d="M16 15.99c.109 0 .218-.067.245-.201l.729-3.643-.01-.131h-.964v3.975z" fill="#96643B"/></g></svg>