<svg xmlns="http://www.w3.org/2000/svg" width="32" height="32" viewBox="0 0 32 32"><g><path d="M22 6.5c0-3.038-2.686-5.5-6-5.5v1c.552 0 1 .448 1 1s-.448 1-1 1v2c1.981 0 3.614 1.082 3.933 2.5.037.163.067.329.067.5 0 1.657-1.791 3-4 3 3.314 0 6-2.462 6-5.5z" fill="#8EC0E0"/><path d="M12 9c0-.171.03-.337.067-.5.319-1.418 1.952-2.5 3.933-2.5v-2c-.552 0-1-.448-1-1s.448-1 1-1v-1c-3.314 0-6 2.462-6 5.5s2.686 5.5 6 5.5c-2.209 0-4-1.343-4-3z" fill="#9FC9E4"/><path d="M28.354 23.173c-.543-1.217-1.427-2.075-2.295-2.65-1.77-1.15-3.562-1.474-5.243-1.594-.274-.017-.541-.015-.811-.017v-8.325c-1.063.876-2.464 1.413-4.005 1.413-1.536 0-2.934-.534-3.995-1.405v10.935l-.36.241c-2.314 1.638-4.14 3.296-5.747 4.082-.397.195-.771.328-1.117.397l-.255.042-.079.013.049.002-.045.003-.175.007-.343.014-.2-.01c-.596-.01-1.128-.215-1.519-.466-.802-.534-1.107-1.2-1.094-1.128-.069-.306-.373-.497-.679-.428-.306.069-.497.373-.428.679.01.024.004.245.105.632.105.38.286.96.784 1.583.499.613 1.317 1.254 2.453 1.517l.455.096.341.047.174.024.055.008.082.003h.029l.115.001.466-.007c.627-.033 1.254-.167 1.855-.362 1.952-.638 3.642-1.793 5.397-2.858.068.825.302 1.702.66 2.458.358.743.881 1.478 1.588 2.089.698.615 1.586 1.104 2.555 1.369l.474.112.552.107c.353.057.71.1 1.07.127 1.441.095 2.924.004 4.571-.473.824-.252 1.699-.584 2.65-1.267.471-.347.969-.802 1.399-1.438l.155-.249.074-.129.036-.065.07-.134.099-.229c.104-.237.267-.648.329-.904.346-1.159.308-2.656-.252-3.863zm-5.249 2.117l-.049.036c-.223.14-.492.146-.744.183-.742.109-1.62.06-2.305-.091l-.002-.003v-1.958l.293.044c1.141.208 2.206.656 2.732 1.162.098.094.168.246.179.379.009.103-.031.186-.104.248z" fill="#7FB8E0"/><path d="M10 6.5c0-1.51.665-2.878 1.74-3.872l-4.36-2.591c-.215-.129-.464.102-.352.325l1.616 3.225-.57.821c-.098.097-.098.255 0 .353l.926.822v3.167c0 .247.321.344.458.138l.662-1.289c-.078-.355-.12-.722-.12-1.099z" fill="#D2E6F3"/><path d="M12.067 8.5c-.037.163-.067.329-.067.5 0 1.657 1.791 3 4 3v-1c-1.981 0-3.614-1.082-3.933-2.5z" fill="#F7F7F7"/><path d="M12.067 8.5c.319 1.418 1.952 2.5 3.933 2.5v-5c-1.981 0-3.614 1.082-3.933 2.5z" fill="#fff"/><path d="M15 3c0 .552.448 1 1 1v-2c-.552 0-1 .448-1 1z" fill="#E2EFF7"/><path d="M24.611.037l-4.354 2.588c1.077.994 1.743 2.363 1.743 3.875 0 .381-.042.753-.123 1.112l.656 1.276c.137.205.458.108.458-.138v-3.167l.927-.821c.098-.097.098-.255 0-.353l-.57-.821 1.616-3.225c.111-.224-.139-.455-.353-.326z" fill="#C1DDEE"/><path d="M20 9c0-.171-.03-.337-.067-.5-.319 1.418-1.952 2.5-3.933 2.5v1c2.209 0 4-1.343 4-3z" fill="#EDEEEE"/><path d="M19.933 8.5c-.319-1.418-1.952-2.5-3.933-2.5v5c1.981 0 3.614-1.082 3.933-2.5z" fill="#F7F7F7"/><path d="M17 3c0-.552-.448-1-1-1v2c.552 0 1-.448 1-1z" fill="#D2E6F3"/><path d="M13.466 6.081c-.064-.759-.271-1.963-.949-1.963-.538 0-.803.703-.926 1.445.289.561.84.99 1.875.518z" fill="#373F3F"/><path d="M12.108 6.988l.98-.214c.243-.053.409-.274.393-.523l-.014-.171c-1.036.472-1.587.043-1.875-.518-.053.32-.083.647-.091.928-.011.325.29.567.607.498z" fill="#4896C8"/><circle cx="12.529" cy="4.844" r=".5" fill="#fff"/><path d="M18.515 6.081c.064-.759.271-1.963.949-1.963.538 0 .803.703.926 1.445-.288.561-.839.99-1.875.518z" fill="#2B3332"/><path d="M19.874 6.988l-.98-.214c-.243-.053-.409-.274-.393-.523l.014-.171c1.036.472 1.587.043 1.875-.518.053.32.083.647.091.928.01.325-.29.567-.607.498z" fill="#4390BF"/><circle cx="19.453" cy="4.844" r=".5" fill="#F7F7F7"/><path fill="#DCF2FD" d="M20 10.591l-.011.01.011-.004z"/><path d="M28.354 23.173c-.543-1.217-1.427-2.075-2.295-2.65-1.77-1.15-3.562-1.474-5.243-1.594-.274-.017-.541-.015-.811-.017l-.002 1.644c4.106.437 7.89 3.519 5.372 6.038-3.547 3.547-9.375.968-9.375-1.026v-13.568c-1.536 0-2.934-.534-3.995-1.405v10.935l-.36.241c-2.314 1.638-4.14 3.296-5.747 4.082-.397.195-.771.328-1.117.397l-.255.042-.079.013.049.002-.045.003-.175.007-.343.014-.2-.01c-.596-.01-1.128-.215-1.519-.466-.802-.534-1.107-1.2-1.094-1.128-.069-.306-.373-.497-.679-.428l-.106.047c.352 1.531 1.482 3.028 3.976 3.091 1.926.048 4.542-1.576 7.812-3.781.046.702.11 1.4.199 2.003.068.825.302 1.702.66 2.458.358.743.881 1.478 1.588 2.089.698.615 1.586 1.104 2.555 1.369l.474.112.552.107c.353.057.71.1 1.07.127 1.441.095 2.924.004 4.571-.473.824-.252 1.699-.584 2.65-1.267.471-.347.969-.802 1.399-1.438l.155-.249.074-.129.036-.065.07-.134.099-.229c.104-.237.267-.648.329-.904.348-1.156.31-2.653-.25-3.86z" fill="#8EC0E0"/><path d="M14 15v14.672c1 1.069 2 1.479 2 1.479v-18.151c-1.105 0-2 .895-2 2z" fill="#fff"/><path d="M16 13v18.151c.576.355 2 .624 2 .624v-16.775c0-1.105-.895-2-2-2z" fill="#F7F7F7"/></g></svg>