<svg xmlns="http://www.w3.org/2000/svg" width="32" height="32" viewBox="0 0 32 32"><path d="M16 9.002l-7.55-7.552c-1.933-1.933-5.067-1.933-7 0-1.933 1.933-1.933 5.067 0 7l2.5 2.5v2.515c0 1.591.632 3.117 1.757 4.243 2.343 2.343 6.142 2.343 8.485 0l1.808-1.809v-6.897z" fill="#909997"/><path d="M16 9.002l7.55-7.553c1.933-1.933 5.067-1.933 7 0 1.933 1.933 1.933 5.067 0 7l-2.5 2.5v2.515c0 1.591-.632 3.117-1.757 4.243-2.343 2.343-6.142 2.343-8.485 0l-1.808-1.808v-6.897z" fill="#838C8A"/><path d="M8.253 28.52l-2.156-12.938c-.051-.305.184-.582.493-.582h3.82c.309 0 .544.277.493.582l-2.156 12.938c-.047.279-.447.279-.494 0z" fill="#F7F7F7"/><path d="M23.253 28.52l-2.156-12.938c-.051-.305.184-.582.493-.582h3.82c.309 0 .544.277.493.582l-2.156 12.938c-.047.279-.447.279-.494 0z" fill="#EDEEEE"/><path d="M13 13l.017-.167-4.373-1.312c-.15-.045-.315-.017-.442.078s-.202.243-.202.401v3h1v-2.328l4.159 1.248c-.096-.291-.159-.596-.159-.92z" fill="#373F3F"/><path d="M23.798 11.599c-.127-.095-.292-.123-.442-.078l-4.373 1.312.017.167c0 .324-.063.629-.159.92l4.159-1.248v2.328h1v-3c0-.158-.075-.307-.202-.401z" fill="#2B3332"/><path d="M18.221 15h-2.221v10.822h.631c.579 0 1.166-.097 1.678-.368 1.784-.945 2.691-3.029 2.691-5.454 0-2.343-1.113-4.012-2.779-5z" fill="#FFD04D"/><path d="M16 15h-2.221c-1.666.988-2.779 2.657-2.779 5 0 2.425.907 4.509 2.691 5.454.512.271 1.099.368 1.678.368h.631v-10.822z" fill="#FFD96C"/><path d="M16 10c-1.657 0-3 1.343-3 3 0 .772.3 1.468.779 2h2.221v-5z" fill="#FFD04D"/><path d="M16 10v5h2.221c.479-.532.779-1.228.779-2 0-1.657-1.343-3-3-3z" fill="#F7C845"/><path d="M16 17h-4.24c-.348.575-.576 1.253-.688 2h4.928v-2z" fill="#373F3F"/><path d="M16 17h4.24c.348.575.576 1.253.688 2h-4.928v-2z" fill="#2B3332"/><path d="M16 21h-4.946c.079.72.244 1.392.497 2h4.449v-2z" fill="#373F3F"/><path d="M15.999 21h4.946c-.079.72-.244 1.392-.497 2h-4.449v-2z" fill="#2B3332"/><path d="M16 5.66c-2.209 0-4 1.791-4 4 0 1.74 2.482 3.221 3.536 3.771.147.076.305.115.464.115v-7.886z" fill="#FFD96C"/><path d="M16.464 13.431c1.054-.55 3.536-2.031 3.536-3.771 0-2.209-1.791-4-4-4v7.886c.159-.001.318-.039.464-.115z" fill="#FFD04D"/><path d="M14.477 9.74c.192 1.088-.638 2.143-1.13 2.23-.492.087-1.633-.621-1.825-1.709-.192-1.088.314-2.086 1.13-2.23.817-.144 1.633.621 1.825 1.709z" fill="#E85160"/><path d="M20.477 10.26c-.192 1.088-1.332 1.796-1.825 1.709-.492-.087-1.322-1.142-1.13-2.23s1.009-1.853 1.825-1.709c.816.144 1.322 1.143 1.13 2.23z" fill="#D84459"/><circle cx="12.5" cy="9.5" r=".5" fill="#fff"/><circle cx="19.5" cy="9.5" r=".5" fill="#F7F7F7"/><path d="M16.631 25.822h-.631v5.397c.105 0 .211-.063.243-.189l1.328-5.311c-.308.07-.624.103-.94.103z" fill="#F7C845"/><path d="M14.43 25.719l1.328 5.311c.032.126.137.189.243.189v-5.397h-.631c-.317 0-.633-.033-.94-.103z" fill="#FFD04D"/><path d="M13.777 6.335c.279-.187.588-.325.91-.437l-.711-2.217c-.048-.149-.163-.268-.311-.319-.148-.051-.312-.032-.442.056l-2.584 1.722c-.23.153-.292.464-.139.693.153.23.464.292.693.139l2.033-1.355.551 1.718z" fill="#373F3F"/><path d="M21.361 5.14l-2.584-1.723c-.13-.088-.295-.107-.442-.056-.148.052-.263.17-.311.319l-.711 2.217c.322.112.632.251.91.437l.551-1.719 2.033 1.355c.23.153.54.091.693-.139.153-.227.091-.538-.139-.691z" fill="#2B3332"/></svg>