<svg xmlns="http://www.w3.org/2000/svg" width="32" height="32" viewBox="0 0 32 32"><g><path d="M14.997 20.94l.22-.068.654-.232c.564-.214 1.372-.547 2.268-1.04.436-.254.913-.54 1.34-.892.424-.349.857-.742 1.141-1.188l.191-.338.048-.086.038-.091.095-.252c.104-.295.206-.614.312-.972.207-.701.418-1.441.697-2.18.281-.737.619-1.485 1.136-2.164.5-.673 1.292-1.279 2.176-1.398l.634-.038.545.055c.382.06.78.17 1.107.312.678.293 1.231.767 1.605 1.289.37.527.596 1.084.684 1.599.097.513.124.776.107 1.17-.015.393-.045.724-.088.95l-.059.359-.018.203c-.058.643-.627 1.118-1.271 1.059-.643-.058-1.118-.627-1.059-1.271.038-.424.3-.775.657-.948l.173-.123c.114-.084.265-.239.372-.484.128-.24.189-.374.157-.757-.043-.377-.15-.819-.431-1.204-.269-.39-.69-.714-1.207-.884-.271-.09-.515-.126-.799-.152l-.471-.004-.398.066c-1.029.249-1.626 1.539-1.975 2.877-.181.677-.31 1.388-.446 2.11-.065.354-.137.74-.229 1.136l-.065.261-.046.162-.059.158c-.083.206-.154.428-.255.616-.386.786-.909 1.373-1.411 1.898-.507.525-1.033.923-1.514 1.303-.977.722-1.84 1.219-2.456 1.552l-.73.374-.277.129c-.771.359-1.687.026-2.046-.745-.359-.771-.026-1.687.745-2.046l.185-.072.023-.009z" fill="#945BA0"/><path d="M10.888 27.53c-.145-.319-.117-.705.105-1.006.105-.143.24-.249.391-.318.319-.145.705-.118 1.007.105l1.201.884c.445.327.54.954.212 1.397-.105.143-.24.249-.391.318-.319.145-.705.118-1.007-.105l-1.201-.884c-.142-.104-.248-.24-.317-.391zM10.888 27.53c-.145-.319-.117-.705.105-1.006.105-.143.24-.249.391-.318.319-.145.705-.118 1.007.105l1.201.884c.445.327.54.954.212 1.397-.105.143-.24.249-.391.318-.319.145-.705.118-1.007-.105l-1.201-.884c-.142-.104-.248-.24-.317-.391z" fill="#B8A5E4"/><path d="M12.98 18.366s-4.201 1.134-4.201 4.634c0 1.792 1.275 3.436 1.722 3.735l-1.58 3.383c-.23.835.404 1.666 1.41 1.847 1.069.192 2.103-.428 2.223-1.334l.736-6.382.763-.75-1.073-5.133z" fill="#C6B7E9"/><path d="M16 11.688v13.594s-3 .406-3-3.625-1.13-5.281.181-6.75 1.717-3.103.809-5.438c-.645-1.66 2.01 2.219 2.01 2.219z" fill="#D4C9EF"/><path d="M12.621 1.207l-1.061-1.061c-.195-.195-.512-.195-.707 0l-.707.707c-.195.195-.195.512 0 .707l1.061 1.061.663 1.37 2.121-2.121-1.37-.663z" fill="#E3DBF4"/><path d="M16 25.999s-3 .178-3-3.566l3-4.433v7.999z" fill="#B370B9"/><path d="M12.673 15.068c.429-.349.493-.979.146-1.407-.349-.429-.978-.495-1.407-.146l-5.334 4.334c-.164.134-.281.316-.336.521 0 0-1.3 5.015-1.304 5.085-.667 1.379-.286 2.595.116 3.143l.164.175c.341.286.844.311 1.215.031.098-.074.178-.164.241-.263.167.004.338-.035.496-.122.478-.265.653-.872.393-1.358-.136-.254-.18-.627-.176-.995l.419.077c.364.068.717-.078.937-.348.104-.128.178-.283.209-.457.098-.542-.257-1.064-.792-1.162l-.816-.151.749-2.829 5.08-4.128z" fill="#D4C9EF"/><path d="M10.313 15.156l1.977 1.514c.28.214.623.33.976.33h.816c.528 0 1.015-.285 1.273-.746l.645-.15v-3.104h-3.813c-.638 0-1.249.253-1.7.703l-.252.252c-.343.342-.306.906.078 1.201z" fill="#E3DBF4"/><path d="M21.111 27.53c.145-.319.117-.705-.105-1.006-.105-.143-.24-.249-.391-.318-.319-.145-.705-.118-1.007.105l-1.201.884c-.445.327-.54.954-.212 1.397.105.143.24.249.391.318.319.145.705.118 1.007-.105l1.201-.884c.142-.104.249-.24.317-.391z" fill="#A78EDD"/><path d="M27.562 23.454c-.003-.07-1.304-5.085-1.304-5.085-.055-.205-.172-.387-.336-.521l-5.334-4.334c-.43-.349-1.059-.283-1.407.146-.348.428-.283 1.058.146 1.407l5.081 4.128.749 2.829-.816.151c-.535.098-.89.62-.792 1.162.031.174.105.33.209.457.22.27.573.415.937.348l.419-.077c.004.369-.039.741-.176.995-.26.485-.085 1.093.393 1.358.158.087.328.126.496.122.063.099.143.188.241.263.371.28.874.255 1.215-.031l.164-.175c.401-.548.783-1.764.115-3.143z" fill="#C6B7E9"/><path d="M21.498 26.735c.448-.3 1.722-1.943 1.722-3.735 0-3.5-4.201-4.634-4.201-4.634l-1.074 5.134.763.75.736 6.382c.121.906 1.155 1.526 2.223 1.334 1.005-.181 1.64-1.011 1.41-1.847l-1.579-3.384z" fill="#B8A5E4"/><path d="M16 11.688v13.594s3 .406 3-3.625 1.13-5.281-.181-6.75-1.717-3.103-.809-5.438c.645-1.66-2.01 2.219-2.01 2.219z" fill="#C6B7E9"/><path d="M16 25.999s3 .178 3-3.566l-3-4.433v7.999z" fill="#A366AD"/><path d="M21.686 15.156l-1.976 1.514c-.28.214-.623.33-.976.33h-.816c-.528 0-1.015-.285-1.273-.746l-.645-.15v-3.104h3.813c.638 0 1.249.253 1.7.703l.252.252c.342.342.305.906-.079 1.201zM21.845.854l-.707-.707c-.195-.195-.512-.195-.707 0l-1.061 1.06-1.37.663 2.121 2.121.663-1.37 1.061-1.061c.195-.195.195-.511 0-.706z" fill="#D4C9EF"/><path d="M16 9.999v-8.999s-2.739.063-3.612.75c-.86.677-1.37 3.176-1.385 6.118l-.003.132c0 .113.02.232.049.352.87.577 1.851 1.01 2.959 1.084.624.042 1.287.559 1.992.563z" fill="#F1EDFA"/><path d="M15.991 12l-.015-.001.015.001z" fill="#4B7E77"/><path d="M20.997 7.876c-.014-2.945-.524-5.448-1.385-6.126-.873-.687-3.612-.75-3.612-.75v9c.707 0 1.373-.522 2-.565 1.105-.076 2.085-.515 2.956-1.099.027-.115.044-.228.044-.336l-.003-.124z" fill="#E3DBF4"/><path d="M16 10v2c1.862 0 4.589-2.108 4.956-3.664-.871.584-1.851 1.023-2.956 1.099-.627.043-1.293.565-2 .565z" fill="#D4C9EF"/><path fill="#56C7CD" d="M16 10l-.009-.001v2.0010000000000003h.009v-1.219z"/><path d="M16 9.999c-.705-.004-1.368-.52-1.991-.562-1.109-.074-2.09-.507-2.96-1.084.381 1.551 3.08 3.636 4.936 3.647h.015v-2.0010000000000003z" fill="#E3DBF4"/><path d="M18.276 7.261l1.117-2.178c.055-.107.205-.112.266-.009.212.363.539 1.138.182 2.067l-.099.093-1.166.379c-.212.069-.401-.154-.3-.352z" fill="#F7F7F7"/><path d="M19.075 5.704c.182.323.422.922.266 1.66l-.765.249c-.212.069-.402-.153-.3-.352l.799-1.557z" fill="#2B3332"/><path d="M13.723 7.261l-1.117-2.178c-.055-.107-.205-.112-.266-.009-.212.363-.539 1.138-.182 2.067l.099.093 1.166.379c.213.069.402-.154.3-.352z" fill="#fff"/><path d="M12.925 5.704c-.182.323-.422.922-.266 1.66l.765.249c.212.069.402-.153.3-.352l-.799-1.557z" fill="#373F3F"/></g></svg>