<svg xmlns="http://www.w3.org/2000/svg" width="32" height="32" viewBox="0 0 32 32"><path d="M16 9c-6.075 0-11 4.925-11 11 0 2.851 1.084 5.448 2.863 7.402.191.21.525.209.726.009l7.411-7.411v-11z" fill="#E8BA36"/><path d="M16 9c6.075 0 11 4.925 11 11 0 2.851-1.084 5.448-2.863 7.402-.191.21-.525.209-.726.009l-7.411-7.411v-11z" fill="#E0B12E"/><path d="M23.959 19.195c-.227-2.277-1.413-4.268-3.144-5.575-.21-.159-.259-.454-.113-.673l1.298-1.947-6-2v19c4.418 0 8-3.582 8-8 0-.272-.014-.54-.041-.805z" fill="#FFD96C"/><path d="M10 11l1.298 1.947c.146.219.097.514-.113.673-1.731 1.308-2.917 3.298-3.144 5.575-.027.265-.041.533-.041.805 0 4.418 3.582 8 8 8v-19l-6 2z" fill="#FFE28A"/><path d="M20.724 30.862l-1.724-.862v-2.587c-.631.256-1.301.431-2 .518v3.569c0 .276.224.5.5.5h3c.276 0 .5-.224.5-.5v-.191c0-.189-.107-.363-.276-.447z" fill="#EA9C7A"/><path d="M13 27.413v2.587l-1.724.862c-.169.084-.276.258-.276.447v.191c0 .276.224.5.5.5h3c.276 0 .5-.224.5-.5v-3.569c-.699-.087-1.369-.262-2-.518z" fill="#F4A984"/><path d="M16 24v4c4.418 0 8-3.582 8-8 0-.272-.014-.54-.041-.805-1.508 2.856-4.504 4.805-7.959 4.805z" fill="#FFD04D"/><path d="M8.041 19.195c-.027.265-.041.533-.041.805 0 4.418 3.582 8 8 8v-4c-3.455 0-6.451-1.949-7.959-4.805z" fill="#FFD96C"/><path d="M15 9.333v-.333l-5-3-.869 2.607c-.084.252-.064.526.054.763l.815 1.63 5-1.667z" fill="#373F3F"/><path d="M17 9.333v-.333l5-3 .869 2.607c.084.252.064.526-.054.763l-.815 1.63-5-1.667z" fill="#2B3332"/><path d="M15 9l-3-5-2.051-.684c-.391-.13-.763.242-.632.632l.683 2.052 5 3z" fill="#FFE28A"/><path d="M17 9l3-5 2.051-.684c.391-.13.763.242.632.632l-.683 2.052-5 3z" fill="#FFD96C"/><path d="M12 7.2v1.44c0 .341.334.582.658.474.204-.068.342-.259.342-.474v-.84l-1-.6z" fill="#fff"/><path d="M20 7.2v1.44c0 .341-.334.582-.658.474-.204-.068-.342-.259-.342-.474v-.84l1-.6z" fill="#F7F7F7"/><path d="M16.004 9h-1.004l-1.751 2.626c-.142.213-.1.498.096.661l2.335 1.946c.094.078.209.116.324.116v-5.349z" fill="#F4A984"/><path d="M17 9h-.996v5.349c.112-.001.225-.039.316-.116l2.335-1.946c.196-.164.238-.449.096-.661l-1.751-2.626z" fill="#EA9C7A"/><path d="M16.004.402c-.16-.001-.32.073-.42.222l-1.584 2.376-.509-.509c-.241-.241-.648-.175-.801.13l-.69 1.379 3 5h1.004v-8.598z" fill="#E8BA36"/><path d="M18.509 2.491l-.509.509-1.584-2.376c-.098-.147-.255-.221-.412-.222v8.598h.996l3-5-.69-1.38c-.152-.305-.559-.371-.801-.129z" fill="#E0B12E"/></svg>