<svg xmlns="http://www.w3.org/2000/svg" width="32" height="32" viewBox="0 0 32 32"><path fill="#FBCFD6" d="M20.28 27.191c-.756 1.322.072 3.203 1.851 4.202 1.778.999 3.833.738 4.589-.584.756-1.322-.072-3.203-1.851-4.202-1.778-.999-3.833-.738-4.589.584z"/><path fill="#FCD8DE" d="M11.72 27.191c.756 1.322-.072 3.203-1.851 4.202-1.778.999-3.833.738-4.589-.584-.756-1.322.072-3.203 1.851-4.202 1.778-.999 3.833-.738 4.589.584z"/><path fill="#FDE2E6" d="M23.115 7.127c.546-.544.885-1.295.885-2.127 0-1.657-1.343-3-3-3-.496 0-.956.132-1.368.344-.63-1.38-2.015-2.344-3.632-2.344v31c7.18 0 13-5.82 13-13 0-4.552-2.343-8.551-5.885-10.873z"/><path fill="#FDECEF" d="M12.368 2.344c-.412-.212-.872-.344-1.368-.344-1.657 0-3 1.343-3 3 0 .832.339 1.583.885 2.127-3.542 2.322-5.885 6.321-5.885 10.873 0 7.18 5.82 13 13 13v-31c-1.617 0-3.002.964-3.632 2.344z"/><circle fill="#F3586F" cx="10" cy="16" r="3"/><circle fill="#E85160" cx="22" cy="16" r="3"/><circle fill="#373F3F" cx="10" cy="16" r="2"/><circle fill="#fff" cx="9" cy="15" r="1"/><circle fill="#2B3332" cx="22" cy="16" r="2"/><circle fill="#F7F7F7" cx="21" cy="15" r="1"/><path fill="#E85160" d="M16 20h-1.123c-.219 0-.387.163-.376.356.037.655.253 1.644 1.499 1.644v-2z"/><path fill="#D84459" d="M17.123 20h-1.123v2c1.246 0 1.462-.989 1.499-1.644.012-.193-.157-.356-.376-.356z"/><path fill="#FCD8DE" d="M16 27v4c7.111 0 12.88-5.711 12.99-12.796-2.067 5.153-7.099 8.796-12.99 8.796z"/><path fill="#FDE2E6" d="M3.01 18.204c.11 7.085 5.879 12.796 12.99 12.796v-4c-5.891 0-10.923-3.643-12.99-8.796z"/><path fill="#FDECEF" d="M5 15s-5 0-5 2l5 3v-5z"/><path fill="#FDE2E6" d="M27 15s5 0 5 2l-5 3v-5z"/><path fill="#373F3F" d="M16 9.025v.525c-.427.114-.75.487-.75.949v.25c0 .414.336.75.75.75v.501c-.689 0-1.25-.561-1.25-1.25v-.25c0-.742.542-1.355 1.25-1.475zm0 3.475c-.965 0-1.75-.785-1.75-1.75v-.25c0-1.017.766-1.85 1.75-1.975v-.5c-1.26.128-2.25 1.182-2.25 2.475v.25c0 1.241 1.009 2.25 2.25 2.25v-.5z"/><path fill="#2B3332" d="M18.25 10.75v.25c0 1.103-.897 2-2 2h-.25v-.5h.25c.827 0 1.5-.673 1.5-1.5v-.25c0-.689-.561-1.25-1.25-1.25h-.25l-.25.051v-.526l.25-.025h.25c.965 0 1.75.785 1.75 1.75zm-1.75-2.5c0-.138-.112-.25-.25-.25l-.25.025v.5l.25-.025c.138 0 .25-.112.25-.25zm-.25 3.25h-.25v.5h.25c.551 0 1-.449 1-1v-.25c0-.414-.336-.75-.75-.75-.138 0-.25.112-.25.25s.112.25.25.25.25.112.25.25v.25c0 .276-.224.5-.5.5z"/></svg>