<svg xmlns="http://www.w3.org/2000/svg" width="32" height="32" viewBox="0 0 32 32"><path d="M19.839 22s3.732 2.799 4.887 8.396c.064.309-.181.604-.496.604h-3.056c-.196 0-.372-.109-.452-.288-.357-.793-1.602-3.05-4.722-4.516l3.839-4.196z" fill="#945BA0"/><path d="M12.161 22s-3.732 2.799-4.887 8.396c-.064.309.181.604.496.604h3.056c.196 0 .372-.109.452-.288.357-.793 1.602-3.05 4.722-4.516l-3.839-4.196z" fill="#A366AD"/><path d="M16 0h-.409c-.863 0-1.548.727-1.497 1.588l.906 15.412h1v-17z" fill="#B370B9"/><path d="M16.939 0h-.939v17h1l.938-15.941c.033-.575-.423-1.059-.999-1.059zM22 23s3.732 2.799 4.887 8.396c.064.309-.181.604-.496.604h-3.056c-.196 0-.372-.109-.452-.288-.357-.793-1.602-3.05-4.722-4.516l3.839-4.196z" fill="#A366AD"/><path d="M10 23s-3.732 2.799-4.887 8.396c-.064.309.181.604.496.604h3.056c.196 0 .372-.109.452-.288.357-.793 1.602-3.05 4.722-4.516l-3.839-4.196z" fill="#B370B9"/><path d="M11.536 19.536s-5.118 1.953-7.071 0-1.953-6.118 0-8.071 4.118.047 6.071 2l1 6.071z" fill="#C27BC6"/><path d="M7.165 18.903c-.781 0-1.363-.152-1.64-.428-.641-.642-1.025-1.754-1.025-2.975s.384-2.333 1.025-2.975c.359-.36.591-.36.678-.36.912 0 2.447 1.535 3.271 2.36.858.859.861 2.692.729 3.869-.761.224-1.946.509-3.038.509z" fill="#F6B392"/><path d="M20.464 19.536s5.118 1.953 7.071 0 1.953-6.118 0-8.071-4.118.047-6.071 2l-1 6.071z" fill="#B370B9"/><path d="M24.835 18.903c-1.092 0-2.278-.286-3.038-.509-.133-1.175-.131-3.01.729-3.869.824-.825 2.359-2.36 3.271-2.36.087 0 .318 0 .678.36.642.642 1.025 1.754 1.025 2.975s-.384 2.333-1.025 2.975c-.277.276-.859.428-1.64.428z" fill="#F4A984"/><path d="M23 21c0-3.866-3.134-6-7-6v13c3.866 0 7-3.134 7-7z" fill="#C27BC6"/><path d="M16 15c-3.866 0-7 2.134-7 6s3.134 7 7 7v-13z" fill="#D285D2"/><path d="M19 21.5l1.508-3.017c.198-.396.771-.361.919.055.272.768.573 1.865.573 2.962h-3z" fill="#F7F7F7"/><path d="M19 21.5h2c0-1.069-.286-2.133-.552-2.897l-1.448 2.897z" fill="#D84459"/><path d="M13 21.5l-1.508-3.017c-.198-.396-.771-.361-.919.055-.272.768-.573 1.865-.573 2.962h3z" fill="#fff"/><path d="M11 21.5h2l-1.448-2.897c-.266.764-.552 1.828-.552 2.897z" fill="#E85160"/><path d="M16 23l-.884-.001c-.684-.001-1.309-.388-1.615-1v-.001c-.307-.614-.934-1.001-1.62-1l-.886.002c-1.655.003-2.995 1.345-2.995 3 0 1.657 1.343 3 3 3l2.414 2.414c.375.375.884.586 1.414.586h1.172v-7z" fill="#FDEBBB"/><path d="M16 23h.882c.685 0 1.312-.387 1.618-1.001.307-.614.934-1.002 1.621-1.001l.884.002c1.655.003 2.995 1.345 2.995 3 0 1.657-1.343 3-3 3l-2.414 2.414c-.375.375-.884.586-1.414.586h-1.172v-7z" fill="#FAE09F"/><path d="M17.18 29c.477 0 .887-.336.981-.804l.72-3.598c.061-.309-.175-.598-.491-.598h-2.39v5h1.18z" fill="#EA9C7A"/><path d="M13.839 28.196l-.72-3.598c-.061-.309.175-.598.491-.598h2.39v5h-1.18c-.477 0-.887-.336-.981-.804z" fill="#F4A984"/><path d="M14 24h2v3h-.64c-.215 0-.406-.138-.474-.342l-.886-2.658z" fill="#fff"/><path d="M18 24h-2v3h.64c.215 0 .406-.138.474-.342l.886-2.658z" fill="#F7F7F7"/><path d="M17 0h-1v6h1c.552 0 1-.448 1-1v-4c0-.552-.448-1-1-1z" fill="#C27BC6"/><path d="M16 0h-1c-.552 0-1 .448-1 1v4c0 .552.448 1 1 1h1v-6z" fill="#D285D2"/><path d="M22.496 23.876v-.001c-.071-.266.086-.54.353-.61 1.692-.443 7.265-1.87 7.374-1.46.11.41-5.429 1.96-7.117 2.423-.265.072-.538-.085-.61-.352z" fill="#DBA728"/><path d="M9.504 23.876v-.001c.071-.266-.086-.54-.353-.61-1.692-.443-7.265-1.87-7.374-1.46-.11.41 5.429 1.96 7.117 2.423.265.072.538-.085.61-.352z" fill="#E0B12E"/></svg>