<svg xmlns="http://www.w3.org/2000/svg" width="32" height="32" viewBox="0 0 32 32"><path fill="#E85160" d="M14 1l-1 1v-1z"/><path fill="#D84459" d="M18 1l1 1v-1z"/><path d="M31.963 18.091c-.156-.591-3.498-4.37-8.561-4.684h-.746l-.49.552c-.066.072-.169.099-.262.069l-1.343-.434.47 1.321c.033.093.009.197-.063.265l-.322.296 3.391.326c.072.007.143-.018.196-.067l.511-.484.605.975c.033.053.085.092.146.109l.54.15c.12.033.246-.027.296-.141l.267-.614.507.994c.029.057.079.101.14.122l.72.254c.135.048.282-.027.323-.165l.123-.415.63.969.126.099c.252.087 1.063.391 1.765.911.844.626 1.188.183 1.031-.408z" fill="#60C46F"/><path d="M11.032 15.18c-.072-.068-.096-.172-.063-.265l.47-1.321-1.343.434c-.093.03-.196.003-.262-.069l-.49-.552h-.746c-5.064.313-8.405 4.093-8.561 4.684s.188 1.034 1.031.409c.702-.52 1.513-.824 1.765-.911l.126-.099.63-.969.123.415c.041.137.188.212.323.164l.72-.254c.06-.021.11-.065.14-.122l.507-.994.267.614c.05.114.176.174.296.141l.54-.15c.061-.017.113-.056.146-.109l.605-.975.511.484c.052.05.124.074.196.067l3.391-.326-.322-.296z" fill="#6CD275"/><path d="M16 14c3.314 0 6-2.686 6-6v-.001c0-1.92-.763-3.762-2.121-5.119l-2.733-2.733c-.093-.094-.22-.147-.353-.147h-.793v14z" fill="#F3586F"/><path d="M19.662 29.604l.278 1.966c.035.247.246.43.495.43h3.134c.248 0 .458-.176.494-.422.217-1.511.937-6.71.937-9.578 0-4.418-3.477-8-9-8v16c1.424 0 2.623-.148 3.662-.396z" fill="#47A1B4"/><path d="M25 21c0-1.053-.307-2.048-.843-2.943l.487-2.921c.14-.841-.77-1.461-1.501-1.022l-1.954 1.173c-1.467-.808-3.255-1.287-5.189-1.287v14c6.878 0 9-3.134 9-7z" fill="#56C7CD"/><path d="M16 14c-5.523 0-9 3.582-9 8 0 2.868.72 8.067.938 9.578.036.246.246.422.494.422h3.134c.249 0 .46-.183.495-.43l.275-1.95c1.033.242 2.238.38 3.664.38v-16z" fill="#4CAEBC"/><path d="M16 14c-1.934 0-3.722.479-5.189 1.287l-1.954-1.173c-.731-.439-1.641.181-1.501 1.022l.487 2.921c-.536.895-.843 1.89-.843 2.943 0 3.866 2 7 9 7v-14z" fill="#5BD3D5"/><path d="M16 26v2c5.76 0 8.177-2.201 8.813-5.186-1.41 1.125-3.59 2.399-6.814 2.621-.626.043-1.292.565-1.999.565z" fill="#51BAC5"/><path d="M16 28v-2c-.708 0-1.374-.522-2-.563-3.242-.216-5.413-1.472-6.813-2.576.626 2.961 2.981 5.139 8.813 5.139z" fill="#56C7CD"/><path fill="#4CAEBC" d="M8.337 14.971l1.583.95-1.225 1.199z"/><path fill="#47A1B4" d="M23.663 14.971l-1.583.95 1.225 1.199z"/><path d="M17.954 22.278c.478-.919 1.534-2.473 3.46-3.2.153-.058.328-.036.46.061.26.19.675.619.967 1.528.3.934.114 1.65-.048 2.03-.079.186-.26.303-.462.303h-3.93c-.371 0-.619-.393-.447-.722z" fill="#F7F7F7"/><path d="M14.046 22.278c-.478-.919-1.534-2.473-3.46-3.2-.153-.058-.328-.036-.46.061-.26.19-.675.619-.967 1.528-.3.934-.114 1.65.048 2.03.079.186.26.303.462.303h3.93c.371 0 .619-.393.447-.722z" fill="#fff"/><path d="M21.793 22.697c.162-.38.348-1.097.048-2.03-.246-.766-.574-1.179-.828-1.407-1.667.779-2.616 2.167-3.059 3.018-.172.329.076.722.447.722h2.93c.202 0 .383-.117.462-.303z" fill="#D84459"/><path d="M14.046 22.278c-.443-.851-1.391-2.239-3.059-3.018-.254.229-.582.642-.828 1.407-.3.934-.114 1.65.048 2.03.079.186.26.303.462.303h2.93c.371 0 .619-.393.447-.722z" fill="#E85160"/><path d="M12.895 22.697c.156-.368.327-1.056.066-1.946-.358-.393-.775-.783-1.297-1.116-.175.243-.354.566-.504 1.032-.3.934-.114 1.65.048 2.03.078.186.259.303.461.303h.764c.202 0 .382-.117.462-.303z" fill="#373F3F"/><path d="M20.793 22.697c.162-.38.348-1.097.048-2.03-.149-.465-.329-.789-.504-1.032-.523.333-.94.723-1.297 1.116-.261.89-.091 1.578.066 1.946.079.186.259.303.461.303h.764c.202 0 .383-.117.462-.303z" fill="#2B3332"/><path d="M16 14c-3.314 0-6-2.686-6-6v-.001c0-1.92.763-3.762 2.121-5.119l2.733-2.733c.093-.094.22-.147.353-.147h.793v14z" fill="#FF5F7E"/><path d="M16 14h1c3.314 0 6-2.686 6-6 0-1.947-.632-3.842-1.8-5.4l-1.05-1.4c-.094-.126-.243-.2-.4-.2h-.75v4c0 3.246-1.053 6.404-3 9z" fill="#E85160"/><path d="M16 14h-1c-3.314 0-6-2.686-6-6 0-1.947.632-3.842 1.8-5.4l1.05-1.4c.094-.126.243-.2.4-.2h.75v4c0 3.246 1.053 6.404 3 9z" fill="#FF6B8B"/><path d="M9.182 13.219c.144.17.368.43.653.74.066.072.169.099.262.069l1.343-.434-.47 1.321c-.033.093-.009.197.063.265l.411.378c.079.071.195.084.288.033l1.315-.721-.371 1.506c-.024.099.013.204.095.263.21.153.424.3.639.435.097.061.225.046.307-.034l1.071-1.04.024 1.597c.002.107.07.203.172.235.346.107.687.168 1.016.168v-7s-3.793 0-6.762 1.847c-.128.079-.154.256-.056.372z" fill="#84ED82"/><path d="M22.818 13.219c-.144.17-.368.429-.652.74-.066.072-.169.099-.262.069l-1.343-.434.47 1.321c.033.093.009.197-.063.265l-.411.378c-.079.071-.195.084-.288.033l-1.315-.721.371 1.506c.024.099-.013.204-.095.263-.21.153-.424.3-.639.435-.097.061-.225.046-.307-.034l-1.072-1.04-.024 1.597c-.002.107-.07.203-.172.235-.346.107-.687.168-1.016.168v-7s3.792 0 6.761 1.846c.129.08.155.258.057.373z" fill="#78DF7C"/><path d="M12.336 29.62l-.195 1.38h.468c.229 0 .429-.156.485-.379l.205-.819c-.335-.052-.659-.111-.963-.182z" fill="#47A1B4"/><path d="M19.662 29.604c-.305.073-.629.134-.964.189l.207.829c.056.222.256.378.485.378h.468l-.196-1.396z" fill="#4295AC"/></svg>