<svg xmlns="http://www.w3.org/2000/svg" width="32" height="32" viewBox="0 0 32 32"><path d="M16 .618c-.178 0-.355.092-.447.276l-.553 1.106-.509-.51c-.241-.241-.648-.175-.801.13l-.69 1.38-.523-.523c-.237-.237-.637-.178-.795.118l-2.324 4.356c-2.348 3.517-3.358 8.754-3.358 13.049 0 7.18 2.82 10 10 10v-29.382z" fill="#E8BA36"/><path d="M26 20c0-4.274-1-9.483-3.324-13h.001l-2.359-4.406c-.158-.296-.557-.355-.794-.118l-.524.524-.69-1.38c-.153-.305-.559-.371-.801-.13l-.509.51-.553-1.106c-.092-.184-.27-.276-.447-.276v29.382c7.18 0 10-2.82 10-10zM12 28c-2.01 0-3.673 1.482-3.957 3.412-.045.308.187.588.497.588h4.962c.284 0 .508-.235.5-.519-.031-1.082-.291-3.481-2.002-3.481z" fill="#E0B12E"/><path d="M20 28c-1.711 0-1.971 2.399-2.002 3.481-.008.284.216.519.5.519h4.962c.311 0 .543-.28.497-.588-.284-1.93-1.947-3.412-3.957-3.412z" fill="#DBA728"/><path d="M16 12h-2c-1.657 0-3 1.343-3 3v1.579c-2.311.704-3.866 2.172-3.992 5.039-.16 3.649 2.702 6.728 6.323 7.201.908.119 1.801.173 2.668.172v-16.991z" fill="#FAE09F"/><path d="M21 16.579v-1.579c0-1.657-1.343-3-3-3h-2v16.992c4.969-.001 9-2.023 9-6.992 0-3.12-1.589-4.686-4-5.421z" fill="#F7D684"/><g fill="#F7F7F7"><path d="M14 13l1 3-1 3h2v-6zM18 13h-2v6h2l-1-3z"/></g><path d="M14 13l-1.63 2.445c-.224.336-.224.774 0 1.109l1.63 2.446 1-3-1-3z" fill="#F4A984"/><path d="M18 13l1.63 2.445c.224.336.224.774 0 1.109l-1.63 2.446-1-3 1-3z" fill="#EA9C7A"/><path d="M19.427 10.573l1.209-1.209c.212-.212.56-.192.747.042.242.304.523.762.598 1.312.02.149-.099.281-.25.281h-2.128c-.222.001-.334-.268-.176-.426z" fill="#F7F7F7"/><path d="M19.604 11h1.396c0-.605-.268-1.117-.527-1.473l-1.046 1.046c-.158.158-.046.427.177.427z" fill="#2B3332"/><path d="M12.573 10.573l-1.209-1.209c-.212-.212-.56-.192-.747.042-.242.304-.523.762-.598 1.312-.02.149.1.282.25.282h2.128c.222 0 .334-.269.176-.427z" fill="#fff"/><path d="M12.396 11h-1.396c0-.605.268-1.117.527-1.473l1.046 1.046c.158.158.046.427-.177.427z" fill="#373F3F"/><path d="M6 20c-2.03 0-2.862 1.512-2.984 3.471-.018.286.213.529.501.529h.276c.133 0 .26-.053.354-.146l.853-.854.646.646c.195.195.512.195.707 0l.647-.646.854.854c.093.093.22.146.353.146h.276c.287 0 .519-.243.501-.529-.122-1.959-.954-3.471-2.984-3.471z" fill="#FDEBBB"/><path d="M26 20c-2.03 0-2.862 1.512-2.984 3.471-.018.286.213.529.501.529h.276c.133 0 .26-.053.354-.146l.853-.854.646.646c.195.195.512.195.707 0l.647-.646.854.854c.093.093.22.146.353.146h.276c.287 0 .519-.243.501-.529-.122-1.959-.954-3.471-2.984-3.471z" fill="#FAE09F"/><path d="M31 15.011c0-.378-4.566-.47-6.798-.493 2.115-.588 6.621-1.888 6.522-2.258-.109-.409-5.645 1.007-7.351 1.454-.22.057-.373.256-.373.483v1.605c0 .227.153.426.373.484 1.706.447 7.241 1.863 7.351 1.454.098-.366-4.302-1.64-6.448-2.238 2.258-.023 6.724-.118 6.724-.491z" fill="#F0C877"/><path d="M9 14.197c0-.227-.153-.426-.373-.484-1.706-.447-7.241-1.863-7.351-1.454-.099.37 4.406 1.67 6.522 2.258-2.232.023-6.796.115-6.796.493 0 .374 4.464.468 6.723.492-2.146.598-6.546 1.872-6.448 2.238.109.409 5.645-1.007 7.351-1.454.219-.057.372-.256.372-.483v-1.606z" fill="#F7D684"/><path d="M31.396 1h-3.478c-2.855 0-5.312 2.012-5.879 4.809l.638 1.191h-.001c.776 1.174 1.392 2.546 1.884 4h.56c2.524 0 4.417-2.309 3.922-4.784l-.042-.216 1.646-1.646c.195-.195.195-.512 0-.707l-.646-.647 1.573-1.573c.158-.158.046-.427-.177-.427z" fill="#DBA728"/><path d="M7.44 11c.5-1.474 1.127-2.864 1.918-4.049l.605-1.133c-.564-2.802-3.024-4.818-5.882-4.818h-3.477c-.223 0-.335.269-.177.427l1.573 1.573-.646.646c-.195.195-.195.512 0 .707l1.646 1.647-.043.216c-.495 2.475 1.398 4.784 3.922 4.784h.561z" fill="#E0B12E"/></svg>