<svg xmlns="http://www.w3.org/2000/svg" width="32" height="32" viewBox="0 0 32 32"><path d="M16 9c-5.523 0-10 4.477-10 10 0 2.446.878 4.687 2.336 6.424.308.366.888.465 1.296.215l6.368-3.912v-12.727z" fill="#D64F45"/><path d="M16 9c5.523 0 10 4.477 10 10 0 2.446-.878 4.687-2.336 6.424-.308.366-.888.465-1.296.215l-6.368-3.912v-12.727z" fill="#D1473D"/><path d="M16 12c-4.418 0-7 3.582-7 8s2.582 8 7 8v-16z" fill="#FAE09F"/><path d="M23 20c0-4.418-2.582-8-7-8v16c4.418 0 7-3.582 7-8zM16 28v-4c-2.541 0-4.893-.795-6.833-2.142.627 3.521 3.056 6.142 6.833 6.142z" fill="#F7D684"/><path d="M16 24v4c3.777 0 6.206-2.621 6.833-6.142-1.94 1.347-4.292 2.142-6.833 2.142z" fill="#F0C877"/><path d="M16 3l-3.2-2.4c-.33-.247-.8-.012-.8.4v2l-4.095-.819c-.389-.078-.71.307-.562.676l1.657 4.143-.646.646c-.195.195-.195.512 0 .707l1.646 1.647-.509.509c-.241.241-.175.648.13.801l1.379.69-.638 1.276c-.166.333.075.724.447.724h1.191l-.684 2.051c-.13.391.242.763.632.632l2.052-.683 1.553 3.106c.092.184.27.276.447.276v-16.382z" fill="#B38658"/><path d="M16.447 19.106l1.553-3.106 2.051.684c.391.13.763-.242.632-.632l-.683-2.052h1.191c.372 0 .613-.391.447-.724l-.638-1.276 1.38-.69c.305-.153.371-.559.13-.801l-.51-.509 1.646-1.646c.195-.195.195-.512 0-.707l-.646-.647 1.657-4.143c.147-.369-.173-.754-.562-.676l-4.095.819v-2c0-.412-.47-.647-.8-.4l-3.2 2.4v16.382c.178 0 .355-.092.447-.276z" fill="#A7794C"/><path d="M14.328 7.876l-2.341-1.691c-.18-.13-.428.022-.393.242l.373 2.362c.019.122.124.211.247.211h1.632c.095 0 .181-.054.224-.138l.336-.672c.054-.11.021-.243-.078-.314z" fill="#fff"/><path d="M14.328 7.876l-1.328-.959v1.583c0 .276.224.5.5.5h.345c.095 0 .181-.054.224-.138l.336-.672c.055-.11.022-.243-.077-.314z" fill="#373F3F"/><path d="M17.672 7.876l2.341-1.691c.18-.13.428.022.393.242l-.373 2.362c-.019.122-.124.211-.247.211h-1.632c-.095 0-.181-.054-.224-.138l-.335-.672c-.055-.11-.022-.243.077-.314z" fill="#F7F7F7"/><path d="M17.672 7.876l1.328-.959v1.583c0 .276-.224.5-.5.5h-.345c-.095 0-.181-.054-.224-.138l-.336-.672c-.055-.11-.022-.243.077-.314z" fill="#2B3332"/><path d="M16 9h-.691c-.189 0-.363.107-.447.276l-.224.447c-.084.17-.258.277-.447.277h-.691c-.276 0-.5.224-.5.5v.167c0 .216.07.427.2.6l2.4 3.2c.1.133.25.2.4.2v-5.667z" fill="#F4A984"/><path d="M16.4 14.467l2.4-3.2c.13-.173.2-.384.2-.6v-.167c0-.276-.224-.5-.5-.5h-.691c-.189 0-.363-.107-.447-.276l-.224-.447c-.084-.17-.258-.277-.447-.277h-.691v5.667c.15 0 .3-.067.4-.2zM23.526 30.842l-2.526-.842-.699-3.493c-.556.464-1.191.834-1.902 1.089l.601 2.404-1.617.809c-.235.117-.383.357-.383.619v.072c0 .276.224.5.5.5h6c.276 0 .5-.224.5-.5v-.001c0-.298-.191-.563-.474-.657z" fill="#EA9C7A"/><path d="M14.617 30.809l-1.617-.809.601-2.405c-.711-.255-1.346-.625-1.902-1.089l-.699 3.494-2.526.842c-.283.094-.474.359-.474.657v.001c0 .276.224.5.5.5h6c.276 0 .5-.224.5-.5v-.072c0-.262-.148-.502-.383-.619z" fill="#F4A984"/></svg>