<svg xmlns="http://www.w3.org/2000/svg" width="32" height="32" viewBox="0 0 32 32"><path d="M18 20.267l4.825 7.205c.108.161.123.372.04.549l-.555 1.184c-.153.326-.559.396-.801.139l-1.509-1.611.863 2.761c.079.252-.028.527-.251.646l-1.096.585c-.272.145-.602 0-.698-.308l-.818-2.617v2.667c0 .294-.224.533-.5.533h-1.5v-11.733h2z" fill="#96643B"/><path d="M14 20.267l-4.825 7.205c-.108.161-.123.372-.04.549l.555 1.184c.153.326.559.396.801.139l1.509-1.611-.863 2.761c-.079.252.028.527.251.646l1.096.585c.272.145.602 0 .698-.308l.818-2.617v2.667c0 .294.224.533.5.533h1.5v-11.733h-2z" fill="#9E6E43"/><path d="M14.5 9.6l-.5 5.333h-3c-1.259 0-2.445-.632-3.2-1.707l-3.436-4.887-2.53 1.349 1.166 3.112-1.304-1.391-.196 2.458 1.5 1.066h-1.125l1.125 3.2h1l-.672.478 2.311 3.363 7.361-4.907 1 6.4h1l1-1.067v-12.8h-1.5z" fill="#A7794C"/><path d="M.681 15.319l1.181 2.519c.085.181.258.295.447.295h.691l-1.125-3.2h-.97c-.186 0-.307.209-.224.386zM4.364 8.339l-1.114-1.583c-.145-.206-.407-.272-.623-.157l-1.216.648c-.232.124-.337.418-.24.675l.662 1.767 2.531-1.35zM1.696 11.409l-1.269-1.354c-.158-.168-.427-.049-.427.189v2.271c0 .178.084.345.223.444l1.277.908.196-2.458zM3.328 18.611l-.365.26c-.247.176-.297.542-.107.785l1.865 2.387c.16.205.437.252.649.111l.27-.18-2.312-3.363z" fill="#FDEBBB"/><path d="M19.5 24.533h-1.5v-1.067h-1v3.734c0 .295.224.533.5.533s.5-.239.5-.533v-.846l.543.579c.195.208.512.208.707 0 .195-.208.195-.546 0-.754l-.543-.579h.793c.276 0 .5-.239.5-.533 0-.295-.224-.534-.5-.534z" fill="#EA9C7A"/><path d="M14 23.467v1.067h-1.5c-.276 0-.5.239-.5.533 0 .295.224.533.5.533h.793l-.543.579c-.195.208-.195.546 0 .754.195.208.512.208.707 0l.543-.579v.846c0 .295.224.533.5.533s.5-.239.5-.533v-3.733h-1z" fill="#F4A984"/><path d="M30.304 11.409l-1.304 1.391 1.167-3.111-2.53-1.349-3.437 4.887c-.755 1.074-1.941 1.707-3.2 1.707h-3l-.5-5.334h-1.5v12.8l1 1.067h1l1-6.4 7.36 4.907 2.311-3.363-.671-.478h1l1.125-3.2h-1.125l1.5-1.067-.196-2.457z" fill="#9E6E43"/><path d="M31.319 15.319l-1.181 2.519c-.085.181-.258.295-.447.295h-.691l1.125-3.2h.97c.186 0 .307.209.224.386zM27.636 8.339l1.113-1.583c.145-.206.407-.272.624-.157l1.215.648c.233.124.337.418.241.675l-.662 1.767-2.531-1.35zM30.304 11.409l1.269-1.354c.158-.168.427-.049.427.189v2.271c0 .178-.084.345-.223.444l-1.277.908-.196-2.458zM28.672 18.611l.365.26c.247.176.297.542.107.785l-1.865 2.387c-.16.205-.437.252-.649.111l-.27-.18 2.312-3.363z" fill="#FAE09F"/><path d="M16 6.222h-3v1.916c0 .254.097.499.27.684l2.73 2.911v-5.511z" fill="#B38658"/><path d="M16 11.733l2.73-2.912c.173-.185.27-.429.27-.683v-1.916h-3v5.511z" fill="#A7794C"/><path d="M15 7.467l-2-1.244.438 1.557c.04.141.132.258.255.324l.807.43.5-1.067z" fill="#fff"/><path d="M14.806 7.346l-1.306-.813.194.828c.035.151.131.277.261.347l.321.172c.124.066.274.013.336-.119l.194-.415z" fill="#373F3F"/><path d="M17 7.467l2-1.244-.438 1.557c-.04.141-.132.258-.255.324l-.807.429-.5-1.066z" fill="#F7F7F7"/><path d="M17.194 7.346l1.306-.813-.194.828c-.035.151-.131.277-.261.347l-.321.172c-.124.066-.274.013-.336-.119l-.194-.415z" fill="#2B3332"/><path d="M16 0h-.11c-.229 0-.429.167-.485.404l-.905 3.863-1.443-2.309c-.166-.265-.511-.317-.739-.111l-.078.07c-.147.133-.21.343-.161.542l.921 3.763 2 1.244h1v-7.466z" fill="#D64F45"/><path d="M16 0h.11c.229 0 .429.167.485.404l.905 3.863 1.443-2.309c.166-.265.511-.317.739-.111l.078.07c.147.133.21.343.161.542l-.921 3.763-2 1.244h-1v-7.466z" fill="#D1473D"/><path d="M16 7.467h-1l-.5 1.067 1.256 6.25c.028.141.136.211.244.211v-7.528z" fill="#F6B392"/><path d="M16.244 14.783l1.256-6.25-.5-1.066h-1v7.527c.108 0 .216-.07.244-.211z" fill="#F4A984"/></svg>