<svg xmlns="http://www.w3.org/2000/svg" width="32" height="32" viewBox="0 0 32 32"><path d="M19.682 18.318l10.816-6.181c.884-.505 1.87.48 1.364 1.364l-6.181 10.816-5.999-5.999z" fill="#F0C13E"/><path d="M19.682 18.318l10.816-6.181c.884-.505 1.87.48 1.364 1.364l-6.181 10.816-5.999-5.999z" fill="#E8BA36"/><path d="M30.498 12.137l-6.248 3.57c.575 1.94 2.103 3.467 4.042 4.042l3.57-6.248c.506-.883-.48-1.869-1.364-1.364z" fill="#F0C13E"/><path d="M30.498 12.137l-3.114 1.78c.507 1.219 1.48 2.192 2.699 2.699l1.78-3.114c.505-.884-.481-1.87-1.365-1.365zM23.838 20.753l1.429 2.148c1.406 2.114.513 4.987-1.845 5.93l-.422.169 1.632.544c.817.272 1.368 1.037 1.368 1.898v.058c0 .276-.224.5-.5.5h-6.5c-.552 0-1-.448-1-1v-4l5.838-6.247z" fill="#F7C845"/><path d="M18 27v4c0 .552.448 1 1 1h6.5c.276 0 .5-.224.5-.5v-.058c0-.861-.551-1.625-1.368-1.897l-1.632-.545.423-.169c1.628-.651 2.535-2.224 2.491-3.831h-6.044l-1.87 2z" fill="#F0C13E"/><path d="M18 31c0 .552.448 1 1 1h6.5c.276 0 .5-.224.5-.5v-.058c0-.861-.551-1.625-1.368-1.897l-1.632-.545h-5v2z" fill="#E8BA36"/><path d="M8.162 20.753l-1.429 2.148c-1.406 2.114-.513 4.987 1.845 5.93l.422.169-1.632.544c-.817.272-1.368 1.037-1.368 1.898v.058c0 .276.224.5.5.5h6.5c.552 0 1-.448 1-1v-4l-5.838-6.247z" fill="#FFD04D"/><path d="M8.577 28.831l.423.169-1.632.544c-.817.272-1.368 1.037-1.368 1.898v.058c0 .276.224.5.5.5h6.5c.552 0 1-.448 1-1v-4l-1.869-2h-6.044c-.044 1.607.862 3.18 2.49 3.831z" fill="#F7C845"/><path d="M9 29l-1.632.544c-.817.272-1.368 1.037-1.368 1.898v.058c0 .276.224.5.5.5h6.5c.552 0 1-.448 1-1v-2h-5z" fill="#F0C13E"/><path d="M16 11c-4.971 0-8 4.029-8 9s3.029 9 8 9v-18z" fill="#FDEBBB"/><path d="M24 20c0-4.971-3.029-9-8-9v18c4.971 0 8-4.029 8-9z" fill="#FAE09F"/><path d="M16 0c-4.418 0-8 4.582-8 9 0 2.891 4.213 5.111 6.102 6.41.559.384 1.218.59 1.897.59h.001v-16z" fill="#FFF3D9"/><path d="M16.001 16c.679 0 1.337-.206 1.896-.59 1.89-1.299 6.103-3.519 6.103-6.41 0-4.418-3.582-9-8-9v16h.001z" fill="#FDEBBB"/><path d="M22.849 4.611l1.098-3.293c.261-.782-.483-1.526-1.265-1.265l-3.073 1.024c-1.085-.672-2.309-1.077-3.609-1.077v9.91c.766 0 1.532-.176 2.236-.528l1.764-.882 1.33 4.564c1.433-1.132 2.67-2.499 2.67-4.064 0-1.508-.425-3.031-1.151-4.389z" fill="#FFD96C"/><path d="M12.391 1.077l-3.073-1.024c-.782-.261-1.526.483-1.265 1.265l1.098 3.293c-.726 1.358-1.151 2.881-1.151 4.389 0 1.565 1.237 2.932 2.67 4.064l1.33-4.564 1.764.882c.704.352 1.47.528 2.236.528v-9.91c-1.3 0-2.524.405-3.609 1.077z" fill="#FFE28A"/><path d="M8.107 9.755c.317 1.252 1.367 2.364 2.563 3.31l1.33-4.565 1.764.882c.704.352 1.47.528 2.236.528v-6.91c-3.994 0-7.294 2.929-7.893 6.755z" fill="#FFD96C"/><path d="M18.236 9.382l1.764-.882 1.33 4.564c1.197-.946 2.247-2.057 2.563-3.31-.599-3.825-3.899-6.754-7.893-6.754v6.91c.766 0 1.532-.176 2.236-.528z" fill="#FFD04D"/><path d="M16 29v-4c-2.903 0-5.574-.963-7.737-2.571.827 3.789 3.609 6.571 7.737 6.571z" fill="#FAE09F"/><path d="M16 25v4c4.128 0 6.91-2.782 7.737-6.571-2.163 1.608-4.834 2.571-7.737 2.571z" fill="#F7D684"/><path d="M9.137 11.621c.44.516.969.998 1.533 1.444l1.33-4.565 1.764.882c.704.352 1.47.528 2.236.528v-3.91c-3.394 0-6.222 2.415-6.863 5.621z" fill="#FFD04D"/><path d="M18.236 9.382l1.764-.882 1.33 4.564c.563-.445 1.093-.928 1.533-1.444-.641-3.205-3.469-5.62-6.863-5.62v3.91c.766 0 1.532-.176 2.236-.528z" fill="#F7C845"/><path d="M21.653 9.881c-.61 1.292-1.778 2.505-2.869 2.003s-.901-2.165-.291-3.457c.61-1.292 1.41-1.725 2.501-1.223 1.09.502 1.269 1.385.659 2.677z" fill="#2B3332"/><path d="M10.347 9.881c.61 1.292 1.778 2.505 2.869 2.003s.901-2.165.291-3.457c-.61-1.292-1.41-1.725-2.501-1.223s-1.269 1.385-.659 2.677z" fill="#373F3F"/><circle cx="12.25" cy="8.75" r=".75" fill="#fff"/><circle cx="19.75" cy="8.75" r=".75" fill="#F7F7F7"/><path d="M11.396 1.8l-2.395-.799.832 2.495c.453-.633.981-1.203 1.563-1.696z" fill="#FFD04D"/><path d="M22.166 3.496l.832-2.494-2.394.798c.581.493 1.109 1.063 1.562 1.696zM10.67 13.064l-2.031 1.41c-1.947 1.351-2.299 4.09-.756 5.889l1.428 1.666c.95 1.108 2.597 1.289 3.765.413l.006-.004c1.101-.826 1.429-2.335.77-3.543l-3.182-5.831z" fill="#F7C845"/><path d="M12.296 16.045c-2.202.258-4.038 1.705-4.849 3.685.125.22.264.434.435.634l1.428 1.666c.95 1.108 2.597 1.289 3.765.413l.006-.005c1.101-.826 1.429-2.335.77-3.543l-1.555-2.85z" fill="#FFD04D"/><path d="M13.852 18.896l-.455-.835c-2.085.254-3.769 1.773-4.247 3.779l.162.189c.95 1.108 2.597 1.289 3.765.413l.006-.005c1.1-.824 1.428-2.333.769-3.541z" fill="#FFD96C"/><path d="M21.33 13.064l2.031 1.41c1.947 1.351 2.299 4.09.756 5.889l-1.428 1.666c-.95 1.108-2.597 1.289-3.765.413l-.006-.004c-1.101-.826-1.429-2.335-.77-3.543l3.182-5.831z" fill="#F0C13E"/><path d="M19.704 16.045c2.202.258 4.038 1.705 4.849 3.685-.125.22-.264.434-.435.634l-1.428 1.666c-.95 1.108-2.597 1.289-3.765.413l-.006-.005c-1.101-.826-1.429-2.335-.77-3.543l1.555-2.85z" fill="#F7C845"/><path d="M18.148 18.896l.455-.835c2.085.254 3.769 1.773 4.247 3.779l-.162.189c-.95 1.108-2.597 1.289-3.765.413l-.006-.005c-1.1-.824-1.428-2.333-.769-3.541z" fill="#FFD04D"/></svg>