<svg xmlns="http://www.w3.org/2000/svg" width="32" height="32" viewBox="0 0 32 32"><path d="M22.636 14.04l.269-.094c1.039-.485 8.01-4.928 7.59-5.83-.42-.902-8.305 1.582-9.345 2.067-.148.069-.28.156-.403.253l-.007.001h-.894c.267-.507.5-.984.67-1.279.573-.993 3.729-8.634 2.867-9.131-.653-.376-3.694 3.294-5.381 5.529-.259-1.832-1.161-5.535-2.002-5.554v22.201h6.105l.05.019c1.108.297 9.304 1.374 9.562.413.257-.961-7.379-4.127-8.487-4.423l-.259-.042c1.397-.166 9.113-1.899 9.028-2.87-.084-.966-7.895-1.334-9.363-1.26z" fill="#845331"/><path d="M16 .002l-.007-.002c-.84.001-1.735 3.702-1.993 5.544-1.689-2.237-4.721-5.893-5.372-5.518-.862.497 2.294 8.138 2.867 9.131.17.295.403.773.671 1.281h-.899c-.124-.098-.257-.186-.406-.256-1.04-.484-8.925-2.968-9.346-2.066s6.551 5.345 7.59 5.83l.27.094c-1.442-.076-9.29.292-9.374 1.259-.085.97 7.63 2.703 9.028 2.87l-.259.042c-1.108.297-8.744 3.462-8.487 4.423.258.961 8.454-.116 9.562-.413l.05-.019h6.105v-22.2zm-6.354 18.172l-.038-.011.038-.009v.02z" fill="#8D5B36"/><path d="M16 7.347c-.914-2.351-3.112-7.295-3.874-7.091-.813.218-.113 6.326.264 8.538-1.348-.842-7.83-4.171-8.356-3.419-.55.785 5.32 6.167 6.225 6.8l.297.166-.132-.05c-1.067-.286-8.963-1.323-9.211-.398-.244.91 6.85 3.867 8.103 4.238-1.119.101-8.868 1.823-8.785 2.776.082.943 7.831 1.295 9.084 1.211l-.289.101c-1.001.467-7.717 4.748-7.312 5.616.405.869 7.985-1.368 8.986-1.835h5v-16.653z" fill="#9E6E43"/><path d="M21 24c1.001.467 8.581 2.704 8.986 1.835.405-.869-6.31-5.149-7.312-5.616l-.289-.101c1.253.084 9.001-.268 9.084-1.211.083-.953-7.666-2.675-8.785-2.776 1.253-.371 8.347-3.328 8.103-4.238-.248-.926-8.144.112-9.211.398l-.132.05.297-.166c.905-.634 6.775-6.015 6.225-6.8-.526-.751-7.008 2.577-8.356 3.419.377-2.212 1.076-8.32.264-8.538-.762-.204-2.96 4.739-3.874 7.091v16.653h5z" fill="#96643B"/><path d="M22.838 20.753l1.429 2.148c1.406 2.114.513 4.987-1.845 5.93l-.422.169 1.632.544c.817.272 1.368 1.037 1.368 1.898v.058c0 .276-.224.5-.5.5h-6.5c-.552 0-1-.448-1-1v-4l5.838-6.247z" fill="#F0C13E"/><path d="M9.162 20.753l-1.429 2.148c-1.406 2.114-.513 4.987 1.845 5.93l.422.169-1.632.544c-.817.272-1.368 1.037-1.368 1.898v.058c0 .276.224.5.5.5h6.5c.552 0 1-.448 1-1v-4l-5.838-6.247z" fill="#F7C845"/><path d="M16 13c-4.349 0-6 5.582-6 10s1.651 6 6 6v-16z" fill="#FDEBBB"/><path d="M22 23c0-4.418-1.651-10-6-10v16c4.349 0 6-1.582 6-6zM10.01 23.252c.102 4.221 1.727 5.748 5.99 5.748v-3c-3.285 0-4.715-.785-5.99-2.748z" fill="#FAE09F"/><path d="M16 26v3c4.263 0 5.888-1.527 5.99-5.748-1.275 1.963-2.705 2.748-5.99 2.748z" fill="#F7D684"/><path d="M20.408 14.937l.225.266c1.529 1.806 2.367 4.095 2.367 6.46v1.337c0 .552-.448 1-1 1h-2.719c-.651 0-1.128-.611-.97-1.243l.248-.994c.292-1.166.37-2.376.233-3.57l-.316-2.739 1.932-.517z" fill="#F7C845"/><path d="M21.125 23c-.223 0-.454.102-.625.257-.171-.155-.402-.257-.625-.257-.414 0-.875.336-.875.75 0 1.5.692 6.25 1 6.25.158 0 .35-1.424.5-2.772.15 1.348.342 2.772.5 2.772.308 0 1-4.75 1-6.25 0-.414-.461-.75-.875-.75z" fill="#FDEBBB"/><path d="M11.592 14.937l-.225.266c-1.529 1.806-2.367 4.095-2.367 6.46v1.337c0 .552.448 1 1 1h2.719c.651 0 1.128-.611.97-1.243l-.248-.994c-.292-1.166-.37-2.376-.233-3.57l.316-2.739-1.932-.517z" fill="#FFD04D"/><path d="M10.875 23c.223 0 .454.102.625.257.171-.155.402-.257.625-.257.414 0 .875.336.875.75 0 1.5-.692 6.25-1 6.25-.158 0-.35-1.424-.5-2.772-.15 1.348-.342 2.772-.5 2.772-.308 0-1-4.75-1-6.25 0-.414.461-.75.875-.75zM16 6.958c-3.682 0-5 2.213-5 6 0 2.478 1.844 4.381 3.419 5.494.466.329 1.015.506 1.58.506h.001v-12z" fill="#FFF3D9"/><path d="M16.001 18.958c.565 0 1.114-.176 1.58-.506 1.575-1.113 3.419-3.016 3.419-5.494 0-3.787-1.318-6-5-6v12h.001z" fill="#FDEBBB"/><path d="M19.187 8.813l1 1 1.059-.529c1.867-.933 3.233-2.636 3.739-4.661v-.001c.092-.366-.24-.698-.606-.606h-.001c-2.025.506-3.728 1.872-4.661 3.739l-.53 1.058z" fill="#FFD04D"/><path d="M12.813 8.813l-1 1-1.059-.529c-1.866-.934-3.232-2.636-3.738-4.661v-.001c-.092-.366.24-.698.606-.606h.001c2.025.506 3.728 1.872 4.661 3.739l.529 1.058z" fill="#FFD96C"/><circle cx="14" cy="13" r="2" fill="#373F3F"/><circle cx="18" cy="13" r="2" fill="#2B3332"/><path d="M11.051 11.884c1.627-.258 3.196.844 3.435 2.521l.391 2.736c.071.493.493.859.99.859h.133v-11.042c-3.314 0-4.703 1.806-4.949 4.926z" fill="#FFD96C"/><path d="M20.949 11.884c-1.627-.258-3.196.844-3.435 2.521l-.391 2.736c-.071.493-.493.859-.99.859h-.133v-11.042c3.314 0 4.703 1.806 4.949 4.926z" fill="#FFD04D"/><path d="M16 4c-.166 0-.332.081-.429.243l-.001.001c-1.067 1.815-1.298 4.002-.632 6l.131.393c.133.4.508.67.93.67h.001v-7.307z" fill="#FFE28A"/><path d="M16.93 10.636l.131-.393c.666-1.997.435-4.185-.632-6l-.001-.001c-.096-.161-.262-.242-.428-.242v7.306h.001c.422 0 .796-.27.929-.67z" fill="#FFD96C"/><path d="M13.266 12.984c.293.293.279.517.133.664-.147.147-.371.161-.664-.133s-.279-.517-.133-.664c.146-.146.37-.16.664.133z" fill="#fff"/><path d="M18.734 12.984c-.293.293-.279.517-.133.664.147.147.371.161.664-.133.293-.293.279-.517.133-.664-.146-.146-.37-.16-.664.133z" fill="#F7F7F7"/></svg>