<svg xmlns="http://www.w3.org/2000/svg" width="32" height="32" viewBox="0 0 32 32"><path d="M27.646 29.646l-1.646-1.646.001-.002c1.821-3.035 1.668-6.861-.389-9.741l-1.612-2.257v6.199c0 1.858-.259 3.708-.77 5.494l-.944 3.307h5.214c.276 0 .5-.224.5-.5 0-.32-.127-.627-.354-.854z" fill="#71B1E1"/><path d="M8.77 27.693c-.511-1.787-.77-3.636-.77-5.494v-6.199l-1.612 2.257c-2.057 2.88-2.21 6.706-.389 9.741l.001.002-1.646 1.646c-.227.227-.354.534-.354.854 0 .276.224.5.5.5h5.214l-.944-3.307z" fill="#7FB8E0"/><path d="M8 16v6.199c0 1.858.259 3.708.77 5.494l1.127 3.944c.061.215.257.363.48.363h3.123c.276 0 .5-.224.5-.5v-1.5h2v-7c-2 0-8-2.029-8-7z" fill="#8EC0E0"/><path d="M16 23v7h2v1.5c0 .276.224.5.5.5h3.123c.223 0 .419-.148.481-.363l1.127-3.944c.511-1.787.77-3.636.77-5.494v-6.199c-.001 4.971-6.001 7-8.001 7z" fill="#7FB8E0"/><path d="M11.865 5.865l-4.986-4.986c-.563-.563-1.326-.879-2.122-.879h-4.05c-.39 0-.707.317-.707.707 0 .188.075.367.207.5l.426.426c.24.24.415.538.509.865l.552 1.93c.826 2.893 2.911 5.26 5.676 6.445l1.353.58c-.468 1.543-.723 3.128-.723 4.547 0 4.971 6 7 8 7v-19c-1.59 0-2.978.724-4.135 1.865z" fill="#C1DDEE"/><path d="M8.77 18.844c1.678 2.91 5.668 4.156 7.23 4.156v-5c-2.967 0-5.591 1.048-7.23.844zM31.293 0h-4.05c-.796 0-1.559.316-2.121.879l-4.986 4.986c-1.158-1.141-2.546-1.865-4.136-1.865v19c2 0 8-2.029 8-7 0-1.419-.255-3.004-.723-4.547l1.353-.58c2.765-1.185 4.85-3.552 5.676-6.444l.552-1.93c.093-.327.268-.624.509-.865l.426-.426c.132-.134.207-.313.207-.501 0-.39-.317-.707-.707-.707z" fill="#B0D3EA"/><path d="M16 18v5c1.562 0 5.552-1.246 7.23-4.156-1.639.204-4.263-.844-7.23-.844z" fill="#9FC9E4"/><path d="M14.522 18.087l.384 1.535c.055.222.255.378.484.378h.61v-2c-.505 0-.996.037-1.478.087z" fill="#fff"/><path d="M17.478 18.087c-.482-.05-.973-.087-1.478-.087v2h.61c.229 0 .429-.156.485-.379l.383-1.534z" fill="#F7F7F7"/><path d="M8.129 10.066c.467-1.254 1.067-2.459 1.811-3.504l-4.122-4.122c-.281-.282-.663-.44-1.061-.44h-1.706c-.337 0-.578.324-.478.646.233.749.563 1.871.563 1.871.706 2.47 2.464 4.466 4.825 5.478l.168.071z" fill="#529CCF"/><path d="M9.94 6.562l-3.751-3.751s-.509 4.417 2.049 6.961c.451-1.149 1.016-2.247 1.702-3.21z" fill="#5BD3D5"/><path d="M28.949 2h-1.706c-.398 0-.78.158-1.061.44l-4.122 4.122c.745 1.045 1.345 2.25 1.811 3.504l.168-.072c2.36-1.011 4.119-3.008 4.825-5.478 0 0 .33-1.122.563-1.871.1-.321-.142-.645-.478-.645z" fill="#4896C8"/><path d="M28.949 2h-1.706c-.398 0-.78.158-1.061.44l-4.122 4.122c.33.463.625.963.9 1.478l3.161-3.161c.563-.563 1.326-.879 2.121-.879h.774c.117-.392.278-.93.41-1.354.101-.322-.14-.646-.477-.646z" fill="#4390BF"/><path d="M23.762 9.771c2.558-2.543 2.049-6.96 2.049-6.96l-3.751 3.751c.686.963 1.251 2.061 1.702 3.209z" fill="#56C7CD"/><path d="M11.312 11.062c-.739.674-1.232 1.612-1.303 2.672-.01.143.112.266.256.266h3.215c.21 0 .326-.242.195-.406l-1.998-2.497c-.089-.113-.259-.132-.365-.035z" fill="#fff"/><path d="M12.134 11.668c-.686.55-1.134 1.384-1.134 2.332h2.48c.21 0 .326-.242.195-.406l-1.541-1.926z" fill="#E85160"/><path d="M9.94 6.562l-4.122-4.122c-.281-.282-.663-.44-1.061-.44h-1.706c-.337 0-.578.324-.478.646.132.424.293.962.41 1.354h.774c.796 0 1.559.316 2.121.879l3.162 3.161c.276-.515.571-1.015.9-1.478z" fill="#4896C8"/><path d="M20.697 11.062c.739.674 1.232 1.612 1.303 2.672.009.143-.113.266-.257.266h-3.215c-.21 0-.326-.242-.195-.406l1.998-2.497c.09-.113.26-.132.366-.035z" fill="#F7F7F7"/><path d="M19.874 11.668c.686.55 1.134 1.385 1.134 2.332h-2.48c-.21 0-.326-.242-.195-.406l1.541-1.926z" fill="#D84459"/><path d="M9.94 6.562l-3.751-3.751s-.122 1.054.048 2.427l2.803 2.802c.276-.515.571-1.015.9-1.478z" fill="#56C7CD"/><path d="M25.81 2.811l-3.75 3.751c.33.463.625.963.9 1.478l2.802-2.802c.17-1.374.048-2.427.048-2.427z" fill="#51BAC5"/><path d="M16 3.401c-.159 0-.317.074-.416.223l-1.584 2.376s1 1 2 1v-3.599z" fill="#D2E6F3"/><path d="M18 6l-1.584-2.376c-.099-.148-.257-.223-.416-.223v3.599c1 0 2-1 2-1z" fill="#C1DDEE"/><path d="M9.504 15.214v.001c.071.266-.086.54-.353.61-1.692.443-7.265 1.87-7.374 1.46-.11-.41 5.429-1.96 7.117-2.423.265-.072.538.086.61.352zM10.075 16.467l.001.001c.138.239.056.544-.183.68-1.52.866-6.533 3.686-6.745 3.319-.212-.367 4.737-3.299 6.247-4.182.237-.139.542-.057.68.182z" fill="#529CCF"/><path d="M22.496 15.214v.001c-.071.266.086.54.353.61 1.692.443 7.265 1.87 7.374 1.46s-5.429-1.96-7.117-2.423c-.265-.072-.538.086-.61.352zM21.925 16.467l-.001.001c-.138.239-.056.544.183.68 1.52.866 6.533 3.686 6.745 3.319s-4.737-3.299-6.247-4.182c-.237-.139-.542-.057-.68.182z" fill="#4896C8"/></svg>