<svg xmlns="http://www.w3.org/2000/svg" width="32" height="32" viewBox="0 0 32 32"><path d="M13.888 4.233c-1.328 1.067-2.917 2.556-3.621 4.047-.158.334.08.72.45.72h1.519c.432-2.067 1.339-4.102 1.652-4.767z" fill="#E85160"/><path d="M21.733 8.28c-.704-1.491-2.293-2.98-3.62-4.046.314.666 1.22 2.7 1.652 4.767h1.518c.37-.001.608-.387.45-.721z" fill="#D84459"/><path d="M28.445 5.599c-3.854-3.068-7.697-3.333-10.072-3.091l-.373 1.492h.001s.207.415.486 1.073c2.886.557 4.648 2.671 5.264 3.546.149.212.437.271.66.14l3.975-2.337c.301-.178.333-.605.059-.823z" fill="#E85160"/><path d="M14 4l-.378-1.511c-2.376-.259-6.219-.014-10.072 3.053-.272.217-.243.642.055.821l3.983 2.39c.223.134.513.075.664-.138.618-.877 2.379-2.986 5.262-3.542.279-.658.486-1.073.486-1.073z" fill="#F3586F"/><path d="M29.229 25.445c-.728-6.188-5.457-11.149-11.603-12.174l-1.626-.271v17c2.22 0 4.274-.557 6-1.441v2.941c0 .276.224.5.5.5h6.938c.299 0 .532-.261.497-.558l-.706-5.997z" fill="#47A1B4"/><path d="M7.737 15.707l-.482-.457-.605.975c-.033.053-.085.092-.146.109l-.54.15c-.12.033-.246-.027-.296-.141l-.267-.614-.507.994c-.029.057-.079.101-.14.122l-.719.255c-.135.048-.282-.027-.323-.165l-.123-.415-.63.969-.126.099c-.252.088-1.063.392-1.765.912-.844.625-1.188.182-1.031-.409s3.498-4.37 8.561-4.684l1.538-.072-.674 1.895-1.467.53c-.09.032-.189.011-.258-.053z" fill="#6CD275"/><path d="M24.263 15.706l.482-.456.605.975c.033.053.085.092.146.109l.54.15c.12.033.246-.027.296-.141l.267-.614.507.994c.029.057.079.101.14.122l.72.254c.135.048.282-.027.323-.165l.123-.415.63.969.126.099c.252.087 1.063.391 1.765.911.844.625 1.188.182 1.031-.409s-3.498-4.37-8.561-4.684l-1.538-.072.675 1.895 1.467.53c.088.034.187.013.256-.052z" fill="#60C46F"/><path d="M16 13l-1.626.271c-6.146 1.024-10.875 5.986-11.603 12.174l-.706 5.997c-.034.297.198.558.497.558h6.938c.276 0 .5-.224.5-.5v-2.889c1.725.862 3.782 1.389 6 1.389v-17z" fill="#4CAEBC"/><path d="M16 13c-6.075 0-11 3.917-11 8 0 .921.262 1.831.72 2.692 1.572 2.956 5.575 5.308 10.28 5.308v-16z" fill="#5BD3D5"/><path d="M26.245 23.692c.481-.871.755-1.785.755-2.692 0-3.917-4.925-8-11-8v16c4.669 0 8.648-2.413 10.245-5.308zM16 24.648c-.363.001-.725-.046-1.078-.142-2.137-.579-6.621-.758-9.202-.814 1.572 2.956 5.575 5.308 10.28 5.308v-4.352z" fill="#56C7CD"/><path d="M16 24.648v4.352c4.669 0 8.648-2.413 10.245-5.308-2.593.057-7.06.237-9.177.812-.35.096-.709.143-1.068.144z" fill="#51BAC5"/><path d="M16.001 24.648c-.363.001-.726-.046-1.079-.142-1.271-.344-3.373-.545-5.41-.665 1.177 1.301 3.261 2.873 6.489 2.873h.001v-2.066z" fill="#E85160"/><path d="M16.001 26.714c3.229 0 5.313-1.573 6.489-2.874-2.046.119-4.155.32-5.422.665-.349.095-.708.142-1.067.143v2.066z" fill="#D84459"/><path d="M13.589 26.385l-.618-1.361c-.103-.226-.415-.216-.504.016l-.307.803c.434.214.91.397 1.429.542zM11.849 24.949l.356-.891c-.417-.045-.846-.085-1.286-.12l.424 1.015c.096.232.412.229.506-.004z" fill="#fff"/><path d="M20.658 24.954l.425-1.018c-.44.035-.871.075-1.289.119l.357.894c.094.234.41.236.507.005zM19.841 25.843l-.307-.803c-.089-.232-.402-.242-.504-.016l-.618 1.361c.518-.145.994-.328 1.429-.542z" fill="#F7F7F7"/><circle cx="10" cy="20" r="2" fill="#56C7CD"/><path d="M11.753 20.964c-.402.73-1.247 1.182-2.173.993-.944-.192-1.642-1.109-1.576-2.071.1-1.438 2.122-.749 3.251-.249.506.225.765.842.498 1.327z" fill="#fff"/><path d="M11 20c0-.206-.077-.387-.184-.546-.385-.152-.814-.287-1.223-.364-.348.157-.593.504-.593.91 0 .552.448 1 1 1s1-.448 1-1z" fill="#E85160"/><circle cx="22" cy="20" r="2" fill="#51BAC5"/><path d="M20.247 20.964c.402.73 1.247 1.182 2.173.993.944-.192 1.642-1.109 1.576-2.071-.1-1.438-2.122-.749-3.251-.249-.506.225-.766.842-.498 1.327z" fill="#F7F7F7"/><path d="M20.999 20c0-.206.077-.387.184-.546.385-.152.814-.287 1.223-.364.348.156.593.503.593.909 0 .552-.448 1-1 1s-1-.447-1-.999z" fill="#D84459"/><path d="M24 31c-.552 0-1 .448-1 1h2c0-.552-.448-1-1-1zM26 31c-.552 0-1 .448-1 1h2c0-.552-.448-1-1-1zM28 31c-.552 0-1 .448-1 1h2c0-.552-.448-1-1-1z" fill="#EDEEEE"/><path d="M8 31c-.552 0-1 .448-1 1h2c0-.552-.448-1-1-1zM6 31c-.552 0-1 .448-1 1h2c0-.552-.448-1-1-1zM4 31c-.552 0-1 .448-1 1h2c0-.552-.448-1-1-1z" fill="#F7F7F7"/><path d="M16.001 11v-10.896c-.064 0-.128.024-.177.073l-.824.823-1.514-.757c-.191-.096-.406.077-.354.284l.868 3.473s-2 4-2 7h4.001z" fill="#8D5B36"/><path d="M18.514.243l-1.514.757-.823-.823c-.049-.049-.112-.073-.176-.073v10.896h4c0-3-2-7-2-7h-.001l.868-3.473c.052-.207-.163-.379-.354-.284z" fill="#845331"/><path d="M10 28.611v2.389h1.5c.276 0 .5-.224.5-.5v-1.115c-.7-.215-1.378-.463-2-.774z" fill="#47A1B4"/><path d="M22 28.559c-.622.319-1.3.576-2 .799v1.142c0 .276.224.5.5.5h1.5v-2.441z" fill="#4295AC"/><path d="M16 3s-1.182-2-4.727-2c-2.538 0-4.657 1.025-5.656 1.607-.306.178-.33.612-.049.827l3.132 2.397c.171.131.409.14.585.015 2.923-2.068 6.715-.846 6.715-.846v-2z" fill="#FF6B8B"/><path d="M16 3s1.182-2 4.727-2c2.538 0 4.657 1.025 5.656 1.607.306.178.33.612.049.827l-3.132 2.397c-.171.131-.409.14-.585.015-2.923-2.068-6.715-.846-6.715-.846v-2z" fill="#FF5F7E"/><path d="M7.18 12.789c.185.221.505.594.924 1.049.066.072.169.099.262.069l1.77-.573-.62 1.742c-.033.093-.01.197.062.265l.6.551c.079.071.195.084.288.033l1.735-.951-.489 1.983c-.024.098.013.203.095.263.299.219.602.427.909.618.097.061.224.046.306-.034l1.42-1.377.031 2.104c.002.107.071.203.173.235.461.15.916.234 1.354.234v-9s-4.936 0-8.763 2.418c-.128.08-.154.256-.057.371z" fill="#84ED82"/><path d="M24.82 12.789c-.201.239-.561.658-1.033 1.168l-1.923-.622.62 1.742c.033.093.01.197-.062.265l-.6.551c-.079.071-.195.084-.288.033l-1.734-.951.489 1.983c.024.098-.013.203-.095.263-.299.219-.602.427-.909.618-.097.061-.224.046-.306-.034l-1.42-1.377-.031 2.104c-.002.107-.071.203-.173.235-.462.149-.916.233-1.354.233v-9s4.936 0 8.763 2.418c.127.08.153.256.056.371z" fill="#78DF7C"/></svg>