<svg xmlns="http://www.w3.org/2000/svg" width="32" height="32" viewBox="0 0 32 32"><path d="M23.859 30.394c.612-.911 2.141-2.297 2.141-4.394 0-5-4-5-4-5h-4s-.365 11 1 11h5.392c.366 0 .612-.383.454-.713-.2-.42-.575-.702-.987-.893z" fill="#71B1E1"/><path d="M8.097 30.394c-.613-.911-2.141-2.297-2.141-4.394 0-5 4-5 4-5h4s.365 11-1 11h-5.393c-.366 0-.612-.383-.454-.713.201-.42.575-.702.988-.893zM16 12c-4.971 0-8 4.029-8 9s3.029 9 8 9v-18z" fill="#7FB8E0"/><path d="M24 21c0-4.971-3.029-9-8-9v18c4.971 0 8-4.029 8-9z" fill="#71B1E1"/><path d="M8.034 21.883c.338 4.556 3.294 8.117 7.966 8.117v-5c-3.138 0-5.962-1.201-7.966-3.117z" fill="#C1DDEE"/><path d="M16 25v5c4.672 0 7.628-3.561 7.966-8.117-2.004 1.916-4.828 3.117-7.966 3.117zM8.653 24.767c1.139 3.087 3.723 5.233 7.347 5.233v-2c-2.909 0-5.52-1.25-7.347-3.233z" fill="#B0D3EA"/><path d="M16 28v2c3.624 0 6.208-2.146 7.347-5.233-1.827 1.983-4.438 3.233-7.347 3.233z" fill="#9FC9E4"/><path d="M17 20.522c0 .944 1.343 1.478 3 1.478s3-.831 3-2.464-1.625-2.853-3-2.464c-1.375.39-3 1.817-3 3.45z" fill="#C1DDEE"/><path d="M15 20.522c0 .944-1.343 1.478-3 1.478s-3-.831-3-2.464 1.625-2.853 3-2.464c1.375.39 3 1.817 3 3.45z" fill="#D2E6F3"/><path d="M16 .544c-.172 0-.344.087-.439.261l-1.008 1.849c-1.205.256-2.238.833-3.078 1.647-.81-1.502-2.525-3.557-6.005-4.241-.196-.04-.397.048-.508.214l-.055.082c-.147.221-.096.519.116.678l.622.466s-4.5 1.5-3.5 5.5c.749 2.997 4.866 3.187 6.884 3.094-.018.265-.029.534-.029.806 0 4.639 5.25 5.6 7 5.6v-15.956z" fill="#8EC0E0"/><path d="M23 10.9c0-.272-.011-.541-.029-.806 2.018.093 6.135-.097 6.884-3.094 1-4-3.5-5.5-3.5-5.5l.622-.466c.212-.159.263-.457.116-.677l-.055-.082c-.111-.166-.312-.254-.508-.215-3.48.684-5.195 2.739-6.005 4.241-.839-.814-1.873-1.391-3.078-1.647l-1.008-1.849c-.095-.174-.267-.261-.439-.261v15.956c1.75 0 7-.961 7-5.6z" fill="#7FB8E0"/><path d="M23.707 9.111c1.714 0 4.666-.306 5.178-2.354.767-3.066-2.698-4.259-2.846-4.309-1.249-.416-2.66-.128-3.564.83-.968 1.025-1.394 2.097-1.556 2.613l1.585 3.171c.303.025.722.049 1.203.049z" fill="#373F3F"/><path d="M27.385 7.257c.767-3.066-2.698-4.259-2.846-4.309-.468-.156-.959-.213-1.437-.173.86-.537 1.948-.657 2.937-.327.148.049 3.613 1.242 2.846 4.309-.32 1.279-1.592 1.879-2.92 2.149.688-.354 1.227-.878 1.42-1.649z" fill="#4896C8"/><path d="M27.039 4.449l-.351-.091c-.846-.956-2.062-1.38-2.149-1.409-.468-.156-.959-.213-1.437-.173.86-.537 1.948-.657 2.937-.327.128.043 2.751.949 2.942 3.191-.825-.803-1.863-1.165-1.942-1.191z" fill="#4390BF"/><path d="M22.474 3.278c.245-.259.529-.465.835-.625l-.208.123c.478-.04.969.017 1.437.173.086.029 1.303.453 2.149 1.409-1.156-.26-2.393.052-3.213.921-.968 1.025-1.394 2.096-1.556 2.613l-1-2c.163-.517.589-1.589 1.556-2.614z" fill="#2B3332"/><path d="M8.293 9.111c-1.714 0-4.666-.306-5.178-2.354-.766-3.066 2.698-4.259 2.846-4.308 1.249-.416 2.66-.128 3.564.83.968 1.025 1.394 2.097 1.556 2.613l-1.585 3.17c-.303.025-.722.049-1.203.049z" fill="#434C4B"/><path d="M4.615 7.257c-.766-3.066 2.698-4.259 2.846-4.308.469-.156.959-.213 1.438-.173-.86-.537-1.948-.657-2.937-.327-.149.049-3.613 1.242-2.847 4.308.32 1.279 1.592 1.879 2.92 2.149-.688-.354-1.227-.878-1.42-1.649z" fill="#529CCF"/><path d="M4.961 4.449l.351-.091c.846-.956 2.062-1.38 2.149-1.409.469-.156.959-.213 1.438-.173-.86-.537-1.948-.657-2.937-.327-.129.043-2.751.949-2.943 3.191.825-.803 1.863-1.165 1.942-1.191z" fill="#4896C8"/><path d="M9.526 3.278c-.245-.259-.529-.465-.835-.625l.208.123c-.479-.04-.969.017-1.438.173-.086.029-1.303.452-2.149 1.409 1.156-.26 2.393.052 3.213.921.968 1.025 1.394 2.096 1.556 2.613l1-2c-.162-.517-.588-1.589-1.555-2.614z" fill="#373F3F"/><path d="M20.978 8.595c.472.527.571 1.366.418 2.02-.053.226-.256.385-.488.385h-2.404c-.402 0-.645-.452-.415-.781.47-.674 1.394-1.441 2.373-1.75.182-.058.389-.016.516.126z" fill="#F7F7F7"/><path d="M10.379 14.345l-1.311.795c-1.832 1.112-2.753 3.267-2.288 5.36l.777 3.496c.244 1.098 1.346 1.779 2.437 1.506l.242-.06c1.001-.25 1.648-1.221 1.492-2.242l-1.349-8.855z" fill="#8EC0E0"/><path d="M21.621 14.345l1.311.795c1.832 1.112 2.753 3.267 2.288 5.36l-.777 3.496c-.244 1.098-1.346 1.779-2.437 1.506l-.242-.06c-1.001-.25-1.648-1.221-1.492-2.242l1.349-8.855z" fill="#7FB8E0"/><path d="M16 16.5v-3.5c.701 0 1.791.62 3 .398 1.252-.23 2.643-.613 3.848-1.217-.784 3.482-5.274 4.319-6.848 4.319z" fill="#D2E6F3"/><path d="M16 16.5v-3.5c-.701 0-1.791.62-3 .398-1.252-.23-2.643-.613-3.848-1.217.784 3.482 5.274 4.319 6.848 4.319z" fill="#E2EFF7"/><path d="M11.038 8.577c-.486.525-.59 1.376-.434 2.038.053.226.256.385.488.385h2.404c.405 0 .644-.455.411-.786-.475-.678-1.407-1.448-2.392-1.752-.165-.052-.359-.012-.477.115z" fill="#fff"/><path d="M20.022 8.648c-.804.368-1.526.998-1.927 1.564-.234.332.005.788.41.788h1.399c.234 0 .439-.159.492-.387.148-.632.059-1.437-.374-1.965z" fill="#2B3332"/><path d="M11.978 8.648c-.432.528-.522 1.332-.374 1.965.053.228.258.387.491.387h1.399c.406 0 .644-.456.41-.787-.4-.567-1.123-1.197-1.926-1.565z" fill="#373F3F"/><path d="M16 2.401c-.159 0-.317.074-.416.223l-1.584 2.376s1 1 2 1v-3.599z" fill="#9FC9E4"/><path d="M18 5l-1.584-2.376c-.099-.148-.257-.223-.416-.223v3.599c1 0 2-1 2-1z" fill="#8EC0E0"/></svg>