<svg xmlns="http://www.w3.org/2000/svg" width="32" height="32" viewBox="0 0 32 32"><path d="M25 25.082l.918 6.429c.043.301-.191.571-.495.571h-6.013c-.238 0-.444-.168-.49-.402l-.92-4.598 7-2z" fill="#845194"/><path d="M7 25.082l-.918 6.429c-.043.301.191.571.495.571h6.014c.238 0 .444-.168.49-.402l.919-4.598-7-2zM27 25.082l.918 6.429c.043.301-.191.571-.495.571h-6.013c-.238 0-.444-.168-.49-.402l-.92-4.598 7-2z" fill="#945BA0"/><path d="M5 25.082l-.918 6.429c-.043.301.191.571.495.571h6.014c.238 0 .444-.168.49-.402l.919-4.598-7-2z" fill="#A366AD"/><path d="M16 10.082h-.014v-6c-.225 0-.451.141-.494.424l-.867 5.636c-5.283.422-8.625 3.339-8.625 8.94 0 .583.037 1.137.108 1.662.14 1.028.023 2.075-.441 3.004l-1.419 2.838c-.133.266-.006.588.272.692l7.022 2.633c.255.095.539-.03.64-.282l.736-1.839c.95.194 1.98.294 3.083.294v-18.002z" fill="#B370B9"/><path d="M27.752 26.586l-1.419-2.838c-.464-.928-.581-1.975-.441-3.004.071-.525.108-1.078.108-1.662 0-5.612-3.354-8.53-8.653-8.943l-.867-5.633c-.043-.283-.269-.424-.494-.424v10.212h.014v13.788c1.103 0 2.132-.099 3.083-.294l.736 1.839c.101.252.385.378.64.282l7.022-2.633c.277-.103.403-.425.271-.69z" fill="#A366AD"/><path d="M23.986 23.082c0-4.971-3.029-8-8-8v15c1.813 0 8-3.687 8-7z" fill="#B370B9"/><path d="M7.986 23.082c0-4.971 3.029-8 8-8v15c-1.812 0-8-3.687-8-7z" fill="#C27BC6"/><path d="M22.5 24.082s0 2.522-1.066 3.657c-.156.166-.434.056-.434-.171v-3.485h1.5z" fill="#F7F7F7"/><path d="M9.5 24.082s0 2.522 1.066 3.657c.156.166.434.056.434-.171v-3.485h-1.5z" fill="#fff"/><path d="M16 11.163c-.199 0-.398.114-.474.342l-1.236 3.708c-.51.08-.989.202-1.444.355-.76-3-3.448-11.551-10.15-15.367-.134-.076-.297-.085-.44-.026l-.378.157c-.303.126-.406.503-.208.764.437.575 1.126 1.51 1.479 2.142 0 0-1.187-.889-2.157-1.116-.13-.03-.266-.01-.38.059l-.307.186c-.184.112-.276.328-.228.538.47 2.042 3.141 12.36 9.626 14.782-1.11 1.348-1.717 3.177-1.717 5.395v3l1.363-.341c.403-.101.83-.015 1.163.235l.896.672c.362.272.835.348 1.264.205l.005-.002c.496-.165 1.043-.036 1.412.333l.604.604c.188.188.442.293.707.293h.586l.014-16.918z" fill="#D285D2"/><path d="M31.695 2.367l-.306-.186c-.114-.069-.25-.09-.38-.059-.97.226-2.157 1.116-2.157 1.116.353-.631 1.041-1.566 1.479-2.142.198-.261.095-.638-.208-.763l-.378-.156c-.143-.059-.306-.05-.44.026-6.705 3.816-9.394 12.373-10.152 15.37-.458-.156-.942-.278-1.457-.359l-1.236-3.708c-.076-.228-.275-.342-.474-.342l.014 16.918h.586c.265 0 .52-.105.707-.293l.604-.604c.37-.37.916-.499 1.412-.333l.005.002c.43.143.902.067 1.264-.205l.896-.672c.332-.249.76-.336 1.163-.235l1.363.34v-3c0-2.216-.606-4.043-1.713-5.391 6.492-2.416 9.166-12.743 9.636-14.787.048-.209-.044-.425-.228-.537z" fill="#C27BC6"/><path d="M11.898 15.953c-.688-2.24-3.891-8.356-10.174-12.38-.191-.123-.433.06-.372.28.929 3.372 3.684 11.383 9.148 13.029.419-.36.883-.674 1.398-.929z" fill="#4CAEBC"/><path d="M11.898 15.953c-.688-2.24-3.89-8.355-10.173-12.379-.192-.123-.434.059-.373.279.116.42.261.911.432 1.45 5.331 3.822 8.197 9.042 9.008 11.34.342-.26.709-.493 1.106-.69zM20.1 15.96c.511.255.973.567 1.391.925 5.47-1.638 8.228-9.658 9.158-13.032.061-.22-.181-.402-.373-.279-6.29 4.028-9.493 10.152-10.176 12.386z" fill="#47A1B4"/><path d="M20.1 15.96c.397.198.764.43 1.105.69.807-2.294 3.673-7.521 9.011-11.348.172-.538.316-1.03.432-1.45.061-.22-.181-.402-.373-.279-6.289 4.029-9.492 10.153-10.175 12.387z" fill="#4295AC"/><path d="M12.716 24.542l-2.036-4.071c-.089-.178-.341-.188-.44-.014-.343.602-.867 1.873-.339 3.402.049.143.166.251.309.299l2.033.678c.383.126.573-.094.473-.294z" fill="#fff"/><path d="M11.208 21.525c-.301.548-.698 1.564-.44 2.817l1.646.549c.211.07.402-.15.303-.349l-1.509-3.017z" fill="#373F3F"/><path d="M19.256 24.542l2.036-4.071c.089-.178.341-.188.44-.014.343.602.867 1.873.339 3.402-.049.143-.166.251-.309.299l-2.204.735c-.212.069-.402-.151-.302-.351z" fill="#F7F7F7"/><path d="M20.764 21.525c.301.548.698 1.564.44 2.817l-1.646.549c-.211.07-.402-.15-.303-.349l1.509-3.017z" fill="#2B3332"/></svg>