<svg xmlns="http://www.w3.org/2000/svg" width="32" height="32" viewBox="0 0 32 32"><path d="M19.621 0c-1.783 0-3.287 1.328-3.508 3.097l-.113.903v4h5l1.619-2.591c1.472-2.354-.221-5.409-2.998-5.409z" fill="#F79654"/><path d="M20.866.229c1.991.744 2.987 3.205 1.753 5.18l-1.619 2.591h-2.505l2.371-7.771z" fill="#EF8C48"/><path d="M22 12l5.341-.801c2.453-.368 4.659 1.532 4.659 4.012 0 2.507-2.251 4.414-4.724 4.002l-7.276-1.213 2-6z" fill="#F79654"/><path d="M31.977 15l.023.211c0 2.507-2.251 4.414-4.724 4.002l-7.276-1.213 1-3h10.977z" fill="#EF8C48"/><path d="M20 8l3.935-3.935c1.959-1.959 5.274-1.344 6.4 1.188.909 2.046-.063 4.438-2.142 5.269l-6.193 2.478-2-5z" fill="#F79654"/><path d="M29.673 4.235c.262.295.489.631.661 1.018.909 2.046-.063 4.438-2.142 5.269l-6.192 2.478-.909-2.274 8.582-6.491z" fill="#EF8C48"/><path d="M16 4l-.113-.903c-.221-1.769-1.725-3.097-3.508-3.097-2.777 0-4.47 3.055-2.998 5.409l1.619 2.591h5v-4z" fill="#FCA15E"/><path d="M11.134.229c-1.991.744-2.987 3.205-1.753 5.18l1.619 2.591h2.505l-2.371-7.771z" fill="#F79654"/><path d="M10 12l-5.341-.801c-2.453-.368-4.659 1.532-4.659 4.012 0 2.507 2.251 4.414 4.724 4.002l7.276-1.213-2-6z" fill="#FCA15E"/><path d="M.023 15l-.023.211c0 2.507 2.251 4.414 4.724 4.002l7.276-1.213-1-3h-10.977z" fill="#F79654"/><path d="M12 8l-3.935-3.935c-1.959-1.959-5.274-1.344-6.4 1.188-.909 2.046.063 4.438 2.142 5.269l6.193 2.478 2-5z" fill="#FCA15E"/><path d="M2.327 4.235c-.262.295-.49.631-.662 1.018-.909 2.046.063 4.438 2.142 5.269l6.193 2.478.909-2.274-8.582-6.491z" fill="#F79654"/><path d="M21.782 21.714l-.008.001c.002.309-.016.618-.072.925l-1.52 8.36h1.318c.281 0 .507-.231.5-.512l-.218-8.774z" fill="#9E6E43"/><path d="M11.68 17.64l-.935 1.869c-.484.968-.641 2.066-.447 3.13l1.627 8.95c.044.238.251.411.492.411h2.083c.276 0 .5-.224.5-.5v-5.5h1v-6.009c-1.753 0-3.37-.895-4.32-2.351z" fill="#B38658"/><path d="M20.32 17.64c-.95 1.456-2.567 2.351-4.32 2.351v6.009h1v5.5c0 .276.224.5.5.5h2.083c.242 0 .449-.173.492-.411l1.627-8.95c.194-1.064.037-2.163-.447-3.13l-.935-1.869z" fill="#A7794C"/><path d="M21.916 27h-1.007l-.727 4h1.318c.281 0 .507-.231.5-.512l-.084-3.488z" fill="#914C39"/><path d="M17 28v3.5c0 .276.224.5.5.5h2.083c.242 0 .449-.173.492-.411l.652-3.589h-3.727z" fill="#99533D"/><path d="M11.273 28l.653 3.589c.043.238.25.411.491.411h2.083c.276 0 .5-.224.5-.5v-3.5h-3.727z" fill="#A55F49"/><path d="M17.326 19.816c-.427.114-.872.175-1.326.175v6.009h1l1.067-1.068c.566-.566.74-1.414.443-2.157l-1.184-2.959z" fill="#FAE09F"/><path d="M13.49 22.776c-.297.743-.123 1.591.443 2.157l1.067 1.067h1v-6.009c-.454 0-.899-.061-1.326-.175l-1.184 2.96z" fill="#FDEBBB"/><path d="M10.218 21.714l.008.001c-.002.309.016.618.072.925l1.52 8.36h-1.318c-.281 0-.507-.231-.5-.512l.218-8.774z" fill="#A7794C"/><path d="M10.085 27h1.007l.727 4h-1.319c-.281 0-.507-.231-.5-.512l.085-3.488z" fill="#99533D"/><path d="M18.838 7c.865 0 1.659.372 2.215.982.358-.119 2.674-.859 5.308-.969.339-.014.59.306.504.635-.774 2.972-3.482 5.294-4.486 6.071-.11.42-.269.829-.488 1.213l-1.402 2.454c-.92 1.611-2.633 2.605-4.488 2.605v-12.991h2.837z" fill="#B38658"/><path d="M26.866 7.648c-.774 2.972-3.482 5.293-4.485 6.07h-.002s.442-1.54-.114-2.931c0 .001 1.507-2.412 4.601-3.139z" fill="#99533D"/><path d="M13.162 7c-.865 0-1.659.372-2.215.982-.358-.119-2.674-.859-5.308-.969-.339-.014-.589.307-.504.635.774 2.972 3.482 5.294 4.486 6.071.11.42.269.829.488 1.213l1.402 2.454c.92 1.611 2.633 2.605 4.488 2.605v-12.991h-2.837z" fill="#C09265"/><path d="M14.5 14c0 1.105-.395 2-1.5 2s-1.5-.895-1.5-2 .395-2 1.5-2 1.5.895 1.5 2z" fill="#373F3F"/><circle cx="13" cy="13.5" r=".5" fill="#fff"/><path d="M13 15c-.679 0-1.149-.196-1.467-.509.11.866.533 1.509 1.467 1.509s1.357-.643 1.467-1.509c-.318.313-.788.509-1.467.509z" fill="#A55F49"/><path d="M20.5 14c0 1.105-.395 2-1.5 2s-1.5-.895-1.5-2 .395-2 1.5-2 1.5.895 1.5 2zM20.5 14c0 1.105-.395 2-1.5 2s-1.5-.895-1.5-2 .395-2 1.5-2 1.5.895 1.5 2z" fill="#2B3332"/><circle cx="19" cy="13.5" r=".5" fill="#F7F7F7"/><path d="M19 15c-.679 0-1.149-.196-1.467-.509.11.866.533 1.509 1.467 1.509s1.357-.643 1.467-1.509c-.318.313-.788.509-1.467.509z" fill="#99533D"/><path d="M19 5c-.601 0-1.133.27-1.5.69-.367-.42-.899-.69-1.5-.69v6c.601 0 1.133-.27 1.5-.69.367.42.899.69 1.5.69 1.105 0 2-.895 2-2v-2c0-1.105-.895-2-2-2z" fill="#FCA15E"/><path d="M14.5 5.69c-.367-.42-.899-.69-1.5-.69-1.105 0-2 .895-2 2v2c0 1.105.895 2 2 2 .601 0 1.133-.27 1.5-.69.367.42.899.69 1.5.69v-6c-.601 0-1.133.27-1.5.69z" fill="#FFAD68"/><path d="M5.138 7.648c.774 2.972 3.482 5.293 4.485 6.07h.002s-.442-1.54.114-2.931c-.001.001-1.507-2.412-4.601-3.139z" fill="#A55F49"/><path d="M15.996 17.384l-.35-.012c-.248-.021-.503.092-.604.32-.201.452.365.863.711 1.064.075.044.159.064.243.064v-1.436z" fill="#373F3F"/><path d="M15.996 17.384v1.436c.088.001.176-.021.255-.066.296-.172.75-.497.75-.869-.001-.554-.452-.501-1.005-.501z" fill="#2B3332"/></svg>