<svg xmlns="http://www.w3.org/2000/svg" width="32" height="32" viewBox="0 0 32 32"><path d="M16 .326c-.24 0-.479.085-.665.256-9.304 8.561.665 18.419.665 18.419v-18.675z" fill="#FFD04D"/><path d="M16.665.582c-.186-.171-.425-.256-.665-.256v18.675s9.969-9.858.665-18.419z" fill="#F7C845"/><path d="M16 23.619s3.174-3.459 7.169-7.351c3.805-3.708 3.046-8.773 1.126-13.556-.089-.221-.408-.205-.473.024-.424 1.496-1.741 5.05-5.35 8.635-4.743 4.712-2.472 12.248-2.472 12.248z" fill="#FFD04D"/><path d="M16 23.619s2.935-6.258 8.208-10.077c3.67-2.658 5.037-5.27 5.529-6.612.086-.235.43-.204.477.042.511 2.658 1.394 10.047-3.756 13.028-6.333 3.667-7.875 2.667-10.458 6v-2.381z" fill="#F7C845"/><path d="M16 26s3.125-4.479 6.667-6.333c3.32-1.738 6.31-1.133 8.834-4.036.159-.183.461-.057.434.185-.224 2.013-1.208 7.153-5.435 8.518-5.292 1.708-9.083.208-10.5 3.666v-2z" fill="#FFD04D"/><path d="M16 29s.417-2.917 4.5-4.542c3.976-1.582 5.068 1.141 10.084-.945.183-.076.385.069.35.264-.266 1.453-1.507 5.964-6.642 5.764-6.118-.237-8.292 1.459-8.292 1.459v-2z" fill="#F7C845"/><path d="M16 23.619s-3.174-3.459-7.169-7.351c-3.805-3.708-3.045-8.773-1.126-13.556.089-.221.408-.205.473.024.424 1.496 1.741 5.05 5.35 8.635 4.743 4.712 2.472 12.248 2.472 12.248z" fill="#FFD96C"/><path d="M16 23.619s-2.935-6.258-8.208-10.077c-3.67-2.658-5.037-5.27-5.529-6.612-.086-.235-.43-.204-.477.042-.511 2.658-1.394 10.047 3.756 13.028 6.333 3.667 7.875 2.667 10.458 6v-2.381z" fill="#FFD04D"/><path d="M16 26s-3.125-4.479-6.667-6.333c-3.32-1.738-6.31-1.133-8.834-4.036-.159-.183-.461-.057-.434.185.224 2.013 1.208 7.153 5.435 8.518 5.292 1.708 9.083.208 10.5 3.666v-2z" fill="#FFD96C"/><path d="M16 29s-.417-2.917-4.5-4.542c-3.976-1.582-5.068 1.142-10.084-.945-.183-.076-.385.069-.35.264.266 1.453 1.507 5.964 6.642 5.764 6.118-.237 8.292 1.459 8.292 1.459v-2z" fill="#FFD04D"/><path d="M16 23l3.292-1.646c.423-.212.934-.129 1.268.206.273.273.383.669.289 1.044l-1.78 7.122c-.043.17.007.351.132.475l.653.653c.093.093.146.22.146.353v.293c0 .276-.224.5-.5.5h-3.5v-9z" fill="#FFEAA7"/><path d="M16 23l-3.292-1.646c-.423-.212-.934-.129-1.268.206-.273.273-.383.669-.289 1.044l1.78 7.122c.043.17-.007.351-.132.475l-.653.653c-.093.093-.146.22-.146.353v.293c0 .276.224.5.5.5h3.5v-9zM19 23l-1.258 5.451c-.16.691-.17 1.409-.031 2.105l.169.846c.062.309-.174.598-.49.598h-1.39v-9h3z" fill="#FEF1C6"/><path d="M13 23l1.258 5.451c.16.691.17 1.409.031 2.105l-.169.846c-.062.309.174.598.49.598h1.39v-9h-3z" fill="#FFF5D8"/><path d="M16 18h-3l-.103.205c-1.031 2.063-.756 4.516.653 6.291.149.187.45.087.45-.152v-.344l1.646 1.646c.098.098.226.146.354.146v-7.792z" fill="#FFE28A"/><path d="M19 18h-3v7.793c.128 0 .256-.049.354-.146l1.646-1.647v.344c0 .239.301.34.45.152 1.409-1.775 1.685-4.228.653-6.291l-.103-.205z" fill="#FFD96C"/><path d="M18.374 12.901c-.748-.374-1.561-.561-2.374-.561v9.66h.003c1.022 0 1.929-.654 2.252-1.623l.06-.18c.168-.505.452-.964.828-1.34l.436-.436c.461-.461.781-1.044.923-1.681l1.19-5.354c.102-.461-.432-.794-.8-.499l-2.518 2.014z" fill="#FEF1C6"/><path d="M13.626 12.901l-2.518-2.014c-.369-.295-.903.038-.8.499l1.19 5.354c.141.636.461 1.219.922 1.68l.436.436c.376.376.66.835.828 1.34l.06.18c.324.97 1.231 1.624 2.253 1.624h.003v-9.659c-.813 0-1.626.186-2.374.56z" fill="#FFF5D8"/><path d="M16.75 20.501c0-.552-.336-.5-.75-.5v1c.414 0 .75.053.75-.5z" fill="#2B3332"/><path d="M16 20.001c-.414 0-.75-.052-.75.5s.336.5.75.5v-1z" fill="#373F3F"/><path d="M14.47 18.197c-.085-.52-.411-1.539-1.668-1.68-.162-.018-.299.126-.273.287.085.52.411 1.539 1.668 1.68.162.018.299-.126.273-.287z" fill="#99533D"/><path d="M17.53 18.197c.085-.52.411-1.539 1.668-1.68.162-.018.299.126.273.287-.085.52-.411 1.539-1.668 1.68-.162.018-.299-.126-.273-.287z" fill="#914C39"/><path d="M16 3.452c-.096 0-.193.054-.234.161l-1.366 3.587-.651-.769c-.152-.179-.446-.069-.441.166.048 2.095.292 3.803.292 3.803l-.582-.688c-.166-.196-.483-.045-.438.208.258 1.44 1.046 2.981 1.046 2.981.621.587 1.577.888 2.374.888v-10.337z" fill="#FFE28A"/><path d="M18.982 9.712l-.582.688s.244-1.708.292-3.803c.005-.235-.289-.345-.441-.166l-.651.769-1.366-3.587c-.041-.107-.138-.161-.234-.161v10.337c.796 0 1.752-.302 2.373-.889 0 0 .789-1.541 1.047-2.981.045-.252-.272-.403-.438-.207z" fill="#FFD96C"/></svg>