<svg xmlns="http://www.w3.org/2000/svg" width="32" height="32" viewBox="0 0 32 32"><path d="M11.042 3.984c-2.286-.503-7.053-1.444-7.778-.72-.724.724.217 5.492.72 7.778-.423 1.023-.71 2.114-.859 3.249l-2.279.76c-.912.304-.912 1.593 0 1.897l3.017 1.006c2.413 4.207 6.939 7.046 12.137 7.046v-22c-1.756 0-3.429.353-4.958.984z" fill="#FDE2E6"/><path d="M31.154 15.051l-2.279-.76c-.149-1.135-.436-2.226-.859-3.249.503-2.286 1.445-7.054.72-7.778-.724-.724-5.492.217-7.778.72-1.529-.631-3.202-.984-4.958-.984v22c5.198 0 9.724-2.839 12.137-7.046l3.017-1.006c.912-.303.912-1.593 0-1.897z" fill="#FCD8DE"/><ellipse transform="matrix(.966 -.259 .259 .966 -7.012 3.26)" cx="8.873" cy="28.26" rx="5" ry="2.5" fill="#FBCFD6"/><ellipse transform="matrix(.259 -.966 .966 .259 -10.156 43.284)" cx="23.127" cy="28.26" rx="2.5" ry="5" fill="#FAC4D1"/><path d="M16 1c-2.209 0-4 1.791-4 4 0 1.129.471 2.144 1.224 2.871-.142.349-.224.729-.224 1.129 0 1.657 1.343 3 3 3v-11z" fill="#FEF5F7"/><path d="M19 9c0-.4-.082-.78-.224-1.129.753-.727 1.224-1.742 1.224-2.871 0-2.209-1.791-4-4-4v11c1.657 0 3-1.343 3-3z" fill="#FDECEF"/><circle cx="9" cy="15" r="4" fill="#fff"/><path d="M9 16c-1.182 0-2.234-.523-2.966-1.338l-.034.338c0 1.657 1.343 3 3 3s3-1.343 3-3l-.034-.338c-.732.815-1.784 1.338-2.966 1.338z" fill="#4CAEBC"/><path d="M9 16c1.182 0 2.234-.523 2.966-1.338-.17-1.496-1.425-2.662-2.966-2.662s-2.796 1.166-2.966 2.662c.732.815 1.784 1.338 2.966 1.338z" fill="#51BAC5"/><circle cx="9" cy="14" r="1" fill="#fff"/><circle cx="23" cy="15" r="4" fill="#F7F7F7"/><path d="M23 16c-1.182 0-2.234-.523-2.966-1.338l-.034.338c0 1.657 1.343 3 3 3s3-1.343 3-3l-.034-.338c-.732.815-1.784 1.338-2.966 1.338z" fill="#47A1B4"/><path d="M23 16c1.182 0 2.234-.523 2.966-1.338-.17-1.496-1.425-2.662-2.966-2.662s-2.796 1.166-2.966 2.662c.732.815 1.784 1.338 2.966 1.338z" fill="#4CAEBC"/><circle cx="23" cy="14" r="1" fill="#F7F7F7"/><path d="M16 18c-.828 0-1.5.672-1.5 1.5s.672 1.5 1.5 1.5v-3z" fill="#373F3F"/><path d="M17.5 19.5c0-.828-.672-1.5-1.5-1.5v3c.828 0 1.5-.672 1.5-1.5z" fill="#2B3332"/><path d="M9.589 4.699c-1.283-.26-3.097-.54-4.501-.637-.609-.042-1.117.454-1.073 1.063.08 1.116.341 2.766.683 4.468 1.159-2.041 2.851-3.734 4.891-4.894z" fill="#373F3F"/><path d="M3.863 17.954l-.734-.244c.838 6.369 6.272 11.29 12.871 11.29v-4c-5.198 0-9.724-2.839-12.137-7.046z" fill="#FCD8DE"/><path d="M28.137 17.954c-2.413 4.207-6.939 7.046-12.137 7.046v4c6.599 0 12.033-4.921 12.871-11.29l-.734.244z" fill="#FBCFD6"/><path d="M22.423 4.699c1.283-.26 3.097-.54 4.501-.637.609-.042 1.117.453 1.073 1.062-.08 1.116-.341 2.766-.683 4.468-1.159-2.04-2.852-3.733-4.891-4.893z" fill="#2B3332"/></svg>