<svg xmlns="http://www.w3.org/2000/svg" width="32" height="32" viewBox="0 0 32 32"><path d="M11.796 7.234c-.54-1.015-1.305-1.986-1.971-2.651-1.562-1.563-6.923-5.805-8.485-4.243-1.562 1.562 2.68 6.923 4.242 8.485.656.656 1.608 1.408 2.607 1.947-1.356 1.978-2.32 4.358-2.811 6.743l-3.42 1.71c-.89.445-1.318 1.477-1.003 2.421v.001c.26.78 1.048 1.254 1.859 1.119l2.263-.377c.586 5.568 4.783 7.611 10.923 7.611v-24c-1.533 0-2.939.463-4.204 1.234z" fill="#FCD8DE"/><path d="M29.894 19.224l-3.258-1.629c-.486-2.412-1.455-4.824-2.826-6.824.999-.539 1.951-1.291 2.607-1.947 1.562-1.562 5.805-6.923 4.243-8.485-1.562-1.562-6.923 2.681-8.485 4.243-.666.666-1.43 1.636-1.971 2.651-1.265-.77-2.671-1.233-4.204-1.233v24c6.13 0 10.324-2.038 10.919-7.588l2.119.353c.811.135 1.599-.34 1.859-1.119v-.001c.315-.944-.113-1.976-1.003-2.421z" fill="#FBCFD6"/><path d="M17.076 29.233c-.24 1.36 1.526 1.792 4.664 2.345s4.945.751 5.185-.609c.24-1.36-1.526-1.792-4.664-2.345s-4.945-.751-5.185.609z" fill="#FAC4D1"/><path d="M14.924 29.233c.24 1.36-1.526 1.792-4.664 2.345s-4.945.751-5.185-.609c-.24-1.36 1.526-1.792 4.664-2.345s4.945-.751 5.185.609z" fill="#FBCFD6"/><circle cx="10.5" cy="14.5" r="3" fill="#fff"/><path d="M10.5 15.167c-.788 0-1.489-.348-1.977-.892l-.023.225c0 1.105.895 2 2 2s2-.895 2-2l-.023-.225c-.488.543-1.189.892-1.977.892z" fill="#4CAEBC"/><path d="M10.5 15.167c.788 0 1.489-.348 1.977-.892-.113-.997-.95-1.775-1.977-1.775s-1.864.778-1.977 1.775c.488.543 1.189.892 1.977.892z" fill="#51BAC5"/><circle cx="10.5" cy="13.5" r=".5" fill="#fff"/><circle cx="21.5" cy="14.5" r="3" fill="#F7F7F7"/><path d="M21.5 15.167c-.788 0-1.489-.348-1.977-.892l-.023.225c0 1.105.895 2 2 2s2-.895 2-2l-.023-.225c-.488.543-1.189.892-1.977.892z" fill="#47A1B4"/><path d="M21.5 15.167c.788 0 1.489-.348 1.977-.892-.113-.997-.95-1.775-1.977-1.775s-1.864.778-1.977 1.775c.488.543 1.189.892 1.977.892z" fill="#4CAEBC"/><circle cx="21.5" cy="13.5" r=".5" fill="#F7F7F7"/><path d="M15.98 16.989c-3.866.012-6.986 4.603-6.973 9.021.003.996.172 1.945.466 2.823 1.767.811 3.987 1.163 6.546 1.156l-.039-13z" fill="#FDECEF"/><path d="M22.543 28.824c.291-.879.457-1.828.457-2.824 0-4.418-3.134-9-7-9v13c2.56 0 4.778-.359 6.543-1.176z" fill="#FDE2E6"/><path d="M16 18.5c-.57 0-.767-.345-.778-.365-.063-.121-.21-.169-.334-.109-.124.062-.173.212-.112.335.013.027.33.639 1.224.639v-.5z" fill="#373F3F"/><path d="M17.224 18.362c.061-.122.012-.269-.109-.332s-.272-.015-.336.105c-.009.015-.204.365-.779.365v.5c.894 0 1.21-.612 1.224-.638z" fill="#2B3332"/><path d="M16.011 11v-5c1.447 0 2.779.417 3.989 1.11-.06 2.157-1.818 3.89-3.989 3.89z" fill="#FCD8DE"/><path d="M16.011 11c-1.657 0-3-1.343-3-3s1.343-3 3-3v6z" fill="#FDECEF"/><path d="M16.011 5c1.105 0 2 .895 2 2s-.895 2-2 2v-4z" fill="#FDE2E6"/><path d="M8.783 9.95c.651-.824 1.385-1.541 2.178-2.143-.461-.891-1.152-1.826-1.843-2.517-1.456-1.456-5.188-4.29-6.835-4.29-.14 0-.215.025-.236.047-.546.545 1.675 4.503 4.242 7.071.676.675 1.6 1.368 2.494 1.832z" fill="#373F3F"/><path d="M23.217 9.95c.894-.464 1.818-1.157 2.494-1.832 2.567-2.568 4.788-6.526 4.242-7.071-.021-.022-.097-.047-.236-.047-1.646 0-5.379 2.834-6.835 4.29-.691.691-1.382 1.626-1.842 2.517.792.602 1.526 1.319 2.177 2.143z" fill="#2B3332"/></svg>