<svg xmlns="http://www.w3.org/2000/svg" width="32" height="32" viewBox="0 0 32 32"><path d="M23.846 12.792c3.345 5.174.926 9.156-.188 10.548l-.072.008s-.296-5.91-7.234-6.16l.5-2.688c.001 0 3.305.944 6.994-1.708z" fill="#945BA0"/><path d="M23.846 12.793c1.681-1.208 3.442-3.163 5.007-6.293 0 0 6 10 0 20 0 0-1.245-3.825-5.266-3.152l.072-.008c1.113-1.392 3.532-5.374.187-10.547z" fill="#A366AD"/><path d="M29.282 6.243c-.093-.156-.261-.244-.447-.243-.183.007-.347.113-.428.276-4.738 9.477-11.146 7.818-11.417 7.742-.262-.069-.541.081-.616.346-.075.265.078.541.343.617.077.021 1.923.531 4.413-.254.766-.242 1.648-.632 2.581-1.245.588.99 2.921 5.501-.593 9.697-.177.211-.149.527.062.704.092.079.206.117.319.117.143 0 .285-.061.384-.179 3.971-4.741 1.215-9.95.639-10.924 1.435-1.122 2.947-2.799 4.33-5.317 1.227 2.556 4.372 10.664-.427 18.663-.142.237-.065.544.171.686.081.048.17.071.257.071.17 0 .335-.086.429-.243 6.084-10.14.062-20.412 0-20.514z" fill="#0A6F8E"/><path d="M22.586 11.657c1.147-1.147 1.365-3.966 1.405-5.136.01-.287-.225-.522-.512-.512-1.169.041-3.989.259-5.136 1.405-.646.646-.721 1.546-.605 2.352-.543-.164-1.124-.262-1.738-.262v14.489c.979 0 1.885-.292 2.656-.777 1.218 2.031 3.028 4.941 3.311 4.778.289-.167-1.391-3.298-2.545-5.37.967-.91 1.578-2.191 1.578-3.624 0-.312-.03-.616-.087-.911-.208-1.075-.191-2.177.011-3.253.05-.266.076-.545.076-.836 0-.624-.128-1.187-.337-1.698.683.031 1.39-.112 1.923-.645z" fill="#0F769B"/><path d="M8.154 12.792c-3.345 5.174-.926 9.156.188 10.548l.072.008s.296-5.91 7.234-6.16l-.5-2.688c-.001 0-3.305.944-6.994-1.708z" fill="#A366AD"/><path d="M8.154 12.793c-1.682-1.209-3.442-3.163-5.007-6.293 0 0-6 10 0 20 0 0 1.245-3.825 5.266-3.152l-.072-.008c-1.113-1.392-3.532-5.374-.187-10.547z" fill="#B370B9"/><path d="M15.627 14.364c-.075-.265-.354-.415-.616-.346-.271.076-6.679 1.735-11.417-7.742-.082-.163-.246-.269-.429-.276-.186-.001-.354.087-.447.243-.062.103-6.084 10.375 0 20.515.093.156.259.242.429.242.087 0 .176-.023.257-.071.237-.142.313-.449.171-.686-4.799-7.999-1.654-16.107-.427-18.663 1.383 2.518 2.895 4.195 4.33 5.317-.577.973-3.332 6.182.639 10.924.098.118.24.179.384.179.113 0 .227-.038.32-.117.212-.177.24-.493.062-.704-3.515-4.197-1.182-8.707-.593-9.697.933.613 1.815 1.003 2.581 1.245 2.489.786 4.335.275 4.413.254.265-.076.418-.352.343-.617z" fill="#0F769B"/><path d="M15.33 9.534c-.37.037-.724.127-1.07.239.118-.807.044-1.711-.604-2.358-1.146-1.147-3.965-1.365-5.135-1.406-.287-.01-.522.225-.512.512.041 1.169.259 3.989 1.405 5.136.539.539 1.256.68 1.947.644-.228.512-.357 1.074-.361 1.668-.002.358.035.698.107 1.019.241 1.073.121 2.18-.049 3.266-.103.658-.074 1.362.128 2.091.244.883.735 1.671 1.385 2.289-1.153 2.071-2.827 5.193-2.539 5.359.283.164 2.088-2.737 3.306-4.768.518.33 1.092.573 1.709.687.323.06.641.081.953.08v-14.488c-.221-.001-.443.007-.67.03z" fill="#137FA0"/><path d="M12.11 11.172c.293-.329.628-.618 1.005-.859.221-.74.342-1.685-.165-2.192-.618-.617-2.211-.94-3.626-1.062-.154-.013-.283.116-.27.269.118 1.385.44 2.994 1.068 3.622.241.241.583.358 1.044.358.322 0 .649-.059.944-.136z" fill="#B370B9"/><path d="M19.05 8.122c-.491.491-.394 1.396-.186 2.125.431.254.804.576 1.121.946.271.065.561.115.85.115.461 0 .803-.117 1.044-.358.628-.628.95-2.238 1.068-3.623.013-.154-.116-.282-.27-.269-1.403.121-3.007.444-3.627 1.064z" fill="#A366AD"/><path d="M16 13c-1.657 0-3 .343-3 2s1.343 2 3 2v-4z" fill="#373F3F"/><path d="M19 15c0-1.657-1.343-2-3-2v4c1.657 0 3-.343 3-2z" fill="#2B3332"/><path d="M14.082 16.705c.259.109.55.185.872.229-.086-.564-.278-1.684-.454-1.684-.155 0-.321.863-.418 1.455z" fill="#fff"/><path d="M16.538 13.016c.081.54.279 1.734.462 1.734.169 0 .352-1.027.442-1.608-.279-.065-.579-.108-.904-.126z" fill="#F7F7F7"/><path d="M14.558 13.142c.09.581.273 1.608.442 1.608.182 0 .381-1.194.462-1.734-.325.018-.625.061-.904.126z" fill="#fff"/><path d="M17.046 16.934c.322-.044.613-.12.872-.229-.096-.592-.263-1.455-.418-1.455-.176 0-.369 1.12-.454 1.684z" fill="#F7F7F7"/><path d="M12.11 11.172c.293-.329.628-.618 1.005-.859.221-.74.342-1.685-.165-2.192l-.132-.103c-1.509.092-2.707 1.291-2.8 2.8l.103.132c.241.241.583.358 1.044.358.323 0 .65-.059.945-.136z" fill="#945BA0"/><path d="M19.182 8.018l-.132.103c-.491.491-.394 1.396-.186 2.125.431.254.804.576 1.121.946.271.065.561.115.85.115.461 0 .803-.117 1.044-.358l.103-.132c-.093-1.508-1.291-2.706-2.8-2.799z" fill="#845194"/></svg>