<svg xmlns="http://www.w3.org/2000/svg" width="32" height="32" viewBox="0 0 32 32"><path d="M13 15.5s-7.5 0-5.5-8l-7-2s2.163 3.726-.073 6.953c-.183.264-.071.631.23.742 1.326.489 4.21 2.078 4.36 6.675.013.405.472.641.792.393 1.205-.935 3.709-2.305 7.191-1.263v-3.5z" fill="#A366AD"/><path d="M.427 12.453c-.099.142-.106.312-.049.458l6.907-1.628c-.198-1.004-.17-2.243.215-3.783l-7-2s2.163 3.726-.073 6.953z" fill="#C27BC6"/><path d="M9.017 14.155c-.796-.623-1.468-1.534-1.732-2.872l-6.907 1.628c.048.125.141.233.279.284 1.326.489 4.21 2.078 4.36 6.675.008.241.177.405.376.461l3.624-6.176z" fill="#B370B9"/><path d="M19 15.5s7.5 0 5.5-8l7-2s-2.163 3.726.073 6.953c.183.264.071.631-.23.742-1.326.489-4.21 2.078-4.36 6.675-.013.405-.472.641-.792.393-1.206-.935-3.709-2.305-7.191-1.263v-3.5z" fill="#945BA0"/><path d="M31.573 12.453c.099.142.106.312.049.458l-6.907-1.628c.198-1.004.17-2.243-.215-3.783l7-2s-2.163 3.726.073 6.953z" fill="#B370B9"/><path d="M22.983 14.155c.796-.623 1.468-1.534 1.732-2.872l6.907 1.628c-.048.125-.141.233-.279.284-1.326.489-4.21 2.078-4.36 6.675-.008.241-.177.405-.376.461l-3.624-6.176z" fill="#A366AD"/><path d="M19.5 16c.123 0 3.036-.025 4.723-2.186 1.123-1.438 1.415-3.442.872-5.964l6.542-1.869c.266-.076.419-.353.344-.618-.076-.266-.355-.415-.618-.344l-7 2c-.259.074-.413.341-.348.602.606 2.426.413 4.3-.575 5.571-1.382 1.777-3.916 1.808-3.941 1.808-.276.001-.499.225-.499.501s.224.499.5.499z" fill="#0A6F8E"/><path d="M12.5 16c-.123 0-3.036-.025-4.723-2.186-1.123-1.438-1.415-3.442-.872-5.964l-6.542-1.869c-.266-.076-.42-.353-.344-.618.076-.266.355-.415.618-.344l7 2c.259.074.413.341.348.602-.606 2.426-.413 4.3.575 5.571 1.382 1.777 3.916 1.808 3.941 1.808.276.001.499.225.499.501s-.224.499-.5.499z" fill="#0F769B"/><path d="M15.464 11.023c-.3.028-.587.098-.867.186-.406-.733-1.05-1.709-1.597-1.709-.875 0-1 4.891-1 4.891-.001.168.01.33.032.487.146 1.037.222 2.08.084 3.119-.156 1.171-.164 2.56.033 3.235.4 1.371 1.615 2.45 3.089 2.708.258.044.512.06.762.06v-13c-.176 0-.355.006-.536.023z" fill="#137FA0"/><path d="M20 14.414l-.003-.025.003.002s-.125-4.891-1-4.891c-.545 0-1.188.971-1.594 1.703-.439-.127-.909-.203-1.406-.203v13c2.208-.001 4-1.694 4-3.79 0-.358-.055-1.203-.156-2.03-.128-1.051-.099-2.111.099-3.151.037-.196.057-.401.057-.615zM14.5 25c-.4 0-.751.083-1.081.194-.353-.782-.144-1.472.159-1.971-.276-.201-.523-.434-.736-.695-.532.786-.887 1.89-.322 3.107-.952.653-1.437 1.582-1.467 1.642-.123.247-.023.545.223.669.072.036.148.053.224.053.183 0 .359-.1.447-.274.008-.017.895-1.725 2.553-1.725.276 0 .5-.224.5-.5s-.224-.5-.5-.5z" fill="#0F769B"/><path d="M20.947 27.276c-.03-.06-.516-.989-1.467-1.642.567-1.221.207-2.329-.328-3.115-.214.261-.46.494-.737.694.307.5.522 1.192.166 1.98-.33-.11-.681-.193-1.081-.193-.276 0-.5.224-.5.5s.224.5.5.5c1.658 0 2.545 1.708 2.554 1.725.088.174.264.274.447.274.076 0 .152-.017.224-.053.246-.124.345-.423.222-.67z" fill="#0A6F8E"/><path d="M16 15.5c-.569 0-1.125-.042-1.663-.122-.636-.094-1.185.401-1.16 1.044.024.612.002 1.169-.069 1.706-.162 1.21-.126 2.386.001 2.823.294 1.008 1.219 1.813 2.302 2.003.199.035.396.046.589.046v-7.5z" fill="#373F3F"/><path d="M19 20.21c0-.276-.047-1.075-.149-1.909-.076-.629-.099-1.256-.07-1.877.03-.641-.52-1.132-1.155-1.04-.526.076-1.07.116-1.626.116v7.5c1.654-.001 3-1.253 3-2.79z" fill="#2B3332"/><path d="M13.397 13.199l1.432.716c.115.057.169.192.123.312-.085.22-.316.523-.952.523-.666 0-.888-.776-.963-1.295-.028-.199.18-.346.36-.256z" fill="#fff"/><path d="M13.75 14.709c.078.028.155.041.25.041l.25-.017v-1.108l-.5-.25v1.334z" fill="#373F3F"/><path d="M18.603 13.199l-1.432.716c-.115.057-.169.192-.123.312.084.221.316.524.952.524.666 0 .888-.776.963-1.295.028-.2-.18-.347-.36-.257z" fill="#F7F7F7"/><path d="M18.25 14.709c-.078.028-.155.041-.25.041l-.25-.017v-1.108l.5-.25v1.334z" fill="#2B3332"/><path d="M17.627 15.384l-.521.056c.098.577.251 1.31.394 1.31.146 0 .302-.763.4-1.346l-.273-.02z" fill="#F7F7F7"/><path d="M14.337 15.378l-.238.017c.098.584.255 1.354.401 1.354.143 0 .296-.733.394-1.31l-.557-.061zM14.136 22.39c.242.182.511.331.801.434-.092-.586-.271-1.574-.437-1.574-.129 0-.266.598-.364 1.14z" fill="#fff"/><path d="M17.862 22.38c-.098-.539-.233-1.13-.362-1.13-.164 0-.342.971-.435 1.559.292-.103.557-.251.797-.429z" fill="#F7F7F7"/><path d="M14.121 11.379c-.38-.666-.789-1.21-1.032-1.347-.188.33-.37 1.327-.482 2.554.375-.514.902-.93 1.514-1.207z" fill="#C27BC6"/><path d="M19.387 12.524c-.113-1.197-.291-2.165-.476-2.491-.244.137-.652.679-1.031 1.343.618.26 1.138.645 1.507 1.148z" fill="#B370B9"/></svg>