<svg xmlns="http://www.w3.org/2000/svg" width="32" height="32" viewBox="0 0 32 32"><path d="M29.626 3.846c-.227-.347-.765-.281-.895.113-.513 1.555-1.872 4.666-4.959 6.8 1.265.469 2.424 1.172 3.225 2.238 2.278-.729 4.003-2.201 4.003-4.997 0 0 .029-2.005-1.374-4.154zM29.626 3.846c-.227-.347-.765-.281-.895.113-.513 1.555-1.872 4.666-4.959 6.8 1.265.469 2.424 1.172 3.225 2.238 2.278-.729 4.003-2.201 4.003-4.997 0 0 .029-2.005-1.374-4.154z" fill="#EB6B48"/><path d="M8.228 10.759c-3.086-2.135-4.445-5.245-4.959-6.8-.13-.394-.669-.461-.895-.113-1.403 2.149-1.374 4.154-1.374 4.154 0 2.796 1.725 4.269 4.003 4.997.801-1.066 1.96-1.769 3.225-2.238zM8.228 10.759c-3.086-2.135-4.445-5.245-4.959-6.8-.13-.394-.669-.461-.895-.113-1.403 2.149-1.374 4.154-1.374 4.154 0 2.796 1.725 4.269 4.003 4.997.801-1.066 1.96-1.769 3.225-2.238z" fill="#F57552"/><path d="M29.888 22.051c-.39-.105-2.169-.401-3.912-.592l.024-.459c0-5.523-4.477-12-10-12v20c4.57 0 8.415-1.702 9.609-5.416 1.548.674 3.126 1.264 3.502 1.365.8.214 1.623-.26 1.837-1.061.215-.8-.26-1.623-1.06-1.837z" fill="#707EB7"/><path d="M6 21l.024.459c-1.743.19-3.521.487-3.912.592-.8.214-1.275 1.037-1.061 1.837.214.8 1.037 1.275 1.837 1.061.376-.101 1.954-.691 3.502-1.365 1.195 3.714 5.04 5.416 9.61 5.416v-20c-5.523 0-10 6.477-10 12z" fill="#7C8AC4"/><path fill="#515E91" d="M17 26h2v4.5h-2z"/><path d="M17 30.5c0 1.5 4.672 1.5 5.5 1.5s1.5-.672 1.5-1.5-.672-1.5-1.5-1.5-5.5 0-5.5 1.5zM13 26h2v4.5h-2z" fill="#5C699E"/><path d="M15 30.5c0 1.5-4.672 1.5-5.5 1.5s-1.5-.672-1.5-1.5.672-1.5 1.5-1.5 5.5 0 5.5 1.5z" fill="#6673AA"/><path d="M16 10v3s-8.578 0-12.228 6.356c-.256.445-.941.263-.929-.251.036-1.539.445-3.822 2.157-6.105 3-4 11-3 11-3z" fill="#FF805D"/><path d="M16 10v3s8.578 0 12.228 6.356c.256.445.941.263.929-.251-.036-1.539-.445-3.822-2.157-6.105-3-4-11-3-11-3z" fill="#F57552"/><path d="M21 5c0-2.761-2.239-5-5-5v10c2.761 0 5-2.239 5-5z" fill="#845331"/><path d="M16 0c-2.761 0-5 2.239-5 5s2.239 5 5 5v-10z" fill="#8D5B36"/><path d="M22 10c-2.063 0-3.883-1.042-4.963-2.628.194 2.584 2.329 4.628 4.963 4.628s4.769-2.044 4.963-4.628c-1.08 1.586-2.9 2.628-4.963 2.628z" fill="#845331"/><path d="M22 2c-2.761 0-5 2.239-5 5l.037.372c1.08 1.586 2.9 2.628 4.963 2.628s3.883-1.042 4.963-2.628l.037-.372c0-2.761-2.239-5-5-5zM10 10c-2.063 0-3.883-1.042-4.963-2.628.194 2.584 2.329 4.628 4.963 4.628s4.769-2.044 4.963-4.628c-1.08 1.586-2.9 2.628-4.963 2.628z" fill="#8D5B36"/><path d="M10 2c-2.761 0-5 2.239-5 5l.037.372c1.08 1.586 2.9 2.628 4.963 2.628s3.883-1.042 4.963-2.628l.037-.372c0-2.761-2.239-5-5-5z" fill="#96643B"/><path d="M21 8c0-2.761-2.239-5-5-5v10c2.761 0 5-2.239 5-5z" fill="#9E6E43"/><path d="M16 3c-2.761 0-5 2.239-5 5s2.239 5 5 5v-10z" fill="#A7794C"/><path d="M11.037 8.372c.194 2.584 2.329 4.628 4.963 4.628v-2c-2.063 0-3.883-1.042-4.963-2.628z" fill="#9E6E43"/><path d="M16 11v2c2.634 0 4.769-2.044 4.963-4.628-1.08 1.586-2.9 2.628-4.963 2.628z" fill="#96643B"/><path d="M16 19.354c-.938 0-1.877.115-2.794.344l-.471.118c-.432.108-.735.496-.735.941 0 .631.593 1.094 1.205.941h.001c.917-.229 1.856-.344 2.794-.344v-2z" fill="#675099"/><path d="M18.794 21.698c.613.154 1.206-.309 1.206-.94 0-.445-.303-.833-.735-.941l-.471-.118c-.917-.229-1.856-.344-2.794-.344v2c.938-.001 1.877.114 2.794.343z" fill="#504484"/><path d="M10.882 18.251c-1.051 0-1.602-.605-1.63-.636-.092-.104-.082-.262.021-.353.104-.091.26-.083.352.02.028.03.673.714 1.939.374 1.27-.34 1.485-1.255 1.493-1.293.03-.134.159-.224.296-.192.134.028.221.159.193.294-.011.051-.273 1.251-1.853 1.675-.297.078-.568.111-.811.111z" fill="#373F3F"/><path d="M20.859 18.251c-.244 0-.515-.033-.812-.112-1.58-.423-1.842-1.624-1.853-1.675-.027-.135.06-.268.195-.295.139-.028.268.06.295.195.008.037.223.952 1.493 1.292 1.269.343 1.913-.344 1.939-.374.094-.102.251-.109.353-.018.102.092.112.248.021.351-.029.031-.579.636-1.631.636z" fill="#2B3332"/><path d="M18.794 21.698c.613.154 1.206-.309 1.206-.94 0-.445-.303-.833-.735-.941l-.471-.118c-.917-.229-1.856-.344-2.794-.344v2c.938-.001 1.877.114 2.794.343z" fill="#604893"/><path d="M18.15 20.672c-.605-.092-1.15.377-1.15.989v1.513c0 .414.336.75.75.75s.75-.336.75-.75v-2.448l-.35-.054z" fill="#fff"/><path d="M19.265 20.899l-.471-.118-.294-.055v1.448c0 .414.336.75.75.75s.75-.335.75-.749v-.335c0-.445-.303-.833-.735-.941z" fill="#F7F7F7"/><path d="M24.613 23.135c-2.012 1.936-5.109 2.865-8.613 2.865v3c4.568 0 8.402-1.709 9.594-5.422-.333-.146-.663-.294-.981-.443zM24.613 23.135c-2.012 1.936-5.109 2.865-8.613 2.865v3c4.568 0 8.402-1.709 9.594-5.422-.333-.146-.663-.294-.981-.443z" fill="#6673AA"/><path d="M7.387 23.135c-.318.149-.648.297-.982.442 1.193 3.714 5.027 5.423 9.595 5.423v-3c-3.504 0-6.601-.929-8.613-2.865zM7.387 23.135c-.318.149-.648.297-.982.442 1.193 3.714 5.027 5.423 9.595 5.423v-3c-3.504 0-6.601-.929-8.613-2.865z" fill="#707EB7"/></svg>