<svg xmlns="http://www.w3.org/2000/svg" width="32" height="32" viewBox="0 0 32 32"><g fill="#FFC172"><path d="M16 10c-4.971 0-9 3.029-9 8s4.029 8 9 8v-16zM25 18c0-4.971-4.029-8-9-8v16c4.971 0 9-3.029 9-8zM16 10c-4.971 0-9 3.029-9 8 0 .709.09 1.373.245 2 .932-3.768 4.493-6 8.755-6v-4zM24.755 20c.155-.627.245-1.291.245-2 0-4.971-4.029-8-9-8v4c4.262 0 7.823 2.232 8.755 6zM.537 22.001c.77 1.334 4.34 3.626 6.429 4.89.338.205.722.183 1.02.012l-5.985-10.366c-1.914 1.104-2.569 3.55-1.464 5.464zM2.001 16.537l5.985 10.366c.297-.172.508-.493.5-.889-.05-2.442-.25-6.679-1.02-8.013-1.106-1.914-3.552-2.569-5.465-1.464zM31.463 22.001c-.77 1.334-4.34 3.626-6.429 4.89-.338.205-.722.183-1.02.012l5.985-10.366c1.914 1.104 2.569 3.55 1.464 5.464zM29.999 16.537l-5.985 10.366c-.297-.172-.508-.493-.5-.889.05-2.442.25-6.679 1.02-8.013 1.106-1.914 3.552-2.569 5.465-1.464zM16 20c-1.105 0-2 .895-2 2s.895 1 2 1v-3zM18 22c0-1.105-.895-2-2-2v3c1.105 0 2 .105 2-1z"/><circle cx="21.5" cy="18.5" r="2.5"/><circle cx="21" cy="19" r="1"/><circle cx="10.5" cy="18.5" r="2.5"/><circle cx="11" cy="19" r="1"/><path d="M16 23.5c0 .276-.698.5-1.25.5s-.75-.224-.75-.5.198-.5.75-.5 1.25.224 1.25.5zM18 23.5c0 .276-.198.5-.75.5s-1.25-.224-1.25-.5.698-.5 1.25-.5.75.224.75.5zM16 24.5c0 .276-.698.5-1.25.5s-.75-.224-.75-.5.198-.5.75-.5 1.25.224 1.25.5zM18 24.5c0 .276-.198.5-.75.5s-1.25-.224-1.25-.5.698-.5 1.25-.5.75.224.75.5zM12.331 7.511c1.381 2.391-.439 3.717-2.83 5.098l-4-6.928c2.391-1.381 5.449-.562 6.83 1.83zM9.501 12.609c-2.391 1.381-4.449 2.293-5.83-.098s-.561-5.449 1.83-6.83l4 6.928z"/><ellipse transform="matrix(.866 -.5 .5 .866 -2.988 5.873)" cx="9.464" cy="8.512" rx="1" ry="1"/><ellipse transform="matrix(.866 -.5 .5 .866 -4.452 4.409)" cx="6" cy="10.512" rx="1" ry="1"/><path d="M7.216 8.652l.016-.005c.479-.277.643-.889.366-1.367-.276-.478-.887-.642-1.366-.366l-.012.011.996 1.727zM6.22 6.925c-.467.281-.627.882-.354 1.355.274.473.874.635 1.35.372l-.996-1.727zM28.329 12.491c-1.381 2.391-3.439 1.479-5.83.098l4-6.928c2.392 1.381 3.211 4.439 1.83 6.83zM22.499 12.589c-2.391-1.381-4.211-2.707-2.83-5.098 1.381-2.391 4.439-3.211 6.83-1.83l-4 6.928z"/><ellipse transform="matrix(.5 -.866 .866 .5 3.913 27.796)" cx="26.029" cy="10.509" rx="1" ry="1"/><ellipse transform="matrix(.5 -.866 .866 .5 3.913 23.796)" cx="22.564" cy="8.509" rx="1" ry="1"/><path d="M24.784 8.632l.013.011c.478.276 1.09.112 1.366-.366s.112-1.09-.366-1.366l-.016-.005-.997 1.726zM25.78 6.906c-.476-.264-1.077-.102-1.35.371-.273.473-.113 1.075.353 1.355l.997-1.726z"/></g><path d="M16 10c-4.971 0-9 3.029-9 8s4.029 8 9 8v-16z" fill="#FCA15E"/><path d="M25 18c0-4.971-4.029-8-9-8v16c4.971 0 9-3.029 9-8z" fill="#F79654"/><path d="M16 10c-4.971 0-9 3.029-9 8 0 .709.09 1.373.245 2 .932-3.768 4.493-6 8.755-6v-4z" fill="#FFAD68"/><path d="M24.755 20c.155-.627.245-1.291.245-2 0-4.971-4.029-8-9-8v4c4.262 0 7.823 2.232 8.755 6z" fill="#FCA15E"/><path d="M.537 22.001c.77 1.334 4.34 3.626 6.429 4.89.338.205.722.183 1.02.012l-5.985-10.366c-1.914 1.104-2.569 3.55-1.464 5.464z" fill="#FFB76D"/><path d="M2.001 16.537l5.985 10.366c.297-.172.508-.493.5-.889-.05-2.442-.25-6.679-1.02-8.013-1.106-1.914-3.552-2.569-5.465-1.464z" fill="#FFC172"/><path d="M31.463 22.001c-.77 1.334-4.34 3.626-6.429 4.89-.338.205-.722.183-1.02.012l5.985-10.366c1.914 1.104 2.569 3.55 1.464 5.464z" fill="#FFAD68"/><path d="M29.999 16.537l-5.985 10.366c-.297-.172-.508-.493-.5-.889.05-2.442.25-6.679 1.02-8.013 1.106-1.914 3.552-2.569 5.465-1.464zM16 20c-1.105 0-2 .895-2 2s.895 1 2 1v-3z" fill="#FFB76D"/><path d="M18 22c0-1.105-.895-2-2-2v3c1.105 0 2 .105 2-1z" fill="#FFAD68"/><circle cx="21.5" cy="18.5" r="2.5" fill="#F7F7F7"/><circle cx="21" cy="19" r="1" fill="#2B3332"/><circle cx="10.5" cy="18.5" r="2.5" fill="#fff"/><circle cx="11" cy="19" r="1" fill="#373F3F"/><path d="M16 23.5c0 .276-.698.5-1.25.5s-.75-.224-.75-.5.198-.5.75-.5 1.25.224 1.25.5z" fill="#fff"/><path d="M18 23.5c0 .276-.198.5-.75.5s-1.25-.224-1.25-.5.698-.5 1.25-.5.75.224.75.5z" fill="#F7F7F7"/><path d="M16 24.5c0 .276-.698.5-1.25.5s-.75-.224-.75-.5.198-.5.75-.5 1.25.224 1.25.5z" fill="#fff"/><path d="M18 24.5c0 .276-.198.5-.75.5s-1.25-.224-1.25-.5.698-.5 1.25-.5.75.224.75.5z" fill="#F7F7F7"/><path d="M12.331 7.511c1.381 2.391-.439 3.717-2.83 5.098l-4-6.928c2.391-1.381 5.449-.562 6.83 1.83z" fill="#F9ADC8"/><path d="M9.501 12.609c-2.391 1.381-4.449 2.293-5.83-.098s-.561-5.449 1.83-6.83l4 6.928z" fill="#F8A1C4"/><ellipse transform="matrix(.866 -.5 .5 .866 -2.988 5.873)" cx="9.464" cy="8.512" rx="1" ry="1" fill="#FEF1C6"/><ellipse transform="matrix(.866 -.5 .5 .866 -4.452 4.409)" cx="6" cy="10.512" rx="1" ry="1" fill="#FFEAA7"/><path d="M7.216 8.652l.016-.005c.479-.277.643-.889.366-1.367-.276-.478-.887-.642-1.366-.366l-.012.011.996 1.727z" fill="#FEF1C6"/><path d="M6.22 6.925c-.467.281-.627.882-.354 1.355.274.473.874.635 1.35.372l-.996-1.727z" fill="#FFEAA7"/><path d="M28.329 12.491c-1.381 2.391-3.439 1.479-5.83.098l4-6.928c2.392 1.381 3.211 4.439 1.83 6.83z" fill="#F297BE"/><path d="M22.499 12.589c-2.391-1.381-4.211-2.707-2.83-5.098 1.381-2.391 4.439-3.211 6.83-1.83l-4 6.928z" fill="#F8A1C4"/><ellipse transform="matrix(.5 -.866 .866 .5 3.913 27.796)" cx="26.029" cy="10.509" rx="1" ry="1" fill="#FFE28A"/><ellipse transform="matrix(.5 -.866 .866 .5 3.913 23.796)" cx="22.564" cy="8.509" rx="1" ry="1" fill="#FFEAA7"/><path d="M24.784 8.632l.013.011c.478.276 1.09.112 1.366-.366s.112-1.09-.366-1.366l-.016-.005-.997 1.726z" fill="#FFE28A"/><path d="M25.78 6.906c-.476-.264-1.077-.102-1.35.371-.273.473-.113 1.075.353 1.355l.997-1.726z" fill="#FFEAA7"/></svg>