<svg xmlns="http://www.w3.org/2000/svg" width="32" height="32" viewBox="0 0 32 32"><path d="M16 16h-9v6c0 3.976 4.029 6 9 6v-12z" fill="#FCA15E"/><path d="M25 22v-6h-9v12c4.971 0 9-2.024 9-6z" fill="#F79654"/><path d="M27.686 19.558c1.755.234 3.314-1.131 3.314-2.901 0-1.028-.539-1.981-1.421-2.51-2.315-1.389-4.083-3.532-5.005-6.07l-.524-1.438c-1.231-3.386-4.448-5.639-8.05-5.639v17.782c3.904 0 7.808.259 11.686.776z" fill="#EA8BB4"/><path d="M16 1c-3.602 0-6.819 2.253-8.05 5.639l-.524 1.438c-.923 2.538-2.69 4.681-5.005 6.07-.882.529-1.421 1.482-1.421 2.51 0 1.77 1.559 3.135 3.314 2.901 3.878-.517 7.782-.776 11.686-.776v-17.782z" fill="#F297BE"/><path d="M20 14.5c0-1.243-1.791-1.5-4-1.5v3c2.209 0 4-.257 4-1.5z" fill="#FFD96C"/><path d="M16 13c-2.209 0-4 .257-4 1.5 0 1.243 1.791 1.5 4 1.5v-3zM16 4c-2.209 0-4 .257-4 1.5 0 1.243 1.791 1.5 4 1.5v-3z" fill="#FFE28A"/><path d="M20 5.5c0-1.243-1.791-1.5-4-1.5v3c2.209 0 4-.257 4-1.5zM30.825 15.717c-.22-.644-.645-1.209-1.246-1.569-.565-.339-1.095-.724-1.591-1.147-2.203 0-3.988.259-3.988 1.499 0 1.243 1.791 1.5 4 1.5 1.103 0 2.101-.064 2.825-.283zM22 11c1.636 0 3.037-.144 3.657-.721-.401-.642-.744-1.323-1.016-2.038-.706-.181-1.624-.241-2.641-.241-2.209 0-4 .257-4 1.5 0 1.243 1.791 1.5 4 1.5z" fill="#FFD96C"/><path d="M4 16c2.209 0 4-.257 4-1.5 0-1.24-1.785-1.499-3.988-1.5-.495.423-1.026.808-1.591 1.147-.601.361-1.025.925-1.246 1.569.724.22 1.722.284 2.825.284zM10 8c-1.017 0-1.935.06-2.641.241-.272.716-.616 1.396-1.016 2.038.62.577 2.021.721 3.657.721 2.209 0 4-.257 4-1.5 0-1.243-1.791-1.5-4-1.5z" fill="#FFE28A"/><path d="M1.346 19.369c-1.937 1.937-1.76 5.128.379 6.84l1 .8c3.23 2.583 7.243 3.991 11.38 3.991.474 0 .799-.295.931-.659-9.276-2.056-13.69-10.972-13.69-10.972z" fill="#FFB76D"/><path d="M15.035 30.341c.15-.415.047-.921-.416-1.199-1.246-.748-2.268-1.818-2.957-3.098l-3.018-5.604c-1.46-2.711-5.12-3.248-7.298-1.071 0 0 4.414 8.916 13.689 10.972z" fill="#FFC172"/><path d="M30.654 19.369c1.937 1.937 1.76 5.128-.379 6.84l-1 .8c-3.23 2.583-7.243 3.991-11.38 3.991-.474 0-.799-.295-.931-.659 9.276-2.056 13.69-10.972 13.69-10.972z" fill="#FFAD68"/><path d="M16.965 30.341c-.15-.415-.047-.921.416-1.199 1.246-.748 2.268-1.818 2.957-3.098l3.018-5.605c1.46-2.711 5.12-3.248 7.298-1.071 0 .001-4.414 8.917-13.689 10.973zM16 17v8c3.314 0 6-1.349 6-4s-2.686-4-6-4z" fill="#FFB76D"/><path d="M10 21c0 2.651 2.686 4 6 4v-8c-3.314 0-6 1.349-6 4z" fill="#FFC172"/><circle cx="13" cy="19" r="2" fill="#fff"/><circle cx="19" cy="19" r="2" fill="#F7F7F7"/></svg>