<svg xmlns="http://www.w3.org/2000/svg" width="32" height="32" viewBox="0 0 32 32"><path d="M24.428 31.429c-1.3 1.299-3.3.229-5.193-1.664-1.893-1.894-2.963-3.894-1.663-5.193 1.3-1.299 3.3-.229 5.193 1.664 1.893 1.893 2.963 3.893 1.663 5.193z" fill="#FAC4D1"/><path d="M14.428 24.572c1.3 1.299.23 3.299-1.663 5.193-1.893 1.894-3.893 2.963-5.193 1.664s-.23-3.299 1.663-5.193c1.893-1.894 3.893-2.964 5.193-1.664z" fill="#FBCFD6"/><path d="M16 5l-2.223-1.482c-.332-.221-.777.017-.777.416v1.066l-3.143.786c-.377.094-.507.564-.233.838l.376.376-4.296 1.718c-.333.134-.422.564-.168.818l.464.464-2.74 3.653c-.149.199-.13.478.046.654l.694.693-.903 3.611c-.057.227.052.464.261.568l1.642.821v3.5c0 .276.224.5.5.5h1.5l.886 2.658c.068.204.259.342.474.342h1.64l.776 1.553c.124.247.424.347.671.223l1.553-.776 2.842.947.158.026v-23.973z" fill="#6E57A0"/><path d="M16.158 28.947l2.842-.947 1.553.776c.247.124.547.024.671-.223l.776-1.553h1.64c.215 0 .406-.138.474-.342l.886-2.658h1.5c.276 0 .5-.224.5-.5v-3.5l1.641-.821c.21-.105.318-.341.261-.568l-.902-3.611.693-.693c.176-.176.196-.454.046-.654l-2.739-3.653.464-.464c.254-.254.165-.684-.168-.818l-4.296-1.718.376-.376c.274-.274.144-.744-.233-.838l-3.143-.786v-1.066c0-.399-.445-.638-.777-.416l-2.223 1.482v23.973l.158-.026z" fill="#675099"/><path d="M23.899 12.717c.494 1.884-.387 3.761-1.968 4.194-1.581.433-3.263-.744-3.757-2.627s.387-3.761 1.968-4.194c1.581-.433 3.263.743 3.757 2.627z" fill="#E85160"/><path d="M13.899 14.283c-.494 1.884-2.176 3.06-3.757 2.627-1.581-.433-2.462-2.31-1.968-4.194s2.176-3.06 3.757-2.627c1.582.433 2.463 2.311 1.968 4.194z" fill="#F3586F"/><path d="M15 17s-1 .115-1 .853c0 .569.241.947.624 1.181.164.101.376-.024.376-.217v-1.817z" fill="#fff"/><path d="M17 17s1 .115 1 .853c0 .569-.241.947-.624 1.181-.164.101-.376-.024-.376-.217v-1.817z" fill="#F7F7F7"/><path d="M16 16.5c-.828 0-1.5.264-1.5 1s.672 1 1.5 1v-2z" fill="#F8A1C4"/><path d="M17.5 17.5c0-.736-.672-1-1.5-1v2c.828 0 1.5-.264 1.5-1z" fill="#F297BE"/><path d="M12.894 7.406c-.377-1.263-.961-2.368-1.531-3.259.384-.576.306-1.623-.261-2.605-.69-1.196-1.832-1.829-2.549-1.415-.718.414-.74 1.719-.049 2.915.518.897 1.289 1.477 1.945 1.537.552.845 1.128 1.909 1.489 3.118.076.254.338.403.595.34.278-.068.443-.357.361-.631z" fill="#FCD8DE"/><path d="M23.447.127c-.717-.414-1.859.219-2.549 1.415-.567.982-.645 2.029-.261 2.605-.57.891-1.154 1.996-1.531 3.259-.082.275.083.563.361.631.257.063.519-.086.595-.34.361-1.207.938-2.272 1.491-3.118.656-.06 1.426-.641 1.943-1.536.691-1.197.669-2.502-.049-2.916z" fill="#FBCFD6"/><path d="M16 25.941c-.077 0-.153-.018-.224-.053l-1.553-.776c-.141-.07-.306-.07-.447 0l-1.382.691c-.226.113-.5.04-.64-.17l-.56-.84c-.117-.176-.332-.259-.537-.208l-1.209.302c-.253.063-.513-.079-.596-.327l-.74-2.219c-.066-.203-.257-.341-.472-.341h-2.64v1.5c0 .276.224.5.5.5h1.5l.886 2.658c.068.204.259.342.474.342h1.64l.776 1.553c.124.247.424.347.671.223l1.553-.776 2.842.947.158.026v-3.032z" fill="#675099"/><path d="M16.158 28.947l2.842-.947 1.553.776c.247.124.547.024.671-.223l.776-1.553h1.64c.215 0 .406-.138.474-.342l.886-2.658h1.5c.276 0 .5-.224.5-.5v-1.5h-2.64c-.215 0-.406.138-.474.342l-.74 2.219c-.083.248-.342.39-.596.327l-1.209-.302c-.205-.051-.42.032-.537.208l-.56.84c-.14.21-.414.283-.64.17l-1.382-.691c-.141-.07-.306-.07-.447 0l-1.553.776c-.07.035-.147.053-.224.053v3.032l.16-.027z" fill="#604893"/></svg>