<svg xmlns="http://www.w3.org/2000/svg" width="32" height="32" viewBox="0 0 32 32"><path d="M29.414 28.586c-.152-.152-.377-.328-.645-.507-.52-.347-.586-1.089-.144-1.532l.033-.033c2.135-2.135 1.225-5.776-1.664-6.655l-9.886-3.009-1.108 1.108v6.452l1.79 4.922c1 2.75 4.518 3.531 6.588 1.461l.169-.169c.442-.442 1.185-.376 1.532.144.179.269.355.493.507.645.781.781 2.047.781 2.828 0 .781-.78.781-2.046 0-2.827z" fill="#D4C9EF"/><path d="M16 17.958l-1.108-1.108-9.886 3.009c-2.889.879-3.799 4.52-1.664 6.655l.033.033c.442.442.376 1.185-.144 1.532-.269.179-.493.355-.645.507-.781.781-.781 2.047 0 2.828.781.781 2.047.781 2.828 0 .152-.152.328-.377.507-.645.347-.52 1.089-.586 1.532-.144l.169.169c2.069 2.069 5.587 1.289 6.588-1.461l1.79-4.923v-6.452z" fill="#E3DBF4"/><path d="M16 22c-2.209 0-3 1.791-3 4s1.792 6 3 6v-10z" fill="#F1EDFA"/><path d="M19 26c0-2.209-.791-4-3-4v10c1.208 0 3-3.791 3-6z" fill="#E3DBF4"/><path d="M30.53.449c-3.506-2.629-14.53 12.459-14.53 12.459v8.743c17.414 7.58 11.895-3.683 12.53-7.201.64-3.551 6-11.001 2-14.001z" fill="#D4C9EF"/><path d="M28.824 21.034c-.465-.528-1.079-.946-1.831-1.175l-9.886-3.009-1.107 1.108v3.693c10.073 4.384 12.468 2.462 12.824-.617z" fill="#C6B7E9"/><path d="M16 12.908s-11.024-15.089-14.53-12.459c-4 3 1.36 10.449 2 14 .635 3.519-4.884 14.782 12.53 7.202v-8.743z" fill="#E3DBF4"/><path d="M16 21.651v-3.693l-1.108-1.108-9.886 3.009c-.752.229-1.366.647-1.831 1.175.357 3.079 2.752 5.001 12.825.617z" fill="#D4C9EF"/><path d="M16 17c-2.209 0-3 .791-3 3s.791 3 3 3v-6z" fill="#A78EDD"/><path d="M19 20c0-2.209-.791-3-3-3v6c2.209 0 3-.791 3-3z" fill="#9D85D3"/><path d="M15 17s-1 .115-1 .853c0 .569.241.947.624 1.181.164.101.376-.024.376-.217v-1.817z" fill="#fff"/><path d="M17 17s1 .115 1 .853c0 .569-.241.947-.624 1.181-.164.101-.376-.024-.376-.217v-1.817z" fill="#F7F7F7"/><path d="M14 19.5c0 .276-.698.5-1.25.5s-.75-.224-.75-.5.198-.5.75-.5 1.25.224 1.25.5z" fill="#fff"/><path d="M20 19.5c0 .276-.198.5-.75.5s-1.25-.224-1.25-.5.698-.5 1.25-.5.75.224.75.5z" fill="#F7F7F7"/><path d="M14 21.5c0 .276-.698.5-1.25.5s-.75-.224-.75-.5.198-.5.75-.5 1.25.224 1.25.5z" fill="#fff"/><path d="M20 21.5c0 .276-.198.5-.75.5s-1.25-.224-1.25-.5.698-.5 1.25-.5.75.224.75.5z" fill="#F7F7F7"/><path d="M14 20.5c0 .276-.698.5-1.25.5s-.75-.224-.75-.5.198-.5.75-.5 1.25.224 1.25.5z" fill="#fff"/><path d="M20 20.5c0 .276-.198.5-.75.5s-1.25-.224-1.25-.5.698-.5 1.25-.5.75.224.75.5z" fill="#F7F7F7"/><path d="M16 12l-5.139-6.852c-.168-.224-.521-.044-.439.224l3.04 9.881c.353 1.147.981 2.191 1.83 3.04.195.195.451.293.707.293v-6.586z" fill="#A78EDD"/><path d="M16.707 18.293c.849-.849 1.477-1.893 1.831-3.04l3.04-9.881c.082-.268-.271-.448-.439-.224l-5.139 6.852v6.586c.256 0 .512-.098.707-.293z" fill="#9D85D3"/><circle cx="13" cy="15" r="2" fill="#fff"/><circle cx="13" cy="15" r="1" fill="#373F3F"/><circle cx="19" cy="15" r="2" fill="#F7F7F7"/><circle cx="19" cy="15" r="1" fill="#2B3332"/><path d="M16 0c-.107 0-.213.064-.243.193-.533 2.281-1.757 7.857-1.757 10.986 0 2.782.968 5.081 1.557 6.222.093.18.268.27.443.27v-17.671z" fill="#B8A5E4"/><path d="M16.443 17.402c.589-1.142 1.557-3.44 1.557-6.223 0-3.129-1.224-8.706-1.757-10.986-.03-.129-.136-.193-.243-.193v17.672c.175 0 .35-.09.443-.27z" fill="#A78EDD"/></svg>