<svg xmlns="http://www.w3.org/2000/svg" width="32" height="32" viewBox="0 0 32 32"><path d="M16 20s9 0 9-10h2s2.114 18-11 18v-8z" fill="#EB6B48"/><path d="M25 10h1.998l.002-.001c2.377-1.188 3.129-4.219 1.585-6.381l-1.771-2.479c-.399-.558-1.229-.558-1.627 0l-1.773 2.481c-1.544 2.161-.791 5.191 1.584 6.379l.002.001z" fill="#FF4A00"/><path d="M25 10s-1.054-1.119-1.255-1.931c-.221-.891-.042-1.829.491-2.576l1.357-1.9c.199-.279.614-.279.814 0l1.357 1.9c.534.747.713 1.686.492 2.577-.202.811-1.258 1.93-1.258 1.93h-1.998z" fill="#FF8F00"/><path d="M25 10l-.001-.003c-.496-.944-.336-2.381.355-3.193l.456-.534c.1-.117.281-.117.381 0l.453.532c.691.812.851 2.249.356 3.194l-.002.004h-1.998z" fill="#FFD400"/><path d="M12.001 14l-.001.001v-.001l-2.745.915c-2.11.703-3.925 2.09-5.158 3.94l-1.159 1.739c-.518.776-.308 1.826.468 2.343l.001.001c.846.564 1.994.259 2.449-.65l.951-1.903c.748-1.496 1.951-2.708 3.428-3.487-.802 1.894-1.235 4.083-1.235 6.102l.012.349c-.556.621-1.012 1.483-1.012 2.651 0 3 1 4 1 4s-1.574 0-1.929 1.396c-.078.307.176.604.492.604h4.022c.265 0 .52-.105.707-.293l.414-.414c.189-.188.294-.442.294-.707v-.996c.874.277 1.877.41 3 .41v-16h-3.999z" fill="#FF805D"/><path d="M29.063 20.594l-1.159-1.739c-1.234-1.85-3.049-3.237-5.158-3.94l-2.746-.915v.001l-.001-.001h-3.999v16c1.123 0 2.126-.133 3-.41v.996c0 .265.105.52.293.707l.414.414c.188.188.442.293.707.293h4.022c.317 0 .571-.297.493-.604-.355-1.396-1.929-1.396-1.929-1.396s1-1 1-4c0-1.168-.456-2.03-1.012-2.651l.012-.349c0-2.019-.433-4.208-1.235-6.102 1.476.779 2.68 1.991 3.428 3.487l.951 1.903c.455.909 1.603 1.214 2.449.65l.001-.001c.776-.517.986-1.567.469-2.343z" fill="#F57552"/><path d="M21.58 9.085c-.273-.647-.456-1.327-.63-2.008-.258-1.013-.86-2.47-2.223-3.34-.549-.35-.943-.895-1.008-1.542l-.129-1.295c-.051-.511-.481-.9-.995-.9h-.595v16c3.314 0 6-1.849 6-5.2 0-.572-.209-1.213-.42-1.715z" fill="#FF8D6E"/><path d="M15.405 0c-.514 0-.944.389-.995.9l-.129 1.294c-.065.647-.459 1.192-1.008 1.542-1.363.87-1.964 2.327-2.223 3.34-.174.681-.357 1.361-.63 2.008-.211.503-.42 1.144-.42 1.716 0 3.351 2.686 5.2 6 5.2v-16h-.595z" fill="#FF9A7E"/><path d="M10.426 12.913c.881 2.004 3.042 3.087 5.574 3.087v-1.733c-.289 0-1.004-.441-1.286-.458-1.793-.104-2.992-.106-4.288-.896z" fill="#FF8D6E"/><path d="M13.967 10.575c-.281-.54-.902-1.454-2.035-1.882-.09-.034-.193-.021-.27.036-.153.112-.397.364-.569.899-.176.549-.067.97.028 1.194.047.109.153.178.272.178h2.311c.218 0 .364-.231.263-.425z" fill="#fff"/><path d="M13.967 10.575c-.26-.5-.818-1.317-1.799-1.775-.149.135-.342.377-.487.828-.176.549-.067.97.028 1.194.047.109.153.178.272.178h1.723c.218 0 .364-.231.263-.425z" fill="#0F769B"/><path d="M13.29 10.822c.092-.216.192-.621.039-1.144-.21-.231-.456-.461-.763-.656-.103.143-.208.333-.296.607-.176.549-.067.97.028 1.194.046.108.152.177.271.177h.449c.12 0 .226-.069.272-.178z" fill="#373F3F"/><path d="M18.033 10.575c.281-.54.902-1.454 2.035-1.882.09-.034.193-.021.27.036.153.112.397.364.569.899.176.549.067.97-.028 1.194-.047.109-.153.178-.272.178h-2.311c-.218 0-.364-.231-.263-.425z" fill="#F7F7F7"/><path d="M20.29 10.822c.095-.223.204-.645.028-1.194-.145-.45-.337-.693-.487-.828-.98.458-1.538 1.274-1.799 1.775-.1.194.046.425.264.425h1.723c.119 0 .225-.069.271-.178z" fill="#0A6F8E"/><path d="M19.702 10.822c.095-.223.204-.645.028-1.194-.088-.274-.193-.464-.296-.607-.307.196-.553.425-.763.656-.153.524-.053.928.039 1.144.046.11.152.179.271.179h.449c.12 0 .226-.069.272-.178z" fill="#2B3332"/><path d="M21 25c0-3.866-2.239-8-5-8v13c1.19 0 2.244-.15 3.152-.464.56-.194.999-.627 1.219-1.178.397-.996.629-2.135.629-3.358z" fill="#FCD2BE"/><path d="M11 25c0 1.223.232 2.362.63 3.358.22.55.659.984 1.219 1.178.907.314 1.961.464 3.151.464v-13c-2.761 0-5 4.134-5 8z" fill="#FCDDCF"/><path d="M21.574 12.913c-1.296.79-2.495.792-4.288.896-.282.016-.996.458-1.286.458v1.733c2.532 0 4.693-1.083 5.574-3.087z" fill="#FF805D"/></svg>