<svg xmlns="http://www.w3.org/2000/svg" width="32" height="32" viewBox="0 0 32 32"><path d="M16 0c-5.523 0-10 4.477-10 10v20h10v-30z" fill="#9E6E43"/><path d="M16 0v30h10v-20c0-5.523-4.477-10-10-10z" fill="#96643B"/><circle cx="13" cy="9" r="1" fill="#373F3F"/><circle cx="19" cy="9" r="1" fill="#2B3332"/><circle cx="19" cy="9" r="1" fill="#2B3332"/><path d="M16 26h-1.586c-.265 0-.52.105-.707.293l-2.707 2.707v2.5c0 .276.224.5.5.5h4.5v-6z" fill="#434C4B"/><path d="M16 26v6h4.5c.276 0 .5-.224.5-.5v-2.5l-2.707-2.707c-.188-.188-.442-.293-.707-.293h-1.586zM19 31.5v-2.5l2.707-2.707c.188-.188.442-.293.707-.293h3.172c.265 0 .52.105.707.293l2.707 2.707v2.5c0 .276-.224.5-.5.5h-9c-.276 0-.5-.224-.5-.5z" fill="#373F3F"/><path d="M3 31.5v-2.5l2.707-2.707c.188-.188.442-.293.707-.293h3.172c.265 0 .52.105.707.293l2.707 2.707v2.5c0 .276-.224.5-.5.5h-9c-.276 0-.5-.224-.5-.5z" fill="#434C4B"/><path d="M9 31.5v-1.086c0-.265.105-.52.293-.707l1.414-1.414c.188-.188.442-.293.707-.293h1.172c.265 0 .52.105.707.293l1.414 1.414c.188.188.293.442.293.707v1.086c0 .276-.224.5-.5.5h-5c-.276 0-.5-.224-.5-.5zM1 31.5v-1.086c0-.265.105-.52.293-.707l1.414-1.414c.188-.188.442-.293.707-.293h1.172c.265 0 .52.105.707.293l1.414 1.414c.188.188.293.442.293.707v1.086c0 .276-.224.5-.5.5h-5c-.276 0-.5-.224-.5-.5z" fill="#505957"/><path d="M17 31.5v-1.086c0-.265.105-.52.293-.707l1.414-1.414c.188-.188.442-.293.707-.293h1.172c.265 0 .52.105.707.293l1.414 1.414c.188.188.293.442.293.707v1.086c0 .276-.224.5-.5.5h-5c-.276 0-.5-.224-.5-.5zM25 31.5v-1.086c0-.265.105-.52.293-.707l1.414-1.414c.188-.188.442-.293.707-.293h1.172c.265 0 .52.105.707.293l1.414 1.414c.188.188.293.442.293.707v1.086c0 .276-.224.5-.5.5h-5c-.276 0-.5-.224-.5-.5z" fill="#434C4B"/><path d="M13 14c0 1.105.515 2 3 2v-4c-2.485 0-3 .895-3 2z" fill="#FAC4D1"/><path d="M16 12v4c2.485 0 3-.895 3-2s-.515-2-3-2z" fill="#FAB8CD"/></svg>