<svg xmlns="http://www.w3.org/2000/svg" width="32" height="32" viewBox="0 0 32 32"><path d="M16 0c-3.866 0-7 3.134-7 7v23h7v-30z" fill="#8D5B36"/><path d="M16 30h7v-23c0-3.866-3.134-7-7-7v30z" fill="#845331"/><path d="M14.001 5c0 .552.052 1-.5 1s-.5-.448-.5-1-.052-1 .5-1c.553 0 .5.448.5 1z" fill="#373F3F"/><path d="M19.001 5c0 .552.052 1-.5 1s-.5-.448-.5-1-.052-1 .5-1c.553 0 .5.448.5 1zM19.001 5c0 .552.052 1-.5 1s-.5-.448-.5-1-.052-1 .5-1c.553 0 .5.448.5 1z" fill="#2B3332"/><path d="M14 8.5c0 .828.343 1.5 2 1.5v-3c-1.657 0-2 .672-2 1.5z" fill="#FAC4D1"/><path d="M16 7v3c1.657 0 2-.672 2-1.5s-.343-1.5-2-1.5z" fill="#FAB8CD"/><path d="M23 16c-3.866 0-7 3.134-7 7v7h7v-14z" fill="#8D5B36"/><path d="M30 30v-7c0-3.866-3.134-7-7-7v14h7z" fill="#845331"/><path d="M9 11c-3.866 0-7 3.134-7 7v12h7v-19z" fill="#9E6E43"/><path d="M16 30v-12c0-3.866-3.134-7-7-7v19h7z" fill="#96643B"/><path d="M16 28h-.586c-.265 0-.52.105-.707.293l-1.414 1.414c-.188.188-.293.442-.293.707v1.086c0 .276.224.5.5.5h2.5v-4z" fill="#434C4B"/><path d="M16 28v4h2.5c.276 0 .5-.224.5-.5v-1.086c0-.265-.105-.52-.293-.707l-1.414-1.414c-.188-.188-.442-.293-.707-.293h-.586z" fill="#373F3F"/><path d="M6 31.5v-1.086c0-.265.105-.52.293-.707l1.414-1.414c.188-.188.442-.293.707-.293h1.172c.265 0 .52.105.707.293l1.414 1.414c.188.188.293.442.293.707v1.086c0 .276-.224.5-.5.5h-5c-.276 0-.5-.224-.5-.5zM0 31.5v-2.086c0-.265.105-.52.293-.707l.414-.414c.188-.188.442-.293.707-.293h1.172c.265 0 .52.105.707.293l1.414 1.414c.188.188.293.442.293.707v1.086c0 .276-.224.5-.5.5h-4c-.276 0-.5-.224-.5-.5z" fill="#434C4B"/><path d="M20 31.5v-1.086c0-.265.105-.52.293-.707l1.414-1.414c.188-.188.442-.293.707-.293h1.172c.265 0 .52.105.707.293l1.414 1.414c.188.188.293.442.293.707v1.086c0 .276-.224.5-.5.5h-5c-.276 0-.5-.224-.5-.5zM27 31.5v-1.086c0-.265.105-.52.293-.707l1.414-1.414c.188-.188.442-.293.707-.293h1.172c.265 0 .52.105.707.293l.414.414c.188.188.293.442.293.707v2.086c0 .276-.224.5-.5.5h-4c-.276 0-.5-.224-.5-.5z" fill="#373F3F"/><path d="M10 31.5v-1.086c0-.265.105-.52.293-.707l.414-.414c.188-.188.442-.293.707-.293h2.172c.265 0 .52.105.707.293l.414.414c.188.188.293.442.293.707v1.086c0 .276-.224.5-.5.5h-4c-.276 0-.5-.224-.5-.5z" fill="#505957"/><path d="M17 31.5v-1.086c0-.265.105-.52.293-.707l.414-.414c.188-.188.442-.293.707-.293h2.172c.265 0 .52.105.707.293l.414.414c.188.188.293.442.293.707v1.086c0 .276-.224.5-.5.5h-4c-.276 0-.5-.224-.5-.5zM24 31.5v-1.086c0-.265.105-.52.293-.707l.414-.414c.188-.188.442-.293.707-.293h2.172c.265 0 .52.105.707.293l.414.414c.188.188.293.442.293.707v1.086c0 .276-.224.5-.5.5h-4c-.276 0-.5-.224-.5-.5z" fill="#434C4B"/><path d="M3 31.5v-1.086c0-.265.105-.52.293-.707l.414-.414c.188-.188.442-.293.707-.293h2.172c.265 0 .52.105.707.293l.414.414c.188.188.293.442.293.707v1.086c0 .276-.224.5-.5.5h-4c-.276 0-.5-.224-.5-.5z" fill="#505957"/><path d="M7.001 17c0 .552.052 1-.5 1s-.5-.448-.5-1-.052-1 .5-1 .5.448.5 1zM7.001 17c0 .552.052 1-.5 1s-.5-.448-.5-1-.052-1 .5-1 .5.448.5 1z" fill="#373F3F"/><path d="M12.001 17c0 .552.052 1-.5 1s-.5-.448-.5-1-.052-1 .5-1c.553 0 .5.448.5 1zM12.001 17c0 .552.052 1-.5 1s-.5-.448-.5-1-.052-1 .5-1c.553 0 .5.448.5 1z" fill="#2B3332"/><path d="M7 20.5c0 .828.343 1.5 2 1.5v-3c-1.657 0-2 .672-2 1.5z" fill="#FAC4D1"/><path d="M9 19v3c1.657 0 2-.672 2-1.5s-.343-1.5-2-1.5z" fill="#FAB8CD"/><path d="M21.001 21c0 .552.052 1-.5 1s-.5-.448-.5-1-.052-1 .5-1c.553 0 .5.448.5 1z" fill="#373F3F"/><path d="M26.001 21c0 .552.052 1-.5 1s-.5-.448-.5-1-.052-1 .5-1c.553 0 .5.448.5 1z" fill="#2B3332"/><path d="M21 24.5c0 .828.343 1.5 2 1.5v-3c-1.657 0-2 .672-2 1.5z" fill="#FAC4D1"/><path d="M23 23v3c1.657 0 2-.672 2-1.5s-.343-1.5-2-1.5z" fill="#FAB8CD"/></svg>