<svg xmlns="http://www.w3.org/2000/svg" width="32" height="32" viewBox="0 0 32 32"><path d="M23.259.744l-.002-.002c-1.066-1.066-2.823-.969-3.765.209l-1.229 1.537c1.389.621 2.499 1.8 3.002 3.309v.001l.032.115 1.753-1.402c1.178-.945 1.275-2.701.209-3.767z" fill="#2B3332"/><path d="M10.735 5.795c.503-1.51 1.613-2.688 3.002-3.309l-1.229-1.536c-.942-1.178-2.698-1.275-3.764-.209l-.003.003c-1.066 1.066-.969 2.822.209 3.764l1.753 1.402.032-.115z" fill="#373F3F"/><path d="M20.067 27s10.933-1 10.933-8l-3 1s0 2.581-8 4.855l.067 2.145z" fill="#F7D684"/><path d="M16 20l3.814-.954c2.028-.507 3.94 1.164 3.709 3.242l-.47 4.234c-.034.302.072.603.287.818l.367.367c.188.188.293.442.293.707v1.586c0 .552-.448 1-1 1h-7v-11z" fill="#FAE09F"/><path d="M16 20l-3.814-.954c-2.028-.507-3.94 1.164-3.709 3.242l.47 4.234c.034.302-.072.603-.287.818l-.367.367c-.188.188-.293.442-.293.707v1.586c0 .552.448 1 1 1h7v-11zM21.706 28.706c-.452-.452-.706-1.065-.706-1.704v-10.919c0-2.928-2.114-5.427-5-5.915v10.273c.074.108.134.228.161.363l.257 1.283c.387 1.937.582 3.908.582 5.884v3.029c0 .552.448 1 1 1h3c.552 0 1-.448 1-1v-1.586c0-.265-.105-.52-.293-.707l-.001-.001z" fill="#FDEBBB"/><path d="M16 10.168c-2.886.488-5 2.987-5 5.915v10.919c0 .639-.254 1.252-.706 1.704l-.001.001c-.188.188-.293.442-.293.707v1.586c0 .552.448 1 1 1h3c.552 0 1-.448 1-1v-3.029c0-1.976.195-3.946.583-5.883l.257-1.283c.027-.135.087-.255.161-.363v-10.274zM16 2c-2.389 0-4.51 1.529-5.265 3.795v.001c-.471 1.412-.361 2.952.304 4.283l.855 1.71c.678 1.355 2.063 2.211 3.578 2.211h.528v-12z" fill="#FFF3D9"/><path d="M16 2c2.389 0 4.51 1.529 5.265 3.795v.001c.471 1.412.361 2.952-.304 4.283l-.855 1.71c-.678 1.355-2.063 2.211-3.578 2.211h-.528v-12z" fill="#FDEBBB"/><path d="M16 5c-.552 0-1 .448-1 1s.448 1 1 1v-2z" fill="#E85160"/><path d="M17 6c0-.552-.448-1-1-1v2c.552 0 1-.448 1-1z" fill="#D84459"/><path d="M11.953 7.302c.017-.158.177-.259.328-.209l2.48.827c.136.045.206.195.154.329-.203.519-.782 1.639-1.915 1.251-1.105-.379-1.11-1.619-1.047-2.198z" fill="#fff"/><path d="M13.97 7.657l-.962-.321c.041.944.245 1.664.492 1.664.218 0 .402-.563.47-1.343z" fill="#E85160"/><path d="M20.047 7.302c-.017-.158-.177-.259-.328-.209l-2.48.827c-.136.045-.206.195-.154.329.203.519.782 1.639 1.915 1.251 1.105-.379 1.11-1.619 1.047-2.198z" fill="#F7F7F7"/><path d="M18.03 7.657l.962-.321c-.041.944-.245 1.664-.492 1.664-.218 0-.402-.563-.47-1.343z" fill="#D84459"/><path d="M11.933 11.855c.69 1.315 2.05 2.145 3.539 2.145h.528v-2.5s-1.834.909-4.067.355z" fill="#FDEBBB"/><path d="M20.067 11.855c-2.233.554-4.067-.355-4.067-.355v2.5h.528c1.489 0 2.849-.83 3.539-2.145zM28 16c-1.105 0-2 .895-2 2s.895 2 2 2v-4z" fill="#FAE09F"/><path d="M31 19c0-1.657-1.343-3-3-3v6c1.657 0 3-1.343 3-3z" fill="#F7D684"/><path d="M28 20c.552 0 1-.448 1-1s-.448-1-1-1v2z" fill="#FDEBBB"/><path d="M24 10.506c0-.201-2.283-.251-3.399-.263 1.058-.314 3.31-1.007 3.261-1.204-.051-.204-2.491.448-3.496.726-.217.059-.366.256-.366.481v.508c0 .225.149.422.365.482 1.006.278 3.445.93 3.496.726.049-.195-2.151-.874-3.224-1.193 1.13-.014 3.363-.064 3.363-.263z" fill="#F0C877"/><path d="M12 10.246c0-.225-.149-.422-.365-.482-1.005-.277-3.445-.929-3.496-.725-.05.197 2.203.89 3.261 1.204-1.116.012-3.398.061-3.398.263 0 .199 2.232.249 3.361.262-1.073.319-3.273.998-3.224 1.193.051.204 2.491-.448 3.496-.726.217-.059.365-.256.365-.481v-.508z" fill="#F7D684"/><path d="M13.334 2.686l-1.461-1.096c-.649-.487-1.557-.422-2.131.151v.002c-.574.573-.638 1.481-.152 2.13l1.244 1.659c.483-1.237 1.38-2.231 2.5-2.846z" fill="#E8BA67"/><path d="M22.258 1.743c-.574-.574-1.482-.639-2.131-.152l-1.461 1.096c1.12.615 2.017 1.609 2.5 2.845l1.244-1.659c.486-.649.422-1.557-.152-2.13z" fill="#DDAA5F"/><path d="M16 10c-.552 0-1-.052-1 .5 0 .341.382.738.674.991.094.081.21.122.326.122v-1.613z" fill="#373F3F"/><path d="M16.326 11.491c.292-.253.674-.65.674-.991 0-.552-.448-.5-1-.5v1.613c.116 0 .233-.04.326-.122z" fill="#2B3332"/></svg>