<svg xmlns="http://www.w3.org/2000/svg" width="32" height="32" viewBox="0 0 32 32"><path d="M12 19.101l-2.145 3.575c-.559.932-.855 1.999-.855 3.087v3.338l-.001.001c-.662.662-1.213 1.426-1.632 2.264l-.032.064c-.107.215.121.443.335.335l.291-.146c.642-.321 1.407-.273 2.004.125l.257.171c.168.112.387.112.555 0l.257-.171c.597-.398 1.362-.446 2.004-.125l.291.146c.215.107.443-.121.335-.335l-.032-.065c-.419-.837-.97-1.602-1.632-2.264v-1.394c0-1.003.501-1.94 1.336-2.496l1.664-1.11-3-5z" fill="#7FB8E0"/><path d="M13 11.004l-.005.016-4.535-.722c-1.121-.187-2.269.112-3.156.822l-2.234 1.786c-.904.723-1.64 1.634-2.158 2.669l-.885 1.771c-.105.211.118.434.329.329h.001c.741-.37 1.642-.07 2.012.671l.11.22c.09.181.348.181.438 0l.11-.22c.37-.741 1.271-1.041 2.012-.671l.182.091c.187.094.398-.076.347-.279l-.734-2.934c-.085-.341.015-.701.263-.95l.726-.726c.536-.536 1.328-.723 2.047-.483l4.284 1.428-1.125 3.749c-.634 2.114-.056 4.406 1.504 5.967l.587.587c.563.563 1.326.879 2.121.879h.759v-14h-3z" fill="#8EC0E0"/><path d="M20 19.101l2.145 3.575c.559.932.855 2 .855 3.087v3.338l.001.001c.662.662 1.213 1.426 1.632 2.264l.032.065c.107.215-.121.443-.335.335l-.291-.146c-.642-.321-1.407-.273-2.004.125l-.257.171c-.168.112-.387.112-.555 0l-.257-.171c-.597-.398-1.362-.446-2.004-.125l-.291.146c-.215.107-.443-.121-.335-.335l.032-.065c.419-.837.97-1.602 1.632-2.264v-1.3949999999999998c0-1.003-.501-1.94-1.336-2.496l-1.664-1.11 3-5z" fill="#71B1E1"/><path d="M31.973 17.346l-.885-1.771c-.518-1.035-1.254-1.946-2.158-2.669l-2.233-1.787c-.888-.71-2.035-1.009-3.156-.822l-4.535.722-.006-.015h-3v14h.757c.796 0 1.559-.316 2.121-.879l.587-.587c1.561-1.561 2.139-3.853 1.504-5.967l-1.125-3.749 4.284-1.428c.719-.24 1.511-.052 2.047.483l.726.726c.248.248.348.609.263.95l-.734 2.934c-.051.203.16.372.347.279l.182-.091c.741-.37 1.642-.07 2.012.671l.11.22c.09.181.348.181.438 0l.11-.22c.37-.741 1.271-1.041 2.012-.671h.001c.213.106.436-.118.331-.329z" fill="#7FB8E0"/><path d="M16 11v-8l-2.573-2.573c-.158-.158-.427-.046-.427.177v3.396l-3.473-.868c-.207-.052-.379.163-.284.354l3.757 7.514h3z" fill="#9FC9E4"/><path d="M16 11v-8l2.573-2.573c.158-.158.427-.046.427.177v3.396l3.473-.868c.207-.052.38.163.284.354l-3.757 7.514h-3z" fill="#8EC0E0"/><path d="M13 11.004s0 6 3 6v-6h-3z" fill="#FFEAA7"/><path d="M19 11.004s0 6-3 6v-6h3z" fill="#FFE28A"/><path fill="#FF6B8B" d="M16 11.004h-3"/><path d="M16 11.504h-2.479c.083 1.356.493 5 2.479 5v-5z" fill="#F4A984"/><path d="M16 16.504c1.986 0 2.396-3.644 2.479-5h-2.479v5z" fill="#EA9C7A"/><path d="M13 11.004s0 4 3 4v-5h-.191c-.343 0-.656.194-.809.5-.153.306-.466.5-.809.5h-1.191z" fill="#FEF1C6"/><path d="M19 11.004s0 4-3 4v-5h.191c.343 0 .656.194.809.5.153.306.466.5.809.5h1.191z" fill="#FFEAA7"/><path d="M16 6c-.552 0-1 .448-1 1s.448 1 1 1v-2z" fill="#E85160"/><path d="M17 7c0-.552-.448-1-1-1v2c.552 0 1-.448 1-1z" fill="#D84459"/><path d="M17.12 9.661c.208-.519.702-1.459 1.593-1.63.15-.029.287.095.287.248v.725c0 .552-.448 1-1 1h-.648c-.178 0-.299-.179-.232-.343z" fill="#F7F7F7"/><path d="M14.88 9.661c-.208-.519-.702-1.459-1.593-1.63-.15-.029-.287.095-.287.248v.725c0 .552.448 1 1 1h.648c.178 0 .299-.179.232-.343z" fill="#fff"/><path d="M17.521 8.912c.05.336.24.592.479.592.276 0 .5-.336.5-.75 0-.231-.074-.431-.184-.568-.333.17-.597.437-.795.726z" fill="#D84459"/><path d="M14.479 8.912c-.198-.29-.462-.556-.795-.726-.11.137-.184.336-.184.568 0 .414.224.75.5.75.239 0 .429-.256.479-.592z" fill="#E85160"/></svg>