<svg xmlns="http://www.w3.org/2000/svg" width="32" height="32" viewBox="0 0 32 32"><path d="M31.534 13.011c-1.661 5.267-10.286 17.727-15.553 16.065-5.267-1.661-5.182-16.815-3.521-22.082s7.278-8.19 12.545-6.529 8.191 7.279 6.529 12.546z" fill="#F7F7F7"/><path d="M31.534 13.011c-1.661 5.267-10.286 17.727-15.553 16.065l9.024-28.61c5.268 1.661 8.191 7.278 6.529 12.545z" fill="#EDEEEE"/><path d="M20.28 27.191c-.756 1.322.072 3.203 1.851 4.202 1.778.999 3.833.738 4.589-.584.756-1.322-.072-3.203-1.851-4.202-1.778-.999-3.833-.738-4.589.584z" fill="#529CCF"/><path d="M11.72 27.191c.756 1.322-.072 3.203-1.851 4.202-1.778.999-3.833.738-4.589-.584-.756-1.322.072-3.203 1.851-4.202 1.778-.999 3.833-.738 4.589.584z" fill="#5CA3D5"/><path d="M16 3v27c7.732 0 14-4.994 14-12.521s-6.268-14.479-14-14.479z" fill="#65A9DC"/><path d="M2 17.479c0 7.527 6.268 12.521 14 12.521v-27c-7.732 0-14 6.952-14 14.479z" fill="#71B1E1"/><path d="M16 15c-4.418 0-8 3.134-8 7s3.582 7 8 7v-14z" fill="#fff"/><path d="M24 22c0-3.866-3.582-7-8-7v14c4.418 0 8-3.134 8-7z" fill="#F7F7F7"/><path d="M16 20.537v.75c-1.06.012-1.762.433-1.762.714s.702.7 1.762.713v.75c-1.434-.013-2.512-.636-2.512-1.463s1.078-1.451 2.512-1.464zm-4.693 1.463c0 1.999 2.102 3.624 4.693 3.644v-.75c-2.178-.018-3.943-1.308-3.943-2.894 0-1.587 1.766-2.877 3.943-2.895v-.75c-2.592.02-4.693 1.645-4.693 3.645zm4.693 5.077c-3.381-.02-6.125-2.289-6.125-5.077s2.744-5.058 6.125-5.078v-.75c-3.795.021-6.875 2.626-6.875 5.828 0 3.201 3.08 5.806 6.875 5.827v-.75z" fill="#373F3F"/><path d="M16.046 21.284l-.046.002v-.75l.046-.003c.207 0 .375.168.375.375s-.168.376-.375.376zm3.647-.375c0-1.435-1.603-2.558-3.647-2.558l-.046.004v.75l.046-.003c1.57 0 2.897.828 2.897 1.808s-1.327 1.807-2.897 1.807l-.046-.002v.75l.046.003c2.045-.002 3.647-1.125 3.647-2.559zm-3.272 6.545c0-.207-.168-.375-.375-.375l-.046-.002v.75l.046.002c.207 0 .375-.168.375-.375zm-.375-11.284l-.046.002v.75l.046-.002c2.801 0 5.079 1.79 5.079 3.989s-2.278 3.988-5.079 3.988l-.046-.003v.75l.046.004c3.214 0 5.829-2.126 5.829-4.738 0-2.614-2.615-4.74-5.829-4.74z" fill="#2B3332"/><path d="M16 13c-1.657 0-3 1.119-3 2.5s1.343 2.5 3 2.5v-5z" fill="#FCD8DE"/><path d="M19 15.5c0-1.381-1.343-2.5-3-2.5v5c1.657 0 3-1.119 3-2.5z" fill="#FBCFD6"/><path d="M16 14c-.828 0-1.5.448-1.5 1s.672 1 1.5 1v-2z" fill="#373F3F"/><path d="M17.5 15c0-.552-.672-1-1.5-1v2c.828 0 1.5-.448 1.5-1z" fill="#2B3332"/><path d="M19.579 12.078c1.064 1.725 3.235 2.417 4.848 1.545 1.613-.871 2.058-2.976.994-4.701s-3.235-2.417-4.848-1.545c-1.614.871-2.059 2.976-.994 4.701z" fill="#F7F7F7"/><path d="M19.579 12.078s1.691 1.689 4.126.374l1.716-3.53c-1.064-1.725-3.235-2.417-4.848-1.545-1.614.871-2.059 2.976-.994 4.701z" fill="#2B3332"/><path d="M12.421 12.078c-1.064 1.725-3.235 2.417-4.848 1.545s-2.058-2.976-.994-4.701 3.235-2.417 4.848-1.545 2.059 2.976.994 4.701z" fill="#fff"/><path d="M12.421 12.078s-1.691 1.689-4.126.374l-1.716-3.53c1.064-1.725 3.235-2.417 4.848-1.545s2.059 2.976.994 4.701z" fill="#373F3F"/><circle cx="22" cy="9" r="1" fill="#F7F7F7"/><circle cx="10" cy="9" r="1" fill="#fff"/></svg>