<svg xmlns="http://www.w3.org/2000/svg" width="32" height="32" viewBox="0 0 32 32"><path d="M7.822 11.391l-1.739 2.609-2.008-1.004-1.075-1.983v-1.757c0-.135-.108-.246-.243-.25h-.001c-.515-.014-.937.406-.925.921l.052 2.189.035 1.468.011.464.789-.007 3.097 1.971c.435.277 1.01.177 1.326-.23l2.366-3.042-1.685-1.349z" fill="#FFD04D"/><path d="M14 23s1.997 4 6 4c6 0 5.933-5 9-5h2.474c.297 0 .525-.254.498-.55-.12-1.299-.744-4.45-3.972-4.45-4.067 0-6 5-10 2l-4 4z" fill="#E8BA36"/><path d="M29 22h1v-4.455c-.521-.331-1.171-.545-2-.545v5.208c.298-.131.625-.208 1-.208zM24.187 18.373c-.658.411-1.29.827-1.934 1.132l2.787 5.575c.62-.601 1.113-1.243 1.606-1.789l-2.459-4.918z" fill="#845331"/><path d="M22.276 23.362l-2.829 1.415c-.247.123-.347.423-.223.67l1.776 3.553-.726.726c-.176.176-.274.413-.274.661v1.113c0 .276.224.5.5.5h5c.276 0 .5-.224.5-.5 0-.312-.156-.604-.416-.777l-2.584-1.723v-5.191c0-.372-.391-.613-.724-.447z" fill="#F7C845"/><path d="M21 12l-.822 4.109c-.116.581-.402 1.114-.82 1.533l-.358.358h-3v-6h5z" fill="#8D5B36"/><path d="M11 12l.822 4.109c.116.581.402 1.114.82 1.533l.358.358h3v-6h-5z" fill="#96643B"/><path d="M12 8h-5c-.552 0-1 .448-1 1v.519c0 .304.138.591.375.781l4.625 3.7 3-3-2-3z" fill="#9E6E43"/><path d="M20 8h5c.552 0 1 .448 1 1v.519c0 .304-.138.591-.375.781l-4.625 3.7-3-3 2-3z" fill="#96643B"/><path d="M31.505 13.555l-1.681-.21 1.31-1.685c.175-.225.155-.545-.046-.746l-.002-.002c-.201-.201-.521-.221-.746-.046l-1.685 1.31-.21-1.681c-.036-.283-.276-.495-.561-.495h-.002c-.285 0-.525.212-.561.495l-.373 3.031-.948.474-1.739-2.609-1.686 1.348 2.366 3.042c.317.407.891.507 1.326.23l1.271-.809 3.967-.524c.283-.034.495-.275.495-.56v-.002c0-.285-.212-.525-.495-.561z" fill="#F7C845"/><path d="M14 3l-2.832-2.852c-.35-.35-.941-.033-.844.452l.676 3.4-1.605 3.21c-.226.451-.08 1 .34 1.279l1.268.845c.66.44 1.241.989 1.717 1.624l1.98 2.642c.189.252.485.4.8.4h.5v-11h-2z" fill="#FFD96C"/><path d="M18 3l2.832-2.852c.35-.35.941-.033.844.452l-.676 3.4 1.605 3.21c.226.451.08 1-.34 1.279l-1.268.845c-.66.44-1.241.989-1.717 1.624l-1.98 2.642c-.189.252-.485.4-.8.4h-.5v-11h2z" fill="#FFD04D"/><path d="M14.613 10.613l-.283-.283c-.189-.189-.491-.196-.689-.017-1.468 1.325-6.776 6.576-3.139 10.241.163.165.444.038.428-.194-.109-1.593-.006-5.838 3.657-9.018.218-.19.23-.525.026-.729z" fill="#FEF1C6"/><path d="M17.387 10.613l.282-.282c.189-.189.491-.196.689-.017 1.468 1.325 6.776 6.576 3.139 10.241-.163.165-.444.038-.428-.194.109-1.593.006-5.838-3.657-9.018-.217-.191-.229-.526-.025-.73z" fill="#FFEAA7"/><path d="M3 6.5c0-1.381-.395-2.5-1.5-2.5s-1.5 1.119-1.5 2.5c0 1.241.324 2.263 1.191 2.459l-.185 7.785c-.003.14.11.256.25.256h.488c.14 0 .253-.116.25-.256l-.185-7.785c.867-.196 1.191-1.218 1.191-2.459z" fill="#909997"/><path d="M3.505 15.062l-2.513.314c-.527.066-.992-.345-.992-.876s.465-.942.992-.876l2.513.314c.283.035.495.276.495.561v.002c0 .285-.212.526-.495.561zM3.505 13.062l-2.513.314c-.527.066-.992-.345-.992-.876s.465-.942.992-.876l2.513.314c.283.035.495.276.495.561v.002c0 .285-.212.526-.495.561z" fill="#FFD96C"/><path d="M9.724 23.362l2.829 1.415c.247.123.347.423.223.67l-1.776 3.553.726.726c.176.176.274.413.274.661v1.113c0 .276-.224.5-.5.5h-5c-.276 0-.5-.224-.5-.5 0-.312.156-.604.416-.777l2.584-1.723v-5.191c0-.372.391-.613.724-.447zM13 18l1 5h2v-5z" fill="#FFD04D"/><path fill="#F7C845" d="M19 18l-1 5h-2v-5zM10.333 23.667l2 1 1.667-1.667-.5-2.5z"/><path fill="#F0C13E" d="M18.5 20.5l-.5 2.5 1.667 1.667 2-1z"/><path d="M15.997 4.001c-.068-.005-.137.028-.163.106l-.298.917h-.964c-.153 0-.217.196-.093.286l.78.566-.298.917c-.047.146.119.267.244.177l.78-.567.012.009v-2.411z" fill="#E8BA67"/><path d="M17.396 5.023h-.964l-.298-.917c-.022-.068-.079-.101-.138-.106v2.411l.767.558c.124.09.291-.031.244-.177l-.297-.916.78-.566c.123-.091.06-.287-.094-.287z" fill="#DDAA5F"/><path d="M17.138 8.431l1.753-.877c.187-.094.4.071.356.275l-.164.774c-.048.232-.252.397-.488.397h-1.345c-.138 0-.25-.112-.25-.25v-.095c0-.095.054-.182.138-.224z" fill="#F7F7F7"/><path d="M14.862 8.431l-1.753-.877c-.187-.094-.4.071-.356.275l.164.774c.048.232.252.397.488.397h1.345c.138 0 .25-.112.25-.25v-.095c0-.095-.054-.182-.138-.224z" fill="#fff"/><path d="M17.5 8.25l1-.5v1c0 .138-.112.25-.25.25h-.5c-.138 0-.25-.112-.25-.25v-.5z" fill="#2B3332"/><path d="M14.5 8.25l-1-.5v1c0 .138.112.25.25.25h.5c.138 0 .25-.112.25-.25v-.5z" fill="#373F3F"/></svg>