<svg xmlns="http://www.w3.org/2000/svg" width="32" height="32" viewBox="0 0 32 32"><path d="M23 26l.869 2.607c.084.252.264.46.501.578l3.353 1.677c.17.084.277.258.277.447v.191c0 .276-.224.5-.5.5h-8c-.276 0-.5-.224-.5-.5v-1.264c0-.155.036-.308.106-.447l.789-1.578c.069-.139.105-.292.105-.447v-1.764h3zM18 19l-1 2 2.5 3h3z" fill="#F0C13E"/><path d="M22.812 26.414l-2.972-.371c-.205-.026-.373-.175-.423-.375l-.262-1.046c-.079-.316.16-.622.485-.622h2.95c.238 0 .444.168.49.402l.284 1.418c.067.334-.214.636-.552.594z" fill="#8D5B36"/><path d="M9 26l-.869 2.607c-.084.252-.264.46-.501.578l-3.353 1.677c-.17.084-.277.258-.277.447v.191c0 .276.224.5.5.5h8c.276 0 .5-.224.5-.5v-1.264c0-.155-.036-.308-.106-.447l-.789-1.578c-.069-.139-.105-.292-.105-.447v-1.764h-3zM14 19l1 2-2.5 3h-3zM24 11l2 3 2.008-1.004.992-1.983v-1.757c0-.135.108-.246.243-.25h.001c.515-.014.937.406.924.921l-.052 2.189-.035 1.468-.011.464-.706-.007-3.097 1.971c-.435.277-1.01.177-1.326-.23l-2.941-3.782 2-1z" fill="#F7C845"/><path d="M8 11l-2 3-2.008-1.004-.992-1.983v-1.757c0-.135-.108-.246-.243-.25h-.001c-.515-.014-.937.406-.925.921l.052 2.189.035 1.468.011.464.706-.007 3.097 1.971c.435.277 1.01.177 1.326-.23l2.942-3.782-2-1z" fill="#FFD04D"/><path fill="#845331" d="M21 12l-3 6h-2v-9h5z"/><path fill="#8D5B36" d="M11 12l3 6h2v-9h-5zM20.417 7.637c-1.913 1.105-2.569 3.551-1.464 5.464 1.105 1.913 8.033-2.087 6.928-4-1.104-1.913-3.551-2.568-5.464-1.464z"/><path d="M3 6.5c0-1.381-.395-2.5-1.5-2.5s-1.5 1.119-1.5 2.5c0 1.241.324 2.263 1.191 2.459l-.185 7.785c-.003.14.11.256.25.256h.488c.14 0 .253-.116.25-.256l-.185-7.785c.867-.196 1.191-1.218 1.191-2.459z" fill="#909997"/><path d="M11.583 7.637c1.913 1.105 2.569 3.551 1.464 5.464s-8.033-2.087-6.928-4 3.551-2.568 5.464-1.464z" fill="#96643B"/><path d="M16 3.354h-1.646l-4.559-3.256c-.459-.329-1.025.238-.697.697l2.071 2.9c.715 1.001.746 2.337.079 3.371l-1.515 2.347c-.186.288-.034.673.299.756l2.024.506c.826.207 1.526.754 1.924 1.507l1.136 2.147c.188.355.536.532.884.532v-11.507z" fill="#FFD96C"/><path d="M22.205.098l-4.559 3.256h-1.646v11.508c.348 0 .696-.177.884-.532l1.136-2.147c.398-.753 1.098-1.301 1.924-1.507l2.024-.506c.332-.083.485-.468.299-.756l-1.515-2.347c-.667-1.034-.636-2.37.079-3.371l2.071-2.9c.328-.46-.238-1.027-.697-.698z" fill="#FFD04D"/><path d="M16 18h2l.42.42c.337.337.389.865.125 1.262l-1.397 2.095c-.092.139-.248.223-.416.223h-.732v-4z" fill="#F7C845"/><path d="M16 18h-2l-.42.42c-.337.337-.389.865-.125 1.262l1.397 2.095c.092.139.248.223.416.223h.732v-4z" fill="#FFD04D"/><path d="M17.5 11.5l-.5.5s3.329 2.715 4 6c.659 3.23 1.472 5.426 3.876 6.924.08.05.174.076.268.076h.356c.276 0 .5-.224.5-.5s.224-.5.5-.5.5-.224.5-.5.224-.5.5-.5.5-.224.5-.5v-.186c0-.186-.103-.358-.269-.443-.857-.44-3.565-2.037-5.231-5.37-2-4.001-5-5.001-5-5.001z" fill="#FFD96C"/><path d="M9.188 26.414l2.972-.371c.205-.026.373-.175.423-.375l.262-1.046c.079-.316-.16-.622-.485-.622h-2.95c-.238 0-.444.168-.49.402l-.284 1.418c-.067.334.214.636.552.594z" fill="#96643B"/><path d="M17.209 8.979c.281-.045.81-.186 1.387-.625.166-.126.404-.012.404.196v.17c0 .651-.611 1.128-1.243.97l-.568-.142c-.111-.028-.189-.128-.189-.243v-.08c0-.123.088-.227.209-.246z" fill="#F7F7F7"/><path d="M18.5 8.417c-.381.271-.731.417-1 .493v.715l.257.064c.267.067.527.015.743-.111v-1.161z" fill="#2B3332"/><path d="M14.791 8.979c-.281-.045-.81-.186-1.387-.625-.166-.126-.404-.012-.404.196v.17c0 .651.611 1.128 1.243.97l.568-.142c.111-.028.189-.128.189-.243v-.08c0-.123-.088-.227-.209-.246z" fill="#fff"/><path d="M13.5 8.417c.381.271.731.417 1 .493v.715l-.257.064c-.267.067-.527.015-.743-.111v-1.161z" fill="#373F3F"/><path d="M32 6.5c0-1.381-.395-2.5-1.5-2.5s-1.5 1.119-1.5 2.5c0 1.241.324 2.263 1.191 2.459l-.185 7.785c-.003.14.11.256.25.256h.488c.14 0 .253-.116.25-.256l-.185-7.785c.867-.196 1.191-1.218 1.191-2.459z" fill="#838C8A"/><path d="M22.5 20.5c.276 0 .5-.224.5-.5s.224-.5.5-.5.5-.224.5-.5v-.202c1.479 1.797 3.103 2.747 3.731 3.071.166.086.269.258.269.445v.186c0 .276-.224.5-.5.5s-.5.224-.5.5-.224.5-.5.5-.5.224-.5.5-.224.5-.5.5h-.356c-.094 0-.188-.026-.267-.076-1.414-.882-2.271-2.012-2.877-3.445v-.479c0-.276.224-.5.5-.5z" fill="#FFEAA7"/><path d="M14.5 11.5l.5.5s-3.329 2.715-4 6c-.659 3.23-1.472 5.426-3.876 6.924-.08.05-.174.076-.268.076h-.356c-.276 0-.5-.224-.5-.5s-.224-.5-.5-.5-.5-.224-.5-.5-.224-.5-.5-.5-.5-.224-.5-.5v-.186c0-.186.103-.358.269-.443.857-.44 3.565-2.037 5.231-5.37 2-4.001 5-5.001 5-5.001z" fill="#FFE28A"/><path d="M9.5 20.5c-.276 0-.5-.224-.5-.5s-.224-.5-.5-.5-.5-.224-.5-.5v-.202c-1.479 1.797-3.103 2.747-3.731 3.071-.166.086-.269.258-.269.445v.186c0 .276.224.5.5.5s.5.224.5.5.224.5.5.5.5.224.5.5.224.5.5.5h.356c.094 0 .188-.026.267-.076 1.414-.881 2.271-2.012 2.877-3.444v-.48c0-.276-.224-.5-.5-.5z" fill="#FEF1C6"/><path d="M3.505 15.062l-2.513.314c-.527.066-.992-.345-.992-.876s.465-.942.992-.876l2.513.314c.283.035.495.276.495.561v.002c0 .285-.212.526-.495.561zM3.505 13.062l-2.513.314c-.527.066-.992-.345-.992-.876s.465-.942.992-.876l2.513.314c.283.035.495.276.495.561v.002c0 .285-.212.526-.495.561z" fill="#FFD96C"/><path d="M28.495 15.062l2.513.314c.527.066.992-.345.992-.876s-.465-.942-.992-.876l-2.513.314c-.283.035-.495.276-.495.561v.002c0 .285.212.526.495.561zM28.495 13.062l2.513.314c.527.066.992-.345.992-.876s-.465-.942-.992-.876l-2.513.314c-.283.035-.495.276-.495.561v.002c0 .285.212.526.495.561z" fill="#FFD04D"/></svg>