<svg xmlns="http://www.w3.org/2000/svg" width="32" height="32" viewBox="0 0 32 32"><path d="M18 14h2.646c.818 0 1.553.498 1.857 1.257l1.164 2.909c.212.53.187 1.126-.068 1.637l-1.046 2.091c-.339.678-1.032 1.106-1.789 1.106h-.764v-4l-2-5z" fill="#93C2CA"/><path d="M14 14h-2.646c-.818 0-1.553.498-1.857 1.257l-1.164 2.909c-.212.53-.187 1.126.068 1.637l1.046 2.091c.339.678 1.032 1.106 1.789 1.106h.764v-4l2-5z" fill="#99C7CE"/><path d="M19 20l1.499 3.748c.331.827.501 1.71.501 2.6v2.034c0 .379.214.725.553.894l.106.053c.822.411 1.341 1.252 1.341 2.171 0 .276-.224.5-.5.5h-4.5c-.552 0-1-.448-1-1v-.002c0-.639.254-1.252.706-1.704l.001-.001c.188-.188.293-.442.293-.707v-.98c0-.395-.117-.781-.336-1.109l-1.664-2.497 3-4z" fill="#93C2CA"/><path d="M13 20l-1.499 3.748c-.331.827-.501 1.71-.501 2.6v2.034c0 .379-.214.725-.553.894l-.106.053c-.822.411-1.341 1.252-1.341 2.171 0 .276.224.5.5.5h4.5c.552 0 1-.448 1-1v-.002c0-.639-.254-1.252-.706-1.704l-.001-.001c-.188-.188-.293-.442-.293-.707v-.98c0-.395.117-.781.336-1.109l1.664-2.497-3-4z" fill="#99C7CE"/><path d="M16 12.031c-3.314 0-5 5.686-5 9s1.686 5 5 5v-14z" fill="#9FCCD3"/><path d="M21 21.031c0-3.314-1.686-9-5-9v14c3.314 0 5-1.686 5-5z" fill="#99C7CE"/><path d="M16 3c2.796 0 3.834.471 4.5 3.429.123.548 1.5 2.5 1.5 4.286 0 3.786-2.686 4.285-6 4.285v-12z" fill="#ACD7DD"/><path d="M16 3c-2.796 0-3.834.471-4.5 3.429-.123.548-1.5 2.5-1.5 4.286 0 3.786 2.686 4.285 6 4.285v-12z" fill="#B9E2E7"/><path d="M13.546 5.362l-.278-.391c-.825-1.16-1.268-2.547-1.268-3.97v-.001c0-.552.448-1 1-1s1 .448 1 1v4.217c0 .244-.313.344-.454.145z" fill="#F7F7F7"/><path d="M18.454 5.362l.278-.391c.825-1.16 1.268-2.547 1.268-3.97v-.001c0-.552-.448-1-1-1s-1 .448-1 1v4.217c0 .244.313.344.454.145z" fill="#EDEEEE"/><path d="M13 7c-1 0-1 2.448-1 3v.309c0 .252.188.465.438.496l1 .125c.298.037.562-.196.562-.496v-.434c0-.552 0-3-1-3z" fill="#fff"/><path d="M14 10c0-.495-.002-2.506-.722-2.92-.445.303-.778 1.493-.778 2.92 0 .353.004.503.041.818l.897.112c.298.037.562-.196.562-.496v-.434z" fill="#E85160"/><ellipse cx="13.25" cy="9.5" rx=".25" ry="1" fill="#373F3F"/><path d="M19 7c1 0 1 2.448 1 3v.309c0 .252-.188.465-.438.496l-1 .125c-.298.037-.562-.196-.562-.496v-.434c0-.552 0-3 1-3z" fill="#F7F7F7"/><path d="M18 10c0-.495.002-2.506.722-2.92.445.303.778 1.493.778 2.92 0 .353-.004.503-.041.818l-.897.112c-.298.037-.562-.196-.562-.496v-.434z" fill="#D84459"/><ellipse cx="18.75" cy="9.5" rx=".25" ry="1" fill="#2B3332"/><path d="M21.818 12.203c-1.459 1.164-3.519.797-5.818.797v2c2.815 0 5.17-.368 5.818-2.797z" fill="#A5D1D8"/><path d="M10.182 12.203c.648 2.429 3.003 2.797 5.818 2.797v-2c-2.299 0-4.359.367-5.818-.797z" fill="#ACD7DD"/><path d="M14.75 18.5c-1.091 0-2.133-1.029-2.177-1.073-.098-.098-.098-.256 0-.354.098-.097.256-.099.354 0 .009.009.94.927 1.823.927.138 0 .25.112.25.25s-.112.25-.25.25zM14.5 19.5c-1.091 0-2.133-1.029-2.177-1.073-.098-.098-.098-.256 0-.354.098-.097.256-.099.354 0 .009.009.94.927 1.823.927.138 0 .25.112.25.25s-.112.25-.25.25zM14.25 20.5c-1.091 0-2.133-1.029-2.177-1.073-.098-.098-.098-.256 0-.354.098-.097.256-.099.354 0 .009.009.94.927 1.823.927.138 0 .25.112.25.25s-.112.25-.25.25z" fill="#88B9C3"/><path d="M10.563 20.594l-.815-1.156 1.733-1.223c.319-.225.76-.149.985.17.225.319.149.76-.17.985l-1.733 1.224z" fill="#ACD7DD"/><path d="M17.25 18.5c1.091 0 2.133-1.029 2.177-1.073.098-.098.098-.256 0-.354-.098-.097-.256-.099-.354 0-.009.009-.94.927-1.823.927-.138 0-.25.112-.25.25s.112.25.25.25zM17.5 19.5c1.091 0 2.133-1.029 2.177-1.073.098-.098.098-.256 0-.354-.098-.097-.256-.099-.354 0-.009.009-.94.927-1.823.927-.138 0-.25.112-.25.25s.112.25.25.25zM17.75 20.5c1.091 0 2.133-1.029 2.177-1.073.098-.098.098-.256 0-.354-.098-.097-.256-.099-.354 0-.009.009-.94.927-1.823.927-.138 0-.25.112-.25.25s.112.25.25.25z" fill="#7EB1BD"/><path d="M21.437 20.594l.815-1.156-1.733-1.223c-.319-.225-.76-.149-.985.17-.225.319-.149.76.17.985l1.733 1.224z" fill="#A5D1D8"/><path d="M13 20.5c0-.276-.224-.5-.5-.5.276 0 .5-.224.5-.5s-.224-.5-.5-.5h-1.5c-1.105 0-2 .895-2 2s.895 2 2 2h1.5c.276 0 .5-.224.5-.5s-.224-.5-.5-.5c.276 0 .5-.224.5-.5s-.224-.5-.5-.5c.276 0 .5-.224.5-.5z" fill="#B9E2E7"/><path d="M19 20.5c0-.276.224-.5.5-.5-.276 0-.5-.224-.5-.5s.224-.5.5-.5h1.5c1.105 0 2 .895 2 2s-.895 2-2 2h-1.5c-.276 0-.5-.224-.5-.5s.224-.5.5-.5c-.276 0-.5-.224-.5-.5s.224-.5.5-.5c-.276 0-.5-.224-.5-.5z" fill="#ACD7DD"/><path d="M16 .006l-.098-.001c-.52.049-.902.516-.902 1.038v.348c0 1.085.177 2.163.523 3.191l.24.714c.038.113.138.17.237.17v-5.46z" fill="#F7F7F7"/><path d="M16 .006v5.461c.099 0 .199-.057.237-.17l.24-.714c.346-1.029.523-2.107.523-3.191v-.392c0-.552-.448-.993-1-.994z" fill="#EDEEEE"/></svg>