<svg xmlns="http://www.w3.org/2000/svg" width="32" height="32" viewBox="0 0 32 32"><path d="M31.771 21.325c-.664-1.801-2.806-6.625-6.876-7.256-2.307-.358-4.592 1.125-4.866 3.444-.287 2.426 1.601 4.487 3.971 4.487h7.302c.35 0 .59-.348.469-.675z" fill="#60C46F"/><path d="M31.726 21.751c-4.719-4.46-11.434-4.282-11.674-4.274-.022.172-.052.344-.052.523 0 2.209 1.791 4 4 4h7.302c.189 0 .339-.105.424-.249z" fill="#54B668"/><path d="M.229 21.325c.664-1.801 2.806-6.625 6.876-7.256 2.307-.358 4.592 1.125 4.866 3.444.287 2.426-1.601 4.487-3.971 4.487h-7.302c-.35 0-.59-.348-.469-.675z" fill="#6CD275"/><path d="M12 18c0-.179-.03-.351-.053-.524-.24-.008-6.955-.185-11.674 4.274.086.145.236.25.425.25h7.302c2.209 0 4-1.791 4-4z" fill="#60C46F"/><path d="M15 4l.437-3.499c.083-.662 1.043-.662 1.125 0l.438 3.499h-2z" fill="#845331"/><path d="M16 .005c-.261 0-.521.166-.563.497l-.437 3.498h1v-3.995z" fill="#8D5B36"/><path d="M16 3h-1c-.552 0-1 .448-1 1v2h2v-3z" fill="#FFEAA7"/><path d="M17 3h-1v3h2v-2c0-.552-.448-1-1-1zM16 4c-3.314 0-6 2.686-6 6v4.157c0 1.893-.134 3.783-.402 5.657l-.598 4.186h7v-20z" fill="#FFE28A"/><path d="M23 24l-.598-4.186c-.268-1.874-.402-3.764-.402-5.657v-4.157c0-3.314-2.686-6-6-6v20h7z" fill="#FFD96C"/><path d="M16 21c-3.866 0-7 2.239-7 5s3.134 5 7 5v-10z" fill="#373F3F"/><path d="M23 26c0-2.761-3.134-5-7-5v10c3.866 0 7-2.239 7-5z" fill="#2B3332"/><path d="M16.019 21.019c-3.134 0-5.786 1.472-6.679 3.5.892 2.028 3.544 3.5 6.679 3.5v-7z" fill="#9A3644"/><path d="M22.697 24.519c-.892-2.028-3.544-3.5-6.679-3.5v7c3.135 0 5.787-1.472 6.679-3.5z" fill="#8A323F"/><circle cx="13" cy="15" r="2" fill="#fff"/><circle cx="13" cy="15" r="1" fill="#373F3F"/><circle cx="19" cy="15" r="2" fill="#F7F7F7"/><circle cx="19" cy="15" r="1" fill="#2B3332"/><path d="M16 30c-3.252 0-6-1.832-6-4s2.748-4 6-4v-2c-4.411 0-8 2.691-8 6s3.589 6 8 6v-2z" fill="#F8A1C4"/><path d="M22 26c0 2.168-2.748 4-6 4v2c4.411 0 8-2.691 8-6s-3.589-6-8-6v2c3.252 0 6 1.832 6 4z" fill="#F297BE"/></svg>