<svg xmlns="http://www.w3.org/2000/svg" width="32" height="32" viewBox="0 0 32 32"><path d="M12 15s-1.417 5-3 7-5 4.167-5 7c0 1 .5 3 1.5 3s1.5-1 1.5-3 1.285-3.904 3-7l3-7h-1z" fill="#E3E5E5"/><path d="M20 15s1.417 5 3 7 5 4.167 5 7c0 1-.5 3-1.5 3s-1.5-1-1.5-3-1.285-3.904-3-7l-3-7h1z" fill="#DADDDC"/><path d="M16 13h-5l-2.493 1.662c-.263.175-.299.546-.076.77l.059.058c.304.304.769.38 1.154.187l.724-.362c.377-.189.833-.115 1.131.184l.001.001c.298.298.754.372 1.131.184l.736-.368c.377-.189.833-.115 1.132.183l.086.086c.391.391.902.586 1.414.586v-3.171z" fill="#B0D3EA"/><path d="M17.414 15.586l.086-.086c.298-.298.754-.372 1.131-.184l.737.368c.377.189.833.115 1.131-.184l.001-.001c.298-.298.754-.372 1.131-.184l.724.362c.385.192.85.117 1.154-.187l.059-.059c.223-.223.186-.595-.076-.77l-2.492-1.661h-5v3.172c.512 0 1.024-.196 1.414-.586z" fill="#9FC9E4"/><path d="M16 0c-12 0-5 13-5 13h3l1.4 1.05c.178.133.389.2.6.2v-14.25z" fill="#C1DDEE"/><path d="M16.6 14.05l1.4-1.05h3s7-13-5-13v14.25c.211 0 .422-.067.6-.2z" fill="#B0D3EA"/><path d="M11 13s.5 1.5 1.5 1.5l1.5-1.5h-3z" fill="#fff"/><path d="M18.015 13s.5 1.5 1.5 1.5l1.5-1.5h-3z" fill="#F7F7F7"/><path d="M12.5 14c.276 0 .5-.724.5-1h-1c0 .276.224 1 .5 1z" fill="#373F3F"/><path d="M19.5 14c.276 0 .5-.724.5-1h-1c0 .276.224 1 .5 1z" fill="#2B3332"/><path d="M16 5c-1.208 0-2.5.788-2.5 3s1.292 3 2.5 3v-6zM8.998 6.465l.393-.182c4.243-1.97 4.101-5.669 4.093-5.825l-.011-.211c-3.807.802-4.674 3.502-4.475 6.218z" fill="#B0D3EA"/><path d="M18.5 8c0-2.212-1.292-3-2.5-3v6c1.208 0 2.5-.788 2.5-3z" fill="#9FC9E4"/><path d="M12.485.508s.164 3.158-3.515 4.867c0 0-1.125-4.816 3.515-4.867" fill="#E85160"/><path d="M18.529.247l-.011.21c-.008.156-.15 3.855 4.092 5.825l.392.182c.199-2.715-.668-5.414-4.473-6.217z" fill="#9FC9E4"/><path d="M19.516.508s-.164 3.158 3.515 4.867c0 0 1.125-4.816-3.515-4.867" fill="#D84459"/><path d="M16 6c-1.105 0-1.5.895-1.5 2s.395 2 1.5 2v-4z" fill="#E85160"/><path d="M17.5 8c0-1.105-.395-2-1.5-2v4c1.105 0 1.5-.895 1.5-2z" fill="#D84459"/></svg>