<svg xmlns="http://www.w3.org/2000/svg" width="32" height="32" viewBox="0 0 32 32"><path fill="#838C8A" d="M14 16l-3-6 5-4v10z"/><path fill="#757F7E" d="M18 16l3-6-5-4v10zM16 6l-5 4-2-4 3-4 4 1z"/><path fill="#687271" d="M16 6l5 4 2-4-3-4-4 1zM16 1h-2.586c-.265 0-.52.105-.707.293l-.707.707 4 1v-2z"/><path d="M16 1v2l4-1-.707-.707c-.188-.188-.442-.293-.707-.293h-2.586z" fill="#5C6664"/><path fill="#687271" d="M9 6l-4 2-2 4 2 3 6-5z"/><path fill="#5C6664" d="M23 6l4 2 2 4-2 3-6-5z"/><path d="M12 2h-1.649c-.227 0-.447.077-.625.219l-4.351 3.481c-.237.19-.375.477-.375.781v1.519l4-2 3-4z" fill="#838C8A"/><path d="M20 2h1.649c.227 0 .447.077.625.219l4.351 3.481c.237.19.375.477.375.781v1.519l-4-2-3-4zM11 10l3 6-2 4-2 1-5-3v-3z" fill="#757F7E"/><path fill="#687271" d="M21 10l-3 6 2 4 2 1 5-3v-3z"/><path fill="#505957" d="M22 21l-3 3 1 1 3-1 4-4v-2z"/><path fill="#5C6664" d="M20 20l2 1-3 3-3-1v-1zM10 21l3 3-1 1-3-1-4-4v-2z"/><path fill="#687271" d="M12 20l-2 1 3 3 3-1v-1z"/><path d="M16 14h-1.541c-1.43 0-2.661 1.009-2.942 2.412l-.203 1.014c-.197.984.111 2 .82 2.71l.986.986c.564.562 1.327.878 2.123.878h.757v-8z" fill="#B38658"/><path d="M20.482 16.412c-.28-1.403-1.511-2.412-2.941-2.412h-1.541v8h.757c.796 0 1.559-.316 2.121-.879l.986-.986c.709-.709 1.017-1.726.82-2.71l-.202-1.013z" fill="#A7794C"/><path d="M15 19h-1.752c-.179 0-.341-.093-.433-.247-.143-.237-.315-.648-.315-1.253 0-1.031.5-1.5.5-1.5l2 2v1z" fill="#fff"/><path d="M17 19h1.752c.179 0 .341-.093.433-.247.142-.237.314-.648.314-1.253 0-1.031-.5-1.5-.5-1.5l-2 2v1z" fill="#F7F7F7"/><path d="M13.294 16.294c-.139.24-.294.625-.294 1.206 0 .605.172 1.016.314 1.253.093.154.254.247.434.247h1.252v-1l-1.706-1.706z" fill="#E85160"/><path d="M12.411 14.822l2.313 4.625c.169.339.515.553.894.553h.382v-6h-1.541c-.787 0-1.507.313-2.048.822z" fill="#C09265"/><path d="M18.706 16.294c.139.24.294.625.294 1.206 0 .605-.172 1.016-.314 1.253-.093.154-.254.247-.434.247h-1.252v-1l1.706-1.706z" fill="#D84459"/><path d="M19.589 14.822c-.541-.509-1.261-.822-2.048-.822h-1.541v6h.382c.379 0 .725-.214.894-.553l2.313-4.625z" fill="#B38658"/><path d="M14.5 20.5c-.32-.32-.754-.5-1.207-.5h-1.263l.105.135.986.986c.563.563 1.326.879 2.122.879h.757v-1h-.293c-.453 0-.887-.18-1.207-.5z" fill="#A7794C"/><path d="M18.879 21.121l.986-.986.105-.135h-1.263c-.453 0-.887.18-1.207.5-.32.32-.754.5-1.207.5h-.293v1h.757c.796 0 1.559-.316 2.122-.879zM5 20l-1.221 2.443c-.481.963-.41 2.11.187 3.006l1.034 1.551-2.707 2.707c-.188.188-.293.442-.293.707v.086c0 .276.224.5.5.5h8c.276 0 .5-.224.5-.5v-.556c0-.621-.145-1.233-.422-1.789l-.578-1.155 2-2-3-1-4-4z" fill="#9E6E43"/><path d="M27 20l1.221 2.443c.481.963.41 2.11-.187 3.006l-1.034 1.551 2.707 2.707c.188.188.293.442.293.707v.086c0 .276-.224.5-.5.5h-8c-.276 0-.5-.224-.5-.5v-.556c0-.621.145-1.233.422-1.789l.578-1.155-2-2 3-1 4-4z" fill="#96643B"/><path d="M3 12l-2.6 3.467c-.26.346-.4.767-.4 1.2v5.083c0 .138.112.25.25.25h.095c.095 0 .181-.054.224-.138l.207-.415c.092-.184.355-.184.447 0l.207.415c.043.084.13.138.225.138h.191c.095 0 .181-.054.224-.138l.207-.415c.092-.184.355-.184.447 0l.207.415c.042.084.129.138.224.138h.095c.138 0 .25-.112.25-.25v-1.417c0-.216.07-.427.2-.6l1.3-1.733v-3l-2-3z" fill="#A7794C"/><path d="M29 12l2.6 3.467c.26.346.4.767.4 1.2v5.083c0 .138-.112.25-.25.25h-.095c-.095 0-.181-.054-.224-.138l-.207-.415c-.092-.184-.355-.184-.447 0l-.207.415c-.043.084-.13.138-.225.138h-.191c-.095 0-.181-.054-.224-.138l-.207-.415c-.092-.184-.355-.184-.447 0l-.207.415c-.042.084-.129.138-.224.138h-.095c-.138 0-.25-.112-.25-.25v-1.417c0-.216-.07-.427-.2-.6l-1.3-1.733v-3l2-3z" fill="#9E6E43"/><path d="M16 23l-3 1-1 1 3.515.879c.159.04.322.06.485.06v-2.939z" fill="#505957"/><path d="M16.485 25.879l3.515-.879-1-1-3-1v2.938c.163 0 .326-.019.485-.059z" fill="#434C4B"/></svg>