<svg xmlns="http://www.w3.org/2000/svg" width="32" height="32" viewBox="0 0 32 32"><path d="M16 0c-.113 0-.226.05-.283.151-.508.9-1.699 2.111-3.574 4.467-1.322 1.661-1.624 3.603-1.606 5.1.003.266-.353.352-.473.115l-.045-.089c-.118-.231-.51-.21-.602.03-.555 1.448-2.417 2.267-2.417 7.765 0 6.461 9 6.461 9 6.461v-24z" fill="#FF4A00"/><path d="M25 17.539c0-5.498-1.862-6.317-2.417-7.766-.092-.239-.484-.261-.602-.03l-.045.089c-.12.237-.476.151-.473-.115.018-1.496-.284-3.438-1.606-5.1-1.875-2.356-3.067-3.566-3.574-4.467-.057-.1-.17-.15-.283-.15v24s9 0 9-6.461z" fill="#F74000"/><path d="M16.002 4.039l-.002-.002c-.254.313-.547.662-.888 1.064-.526.623-1.16 1.375-1.903 2.309-1.284 1.612-1.459 3.573-1.369 4.967.026.403-.448.691-.888.537l-.556-.196c-.304-.107-.655-.004-.812.241-.641.996-1.298 2.415-1.298 5.672 0 5.276 7.39 5.369 7.716 5.37v-19.962z" fill="#FF8F00"/><path d="M21.604 12.717l-.556.196c-.439.155-.914-.134-.888-.537.09-1.394-.085-3.354-1.368-4.967-.745-.933-1.379-1.685-1.905-2.309-.34-.402-.633-.75-.886-1.062v19.962h.001c.348 0 7.712-.074 7.712-5.37 0-3.256-.657-4.675-1.298-5.672-.158-.245-.508-.348-.812-.241z" fill="#F97C00"/><path d="M16 7.014c-.488.578-1.063 1.265-1.726 2.098-1.091 1.37-1.228 3.092-1.149 4.298.028.455-.159.887-.527 1.217-.363.325-.873.511-1.397.511l-.252-.024c-.306-.048-.607.1-.714.348-.379.877-.662 2.128-.662 4.26 0 4.127 5.743 4.277 6.429 4.279v-16.987z" fill="#FFD400"/><path d="M16.004 24c.667 0 6.425-.124 6.425-4.279 0-2.133-.283-3.383-.662-4.26-.107-.247-.409-.396-.714-.348l-.252.024c-.525 0-1.035-.186-1.397-.511-.368-.329-.555-.762-.526-1.219.078-1.204-.059-2.925-1.149-4.295-.666-.832-1.241-1.519-1.729-2.098v16.986h.004z" fill="#F9C900"/><path d="M18.5 31h.86c.325 0 .564-.306.485-.621l-.345-1.379h-1.5v1.5c0 .276.224.5.5.5z" fill="#2B3332"/><path d="M13.5 31h-.86c-.325 0-.564-.306-.485-.621l.345-1.379h1.5v1.5c0 .276-.224.5-.5.5z" fill="#373F3F"/><path fill="#FAE09F" d="M14 22v7h-1.5l-.295-7.871z"/><path d="M14.5 14l-.803 3.21c-.13.521-.363 1.011-.686 1.441-.647.863-.921 1.949-.761 3.016l1.25 8.333h1.5v-6h1v-10h-1.5z" fill="#FDEBBB"/><path d="M17.14 32h1.219c.325 0 .564-.306.485-.621l-.344-1.379h-1.5l-.345 1.379c-.079.315.16.621.485.621z" fill="#373F3F"/><path d="M14.86 32h-1.22c-.325 0-.564-.306-.485-.621l.345-1.379h1.5l.345 1.379c.079.315-.16.621-.485.621z" fill="#434C4B"/><path fill="#F7D684" d="M18 22v7h1.5l.295-7.871z"/><path d="M17.5 14l.803 3.21c.13.521.363 1.011.686 1.441.647.863.921 1.949.761 3.016l-1.25 8.333h-1.5v-6h-1v-10h1.5z" fill="#FAE09F"/><path d="M16.002 6.001c-.106-.001-.213.061-.245.188l-.693 2.77-2.111-2.041c-.169-.164-.45-.024-.422.21l.469 3.884v1.952c0 .663.263 1.299.732 1.768l.51.51c.165.165.258.389.258.622v.001c0 .379.242.715.602.835l.108.036c.257.086.524.128.791.128v-5.646h.002v-5.217z" fill="#FFF3D9"/><path d="M19.468 7.128c.028-.234-.253-.373-.422-.21l-2.111 2.041-.693-2.77c-.031-.125-.136-.188-.241-.189v3h-.001v7.865c.267 0 .534-.043.791-.128l.108-.036c.359-.12.602-.456.602-.835v-.001c0-.233.093-.457.258-.622l.51-.51c.468-.47.731-1.105.731-1.769v-1.952l.468-3.884z" fill="#FDEBBB"/><path d="M13.5 9.5c.251-.251.573-.412.918-.471l-1.304-1.262.231 1.923.155-.19z" fill="#E8BA67"/><path d="M18.5 9.5l.156.19.231-1.923-1.304 1.262c.344.059.666.22.917.471z" fill="#DDAA5F"/><path d="M14.491 12.902c-.056-.177-.236-.642-.677-1.093-.089-.091-.216-.073-.238.034-.074.35-.172 1.035.129 1.252.442.32.687.066.772-.059l.014-.134z" fill="#FF4A00"/><path d="M17.509 12.902c.056-.177.236-.642.677-1.093.089-.091.216-.073.238.034.074.35.172 1.035-.129 1.252-.442.32-.687.066-.772-.059l-.014-.134z" fill="#F74000"/></svg>