<svg xmlns="http://www.w3.org/2000/svg" width="32" height="32" viewBox="0 0 32 32"><path d="M25 22c0-4.457-2.267-7.579-6.044-8.619l-.657-9.202c-.169-2.354-2.128-4.179-4.489-4.179h-.81c-1.657 0-3 1.343-3 3v.639c0 1.236 1.11 2.176 2.329 1.973l.178-.03c.285-.047.493-.293.493-.582h-.5c-.828 0-1.5-.672-1.5-1.5 0-1.105.895-2 2-2h.5c1.381 0 2.5 1.119 2.5 2.5v26c2.193.031 4.057-.36 5.516-1.181.948.869 1.306 2.122 1.425 2.767.044.239.249.414.492.414h1.279c.178 0 .349-.096.44-.249 2.952-4.994-.152-9.751-.152-9.751z" fill="#F8A1C4"/><path d="M16 4c0-1.381-1.119-2.5-2.5-2.5h-.5c-1.105 0-2 .895-2 2 0 .828.672 1.5 1.5 1.5h.5v-.135c0-.223-.126-.428-.326-.528l-.397-.199c-.17-.085-.277-.258-.277-.447v-.001c0-.381.309-.69.69-.69h.215c.588 0 1.049.505.996 1.091l-.844 9.289c-3.759 1.039-5.981 4.162-6.057 8.62 0 0-3.104 4.757-.152 9.751.09.153.262.249.44.249h1.279c.244 0 .448-.175.492-.414.122-.661.491-1.963 1.493-2.833 1.452.8 3.296 1.217 5.447 1.247v-26z" fill="#F9ADC8"/><path d="M11.268 19.465c-.346-.286-.784-.465-1.268-.465-1.105 0-2 .895-2 2 0 .835.513 1.549 1.24 1.848-.156.659-.24 1.376-.24 2.152 0 4.418 7 5 7 5v-12c-1.962 0-3.56.512-4.732 1.465z" fill="#FAC4D1"/><path d="M24 21c0-1.105-.895-2-2-2-.484 0-.922.179-1.268.465-1.172-.953-2.77-1.465-4.732-1.465v12s7-.582 7-5c0-.776-.084-1.493-.24-2.152.727-.299 1.24-1.013 1.24-1.848z" fill="#FAB8CD"/><circle cx="12.5" cy="23.5" r="2.5" fill="#fff"/><circle cx="12.5" cy="23.5" r=".5" fill="#373F3F"/><circle cx="19.5" cy="23.5" r="2.5" fill="#F7F7F7"/><circle cx="19.5" cy="23.5" r=".5" fill="#2B3332"/><path d="M16 24.84c-1.942 0-3.884.269-5.769.808l-.056.016c-.696.199-1.175.835-1.175 1.558 0 .492.224.957.608 1.265l2.831 2.265c1.01.808 2.266 1.248 3.56 1.248h.001v-7.16z" fill="#FDEBBB"/><path d="M16.001 32c1.294 0 2.55-.44 3.561-1.249l2.831-2.265c.383-.307.607-.772.607-1.264 0-.723-.479-1.359-1.175-1.557l-.056-.016c-1.885-.539-3.827-.809-5.769-.809l.001 7.16zM16 29c-2.576 0-4.958-.478-6.913-1.284.096.299.27.57.521.771l2.831 2.265c1.01.808 2.266 1.248 3.56 1.248h.001v-3z" fill="#FAE09F"/><path d="M16 29c-1.589 0-3.088-.2-4.474-.528.814 1.492 2.502 2.528 4.474 2.528v-2z" fill="#F297BE"/><path d="M16.001 32c1.294 0 2.55-.44 3.561-1.249l2.831-2.265c.251-.201.424-.472.521-.771-1.956.807-4.338 1.285-6.914 1.285l.001 3z" fill="#F7D684"/><path d="M20.474 28.472c-1.386.328-2.885.528-4.474.528v2c1.972 0 3.66-1.036 4.474-2.528z" fill="#EA8BB4"/><path d="M11.887 28.547l.303 1.211c.035.142.163.242.31.242s.275-.1.31-.242l.248-.993c-.398-.063-.789-.135-1.171-.218z" fill="#fff"/><path d="M19.5 30c.147 0 .275-.1.31-.242l.303-1.211c-.383.083-.774.155-1.172.217l.248.993c.036.143.164.243.311.243z" fill="#F7F7F7"/><path d="M9.542 21.875c.25-.639.585-1.205.999-1.694-.158-.105-.337-.181-.541-.181-.552 0-1 .448-1 1 0 .384.224.708.542.875z" fill="#F297BE"/><path d="M22.458 21.875c.318-.167.542-.491.542-.875 0-.552-.448-1-1-1-.204 0-.383.076-.542.181.415.489.75 1.055 1 1.694z" fill="#EA8BB4"/></svg>