<svg xmlns="http://www.w3.org/2000/svg" width="32" height="32" viewBox="0 0 32 32"><path fill="#88B9C3" d="M16.033 19.179l5.5 5.5 2-4-4.5-4.5z"/><path d="M26.606 19.252l-1.573-1.573.5-1-3.499-3.499-3 3 4.499 4.499.5-1h2.396c.223 0 .334-.269.177-.427z" fill="#93C2CA"/><path fill="#99C7CE" d="M22.033 13.179l3.5 3.5 2-4-2.5-2.5z"/><path d="M29.033 9.679l.5-1-1.499-1.499-3 3 2.499 2.499.5-1h2.396c.223 0 .334-.269.177-.427l-1.573-1.573z" fill="#9FCCD3"/><path d="M31.033 4.179l-3 3 1.499 1.499 1.684-3.368c.189-.377.116-.832-.183-1.131z" fill="#A5D1D8"/><path d="M31.032 4.178c-.298-.298-.754-.372-1.131-.184l-.368.184-1.573-1.573c-.157-.158-.427-.046-.427.177v2.396l-1 .5 1.501 1.501 3-3-.002-.001z" fill="#ACD7DD"/><path fill="#A5D1D8" d="M26.533 5.679l-4 2 2.5 2.5 3-3z"/><path d="M22.533 7.679l-1 .5-1.573-1.573c-.157-.158-.427-.046-.427.177v2.396l-1 .5 3.501 3.501 3-3-2.501-2.501z" fill="#9FCCD3"/><path fill="#99C7CE" d="M18.533 9.679l-4 2 4.5 4.5 3-3z"/><path fill="#93C2CA" d="M19.033 16.179l-4.5-4.5-4 2 5.5 5.5z"/><path d="M25.628 13.179h-2.595l1.755 1.755c.121.121.324.088.4-.065l.664-1.328c.083-.167-.038-.362-.224-.362z" fill="#F7F7F7"/><path d="M24.5 14.179c.276 0 .5-.448.5-1h-1c0 .552.224 1 .5 1z" fill="#2B3332"/><path d="M22.033 9.588v2.595l-1.755-1.755c-.121-.121-.088-.324.065-.4l1.328-.664c.166-.082.362.038.362.224z" fill="#fff"/><path d="M21.033 10.717c0-.276.448-.5 1-.5v1c-.553 0-1-.224-1-.5z" fill="#373F3F"/><path d="M15 20.999l3.652.522c1.921.274 3.348 1.92 3.348 3.861v.002c0 1.034-.411 2.026-1.142 2.758l-.858.857 1.447.724c.339.169.553.515.553.894v.132c0 .138-.112.25-.25.25l-6.5.002c-.138 0-.25-.112-.25-.25v-.337c0-.265.105-.52.293-.707l.707-.708-1-1v-7z" fill="#F8A1C4"/><path d="M9 20.999l-3.652.522c-1.921.274-3.348 1.92-3.348 3.861v.002c0 1.034.411 2.026 1.142 2.758l.858.857-1.447.724c-.339.169-.553.515-.553.894v.132c0 .138.112.25.25.25l6.5.002c.138 0 .25-.112.25-.25v-.337c0-.265-.105-.52-.293-.707l-.707-.708 1-1v-7z" fill="#F9ADC8"/><path d="M11.998 13.999c-4.417.001-6.998 3.583-6.998 8s2.581 6.999 6.998 7v-15z" fill="#FAE09F"/><path d="M12 13.999h-.002v15h.002c4.418 0 7-2.582 7-7s-2.582-8-7-8z" fill="#F7D684"/><path d="M11.998 13.999c-4.417.001-6.998 3.583-6.998 8l.016.415c1.264 2.304 3.667 3.584 6.983 3.585v-12z" fill="#FDEBBB"/><path d="M12 13.999h-.002v12h.002c3.317 0 5.72-1.28 6.984-3.585l.016-.415c0-4.418-2.582-8-7-8z" fill="#FAE09F"/><path d="M12 13.999c-3.654 0-6.046 2.452-6.767 5.798 1.314 2.066 3.636 3.202 6.767 3.202v-9z" fill="#FFF3D9"/><path d="M18.767 19.797c-.721-3.346-3.113-5.798-6.767-5.798v9c3.131 0 5.453-1.136 6.767-3.202z" fill="#FDEBBB"/><path d="M7.652 2.873c-.36-.527-.965-.874-1.652-.874-1.105 0-2 .895-2 2s.895 2 2 2l.091-.009c-.055.329-.091.664-.091 1.009v10.396l.255.613c1.363 1.279 3.308 1.97 5.745 1.97v-18.979c-1.713 0-3.255.722-4.348 1.874z" fill="#FAB8CD"/><circle cx="6" cy="3.999" r="1" fill="#F297BE"/><path d="M18 1.999c-.687 0-1.292.347-1.652.874-1.093-1.152-2.635-1.874-4.348-1.874v18.979c2.437 0 4.382-.691 5.745-1.97l.255-.613v-10.396c0-.345-.036-.68-.091-1.009l.091.009c1.105 0 2-.895 2-2 0-1.104-.895-2-2-2z" fill="#F9ADC8"/><circle cx="18" cy="3.999" r="1" fill="#EA8BB4"/><circle cx="15" cy="5.999" r="2" fill="#F7F7F7"/><circle cx="15.5" cy="5.499" r=".5" fill="#2B3332"/><circle cx="9" cy="5.999" r="2" fill="#fff"/><circle cx="8.5" cy="5.499" r=".5" fill="#373F3F"/><path d="M12 7.111c-1.592 0-3.183.541-4.481 1.622l-.678.565c-.452.376-.483 1.06-.067 1.475l1.812 1.811c.905.906 2.134 1.414 3.414 1.414v-6.887z" fill="#FDEBBB"/><path d="M15.414 12.585l1.812-1.811c.416-.416.385-1.099-.067-1.475l-.677-.565c-1.299-1.082-2.89-1.623-4.482-1.623v6.888c1.281 0 2.509-.509 3.414-1.414z" fill="#FAE09F"/><path d="M6 11.999l-1.211 2.019c-1.075 1.792-.922 4.064.383 5.696l.254.317c.84 1.05 2.406 1.136 3.356.186.719-.719.868-1.831.363-2.714l-3.145-5.504z" fill="#FAC4D1"/><path d="M18 11.999l1.211 2.019c1.075 1.792.922 4.064-.383 5.696l-.254.317c-.84 1.05-2.406 1.136-3.356.186-.719-.719-.868-1.831-.363-2.714l3.145-5.504z" fill="#FAB8CD"/><path d="M12 10.184c-.489 0-.977.06-1.455.179l-.85.212c-1 .25-2.043.224-3.034-.047l-.018.042.132.204 1.812 1.811c.905.906 2.134 1.414 3.414 1.414v-3.815z" fill="#FAE09F"/><path d="M15.414 12.585l1.812-1.811.132-.204-.018-.042c-.991.271-2.034.297-3.034.047l-.85-.212c-.478-.119-.966-.179-1.455-.179v3.815c1.28 0 2.508-.509 3.413-1.414z" fill="#F7D684"/><path d="M12 10.184c-.408 0-.816.05-1.212.148l-.851.213c-.537.135-1.094.203-1.655.203l-.12-.001 1.131 1.131c.713.713 1.699 1.121 2.707 1.121v-2.815z" fill="#F9ADC8"/><path d="M14.707 11.878l1.127-1.131-.116.001c-.561 0-1.118-.068-1.656-.203l-.849-.212c-.396-.1-.805-.149-1.213-.149v2.815c1.008 0 1.994-.408 2.707-1.121z" fill="#F8A1C4"/></svg>