<svg xmlns="http://www.w3.org/2000/svg" width="32" height="32" viewBox="0 0 32 32"><path d="M16 10.001c-.375 0-.755.02-1.138.062-4.648.513-8.396 4.344-8.819 9.001-.248 2.723.598 5.247 2.147 7.182.371.464 1.07.495 1.49.075l6.32-6.321v-9.999z" fill="#E0C193"/><path d="M16 10.001c.375 0 .755.02 1.138.062 4.648.513 8.396 4.344 8.819 9.001.248 2.723-.598 5.247-2.147 7.182-.371.464-1.07.495-1.49.075l-6.32-6.321v-9.999z" fill="#DBBA8C"/><path d="M15.208 0c-.627 0-1.1.571-.982 1.187l.379 1.989-.36.092-.799-2.097c-.229-.6-.955-.832-1.489-.476l-.982.655c-.512.341-.597 1.059-.18 1.51l1.394 1.51c-1.337 1.1-2.189 2.764-2.189 4.63 0 .899.2 1.75.556 2.515.317.681.137 1.465-.379 2.011-1.681 1.783-2.555 4.333-2.021 7.077.607 3.12 3.119 5.635 6.239 6.241.544.106 1.079.145 1.604.145v-26.989h-.791z" fill="#EFD4A7"/><path d="M21.869 13.575c-.538-.58-.723-1.401-.397-2.121.503-1.112.677-2.403.39-3.756-.281-1.322-1.031-2.485-2.049-3.327l1.394-1.51c.417-.452.331-1.169-.18-1.51l-.982-.655c-.534-.356-1.261-.124-1.489.476l-.799 2.097-.358-.102.377-1.979c.115-.617-.357-1.188-.984-1.188h-.792v26.989c4.417-.001 8-3.571 8-7.989 0-2.097-.81-4-2.131-5.425z" fill="#EACEA1"/><path d="M17.91 26l-.903 5.418c-.051.305.184.582.493.582h5.91c.276 0 .5-.224.5-.5v-.001c0-.881-.6-1.649-1.454-1.863l-2.546-.636v-4l-2 1z" fill="#F7C845"/><path d="M14 26l.903 5.418c.051.305-.184.582-.493.582h-5.91c-.276 0-.5-.224-.5-.5v-.001c0-.881.6-1.649 1.454-1.863l2.546-.636v-4l2 1z" fill="#FFD04D"/><path d="M15.5 11l-3.141-3.589c-.207-.237-.576-.229-.771.018-.275.35-.588.895-.588 1.571 0 .908.565 1.581.846 1.859.094.094.217.141.349.141h3.305z" fill="#fff"/><path d="M16 15c-3.866 0-7 3.134-7 7 0 .347.034.685.082 1.018 1.13 1.942 3.056 3.387 5.313 3.826.544.106 1.08.15 1.604.149v-11.993z" fill="#FCE8CC"/><path d="M22.921 22.996c.047-.326.079-.657.079-.996 0-3.866-3.134-7-7-7v11.993c2.958-.001 5.538-1.607 6.921-3.997z" fill="#F5DEB9"/><path d="M16.5 11l3.141-3.589c.207-.237.576-.229.771.018.275.35.588.895.588 1.571 0 .908-.565 1.581-.846 1.859-.094.094-.217.141-.349.141h-3.305z" fill="#F7F7F7"/><path d="M17.716 18.1l-5.47 4.254c-.475.369-.518 1.071-.093 1.496l1.934 1.934c.425.425 1.127.382 1.496-.093l4.254-5.47-2.121-2.121z" fill="#fff"/><path d="M25.162 24h-3.662c-.276 0-.5.224-.5.5v2c0 .276.224.5.5.5h.732c.613 0 1.193-.28 1.576-.758.544-.68 1.001-1.433 1.354-2.242z" fill="#CFAB81"/><path d="M22.737 13.078l1.914 1.922 4.803-4.426c.209-.193.216-.52.015-.721l-1.399-1.4c-.195-.195-.512-.195-.707 0l-4.626 4.625z" fill="#60C46F"/><path d="M30.681 11.785l-.763-2.125c-.105-.293-.449-.419-.719-.265l-6.483 3.705-5 5 2.121 2.121 4.814-5.221 5.764-2.589c.239-.108.354-.38.266-.626z" fill="#6CD275"/><path d="M25.95 21h-6.45c-.276 0-.5.224-.5.5v2c0 .276.224.5.5.5h5.662c.409-.935.682-1.942.788-3z" fill="#D5B387"/><path d="M18.5 18c-.276 0-.5.224-.5.5v2c0 .276.224.5.5.5h7.45c.033-.329.05-.662.05-1 0-.685-.07-1.354-.201-2h-7.299z" fill="#DBBA8C"/><path d="M24.651 15h-5.151c-.276 0-.5.224-.5.5v2c0 .276.224.5.5.5h6.299c-.218-1.074-.615-2.081-1.148-3z" fill="#E0C193"/><path d="M16 7.993l-3.259-1.955c-.253-.152-.514.183-.305.391l3.564 3.564v-2z" fill="#604631"/><path d="M19.564 6.429c.208-.208-.053-.543-.305-.391l-3.259 1.955v2l3.564-3.564z" fill="#4F4032"/><path d="M16 10.236c-.306 0-.613.07-.894.211l-2.211 1.106c-.495.247-.695.847-.448 1.341l2.106 4.211c.274.549.834.895 1.447.895v-7.764z" fill="#FFD04D"/><path d="M17.447 17.106l2.106-4.211c.247-.495.047-1.095-.447-1.342l-2.211-1.106c-.281-.141-.588-.211-.894-.211v7.764c.612 0 1.172-.346 1.446-.894z" fill="#F7C845"/><path d="M13.986 9.27l-1.604-1.833c-.231.367-.382.927-.382 1.563 0 1.105.448 2 1 2 .506 0 .92-.754.986-1.73z" fill="#373F3F"/><path d="M20 9c0-.636-.151-1.196-.383-1.563l-1.603 1.833c.066.976.48 1.73.986 1.73.552 0 1-.895 1-2z" fill="#2B3332"/></svg>