<svg xmlns="http://www.w3.org/2000/svg" width="32" height="32" viewBox="0 0 32 32"><path d="M16.837 16.869l-.674-.738c4.487-4.091 4.339-11.543 4.337-11.617l1-.027c.009.324.159 7.987-4.663 12.382z" fill="#4F4032"/><path d="M15.163 16.869c-4.822-4.395-4.672-12.058-4.663-12.383l1 .027c-.002.074-.143 7.533 4.337 11.617l-.674.739z" fill="#604631"/><path fill="#F7D684" d="M19 20l1 10.5 3 .5v1h-5v-1l1-.5-2-9.5z"/><path fill="#FAE09F" d="M13 20l-1 10.5-3 .5v1h5v-1l-1-.5 2-9.5z"/><path d="M16 11.133c-.07 0-.139.029-.189.087l-.496.575-.628-.427c-.126-.086-.299-.04-.366.098l-.33.684-.717-.25c-.144-.05-.299.039-.328.189l-.142.746-.757-.056c-.152-.011-.279.115-.268.268l.056.757-.746.142c-.15.029-.24.184-.189.328l.25.717-.684.33c-.138.066-.184.24-.098.366l.427.628-.575.496c-.116.1-.116.279 0 .379l.575.496-.427.628c-.086.126-.04.299.098.366l.684.33-.25.717c-.05.144.039.299.189.328l.746.142-.056.757c-.011.152.115.279.268.268l.757-.056.142.746c.029.15.184.24.328.189l.717-.25.33.684c.066.138.24.184.366.098l.628-.427.496.575c.05.058.12.087.189.087v-11.735z" fill="#A7794C"/><path d="M16.189 22.78l.496-.575.628.427c.126.086.299.04.366-.098l.33-.684.717.25c.144.05.299-.039.328-.189l.142-.746.757.056c.152.011.279-.115.268-.268l-.056-.757.746-.142c.15-.029.24-.184.189-.328l-.25-.717.684-.33c.138-.066.184-.24.098-.366l-.427-.628.575-.496c.116-.1.116-.279 0-.379l-.575-.496.427-.628c.086-.126.04-.299-.098-.366l-.684-.33.25-.717c.05-.144-.039-.299-.189-.328l-.746-.142.056-.757c.011-.152-.115-.279-.268-.268l-.757.056-.142-.746c-.029-.15-.184-.24-.328-.189l-.717.25-.33-.684c-.066-.138-.24-.184-.366-.098l-.628.427-.496-.575c-.05-.058-.12-.087-.189-.087v11.734c.07.001.139-.028.189-.086zM16 21l-.663-.659c-.08-.08-.204-.096-.302-.039l-.846.494-.434-.771c-.057-.102-.178-.15-.289-.117l-.966.288-.182-.822c-.027-.12-.137-.203-.26-.195l-.989.063-.169.485c-.05.144.039.299.189.328l.746.142-.056.757c-.011.152.115.279.268.268l.757-.056.142.746c.029.15.184.24.328.189l.717-.25.33.684c.066.138.24.184.366.098l.628-.427.496.575c.05.058.12.087.189.087v-1.868z" fill="#9E6E43"/><path d="M16.189 22.78l.496-.575.628.427c.126.086.299.04.366-.098l.33-.684.717.25c.144.05.299-.039.328-.189l.142-.746.757.056c.152.011.279-.115.268-.268l-.056-.757.746-.142c.15-.029.24-.184.189-.328l-.169-.485-.989-.063c-.123-.008-.233.075-.26.195l-.182.823-.965-.289c-.112-.033-.232.015-.289.117l-.434.771-.846-.494c-.098-.057-.222-.041-.302.039l-.664.66v1.867c.07 0 .139-.029.189-.087z" fill="#96643B"/><path d="M11 .133c-.07 0-.139.029-.189.087l-.268.31-.339-.23c-.126-.086-.299-.04-.366.098l-.177.368-.387-.135c-.144-.05-.3.04-.328.19l-.077.402-.409-.03c-.152-.011-.278.115-.267.268l.03.409-.402.076c-.15.029-.24.184-.189.328l.135.387-.37.178c-.137.066-.183.239-.098.365l.23.339-.309.268c-.116.1-.116.279 0 .379l.31.268-.23.339c-.086.125-.04.298.097.364l.369.178-.135.387c-.05.144.04.3.19.328l.402.077-.03.409c-.011.152.115.278.268.267l.409-.03.077.402c.029.15.184.24.328.189l.387-.135.178.369c.066.138.24.184.366.098l.339-.23.267.31c.05.058.12.087.189.087v-7.734z" fill="#B38658"/><path d="M11 .133c.07 0 .139.029.189.087l.268.31.339-.23c.126-.086.299-.04.366.098l.178.369.387-.135c.144-.05.299.039.328.189l.077.402.409-.03c.152-.011.279.115.268.268l-.03.409.402.077c.15.029.24.184.189.328l-.135.387.369.178c.138.066.184.24.098.366l-.23.339.31.267c.116.1.116.279 0 .379l-.31.268.23.339c.086.126.04.299-.098.366l-.369.178.135.387c.05.144-.039.299-.189.328l-.402.077.03.409c.011.152-.115.279-.268.268l-.409-.03-.077.402c-.029.15-.184.24-.328.189l-.387-.135-.178.369c-.066.138-.24.184-.366.098l-.339-.23-.267.31c-.051.054-.12.083-.19.083v-7.734z" fill="#A7794C"/><path d="M21 .133c-.07 0-.139.029-.189.087l-.268.31-.339-.23c-.126-.086-.299-.04-.366.098l-.178.369-.387-.135c-.144-.05-.299.039-.328.189l-.077.402-.409-.03c-.152-.011-.279.115-.268.268l.03.409-.402.077c-.15.029-.24.184-.189.328l.135.387-.369.178c-.138.066-.184.24-.098.366l.23.339-.31.267c-.116.1-.116.279 0 .379l.31.268-.23.339c-.086.126-.04.299.098.366l.369.178-.135.387c-.05.144.039.299.189.328l.402.077-.03.409c-.011.152.115.279.268.268l.409-.03.077.402c.029.15.184.24.328.189l.387-.135.178.369c.066.138.24.184.366.098l.339-.23.267.31c.05.058.12.087.189.087v-7.738z" fill="#9E6E43"/><path d="M21 .133c.07 0 .139.029.189.087l.268.31.339-.23c.126-.086.299-.04.366.098l.178.369.387-.135c.144-.05.299.039.328.189l.077.402.409-.03c.152-.011.279.115.268.268l-.03.409.402.077c.15.029.24.184.189.328l-.135.387.369.178c.138.066.184.24.098.366l-.23.339.31.267c.116.1.116.279 0 .379l-.31.268.23.339c.086.126.04.299-.098.366l-.369.178.135.387c.05.144-.039.299-.189.328l-.402.077.03.409c.011.152-.115.279-.268.268l-.409-.03-.077.402c-.029.15-.184.24-.328.189l-.387-.135-.178.369c-.066.138-.24.184-.366.098l-.339-.23-.267.31c-.051.054-.12.083-.19.083v-7.734z" fill="#96643B"/><ellipse cx="9.75" cy="4" rx=".75" ry="1" fill="#373F3F"/><ellipse cx="12.25" cy="4" rx=".75" ry="1" fill="#2B3332"/><circle cx="9.75" cy="3.75" r=".25" fill="#fff"/><circle cx="12.25" cy="3.75" r=".25" fill="#F7F7F7"/><ellipse cx="19.75" cy="4" rx=".75" ry="1" fill="#373F3F"/><ellipse cx="22.25" cy="4" rx=".75" ry="1" fill="#2B3332"/><circle cx="19.75" cy="3.75" r=".25" fill="#fff"/><circle cx="22.25" cy="3.75" r=".25" fill="#F7F7F7"/><path d="M9 31l-1.263.421c-.141.047-.237.18-.237.329 0 .138.112.25.25.25h1.25v-1z" fill="#FDEBBB"/><path d="M18 31l-1.263.421c-.142.047-.237.18-.237.329 0 .138.112.25.25.25h1.25v-1zM23 31l1.263.421c.142.047.237.18.237.329 0 .138-.112.25-.25.25h-1.25v-1z" fill="#FAE09F"/><path d="M14 31l1.263.421c.142.047.237.18.237.329 0 .138-.112.25-.25.25h-1.25v-1z" fill="#FDEBBB"/><path d="M21 5.414c-.256 0-.512.098-.707.293l-.002.002c-.183.183-.266.442-.223.697l.686 4.114c.023.139.135.209.247.209v-5.315z" fill="#FAE09F"/><path d="M21.247 10.52l.686-4.114c.042-.255-.041-.515-.223-.697l-.002-.002c-.196-.195-.452-.293-.708-.293v5.315c.112 0 .223-.069.247-.209z" fill="#F7D684"/><path d="M11 5.414c-.256 0-.512.098-.707.293l-.002.002c-.183.183-.266.442-.223.697l.686 4.114c.023.139.135.209.247.209v-5.315z" fill="#FDEBBB"/><path d="M11.247 10.52l.686-4.114c.042-.255-.041-.515-.223-.697l-.002-.002c-.196-.195-.452-.293-.708-.293v5.315c.112 0 .223-.069.247-.209z" fill="#FAE09F"/></svg>