<svg xmlns="http://www.w3.org/2000/svg" width="32" height="32" viewBox="0 0 32 32"><path fill="#F7D684" d="M19 23l1 7.5 3 .5v1h-5v-1l1-.5-2-7.5z"/><path fill="#FAE09F" d="M13 23l-1 7.5-3 .5v1h5v-1l-1-.5 2-7.5z"/><path d="M16 12.133c-.07 0-.139.029-.189.087l-.35.406c-.083.096-.225.115-.33.043l-.444-.302c-.126-.086-.299-.04-.366.098l-.233.483c-.055.114-.188.169-.308.127l-.507-.177c-.144-.05-.299.039-.328.189l-.1.527c-.024.125-.137.212-.264.203l-.535-.04c-.152-.011-.279.115-.268.268l.04.535c.009.127-.078.24-.203.264l-.527.1c-.15.029-.24.184-.189.328l.177.507c.042.12-.013.252-.127.308l-.483.233c-.138.066-.184.24-.098.366l.302.443c.071.105.053.247-.043.33l-.422.364c-.11.095-.116.263-.014.366l1.809 1.811h1.5l.362.724c.085.169.258.276.447.276h1.691v-8.867z" fill="#9E6E43"/><path d="M16 12.133c.07 0 .139.029.189.087l.35.406c.083.096.225.115.33.043l.444-.302c.126-.086.299-.04.366.098l.233.483c.055.114.188.169.308.127l.507-.177c.144-.05.299.039.328.189l.1.527c.024.125.137.212.264.203l.535-.04c.152-.011.279.115.268.268l-.04.535c-.009.127.078.24.203.264l.527.1c.15.029.24.184.189.328l-.177.507c-.042.12.013.252.127.308l.483.233c.138.066.184.24.098.366l-.302.443c-.071.105-.053.247.043.33l.422.364c.11.095.116.263.014.366l-1.809 1.811h-1.5l-.362.724c-.085.169-.258.276-.447.276h-1.691v-8.867z" fill="#96643B"/><path d="M20 20l-.43 2.582c-.041.241-.249.418-.494.418h-2.186c-.229 0-.429-.156-.485-.379l-.405-1.621h1.691c.189 0 .363-.107.447-.276l.362-.724h1.5z" fill="#4F4032"/><path d="M12 20l.43 2.582c.041.241.249.418.494.418h2.186c.229 0 .429-.156.485-.379l.405-1.621h-1.691c-.189 0-.363-.107-.447-.276l-.362-.724h-1.5z" fill="#604631"/><circle cx="18.5" cy="16.5" r="1" fill="#845331"/><path d="M18.5 17c-.194 0-.379-.114-.46-.304-.108-.254.01-.548.264-.656 6.125-2.61 6.196-7.576 6.196-7.626 0-.276.224-.5.5-.5s.5.224.5.5c0 .23-.077 5.679-6.804 8.546l-.196.04z" fill="#4F4032"/><circle cx="13.5" cy="16.5" r="1" fill="#8D5B36"/><path d="M13.5 17l-.196-.04c-6.727-2.867-6.804-8.315-6.804-8.546 0-.275.223-.498.499-.499h.001c.275 0 .499.223.5.497.001.205.1 5.029 6.196 7.628.254.108.372.402.264.656-.081.19-.266.304-.46.304z" fill="#604631"/><path d="M16 15.5c-.552 0-1 .448-1 1s.448 1 1 1v-2z" fill="#8D5B36"/><path d="M17 16.5c0-.552-.448-1-1-1v2c.552 0 1-.448 1-1z" fill="#845331"/><path d="M16 8.914c-.276 0-.5.224-.5.5v7.086c0 .276.224.5.5.5v-8.086z" fill="#604631"/><path d="M16.5 16.5v-7.086c0-.276-.224-.5-.5-.5v8.086c.276 0 .5-.224.5-.5z" fill="#4F4032"/><path d="M7 3.133c-.07 0-.139.029-.189.087l-.122.141c-.083.096-.225.115-.33.043l-.155-.105c-.126-.085-.299-.039-.365.098l-.081.169c-.056.114-.188.169-.308.127l-.176-.062c-.144-.05-.3.04-.328.19l-.035.183c-.024.125-.137.212-.264.203l-.186-.014c-.153-.011-.279.115-.268.268l.014.186c.009.127-.078.24-.203.264l-.183.035c-.15.029-.24.184-.189.328l.061.176c.042.12-.013.252-.127.308l-.169.081c-.137.066-.183.239-.098.365l.105.154c.072.105.053.247-.043.33l-.141.123c-.116.1-.116.279 0 .379l.141.122c.096.083.115.225.043.33l-.105.154c-.085.126-.039.299.098.365l.168.081c.115.056.17.188.128.308l-.062.176c-.05.144.04.3.19.328l.183.035c.125.024.212.137.203.264l-.014.186c-.011.153.115.279.268.268l.186-.014c.127-.009.24.078.264.203l.035.183c.029.15.184.24.328.189l.176-.061c.12-.042.252.013.308.127l.081.168c.066.138.24.184.366.098l.154-.105c.105-.072.247-.053.33.043l.122.141c.05.058.12.087.189.087v-7.733z" fill="#9E6E43"/><path d="M7.189 10.78l.122-.141c.083-.096.225-.115.33-.043l.154.105c.126.086.299.04.366-.098l.081-.168c.055-.114.188-.169.308-.127l.176.061c.144.05.299-.039.328-.189l.035-.183c.024-.125.137-.212.264-.203l.186.014c.152.011.279-.115.268-.268l-.014-.187c-.009-.127.078-.24.203-.264l.183-.035c.15-.029.24-.184.189-.328l-.061-.176c-.042-.12.013-.252.127-.308l.168-.081c.138-.066.184-.24.098-.366l-.105-.154c-.072-.105-.053-.247.043-.33l.141-.122c.116-.1.116-.279 0-.379l-.141-.122c-.096-.083-.115-.225-.043-.33l.105-.154c.086-.126.04-.299-.098-.366l-.168-.081c-.114-.055-.169-.187-.127-.307l.061-.176c.05-.144-.039-.299-.189-.328l-.183-.035c-.125-.024-.212-.137-.203-.264l.014-.186c.011-.152-.115-.279-.268-.268l-.186.014c-.127.009-.24-.078-.264-.203l-.035-.183c-.029-.15-.184-.24-.328-.189l-.176.061c-.12.042-.252-.013-.308-.127l-.081-.169c-.066-.137-.239-.183-.365-.098l-.155.105c-.105.071-.247.053-.33-.043l-.122-.141c-.05-.058-.119-.087-.189-.087v7.734c.07 0 .139-.029.189-.087z" fill="#96643B"/><path d="M9 31l-1.302.434c-.118.039-.198.15-.198.275v.001c0 .16.13.29.29.29h1.21v-1z" fill="#FDEBBB"/><path d="M16 4.133c-.07 0-.139.029-.189.087l-.122.141c-.083.096-.225.115-.33.043l-.154-.105c-.126-.086-.299-.04-.366.098l-.081.168c-.056.115-.188.17-.308.128l-.176-.061c-.144-.05-.299.039-.328.189l-.035.183c-.024.125-.137.212-.264.203l-.186-.014c-.152-.011-.279.115-.268.268l.014.186c.009.127-.078.24-.203.264l-.183.035c-.15.029-.24.184-.189.328l.061.176c.042.12-.013.252-.127.308l-.168.081c-.138.066-.184.24-.098.366l.105.154c.072.105.053.247-.043.33l-.142.122c-.116.1-.116.279 0 .379l.141.122c.096.083.115.225.043.33l-.105.154c-.086.126-.04.299.098.366l.168.081c.114.055.169.188.127.308l-.061.176c-.05.144.039.299.189.328l.183.035c.125.024.212.137.203.264l-.014.186c-.011.152.115.279.268.268l.186-.014c.127-.009.24.078.264.203l.035.183c.029.15.184.24.328.189l.176-.061c.12-.042.252.013.308.127l.081.168c.066.138.24.184.366.098l.154-.105c.105-.072.247-.053.33.043l.312.361v-7.867z" fill="#96643B"/><path d="M16.001 11.998l.31-.359c.083-.096.225-.115.33-.043l.154.105c.126.086.299.04.366-.098l.081-.168c.055-.114.188-.169.308-.127l.176.061c.144.05.299-.039.328-.189l.035-.183c.024-.125.137-.212.264-.203l.186.014c.152.011.279-.115.268-.268l-.014-.186c-.009-.127.078-.24.203-.264l.183-.035c.15-.029.24-.184.189-.328l-.061-.177c-.042-.12.013-.252.127-.308l.168-.081c.138-.066.184-.24.098-.366l-.105-.154c-.072-.105-.053-.247.043-.33l.141-.122c.116-.1.116-.279 0-.379l-.141-.122c-.096-.083-.115-.225-.043-.33l.105-.154c.086-.126.04-.299-.098-.366l-.168-.081c-.114-.055-.169-.187-.127-.307l.061-.176c.05-.144-.039-.299-.189-.328l-.183-.035c-.125-.024-.212-.137-.203-.264l.014-.186c.011-.152-.115-.279-.268-.268l-.186.014c-.127.009-.24-.078-.264-.203l-.035-.183c-.029-.15-.184-.24-.328-.189l-.176.061c-.12.042-.252-.013-.308-.127l-.081-.168c-.066-.138-.24-.184-.366-.098l-.154.105c-.105.071-.247.053-.33-.043l-.122-.142c-.05-.058-.119-.087-.189-.087v7.867l.001-.002z" fill="#8D5B36"/><path d="M18 31l-1.302.434c-.118.039-.198.15-.198.275v.001c0 .16.13.29.29.29h1.21v-1zM23 31l1.302.434c.118.039.198.15.198.275v.001c0 .16-.13.29-.29.29h-1.21v-1z" fill="#FAE09F"/><path d="M14 31l1.302.434c.118.039.198.15.198.275v.001c0 .16-.13.29-.29.29h-1.21v-1z" fill="#FDEBBB"/><path d="M25 3.134c-.069 0-.138.029-.188.086l-.123.142c-.083.096-.225.114-.329.043l-.155-.105c-.126-.086-.299-.04-.366.098l-.081.168c-.056.114-.188.169-.308.127l-.176-.061c-.144-.05-.299.039-.328.189l-.035.183c-.024.125-.137.212-.264.203l-.186-.014c-.152-.011-.279.115-.268.268l.014.186c.009.127-.078.24-.203.264l-.183.035c-.15.029-.24.184-.189.328l.061.176c.042.12-.013.252-.127.308l-.168.081c-.138.066-.184.24-.098.366l.105.154c.072.105.053.247-.043.33l-.142.122c-.116.1-.116.279 0 .379l.141.122c.096.083.115.225.043.33l-.105.154c-.086.126-.04.299.098.366l.168.081c.114.055.169.188.127.308l-.061.176c-.05.144.039.299.189.328l.183.035c.125.024.212.137.203.264l-.014.186c-.011.152.115.279.268.268l.186-.014c.127-.009.24.078.264.203l.035.183c.029.15.184.24.328.189l.176-.061c.12-.042.252.013.308.127l.081.168c.066.138.24.184.366.098l.154-.105c.105-.072.247-.053.33.043l.312.361v-7.866z" fill="#8D5B36"/><path d="M28.639 6.689c-.096-.083-.115-.225-.043-.33l.105-.154c.086-.126.04-.299-.098-.366l-.168-.081c-.115-.056-.17-.188-.128-.308l.061-.176c.05-.144-.039-.299-.189-.328l-.183-.035c-.125-.024-.212-.137-.203-.264l.014-.186c.011-.152-.115-.279-.268-.268l-.186.014c-.127.009-.24-.078-.264-.203l-.035-.183c-.029-.15-.184-.24-.328-.189l-.176.061c-.12.042-.252-.013-.308-.127l-.081-.168c-.066-.138-.24-.184-.366-.098l-.154.105c-.105.071-.247.053-.33-.043l-.121-.14c-.05-.059-.12-.088-.19-.088v7.866l.001-.002.31-.359c.083-.096.225-.115.33-.043l.154.105c.126.086.299.04.366-.098l.081-.168c.055-.114.188-.169.308-.127l.176.061c.144.05.299-.039.328-.189l.035-.183c.024-.125.137-.212.264-.203l.186.014c.152.011.279-.115.268-.268l-.014-.186c-.009-.127.078-.24.203-.264l.183-.035c.15-.029.24-.184.189-.328l-.061-.177c-.042-.12.013-.252.127-.308l.168-.081c.138-.066.184-.24.098-.366l-.105-.154c-.072-.105-.053-.247.043-.33l.141-.122c.116-.1.116-.279 0-.379l-.14-.121z" fill="#845331"/><path d="M25 8.414c-.256 0-.512.098-.707.293l-.002.002c-.183.183-.266.442-.223.697l.686 4.114c.023.139.135.209.247.209v-5.315z" fill="#F7D684"/><path d="M25.247 13.52l.686-4.114c.042-.255-.041-.515-.223-.697l-.002-.002c-.196-.195-.452-.293-.708-.293v5.315c.112 0 .223-.069.247-.209z" fill="#F0C877"/><path d="M7 8.414c-.256 0-.512.098-.707.293l-.002.002c-.183.183-.266.442-.223.697l.686 4.114c.023.14.134.209.246.209v-5.315z" fill="#FDEBBB"/><path d="M7.247 13.52l.686-4.114c.042-.255-.041-.515-.223-.697l-.003-.002c-.195-.195-.451-.293-.707-.293v5.315c.112 0 .223-.069.247-.209zM16 9.414c-.256 0-.512.098-.707.293l-.002.002c-.183.183-.266.442-.223.697l.686 4.114c.023.139.135.209.247.209v-5.315z" fill="#FAE09F"/><path d="M16.247 14.52l.686-4.114c.042-.255-.041-.515-.223-.697l-.002-.002c-.196-.195-.452-.293-.708-.293v5.315c.112 0 .223-.069.247-.209z" fill="#F7D684"/><path d="M16 5.171c-.089-1.135-.557-3.081-2.629-4.144-.161-.082-.354.031-.364.213-.154 2.876 2.035 4.307 2.762 4.701.073.04.152.059.231.059v-.829z" fill="#724D31"/><path d="M16.23 5.941c.727-.394 2.916-1.826 2.762-4.701-.01-.182-.203-.295-.364-.213-2.071 1.063-2.539 3.01-2.628 4.144v.829c.079 0 .158-.02.23-.059zM25 4.171c-.089-1.135-.557-3.081-2.629-4.144-.161-.082-.354.031-.364.213-.154 2.876 2.035 4.307 2.762 4.701.073.04.152.059.231.059v-.829z" fill="#604631"/><path d="M25.23 4.941c.727-.394 2.916-1.826 2.762-4.701-.01-.182-.203-.295-.364-.213-2.071 1.063-2.539 3.01-2.628 4.144v.829c.079 0 .158-.02.23-.059z" fill="#4F4032"/><path d="M15.388 8.416l-1-.659c-.167-.109-.388.01-.388.209v.784c0 .139.113.251.252.25l1-.008c.137-.001.248-.113.248-.25v-.117c0-.084-.042-.163-.112-.209z" fill="#fff"/><path d="M16.612 8.416l1-.659c.167-.109.388.01.388.209v.784c0 .139-.113.251-.252.25l-1-.008c-.137-.001-.248-.113-.248-.25v-.117c0-.084.042-.163.112-.209z" fill="#F7F7F7"/><path d="M14.75 9c-.138 0-.25-.112-.25-.25v-.919l.5.33v.589c0 .138-.112.25-.25.25z" fill="#373F3F"/><path d="M17.25 9c.138 0 .25-.112.25-.25v-.919l-.5.33v.589c0 .138.112.25.25.25z" fill="#2B3332"/><path d="M7 4.171c-.089-1.134-.557-3.081-2.629-4.144-.16-.082-.354.031-.363.213-.154 2.876 2.034 4.307 2.761 4.701.073.04.152.059.231.059v-.829z" fill="#845331"/><path d="M7.23 4.941c.727-.394 2.916-1.826 2.762-4.701-.01-.182-.203-.295-.364-.213-2.071 1.063-2.539 3.01-2.628 4.144v.829c.079 0 .158-.02.23-.059z" fill="#724D31"/><path d="M6.388 7.416l-1-.659c-.167-.109-.388.01-.388.209v.784c0 .139.113.251.252.25l1-.008c.137-.001.248-.113.248-.25v-.117c0-.084-.042-.163-.112-.209z" fill="#fff"/><path d="M7.612 7.416l1-.659c.167-.109.388.01.388.209v.784c0 .139-.113.251-.252.25l-1-.008c-.137-.001-.248-.113-.248-.25v-.117c0-.084.042-.163.112-.209z" fill="#F7F7F7"/><path d="M5.75 8c-.138 0-.25-.112-.25-.25v-.919l.5.33v.589c0 .138-.112.25-.25.25z" fill="#373F3F"/><path d="M8.25 8c.138 0 .25-.112.25-.25v-.919l-.5.33v.589c0 .138.112.25.25.25z" fill="#2B3332"/><path d="M24.388 7.416l-1-.659c-.167-.109-.388.01-.388.209v.784c0 .139.113.251.252.25l1-.008c.137-.001.248-.113.248-.25v-.117c0-.084-.042-.163-.112-.209z" fill="#fff"/><path d="M25.612 7.416l1-.659c.167-.109.388.01.388.209v.784c0 .139-.113.251-.252.25l-1-.008c-.137-.001-.248-.113-.248-.25v-.117c0-.084.042-.163.112-.209z" fill="#F7F7F7"/><path d="M23.75 8c-.138 0-.25-.112-.25-.25v-.919l.5.33v.589c0 .138-.112.25-.25.25z" fill="#373F3F"/><path d="M26.25 8c.138 0 .25-.112.25-.25v-.919l-.5.33v.589c0 .138.112.25.25.25z" fill="#2B3332"/></svg>