<svg xmlns="http://www.w3.org/2000/svg" width="32" height="32" viewBox="0 0 32 32"><path d="M6 20l-1.142.761c-1.062.708-1.43 2.095-.86 3.237l.002.002h12v-4h-10z" fill="#866EBA"/><path d="M26 20l1.142.761c1.062.708 1.43 2.095.86 3.237l-.002.002h-12v-4h10zM4 24l-3.317 1.658c-.418.21-.683.638-.683 1.106 0 .683.553 1.236 1.236 1.236h14.764v-4h-12z" fill="#7A63AD"/><path d="M28 24l3.317 1.658c.418.21.683.638.683 1.106 0 .683-.553 1.236-1.236 1.236h-14.764v-4h12z" fill="#6E57A0"/><path d="M9 9.167l-.746 1.833h-1.986c-1.462 0-2.899-.385-4.165-1.116-.478-.276-1.09-.112-1.366.366s-.112 1.09.366 1.366l.003.001c.181.105.107.383-.103.383h-.003c-.552 0-1 .448-1 1s.448 1 1 1h.003c.21 0 .284.278.102.383l-.003.001c-.478.276-.642.888-.366 1.366.276.478.888.642 1.366.366 1.267-.731 2.704-1.116 4.166-1.116h.359l-1.095 2.691c-.323.793-.139 1.703.467 2.309h10.001v-10.833h-7z" fill="#9179C6"/><path d="M30.997 14h.003c.552 0 1-.448 1-1s-.448-1-1-1h-.003c-.21 0-.284-.278-.102-.383l.003-.001c.478-.276.642-.888.366-1.366-.276-.478-.888-.642-1.366-.366-1.267.731-2.704 1.116-4.166 1.116h-1.986l-.746-1.833h-7v10.833h10v-.001c.606-.606.79-1.515.467-2.309l-1.094-2.69h.359c1.462 0 2.899.385 4.165 1.116.478.276 1.09.112 1.366-.366s.112-1.09-.366-1.366l-.003-.001c-.181-.105-.107-.383.103-.383z" fill="#866EBA"/><path d="M16 9.167h-7s-.375 9.833 7 9.833v-9.833z" fill="#A78EDD"/><path d="M16 9.167v11.25c0 .552.448 1 1 1s1-.448 1-1c0-.932.493-1.791 1.291-2.272 3.957-2.39 3.709-8.978 3.709-8.978h-7z" fill="#9D85D3"/><path d="M16 11.667h-4c0 2.209 0 6.333 4 6.333v-6.333z" fill="#373F3F"/><path d="M20 11.667h-4v6.333c4 0 4-4.124 4-6.333z" fill="#2B3332"/><path d="M16 2.167c-3.866 0-7 3.134-7 7 0 3.083 7 3 7 3v-10z" fill="#B8A5E4"/><path d="M23 9.167c0-3.866-3.134-7-7-7v10s7 .083 7-3z" fill="#A78EDD"/><circle cx="11.5" cy="7.5" r="1.5" fill="#fff"/><circle cx="11.75" cy="7.25" r=".5" fill="#373F3F"/><circle cx="20.5" cy="7.5" r="1.5" fill="#F7F7F7"/><circle cx="20.25" cy="7.25" r=".5" fill="#2B3332"/><path d="M16 13c-.917-.5-2.99-.387-2.965.04.149 2.529.819 3.96 2.965 3.96v-4z" fill="#675099"/><path d="M16 13c.917-.5 2.99-.387 2.965.04-.149 2.529-.819 3.96-2.965 3.96v-4z" fill="#604893"/></svg>