<svg xmlns="http://www.w3.org/2000/svg" width="32" height="32" viewBox="0 0 32 32"><path d="M5 9l-3.646-3.646c-.195-.195-.195-.512 0-.707l2.293-2.293c.195-.195.512-.195.707 0l3.646 3.646-3 3z" fill="#838C8A"/><path d="M27 9l3.646-3.646c.195-.195.195-.512 0-.707l-2.293-2.293c-.195-.195-.512-.195-.707 0l-3.646 3.646 3 3z" fill="#757F7E"/><path d="M27.293 9.293l-3.586-3.586c-.391-.391-1.024-.391-1.414 0l-.754.754c2.047 1.236 3.534 3.184 4.434 5.566l1.32-1.32c.39-.39.39-1.024 0-1.414z" fill="#845331"/><path d="M10.461 6.461l-.754-.754c-.391-.391-1.024-.391-1.414 0l-3.586 3.586c-.391.391-.391 1.024 0 1.414l1.32 1.32c.9-2.382 2.388-4.33 4.434-5.566z" fill="#8D5B36"/><path d="M27 18c0-7.18-3.82-13-11-13v25c7.18 0 11-4.82 11-12z" fill="#FFEAA7"/><path d="M16 5c-7.18 0-11 5.82-11 13s3.82 12 11 12v-25z" fill="#FEF1C6"/><path d="M16 7.006c-6.643 0-9 5.926-9 11 0 3.735 1.169 10 9 10v-21z" fill="#FFD96C"/><path d="M25 18c0-5.074-2.357-11-9-11v21c7.831 0 9-6.265 9-10z" fill="#FFD04D"/><path d="M14.792 1.051c-.265-.033-.529-.051-.792-.051 0 0-2.891-1.109-3.5-.5-.489.489.129 2.447.392 3.2-2.541 4.624.736 9.3 5.108 9.3v-11.873c-.404 0-.808-.026-1.208-.076z" fill="#65A9DC"/><path d="M21.108 3.7c.263-.753.881-2.711.392-3.2-.609-.609-3.5.5-3.5.5-.262 0-.527.018-.791.051-.4.051-.804.076-1.208.076v11.873c4.371 0 7.648-4.676 5.107-9.3z" fill="#5CA3D5"/><path d="M10.255 8.732c.716 2.474 3.035 4.268 5.745 4.268v-3c-1.406 0-2.726-.363-3.874-1-.689-.382-1.325-.386-1.871-.268z" fill="#FEF1C6"/><path d="M21.743 8.732c-.715 2.474-3.034 4.268-5.744 4.268v-3c1.406 0 2.726-.363 3.874-1 .689-.382 1.325-.386 1.87-.268z" fill="#FFEAA7"/><path d="M16 14h-8.486c-.351 1.312-.514 2.684-.514 4 0 3.735 1.169 10 9 10v-14z" fill="#FFD04D"/><path d="M16 14v14c7.831 0 9-6.265 9-10 0-1.316-.163-2.688-.514-4h-8.486z" fill="#F7C845"/><path d="M13.967 7.575c-.281-.54-.902-1.454-2.035-1.882-.09-.034-.193-.021-.27.036-.153.112-.397.364-.569.899-.176.549-.067.97.028 1.194.047.109.153.178.272.178h2.311c.218 0 .364-.231.263-.425z" fill="#fff"/><path d="M13.967 7.575c-.26-.5-.818-1.317-1.799-1.775-.149.135-.342.377-.487.828-.176.549-.067.97.028 1.194.047.109.153.178.272.178h1.723c.218 0 .364-.231.263-.425z" fill="#96643B"/><path d="M13.29 7.822c.092-.216.192-.621.039-1.144-.21-.231-.456-.461-.763-.656-.103.143-.208.333-.296.607-.176.549-.067.97.028 1.194.046.108.152.177.271.177h.449c.12 0 .226-.069.272-.178z" fill="#373F3F"/><path d="M18.033 7.575c.281-.54.902-1.454 2.035-1.882.09-.034.193-.021.27.036.153.112.397.364.569.899.176.549.067.97-.028 1.194-.047.109-.153.178-.272.178h-2.311c-.218 0-.364-.231-.263-.425z" fill="#F7F7F7"/><path d="M20.29 7.822c.095-.223.204-.645.028-1.194-.145-.45-.337-.693-.487-.828-.98.458-1.538 1.274-1.799 1.775-.1.194.046.425.264.425h1.723c.119 0 .225-.069.271-.178z" fill="#8D5B36"/><path d="M19.702 7.822c.095-.223.204-.645.028-1.194-.088-.274-.193-.464-.296-.607-.307.196-.553.425-.763.656-.153.524-.053.928.039 1.144.046.11.152.179.271.179h.449c.12 0 .226-.069.272-.178z" fill="#2B3332"/><path d="M16 19h-8.967c.216 3.753 1.797 9 8.967 9v-9z" fill="#F7C845"/><path d="M16 28c7.17 0 8.751-5.247 8.967-9h-8.967v9zM16 24h-7.658c1.222 2.222 3.492 4 7.658 4v-4z" fill="#F0C13E"/><path d="M16 28c4.166 0 6.436-1.778 7.658-4h-7.658v4z" fill="#E8BA36"/><path d="M24.497 16.773l-2.032.871c-1.657.71-3.58.34-4.855-.935-.455-.455-.368-1.214.177-1.555l4.419-2.762c1.31-.819 3.042-.253 3.616 1.182.5 1.248-.088 2.668-1.325 3.199z" fill="#5CA3D5"/><path d="M7.503 16.773l2.032.871c1.657.71 3.58.34 4.855-.935.455-.455.368-1.214-.177-1.555l-4.419-2.762c-1.31-.819-3.042-.253-3.616 1.182-.5 1.248.088 2.668 1.325 3.199z" fill="#65A9DC"/><path d="M28.578 29.526l-1.578-.526.474-.711c.863-1.295.593-3.035-.622-4.007l-2.471-1.977c-.747 2.346-2.337 4.563-5.579 5.369-.241.753-.184 1.591.198 2.326l-.775.743c-.144.138-.225.328-.225.527 0 .403.327.73.73.73h10.77c.276 0 .5-.224.5-.5v-.001c0-.895-.573-1.69-1.422-1.973z" fill="#529CCF"/><path d="M13 30c.382-.735.439-1.573.198-2.326-3.242-.806-4.832-3.023-5.579-5.369l-2.471 1.977c-1.215.972-1.485 2.712-.622 4.007l.474.711-1.578.526c-.849.283-1.422 1.078-1.422 1.973v.001c0 .276.224.5.5.5h10.77c.403 0 .73-.327.73-.73 0-.199-.081-.389-.225-.527l-.775-.743z" fill="#5CA3D5"/><path d="M12.88 1.33c-.513-.142-1.068-.263-1.47-.263-.201 0-.286.03-.299.03h-.002c-.121.204-.008.983.244 1.877.279-.404 1.323-1.522 1.527-1.644z" fill="#4896C8"/><path d="M20.647 2.975c.255-.899.372-1.679.26-1.863 0 0-.073-.045-.316-.045-.402 0-.957.12-1.47.263.203.122 1.247 1.24 1.526 1.645z" fill="#4390BF"/></svg>