<svg xmlns="http://www.w3.org/2000/svg" width="32" height="32" viewBox="0 0 32 32"><path d="M4 17v1.246c0 .667.448 1.26 1.088 1.441l3.578 1.019.275-.961-3.579-1.02c-.213-.06-.362-.257-.362-.479v-1.246c.552 0 1-.448 1-1v-1h-3v1c0 .552.448 1 1 1z" fill="#FAE09F"/><path d="M27.5 27h-1.087c-.781 0-1.423-.586-1.494-1.364l-.312-3.428c-.014-.147-.087-.276-.208-.362-.12-.086-.269-.113-.411-.077l-2.867.717c-.267.063-.54-.096-.606-.364-.066-.268.096-.539.364-.606l2.867-.717c.425-.103.876-.021 1.232.232.357.255.585.65.625 1.088l.312 3.428c.023.254.242.453.498.453h1.087c.276 0 .5.224.5.5s-.224.5-.5.5z" fill="#F0C877"/><path d="M5.587 27h-1.087c-.276 0-.5-.224-.5-.5s.224-.5.5-.5h1.087c.256 0 .475-.199.498-.454l.312-3.428c.04-.438.268-.833.625-1.088.359-.254.81-.336 1.232-.232l2.867.717c.269.067.431.339.364.606-.067.269-.335.429-.606.364l-2.867-.717c-.143-.038-.289-.01-.411.077-.121.086-.194.215-.208.362l-.312 3.428c-.071.779-.713 1.365-1.494 1.365zM26 15v1c0 .552.448 1 1 1v1.246c0 .222-.149.419-.362.479l-3.579 1.02.275.961 3.578-1.019c.64-.181 1.088-.774 1.088-1.441v-1.246c.552 0 1-.448 1-1v-1h-3z" fill="#F7D684"/><path d="M23.258 18.426l-.001-.002c-.5-1.062-1.441-1.85-2.574-2.156l-.244-.066c-.522-.141-1.051-.248-1.582-.338l-.362-2.894c-.073-.584-.919-.584-.992 0l-.336 2.688c-.417-.028-.835-.045-1.253-.043v9.385h3.3779999999999997c1.636 0 3.106-.996 3.714-2.514l.348-.87c.412-1.031.377-2.186-.096-3.19z" fill="#E8803A"/><path d="M14.829 15.63l-.333-2.661c-.073-.584-.919-.584-.992 0l-.355 2.839c-.427.086-.909.209-1.588.392l-.244.066c-1.133.306-2.074 1.095-2.574 2.156l-.001.002c-.473 1.004-.508 2.16-.095 3.19l.348.87c.607 1.52 2.078 2.516 3.713 2.516h3.207v-9.386c-.431.002-.776.007-1.086.016z" fill="#EF8C48"/><path d="M13.909 19.588c-.169.142-.587.404-1.371.412-.831.008-1.538-.672-1.538-1.502 0-1.103.396-1.498 1.5-1.498 1.313 0 1.477 1.914 1.497 2.393.003.078-.028.145-.088.195z" fill="#fff"/><path d="M18.091 19.588c.169.141.587.403 1.371.412.831.008 1.538-.672 1.538-1.502 0-1.103-.396-1.498-1.5-1.498-1.313 0-1.477 1.914-1.497 2.393-.003.078.028.145.088.195z" fill="#F7F7F7"/><circle cx="12.5" cy="18.5" r=".5" fill="#373F3F"/><circle cx="19.5" cy="18.5" r=".5" fill="#2B3332"/><path d="M31.5 28h-1.204c-.234 0-.435-.159-.487-.388l-1.093-4.731c-.091-.396-.331-.73-.677-.942s-.752-.275-1.148-.177l-4.023 1.006.138-.282.053-.132c-.357-.223-.731-.405-1.114-.561l-.197-1.573c-.036-.292-.46-.292-.496 0l-.16 1.28c-1.248-.339-2.571-.346-3.832.012-.443.126-.894.179-1.345.171v3.317h3.377c.966 0 1.869-.354 2.576-.951l5.265-1.316c.131-.036.268-.013.383.059.115.07.195.182.226.313l1.093 4.732c.156.684.758 1.163 1.461 1.163h1.204c.276 0 .5-.224.5-.5s-.224-.5-.5-.5z" fill="#F7D684"/><path d="M14.74 21.511c-1.261-.358-2.583-.351-3.832-.012l-.16-1.28c-.036-.292-.46-.292-.496 0l-.197 1.573c-.383.157-.757.339-1.114.561l.053.132.138.282-4.023-1.006c-.396-.099-.803-.035-1.148.177s-.586.547-.677.941l-1.093 4.732c-.052.23-.253.389-.487.389h-1.204c-.276 0-.5.224-.5.5s.224.5.5.5h1.204c.703 0 1.305-.479 1.462-1.163l1.093-4.733c.03-.131.11-.242.226-.312s.25-.094.383-.059l5.265 1.316c.706.597 1.609.951 2.575.951h3.207v-3.318c-.394-.008-.788-.061-1.175-.171z" fill="#FAE09F"/><path d="M4.573 14.999c.639-.639.999-1.507.999-2.411v-.844c0-.484.151-.955.432-1.348v-.001c.592-.829 1.655-1.175 2.622-.853l1.045.348c.162.054.329-.066.329-.237v-1.331c0-.842-.354-1.646-.976-2.214l-.066-.06c-.737-.674-1.699-1.048-2.698-1.048h-1.932c-1.153 0-2.262.483-3.009 1.361-.685.805-1.319 1.994-1.319 3.639 0 3.58 3 5 3 5h1.572l.001-.001z" fill="#FCA15E"/><path d="M4.572 15l.001-.001c.639-.639.999-1.507.999-2.411v-.644l3.055-1.732c.166-.095.373.026.373.217v.409c0 1.888-1.208 3.565-3 4.162h-1.428zM27.427 14.999c-.639-.639-.999-1.507-.999-2.411v-.844c0-.484-.151-.955-.432-1.348v-.001c-.592-.829-1.655-1.175-2.622-.853l-1.045.348c-.162.054-.329-.066-.329-.237v-1.331c0-.842.354-1.646.976-2.214l.066-.06c.737-.674 1.699-1.048 2.698-1.048h1.932c1.153 0 2.262.483 3.009 1.361.685.805 1.319 1.994 1.319 3.639 0 3.58-3 5-3 5h-1.572l-.001-.001z" fill="#F79654"/><path d="M27.428 15l-.001-.001c-.639-.639-.999-1.507-.999-2.411v-.644l-3.055-1.732c-.166-.095-.373.026-.373.217v.409c0 1.888 1.208 3.565 3 4.162h1.428z" fill="#EF8C48"/></svg>