<svg xmlns="http://www.w3.org/2000/svg" width="32" height="32" viewBox="0 0 32 32"><path d="M27.567 14l-2.767-3.529-4.277-2.425c-.234-.132-.523.036-.523.305 0 2.42 1.46 4.601 3.697 5.524l.303.125h3.567z" fill="#EF8C48"/><path d="M27.5 31h-1.087c-.781 0-1.423-.586-1.494-1.364l-.312-3.428c-.014-.147-.087-.276-.208-.362-.12-.086-.269-.113-.411-.077l-2.867.717c-.267.063-.54-.096-.606-.364-.066-.268.096-.539.364-.606l2.867-.717c.425-.103.876-.021 1.232.232.357.255.585.65.625 1.088l.312 3.428c.023.254.242.453.498.453h1.087c.276 0 .5.224.5.5s-.224.5-.5.5z" fill="#F0C877"/><path d="M5.587 31h-1.087c-.276 0-.5-.224-.5-.5s.224-.5.5-.5h1.087c.256 0 .475-.199.498-.454l.312-3.428c.04-.438.268-.833.625-1.088.359-.254.81-.336 1.232-.232l2.867.717c.269.067.431.339.364.606-.067.269-.335.429-.606.364l-2.867-.717c-.143-.038-.289-.01-.411.077-.121.086-.194.215-.208.362l-.312 3.428c-.071.779-.713 1.365-1.494 1.365z" fill="#F7D684"/><path d="M15.45 18.502l-.398-3.976c-.025-.252-.205-.475-.455-.518-.325-.056-.616.175-.647.489l-.45 4.501-2.624-3.65c-.148-.206-.415-.309-.653-.222-.31.114-.446.459-.316.747l1.861 4.124-4.096-1.847c-.231-.104-.514-.06-.676.135-.211.254-.157.621.1.805l3.674 2.641 5.23-.21v-2.521c-.284 0-.521-.215-.55-.498zm-3.682 1.496l.003-.002-.001.002h-.002z" fill="#F79654"/><path d="M25.005 18.285c-.162-.195-.445-.239-.676-.135l-4.096 1.848 1.849-4.097c.104-.231.06-.514-.135-.676-.254-.211-.621-.157-.805.1l-2.642 3.674-.447-4.472c-.025-.252-.205-.475-.455-.518-.325-.056-.616.175-.647.489l-.401 4.005c-.029.282-.266.497-.55.497v2.521l5.231.21 3.674-2.641c.256-.184.311-.552.1-.805zm-4.775 1.712l.002.001-.001.001-.001-.002zM16 20.04c-.131 0-.263.013-.392.039l-3.795.759c-.52.104-.978.41-1.272.852l-1.541 2.31 1 1.48h6v-5.44z" fill="#EF8C48"/><path d="M22 25.48l1-1.48-1.54-2.311c-.294-.441-.752-.748-1.272-.852l-3.795-.759c-.13-.025-.262-.038-.393-.038v5.44h6z" fill="#E8803A"/><path d="M18.325 23.435l2.468-.494c.123-.025.208-.138.201-.264-.054-.922-.468-1.177-1.494-1.177-1.104 0-1.396 1.084-1.472 1.656-.023.171.128.313.297.279z" fill="#F7F7F7"/><circle cx="19.5" cy="22.5" r=".5" fill="#2B3332"/><path d="M13.675 23.435l-2.468-.494c-.123-.025-.208-.138-.201-.264.054-.922.468-1.177 1.494-1.177 1.104 0 1.396 1.084 1.472 1.656.023.171-.128.313-.297.279z" fill="#fff"/><circle cx="12.5" cy="22.5" r=".5" fill="#373F3F"/><path d="M4.573 15.999c.639-.639.999-1.507.999-2.411v-.844c0-.484.151-.955.432-1.348v-.001c.592-.829 1.655-1.175 2.622-.853l1.045.348c.162.054.329-.066.329-.237v-1.331c0-.842-.354-1.646-.976-2.214l-.066-.06c-.737-.674-1.699-1.048-2.698-1.048h-1.932c-1.153 0-2.262.483-3.009 1.361-.685.805-1.319 1.994-1.319 3.639 0 3.58 3 5 3 5h1.572l.001-.001z" fill="#FCA15E"/><path d="M4.572 16l.001-.001c.639-.639.999-1.507.999-2.411v-.644l3.055-1.732c.166-.095.373.026.373.217v.409c0 1.888-1.208 3.565-3 4.162h-1.428z" fill="#F79654"/><path d="M15.207 25c-.133 0-.26-.053-.354-.146l-.677-.677c-.098-.098-.256-.098-.354 0l-.646.646c-.098.098-.256.098-.354 0l-.646-.646c-.098-.098-.256-.098-.354 0l-.619.619c-.108.108-.285.095-.377-.027l-1.926-2.569c-.288-.384-.9-.181-.9.3v.379c0 .302.036.6.088.894l-2.759-1.003c-.197-.072-.329-.261-.329-.47v-4.3c.552 0 1-.448 1-1v-1h-3v1c0 .552.448 1 1 1v4.3c0 .629.396 1.195.987 1.409l3.474 1.263c.112.25.235.495.387.724l-3.738-.935c-.396-.099-.803-.035-1.148.177s-.586.547-.677.941l-1.093 4.732c-.053.23-.254.389-.488.389h-1.204c-.276 0-.5.224-.5.5s.224.5.5.5h1.204c.703 0 1.305-.479 1.462-1.163l1.093-4.733c.03-.131.11-.242.226-.312s.25-.094.383-.059l5.318 1.33c.855.6 1.875.937 2.935.937h2.879v-3h-.793z" fill="#FAE09F"/><path d="M31.5 31h-1.204c-.234 0-.435-.159-.487-.388l-1.093-4.731c-.091-.396-.331-.73-.677-.942s-.752-.275-1.148-.177l-3.738.935c.133-.202.237-.419.34-.636l3.768-1.28c.758-.258 1.179-1.063.959-1.833l-1.7-5.948h.48c.552 0 1-.448 1-1v-1h-4v1c0 .552.448 1 1 1h.48l1.778 6.223c.073.256-.067.524-.32.61l-3.035 1.031c.063-.322.097-.652.097-.985v-.379c0-.481-.612-.684-.9-.3l-1.927 2.569c-.091.122-.269.134-.377.027l-.619-.619c-.098-.098-.256-.098-.354 0l-.646.646c-.098.098-.256.098-.354 0l-.646-.646c-.098-.098-.256-.098-.354 0l-.677.677c-.093.093-.221.146-.353.146h-.793v3h2.879c1.06 0 2.08-.337 2.935-.938l5.318-1.33c.131-.036.268-.013.383.059.115.07.195.182.226.313l1.093 4.732c.157.685.759 1.164 1.462 1.164h1.204c.276 0 .5-.224.5-.5s-.224-.5-.5-.5z" fill="#F7D684"/><path d="M25.598 13.998c-.895-.895-1.398-2.11-1.398-3.376v-1.181c0-.677-.211-1.337-.605-1.888l-.001-.001c-.829-1.16-2.317-1.644-3.67-1.194l-1.463.488c-.227.076-.461-.093-.461-.332v-1.863c0-1.179.496-2.304 1.366-3.1l.092-.084c1.032-.944 2.38-1.467 3.779-1.467h2.704c1.614 0 3.167.676 4.213 1.905.959 1.127 1.846 2.792 1.846 5.095 0 5.012-4 7-4 7h-2.4l-.002-.002z" fill="#F79654"/></svg>