<svg xmlns="http://www.w3.org/2000/svg" viewBox="0 0 864 864" enable-background="new 0 0 864 864"><style type="text/css">.st0{fill:url(#SVGID_1_);} .st1{fill:url(#SVGID_2_);} .st2{fill:#FFFFFF;} .st3{fill:url(#SVGID_3_);}</style><linearGradient id="SVGID_1_" gradientUnits="userSpaceOnUse" x1="99.175" y1="446.639" x2="795.181" y2="446.639"><stop offset="0" stop-color="#373F3F"/><stop offset=".5" stop-color="#373F3F"/><stop offset=".5" stop-color="#2B3332"/><stop offset="1" stop-color="#2B3332"/></linearGradient><circle class="st0" cx="447.2" cy="446.6" r="348"/><linearGradient id="SVGID_2_" gradientUnits="userSpaceOnUse" x1="753.188" y1="614.144" x2="141.169" y2="614.144"><stop offset="0" stop-color="#fff"/><stop offset=".5" stop-color="#fff"/><stop offset=".5" stop-color="#F7F7F7"/><stop offset="1" stop-color="#F7F7F7"/></linearGradient><path class="st1" d="M573.7 473.5c-12 58.9-64.1 103.2-126.5 103.2-62.4 0-114.5-44.3-126.5-103.2h-179.5c13.2 157.5 145.1 281.2 306 281.2s292.9-123.7 306-281.2h-179.5z"/><path class="st2" d="M447.2 357.3c-49.9 0-90.4 40.5-90.4 90.4 0 49.9 40.5 90.4 90.4 90.4 49.9 0 90.4-40.5 90.4-90.4-.1-50-40.5-90.4-90.4-90.4zm0 134.9c-24.6 0-44.6-20-44.6-44.6s20-44.6 44.6-44.6 44.6 20 44.6 44.6c0 24.7-20 44.6-44.6 44.6z"/><linearGradient id="SVGID_3_" gradientUnits="userSpaceOnUse" x1="141.169" y1="281.135" x2="753.188" y2="281.135"><stop offset="0" stop-color="#D84459"/><stop offset=".5" stop-color="#D84459"/><stop offset=".5" stop-color="#C84054"/><stop offset="1" stop-color="#C84054"/></linearGradient><path class="st3" d="M447.2 318.5c62.4 0 114.5 44.3 126.5 103.2h179.5c-13.2-157.5-145.1-281.2-306-281.2s-292.9 123.7-306 281.2h179.5c11.9-58.9 64-103.2 126.5-103.2z"/></svg>