<svg xmlns="http://www.w3.org/2000/svg" viewBox="0 0 696 695.4" enable-background="new 0 0 696 695.4"><style type="text/css">.st0{fill:url(#SVGID_1_);} .st1{fill:url(#SVGID_2_);} .st2{fill:url(#SVGID_3_);} .st3{fill:#FFFFFF;} .st4{fill:url(#SVGID_4_);}</style><linearGradient id="SVGID_1_" gradientUnits="userSpaceOnUse" y1="1505.75" x2="696" y2="1505.75" gradientTransform="translate(0 -1331.2)"><stop offset="0" stop-color="#373F3F"/><stop offset=".5" stop-color="#373F3F"/><stop offset=".5" stop-color="#2B3332"/><stop offset="1" stop-color="#2B3332"/></linearGradient><path class="st0" d="M696 348c0-192.2-155.8-348-348-348s-348 155.8-348 348v1.1h696v-1.1z"/><linearGradient id="SVGID_2_" gradientUnits="userSpaceOnUse" x1=".007" y1="1853.75" x2="695.993" y2="1853.75" gradientTransform="matrix(-1 0 0 1 696 -1331.2)"><stop offset="0" stop-color="#373F3F"/><stop offset=".5" stop-color="#373F3F"/><stop offset=".5" stop-color="#2B3332"/><stop offset="1" stop-color="#2B3332"/></linearGradient><path class="st1" d="M696 349.1c-.6 191.7-156.2 346.9-348 346.9s-347.4-155.2-348-346.9h696z"/><linearGradient id="SVGID_3_" gradientUnits="userSpaceOnUse" x1="654" y1="1846.7" x2="42" y2="1846.7" gradientTransform="translate(0 -1331.2)"><stop offset="0" stop-color="#fff"/><stop offset=".5" stop-color="#fff"/><stop offset=".5" stop-color="#F7F7F7"/><stop offset="1" stop-color="#F7F7F7"/></linearGradient><path class="st2" d="M474.5 374.9c-12 58.9-64.1 103.2-126.5 103.2s-114.5-44.3-126.5-103.2h-179.5c13.2 157.5 145.1 281.2 306 281.2s292.9-123.7 306-281.2h-179.5z"/><path class="st3" d="M348 258.7c-49.9 0-90.4 40.5-90.4 90.4s40.5 90.4 90.4 90.4 90.4-40.5 90.4-90.4c-.1-50-40.5-90.4-90.4-90.4zm0 134.9c-24.6 0-44.6-20-44.6-44.6s20-44.6 44.6-44.6 44.6 20 44.6 44.6c0 24.7-20 44.6-44.6 44.6z"/><linearGradient id="SVGID_4_" gradientUnits="userSpaceOnUse" x1="42" y1="1513.7" x2="654" y2="1513.7" gradientTransform="translate(0 -1331.2)"><stop offset="0" stop-color="#D84459"/><stop offset=".5" stop-color="#D84459"/><stop offset=".5" stop-color="#C84054"/><stop offset="1" stop-color="#C84054"/></linearGradient><path class="st4" d="M348 219.9c62.4 0 114.5 44.3 126.5 103.2h179.5c-13.2-157.5-145.1-281.2-306-281.2s-292.9 123.7-306 281.2h179.5c11.9-58.9 64-103.2 126.5-103.2z"/></svg>