<svg xmlns="http://www.w3.org/2000/svg" width="32" height="32" viewBox="0 0 32 32"><g><path d="M12.752 23.794l-3.167 3.167c-.374.375-.585.884-.585 1.414v1.876l-.858.892c-.301.313-.092.857.33.857h4.0569999999999995c.239 0 .44-.192.471-.435v-2.361l2.581-2.581-2.829-2.829z" fill="#A7794C"/><path d="M16 8.417s-6.942-8.722-14.921-1.008c-.186.18-.015.49.235.425 5.225-1.36 6.771 1.007 9.851 4.166h4.835v-3.583z" fill="#60C46F"/><path d="M15.993 7.5s-2-7.5-8.875-7.5c-5.405 0-6.767 2.189-7.102 3.125-.066.185.087.37.28.331 1.968-.394 11.846-.45 13.03 8.544h2.674l-.007-4.5z" fill="#6CD275"/><path d="M16 8.417s6.942-8.722 14.921-1.008c.186.18.015.49-.235.425-5.225-1.36-6.771 1.007-9.851 4.166h-4.835v-3.583z" fill="#54B668"/><path d="M16.007 7.5s2-7.5 8.875-7.5c5.405 0 6.767 2.189 7.102 3.125.066.185-.087.37-.28.331-1.968-.394-11.846-.45-13.03 8.544h-2.674l.007-4.5z" fill="#60C46F"/><path d="M14 11h2v-11c-1.125 0-2 11-2 11z" fill="#84ED82"/><path d="M16 0v11h2s-1-11-2-11z" fill="#78DF7C"/><path d="M23.858 31.143l-.858-.892v-1.876c0-.531-.211-1.039-.586-1.415l-3.167-3.167-2.828 2.828 2.581 2.583v2.361c.031.243.232.435.471.435h4.057c.422 0 .631-.544.33-.857z" fill="#9E6E43"/><path d="M9.076 24.116c.478 3.324 3.391 5.884 6.924 5.884v-4c-2.581 0-4.965-.701-6.924-1.884z" fill="#B38658"/><path d="M16 22c-2.418 0-4.664-.616-6.55-1.665-.286 1.004-.45 1.981-.45 2.825 0 .325.031.643.076.956 1.959 1.183 4.343 1.884 6.924 1.884v-4z" fill="#C09265"/><path d="M16 13c-3.002 0-5.555 3.846-6.55 7.335 1.886 1.049 4.132 1.665 6.55 1.665v-9z" fill="#CDA073"/><path d="M22.924 24.116c-1.959 1.183-4.343 1.884-6.924 1.884v4c3.533 0 6.446-2.56 6.924-5.884z" fill="#A7794C"/><path d="M16 26c2.581 0 4.965-.701 6.924-1.884.045-.313.076-.631.076-.956 0-.844-.164-1.821-.45-2.825-1.886 1.049-4.132 1.665-6.55 1.665v4z" fill="#B38658"/><path d="M22.55 20.335c-.995-3.489-3.548-7.335-6.55-7.335v9c2.418 0 4.664-.616 6.55-1.665z" fill="#C09265"/><path d="M16 12s-2.271-8.439-9.318-6.238c-.226.071-.219.392.004.472 5.9 2.122 6.481 5.766 6.481 5.766h2.833z" fill="#78DF7C"/><path d="M16 12s2.271-8.439 9.318-6.238c.227.071.219.392-.004.472-5.9 2.122-6.481 5.766-6.481 5.766h-2.833z" fill="#6CD275"/><path d="M10 20v-11s-3.571-.041-4.809 5.256c-1.341 5.744 4.809 5.744 4.809 5.744z" fill="#FAE09F"/><path d="M10 20v-11s3.571-.041 4.809 5.256c1.341 5.744-4.809 5.744-4.809 5.744z" fill="#F7D684"/><path d="M7.151 14.087l2.473-1.157s-.83-1.451-2.045-.728c-.971.577-.428 1.885-.428 1.885zM7.151 14.087l2.473-1.157s-.83-1.451-2.045-.728c-.971.577-.428 1.885-.428 1.885zM12.849 14.087l-2.473-1.157s.83-1.451 2.045-.728c.971.577.428 1.885.428 1.885zM12.849 14.087l-2.473-1.157s.83-1.451 2.045-.728c.971.577.428 1.885.428 1.885z" fill="#fff"/><circle cx="12" cy="13" r=".5" fill="#2B3332"/><path d="M8.027 15.287c.087.553.45 1.713 1.973 1.713v-2h-1.725c-.153 0-.272.135-.248.287z" fill="#FF8D6E"/><path d="M11.725 15h-1.725v2c1.523 0 1.886-1.16 1.973-1.713.024-.152-.095-.287-.248-.287z" fill="#FF805D"/><circle cx="7.99" cy="13" r=".5" fill="#373F3F"/><path d="M22 20v-11s-3.571-.041-4.809 5.256c-1.341 5.744 4.809 5.744 4.809 5.744z" fill="#FAE09F"/><path d="M22 20v-11s3.571-.041 4.809 5.256c1.341 5.744-4.809 5.744-4.809 5.744z" fill="#F7D684"/><path d="M20.112 14.776c-.124-.062-.274-.01-.335.112-.062.124-.012.274.112.335.043.021 1.065.526 2.112.526v-.5c-.928.001-1.88-.468-1.889-.473z" fill="#373F3F"/><path d="M24.224 14.888c-.062-.122-.209-.173-.335-.112-.01.005-.962.474-1.889.474v.5c1.047 0 2.069-.505 2.112-.526.123-.062.173-.212.112-.336z" fill="#2B3332"/><path d="M25.25 12.751h-2.219c-.038 0-.133.05-.133.1 0 .758.556.748 1.242.748s1.242.072 1.242-.748c.001-.049-.094-.1-.132-.1zM25.25 12.751h-2.219c-.038 0-.133.05-.133.1 0 .758.556.748 1.242.748s1.242.072 1.242-.748c.001-.049-.094-.1-.132-.1z" fill="#fff"/><path d="M24.141 13.103c.224 0 .406-.149.47-.352h-.94c.063.203.246.352.47.352zM24.141 13.103c.224 0 .406-.149.47-.352h-.94c.063.203.246.352.47.352z" fill="#2B3332"/><path d="M20.969 12.751h-2.219c-.038 0-.133.05-.133.1 0 .758.556.748 1.242.748s1.242.072 1.242-.748c.001-.049-.094-.1-.132-.1zM20.969 12.751h-2.219c-.038 0-.133.05-.133.1 0 .758.556.748 1.242.748s1.242.072 1.242-.748c.001-.049-.094-.1-.132-.1z" fill="#fff"/><path d="M19.859 13.103c.224 0 .406-.149.47-.352h-.94c.064.203.247.352.47.352zM19.859 13.103c.224 0 .406-.149.47-.352h-.94c.064.203.247.352.47.352z" fill="#373F3F"/><path d="M16 21v-11s-3.571-.041-4.809 5.256c-1.341 5.744 4.809 5.744 4.809 5.744z" fill="#FFF3D9"/><path d="M16 21v-11s3.571-.041 4.809 5.256c1.341 5.744-4.809 5.744-4.809 5.744z" fill="#FDEBBB"/><path d="M17.364 13.155s-.93 1.389.257 2.155c.949.613 1.879-.455 1.879-.455l-2.136-1.7z" fill="#F7F7F7"/><circle cx="18.037" cy="14.5" r=".5" fill="#2B3332"/><path d="M14.027 16.287c.087.553.45 1.713 1.973 1.713v-2h-1.725c-.153 0-.272.135-.248.287z" fill="#FF9A7E"/><path d="M17.725 16h-1.725v2c1.523 0 1.886-1.16 1.973-1.713.024-.152-.095-.287-.248-.287z" fill="#FF8D6E"/><path d="M14.636 13.155s.93 1.389-.257 2.155c-.949.613-1.879-.455-1.879-.455l2.136-1.7z" fill="#fff"/><circle cx="13.963" cy="14.5" r=".5" fill="#373F3F"/></g></svg>