<svg xmlns="http://www.w3.org/2000/svg" width="32" height="32" viewBox="0 0 32 32"><g><path d="M16 24s4 2 8 1c2.248-.562 4.239-1.253 5.224-1.914.396-.266.904.131.747.582-.644 1.845-2.57 4.652-5.971 5.332-5 1-5.083.708-5.083.708l-2.917-5.708z" fill="#9E6E43"/><path d="M5 32h6.714s.815-.495-.309-1.466-6.405-.696-6.405 1.466z" fill="#B38658"/><path d="M12.133 22.438s-3.981-1.849-5.44 2.054-.315 4.683.67 5.751c.985 1.068 4.601 1.18 5.395-.807.795-1.987-.625-6.998-.625-6.998z" fill="#C09265"/><path d="M26 32h-6.714s-.815-.495.309-1.466c1.124-.971 6.405-.696 6.405 1.466z" fill="#A7794C"/><path d="M18.867 22.438s3.981-1.849 5.44 2.054c1.458 3.903.315 4.683-.67 5.751-.985 1.068-4.601 1.18-5.395-.807l.625-6.998zM10.5 18.018l-4.247-.725-1.647-.275c-.597-.099-1.19.202-1.46.744-.311.622-.11 1.378.469 1.764l1.285.858 3.701 2.468 1.899-4.834z" fill="#B38658"/><path d="M21.5 18.018l4.247-.725 1.647-.275c.597-.099 1.19.202 1.46.744.311.622.11 1.378-.469 1.764l-1.285.858-3.701 2.468-1.899-4.834z" fill="#A7794C"/><path d="M22.963 26c0 .274-.012.545-.036.812 1.417-2.568 1.487-6.836-.13-9.645-1.824-3.167-6.797-4.25-6.797-4.25v5.083c3.845 0 6.963 3.582 6.963 8z" fill="#B38658"/><path d="M16 18v-5.083s-4.973 1.083-6.797 4.25c-1.617 2.808-1.547 7.077-.13 9.645-.024-.267-.036-.538-.036-.812 0-4.418 3.118-8 6.963-8z" fill="#C09265"/><path d="M16 18v11.958s3.813.083 5.927-1.833c.387-.351.718-.802 1.001-1.313.023-.267.036-.538.036-.812-.001-4.418-3.119-8-6.964-8z" fill="#FDEBBB"/><path d="M16 29.958v-11.958c-3.845 0-6.963 3.582-6.963 8 0 .274.012.545.036.812.282.512.613.962 1.001 1.313 2.113 1.917 5.926 1.833 5.926 1.833z" fill="#FFF3D9"/><path d="M14 11.375v-6.585c0-.314-.147-.609-.398-.798l-4.619-3.484-.595.298c-.223.111-.33.369-.251.605l.797 2.392c.042.126.032.263-.027.382l-.848 1.696-.169.193-2.523 1.681c-.21.14-.283.414-.17.64l.803 1.605h1l1.817 2.763c.111.169.109.387-.004.555l-1.577 2.333c-.136.202-.108.472.068.641l.51.489c.116.112.28.16.438.13l1.748-.328v1.557c0 .384.414.624.747.434l1.607-1.429-1.182-2.759c-.105-.386.031-.797.344-1.046l2.484-1.965z" fill="#E3E5E5"/><path fill="#A7A9AC" d="M18 8.958l2-1.958 2 2.042v2.958l-1.541 1.341-2.483-1.988z"/><path d="M18 11.375v-6.585c0-.314.147-.609.398-.798l4.619-3.483.595.298c.223.111.329.369.251.605l-.797 2.392c-.042.126-.032.263.027.382l.848 1.696.17.192 2.522 1.681c.21.14.283.414.17.64l-.803 1.605h-1l-1.817 2.763c-.111.169-.109.387.004.555l1.577 2.333c.136.202.108.472-.068.641l-.51.489c-.116.112-.28.16-.438.13l-1.748-.328v1.557c0 .384-.414.624-.747.434l-1.44-1.304 1.015-2.884c.105-.386-.031-.797-.344-1.046l-2.484-1.965z" fill="#DADDDC"/><path d="M11.541 13.341l-1.369-1.192c-.109-.094-.172-.232-.172-.377v-2.526c0-.131.051-.256.143-.35l1.507-1.539c.193-.197.51-.201.707-.007l1.643 1.608.024 2.395-2.483 1.988z" fill="#B38658"/><path d="M12.011 9.23c.144.107.283.228.416.356-.313.456-.508 1.078-.508 1.765 0 .158.013.312.033.462-.357-.14-.603-.328-.737-.449-.081-.073-.135-.169-.155-.276-.064-.34-.164-1.167.235-1.746.162-.235.487-.282.716-.112z" fill="#fff"/><path d="M13.52 10.979c-.206-.331-.469-.711-.779-1.063l-.314-.33c-.313.456-.508 1.078-.508 1.765 0 .158.013.312.033.462.33.13.76.211 1.289.167l.587-.47-.308-.531z" fill="#373F3F"/><path d="M20.459 13.341l1.369-1.192c.109-.094.172-.232.172-.377v-2.526c0-.131-.051-.256-.143-.35l-1.507-1.539c-.193-.197-.51-.201-.707-.007l-1.643 1.608-.024 2.395 2.483 1.988z" fill="#A7794C"/><path d="M19.989 9.23c-.144.107-.283.228-.416.356.313.456.508 1.078.508 1.765 0 .158-.013.312-.033.462.357-.14.603-.328.737-.449.081-.073.135-.169.155-.276.064-.34.164-1.167-.235-1.746-.162-.235-.487-.282-.716-.112z" fill="#F7F7F7"/><path d="M19.573 9.586l-.314.33c-.31.352-.573.732-.779 1.063-.128.206-.228.384-.307.531l.587.47c.528.044.959-.037 1.289-.167.02-.15.033-.304.033-.462-.001-.688-.196-1.309-.509-1.765z" fill="#2B3332"/><path d="M15.684 1.105l-2.22.74c-.293.098-.614.055-.871-.116l-2.352-1.568c-.149-.1-.341-.111-.501-.031l-.757.378 4.619 3.483c.251.189.398.485.398.799v6.101c0 .306-.14.594-.379.784l-2.103 1.665c-.314.248-.449.66-.344 1.047l.726 2.669c.065.239.216.445.424.579l3.136 2.017c.171.11.367.16.562.156v-18.751c-.115-.002-.229.012-.338.048z" fill="#EDEEEE"/><path d="M19.677 17.635c.208-.134.359-.34.424-.579l.726-2.669c.105-.386-.03-.798-.344-1.047l-2.103-1.665c-.24-.189-.38-.478-.38-.784v-6.101c0-.314.147-.609.398-.798l4.619-3.483-.757-.379c-.16-.08-.352-.068-.501.031l-2.352 1.568c-.257.171-.578.214-.871.116l-2.22-.74c-.096-.032-.196-.046-.295-.048v18.751c.181-.004.362-.054.52-.156l3.136-2.017z" fill="#E3E5E5"/><path d="M17.036 17.523l.67-1.341c.1-.201.368-.244.527-.085l.67.67c.159.159.115.426-.085.527l-1.341.67c-.282.141-.582-.159-.441-.441z" fill="#2B3332"/><path d="M14.964 17.523l-.67-1.341c-.1-.201-.368-.244-.527-.085l-.67.67c-.159.159-.115.426.085.527l1.341.67c.282.141.582-.159.441-.441z" fill="#373F3F"/><path d="M1.75 11l-1.75 1.846v1.846l1.75 1.788 1.253 9.113c.033.296.265.444.497.444v-14.114l-1.75-.923z" fill="#EDEEEE"/><path d="M3.997 25.594l1.253-9.113 1.75-1.789v-1.846l-1.75-1.846-1.75.923v14.115c.232 0 .464-.148.497-.444z" fill="#E3E5E5"/></g></svg>