<svg xmlns="http://www.w3.org/2000/svg" width="32" height="32" viewBox="0 0 32 32"><g><path d="M26.362 23c.14 0 .281-.029.414-.09.395-.179.629-.592.579-1.023l-.906-7.969-1.986.226.558 4.904-1.545-1.691-1.477 1.349 3.625 3.969c.193.211.464.325.738.325z" fill="#C09265"/><path d="M20.5 31c.828 0 1.5-.672 1.5-1.5v-2.813c0-.179-.032-.357-.095-.525l-1.225-3.282c-.29-.776-1.154-1.17-1.93-.881-.776.29-1.171 1.154-.881 1.93l1.036 2.775c.063.168.095.346.095.525v2.271c0 .828.672 1.5 1.5 1.5z" fill="#B38658"/><path d="M20 19l1.726 4.314c.131.329-.111.686-.465.686h-5.261v-5h4z" fill="#C6B7E9"/><path d="M16 13.5v5.5h4l1.968-4.486c.106-.301-.064-.635-.347-.681l-5.117-.828c-.266-.043-.504.191-.504.495z" fill="#D4C9EF"/><path d="M20.499 11.111l7.44 1.653c.417.093.533.632.192.888l-2.998 2.248c-.087.065-.192.1-.3.1h-4.833l-.1-4.499c.055-.275.325-.451.599-.39z" fill="#B38658"/><path d="M16 20h4c.552 0 1-.448 1-1s-.448-1-1-1h-4v2z" fill="#2B3332"/><path d="M18.999 29.245s-.999.398-.999 1.326l.875 1.424 5.25.005s.875-.25.875-1.214c0-1.041-1.304-1.362-1.959-1.25-.627.107-1.042-.235-1.042-.235s-1.956.765-3-.056z" fill="#C6B7E9"/><path d="M22.937 14.452c.768.556 1.092 1.397 1.019 2.211-.042.466.056.932.355 1.288l.07.083c.351.418.292 1.044-.131 1.399l-.341.286c-.423.355-1.05.305-1.401-.113l-.072-.086c-.295-.351-.728-.532-1.188-.568-.631-.049-1.239-.336-1.676-.856-1.015-1.209-.659-3.117.895-3.863.792-.379 1.766-.29 2.47.219z" fill="#D84459"/><path d="M5.638 23c-.14 0-.281-.029-.414-.09-.395-.179-.629-.592-.579-1.023l.906-7.969 1.986.226-.557 4.904 1.545-1.691 1.477 1.349-3.625 3.969c-.194.211-.465.325-.739.325z" fill="#CDA073"/><path d="M11.5 31c-.828 0-1.5-.672-1.5-1.5v-2.813c0-.179.032-.357.095-.525l1.225-3.282c.29-.776 1.154-1.17 1.93-.881.776.29 1.171 1.154.881 1.93l-1.036 2.775c-.063.168-.095.346-.095.525v2.271c0 .828-.672 1.5-1.5 1.5z" fill="#C09265"/><path d="M12 19l-1.726 4.314c-.131.329.111.686.465.686h5.261v-5h-4z" fill="#D4C9EF"/><path d="M16 13.5v5.5h-4l-1.968-4.486c-.106-.301.064-.635.347-.681l5.117-.828c.266-.043.504.191.504.495z" fill="#E3DBF4"/><path d="M11.501 11.111l-7.44 1.653c-.417.093-.533.632-.192.888l2.998 2.248c.087.065.192.1.3.1h4.833l.1-4.499c-.055-.275-.325-.451-.599-.39z" fill="#C09265"/><path d="M16 0v15l-1.496-.002c-.309 0-.61-.091-.855-.26l-2.804-1.93c-.294-.202-.486-.5-.533-.829l-1.31-8.994c-.011-.072.038-.141.117-.163l1.169-.326c.06-.017.126-.002.171.037l1.033.922c.108.096.293.026.29-.11l-.033-1.516c-.001-.063.041-.121.107-.144l1.171-.412c.091-.032.192.011.223.093l.75 3.53c.061.162.329.124.331-.047l.309-4.493c.001-.07.055-.131.132-.147l1.228-.209z" fill="#CFAB81"/><path d="M16 0v15l1.496-.002c.309 0 .61-.091.855-.26l2.804-1.93c.294-.202.486-.5.533-.829l1.31-8.994c.011-.073-.039-.142-.118-.164l-1.169-.326c-.06-.017-.126-.002-.171.037l-1.033.922c-.108.096-.293.026-.29-.11l.033-1.516c.001-.063-.041-.121-.107-.144l-1.171-.412c-.091-.032-.192.011-.223.093l-.749 3.531c-.061.162-.329.124-.331-.047l-.309-4.493c-.001-.07-.055-.131-.132-.147l-1.228-.209z" fill="#CDA073"/><path d="M13.261 9.874l-.382-.344c-.291-.263-.759-.102-.828.284-.121.672.001 1.141.108 1.396.058.138.173.242.317.286l.621.188c-.06-.215-.097-.443-.097-.684 0-.418.097-.805.261-1.126z" fill="#fff"/><path d="M14.591 11.075l-1.33-1.201c-.164.321-.261.708-.261 1.126 0 .241.037.47.096.684l1.015.308c.321.097.645-.143.645-.478v-.067c0-.142-.06-.277-.165-.372z" fill="#373F3F"/><path d="M18.739 9.874l.382-.345c.291-.263.759-.102.828.284.121.672-.001 1.141-.108 1.396-.058.138-.173.242-.317.286l-.621.188c.06-.214.097-.442.097-.683 0-.418-.097-.805-.261-1.126z" fill="#F7F7F7"/><path d="M17.409 11.075l1.33-1.201c.164.321.261.708.261 1.126 0 .241-.037.47-.096.684l-1.015.308c-.321.097-.645-.143-.645-.478v-.067c0-.142.06-.277.165-.372z" fill="#2B3332"/><path d="M16 20h-4c-.552 0-1-.448-1-1s.448-1 1-1h4v2z" fill="#373F3F"/><path d="M13.001 29.245s.999.398.999 1.326l-.875 1.424-5.25.005s-.875-.25-.875-1.215c0-1.041 1.304-1.362 1.959-1.25.627.107 1.042-.235 1.042-.235s1.956.766 3-.055z" fill="#D4C9EF"/><path d="M9.063 14.452c-.768.556-1.092 1.397-1.019 2.211.042.466-.056.932-.355 1.288l-.07.083c-.351.418-.292 1.044.131 1.399l.341.286c.423.355 1.05.305 1.401-.113l.072-.086c.295-.351.728-.532 1.188-.568.631-.049 1.239-.336 1.676-.856 1.015-1.209.659-3.117-.895-3.863-.792-.379-1.766-.29-2.47.219z" fill="#D84459"/></g></svg>