<svg xmlns="http://www.w3.org/2000/svg" width="32" height="32" viewBox="0 0 32 32"><g><path d="M21 7v15h4.937c2.593 0 3.491 2.643 3.802 4.349.087.477.757.556.95.111 3.432-7.924.144-19.46-9.689-19.46z" fill="#EA8BB4"/><path d="M8.763 16.385c-1.111.741-2.775 4.369-5.013 4.6s-3.095-2.151-2.625-3.271 2.483-3.464 4.766-5.387l5.68-1.189v5.238l-2.808.009z" fill="#F9ADC8"/><path d="M23.237 16.385c1.111.741 2.775 4.369 5.013 4.6s3.095-2.151 2.625-3.271c-.47-1.12-2.483-3.464-4.766-5.387l-5.68-1.189v5.238l2.808.009z" fill="#F8A1C4"/><path d="M16 9v20.988s9 .012 9.916-6.467c.995-7.043-5.38-14.521-5.38-14.521h-4.536z" fill="#F9ADC8"/><path d="M16 .007v11.821s4.314.819 6.279-1.117c1.639-1.615 1.387-3.098.644-4.809-.73-1.679-.993-2.945-2.538-4.319-2.002-1.779-4.385-1.576-4.385-1.576zM16 9v20.988s-9 .012-9.916-6.467c-.995-7.043 5.38-14.521 5.38-14.521h4.536z" fill="#FAB8CD"/><path d="M16 .007v11.821s-4.314.819-6.279-1.117c-1.639-1.615-1.387-3.098-.643-4.809.73-1.679.993-2.945 2.538-4.319 2.001-1.779 4.384-1.576 4.384-1.576z" fill="#FAC4D1"/><path d="M16 12.163v-3.074s-1.609-.268-2.979-.826c-1.288-.524-2.56 1.438-1.785 2.777l4.764 1.123z" fill="#D84459"/><path d="M16 15.839v6.098s-3.254-.091-4.709-2.053c-1.096-1.477-1.27-3.639-1.289-4.965-.006-.397.424-.635.762-.427.912.562 2.649 1.347 5.236 1.347z" fill="#FFF3D9"/><path d="M16 23.75v4.272s-4.299-.342-6-2.022c-1.766-1.744-2.14-3.592-1.887-5.73.052-.442.62-.585.894-.235 1.083 1.386 3.433 3.715 6.993 3.715z" fill="#FDEBBB"/><path d="M16 29v-18.247s-1.456-.143-2.523-.599c-1.067-.456-1.908.114-1.811 1.483s-1.003 10.435-1.456 11.575c-.453 1.141-.776 5.731 5.79 5.788z" fill="#F8A1C4"/><path d="M16 12.163v-3.074s1.609-.268 2.979-.826c1.288-.524 2.56 1.438 1.785 2.777-.776 1.338-4.764 1.123-4.764 1.123z" fill="#C84054"/><path d="M16 15.839v6.098s3.254-.091 4.709-2.053c1.096-1.477 1.27-3.639 1.289-4.965.006-.397-.424-.635-.762-.427-.912.562-2.649 1.347-5.236 1.347z" fill="#FDEBBB"/><path d="M16 23.75v4.272s4.299-.342 6-2.022c1.766-1.744 2.14-3.592 1.887-5.73-.052-.442-.62-.585-.894-.235-1.083 1.386-3.433 3.715-6.993 3.715z" fill="#FAE09F"/><path d="M16 29v-18.247s1.456-.143 2.523-.599c1.067-.456 1.908.114 1.811 1.483-.097 1.368 1.003 10.435 1.456 11.575.453 1.141.776 5.731-5.79 5.788z" fill="#F297BE"/><ellipse cx="19" cy="5.5" rx="1" ry="1.5" fill="#2B3332"/><circle cx="19" cy="5" r=".5" fill="#F7F7F7"/><ellipse cx="13" cy="5.5" rx="1" ry="1.5" fill="#373F3F"/><circle cx="13" cy="5" r=".5" fill="#F7F7F7"/><path d="M29 28.703c0 3.149-1.567 3.297-3.5 3.297s-3.5-.148-3.5-3.297 1.567-5.703 3.5-5.703 3.5 2.553 3.5 5.703z" fill="#F8A1C4"/><path d="M23.796 32c-.39 0-.639-.431-.429-.759.364-.566 1.029-1.241 2.133-1.241s1.769.675 2.133 1.241c.211.328-.039.759-.429.759h-3.408z" fill="#DADDDC"/><circle cx="25.5" cy="27" r="2" fill="#FAE09F"/><circle cx="25.5" cy="27" r="1" fill="#F8A1C4"/><path d="M10 28.703c0 3.149-1.567 3.297-3.5 3.297s-3.5-.148-3.5-3.297 1.567-5.703 3.5-5.703 3.5 2.553 3.5 5.703z" fill="#F9ADC8"/><path d="M4.796 32c-.39 0-.639-.431-.429-.759.364-.566 1.029-1.241 2.133-1.241s1.769.675 2.133 1.241c.211.328-.039.759-.429.759h-3.408z" fill="#E3E5E5"/><circle cx="6.5" cy="27" r="2" fill="#FDEBBB"/><circle cx="6.5" cy="27" r="1" fill="#F9ADC8"/></g></svg>