<svg xmlns="http://www.w3.org/2000/svg" width="32" height="32" viewBox="0 0 32 32"><g><path d="M30.701 13.829c.75-.033 1.331-.667 1.297-1.417-.033-.749-.659-1.322-1.417-1.297-.55.027-1.234-1.267-1.665-2.726l.249-.028c.374.73 1.268 1.024 2.003.658.742-.369 1.043-1.27.674-2.011-.806-1.619-2.141-1.859-3.83-1.508-.51-.885-1.156-1.382-1.68-1.65-.459-.235-.919-.354-1.348-.407-.493-.882-1.57-2.432-3.35-3.116-1.321-.508-2.778-.423-4.213.247-.594.277-1.17.657-1.679 1.12-.794-.691-1.925-1.235-3.502-1.235-2.372 0-3.634 1.688-4.648 3.045-.604.808-1.174 1.571-1.812 1.777-.926.299-1.442-.177-1.577-.331-.176-.2-.223-.405-.19-.476.119-.25.171-.236.214-.23.779.281 1.639-.119 1.923-.898.283-.779-.119-1.639-.897-1.922-1.072-.389-3.005-.239-3.952 1.769-.568 1.203-.32 2.634.648 3.737.176.201.375.371.58.531-3.225.69-2.87 5.562-1.644 7.62.276.463.628.778.997.999-.276.039-.545.152-.772.348-1.125.974-1.425 2.399-.762 3.631l.154.241c-.454 2.224-.196 4.634 1.21 6.265.623.723 1.518 1.335 2.514 1.754l.11.417c.826 2.389 2.912 3.771 4.659 3.088.629-.246 1.123-.733 1.466-1.359 2.033.635 4.492.681 6.637.213.472.451 1.032.801 1.68 1.024.613.211 1.247.298 1.867.298.745 0 1.458-.133 2.095-.321l.264.147c1.747.684 3.833-.699 4.659-3.088.123-.355.2-.71.255-1.063 1.899-1.107 2.958-3.28 2.521-5.261 1.089-2.926.569-6.305-1.504-8.941.475.224 1.009.36 1.614.36l.152-.004z" fill="#6673AA"/><path d="M26.222 14.9c2.763 2.928 2.234 6.982-.863 9.384-1.524 1.181.613 3.291 2.121 2.121 4.426-3.431 4.636-9.628.863-13.626-1.327-1.407-3.446.717-2.121 2.121z" fill="#7C8AC4"/><path d="M10.641 23.249c3.054-1.792 6.049-3.408 9.61-3.874-1.044-.644-2.303-.876-3.521-.81-1.412.076-8.953 2.567-9.223-.262-.557 1.059-1.466 1.858-2.487 2.5.501.702 1.26 1.302 2.337 1.771 1.072.465 2.17.673 3.284.675z" fill="#6673AA"/><path d="M29.004 16.623c.306-1.889-2.584-2.701-2.893-.798-.748 4.612-9.631 2.724-12.885 4.062-2.442 1.004-4.642 3.606-4.361 6.394.533 5.283 8.105 2.893 10.254-.604.122.619.589 1.146 1.412 1.115 2.947-.108 7.168-1.986 7.974-4.837.365-1.289-.912-2.065-1.906-1.803 1.22-.794 2.144-1.919 2.405-3.529zm-3.391 4.536c-.436 1.54-3.47 2.575-5.081 2.634-.39.014-.697.152-.929.357-.239-1.478-3.04-2.222-3.539-.587-.239.782-2.323 3.199-3.5 2.562-1.718-.928.408-2.731 1.304-3.256 2.185-1.281 5.382-.67 7.805-1.045 1.433-.222 2.988-.608 4.303-1.303-.158.162-.287.369-.363.638z" fill="#8694D1"/><path d="M15.708 6.458c-5.81 0-10.417 2.458-10.417 7.625 0 4.671 4.71 8.458 10.521 8.458l.188-.008v-16.067l-.292-.008z" fill="#373F3F"/><path d="M26.333 14.083c0-5.161-4.655-7.538-10.333-7.617v16.068c5.723-.081 10.333-3.83 10.333-8.451z" fill="#2B3332"/><circle cx="10.5" cy="13.5" r="3.5" fill="#fff"/><circle cx="11" cy="14" r="1" fill="#373F3F"/><circle cx="21.5" cy="13.5" r="3.5" fill="#F7F7F7"/><circle cx="21" cy="14" r="1" fill="#2B3332"/><path d="M19.675 8.76c1.631-.962 4.045-1.887 4.94.396.75 1.913.104 3.67-.491 5.486-.294.897-.479 1.687-.124 2.596.419 1.073 2.464 2.196 2.063 3.451-.655 2.053 2.431 3.43 3.092 1.361.696-2.181.174-3.487-1.084-5.275-.872-1.239-.386-1.673-.045-3.118.321-1.36.402-2.786.154-4.165-1.056-5.889-6.127-6.035-10.521-3.444-1.872 1.106.16 3.806 2.016 2.712z" fill="#7C8AC4"/><path d="M15.256 3.188c.126-.298.251-.597.369-.901.07-.179.167-.325.277-.451-.796-.76-1.977-1.378-3.662-1.378-2.372 0-3.634 1.688-4.648 3.045-.604.809-1.174 1.572-1.812 1.778-.926.299-1.442-.177-1.577-.331-.176-.2-.223-.405-.19-.476.119-.25.171-.236.214-.23.779.281 1.639-.119 1.923-.898.283-.779-.119-1.639-.897-1.922-1.072-.389-3.005-.239-3.952 1.769-.568 1.203-.32 2.634.648 3.737.828.943 1.998 1.448 3.247 1.448.495 0 1.001-.079 1.504-.241 1.548-.499 2.476-1.741 3.295-2.837.957-1.28 1.458-1.841 2.245-1.841 1.399 0 1.866.749 2.012 1.113.303-.478.648-.934 1.004-1.384z" fill="#8694D1"/><path d="M15.027 5.414l.005-.664c0-.234.048-.438.129-.612-1.324-.688-2.97-.903-4.41-.704-1.347.186-2.315.986-2.903 2.047 2.271-.584 4.73-.48 7.179-.067zM26.195 25.202c-.975-1.865-3.234-2.873-4.957-3.39-2.139-.641-4.436-.234-6.462.126-.982.174-1.91.339-2.752.382-1.079.052-4.725.01-6.274-2.92-.43-.812-.782-11.71-.156-11.8-.831-.646-2.376-.61-2.983.371-.93 1.502-1.51 3.099-.837 4.843.312.809.82 1.43 1.429 1.95-.218.336-.41.691-.554 1.075l-.114.364c-.205.122-.394.293-.554.524-1.832 2.645-2.513 7.236-.269 9.84 1.862 2.159 6.132 3.379 8.358 1.173.821-.814.536-1.862-.141-2.45.724.094 1.471.143 2.253.101 1.034-.053 2.101-.243 3.132-.426 1.772-.315 3.604-.64 5.041-.209 1.565.47 2.759 1.186 3.117 1.87.098.188.179.438.037.872-.119.364-.475.729-.951.975-.72.373-1.937.612-2.779.324-.427-.147-.717-.414-.914-.84-.355-.771-1.269-1.109-2.039-.752-.771.355-1.108 1.268-.753 2.039.548 1.19 1.485 2.041 2.707 2.461.611.208 1.245.295 1.865.295 1.281 0 2.5-.371 3.324-.797 1.212-.627 2.086-1.604 2.461-2.75.369-1.127.288-2.251-.235-3.251zm-18.529.133c-1.127 1.117-3.625-1.062-3.844-2.039-.098-.438-.123-.902-.097-1.371 1.093 1.444 2.665 2.469 4.53 3.02-.203.079-.402.205-.589.39z" fill="#7C8AC4"/><path d="M31.842 7.007c-1.211-2.432-3.609-1.76-6.619-.631-2.124.798-3.664 1.086-5.315.987-2.579-.152-2.522-.917-2.617-1.238-.349-1.178.331-2.336 1.397-2.833.695-.324 1.303-.379 1.859-.169 1.045.395 1.791 1.663 1.99 2.119.325.757 1.203 1.109 1.963.789.763-.323 1.119-1.204.795-1.966-.121-.285-1.25-2.811-3.663-3.737-1.321-.508-2.778-.423-4.213.247-1.615.753-3.106 2.259-3.444 4.15-.961-.397-2.139-.564-3.571-.303-2.547.462-4.693 2.009-5.739 4.137-.821 1.67-.862 3.457-.114 4.902.669 1.292.797 3.485.272 4.693-.166.382-.366.608-.596.673-.621.172-1.017.007-1.171-.116l.016-.014c.626-.542.695-1.489.153-2.116-.542-.626-1.489-.695-2.116-.153-1.125.974-1.425 2.399-.762 3.631.629 1.169 1.915 1.842 3.36 1.842.434 0 .882-.061 1.331-.187 1.125-.316 2.001-1.134 2.537-2.367.885-2.038.73-5.162-.36-7.267-.301-.582-.248-1.404.143-2.2.628-1.278 1.968-2.216 3.586-2.51 2.59-.469 3.544 1.513 3.806 1.847 1.545 1.974 5.454 1.386 6.714 1.101 1.846-.139 3.453-.624 4.814-1.135 1.816-.682 2.586-.81 2.887-.824.374.73 1.268 1.024 2.003.658.742-.368 1.044-1.269.674-2.01z" fill="#8694D1"/><path d="M27.663 28.738c-.826 2.389-2.912 3.771-4.659 3.088-1.747-.684-2.493-3.174-1.667-5.563s2.912-3.771 4.659-3.088c1.747.683 2.494 3.174 1.667 5.563z" fill="#FF9A7E"/><path d="M4.337 28.738c.826 2.389 2.912 3.771 4.659 3.088 1.747-.684 2.493-3.174 1.667-5.563-.826-2.389-2.912-3.771-4.659-3.088-1.747.683-2.494 3.174-1.667 5.563z" fill="#FFA68E"/></g></svg>