<svg xmlns="http://www.w3.org/2000/svg" width="32" height="32" viewBox="0 0 32 32"><g><path d="M18 1.315s6.032-.763 6.901.085c.868.848-4.236 2.6-4.236 2.6l-2.665-2.685z" fill="#FAE09F"/><path d="M14 1.315s-6.032-.763-6.901.085l4.236 2.6 2.665-2.685z" fill="#FDEBBB"/><path d="M16 12s8.333 13.083 15.165 13.083c4.089 0-8.218 4.458-15.165 4.917v-18z" fill="#8D5B36"/><path d="M22.689 17.438c1.576 2.489 3.977 3.767 5.364 2.854 1.387-.913 1.233-3.67-.342-6.16s-3.977-3.767-5.364-2.854c-1.387.914-1.234 3.671.342 6.16z" fill="#96643B"/><path d="M9.29 17.438c-1.576 2.489-3.977 3.767-5.364 2.854s-1.233-3.67.342-6.16 3.977-3.767 5.364-2.854c1.387.914 1.233 3.671-.342 6.16zM10.393 20.312l-3.466 2.764c-.582.462-.927 1.215-.927 2.018v5.67c0 .683.49 1.236 1.094 1.236h5.812c.604 0 1.094-.553 1.094-1.235v-9.529c0-.701-.514-1.262-1.134-1.235l-1.894.086c-.21.01-.408.088-.579.225z" fill="#9E6E43"/><path d="M12.571 9.539s-4.571 3.731-4.571 9.769c0 8.692 2.321 10.692 8 10.692v-21l-3.429.539z" fill="#A7794C"/><path d="M13.907 10.511c-.014-.157-.087-.299-.208-.394-.7-.551-3.238-2.249-5.454.072-2.172 2.275-.938 4.668-.475 5.392.09.14.238.227.398.241l2.114.177c.34.029.619-.279.574-.633l-.121-.947c-.021-.167.03-.334.139-.457l1.381-1.55c.089-.1.21-.162.34-.176l.92-.094c.294-.03.509-.303.481-.61l-.089-1.021z" fill="#B38658"/><path d="M16 9.106v2.894s-5.143-.313-5.143-3.37l5.143.476z" fill="#C09265"/><path d="M12.127 9.539l-.783-1.591s2.047-.055 2 .016c-.032.048-.486.989-.768 1.574-.09.188-.357.188-.449.001z" fill="#fff"/><path d="M16 .024s-2.259-.26-3.556.936l-1.297 2.965s-.24 1.613-.769 2.185c-.649.702-.505 2.302.769 2.237 1.974-.101 3.267.884 4.853.884v-9.207z" fill="#CDA073"/><path d="M16 14c-3.314 0-6 3.029-6 8 2.375 1.313 6 1.438 6 1.438v-9.438zM16 14c-3.314 0-6 3.029-6 8 2.375 1.313 6 1.438 6 1.438v-9.438z" fill="#FDEBBB"/><path d="M21.607 20.312l3.466 2.764c.582.462.927 1.215.927 2.018v5.67c0 .683-.49 1.236-1.094 1.236h-5.812c-.604 0-1.094-.553-1.094-1.235v-9.529c0-.701.514-1.262 1.134-1.235l1.894.086c.21.01.408.088.579.225z" fill="#96643B"/><path d="M19.429 9.539s4.571 3.731 4.571 9.769c0 8.692-2.321 10.692-8 10.692v-21l3.429.539z" fill="#9E6E43"/><path d="M18.093 10.511c.014-.157.087-.299.208-.394.7-.551 3.238-2.249 5.454.072 2.172 2.275.938 4.668.475 5.392-.09.14-.238.227-.398.241l-2.114.177c-.34.029-.619-.279-.574-.633l.121-.947c.021-.167-.03-.334-.139-.457l-1.381-1.55c-.089-.1-.21-.162-.34-.176l-.92-.094c-.294-.03-.509-.303-.481-.61l.089-1.021z" fill="#A7794C"/><path d="M16 9.106v2.894s5.143-.313 5.143-3.37l-5.143.476z" fill="#B38658"/><path d="M16 14c3.314 0 6 3.029 6 8-2.375 1.313-6 1.438-6 1.438v-9.438zM16 14c3.314 0 6 3.029 6 8-2.375 1.313-6 1.438-6 1.438v-9.438z" fill="#FAE09F"/><path d="M19.873 9.539l.783-1.591s-2.047-.055-2 .016c.032.048.486.989.768 1.574.09.188.357.188.449.001z" fill="#F7F7F7"/><path d="M2.876 19.05c-1.435 1.435-.955 3.093.344 4.564.19.215.525.224.728.02l.195-.195c.094-.094.146-.221.146-.354v-1.207h.914c.276 0 .5-.224.5-.5v-.914h1.207c.133 0 .26-.053.354-.146l.195-.195c.203-.203.195-.538-.02-.728-1.47-1.299-3.128-1.78-4.563-.345z" fill="#B38658"/><path d="M29.124 19.05c1.435 1.435.955 3.093-.344 4.564-.19.215-.525.224-.728.02l-.195-.195c-.094-.094-.146-.221-.146-.354v-1.207h-.914c-.276 0-.5-.224-.5-.5v-.914h-1.207c-.133 0-.26-.053-.354-.146l-.195-.195c-.203-.203-.195-.538.02-.728 1.47-1.299 3.128-1.78 4.563-.345z" fill="#A7794C"/><path d="M12 5.585c0-.616.364-1.328.364-1.328l.314.328c-.137.218-.228.528-.228.886 0 .235.047.441.111.625-.315-.119-.561-.296-.561-.511zM14 5.964c-.007.162-.18.245-.414.275.074-.156.119-.348.141-.559l.273.284z" fill="#fff"/><path d="M12.678 4.585l.336.35c-.129.069-.225.278-.225.536 0 .314.139.568.311.568s.311-.254.311-.568l-.015-.137.331.345c-.021.211-.067.403-.141.559-.299.038-.696-.017-1.025-.142-.064-.184-.111-.39-.111-.625-.001-.357.091-.668.228-.886z" fill="#9E6E43"/><path d="M13.411 5.472c0 .314-.139.568-.311.568s-.311-.254-.311-.568c0-.258.096-.467.225-.536l.382.399.015.137z" fill="#373F3F"/><path d="M14.965.024h1.035v6.976h-.562c-.28 0-.547-.114-.741-.316l-3.435-3.587c.14-.618.452-1.464 1.182-2.136.73-.674 1.755-.881 2.521-.937z" fill="#687271"/><path d="M14 22.5c0 1.381.895 2.5 2 2.5v-5c-1.105 0-2 1.12-2 2.5z" fill="#C6B7E9"/><path d="M18 22.5c0-1.381-.895-2.5-2-2.5v5c1.105 0 2-1.119 2-2.5z" fill="#B8A5E4"/><path d="M15.15 17.318l-1.818-.313c-.243-.042-.42.229-.286.44l1.06 1.668 1.044-1.795z" fill="#FAE09F"/><path d="M13.879 18.552s-.694 1.995.54 2.777 1.581.665 1.581.665v-3.208l-2.121-.234z" fill="#D4C9EF"/><circle cx="14.5" cy="19.786" r=".5" fill="#373F3F"/><path d="M16.85 17.318l1.818-.313c.243-.042.42.229.286.44l-1.06 1.668-1.044-1.795z" fill="#F7D684"/><path d="M18.121 18.552s.694 1.995-.54 2.777-1.581.665-1.581.665v-3.208l2.121-.234z" fill="#C6B7E9"/><circle cx="17.5" cy="19.786" r=".5" fill="#2B3332"/><path d="M16 30v-6.563s-3.625-.125-6-1.438c0 4.972 2.686 8.001 6 8.001z" fill="#FAE09F"/><path d="M16 30v-6.563s3.625-.125 6-1.438c0 4.972-2.686 8.001-6 8.001z" fill="#F7D684"/><ellipse transform="matrix(.227 -.974 .974 .227 -11.071 30.951)" cx="13.968" cy="22.452" rx="1.474" ry=".933" fill="#D4C9EF"/><ellipse transform="matrix(.974 -.227 .227 .974 -4.631 4.686)" cx="18.032" cy="22.452" rx=".933" ry="1.474" fill="#C6B7E9"/><path d="M16 .024s2.259-.26 3.556.936c1.297 1.196 1.297 2.965 1.297 2.965s.24 1.613.769 2.185c.649.702.505 2.302-.769 2.237-1.974-.101-3.267.884-4.853.884v-9.207z" fill="#C09265"/><path d="M20 5.585c0-.616-.364-1.328-.364-1.328l-.314.328c.137.218.228.528.228.886 0 .235-.047.441-.111.625.315-.119.561-.296.561-.511zM18 5.964c.007.162.18.245.414.275-.074-.156-.119-.348-.141-.559l-.273.284z" fill="#F7F7F7"/><path d="M19.322 4.585l-.336.35c.129.069.225.278.225.536 0 .314-.139.568-.311.568s-.311-.254-.311-.568l.015-.137-.331.346c.021.211.067.403.141.559.299.038.696-.017 1.025-.142.064-.184.111-.39.111-.625.001-.358-.091-.669-.228-.887z" fill="#96643B"/><path d="M18.589 5.472c0 .314.139.568.311.568s.311-.254.311-.568c0-.258-.096-.467-.225-.536l-.382.399-.015.137z" fill="#2B3332"/><path d="M17.035.024h-1.035v6.976h.562c.28 0 .547-.114.741-.316l3.435-3.587c-.14-.618-.452-1.464-1.182-2.136-.731-.674-1.756-.881-2.521-.937zM18.159 18.121c-.248-1.513-2.159-1.056-2.159-1.056v3.37c.087 0 .174-.023.252-.069.601-.351 2.061-1.31 1.907-2.245z" fill="#5C6664"/><path d="M13.841 18.121l-.009.157.001.034.021.152.006.025.043.138.01.027.071.15.018.032.089.144.005.007.111.146.026.032.122.139.018.019.123.123.026.025.141.128.03.026.139.115.012.01.15.116.033.025.146.106.016.011.132.091.027.018.132.086.025.016.111.069.016.01.108.065.01.006c.078.045.164.068.251.068v-3.37c-.001-.002-1.912-.459-2.16 1.054z" fill="#687271"/></g></svg>