<svg xmlns="http://www.w3.org/2000/svg" width="32" height="32" viewBox="0 0 32 32"><g><path d="M5.862 14.389c-1.768 1.906-.683 8.933 2.049 8.715 2.732-.218 8.089-2.119 8.089-2.119v-2.783s-8.371-5.719-10.138-3.813z" fill="#FFF3D9"/><path d="M16 9v21s-6.181-.057-7.699-7.25c-1.301-6.167 5.593-10.75 5.593-14.75l2.106 1z" fill="#B0D3EA"/><path d="M26.138 14.389c-1.767-1.906-10.138 3.813-10.138 3.813v2.783s5.357 1.901 8.089 2.119c2.732.218 3.817-6.809 2.049-8.715z" fill="#FDEBBB"/><path d="M16 9v21s6.181-.057 7.699-7.25c1.301-6.167-5.593-10.75-5.593-14.75l-2.106 1z" fill="#9FC9E4"/><path d="M16 13.186h-2c-.361.599-.75 1.204-1.144 1.818-1.168 1.819-2.254 2.925-2.505 4.754 1.777-.485 3.672-.758 5.649-.758v-5.814z" fill="#FDEBBB"/><path d="M21.649 19.759c-.251-1.829-1.337-2.935-2.505-4.754-.394-.614-.783-1.22-1.144-1.818h-2v5.813c1.977 0 3.872.273 5.649.759zM10.437 22.094c.157.557.362 1.042.586 1.493 1.581-.375 3.248-.587 4.977-.587v-4c-1.977 0-3.872.273-5.649.759-.091.662-.08 1.413.086 2.335z" fill="#FAE09F"/><path d="M16 23c1.729 0 3.396.212 4.977.587.224-.451.428-.936.586-1.493.166-.922.178-1.673.087-2.335-1.778-.486-3.673-.759-5.65-.759v4zM11.023 23.587c1.216 2.453 3.288 3.413 4.977 3.413v-4c-1.729 0-3.396.212-4.977.587z" fill="#F7D684"/><path d="M16 27c1.689 0 3.761-.96 4.977-3.413-1.581-.375-3.248-.587-4.977-.587v4z" fill="#F0C877"/><path d="M18 30.062v-4.562c0-1.105-.895-2-2-2v8.562c1.105 0 2-.895 2-2zM18 30.062v-4.562c0-1.105-.895-2-2-2v8.562c1.105 0 2-.895 2-2z" fill="#B0D3EA"/><path d="M14 25.5v4.562c0 1.105.895 2 2 2v-8.562c-1.105 0-2 .895-2 2z" fill="#C1DDEE"/><path d="M25.4 15.8s-.553-.304-1.354-.799c-.81-.483-1.852-1.176-2.881-1.888-.51-.361-1.027-.714-1.496-1.065-.469-.351-.92-.661-1.284-.957-.354-.309-.611-.618-.767-.866-.158-.244-.218-.425-.218-.425-.211-.639.136-1.328.775-1.539.14-.046.286-.065.425-.061 0 0 .19.007.469.091.282.08.65.24 1.046.494.386.266.81.613 1.278.965.469.352.952.749 1.441 1.138.971.788 1.929 1.595 2.619 2.237.7.629 1.147 1.075 1.147 1.075.395.394.396 1.033.002 1.428-.325.326-.818.383-1.202.172zM25.4 15.8s-.553-.304-1.354-.799c-.81-.483-1.852-1.176-2.881-1.888-.51-.361-1.027-.714-1.496-1.065-.469-.351-.92-.661-1.284-.957-.354-.309-.611-.618-.767-.866-.158-.244-.218-.425-.218-.425-.211-.639.136-1.328.775-1.539.14-.046.286-.065.425-.061 0 0 .19.007.469.091.282.08.65.24 1.046.494.386.266.81.613 1.278.965.469.352.952.749 1.441 1.138.971.788 1.929 1.595 2.619 2.237.7.629 1.147 1.075 1.147 1.075.395.394.396 1.033.002 1.428-.325.326-.818.383-1.202.172zM26.6 1.8s-.447.446-1.146 1.076c-.69.642-1.648 1.449-2.619 2.237-.49.389-.973.786-1.441 1.138-.468.352-.892.699-1.278.965-.396.254-.764.413-1.046.494-.28.083-.47.09-.47.09-.673.024-1.237-.502-1.261-1.175-.005-.147.018-.293.061-.425 0 0 .06-.181.219-.425.156-.248.412-.557.767-.866.364-.296.815-.606 1.284-.957.469-.351.986-.704 1.496-1.065 1.029-.712 2.071-1.405 2.881-1.888.8-.495 1.353-.799 1.353-.799.489-.269 1.103-.091 1.372.398.222.403.138.892-.172 1.202zM26.6 1.8s-.447.446-1.146 1.076c-.69.642-1.648 1.449-2.619 2.237-.49.389-.973.786-1.441 1.138-.468.352-.892.699-1.278.965-.396.254-.764.413-1.046.494-.28.083-.47.09-.47.09-.673.024-1.237-.502-1.261-1.175-.005-.147.018-.293.061-.425 0 0 .06-.181.219-.425.156-.248.412-.557.767-.866.364-.296.815-.606 1.284-.957.469-.351.986-.704 1.496-1.065 1.029-.712 2.071-1.405 2.881-1.888.8-.495 1.353-.799 1.353-.799.489-.269 1.103-.091 1.372.398.222.403.138.892-.172 1.202zM17 6l12 1c.552.046.963.531.917 1.083-.042.496-.437.877-.917.917l-12 1c-1.105.092-2.075-.729-2.167-1.833-.092-1.105.729-2.075 1.834-2.167h.333zM17 6l12 1c.552.046.963.531.917 1.083-.042.496-.437.877-.917.917l-12 1c-1.105.092-2.075-.729-2.167-1.833-.092-1.105.729-2.075 1.834-2.167h.333z" fill="#9FC9E4"/><path d="M5.4 14.2s.447-.446 1.146-1.076c.69-.642 1.648-1.449 2.619-2.237.49-.389.973-.786 1.441-1.138.468-.352.892-.699 1.278-.965.396-.254.764-.413 1.046-.494.28-.083.47-.09.47-.09.673-.024 1.237.502 1.261 1.175.005.147-.018.293-.061.425 0 0-.06.181-.219.425-.156.248-.412.557-.767.866-.364.296-.815.606-1.284.957-.469.351-.986.704-1.496 1.065-1.029.712-2.071 1.405-2.881 1.888-.8.495-1.353.799-1.353.799-.489.269-1.103.091-1.372-.398-.222-.403-.138-.892.172-1.202zM5.4 14.2s.447-.446 1.146-1.076c.69-.642 1.648-1.449 2.619-2.237.49-.389.973-.786 1.441-1.138.468-.352.892-.699 1.278-.965.396-.254.764-.413 1.046-.494.28-.083.47-.09.47-.09.673-.024 1.237.502 1.261 1.175.005.147-.018.293-.061.425 0 0-.06.181-.219.425-.156.248-.412.557-.767.866-.364.296-.815.606-1.284.957-.469.351-.986.704-1.496 1.065-1.029.712-2.071 1.405-2.881 1.888-.8.495-1.353.799-1.353.799-.489.269-1.103.091-1.372-.398-.222-.403-.138-.892.172-1.202zM6.6.2s.553.304 1.354.799c.81.483 1.852 1.176 2.881 1.888.51.361 1.027.714 1.496 1.065.469.351.92.661 1.284.957.354.309.611.618.767.866.158.244.218.425.218.425.211.639-.136 1.328-.775 1.539-.139.046-.286.065-.425.061 0 0-.19-.007-.469-.091-.282-.08-.65-.24-1.046-.494-.386-.266-.81-.613-1.278-.965-.469-.352-.952-.749-1.441-1.138-.972-.788-1.929-1.595-2.62-2.236-.699-.63-1.146-1.076-1.146-1.076-.395-.394-.396-1.033-.002-1.428.325-.326.818-.383 1.202-.172zM6.6.2s.553.304 1.354.799c.81.483 1.852 1.176 2.881 1.888.51.361 1.027.714 1.496 1.065.469.351.92.661 1.284.957.354.309.611.618.767.866.158.244.218.425.218.425.211.639-.136 1.328-.775 1.539-.139.046-.286.065-.425.061 0 0-.19-.007-.469-.091-.282-.08-.65-.24-1.046-.494-.386-.266-.81-.613-1.278-.965-.469-.352-.952-.749-1.441-1.138-.972-.788-1.929-1.595-2.62-2.236-.699-.63-1.146-1.076-1.146-1.076-.395-.394-.396-1.033-.002-1.428.325-.326.818-.383 1.202-.172zM15 10l-12-1c-.552-.046-.963-.531-.917-1.083.042-.496.437-.877.917-.917l12-1c1.105-.092 2.075.729 2.167 1.833.092 1.105-.729 2.075-1.833 2.167h-.334zM15 10l-12-1c-.552-.046-.963-.531-.917-1.083.042-.496.437-.877.917-.917l12-1c1.105-.092 2.075.729 2.167 1.833.092 1.105-.729 2.075-1.833 2.167h-.334z" fill="#B0D3EA"/><path d="M9 7c0 3.866 3.134 7 7 7v-14c-3.866 0-7 3.134-7 7z" fill="#C1DDEE"/><path d="M23 7c0-3.866-3.134-7-7-7v14c3.866 0 7-3.134 7-7z" fill="#B0D3EA"/><path d="M13 13c0 1.654 1.346 3 3 3v-6c-1.654 0-3 1.346-3 3z" fill="#373F3F"/><path d="M13 13c0-1.654 1.346-3 3-3v-2c-2.761 0-5 2.239-5 5s2.239 5 5 5v-2c-1.654 0-3-1.346-3-3z" fill="#D2E6F3"/><path d="M19 13c0-1.654-1.346-3-3-3v6c1.654 0 3-1.346 3-3z" fill="#2B3332"/><path d="M21 13c0-2.761-2.239-5-5-5v2c1.654 0 3 1.346 3 3s-1.346 3-3 3v2c2.761 0 5-2.239 5-5z" fill="#C1DDEE"/><path d="M11.875 7.062c0-.846.539-1.531 1.203-1.531.205 0 .395.071.564.187.22.348.358.791.358 1.282 0 .6-.202 1.131-.515 1.498-.128.059-.263.096-.407.096-.664 0-1.203-.686-1.203-1.532z" fill="#FF6B8B"/><path d="M12.5 5c.46 0 .867.283 1.142.718-.169-.115-.359-.187-.564-.187-.664 0-1.203.686-1.203 1.531 0 .846.539 1.531 1.203 1.531.143 0 .279-.037.407-.096-.264.31-.606.503-.985.503-.828 0-1.5-.895-1.5-2s.672-2 1.5-2z" fill="#fff"/><ellipse cx="12.922" cy="7.078" rx=".328" ry=".641" fill="#373F3F"/><path d="M20.125 7.062c0-.846-.539-1.531-1.203-1.531-.205 0-.395.071-.564.187-.22.348-.358.791-.358 1.282 0 .6.202 1.131.515 1.498.128.059.263.096.407.096.664 0 1.203-.686 1.203-1.532z" fill="#FF5F7E"/><path d="M19.5 5c-.46 0-.867.283-1.142.718.169-.115.359-.187.564-.187.664 0 1.203.686 1.203 1.531 0 .846-.539 1.531-1.203 1.531-.143 0-.279-.037-.407-.096.264.31.606.503.985.503.828 0 1.5-.895 1.5-2s-.672-2-1.5-2z" fill="#F7F7F7"/><ellipse cx="19.078" cy="7.078" rx=".328" ry=".641" fill="#2B3332"/></g></svg>