<svg xmlns="http://www.w3.org/2000/svg" width="32" height="32" viewBox="0 0 32 32"><g><path d="M12.043 21.424c-1.396-.411-2.704-1.026-3.882-1.823.741 3.65 3.969 6.399 7.839 6.399v-1c-2.064 0-3.743-1.569-3.957-3.576z" fill="#E3E5E5"/><path d="M12.043 21.424c.214 2.007 1.893 3.576 3.957 3.576v-3c-1.376 0-2.701-.207-3.957-.576z" fill="#FF6B8B"/><path d="M16 25v1c3.87 0 7.098-2.749 7.839-6.4-1.178.797-2.486 1.412-3.882 1.823-.214 2.008-1.893 3.577-3.957 3.577z" fill="#DADDDC"/><path d="M16 25c2.064 0 3.743-1.569 3.957-3.576-1.256.369-2.581.576-3.957.576v3z" fill="#FF5F7E"/><path d="M12 21c0-2.209 1.791-4 4-4v-7c-4.418 0-8 3.582-8 8 0 .548.056 1.083.161 1.6 1.178.797 2.486 1.412 3.882 1.823l-.043-.423z" fill="#EDEEEE"/><path d="M12 21l.043.424c1.256.369 2.581.576 3.957.576v-5c-2.209 0-4 1.791-4 4z" fill="#FF7899"/><path d="M16 10v7c2.209 0 4 1.791 4 4l-.043.424c1.396-.411 2.704-1.026 3.882-1.823.105-.518.161-1.053.161-1.601 0-4.418-3.582-8-8-8z" fill="#E3E5E5"/><path d="M19.957 21.424l.043-.424c0-2.209-1.791-4-4-4v5c1.376 0 2.701-.207 3.957-.576z" fill="#FF6B8B"/><path fill="#FAC7AF" d="M23.134 14.502l1.73-1.003 2.5 4.313-1.73 1.003z"/><path d="M10.012 29.8l-2.912-3.883c-.127-.17-.134-.401-.016-.577l1.919-2.878c.153-.23.464-.292.693-.139l.832.555c.23.153.292.464.139.693l-1.134 1.701c-.118.176-.111.408.016.577l2.063 2.751c.166.221.121.534-.1.7l-.8.6c-.22.166-.534.121-.7-.1zM4.635 17.81l2.499-4.313 1.73 1.003-2.499 4.313z" fill="#FCD2BE"/><circle cx="8" cy="14" r="2.5" fill="#FF7899"/><path d="M20 11.531c0-1.398 1.133-2.531 2.531-2.531l.021.002-.08-.129c-.435-.581-.804-1.213-.896-1.914-.697-5.32-5.576-4.954-5.576-4.954v12.995c2.535 0 4.151-.595 5.184-1.334-.71-.448-1.184-1.234-1.184-2.135z" fill="#FCD2BE"/><path d="M23 10.856c0-.896-.203-1.471-.449-1.854l-.02-.002c-1.398 0-2.531 1.133-2.531 2.531 0 .901.474 1.687 1.184 2.135 1.694-1.211 1.816-2.81 1.816-2.81z" fill="#F8A1C4"/><path d="M12 11.531c0-1.398-1.133-2.531-2.531-2.531l-.02.002.079-.129c.435-.581.804-1.213.896-1.914.697-5.32 5.576-4.954 5.576-4.954v12.995c-2.535 0-4.151-.595-5.184-1.334.71-.448 1.184-1.234 1.184-2.135z" fill="#FCDDCF"/><path d="M9 10.856c0-.896.203-1.471.449-1.854l.02-.002c1.398 0 2.531 1.133 2.531 2.531 0 .901-.474 1.687-1.184 2.135-1.694-1.211-1.816-2.81-1.816-2.81z" fill="#F9ADC8"/><circle cx="18.5" cy="8.5" r="1.5" fill="#F7F7F7"/><circle cx="18.5" cy="8.5" r=".5" fill="#2B3332"/><circle cx="13.5" cy="8.5" r="1.5" fill="#fff"/><circle cx="13.5" cy="8.5" r=".5" fill="#373F3F"/><path d="M19.026 2.932l4.829-2.68c.443-.246.991-.316 1.5-.191l3.318 1.195c.456.111.428.665-.038.744l-2.354.165 1.662 1.534c.317.268.03.722-.41.647l-3.066-.647.883 1.796c.118.3-.219.585-.574.485l-3.03-.747-.384.735s-2.648-.423-2.336-3.036z" fill="#6673AA"/><path d="M12.974 2.932l-4.829-2.68c-.443-.246-.991-.316-1.5-.191l-3.318 1.195c-.456.111-.428.665.038.744l2.354.165-1.663 1.534c-.317.268-.03.722.41.647l3.066-.647-.883 1.796c-.118.299.22.585.574.485l3.03-.747.384.735c.001 0 2.649-.423 2.337-3.036z" fill="#707EB7"/><circle cx="10" cy="23" r="2" fill="#FF6B8B"/><path d="M9.938 28.614c.938 0 2.062-1.422 2.062.95 0 2.436-.031 2.436-.588 2.436h-5.974s-3.438.062-3.438-2.051c0-1.647.623-2.534 1.684-2.889.428-.143.804.288.622.713-.323.752.143 1.262.694 1.262.75 0 2.031-.337 2.938-.721.906-.385 1.062.3 2 .3z" fill="#6673AA"/><circle cx="24" cy="14" r="2.5" fill="#FF6B8B"/><path d="M13.182 11.828c-.095-.098-.253-.104-.353-.009s-.105.252-.011.352c.042.044 1.037 1.079 3.183 1.079v-.5c-1.917 0-2.811-.913-2.819-.922z" fill="#373F3F"/><path d="M19.171 11.819c-.101-.095-.257-.089-.353.009-.008.009-.902.922-2.818.922v.5c2.146 0 3.141-1.035 3.183-1.079.093-.1.088-.257-.012-.352z" fill="#2B3332"/><path d="M30.89 19.058c.07-.173.11-.36.11-.558 0-.828-.672-1.5-1.5-1.5-.198 0-.385.04-.558.11-.172-.638-.749-1.11-1.442-1.11s-1.27.472-1.442 1.11c-.173-.07-.36-.11-.558-.11-.828 0-1.5.672-1.5 1.5 0 .198.04.385.11.558-.638.172-1.11.749-1.11 1.442 0 .828.672 1.5 1.5 1.5.312 0 .602-.096.842-.259.432.749 1.231 1.259 2.158 1.259s1.726-.51 2.158-1.259c.24.163.53.259.842.259.828 0 1.5-.672 1.5-1.5 0-.693-.472-1.27-1.11-1.442z" fill="#EDEEEE"/><path d="M7.89 19.058c.07-.173.11-.36.11-.558 0-.828-.672-1.5-1.5-1.5-.198 0-.385.04-.558.11-.172-.638-.749-1.11-1.442-1.11s-1.27.472-1.442 1.11c-.173-.07-.36-.11-.558-.11-.828 0-1.5.672-1.5 1.5 0 .198.04.385.11.558-.638.172-1.11.749-1.11 1.442 0 .828.672 1.5 1.5 1.5.312 0 .602-.096.842-.259.432.749 1.231 1.259 2.158 1.259s1.726-.51 2.158-1.259c.24.163.53.259.842.259.828 0 1.5-.672 1.5-1.5 0-.693-.472-1.27-1.11-1.442z" fill="#F7F7F7"/><circle cx="27.5" cy="17.5" r=".5" fill="#FF5F7E"/><circle cx="30.5" cy="20.5" r=".5" fill="#FF5F7E"/><circle cx="25.5" cy="18.5" r=".5" fill="#FF5F7E"/><circle cx="24.5" cy="20.5" r=".5" fill="#FF5F7E"/><circle cx="29.5" cy="18.5" r=".5" fill="#FF5F7E"/><circle cx="27.5" cy="17.5" r=".5" fill="#FF5F7E"/><circle cx="30.5" cy="20.5" r=".5" fill="#FF5F7E"/><circle cx="25.5" cy="18.5" r=".5" fill="#FF5F7E"/><circle cx="24.5" cy="20.5" r=".5" fill="#FF5F7E"/><circle cx="29.5" cy="18.5" r=".5" fill="#FF5F7E"/><circle cx="4.5" cy="17.5" r=".5" fill="#FF6B8B"/><circle cx="1.5" cy="20.5" r=".5" fill="#FF6B8B"/><circle cx="6.5" cy="18.5" r=".5" fill="#FF6B8B"/><circle cx="7.5" cy="20.5" r=".5" fill="#FF6B8B"/><circle cx="2.5" cy="18.5" r=".5" fill="#FF6B8B"/><circle cx="4.5" cy="17.5" r=".5" fill="#FF6B8B"/><circle cx="1.5" cy="20.5" r=".5" fill="#FF6B8B"/><circle cx="6.5" cy="18.5" r=".5" fill="#FF6B8B"/><circle cx="7.5" cy="20.5" r=".5" fill="#FF6B8B"/><circle cx="2.5" cy="18.5" r=".5" fill="#FF6B8B"/><path d="M21.988 29.8l2.912-3.883c.127-.17.134-.401.016-.577l-1.919-2.878c-.153-.23-.464-.292-.693-.139l-.832.555c-.23.153-.292.464-.139.693l1.134 1.701c.118.176.111.408-.016.577l-2.063 2.751c-.166.221-.121.534.1.7l.8.6c.22.166.534.121.7-.1z" fill="#FAC7AF"/><circle cx="22" cy="23" r="2" fill="#FF5F7E"/><path d="M22.062 28.614c-.938 0-2.062-1.422-2.062.95 0 2.436.031 2.436.588 2.436h5.974s3.438.062 3.438-2.051c0-1.647-.623-2.534-1.684-2.889-.428-.143-.804.288-.622.713.323.753-.144 1.263-.694 1.263-.75 0-2.031-.337-2.938-.721-.906-.386-1.062.299-2 .299z" fill="#5C699E"/></g></svg>