<svg xmlns="http://www.w3.org/2000/svg" width="32" height="32" viewBox="0 0 32 32"><g><path d="M32 .234l-1.888 6.439c-.062.212-.193.397-.372.527l-10.724 7.8 1.499-4.998 6.382-6.905 5.103-2.863z" fill="#FAE09F"/><path d="M19.508 12.802s.586-.915 1.567-2.264c.973-1.345 2.341-3.092 3.836-4.722.741-.822 1.528-1.597 2.293-2.291.372-.363.774-.653 1.134-.962.361-.309.739-.539 1.07-.786.328-.255.669-.407.952-.586.283-.18.544-.301.765-.388l.686-.298.034-.015c.13-.056.189-.207.133-.337-.053-.123-.193-.183-.318-.14l-.75.258c-.244.075-.531.184-.84.348-.308.162-.688.302-1.046.538-.362.228-.781.445-1.177.733-.395.289-.84.564-1.25.906-.845.655-1.716 1.392-2.539 2.175-1.661 1.554-3.195 3.231-4.297 4.531-1.101 1.291-1.798 2.215-1.798 2.215l-.005.006c-.314.416-.232 1.009.185 1.323.416.314 1.009.232 1.323-.185l.042-.059z" fill="#AADB3D"/><path d="M.016.234l1.888 6.439c.062.212.193.397.372.527l10.724 7.8-1.499-4.998-6.382-6.906-5.103-2.862z" fill="#FDEBBB"/><path d="M12.492 12.802s-.586-.915-1.567-2.264c-.973-1.344-2.342-3.092-3.837-4.722-.741-.821-1.527-1.597-2.293-2.29-.372-.363-.774-.654-1.134-.963-.361-.309-.739-.539-1.07-.786-.327-.255-.669-.407-.951-.586-.284-.18-.545-.301-.765-.388l-.686-.298-.035-.014c-.13-.056-.189-.207-.133-.337.053-.123.193-.183.318-.14l.75.258c.244.075.532.184.841.348.308.162.688.302 1.046.538.362.228.781.445 1.177.733.395.289.84.564 1.25.906.845.655 1.716 1.392 2.539 2.175 1.661 1.554 3.195 3.231 4.297 4.531 1.101 1.291 1.798 2.215 1.798 2.215l.005.006c.314.416.232 1.009-.185 1.323-.416.314-1.009.232-1.323-.185l-.042-.06z" fill="#B1E346"/><path fill="#FAE09F" d="M20 23h2v7h-2zM20 23h2v7h-2z"/><ellipse transform="matrix(.24 -.971 .971 .24 -7.74 38.114)" cx="20.468" cy="24" rx="3" ry="2.5" fill="#9ACC2E"/><path d="M26.638 31.276l-.564-1.127c-.048-.097-.127-.175-.224-.224l-3.627-1.814c-.141-.07-.306-.07-.447 0l-1.5.75c-.169.085-.276.259-.276.448v1.484c0 .133.053.26.146.354l.707.707c.094.093.221.146.354.146h4.984c.372 0 .613-.391.447-.724z" fill="#93C427"/><path fill="#FDEBBB" d="M10 23h2v7h-2zM10 23h2v7h-2z"/><ellipse transform="matrix(.971 -.24 .24 .971 -5.419 3.466)" cx="11.532" cy="24" rx="2.5" ry="3" fill="#A2D336"/><path d="M5.362 31.276l.564-1.127c.048-.097.127-.175.224-.224l3.627-1.814c.141-.07.306-.07.447 0l1.5.75c.169.085.276.259.276.448v1.484c0 .133-.053.26-.146.354l-.707.707c-.094.093-.221.146-.354.146h-4.984c-.372 0-.613-.391-.447-.724zM16 26c1.08 0 2.097-.282 2.992-.773.208-.493.341-1.017.341-1.56 0-.224-.014-.426-.029-.627-.968.605-2.095.96-3.304.96v2z" fill="#9ACC2E"/><path d="M16 19.417v4.583c1.209 0 2.336-.355 3.305-.961-.29-3.99-3.305-3.622-3.305-3.622zM16 24c-1.209 0-2.336-.355-3.305-.961-.015.201-.029.403-.029.627 0 .543.133 1.067.341 1.56.896.492 1.913.774 2.993.774v-2z" fill="#A2D336"/><path d="M16 19.417s-3.015-.367-3.305 3.623c.969.605 2.096.96 3.305.96v-4.583z" fill="#AADB3D"/><path d="M19 14l5.786-5.786c.14-.14.317-.235.511-.273l3.643-.729c.418-.084.742.361.535.733l-4.241 7.633c-.148.266-.409.451-.71.501l-5.524.921v-3z" fill="#FDEBBB"/><path d="M16 14.494v7.506s4 0 4-3 .167-3.5-1-5c-.614-.789-3 .494-3 .494z" fill="#9ACC2E"/><path fill="#FAE09F" d="M20.657 16.037l1.685-1.078 2.5 3.907-1.685 1.078zM20.657 16.037l1.685-1.078 2.5 3.907-1.685 1.078z"/><circle cx="21.5" cy="15.5" r="2.5" fill="#AADB3D"/><path d="M9 20l-.615 1.23c-.166.333-.622.377-.844.079-.476-.641-1.323-1.599-2.541-2.309-.938-.547-2.064-.314-2.633-.135-.213.067-.433-.021-.561-.205-.204-.293-.611-.651-1.165-.86-.359-.135-.461-.496-.429-.841l1.657-4.688 7.131 7.729z" fill="#F7F7F7"/><path d="M13 14l-5.786-5.786c-.14-.14-.317-.235-.511-.273l-3.643-.729c-.418-.084-.742.361-.535.733l4.241 7.633c.148.266.409.451.71.501l5.524.921v-3z" fill="#FFF3D9"/><path d="M16 14.494v7.506s-4 0-4-3-.167-3.5 1-5c.614-.789 3 .494 3 .494z" fill="#A2D336"/><path fill="#FDEBBB" d="M7.159 18.869l2.501-3.907 1.685 1.078-2.501 3.907zM7.159 18.869l2.501-3.907 1.685 1.078-2.501 3.907z"/><circle cx="10.5" cy="15.5" r="2.5" fill="#B1E346"/><path d="M21.876 10.828l-1.978-2.758c-.041-.057-.105-.095-.175-.103l-3.695-.422h-.028v9.393l.15-.05 3.75-2.812c.063-.047.1-.121.1-.2v-.771c0-.066.026-.13.073-.177l1.777-1.777c.086-.088.098-.224.026-.323z" fill="#A2D336"/><path d="M15.972 7.545l-2.606.297-1.089.124c-.07.008-.134.045-.175.103l-.719 1.002-1.26 1.757c-.071.099-.06.236.026.322l1.777 1.777.074.073v.875c0 .079.037.153.1.2l3.75 2.812.15.05v-9.392h-.028z" fill="#AADB3D"/><path d="M13 10v1.691c0 .189.107.363.276.447l1.724.862-2-3z" fill="#fff"/><path fill="#373F3F" d="M13.534 10.8v1.075l.272.528 1.194.597z"/><path d="M19 10v1.691c0 .189-.107.363-.276.447l-1.724.862 2-3z" fill="#F7F7F7"/><path fill="#2B3332" d="M18.466 10.8v1.075l-.272.528-1.194.597z"/><path d="M8.988 19.703l-6.33-8.341c-.101-.133-.243-.238-.415-.292-.44-.138-.908.106-1.046.546v.001l-.639 3.119-.305 1.562-.143.784c-.042.259.092.307.203.064l.344-.714.706-1.42.822-1.616 6.077 6.9c.161.182.439.213.636.064.206-.156.247-.45.09-.657z" fill="#B1E346"/><path d="M20.868 5.658l-2.868.342-1.584-2.376c-.099-.148-.257-.223-.416-.223v10.688c.159 0 .318-.075.417-.224l4.927-7.435c.236-.355-.053-.823-.476-.772z" fill="#AADB3D"/><path d="M15.584 3.624l-1.584 2.376-2.868-.342c-.423-.051-.711.417-.476.773l4.927 7.435c.099.149.258.224.417.224v-10.689c-.159 0-.317.075-.416.223z" fill="#B1E346"/><path d="M13.008 25.227c.551 1.304 1.652 2.385 2.353 2.981.184.156.411.234.639.234v-2.442c-1.08 0-2.097-.282-2.992-.773z" fill="#9ACC2E"/><path d="M17.78 27.081l.184-.22c.139-.169.273-.35.403-.536l.167-.245c.172-.272.333-.554.459-.853-.896.491-1.913.773-2.993.773v2.442c.224 0 .447-.077.629-.229l.039-.033c.162-.138.343-.301.533-.486l.097-.1c.159-.156.32-.329.482-.513z" fill="#93C427"/><path d="M15 17c-.552 0-1 .448-1 1v1.793c0 .133.053.26.146.354l1.5 1.5c.098.098.226.146.354.146v-4.793h-1z" fill="#FDEBBB"/><path d="M17 17h-1v4.793c.128 0 .256-.049.354-.146l1.5-1.5c.093-.094.146-.221.146-.354v-1.793c0-.552-.448-1-1-1z" fill="#FAE09F"/><path d="M23.005 20l.615 1.23c.166.333.622.377.844.079.476-.64 1.323-1.598 2.541-2.308.938-.547 2.064-.314 2.633-.135.213.067.433-.021.561-.205.204-.293.611-.651 1.165-.86.359-.135.461-.496.429-.841l-1.657-4.688-7.131 7.728z" fill="#EDEEEE"/><path d="M23.017 19.703l6.33-8.341c.101-.133.243-.238.415-.292.44-.138.908.106 1.046.546v.001l.639 3.119.305 1.562.144.784c.042.259-.092.307-.203.064l-.344-.714-.706-1.42-.822-1.616-6.077 6.9c-.161.182-.439.213-.636.064-.207-.156-.248-.45-.091-.657z" fill="#AADB3D"/></g></svg>