<svg xmlns="http://www.w3.org/2000/svg" width="32" height="32" viewBox="0 0 32 32"><g><path d="M21.473 23l7.549.172c1.061.024 1.359 1.466.394 1.909l-3.671 1.684-4.272-3.765z" fill="#B93D4F"/><path d="M16 32h13.419c3.15 0 4.387-2.479-2.016-6.545-5-3.175-5.859-7.455-5.859-7.455h-5.544v14z" fill="#C84054"/><path d="M16 18v14h9.25s4.188-.656-2.75-5.927c-3.973-3.018-3-8.073-3-8.073h-3.5z" fill="#D84459"/><path d="M10.527 23l-7.549.172c-1.061.024-1.359 1.466-.394 1.909l3.671 1.684 4.272-3.765z" fill="#C84054"/><path d="M16 32h-13.419c-3.15 0-4.387-2.479 2.016-6.545 5-3.175 5.859-7.455 5.859-7.455h5.544v14z" fill="#D84459"/><path d="M16 18v14h-9.25s-4.188-.656 2.75-5.927c3.973-3.018 3-8.073 3-8.073h3.5z" fill="#E85160"/><path d="M14.167 13.703c.563.325 1.202.486 1.841.485v-.691l-.033-.002-.079-.006c-1.009-.056-2.896-.66-2.896-1.864 0-1.225 1.649-1.625 2.217-1.625.301 0 .57.122.783.266l.008-.004v-9.217h-.008c-3.866 0-7 3.582-7 8 0 1.532.384 2.959 1.037 4.175.466-.13.951-.22 1.463-.22.983 0 1.897.258 2.667.703z" fill="#A366AD"/><path d="M14.167 13.703c-.77-.445-1.684-.703-2.667-.703-.512 0-.997.09-1.463.219-2.04.567-3.537 2.261-3.537 4.281 0 2.481 2.243 4.5 5 4.5.983 0 1.897-.258 2.667-.703.563-.325 1.202-.486 1.841-.485v-6.625c-.639.002-1.278-.159-1.841-.484z" fill="#FFD96C"/><path d="M15.632 11.264c-.176-.182-.339-.264-.423-.264-.391 0-1.217.296-1.217.625 0 .271.984.812 1.952.866l.048.005.008-.001v-1.086c-.135.002-.272-.045-.368-.145z" fill="#373F3F"/><path d="M16 10.266c-.213-.144-.482-.266-.783-.266-.568 0-2.217.4-2.217 1.625 0 1.204 1.887 1.808 2.896 1.864l.079.006.033.002v-1.001l-.008.001-.048-.005c-.968-.055-1.952-.596-1.952-.867 0-.329.827-.625 1.217-.625.083 0 .247.082.423.264.096.1.232.147.368.145v-1.1480000000000001l-.008.005z" fill="#F9ADC8"/><path d="M16.775 10c.568 0 2.217.4 2.217 1.625 0 1.163-1.762 1.767-2.792 1.856l-.133.019-.068-.004v.691c.634-.001 1.267-.163 1.825-.485.771-.444 1.685-.702 2.668-.702.512 0 .997.09 1.463.219.654-1.216 1.037-2.643 1.037-4.175 0-4.415-3.13-7.995-6.992-8v9.217c.212-.141.477-.261.775-.261z" fill="#945BA0"/><path d="M21.955 13.219c-.466-.129-.951-.219-1.463-.219-.983 0-1.897.258-2.667.703-.558.322-1.192.483-1.825.485v6.625c.634.001 1.267.163 1.825.485.77.444 1.684.702 2.667.702 2.757 0 5-2.019 5-4.5 0-2.02-1.497-3.714-3.537-4.281z" fill="#FFD04D"/><path d="M17.992 11.625c0-.329-.827-.625-1.217-.625-.083 0-.247.082-.423.264-.092.096-.222.143-.352.145v1.086l.04-.004c.968-.054 1.952-.595 1.952-.866z" fill="#2B3332"/><path d="M16.775 10c-.297 0-.563.12-.775.261v1.1480000000000001c.13-.002.26-.049.352-.145.176-.182.339-.264.423-.264.391 0 1.217.296 1.217.625 0 .271-.984.812-1.952.866l-.04.004v1.001l.068.004.133-.019c1.03-.09 2.792-.693 2.792-1.856-.001-1.225-1.65-1.625-2.218-1.625z" fill="#F8A1C4"/><ellipse cx="18.25" cy="7.5" rx="1.25" ry="1.5" fill="#F7F7F7"/><circle cx="18.125" cy="7.5" r=".5" fill="#2B3332"/><ellipse cx="13.75" cy="7.5" rx="1.25" ry="1.5" fill="#fff"/><circle cx="13.875" cy="7.5" r=".5" fill="#373F3F"/><ellipse cx="11.5" cy="17.5" rx="3.5" ry="3" fill="#E85160"/><ellipse cx="20.5" cy="17.5" rx="3.5" ry="3" fill="#D84459"/><path d="M13.951 0c-2.817 0-5.602 2.562-6.659 6.875-.362 1.478-.734 2.883-1.078 4.127-.799 2.888.692 5.906 3.508 7.085l.538.225c.712.298 1.48-.284 1.378-1.049-.553-4.142-1.419-14.263 3.338-14.263 1.024 0 1.024.688 1.024.688v-2.917s0-.771-2.049-.771z" fill="#FAE09F"/><path d="M25.786 11.002c-.344-1.244-.716-2.648-1.078-4.127-1.057-4.313-3.842-6.875-6.659-6.875-2.049 0-2.049.771-2.049.771v2.917s0-.688 1.024-.688c4.732 0 3.88 10.126 3.334 14.267-.101.764.667 1.345 1.378 1.047l.541-.227c2.816-1.179 4.307-4.198 3.509-7.085z" fill="#F7D684"/><path d="M6.789 13.527h-1.289v6.999s2.5.125 2.5-2.25-1.211-2.224-1.211-4.749z" fill="#E3E5E5"/><path d="M4.211 13.527h1.289v6.999s-2.5.125-2.5-2.25 1.211-2.224 1.211-4.749zM25.211 13.527h1.289v6.999s-2.5.125-2.5-2.25 1.211-2.224 1.211-4.749z" fill="#DADDDC"/><path d="M27.789 13.527h-1.289v6.999s2.5.125 2.5-2.25-1.211-2.224-1.211-4.749z" fill="#D1D4D4"/><path d="M30.741 9.173c-.367-.349-.962-.302-1.269.099l-.416.544-.081-.178 1.061-1.758c.279-.463.083-1.061-.419-1.276-.502-.215-1.082.051-1.236.567l-.393 1.312-.229-.047.516-2.299c.123-.55-.271-1.082-.842-1.134-.571-.052-1.059.399-1.041.962l.071 2.206-.313-.064-.38-2.018c-.115-.611-.749-.984-1.351-.797-.603.188-.901.852-.637 1.416l1.18 2.518-.483.894-.511-.537c-.467-.491-1.267-.469-1.705.048-.438.516-.316 1.293.259 1.656l1.514.955c.924 2.134 1.863 1.822 3.308 1.592 1.193-.19 1.87-1.725 2.128-2.453l1.211-.958c.398-.315.425-.901.058-1.25z" fill="#A366AD"/><path d="M9.736 9.632c-.438-.516-1.237-.539-1.704-.048l-.511.537-.483-.894 1.18-2.518c.264-.564-.035-1.229-.638-1.416-.602-.188-1.236.185-1.351.796l-.38 2.018-.313.065.071-2.206c.018-.563-.47-1.014-1.041-.962-.57.052-.965.584-.842 1.134l.516 2.299-.228.047-.393-1.312c-.155-.516-.735-.782-1.236-.567-.502.215-.699.813-.42 1.276l1.061 1.758-.081.178-.415-.544c-.307-.402-.902-.448-1.269-.1-.367.349-.34.934.057 1.249l1.211.959c.258.729.935 2.263 2.128 2.453 1.445.23 2.384.542 3.308-1.592l1.514-.955c.576-.362.697-1.139.259-1.655z" fill="#B370B9"/></g></svg>