<svg xmlns="http://www.w3.org/2000/svg" width="32" height="32" viewBox="0 0 32 32"><g><path d="M24.87 30h-1.87v-2.375h-3v2.478l-.382 1.251c-.098.321.142.646.478.646h6.574c.369 0 .618-.391.455-.722-.541-1.101-2.255-1.278-2.255-1.278z" fill="#F7C845"/><path d="M12 30.103v-2.478h-3v2.375h-1.87s-1.714.177-2.255 1.278c-.163.331.086.722.455.722h6.574c.336 0 .576-.325.478-.646l-.382-1.251z" fill="#FFD04D"/><path d="M21.901 22l-4.561 4.201s.798 1.483 1.967 2.575l4.685-1.513c-.04-2.342-2.091-5.263-2.091-5.263z" fill="#F7C845"/><path d="M22.588 29.695c1.068-.512 1.421-1.419 1.404-2.433l-4.685 1.513c.929.869 2.093 1.49 3.281.92z" fill="#2B3332"/><path d="M14.66 26.201l-4.561-4.201s-2.105 3.002-2.088 5.36l4.604 1.487c1.212-1.098 2.045-2.646 2.045-2.646z" fill="#FFD04D"/><path d="M9.412 29.695c1.155.554 2.287-.019 3.204-.849l-4.605-1.486c.007.973.367 1.84 1.401 2.335z" fill="#373F3F"/><path fill="#FFD04D" d="M23.129 1.399l.472.472-3.771 4.714-1.415-1.415z"/><ellipse transform="matrix(.707 -.707 .707 .707 5.322 16.849)" cx="23" cy="2" rx="1" ry="1" fill="#FFD96C"/><path fill="#FFD96C" d="M8.871 1.399l-.472.472 3.771 4.714 1.415-1.415z"/><ellipse transform="matrix(.707 -.707 .707 .707 1.222 6.95)" cx="9" cy="2" rx="1" ry="1" fill="#FFE28A"/><path d="M28.215 16.559l-6.3-3.84-1.562 2.562 5.416 3.301c.191.116.337.293.416.503l2.244 5.984 2.809-1.054-2.607-6.953c-.079-.209-.225-.386-.416-.503z" fill="#F7C845"/><path d="M11.646 15.281l-1.562-2.562-6.3 3.84c-.191.116-.337.293-.416.503l-2.256 6.017c-.194.517.068 1.093.585 1.287l1.872.702 2.244-5.984c.079-.209.225-.386.416-.503l5.417-3.3z" fill="#FFD04D"/><path fill="#373F3F" d="M2.382 19.695l2.763 1.176.703-1.874-2.763-1.177z"/><path fill="#2B3332" d="M28.915 17.82l-2.763 1.177.703 1.874 2.763-1.176z"/><ellipse transform="matrix(.943 -.333 .333 .943 -6.155 11.18)" cx="29.5" cy="23.527" rx="2.499" ry="2.499" fill="#FFD04D"/><ellipse transform="matrix(.333 -.943 .943 .333 -20.515 18.041)" cx="2.5" cy="23.527" rx="2.499" ry="2.499" fill="#FFD96C"/><path d="M16 9v17.988s11.319.774 8.569-9.889c-1.912-7.417-8.569-8.099-8.569-8.099z" fill="#FFD04D"/><path d="M16 9v17.988s-11.319.774-8.569-9.889c1.912-7.417 8.569-8.099 8.569-8.099z" fill="#FFD96C"/><path d="M13.031 12l-4.462 6.208c-.238.331-.001.792.406.792h6.025l-2.613 3.92c-.303.455.239.997.693.693l2.92-1.946v-9.667h-2.969z" fill="#373F3F"/><path d="M18.833 17l3.08-5h-5.913v9.667l5.626-3.751c.412-.274.217-.916-.277-.916h-2.516z" fill="#2B3332"/><path d="M10 7.5v.011c.001.643-.357 1.231-.948 1.485l-1.417.18c-.816.352-.855 1.703-.062 2.123 1.757.929 5.075 2.275 6.651 3.204.562.331 1.169.497 1.776.497v-13c-3.314 0-6 2.462-6 5.5z" fill="#FFE28A"/><path d="M24.427 11.299c.793-.42.754-1.771-.062-2.123l-1.417-.18c-.591-.255-.949-.843-.948-1.485v-.011c0-3.038-2.686-5.5-6-5.5v13c.607 0 1.214-.166 1.776-.497 1.576-.929 4.893-2.275 6.651-3.204z" fill="#FFD96C"/><path d="M24.932 19.042l-7.815 4.885c-.077.048-.139.116-.18.197l-.298.584c-.214.419.216.874.647.685l7.475-3.287c.226-.862.303-1.873.171-3.064z" fill="#2B3332"/><path d="M13 8.5c0-.166.011-.323.028-.472l-1.028-1.028v2c0 .552.448 1 1 1h.5c-.276 0-.5-.672-.5-1.5zM13.972 8.972c-.066.596-.251 1.028-.472 1.028h1.5l-1.028-1.028z" fill="#fff"/><path d="M13.972 8.972l-.944-.944c-.017.149-.028.306-.028.472 0 .828.224 1.5.5 1.5.221 0 .406-.432.472-1.028z" fill="#373F3F"/><path d="M19 8.5c0-.166-.011-.323-.028-.472l1.028-1.028v2c0 .552-.448 1-1 1h-.5c.276 0 .5-.672.5-1.5zM18.028 8.972c.066.596.251 1.028.472 1.028h-1.5l1.028-1.028z" fill="#F7F7F7"/><path d="M18.028 8.972l.944-.944c.017.149.028.306.028.472 0 .828-.224 1.5-.5 1.5-.221 0-.406-.432-.472-1.028z" fill="#2B3332"/><path d="M15.82 7.369l-2.212-2.293c-.119-.123-.324-.093-.402.059l-.136.265c-.043.083-.036.183.018.259l2.708 3.81c.051.072.13.104.21.102v-2.128c-.068.002-.135-.021-.186-.074z" fill="#373F3F"/><path d="M18.912 5.659c.054-.076.061-.176.018-.259l-.136-.264c-.078-.152-.283-.182-.402-.059l-2.212 2.292c-.048.049-.111.072-.174.074v2.128c.075-.002.149-.034.198-.102l2.708-3.81z" fill="#2B3332"/><path d="M15.762 1.173l-.731 2.264.251.259c.196.203.457.304.718.304v-3c-.1 0-.2.058-.238.173z" fill="#FFD96C"/><path d="M16.719 3.696l.251-.259-.731-2.264c-.038-.115-.139-.173-.239-.173v3c.261 0 .522-.101.719-.304z" fill="#FFD04D"/><path d="M15.455 12.06l-.293-.25c-.103-.089-.262-.078-.352.028-.09.105-.077.263.028.352l.293.25c.244.208.556.312.869.312v-.503c-.198 0-.397-.063-.545-.189z" fill="#373F3F"/><path d="M17.162 12.19c.105-.089.118-.247.028-.352-.09-.105-.248-.117-.352-.028l-.293.25c-.148.126-.346.189-.545.189v.503c.313 0 .625-.104.869-.312l.293-.25z" fill="#2B3332"/></g></svg>