<svg xmlns="http://www.w3.org/2000/svg" width="32" height="32" viewBox="0 0 32 32"><g><path d="M8.67 22.001l-1.678-3.527c-.088-.185-.054-.404.084-.554l.172-.186c.165-.179.436-.213.64-.08l2.618 1.705.509-.967-.411-1.442c-.059-.206.02-.426.196-.548l.201-.139c.184-.127.43-.117.602.025l.951.782-.876 2.439-3.008 2.492z" fill="#D1D4D4"/><ellipse cx="8.322" cy="25.778" rx="1.848" ry="1.619" fill="#D1D4D4"/><path d="M13.395 10.206s-.051 6.864-2.121 9.86c-1.759 2.547-3.46 5.358-3.46 5.358s-.26 1.674-.26 1.972c0 0-2.194-.583-4.502-.112-1.781.365-3.052 1.304-3.052 3.424l4.949.595 9.935-5.023.185-15.075-1.674-.999z" fill="#8EC0E0"/><path d="M16 11.546l-1.935-.707s-.893 14.177-4.763 17.191l-9.302 2.678s3.758 1.935 6.958 1.005c3.2-.93 3.944-1.674 3.944-1.674s1.898 1.711 5.098 1.711v-20.204z" fill="#FDEBBB"/><path d="M12.092 19.843s-2.523 2.605-3.236 5.209c-.635 2.319-3.2 0-1.935-2.009s3.267-5.063 5.634-5.974l-.463 2.774z" fill="#DADDDC"/><path d="M13.113 2.952s-.113-1.952-2.038-1.952-3.603 3.423-2.919 4.757 2.206 2.175 3.418 1.044l1.539-3.849z" fill="#8EC0E0"/><path d="M11.508 6.142l-.042-.003c-.136-.023-.228-.152-.205-.289.101-.594.199-2.216-.541-2.576-.171-.083-.334-.092-.501-.029-.471.178-.854.891-.961 1.15-.052.129-.198.189-.326.136-.128-.053-.188-.199-.136-.326.019-.046.475-1.134 1.244-1.427.297-.114.602-.097.899.047 1.227.597.832 3.007.815 3.109-.021.122-.126.208-.246.208z" fill="#7FB8E0"/><path d="M23.33 22.001l1.678-3.527c.088-.185.054-.404-.084-.554l-.172-.186c-.165-.179-.436-.213-.64-.08l-2.618 1.705-.509-.967.411-1.442c.059-.206-.02-.426-.196-.548l-.201-.139c-.184-.127-.43-.117-.602.025l-.951.782.876 2.439 3.008 2.492z" fill="#C8CCCB"/><ellipse cx="23.678" cy="25.778" rx="1.848" ry="1.619" fill="#C8CCCB"/><path d="M18.605 10.206s.051 6.864 2.121 9.86c1.759 2.547 3.46 5.358 3.46 5.358s.26 1.674.26 1.972c0 0 2.194-.583 4.502-.112 1.781.365 3.052 1.304 3.052 3.424l-4.949.595-9.935-5.023-.185-15.075 1.674-.999z" fill="#7FB8E0"/><path d="M16 11.546l1.935-.707s.893 14.177 4.763 17.191l9.302 2.678s-3.758 1.935-6.958 1.005c-3.2-.93-3.944-1.674-3.944-1.674s-1.898 1.711-5.098 1.711v-20.204z" fill="#FAE09F"/><path d="M19.908 19.843s2.523 2.605 3.236 5.209c.635 2.319 3.2 0 1.935-2.009-1.265-2.009-3.267-5.063-5.634-5.974l.463 2.774z" fill="#D1D4D4"/><path d="M18.887 2.952s.113-1.952 2.038-1.952 3.603 3.423 2.919 4.757c-.684 1.334-2.206 2.175-3.418 1.044l-1.539-3.849z" fill="#7FB8E0"/><path d="M20.574 6.142c-.12 0-.225-.086-.246-.208-.017-.103-.412-2.513.815-3.109.298-.145.6-.161.898-.047.77.293 1.225 1.381 1.244 1.427.053.127-.008.273-.136.326-.124.054-.273-.007-.326-.136-.108-.259-.49-.972-.96-1.151-.166-.062-.33-.053-.501.03-.74.36-.641 1.982-.541 2.576.023.136-.069.265-.205.289l-.042.003z" fill="#71B1E1"/><path d="M10.125 12.542c.336 2.144 1.354 3.049 2.899 4.27 1.546 1.221 2.971 1.154 2.971 1.154v-2.547c-2.189 0-4.211-1.072-5.87-2.877z" fill="#8EC0E0"/><path d="M15.994 15.419v2.547s1.118.067 2.971-1.154c1.645-1.084 2.612-2.078 2.916-4.29-1.662 1.817-3.69 2.897-5.887 2.897z" fill="#7FB8E0"/><path d="M15.994 15.419v-13.429s-2.285-.304-3.502 1.247c-1.229 1.458-2.439 3.612-2.496 7.318-.012.778.04 1.417.129 1.987 1.659 1.805 3.681 2.877 5.869 2.877z" fill="#9FC9E4"/><path d="M19.496 3.237c-1.217-1.551-3.502-1.247-3.502-1.247v13.429c2.197 0 4.225-1.08 5.886-2.897.079-.572.124-1.206.112-1.967-.056-3.705-1.266-5.86-2.496-7.318z" fill="#8EC0E0"/><path d="M19.989 9.196c-.144.107-.283.228-.416.356.313.456.508 1.078.508 1.765 0 .158-.013.312-.033.462.357-.14.603-.328.737-.449.081-.073.135-.169.155-.276.064-.34.164-1.167-.235-1.746-.162-.234-.487-.282-.716-.112z" fill="#F7F7F7"/><path d="M19.573 9.552l-.314.33c.027.15.045.313.045.49 0 .639-.2 1.157-.446 1.157-.164 0-.302-.241-.379-.585l-.152.252c-.184.316.021.716.385.752.553.055.994-.037 1.334-.171.02-.15.033-.304.033-.462.002-.686-.193-1.307-.506-1.763z" fill="#4390BF"/><path d="M18.859 11.53c.246 0 .446-.518.446-1.157 0-.177-.018-.34-.045-.49-.31.352-.574.732-.78 1.063.077.342.215.584.379.584z" fill="#2B3332"/><path d="M12.011 9.196c.144.107.283.228.416.356-.313.456-.508 1.078-.508 1.765 0 .158.013.312.033.462-.357-.14-.603-.328-.737-.449-.081-.073-.135-.169-.155-.276-.064-.34-.164-1.167.235-1.746.162-.234.487-.282.716-.112z" fill="#fff"/><path d="M12.427 9.552l.314.33c-.027.15-.045.313-.045.49 0 .639.2 1.157.446 1.157.164 0 .302-.241.379-.585l.152.252c.184.316-.021.716-.385.752-.553.055-.994-.037-1.334-.171-.02-.15-.033-.304-.033-.462-.002-.686.193-1.307.506-1.763z" fill="#4896C8"/><path d="M13.141 11.53c-.246 0-.446-.518-.446-1.157 0-.177.018-.34.045-.49.31.352.574.732.78 1.063-.077.342-.215.584-.379.584z" fill="#373F3F"/><path d="M15.598 1.186l-.586.729c-.054.067-.089.147-.099.232l-.367 2.827c-.025.195.077.386.259.479l.953.491c.075.038.159.057.242.056v-5c-.15-.002-.301.06-.402.186z" fill="#C1DDEE"/><path d="M17.185 5.453c.182-.093.284-.284.259-.479l-.367-2.827c-.011-.084-.045-.164-.099-.232l-.586-.729c-.1-.123-.246-.184-.392-.186v5c.08-.001.159-.019.232-.057l.953-.49z" fill="#9FC9E4"/></g></svg>