<svg xmlns="http://www.w3.org/2000/svg" width="32" height="32" viewBox="0 0 32 32"><g><path d="M15.999 22.703c-.289-.059-.579-.119-.865-.189-1.436-.352-2.898-.774-4.248-1.381-1.372-.616-2.701-1.508-4.258-1.51-1.677-.002-3.683 1.047-5.448 1.042-.233.243-.44.513-.59.842-.348.762-.533 1.595-.578 2.43-.057 1.047.472 2.171 1.119 2.966 1.777 2.19 4.62.094 6.81.097 1.34.002 2.482.768 3.662 1.298 1.161.522 2.418.884 3.653 1.187l.744.162-.001-6.944z" fill="#D799D6"/><path d="M28.697 21.514c-1.776-.479-3.172-.877-4.96-.127-1.244.521-2.428 1.279-3.779 1.505-1.322.221-2.655.08-3.959-.188v6.945c1.121.23 2.268.351 3.405.162 1.161-.194 2.179-.846 3.249-1.294 1.538-.645 2.738-.302 4.265.11 2.013.542 3.685.098 4.711-1.838.905-1.707.008-3.445-1.173-5.031-.555.003-1.142-.078-1.759-.244z" fill="#D285D2"/><path d="M10.886 21.134c1.351.607 2.812 1.029 4.248 1.381.286.07.576.129.865.189l.001-19.734c-1.18-.046-3.022-.97-4.106-.97-1.226 0-1.779 1.08-2.611 1.798-1.262 1.09-2.991.83-4.426 1.536-.614.302-1.169.757-1.501 1.356-.721 1.302-.232 2.674.107 3.998.488 1.907.994 3.954.688 5.932-.142.917-.479 1.773-1.126 2.451-.569.597-1.29 1.012-1.847 1.594 1.766.006 3.771-1.044 5.448-1.042 1.559.003 2.888.895 4.26 1.511z" fill="#E0ABDF"/><path d="M30 11.814c0-1.387-.813-2.001-2.019-2.433-1.398-.501-2.667-1.033-3.517-2.326-.801-1.217-1.226-2.674-2.224-3.761-.68-.74-1.686-1.285-2.714-1.2-1.206.1-2.2.895-3.451.883l-.075-.007v19.733c1.304.267 2.637.408 3.959.188 1.35-.226 2.534-.983 3.779-1.505 1.789-.75 3.184-.351 4.96.127.617.166 1.204.247 1.759.243-1.111-1.491-2.472-2.849-2.828-3.915-.736-2.2 2.371-3.533 2.371-6.027z" fill="#D799D6"/><circle cx="12.5" cy="7.5" r=".5" fill="#373F3F"/><circle cx="19.5" cy="7.5" r=".5" fill="#2B3332"/><g fill="#2B3332"><path d="M10.079 9.763c-.129-.044-.272.028-.316.158-.043.131.027.272.158.316.124.041 3.073 1.013 6.079 1.013v-.5c-2.923 0-5.891-.978-5.921-.987zM22.237 9.921c-.044-.131-.184-.202-.316-.158-.03.01-2.998.987-5.921.987v.5c3.006 0 5.955-.972 6.079-1.013.131-.044.202-.185.158-.316z"/></g><path d="M10.079 9.763c-.129-.044-.272.028-.316.158-.043.131.027.272.158.316.124.041 3.073 1.013 6.079 1.013v-.5c-2.923 0-5.891-.978-5.921-.987z" fill="#373F3F"/><path d="M22.237 9.921c-.044-.131-.184-.202-.316-.158-.03.01-2.998.987-5.921.987v.5c3.006 0 5.955-.972 6.079-1.013.131-.044.202-.185.158-.316z" fill="#2B3332"/></g></svg>