<svg xmlns="http://www.w3.org/2000/svg" width="32" height="32" viewBox="0 0 32 32"><g><path d="M21.117 28.136l.306-.558c1.676-3.048-.825-8.453-.93-8.578h-4.493v11c1.592.078 2.512.186 3.138.121.236.517.756.879 1.362.879.828 0 1.5-.672 1.5-1.5 0-.608-.363-1.128-.883-1.364z" fill="#F7C845"/><path d="M11.507 19c-.105.125-2.606 5.53-.93 8.578l.306.558c-.52.236-.883.756-.883 1.364 0 .828.672 1.5 1.5 1.5.606 0 1.126-.362 1.362-.879.626.066 1.546-.043 3.138-.121v-11h-4.493z" fill="#FFD04D"/><path d="M16 24.408v-11.408l-7.434.052 2.171 4.655-3.737.886 2.211 1.671-3.054 2.82c-.151.14-.078.392.124.43l3.437.632-1.376 4.23c-.071.218.165.409.364.293l3.425-2c.188 1.015.381 2.214.442 3.144-.516.206-.865.579-.865 1.009 0 .651.792 1.179 1.769 1.179.977 0 1.769-.528 1.769-1.179 0-.216-.093-.415-.245-.589v-5.24l.999-.585z" fill="#FFD96C"/><path d="M23.658 28.376l-1.376-4.23 3.437-.632c.203-.037.276-.29.124-.43l-3.054-2.82 2.211-1.671-3.737-.886 2.171-4.655-7.434-.052v11.408l1 .584v5.24c-.151.174-.245.373-.245.589 0 .651.792 1.179 1.769 1.179.977 0 1.769-.528 1.769-1.179 0-.43-.349-.803-.865-1.009.061-.93.253-2.129.442-3.144l3.425 2c.198.117.434-.074.363-.292z" fill="#FFD04D"/><path d="M15.759 1.341l-1.096 3.833-2.084-1.839c-.145-.128-.375-.05-.411.141l-.803 4.227-4.717-.726c-.227-.034-.377.229-.231.407l2.083 2.529-5.349 1.851c-.221.076-.225.387-.007.47l5.356 2.033-3.382 4.209c-.138.172-.002.425.217.406l5.665-.504-.862 2.387c-.076.21.14.406.341.311l3.021-1.42 2.291 3.513c.049.076.129.113.209.113v-22.122c-.103 0-.206.06-.241.181z" fill="#F7F7F7"/><path d="M16.21 23.169l2.29-3.502 3.021 1.42c.202.095.417-.102.341-.311l-.862-2.387 5.665.504c.219.019.355-.234.217-.406l-3.382-4.209 5.356-2.033c.218-.083.214-.394-.007-.47l-5.349-1.851 2.083-2.529c.146-.177-.004-.441-.231-.406l-4.717.726-.803-4.227c-.036-.19-.266-.269-.411-.141l-2.084 1.839-1.097-3.845c-.034-.12-.137-.181-.24-.181v22.122c.08 0 .16-.038.21-.113z" fill="#EDEEEE"/><path d="M15.908 7l-1.379-2.789c-.117-.237-.474-.154-.474.111v2.799c-.582.106-1.123.311-1.633.565l-1.179-3.146-.198-.245-6.667-4.259c-.168-.115-.38.065-.294.25l2.771 4.961-.307-.088c-.209-.061-.39.157-.293.352l.715 1.429.085.097 2.224 1.476.877 1.861c-.036.188-.073.373-.095.577l-1.905.225c-.254.03-.304.377-.07.478l1.927.829c.024.606.094 1.216.204 1.794l-1.136 1.108c-.161.157-.05.429.175.429h1.394l.007.017-1.079.995c-.176.162-.046.454.192.433l1.744-.155c1.031.789 3.376 1.556 4.196 1.81.096.03.194.044.291.044v-11.958h-.093z" fill="#FFE28A"/><path d="M16.293 18.911c.861-.266 3.376-1.089 4.326-1.911.179-.155.339-.391.488-.664l.14-.011 1.001.368c.242.089.444-.203.275-.398l-.785-.908 1.182.313c.222.059.399-.187.273-.379l-.999-1.526 1.395-.65c.213-.099.184-.412-.045-.469l-1.557-.391.007-.502-.04-.576 1.842-1.621c.164-.144.077-.415-.14-.436l-1.647-.166 2.933-1.946.085-.097.715-1.43c.097-.195-.084-.413-.293-.352l-.306.088 2.771-4.961c.086-.185-.126-.365-.294-.25l-6.68 4.268-.18.222-1.176 3.144c-.297-.143-.605-.269-.928-.365l-.222-4.039c-.014-.259-.365-.328-.476-.093l-1.812 3.827h-.146v11.956c.098 0 .197-.015.293-.045z" fill="#FFD96C"/><path d="M18.742 13.271c0 .277-.224.502-.5.502-.252 0-.451-.19-.486-.433.132-.196.328-.385.611-.546.214.057.375.244.375.477zM18.742 13.271c0 .277-.224.502-.5.502-.252 0-.451-.19-.486-.433.132-.196.328-.385.611-.546.214.057.375.244.375.477z" fill="#F7F7F7"/><path d="M17.756 13.34c.035.243.234.433.486.433.276 0 .5-.225.5-.502 0-.233-.161-.42-.375-.477l.036-.025c1.272-.69 1.585.167 1.585.167s.109.847-.353 1.408c-.382.464-1.637.656-2.067.37 0 0-.248-.723.188-1.374zM24.947 3.079l-3.522 2.315c-.064.042-.114.101-.145.171l-1.093 2.444c.238.156.467.325.669.522.112.109.216.227.315.347l2.469-2.236.093-.125 1.505-3.185c.086-.183-.122-.364-.291-.253z" fill="#2B3332"/><path d="M8.361 6.642l1.48 1.341 1.941-.043-1.062-2.374c-.031-.07-.082-.129-.145-.171l-3.522-2.316c-.169-.111-.377.07-.291.253l1.505 3.185.094.125zM14.243 13.34c-.035.243-.234.433-.486.433-.276 0-.5-.225-.5-.502 0-.233.161-.42.375-.477l-.036-.025c-1.272-.69-1.585.167-1.585.167s-.109.847.353 1.408c.381.463 1.636.656 2.066.37 0 0 .248-.723-.187-1.374z" fill="#373F3F"/><path d="M13.257 13.271c0 .277.224.502.5.502.252 0 .451-.19.486-.433-.132-.196-.328-.385-.611-.546-.214.057-.375.244-.375.477zM13.257 13.271c0 .277.224.502.5.502.252 0 .451-.19.486-.433-.132-.196-.328-.385-.611-.546-.214.057-.375.244-.375.477z" fill="#fff"/><path d="M15.138 16c-.122 0-.184.13-.097.206l.862.758.097.036v-1h-.862z" fill="#373F3F"/><path d="M16.96 16.206c.086-.076.025-.206-.098-.206h-.862v1l.097-.035.863-.759z" fill="#2B3332"/></g></svg>