<svg xmlns="http://www.w3.org/2000/svg" width="32" height="32" viewBox="0 0 32 32"><g><path d="M31.894 17.543c-2.479 4.214-7.049 7.05-12.291 7.05-.642 0-1.269-.057-1.888-.139.748 2.623 3.157 4.546 6.02 4.546 3.46 0 6.265-2.805 6.265-6.265l-.009-.17c1.199-1.415 1.742-3.192 1.903-5.022z" fill="#FFD04D"/><path d="M31.894 17.543c.292-3.329-.684-6.833-1.301-8.648-.141-.416-.698-.462-.908-.077-1.457 2.666-5.732 5.37-5.841 5.37l-.075 2.284-.034-.002c-3.46 0-6.265 2.805-6.265 6.265 0 .597.089 1.172.245 1.719.619.082 1.246.139 1.888.139 5.242 0 9.811-2.836 12.291-7.05z" fill="#FFD96C"/><path d="M16 23.634l-2.63.244v-.502l-2.448-.332s-1.53 2.108-.311 5.309c-.328.275-.542.683-.542 1.145 0 .828.672 1.5 1.5 1.5.652 0 1.202-.419 1.408-1h3.023v-6.364z" fill="#F57552"/><path d="M21.528 28.355c1.219-3.201-.311-5.309-.311-5.309l-2.448.332-2.769.256v6.366h3.161c.207.581.756 1 1.408 1 .828 0 1.5-.672 1.5-1.5.001-.462-.213-.87-.541-1.145z" fill="#EB6B48"/><path d="M15 30.232v-5.639h-3.293s.734 3.228.865 5.219c-.516.206-.865.579-.865 1.009 0 .651.792 1.179 1.769 1.179.977 0 1.769-.528 1.769-1.179-.001-.216-.094-.415-.245-.589z" fill="#FF805D"/><path d="M19.428 29.812c.131-1.991.865-5.219.865-5.219h-3.293v5.639c-.151.174-.245.373-.245.589 0 .651.792 1.179 1.769 1.179.977 0 1.769-.528 1.769-1.179 0-.431-.349-.803-.865-1.009z" fill="#F57552"/><path d="M16 25.976c1.495.123 5.661-.097 7.9-4.197.439-.803.717-1.582.892-2.338-2.413 1.761-5.471 2.821-8.792 2.821v3.714z" fill="#F7C845"/><path d="M21.05 10.327c-2.104-1.545-4.711-.345-5.05-.327v12.262c3.321 0 6.383-1.059 8.796-2.821.99-4.283-1.829-7.706-3.746-9.114zM16 25.976c-1.495.123-5.65-.097-7.889-4.197-.439-.803-.717-1.582-.892-2.338 2.413 1.761 5.46 2.821 8.781 2.821v3.714z" fill="#FFD04D"/><path d="M10.965 10.327c2.103-1.545 4.696-.345 5.035-.327v12.262c-3.321 0-6.368-1.059-8.781-2.821-.99-4.283 1.829-7.706 3.746-9.114z" fill="#FFD96C"/><path d="M15.323 7c-.253 0-.502.035-.752.062.004-.097-.014-.2-.071-.312-.751-1.468-9.736-6.673-9.736-6.673-.405-.251-.897.153-.731.599.705 1.893 2.702 5.83 3.02 6.324.352.545 2.292 1.876 3.331 2.567-.064.139-.119.283-.159.433-.138.521-.208 1.136-.222 1.783-.044 2.062.498 4.456 1.377 5.217.95.823 3.466 1.646 4.327 1.912.096.03.195.045.293.045v-11.957h-.677z" fill="#FF8D6E"/><path d="M16.295 18.911c.861-.266 3.375-1.089 4.325-1.911.879-.761 1.421-3.155 1.377-5.217-.014-.647-.084-1.262-.222-1.783-.04-.15-.094-.294-.159-.433 1.04-.691 2.979-2.022 3.331-2.567.318-.494 2.315-4.431 3.02-6.324.166-.446-.326-.85-.731-.599 0 0-8.986 5.205-9.736 6.673-.057.112-.075.214-.071.312-.251-.027-.5-.062-.753-.062h-.676v11.956c.099 0 .197-.015.295-.045z" fill="#FF805D"/><path d="M14.242 13.34c-.035.243-.234.433-.486.433-.276 0-.5-.225-.5-.502 0-.233.161-.42.375-.477l-.036-.025c-1.272-.69-1.585.167-1.585.167s-.109.847.353 1.408c.382.463 1.637.656 2.067.37 0 0 .248-.723-.188-1.374zM11.144 8.531c.568-.553 1.292-.943 2.082-1.196l.024-.022s-3.467-3.327-6.778-4.765c-.212-.093-.426.132-.326.34l1.044 2.156c.491 1.014 1.257 1.869 2.21 2.467l1.699 1.067.045-.047z" fill="#373F3F"/><path d="M25.528 2.547c-3.311 1.438-6.778 4.765-6.778 4.765l.024.022c.79.254 1.514.643 2.082 1.196l.044.048 1.7-1.067c.954-.599 1.719-1.454 2.21-2.467l1.044-2.157c.1-.207-.114-.432-.326-.34z" fill="#2B3332"/><path d="M18.742 13.271c0 .277-.224.502-.5.502-.252 0-.451-.19-.486-.433.132-.196.328-.385.611-.546.213.057.375.244.375.477zM18.742 13.271c0 .277-.224.502-.5.502-.252 0-.451-.19-.486-.433.132-.196.328-.385.611-.546.213.057.375.244.375.477z" fill="#F7F7F7"/><path d="M13.256 13.271c0 .277.224.502.5.502.252 0 .451-.19.486-.433-.132-.196-.328-.385-.611-.546-.213.057-.375.244-.375.477zM13.256 13.271c0 .277.224.502.5.502.252 0 .451-.19.486-.433-.132-.196-.328-.385-.611-.546-.213.057-.375.244-.375.477z" fill="#fff"/><path d="M17.756 13.34c.035.243.234.433.486.433.276 0 .5-.225.5-.502 0-.233-.161-.42-.375-.477l.036-.025c1.272-.69 1.585.167 1.585.167s.109.847-.353 1.408c-.382.464-1.637.656-2.067.37 0 0-.248-.723.188-1.374z" fill="#2B3332"/><path d="M19.942 7.469c-.786 1.505-2.247 2.531-3.942 2.531v2c2.025 0 3.681-1.359 3.946-3.116l.044-.392.01-.092-.004-.038c.008-.241-.003-.549-.054-.893z" fill="#FFD04D"/><path d="M19.942 7.469c-.163-1.106-.763-2.625-2.663-3.83-.547-.348-.959-.666-1.279-.961v7.322c1.695 0 3.156-1.026 3.942-2.531z" fill="#FFD96C"/><path d="M15.298.57c.125-.187-.053-.431-.271-.375-.384.098-.806.228-1.108.38-.595.338-1.11.809-1.517 1.386-.246.441-.402.978-.402 1.639 0 1.305.454 2.083.911 2.538-.379.418-.649.914-.793 1.454.801 1.438 2.233 2.408 3.882 2.408v-7.322c-1.058-.975-.993-1.671-.702-2.108z" fill="#FFE28A"/><path d="M12.118 7.592c-.069.26-.118.528-.118.808 0 1.988 1.791 3.6 4 3.6v-2c-1.649 0-3.081-.97-3.882-2.408z" fill="#FFD96C"/><path d="M15.138 16c-.122 0-.184.13-.097.206l.862.758.097.036v-1h-.862z" fill="#373F3F"/><path d="M16.96 16.206c.086-.076.025-.206-.098-.206h-.862v1l.097-.035.863-.759z" fill="#2B3332"/></g></svg>