<svg xmlns="http://www.w3.org/2000/svg" width="32" height="32" viewBox="0 0 32 32"><g><path d="M18.141 22.138c.372-1.234 1.504-2.138 2.859-2.138 1.657 0 3 1.343 3 3 0 .349-.071.679-.181.99l.181.01c.718 0 1.371-.178 1.968-.458.316-3.005-2.028-5.542-4.968-5.542-1.635 0-3.073.794-3.982 2.01-.237.317-.621.49-1.018.49v1.243c.727-.002 1.453.132 2.141.395z" fill="#2B3332"/><path d="M11 18c1.635 0 3.073.794 3.982 2.01.237.318.621.49 1.018.49v-6.5c-3.786 0-7.26.887-10 2.361v3.331c-.637.961-.974 2.08-.991 3.233.32.238.661.447 1.023.617-.316-3.005 2.028-5.542 4.968-5.542z" fill="#F7D684"/><path d="M16 9c-3.786 0-7.26.887-10 2.361v5c2.74-1.474 6.214-2.361 10-2.361v-5z" fill="#FAE09F"/><path d="M16 4c-3.47 0-6.672.748-9.294 2.006-.617 1.228-.706 2.021-.706 3.465v1.89c2.74-1.474 6.214-2.361 10-2.361v-5z" fill="#FDEBBB"/><path d="M6.973 5.433l.069-.135-.069.135z" fill="#FEF8E8"/><path d="M16 20.5c.397 0 .781-.173 1.018-.49.909-1.216 2.347-2.01 3.982-2.01 2.94 0 5.284 2.537 4.968 5.542.362-.17.703-.379 1.023-.617-.017-1.153-.355-2.272-.991-3.233v-3.331c-2.74-1.474-6.214-2.361-10-2.361v6.5z" fill="#F0C877"/><path d="M16 14c3.786 0 7.26.887 10 2.361v-5c-2.74-1.474-6.214-2.361-10-2.361v5z" fill="#F7D684"/><path d="M16 4v5c3.786 0 7.26.887 10 2.361v-1.89c0-1.444-.089-2.236-.706-3.464-2.622-1.259-5.824-2.007-9.294-2.007z" fill="#FAE09F"/><path d="M25.294 6.006c-.082-.195-.172-.385-.267-.574l-.069-.135c-.096-.184-.197-.366-.305-.543l-.04-.062c-.339-.546-.736-1.055-1.179-1.525l-.172-.179-.382-.365-.232-.2-.461-.372c-.171-.129-.345-.255-.525-.373l-.342-.208-.402-.232-.344-.177-.474-.214-.305-.13c-.261-.102-.525-.196-.795-.277l-.194-.051c-.222-.062-.447-.118-.676-.166l-.295-.055c-.209-.037-.421-.068-.635-.092l-.279-.031c-.304-.027-.61-.045-.921-.045v4c3.47 0 6.672.748 9.294 2.006z" fill="#FDEBBB"/><path d="M16 4v-4c-.311 0-.617.018-.921.044l-.279.031c-.214.025-.427.055-.637.093l-.295.055c-.228.047-.453.103-.676.166l-.192.051c-.27.081-.534.175-.794.277l-.305.13-.475.218-.344.177-.402.232-.342.208c-.18.118-.354.244-.525.373l-.461.372-.232.2-.382.363-.172.179c-.443.469-.84.979-1.179 1.525l-.04.061c-.108.177-.209.359-.305.543l-.069.135c-.094.188-.185.379-.267.573 2.622-1.258 5.824-2.006 9.294-2.006z" fill="#FFF3D9"/><path d="M21 20c-1.355 0-2.487.904-2.859 2.138-.083.275-.141.56-.141.862 0 1.657 1.343 3 3 3 1.308 0 2.409-.842 2.819-2.01.11-.311.181-.641.181-.99 0-1.657-1.343-3-3-3zm0 5c-1.105 0-2-.895-2-2 0-.152.02-.299.052-.441.202-.892.996-1.559 1.948-1.559 1.105 0 2 .895 2 2 0 .318-.081.614-.213.881-.326.661-1 1.119-1.787 1.119z" fill="#F7F7F7"/><path d="M21 21c-.952 0-1.746.667-1.948 1.559-.032.142-.052.289-.052.441 0 1.105.895 2 2 2 .787 0 1.461-.458 1.787-1.119.132-.267.213-.563.213-.881 0-1.105-.895-2-2-2z" fill="#2B3332"/><path d="M28.85 28.902c1.127-.189 2.439-.665 3.111-1.527.093-.119.007-.291-.141-.316-1.01-.173-2.018-.601-2.676-1.105-.093-.071-.094-.196-.014-.281 1.76-1.844 1.976-4.834 1.945-6.485-.007-.372-.478-.532-.708-.24-.618.783-1.715 2.74-3.376 3.976-.32.238-.661.447-1.023.617-.597.281-1.25.459-1.968.459l-.181-.01c-.41 1.168-1.511 2.01-2.819 2.01-1.657 0-3-1.343-3-3 0-.302.058-.587.141-.862-.688-.264-1.414-.397-2.141-.396v9.775c.061 0 .123.03.163.09.158.238.482.318 1.007.364.59.052 1.463.024 2.767 0-.692-.593-1.144-1.081-1.414-1.519 1.778 1.125 4.051 1.431 5.555 1.519.575.034 1.062.034 1.383.024l.07-.024c.118-.052.163-.208.062-.312l-1.899-1.961c1.59 1.645 4.896 2.09 6.814 2.241.521.041.974.057 1.303.062l.134-.062c.073-.079.078-.217-.028-.295-1.169-.864-2.496-1.666-3.191-2.414-.107-.118-.033-.301.124-.328z" fill="#56C7CD"/><circle cx="11" cy="23" r="3" fill="#fff"/><path d="M16 20.5c-.396 0-.78-.173-1.018-.49-.909-1.216-2.347-2.01-3.982-2.01-2.94 0-5.284 2.537-4.968 5.542.597.28 1.25.458 1.968.458l.181-.01c-.11-.311-.181-.641-.181-.99 0-1.657 1.343-3 3-3 1.359 0 2.494.91 2.863 2.149.687-.267 1.411-.405 2.137-.406v-1.243z" fill="#373F3F"/><circle cx="11" cy="23" r="2" fill="#373F3F"/><path d="M3.15 28.902c-1.127-.189-2.439-.665-3.111-1.527-.093-.119-.007-.291.141-.316 1.01-.173 2.018-.601 2.676-1.105.093-.071.094-.196.014-.281-1.76-1.844-1.976-4.834-1.945-6.485.007-.372.478-.532.708-.24.618.783 1.715 2.74 3.376 3.976.32.238.661.447 1.023.617.597.281 1.25.459 1.968.459l.181-.01c.41 1.168 1.511 2.01 2.819 2.01 1.657 0 3-1.343 3-3 0-.302-.058-.587-.141-.862.688-.264 1.414-.397 2.141-.396v9.775c-.061 0-.123.03-.163.09-.158.238-.482.318-1.007.364-.59.052-1.463.024-2.767 0 .692-.593 1.144-1.081 1.414-1.519-1.778 1.125-4.051 1.431-5.555 1.519-.575.034-1.062.034-1.383.024l-.07-.024c-.118-.052-.163-.208-.062-.312l1.899-1.961c-1.59 1.645-4.896 2.09-6.814 2.241-.521.04-.974.057-1.304.061l-.134-.062c-.073-.079-.078-.217.028-.295 1.169-.864 2.496-1.666 3.191-2.414.108-.117.034-.3-.123-.327z" fill="#5BD3D5"/></g></svg>