<svg xmlns="http://www.w3.org/2000/svg" width="32" height="32" viewBox="0 0 32 32"><g><path d="M25.968 25.542c.362-.17.703-.379 1.023-.617-.017-1.153-.355-2.272-.991-3.233v-4.331c-2.74-1.474-6.214-2.361-10-2.361v8.062l9.968 2.48z" fill="#F0C877"/><path d="M5.009 24.924c.017-1.153.354-2.272.991-3.233v-4.331c2.74-1.473 6.214-2.36 10-2.36v8.031l-10.991 1.893z" fill="#F7D684"/><path d="M16 9c-3.786 0-7.26.887-10 2.361v6c2.74-1.474 6.214-2.361 10-2.361v-6z" fill="#FAE09F"/><path d="M16 15c3.786 0 7.26.887 10 2.361v-6c-2.74-1.474-6.214-2.361-10-2.361v6z" fill="#F7D684"/><path d="M6.658 30.459l-.122.009c-.681.01-1.375-.337-2.064-1.03-1.488-1.499-2.957-4.715-2.885-7.961.045-2.048-1.028-2.684-1.074-2.71-.471-.269-.653-.871-.395-1.349.257-.477.838-.668 1.322-.424.09.046 2.222 1.168 2.147 4.527-.08 3.64 2.175 6.866 2.927 6.947.553-.008 1.003.432 1.011.985.007.512-.373.939-.867 1.006z" fill="#56C7CD"/><path d="M16 22.528s-7.969.875-9-3.969c-.689-3.234-1.875-5.531-3.498-6.66-.26-.181-.597-.008-.503.295.297.957.73 2.981.657 4.053-.125 1.844-2.344 6.094.062 8.75 2.406 2.656-.094 5.375-.781 6.031-.687.656 1.594 1.812 4.063 0s7.343-1.683 9-1.656v-6.844z" fill="#5BD3D5"/><path d="M25.342 30.459l.122.009c.681.01 1.375-.337 2.064-1.03 1.488-1.499 2.957-4.715 2.885-7.961-.045-2.048 1.028-2.684 1.074-2.71.471-.269.653-.871.395-1.349-.257-.477-.838-.668-1.322-.424-.09.046-2.222 1.168-2.147 4.527.08 3.64-2.175 6.866-2.927 6.947-.553-.008-1.003.432-1.011.985-.007.512.373.939.867 1.006z" fill="#51BAC5"/><path d="M16 22.528s7.969.875 9-3.969c.689-3.234 1.875-5.531 3.498-6.66.26-.181.597-.008.503.295-.297.957-.73 2.981-.657 4.053.125 1.844 2.344 6.094-.062 8.75s.094 5.375.781 6.031-1.594 1.812-4.062 0-7.343-1.683-9-1.656v-6.844z" fill="#56C7CD"/><path d="M16 4v-4c-.311 0-.617.018-.921.044l-.279.031c-.214.025-.427.055-.637.093l-.295.055c-.228.047-.453.103-.676.166l-.192.051c-.27.081-.534.175-.794.277l-.305.13-.475.218-.344.177-.402.232-.342.208c-.18.118-.354.244-.525.373l-.461.372-.232.2-.382.363-.172.179c-.443.469-.84.979-1.179 1.525l-.04.061c-.108.177-.209.359-.305.543l-.069.135c-.094.188-.185.379-.267.573 2.622-1.258 5.824-2.006 9.294-2.006z" fill="#FFF3D9"/><path d="M25.294 6.006c-.082-.195-.172-.385-.267-.574l-.069-.135c-.096-.184-.197-.366-.305-.543l-.04-.062c-.339-.546-.736-1.055-1.179-1.525l-.172-.179-.382-.365-.232-.2-.461-.372c-.171-.129-.345-.255-.525-.373l-.342-.208-.402-.232-.344-.177-.474-.214-.305-.13c-.261-.102-.525-.196-.795-.277l-.194-.051c-.222-.062-.447-.118-.676-.166l-.295-.055c-.209-.037-.421-.068-.635-.092l-.279-.031c-.304-.027-.61-.045-.921-.045v4c3.47 0 6.672.748 9.294 2.006zM16 4c-3.47 0-6.672.748-9.294 2.006-.617 1.228-.706 2.021-.706 3.465v1.89c2.74-1.474 6.214-2.361 10-2.361v-5z" fill="#FDEBBB"/><path d="M16 4v5c3.786 0 7.26.887 10 2.361v-1.89c0-1.444-.089-2.236-.706-3.464-2.622-1.259-5.824-2.007-9.294-2.007zM21 22c-1.299 0-2.394-.83-2.811-1.984l-.048.122c-.083.275-.141.56-.141.862 0 1.657 1.343 3 3 3 1.308 0 2.409-.842 2.819-2.01.11-.311.181-.641.181-.99 0-.353-.072-.687-.184-1.002-.413 1.163-1.511 2.002-2.816 2.002z" fill="#FAE09F"/><path d="M11 22c-1.304 0-2.403-.837-2.816-2-.112.314-.184.647-.184 1 0 1.657 1.343 3 3 3s3-1.343 3-3c0-.353-.072-.686-.184-1-.413 1.163-1.512 2-2.816 2zM21 22c1.305 0 2.403-.839 2.816-2.002-.414-1.161-1.512-1.998-2.816-1.998-1.309 0-2.402.847-2.811 2.016.417 1.154 1.512 1.984 2.811 1.984z" fill="#FDEBBB"/><path d="M11 18c-1.304 0-2.403.837-2.816 2 .413 1.163 1.512 2 2.816 2s2.403-.837 2.816-2c-.413-1.163-1.512-2-2.816-2z" fill="#FFF3D9"/><path d="M21 23c-.552 0-1-.448-1-1v-2c0-.552.448-1 1-1s1 .448 1 1v2c0 .552-.448 1-1 1z" fill="#2B3332"/><path d="M11 23c-.552 0-1-.448-1-1v-2c0-.552.448-1 1-1s1 .448 1 1v2c0 .552-.448 1-1 1z" fill="#373F3F"/><path d="M11 28c0 2.209 2.239 4 5 4v-8c-2.761 0-5 1.791-5 4z" fill="#FDEBBB"/><path d="M21 28c0-2.209-2.239-4-5-4v8c2.761 0 5-1.791 5-4z" fill="#FAE09F"/><g fill="none"><path d="M17 29l.74 2.737c1.129-.337 2.052-.989 2.626-1.825l-3.366-.912zM11.634 29.912c.573.835 1.495 1.487 2.622 1.824l.744-2.736-3.366.912zM14.259 24.263c-1.129.337-2.052.989-2.625 1.824l3.366.913-.741-2.737zM20.366 26.088c-.573-.834-1.493-1.486-2.62-1.823l-.746 2.735 3.366-.912z"/></g><path d="M14 15c0 1.105.895 2 2 2v-4c-1.105 0-2 .895-2 2zM14 9c0 1.105.895 2 2 2v-4c-1.105 0-2 .895-2 2zM15 4c0 .552.448 1 1 1v-2c-.552 0-1 .448-1 1z" fill="#FFF3D9"/><path d="M18 15c0-1.105-.895-2-2-2v4c1.105 0 2-.895 2-2zM18 9c0-1.105-.895-2-2-2v4c1.105 0 2-.895 2-2zM17 4c0-.552-.448-1-1-1v2c.552 0 1-.448 1-1z" fill="#FDEBBB"/><path d="M14.259 24.263l.513 1.895c.101.373-.241.714-.613.613l-2.525-.684c-.392.571-.634 1.216-.634 1.913 0 .697.243 1.342.634 1.912l2.524-.684c.373-.101.715.241.613.614l-.515 1.894c.545.163 1.128.264 1.744.264v-8c-.615 0-1.197.101-1.741.263z" fill="#373F3F"/><path d="M17.841 29.228l2.525.684c.392-.57.634-1.215.634-1.912 0-.697-.242-1.342-.634-1.912l-2.523.684c-.373.101-.715-.241-.613-.614l.516-1.893c-.545-.164-1.129-.265-1.746-.265v8c.615 0 1.196-.101 1.74-.263l-.513-1.896c-.1-.373.241-.714.614-.613z" fill="#2B3332"/></g></svg>