<svg xmlns="http://www.w3.org/2000/svg" width="32" height="32" viewBox="0 0 32 32"><g><path d="M4.183 20.85c.961 5.192 5.879 9.15 11.817 9.15v-4c-4.881 0-9.19-2.037-11.817-5.15z" fill="#4295AC"/><path d="M16 26v4c5.938 0 10.856-3.958 11.817-9.15-2.627 3.113-6.936 5.15-11.817 5.15z" fill="#3B8FA3"/><path d="M16 26v-15c-6.627 0-12 1.925-12 8 0 .632.071 1.247.183 1.85 2.627 3.113 6.936 5.15 11.817 5.15z" fill="#47A1B4"/><path d="M16 11v15c4.881 0 9.19-2.037 11.817-5.15.112-.603.183-1.218.183-1.85 0-6.075-5.373-8-12-8zM5.658 22.789c-.688-1.411-1.084-2.979-1.084-4.639 0-1.296.987-3.531 1.677-4.688-.081.065-1.315 1.126-1.315 1.126-1.423 1.152-3.96 3.571-4.725 5.859-.374 1.118-.254 2.999.381 3.641 1.293 1.306 3.597 1.153 4.898-.096l.168-1.203zM5.658 22.789c-.688-1.411-1.084-2.979-1.084-4.639 0-1.296.987-3.531 1.677-4.688-.081.065-1.315 1.126-1.315 1.126-1.423 1.152-3.96 3.571-4.725 5.859-.374 1.118-.254 2.999.381 3.641 1.293 1.306 3.597 1.153 4.898-.096l.168-1.203z" fill="#4295AC"/><path d="M22.735 4.129l.121-2.61c.017-.371-.324-.63-.624-.472l-3.042.653c-.978-.342-2.056-.534-3.19-.534v12.834c4.418 0 8-2.873 8-6.417 0-1.273-.468-2.456-1.265-3.454z" fill="#3B8FA3"/><path d="M12.81 1.7l-3.042-.653c-.3-.158-.641.1-.624.472l.121 2.61c-.797.998-1.265 2.181-1.265 3.454 0 3.544 3.582 6.417 8 6.417v-12.834c-1.134 0-2.212.192-3.19.534z" fill="#4295AC"/><path d="M15.605 3.952l-1.483-.638c-.233-.1-.494-.107-.733-.024-2.286.795-3.889 2.584-3.889 4.683 0 2.835 2.91 5.134 6.5 5.134v-9.073c-.135 0-.269-.027-.395-.082z" fill="#FDEBBB"/><path d="M22.5 7.973c0-2.099-1.603-3.888-3.889-4.682-.239-.083-.501-.076-.733.024l-1.483.638c-.126.054-.26.081-.395.081v9.072c3.59 0 6.5-2.298 6.5-5.133z" fill="#FAE09F"/><circle cx="8.5" cy="26.5" r="4.5" fill="#FFF3D9"/><circle cx="9" cy="27" r="2" fill="#8D5B36"/><path d="M21.24 9.898c-1.844-.801-3.688-1.047-5.24-.814v10.632c.593 0 1.186.124 1.756.373l.019.008c4.025 1.748 8.063.881 9.02-1.935.957-2.817-1.53-6.517-5.555-8.264z" fill="#FDEBBB"/><path d="M10.76 9.898c-4.025 1.748-6.512 5.448-5.555 8.264s4.995 3.683 9.02 1.935l.019-.008c.57-.249 1.163-.373 1.756-.373v-10.632c-1.552-.233-3.396.013-5.24.814z" fill="#FFF3D9"/><path d="M5.821 22.825l-.041-1.897c-.004-.202.292-.33.436-.188l1.352 1.332c.057.056.067.14.028.217l-.109.211c-.232.449-.813.7-1.299.56l-.228-.066c-.084-.024-.137-.089-.139-.169zM4.05 25.46l-1.278-1.403c-.136-.149.003-.44.205-.428l1.894.115c.079.005.143.061.163.145l.057.231c.121.491-.153 1.062-.61 1.276l-.215.101c-.079.036-.163.022-.216-.037zM4.3 28.493l-1.854-.406c-.197-.043-.252-.361-.08-.467l1.612-1.001c.068-.042.152-.033.217.024l.18.155c.382.331.489.955.239 1.394l-.117.207c-.043.074-.119.111-.197.094z" fill="#F7F7F7"/><path d="M26.342 22.789c.688-1.411 1.084-2.979 1.084-4.639 0-1.296-.987-3.531-1.677-4.688.081.065 1.315 1.126 1.315 1.126 1.423 1.152 3.96 3.571 4.725 5.859.374 1.118.254 2.999-.381 3.641-1.293 1.306-3.597 1.153-4.898-.096l-.168-1.203zM26.342 22.789c.688-1.411 1.084-2.979 1.084-4.639 0-1.296-.987-3.531-1.677-4.688.081.065 1.315 1.126 1.315 1.126 1.423 1.152 3.96 3.571 4.725 5.859.374 1.118.254 2.999-.381 3.641-1.293 1.306-3.597 1.153-4.898-.096l-.168-1.203z" fill="#3B8FA3"/><circle cx="23.5" cy="26.5" r="4.5" fill="#FDEBBB"/><circle cx="23" cy="27" r="2" fill="#845331"/><path d="M26.179 22.825l.041-1.897c.004-.202-.292-.33-.436-.188l-1.352 1.332c-.057.056-.067.14-.028.217l.109.211c.232.449.813.7 1.299.56l.228-.066c.084-.024.137-.089.139-.169zM27.95 25.46l1.278-1.403c.136-.149-.003-.44-.205-.428l-1.894.115c-.079.005-.143.061-.163.145l-.057.231c-.121.491.153 1.062.61 1.276l.215.101c.079.036.163.022.216-.037zM27.7 28.493l1.854-.406c.197-.043.252-.361.08-.467l-1.612-1.001c-.068-.042-.152-.033-.217.024l-.18.155c-.382.331-.489.955-.239 1.394l.117.207c.043.074.119.111.197.094z" fill="#EDEEEE"/><path d="M17.922 5.896c-.075 0-.148-.033-.198-.097-.084-.109-.064-.266.046-.35.363-.282.992-.449 1.682-.449.648 0 1.235.145 1.61.396.115.077.146.232.068.347-.077.116-.233.145-.347.068-.286-.191-.796-.311-1.331-.311-.574 0-1.102.132-1.376.344l-.154.052z" fill="#2B3332"/><path d="M11.078 5.896c-.075 0-.148-.033-.198-.097-.084-.109-.064-.266.045-.351.363-.28.992-.448 1.682-.448.648 0 1.235.145 1.61.396.115.077.146.232.068.347-.077.116-.232.145-.347.068-.286-.191-.796-.311-1.331-.311-.575 0-1.102.132-1.376.344l-.153.052z" fill="#373F3F"/><path d="M18.009 7.419h-1l.276-.553c.092-.184.355-.184.447 0l.277.553z" fill="#F7F7F7"/><path d="M15 7.419h-1l.276-.553c.092-.184.355-.184.447 0l.277.553z" fill="#fff"/><path d="M13.944 7.207c-.135.031-.219.166-.188.3.027.116.13.194.244.194l.056-.006c.012-.003.831-.183 1.944-.19v-.501c-1.156.005-2.003.191-2.056.203z" fill="#373F3F"/><path d="M18.244 7.504c.03-.135-.056-.269-.19-.298-.728-.159-1.434-.205-2.054-.202v.501c.591-.003 1.261.04 1.946.19.137.03.269-.056.298-.191z" fill="#2B3332"/></g></svg>