<svg xmlns="http://www.w3.org/2000/svg" width="32" height="32" viewBox="0 0 32 32"><g><path d="M15.823 24.82l-1.626-1.626c-.105-.105-.279-.096-.372.021l-3.501 4.376c-.131.164-.014.406.195.406h2.481l-.665 1.995c-.083.25.227.442.414.256l1.251-1.251 1.792 2.688c.049.074.129.111.208.111v-6.903c-.064 0-.128-.024-.177-.073z" fill="#F7C845"/><path d="M18 28.997l1.251 1.251c.187.187.497-.006.414-.256l-.665-1.995h2.48c.21 0 .326-.242.195-.406l-3.501-4.376c-.093-.116-.267-.126-.372-.021l-1.626 1.626c-.049.049-.113.073-.177.073v6.903c.079 0 .159-.037.208-.111l1.793-2.688z" fill="#F0C13E"/><path d="M16 12.997l11.36-8.52c.196-.147.465.047.387.279l-1.747 5.241 4.483 1.793c.2.08.212.359.019.456l-5.502 2.751 5.342 5.342c.181.181.006.484-.241.418l-14.101-3.76v-4z" fill="#2B3332"/><path d="M16 13.997l9.152-10.982c.177-.212.517-.023.429.239l-1.581 4.743 7.328-1.596c.228-.05.394.213.251.397l-5.579 7.199 5.254 1.073c.236.048.274.371.055.472l-5.309 2.455 1.826 5.479c.068.204-.135.392-.333.31l-11.493-4.789v-5z" fill="#F7C845"/><path d="M16 12.997l-11.36-8.52c-.196-.147-.464.047-.387.279l1.747 5.241-4.483 1.793c-.2.08-.212.359-.019.456l5.502 2.751-5.342 5.342c-.181.181-.006.484.241.418l14.101-3.76v-4z" fill="#373F3F"/><path d="M16 13.997l-9.152-10.982c-.177-.213-.516-.023-.429.239l1.581 4.743-7.328-1.596c-.228-.05-.394.213-.251.397l5.579 7.199-5.254 1.073c-.236.048-.274.371-.055.472l5.309 2.455-1.826 5.479c-.068.204.135.392.333.31l11.493-4.789v-5z" fill="#FFD04D"/><path d="M13.853 19.997s-2.762 3.075-1.542 4.496c1.542 1.799 4.689-1.798 4.689-1.798l-3.147-2.698z" fill="#CDA073"/><path d="M12.479 25.965c.276-.018.484-.256.466-.532l-.138-2.083.005-.003-2.217-3.916c-.136-.24-.441-.325-.681-.189-.24.136-.325.441-.189.681l1.428 2.521-2.463-.447c-.272-.05-.532.131-.582.402-.05.272.131.532.402.582l2.208.403-.801.454c-.24.136-.325.441-.189.681.136.24.441.325.681.189l1.431-.81.106 1.602c.02.275.258.483.533.465z" fill="#FCA15E"/><path d="M18.147 19.997s2.762 3.075 1.542 4.496c-1.542 1.799-4.689-1.798-4.689-1.798l3.147-2.698z" fill="#C09265"/><path d="M23.891 22.4c-.05-.272-.31-.452-.582-.402l-2.462.449 1.428-2.521c.136-.24.052-.545-.189-.681-.24-.136-.545-.052-.681.189l-2.217 3.916.005.003-.138 2.083c-.018.276.19.514.466.532.276.018.514-.19.532-.466l.106-1.602 1.431.81c.24.136.545.052.681-.189.136-.24.052-.545-.189-.681l-.801-.454 2.208-.403c.272-.051.452-.312.402-.583z" fill="#F79654"/><path d="M16 11.997c-2.209 0-4 2.91-4 6.5s2.857 7.5 4 7.5v-14z" fill="#FFD96C"/><path d="M16 11.997c2.209 0 4 2.91 4 6.5s-2.857 7.5-4 7.5v-14z" fill="#FFD04D"/><path d="M15.768.577l-1.768 4.42-4.364-2.618c-.205-.123-.45.085-.361.307l1.725 4.311-4.175.835c-.244.049-.275.385-.044.477l4.219 1.688-2.715 5.431c-.102.203.099.426.311.346l7.404-2.777v-12.577c-.095 0-.19.052-.232.157z" fill="#FFE28A"/><path d="M23.715 15.427l-2.715-5.43 4.219-1.688c.231-.092.2-.428-.044-.477l-4.175-.835 1.724-4.311c.089-.222-.155-.43-.361-.307l-4.363 2.618-1.768-4.42c-.042-.105-.137-.157-.232-.157v12.577l7.404 2.776c.213.08.413-.142.311-.346z" fill="#FFD96C"/><path d="M13.855 7.388l-.375-.392-.434 1.074c-.029.072-.023.154.017.221l.344.583c.045.076.127.123.215.123h.37c-.184-.199-.313-.517-.313-.896 0-.275.07-.519.176-.713z" fill="#373F3F"/><path d="M14.618 8.997h.147c.098-.107.182-.243.235-.414l-.382-.399v.813zM14.138 7.684l-.284-.296c-.106.193-.176.437-.176.713 0 .379.129.697.313.896h.147v-1.313z" fill="#fff"/><path fill="#373F3F" d="M14.138 7.684v1.313h.48v-.813z"/><path d="M18.145 7.388l.375-.392.433 1.074c.029.072.023.154-.017.221l-.344.583c-.045.076-.127.123-.215.123h-.37c.184-.199.313-.517.313-.896.001-.275-.069-.519-.175-.713z" fill="#2B3332"/><path d="M17.382 8.997h-.147c-.098-.107-.182-.243-.235-.414l.382-.399v.813zM17.862 7.684l.284-.296c.106.193.176.437.176.713 0 .379-.129.697-.313.896h-.147v-1.313z" fill="#F7F7F7"/><path fill="#2B3332" d="M17.862 7.684v1.313h-.48v-.813z"/><path d="M16 10.1c-.064 0-.128.024-.177.073l-.729.729-.058.095h.964v-.897z" fill="#CDA073"/><path d="M16.964 10.997l-.058-.095-.729-.729c-.049-.048-.113-.073-.177-.073v.896h.964zM15.026 11.128l.729 3.643c.027.134.136.201.245.201v-3.975h-.964l-.01.131z" fill="#C09265"/><path d="M16 14.972c.109 0 .218-.067.245-.201l.729-3.643-.01-.131h-.964v3.975z" fill="#B38658"/></g></svg>