<svg xmlns="http://www.w3.org/2000/svg" width="32" height="32" viewBox="0 0 32 32"><g><path d="M27.5 25.375c-1.563-3.188-6.5-3.375-8.5-3.375v-11l-3 .766-3-.451v12.715c-1.471.929-2.994 2.03-5 2.971-3.062 1.437-5 .5-5-3.5 0-.994-.494-1.491-.991-1.498-.503-.007-1.009.491-1.009 1.497 0 2.562.426 8.5 6.75 8.5 2.265 0 4.449-.988 6.427-2.159.273.266.564.503.868.712l.007.005c.303.209.62.391.948.549.335.161.683.289 1.036.402l.204.065c.342.099.69.179 1.041.238l.2.029c.349.052.701.089 1.052.106l.057.004c.369.016.737.01 1.101-.008l.194-.01c.358-.023.712-.058 1.057-.108l.119-.019c.356-.055.705-.12 1.039-.199l.009-.002c.344-.081.671-.175.983-.275l.089-.029c.31-.103.604-.213.874-.329l.062-.028c.21-.093.403-.189.583-.286l.076-.041c.18-.1.616-.384.666-.434.001-.001 2.62-1.621 1.058-4.808zm-7.194 3.027c-.047-.047-.512-.525-.711-.811-.169-.244-.359-.775-.407-.918 1.212-.65 2.202-.903 2.895-.298 1.044.909-.521 1.627-1.777 2.027z" fill="#5CA3D5"/><path d="M27.5 25.375c-1.563-3.188-6.5-3.375-8.5-3.375v2.667c2.015-.459 3.879-.443 5.062.208 2.326 1.278 1.138 3.387-1.062 4.5-.238.12-.481.279-.776.374-2.16.7-6.035-.264-6.206-4.089l-.018-.254v-13.641l-3-.451v12.715c-1.471.929-2.994 2.03-5 2.971-3.062 1.438-5 .5-5-3.5 0-.994-.494-1.491-.991-1.498-.194 2.262-.424 3.339 1.147 5.966 1.719 2.875 6.187 2.125 9.84-.562l.097-.063c.122 1.011.384 1.776.906 2.329l.177.169c.273.266.564.503.868.712l.007.005c.303.209.62.391.948.549.335.161.683.289 1.036.402l.204.065c.342.099.69.179 1.041.238l.2.029c.349.052.701.089 1.052.106l.057.004c.369.016.737.01 1.101-.008l.194-.01c.358-.023.712-.058 1.057-.108l.119-.019c.356-.055.705-.12 1.039-.199l.009-.002c.344-.081.671-.175.983-.275l.089-.029c.31-.103.604-.213.874-.329l.062-.028c.21-.093.403-.189.583-.286l.076-.041c.18-.1.616-.384.666-.434.002-.001 2.621-1.621 1.059-4.808zM15.052 30.558l-.007-.005.007.005z" fill="#65A9DC"/><path fill="#9DB5DE" d="M14.177 29.841z"/><path d="M16 11.543v-10.543c-4 0-5 3.239-5 6 0 .868.222 1.783.611 2.631 1.064 1.08 3.074 1.44 3.554 1.707.247.137.541.205.835.205z" fill="#8EC0E0"/><path d="M15.165 11.337c-.48-.267-2.49-.627-3.554-1.707.849 1.848 2.496 3.37 4.389 3.37v-1.457c-.294 0-.588-.068-.835-.206zM16.835 11.337c.48-.267 2.49-.627 3.554-1.707.389-.847.611-1.762.611-2.63 0-2.761-1-6-5-6v10.543c.294 0 .588-.068.835-.206z" fill="#7FB8E0"/><path d="M20.389 9.631c-1.064 1.08-3.074 1.44-3.554 1.707-.247.137-.541.206-.835.206v1.456c1.893 0 3.54-1.522 4.389-3.369z" fill="#71B1E1"/><path d="M13.782 7.161c-.127.479-.372.808-.658.808-.415 0-.751-.686-.751-1.531l.014-.279c-.645.499-.453 2.04.358 2.239.517.127.845.113 1.035.076.129-.025.217-.142.202-.272-.027-.232-.085-.639-.2-1.041z" fill="#4896C8"/><path d="M13.124 7.969c.286 0 .531-.329.658-.808-.176-.614-.487-1.215-1.023-1.157-.149.016-.269.075-.373.155l-.014.279c0 .846.337 1.531.752 1.531z" fill="#373F3F"/><circle cx="12.997" cy="6.75" r=".5" fill="#fff"/><path d="M14 17v12.672s.867.936 2 1.435v-16.107c-1.105 0-2 .895-2 2z" fill="#fff"/><path d="M18 31.759v-14.759c0-1.105-.895-2-2-2v16.107s.89.466 2 .652z" fill="#F7F7F7"/><path d="M18.218 7.161c.127.479.372.808.658.808.415 0 .751-.686.751-1.531l-.014-.279c.645.499.453 2.04-.358 2.239-.517.127-.845.113-1.035.076-.129-.025-.217-.142-.202-.272.027-.232.085-.639.2-1.041z" fill="#4390BF"/><path d="M18.876 7.969c-.286 0-.531-.329-.658-.808.176-.614.487-1.215 1.023-1.157.148.016.269.075.373.155l.014.279c0 .846-.337 1.531-.752 1.531z" fill="#2B3332"/><circle cx="19.003" cy="6.75" r=".5" fill="#F7F7F7"/><path d="M12.401.758c.158-.204.123-.499-.079-.659-.199-.157-.495-.125-.654.079-.029.037-.247.324-.517.785.016-.17-.056-.342-.208-.44-.212-.132-.504-.075-.642.143-.028.044-.284.458-.515 1.118l-.041-.038c-.218-.129-.506-.064-.64.159-.043.071-.361 2.697.375 4.155.242.56.688.94 1.205.94.772 0 1.398-.84 1.398-1.877 0-.335-.079-.638-.194-.909 0 0-.536-1.83.261-3.085l.251-.371z" fill="#E2EFF7"/><path d="M19.599.758c-.158-.204-.123-.499.079-.659.199-.157.495-.125.654.079.029.037.247.324.517.785-.016-.17.056-.342.208-.44.212-.132.504-.075.642.143.028.044.284.458.515 1.118l.041-.038c.218-.129.506-.064.64.159.043.072.361 2.698-.375 4.156-.242.559-.688.939-1.205.939-.772 0-1.398-.84-1.398-1.877 0-.335.079-.638.194-.909 0 0 .536-1.83-.261-3.085l-.251-.371z" fill="#D2E6F3"/><path d="M15.783 2.312l-.669 1.004c-.072.108-.05.255.052.334.189.148.507.35.825.35l.009-.001v-1.796c-.082-.003-.166.032-.217.109z" fill="#C1DDEE"/><path d="M16.868 3.316l-.669-1.004c-.048-.071-.123-.106-.199-.109v1.796c.315-.004.628-.203.816-.349.103-.079.124-.226.052-.334z" fill="#B0D3EA"/><path d="M14.549 14.255l-.049.245c0 .828.672 1.5 1.5 1.5v-1.195c-.557 0-1.06-.212-1.451-.55z" fill="#5C699E"/><path d="M16 13c-.742 0-1.329.548-1.451 1.255.39.338.893.55 1.451.55v-1.805z" fill="#6673AA"/><path d="M17.5 14.5l-.049-.245c-.391.338-.893.55-1.451.55v1.195c.828 0 1.5-.672 1.5-1.5z" fill="#515E91"/><path d="M17.451 14.255c-.122-.707-.71-1.255-1.451-1.255v1.805c.557 0 1.06-.212 1.451-.55z" fill="#5C699E"/><path d="M.066 21.673l-.066.327c0 1.104.895 2 2 2v-1.594c-.743 0-1.413-.282-1.934-.733z" fill="#515E91"/><path d="M2 20c-.989 0-1.773.731-1.934 1.673.521.451 1.191.733 1.934.733v-2.406z" fill="#5C699E"/><path d="M4 22l-.066-.327c-.52.451-1.191.733-1.934.733v1.594c1.105 0 2-.896 2-2z" fill="#495587"/><path d="M2 22.406c.743 0 1.413-.282 1.934-.733-.161-.943-.945-1.673-1.934-1.673v2.406z" fill="#515E91"/><path d="M.549 19.255l-.049.245c0 .828.672 1.5 1.5 1.5v-1.195c-.557 0-1.06-.212-1.451-.55z" fill="#5C699E"/><path d="M2 18c-.741 0-1.329.548-1.451 1.255.391.338.893.55 1.451.55v-1.805z" fill="#6673AA"/><path d="M3.5 19.5l-.049-.245c-.39.338-.893.55-1.451.55v1.195c.829 0 1.5-.672 1.5-1.5z" fill="#515E91"/><path d="M2 19.805c.557 0 1.06-.212 1.451-.55-.121-.707-.709-1.255-1.451-1.255v1.805z" fill="#5C699E"/></g></svg>