<svg xmlns="http://www.w3.org/2000/svg" width="32" height="32" viewBox="0 0 32 32"><g><path d="M22.977 13.753c-1.181 1.3-2.43 2.502-3.758 3.645l-.046.026c.504 1.171 2.031 4.232 3.327 1.785 1.125-2.124 3.092-1.743 4.007-1.418.135.048.277.051.41.019l-2.513-5.771c-.454.596-.935 1.162-1.427 1.714z" fill="#51BAC5"/><path d="M27.326 17.553l.018-.02.212-.236.034-.034.217-.2.026-.021.228-.17.007-.004.229-.135.018-.01.221-.099.03-.012.213-.068.035-.009.207-.041.034-.005.205-.018.028-.001.206.003.014.001.204.022.009.001.196.038.023.005.18.05.028.009.167.059.028.011.157.067.023.011.149.074.014.008.144.08c-.034-.258-.072-.515-.132-.766-.078-.449-.207-.88-.327-1.311-.148-.421-.299-.837-.495-1.228-.083-.204-.21-.38-.312-.571-.098-.194-.24-.356-.357-.534-.505-.687-1.139-1.254-1.878-1.667-.344-.196-.713-.354-1.094-.49l-.124-.032c-.116-.019-.233-.008-.343.027l-.076.03c-.096.043-.184.104-.256.184l-.026.035-.05.068c-.299.483-.619.942-.955 1.383l2.513 5.771c.156-.037.301-.124.408-.255zM12.781 17.397c-1.328-1.143-2.577-2.344-3.758-3.645-.492-.551-.973-1.118-1.427-1.716l-2.536 5.826c.095.022.197.018.293-.02.837-.327 2.961-.874 4.147 1.366 1.296 2.448 2.823-.613 3.327-1.785l-.046-.026z" fill="#56C7CD"/><path d="M7.163 11.44l-.107-.155c-.139-.203-.275-.408-.406-.619l-.008-.012c-.178-.288-.53-.42-.851-.319l-.308.113-.002.001-.363.157-.091.043-.355.184c-.739.413-1.372.979-1.878 1.667-.117.178-.259.341-.357.534-.101.191-.229.367-.312.571-.196.391-.347.807-.495 1.228-.12.431-.249.862-.327 1.311-.06.251-.097.508-.132.766l.15-.083.01-.006.157-.077.019-.009.165-.07.025-.01.173-.06.028-.009.182-.049.03-.007.191-.035.029-.004.202-.019.025-.001.214.001.016.001.23.025h.001l.234.053.016.004.227.08.027.011.223.109.033.018.221.141.035.025.22.177.035.032.219.217.033.036.22.263.01.012c.074.097.178.16.29.187l2.536-5.824-.434-.599z" fill="#5BD3D5"/><path d="M18.469 16.63l.008-.008c1.175-1.205 2.295-2.491 3.304-3.823 1-1.329 1.927-2.744 2.452-4.17l.001-.002.014-.036c.183-.45.692-.694 1.172-.548.993.301 1.981.724 2.87 1.328.893.596 1.653 1.396 2.204 2.289.128.228.281.445.382.683.104.236.235.463.315.706.192.476.327.963.454 1.448.097.49.199.977.245 1.467.074.489.075.977.11 1.464.019.274-.179.524-.461.566-.297.045-.575-.156-.621-.448l-.008-.049c-.071-.453-.107-.912-.212-1.354-.078-.449-.207-.88-.327-1.311-.148-.421-.299-.837-.495-1.228-.083-.204-.21-.38-.312-.571-.098-.194-.24-.356-.357-.534-.505-.687-1.139-1.254-1.878-1.667-.344-.196-.713-.354-1.094-.49-.326-.116-.692.015-.874.309-.704 1.14-1.527 2.143-2.384 3.102-1.181 1.3-2.43 2.502-3.758 3.645-.259.221-.685.165-.855-.183-.096-.195-.046-.431.105-.585z" fill="#FFAD68"/><path d="M13.531 16.63l-.008-.008c-1.175-1.205-2.295-2.491-3.304-3.823-1-1.329-1.927-2.744-2.452-4.17l-.001-.003-.014-.035c-.183-.451-.692-.695-1.172-.549-.993.301-1.982.724-2.87 1.329-.893.596-1.653 1.396-2.204 2.289-.128.228-.281.445-.382.683-.104.236-.235.463-.315.706-.192.476-.327.963-.454 1.448-.097.49-.199.977-.245 1.467-.074.489-.075.977-.11 1.464-.019.274.179.524.461.566.297.045.575-.156.621-.448l.008-.049c.071-.453.107-.912.212-1.354.078-.449.207-.88.327-1.311.148-.421.299-.837.495-1.228.083-.204.21-.38.312-.571.098-.194.24-.356.357-.534.505-.687 1.139-1.254 1.878-1.667.344-.196.713-.354 1.094-.49.326-.116.692.015.874.309.704 1.14 1.527 2.143 2.384 3.102 1.181 1.3 2.43 2.502 3.758 3.645.259.221.685.165.855-.183.096-.195.046-.431-.105-.585z" fill="#FFB76D"/><path d="M19 24.975s5.792-.982 8.469-4.457c.143-.185.469-.091.489.131.141 1.598-1.866 6.722-5.41 8.31-4.438 1.988-3.548-3.984-3.548-3.984z" fill="#FCA15E"/><path d="M7 32h6.714s.815-.495-.309-1.466-6.405-.696-6.405 1.466z" fill="#FFAD68"/><path d="M25 32h-6.714s-.815-.495.309-1.466c1.124-.971 6.405-.696 6.405 1.466z" fill="#FCA15E"/><path d="M12 11.625c0 6.157-3 7.417-3 10.958 0 .404.03.773.066 1.133-.135.231-.262.482-.372.775-1.458 3.903-.315 4.683.67 5.751.936 1.015 4.242 1.163 5.251-.529.81.117 1.385.079 1.385.079v-16.292l-4-1.875z" fill="#FFB76D"/><path d="M23.306 24.492c-.109-.293-.237-.544-.372-.775.036-.361.066-.729.066-1.134 0-3.458-3-4.801-3-10.958l-4 1.875v16.292s.575.038 1.385-.077c1.009 1.691 4.314 1.543 5.251.529.985-1.069 2.129-1.85.67-5.752z" fill="#FFAD68"/><path d="M11.135 23.993c.334 1.675 1.439 3.692 4.865 3.882v-2.875c-1.798 0-3.469-.372-4.865-1.007z" fill="#F7D684"/><path d="M16 27.875c3.425-.19 4.531-2.207 4.865-3.882-1.396.635-3.067 1.007-4.865 1.007v2.875z" fill="#F0C877"/><path d="M16 21c-1.698 0-3.279-.336-4.626-.907-.232.638-.374 1.387-.374 2.49 0 .391.031.884.135 1.41 1.396.635 3.067 1.007 4.865 1.007v-4z" fill="#FAE09F"/><path d="M16 25c1.798 0 3.469-.372 4.865-1.007.104-.526.135-1.019.135-1.41 0-1.103-.142-1.852-.374-2.49-1.347.571-2.928.907-4.626.907v4z" fill="#F7D684"/><path d="M16 17c-1.036 0-2.026-.129-2.95-.355-.308.806-.643 1.45-.895 1.887-.311.537-.579 1.008-.78 1.561 1.346.571 2.927.907 4.625.907v-4z" fill="#FDEBBB"/><path d="M16 21c1.698 0 3.279-.336 4.626-.907-.201-.553-.469-1.024-.78-1.561-.253-.436-.587-1.08-.895-1.887-.925.226-1.915.355-2.951.355v4z" fill="#FAE09F"/><path fill="#FDEBBB" d="M13.856 13h.001z"/><path fill="#FAE09F" d="M18.144 13h-.001.001z"/><path d="M16 14l-1-.792-1.143-.208h-.001c-.096 1.44-.432 2.665-.806 3.645.924.226 1.914.355 2.95.355v-3z" fill="#FFF3D9"/><path d="M18.143 13l-1.143.208-1 .792v3c1.036 0 2.026-.129 2.95-.355-.375-.98-.711-2.205-.806-3.645h-.001z" fill="#FDEBBB"/><path d="M11.021 17l-1.636 1.135c-1.568 1.088-1.851 3.294-.609 4.743l1.15 1.342c.765.893 2.092 1.038 3.033.333l.005-.004c.887-.665 1.151-1.88.62-2.853l-2.563-4.696zM11.021 17l-1.636 1.135c-1.568 1.088-1.851 3.294-.609 4.743l1.15 1.342c.765.893 2.092 1.038 3.033.333l.005-.004c.887-.665 1.151-1.88.62-2.853l-2.563-4.696z" fill="#FFC172"/><path d="M20.979 17l1.636 1.135c1.568 1.088 1.851 3.294.609 4.743l-1.15 1.342c-.765.893-2.092 1.038-3.033.333l-.005-.004c-.887-.665-1.151-1.88-.62-2.853l2.563-4.696zM20.979 17l1.636 1.135c1.568 1.088 1.851 3.294.609 4.743l-1.15 1.342c-.765.893-2.092 1.038-3.033.333l-.005-.004c-.887-.665-1.151-1.88-.62-2.853l2.563-4.696z" fill="#FFB76D"/><path d="M11.455 7.201c0 .181.009.36.025.536.032.348-.02.698-.17 1.014-.2.42-.31.874-.31 1.348 0 2.155 2.239 3.901 5 3.901v-12c-2.51 0-4.545 2.328-4.545 5.201z" fill="#FFC172"/><path d="M21 10.099c0-.474-.11-.928-.31-1.348-.15-.315-.202-.666-.17-1.014.016-.176.025-.355.025-.536 0-2.873-2.035-5.201-4.545-5.201v12c2.761 0 5-1.746 5-3.901zM15.783 1.312l-.669 1.004c-.072.108-.05.255.052.334.189.148.507.35.825.35l.009-.001v-1.796c-.082-.003-.166.032-.217.109z" fill="#FFB76D"/><path d="M16.868 2.316l-.669-1.004c-.048-.071-.123-.106-.199-.109v1.796c.315-.004.628-.203.816-.349.103-.079.124-.226.052-.334z" fill="#FFAD68"/><path d="M14 4c-.137 0-.249-.111-.25-.249-.001-.061-.035-1.501-1.893-1.501-2.884 0-3.107-1.531-3.107-2 0-.138.112-.25.25-.25s.25.112.25.25c0 .953.95 1.5 2.607 1.5 2.365 0 2.393 1.98 2.393 2 0 .138-.111.249-.25.25z" fill="#F7D684"/><path d="M15 11.75c-.082 0-.162-.041-.21-.114-.013-.018-.221-.308-.823-.388-.137-.018-.232-.144-.215-.281.018-.136.134-.242.281-.214.842.112 1.146.564 1.179.615.073.117.038.271-.079.344l-.133.038z" fill="#231F20"/><path d="M13.368 5.653c-.106-.088-.223-.153-.368-.153-.807 0-.968 1.605-1 2.243-.007.142.109.257.252.257h.642c-.178-.263-.288-.591-.288-.952 0-.618.313-1.147.762-1.395z" fill="#fff"/><path d="M12.647 6.726l-.04.321c0 .361.111.689.288.952h.853c.143.001.259-.114.252-.256l-.037-.447-.238.048c-.463 0-.85-.255-1.078-.618z" fill="#4896C8"/><path d="M12.647 6.726c.228.363.615.617 1.077.617l.238-.048c-.064-.573-.22-1.332-.594-1.643-.367.204-.633.6-.721 1.074z" fill="#373F3F"/><path d="M18.632 5.653c.106-.088.223-.153.368-.153.807 0 .968 1.605 1 2.243.007.142-.109.257-.252.257h-.642c.178-.263.288-.591.288-.952 0-.618-.313-1.147-.762-1.395z" fill="#F7F7F7"/><path d="M19.353 6.726l.04.321c0 .361-.111.689-.288.952h-.853c-.143.001-.259-.114-.252-.256l.037-.447.238.048c.463 0 .85-.255 1.078-.618z" fill="#4390BF"/><path d="M19.353 6.726c-.228.363-.615.617-1.077.617l-.238-.048c.064-.573.22-1.332.594-1.643.367.204.633.6.721 1.074z" fill="#2B3332"/><path d="M18 4c-.138 0-.25-.112-.25-.25 0-.02.027-2 2.393-2 1.657 0 2.607-.547 2.607-1.5 0-.138.112-.25.25-.25s.25.112.25.25c0 .469-.224 2-3.107 2-1.871 0-1.893 1.439-1.893 1.5 0 .138-.112.25-.25.25z" fill="#F0C877"/><path d="M17 11.748l-.135-.04c-.114-.075-.149-.225-.077-.34.032-.051.337-.503 1.179-.615.146-.027.263.078.281.214.018.137-.078.263-.215.281-.608.082-.815.376-.823.389-.049.071-.129.111-.21.111z" fill="#231F20"/></g></svg>