<svg xmlns="http://www.w3.org/2000/svg" width="32" height="32" viewBox="0 0 32 32"><g><path d="M25.675 18.114c-.611-1.31-1.953-2.429-3.502-2.922-1.679-.534-3.662-.632-6.06-.299l.274 1.98c2.097-.289 3.791-.217 5.18.225 1.002.319 1.925 1.067 2.295 1.861.235.502.249.989.044 1.488-.735 1.793-4.184 2.163-6.244 2.385l-.727.08c-1.134.136-2.272.23-3.411.326-1.179.099-2.398.2-3.603.348l-.5.057c-1.131.124-2.592.293-3.726.948-.73-.186-1.605-.291-2.224.018-1.079.538-1.987 2.132-2.418 2.998-.148.297.028.649.354.709.952.177 2.771.41 3.85-.128.643-.321 1.096-1.13 1.386-1.845.754-.466 2.03-.607 2.997-.713l.525-.06c1.167-.142 2.367-.242 3.527-.339 1.162-.098 2.323-.195 3.48-.333l.704-.078c2.666-.286 6.694-.719 7.881-3.614.417-1.015.389-2.084-.082-3.092z" fill="#F9ADC8"/><path d="M23.316 12.051l-2.768-.923c-1.707-3.493-4.548-2.572-4.548-2.572v8.819c1.973 0 3.808-.467 5.365-1.262.047-.375.088-.956.079-1.541l1.872-.624c.912-.303.912-1.593 0-1.897z" fill="#FAC4D1"/><path d="M11.452 11.129l-2.768.923c-.912.304-.912 1.593 0 1.897l1.872.624c-.009.585.032 1.166.079 1.541 1.557.795 3.393 1.262 5.365 1.262v-8.82s-2.841-.921-4.548 2.573z" fill="#FBCFD6"/><path d="M22.953 30.118l-2.3-5.691c-.155-.384-.065-.827.244-1.103.346-.309.744-.735 1.199-1.324 1.225-1.588.163-3.681-.868-5.088.05-.258.101-.513.137-.799l-.565.247c-.489.216-.998.401-1.53.551-1.028.289-2.121.463-3.27.463v4.612s1.035.119 2.205-.443l.215.583-.455.956c-.094.197-.121.419-.076.632l1.431 6.916c.121.906 1.155 1.526 2.223 1.334 1.006-.18 1.64-1.011 1.41-1.846z" fill="#FAB8CD"/><path d="M12.73 16.912c-.532-.15-1.042-.335-1.53-.551l-.565-.247c.036.285.087.54.137.799-1.03 1.406-2.092 3.499-.867 5.087.454.589.853 1.015 1.199 1.324.309.276.399.719.244 1.103l-2.3 5.691c-.23.835.404 1.666 1.41 1.847 1.069.192 2.103-.428 2.223-1.334l1.431-6.916c.044-.214.017-.436-.076-.632l-.455-.956.215-.583c1.169.563 2.204.444 2.204.444v-4.612c-1.149 0-2.242-.175-3.27-.464z" fill="#FAC4D1"/><path d="M16 0v10.996s1.286.139 2.714-1.249 4.286-1.248 4.286-4.023c0-1.838-.643-1.561-.643-2.428s1.054-2.134.205-2.983c-.75-.75-3.455.277-3.777.277s-.892-.59-2.785-.59z" fill="#FBCFD6"/><path d="M16 0v10.996s-1.286.139-2.714-1.249-4.286-1.248-4.286-4.023c0-1.838.643-1.561.643-2.428s-1.054-2.135-.205-2.984c.75-.75 3.455.277 3.777.277.321.001.892-.589 2.785-.589z" fill="#FCD8DE"/><path d="M13.899 5.356c-.073-.112-.15-.222-.243-.325-.875-.969-1.469 1.031-1.375 2 .036.369.355.583.737.707-.009-.145-.02-.291-.009-.44.059-.77.396-1.444.89-1.942z" fill="#fff"/><path d="M14.438 7.67c.025-.533-.017-1.514-.538-2.314-.495.498-.832 1.171-.89 1.942-.011.15 0 .295.009.44.408.133.886.164 1.166.169.135.003.246-.101.253-.237z" fill="#4896C8"/><path d="M18.101 5.356c.073-.112.15-.222.243-.325.875-.969 1.469 1.031 1.375 2-.036.369-.355.583-.737.707.009-.145.02-.291.009-.44-.059-.77-.396-1.444-.89-1.942z" fill="#F7F7F7"/><path d="M17.562 7.67c-.025-.533.017-1.514.538-2.314.495.498.832 1.171.89 1.942.011.15 0 .295-.009.44-.408.133-.886.164-1.166.169-.135.003-.246-.101-.253-.237z" fill="#4390BF"/></g></svg>