<svg xmlns="http://www.w3.org/2000/svg" width="32" height="32" viewBox="0 0 32 32"><path fill="#60C46F" d="M30.183.724c-.073-.335-.464-.477-.756-.298-.854.524-2.663 1.265-5.427.574-4-1-9 1-9 7v1h2v-1s0-1 1-1 2 2 5 2c2.894 0 8.58-1.861 7.183-8.276z"/><path fill="#6CD275" d="M19 5c3.91 0 8.767.937 10.852-4.623-.136-.042-.29-.034-.425.048-.854.525-2.663 1.266-5.427.575-4-1-9 1-9 7v1h1v-1s0-3 3-3z"/><path fill="#D9F07D" d="M16 16c-10 0-12 11-7 15h2s.907-.927.985-2.76c1.23.486 2.586.76 4.015.76v-13z"/><path fill="#CBEB6B" d="M20.015 28.24c.078 1.833.985 2.76.985 2.76h2c5-4 3-15-7-15v13c1.429 0 2.785-.274 4.015-.76z"/><path fill="#E6F490" d="M16 8.013c-4.417.001-8 3.57-8 7.987v.016c.002 1.008-.065 2.011-.255 3.001-.623 3.249-.864 8.688 3.255 11.983h2s.744-.75.947-2.244c.661.154 1.346.244 2.053.244v-20.987z"/><path fill="#D9F07D" d="M23.995 16.288c.028-.775-.056-1.579-.273-2.397-.781-2.95-3.275-5.24-6.281-5.765-.488-.085-.968-.113-1.441-.113v20.987c.707 0 1.392-.09 2.053-.244.203 1.494.947 2.244.947 2.244h2c4.123-3.298 3.878-8.748 3.253-11.991-.173-.899-.291-1.807-.258-2.721z"/><path fill="#EDEEEE" d="M9 31s.558 1 1 1l1-1h-2z"/><path fill="#E3E5E5" d="M23 31s-.558 1-1 1l-1-1h2z"/><path fill="#F7F7F7" d="M11 31s.558 1 1 1l1-1h-2z"/><path fill="#EDEEEE" d="M21 31s-.558 1-1 1l-1-1h2z"/><circle fill="#6CD275" cx="11" cy="23" r="1"/><circle fill="#60C46F" cx="21" cy="23" r="1"/><path fill="#6CD275" d="M9 21c0 .552-.448 1-1 1-.323 0-.78-.341-1.105-.625-.227-.198-.227-.552 0-.75.325-.284.782-.625 1.105-.625.552 0 1 .448 1 1z"/><path fill="#60C46F" d="M23 21c0 .552.448 1 1 1 .323 0 .78-.341 1.105-.625.227-.198.227-.552 0-.75-.325-.284-.782-.625-1.105-.625-.552 0-1 .448-1 1z"/><path fill="#F7F7F7" d="M21.076 18h-2.151c-.248 0-.459-.176-.494-.422-.177-1.205-.484-4.578 1.569-4.578s1.746 3.373 1.57 4.578c-.036.246-.246.422-.494.422z"/><path fill="#8A323F" d="M20 13c-1.605 0-1.766 2.058-1.677 3.533.275.585.697.967 1.177.967.828 0 1.5-1.119 1.5-2.5 0-.783-.221-1.474-.559-1.932-.134-.04-.278-.068-.441-.068z"/><ellipse fill="#F7F7F7" cx="19.5" cy="14.5" rx=".5" ry="1"/><path fill="#fff" d="M10.924 18h2.151c.248 0 .459-.176.494-.422.177-1.205.484-4.578-1.569-4.578s-1.746 3.373-1.57 4.578c.036.246.246.422.494.422z"/><path fill="#9A3644" d="M12 13c1.605 0 1.766 2.058 1.677 3.533-.275.585-.697.967-1.177.967-.828 0-1.5-1.119-1.5-2.5 0-.783.221-1.474.559-1.932.134-.04.278-.068.441-.068z"/><ellipse fill="#fff" cx="12.5" cy="14.5" rx=".5" ry="1"/><path fill="#6CD275" d="M16 23c-.552 0-1 .448-1 1s.448 1 1 1v-2z"/><path fill="#60C46F" d="M17 24c0-.552-.448-1-1-1v2c.552 0 1-.448 1-1z"/><path fill="#C84054" d="M16 18.5c-.171 0-.343.034-.5.103-.315.137-.685.137-1 0l-.111-.048c-.176-.077-.382.045-.361.215.089.727.456 2.23 1.972 2.23v-2.5z"/><path fill="#B93D4F" d="M17.972 18.77c.021-.171-.185-.292-.361-.215l-.111.048c-.315.137-.685.137-1 0-.157-.069-.329-.103-.5-.103v2.5c1.516 0 1.883-1.503 1.972-2.23z"/></svg>