<svg xmlns="http://www.w3.org/2000/svg" width="32" height="32" viewBox="0 0 32 32"><path fill="#9ACC2E" d="M21.212 17.122c1.028-.275 2.488-.027 3.403.187.387.09.517.576.227.848-.685.642-1.826 1.588-2.853 1.863-1.028.275-2.488.027-3.403-.187-.387-.09-.517-.576-.227-.848.685-.642 1.826-1.588 2.853-1.863z"/><path fill="#A2D336" d="M10.788 17.122c-1.028-.275-2.488-.027-3.403.187-.387.09-.517.576-.227.848.685.642 1.826 1.588 2.853 1.863 1.028.275 2.488.027 3.403-.187.387-.09.517-.576.227-.848-.685-.642-1.826-1.588-2.853-1.863z"/><path fill="#FFE28A" d="M16 19c-3.866 0-7 2.134-7 6 0 4.976 1.376 5.889 1.845 6.738.089.161.256.262.44.262h2.215c.276 0 .5-.224.5-.5v-1.707c.634.135 1.305.207 2 .207v-11z"/><path fill="#FFD96C" d="M18 29.793v1.707c0 .276.224.5.5.5h2.215c.184 0 .351-.101.44-.262.469-.849 1.845-1.762 1.845-6.738 0-3.866-3.134-6-7-6v11c.695 0 1.366-.072 2-.207z"/><path fill="#FFEAA7" d="M16 12h-2l-.205 2.459c-.17 2.038-.901 4.025-2.266 5.547-.95 1.059-1.522 2.459-1.522 3.994h-.007c0 4.976 1.376 6.889 1.845 7.738.089.161.256.262.44.262h2.215c.276 0 .5-.224.5-.5v-1.591c.338.053.672.085 1 .085v-17.994z"/><path fill="#FFE28A" d="M20.622 20.181c-1.356-1.634-2.241-3.606-2.418-5.722l-.204-2.459h-2v17.994c.341 0 .674-.035 1-.09v1.596c0 .276.224.5.5.5h2.215c.184 0 .351-.101.44-.262.469-.849 1.845-2.762 1.845-7.738 0-1.453-.518-2.783-1.378-3.819z"/><path fill="#A2D336" d="M19.437 24.612c.275 1.028.027 2.488-.187 3.403-.09.387-.576.517-.848.227-.642-.685-1.588-1.826-1.863-2.853-.275-1.028-.027-2.488.187-3.403.09-.387.576-.517.848-.227.642.684 1.588 1.825 1.863 2.853zM22.051 21.201c.921.532 1.778 1.741 2.274 2.538.21.338-.041.773-.439.76-.938-.031-2.414-.168-3.335-.7s-1.778-1.741-2.274-2.538c-.21-.338.041-.773.439-.76.938.03 2.414.168 3.335.7z"/><path fill="#AADB3D" d="M12.563 24.612c-.275 1.028-.027 2.488.187 3.403.09.387.576.517.848.227.642-.685 1.588-1.826 1.863-2.853.275-1.028.027-2.488-.187-3.403-.09-.387-.576-.517-.848-.227-.642.684-1.588 1.825-1.863 2.853zM9.949 21.201c-.921.532-1.778 1.741-2.274 2.538-.21.338.041.773.439.76.938-.031 2.414-.168 3.335-.7.921-.532 1.778-1.741 2.274-2.538.21-.338-.041-.773-.439-.76-.938.03-2.414.168-3.335.7z"/><path fill="#FEF1C6" d="M16 8c-2.209 0-4 2.291-4 4.5s1.791 3.5 4 3.5v-8z"/><path fill="#FFEAA7" d="M20 12.5c0-2.209-1.791-4.5-4-4.5v8c2.209 0 4-1.291 4-3.5z"/><path fill="#fff" d="M13.52 13.5h.96c.25 0 .463-.18.496-.427.094-.714.13-2.073-.976-2.073s-1.07 1.359-.975 2.073c.033.247.246.427.495.427z"/><path fill="#9A3644" d="M14.991 12.057c-.066-.505-.289-.954-.836-1.031-.367.064-.655.467-.655.974 0 .552.336 1 .75 1 .399 0 .718-.419.741-.943z"/><circle fill="#fff" cx="14.3" cy="11.55" r=".25"/><path fill="#F7F7F7" d="M18.48 13.5h-.96c-.25 0-.463-.18-.496-.427-.094-.714-.13-2.073.976-2.073s1.07 1.359.975 2.073c-.033.247-.246.427-.495.427z"/><path fill="#8A323F" d="M17.009 12.057c.066-.505.289-.954.836-1.031.367.064.655.467.655.974 0 .552-.336 1-.75 1-.399 0-.718-.419-.741-.943z"/><circle fill="#F7F7F7" cx="17.7" cy="11.55" r=".25"/><path fill="#AADB3D" d="M15.695.107c-.764.604-2.695 2.367-2.695 4.774 0 2.211 1.356 3.333 2.07 3.772-.041.109-.07.224-.07.347 0 .552.448 1 1 1v-10c-.107 0-.215.036-.305.107z"/><path fill="#A2D336" d="M18.25 3.5l.123.012c.197.038.361-.147.29-.334-.582-1.524-1.789-2.621-2.358-3.07-.09-.072-.198-.108-.305-.108v10c.552 0 1-.448 1-1 0-.124-.029-.24-.07-.349.458-.282 1.177-.844 1.637-1.799.083-.172-.055-.376-.246-.355l-.071.003c-.552 0-1-.672-1-1.5s.448-1.5 1-1.5z"/></svg>