<svg xmlns="http://www.w3.org/2000/svg" width="32" height="32" viewBox="0 0 32 32"><path fill="#BEE758" d="M12.426 20.355s-5.758 2.245-2.549 11.305c.071.2.266.34.478.34h2.12c.286 0 .513-.239.499-.525l-.548-11.12z"/><path fill="#B1E346" d="M19.549 20.355s5.758 2.245 2.549 11.305c-.071.2-.266.34-.478.34h-2.12c-.286 0-.513-.239-.499-.525l.548-11.12z"/><path fill="#E3E5E5" d="M18.574 23.201s-1.574-1.645-3.574-1.645c0 0 1.458-7.045 7.566-3.613.162.091.268.278.263.464-.142 5.7-4.255 4.794-4.255 4.794z"/><path fill="#C84054" d="M18.574 23.201s-1.574-1.645-3.574-1.645c0 0 1.928-5.783 6.729-3.155.165.09.272.28.266.468-.14 4.672-3.421 4.332-3.421 4.332z"/><path fill="#EDEEEE" d="M13.426 23.201s1.574-1.645 3.574-1.645c0 0-1.458-7.045-7.566-3.613-.162.091-.268.278-.263.464.142 5.7 4.255 4.794 4.255 4.794z"/><path fill="#D84459" d="M13.426 23.201s1.574-1.645 3.574-1.645c0 0-1.928-5.783-6.729-3.155-.165.09-.272.28-.266.468.139 4.672 3.421 4.332 3.421 4.332z"/><path fill="#CBEB6B" d="M16 12h-2l-.264 3.172c-.225 2.702-1.71 6.712-3.133 9.02-.382.62-.596 1.36-.596 2.809 0 1.961.545 3.772.848 4.667.069.202.253.332.467.332h1.992c.464 0 .686-.224.686-.5v-1.591c.338.053 1.672.085 2 .085v-17.994z"/><path fill="#BEE758" d="M16 12h2l.264 3.172c.225 2.702 1.71 6.712 3.133 9.02.382.62.596 1.36.596 2.809 0 1.961-.545 3.772-.848 4.667-.069.202-.253.332-.467.332h-1.992c-.464 0-.686-.224-.686-.5v-1.591c-.338.053-1.672.085-2 .085v-17.994z"/><path fill="#D9F07D" d="M16 5c-2.209 0-4 2.291-4 4.5s1.791 3.5 4 3.5v-8z"/><path fill="#CBEB6B" d="M20 9.5c0-2.209-1.791-4.5-4-4.5v8c2.209 0 4-1.291 4-3.5z"/><path fill="#EDEEEE" d="M16 22h-2.2s-2.2 5 2.2 7.167v-7.167z"/><path fill="#E3E5E5" d="M16 22v7.167c4.4-2.167 2.2-7.167 2.2-7.167h-2.2z"/><path fill="#D84459" d="M16 22h-2s-2 4 2 6.167v-6.167z"/><path fill="#C84054" d="M16 22v6.167c4-2.167 2-6.167 2-6.167h-2z"/><path fill="#F7F7F7" d="M12.426 20.355s1.574 1.645 3.574 1.645c0 0-1.458 7.045-7.566 3.613-.162-.091-.268-.278-.263-.464.142-5.7 4.255-4.794 4.255-4.794z"/><path fill="#F3586F" d="M12.426 20.355s1.574 1.645 3.574 1.645c0 0-1.928 5.783-6.729 3.155-.165-.09-.272-.28-.266-.468.139-4.672 3.421-4.332 3.421-4.332z"/><path fill="#EDEEEE" d="M19.574 20.355s-1.574 1.645-3.574 1.645c0 0 1.458 7.045 7.566 3.613.162-.091.268-.278.263-.464-.142-5.7-4.255-4.794-4.255-4.794z"/><path fill="#E85160" d="M19.574 20.355s-1.574 1.645-3.574 1.645c0 0 1.928 5.783 6.729 3.155.165-.09.272-.28.266-.468-.14-4.672-3.421-4.332-3.421-4.332z"/><path fill="#FFD96C" d="M14.977 2.604c.385-.325.418-1.047.034-1.712-.414-.717-1.138-1.075-1.616-.799-.478.276-.53 1.082-.116 1.799.312.54.798.875 1.224.891.244.852.497 2.208.497 4.217 0 .138.112.25.25.25s.25-.112.25-.25c0-2.087-.263-3.503-.523-4.396z"/><path fill="#FFD04D" d="M18.604.093c-.478-.276-1.202.082-1.616.799-.384.665-.351 1.387.034 1.712-.259.893-.522 2.309-.522 4.396 0 .138.112.25.25.25s.25-.112.25-.25c0-2.009.253-3.365.497-4.216.426-.016.912-.351 1.224-.891.414-.718.362-1.524-.117-1.8z"/><path fill="#fff" d="M13.52 10.5h.96c.25 0 .463-.18.496-.427.094-.714.13-2.073-.976-2.073s-1.07 1.359-.975 2.073c.033.247.246.427.495.427z"/><path fill="#FFD96C" d="M14.991 9.057c-.066-.505-.289-.954-.836-1.031-.367.064-.655.467-.655.974 0 .552.336 1 .75 1 .399 0 .718-.419.741-.943z"/><path fill="#373F3F" d="M14.593 8.2c-.11-.091-.255-.146-.425-.172-.231.066-.409.357-.409.722 0 .414.224.75.5.75s.5-.336.5-.75c0-.22-.065-.413-.166-.55z"/><circle fill="#fff" cx="14.3" cy="8.55" r=".25"/><path fill="#F7F7F7" d="M18.48 10.5h-.96c-.25 0-.463-.18-.496-.427-.094-.714-.13-2.073.976-2.073s1.07 1.359.975 2.073c-.033.247-.246.427-.495.427z"/><path fill="#FFD04D" d="M17.009 9.057c.066-.505.289-.954.836-1.031.367.064.655.467.655.974 0 .552-.336 1-.75 1-.399 0-.718-.419-.741-.943z"/><path fill="#2B3332" d="M17.407 8.2c.11-.091.255-.146.425-.172.231.066.409.357.409.722 0 .414-.224.75-.5.75s-.5-.336-.5-.75c0-.22.065-.413.166-.55z"/><circle fill="#F7F7F7" cx="17.7" cy="8.55" r=".25"/><path fill="#FFE28A" d="M13.097 20.923l-.012-.006s-1.447.424-1.565 1.808c-.024.283.203.525.487.536 1.636.064 2.257-1.265 2.389-1.605-.52-.214-.966-.487-1.299-.733z"/><path fill="#FFD96C" d="M18.903 20.923l.012-.006s1.447.424 1.565 1.808c.024.283-.203.525-.487.536-1.636.064-2.257-1.265-2.389-1.605.52-.214.966-.487 1.299-.733z"/></svg>