<svg xmlns="http://www.w3.org/2000/svg" width="32" height="32" viewBox="0 0 32 32"><path fill="#F74000" d="M28.138 22.746l3.104-.776c.754-.188 1.014-1.128.465-1.677l-3.294-3.293 3.293-3.293c.55-.55.289-1.489-.465-1.677l-3.104-.776.848-5.089c.144-.864-.813-1.482-1.541-.996l-6.445 4.297v15.07l6.445 4.297c.728.486 1.685-.133 1.541-.996l-.847-5.091z"/><path fill="#F9C900" d="M21.999 10l5.04-3.36c.364-.243.843.066.771.498l-.811 4.862 3.143.786c.377.094.507.564.232.839l-3.375 3.375 3.376 3.376c.275.275.145.744-.232.839l-3.144.785.81 4.862c.072.432-.406.741-.771.498l-5.039-3.36v-14z"/><path fill="#FF4A00" d="M3.862 22.746l-3.104-.776c-.754-.188-1.014-1.128-.465-1.677l3.294-3.293-3.293-3.293c-.55-.55-.289-1.489.465-1.677l3.104-.776-.849-5.09c-.144-.863.813-1.482 1.541-.996l6.445 4.297v15.07l-6.445 4.297c-.728.486-1.685-.133-1.541-.996l.848-5.09z"/><path fill="#FFD400" d="M10.001 10l-5.04-3.36c-.364-.243-.843.067-.771.498l.811 4.862-3.143.786c-.378.094-.508.564-.233.838l3.376 3.376-3.376 3.376c-.275.274-.145.744.232.838l3.144.786-.81 4.862c-.072.432.406.741.771.498l5.04-3.36v-14z"/><path fill="#E5C79A" d="M7.71 23.509c0 4.2 1.34 6.943 1.97 8 .182.306.506.491.861.491h1.959c.276 0 .5-.224.5-.5v-8.5l-5.29.509z"/><path fill="#E0C193" d="M24.29 23.509c0 4.2-1.34 6.943-1.97 8-.182.306-.506.491-.861.491h-1.959c-.276 0-.5-.224-.5-.5v-8.5l5.29.509z"/><path fill="#EACEA1" d="M16 11c-4.971 0-9 4.029-9 9s4.029 9 9 9v-18z"/><path fill="#E5C79A" d="M25 20c0-4.971-4.029-9-9-9v18c4.971 0 9-4.029 9-9zM7.529 23.016c1.241 3.485 4.56 5.984 8.471 5.984v-2c-3.408 0-6.453-1.551-8.471-3.984z"/><path fill="#E0C193" d="M16 27v2c3.911 0 7.23-2.499 8.471-5.984-2.018 2.433-5.063 3.984-8.471 3.984z"/><path fill="#F5DEB9" d="M8.86 23.3c.814 1.01 2.162 2.177 3.852 1.782.178-.042.328-.192.37-.37.395-1.69-.772-3.038-1.782-3.852-.685-.552-1.679-.481-2.3.14-.621.621-.692 1.615-.14 2.3z"/><path fill="#EFD4A7" d="M23.14 23.3c-.814 1.01-2.162 2.177-3.852 1.782-.178-.042-.328-.192-.37-.37-.395-1.69.772-3.038 1.782-3.852.684-.552 1.678-.481 2.3.14.621.621.692 1.615.14 2.3z"/><path fill="#0F769B" d="M7 20c0 .658.075 1.298.209 1.916.92-1.163 2.791-3.898 2.791-6.916 0-.561-.128-1.013-.332-1.393-1.647 1.631-2.668 3.892-2.668 6.393z"/><path fill="#0A6F8E" d="M22.332 13.607c-.204.38-.332.832-.332 1.393 0 3.018 1.871 5.753 2.791 6.916.134-.618.209-1.258.209-1.916 0-2.501-1.021-4.762-2.668-6.393z"/><path fill="#F5DEB9" d="M16 .01l-.263-.006c-4.683.133-8.589 4.029-8.733 8.712-.101 3.285 1.561 6.184 4.11 7.833 1.142.739 1.866 1.975 2.137 3.308.462 2.265 1.518 3.143 2.749 3.143v-22.99z"/><path fill="#EFD4A7" d="M16 .01v22.99c1.247 0 2.313-.9 2.765-3.228.251-1.294.968-2.487 2.079-3.197 2.498-1.597 4.156-4.39 4.156-7.575 0-4.97-4.031-8.989-9-8.99z"/><path fill="#0F769B" d="M16.503 22.943c.27-.059.528-.167.768-.332l.06-.042c.247-.182.474-.423.677-.735l.024-.037c.207-.328.388-.729.535-1.212l.004-.012c.074-.246.14-.512.196-.801l.009-.029c.143-.759.224-1.665.224-2.743v-2.788c0-4.046 1.227-7.997 3.519-11.331l.028-.041c-1.641-1.743-3.964-2.83-6.547-2.83v22.99c.139 0 .274-.015.408-.038l.095-.019z"/><path fill="#137FA0" d="M15.737.004c-2.443.07-4.669 1.169-6.265 2.865l.009.013c2.292 3.333 3.519 7.284 3.519 11.33v2.788c0 1.11.085 2.04.238 2.812l.013.045c.057.282.124.541.199.781l.002.007c.148.471.328.86.535 1.18l.024.037c.201.303.426.538.67.715l.06.043c.238.161.493.267.76.324l.095.018c.133.023.267.038.404.038v-22.99l-.263-.006z"/><path fill="#373F3F" d="M11.546 11.485c-.062.017-.13.01-.19-.025-.12-.069-.161-.222-.091-.341.234-.405.296-.876.175-1.328-.121-.451-.411-.829-.815-1.062-.81-.467-1.923-.169-2.39.64-.07.119-.223.16-.343.091s-.16-.221-.091-.341c.601-1.041 2.032-1.425 3.073-.823.521.3.893.785 1.048 1.366.156.581.076 1.187-.225 1.707-.034.059-.09.1-.151.116z"/><path fill="#2B3332" d="M20.454 11.485c.062.017.13.01.19-.025.12-.069.161-.222.091-.341-.234-.405-.296-.876-.175-1.328.121-.451.411-.829.815-1.062.81-.467 1.923-.169 2.39.64.069.12.222.161.341.091s.161-.222.091-.341c-.601-1.041-2.032-1.425-3.073-.823-.521.3-.893.785-1.048 1.366s-.076 1.187.225 1.707c.036.059.092.1.153.116z"/></svg>