<svg xmlns="http://www.w3.org/2000/svg" width="32" height="32" viewBox="0 0 32 32"><path fill="#F74000" d="M9.988 4.983l-5.185-2.514c-.214-.104-.438.12-.334.334l2.514 5.185-3.758.376c-.23.023-.308.318-.12.452l7.457 5.315 5.438-5.568-5.184-7.457c-.134-.188-.429-.109-.452.12l-.376 3.757z"/><path fill="#F9C900" d="M10.695 6.397l-4.517-2.56c-.221-.125-.466.12-.341.341l2.56 4.517-3.151.215c-.239.016-.32.326-.121.458l6.144 4.056 4.154-4.154-4.056-6.144c-.132-.2-.442-.118-.458.121l-.214 3.15z"/><path fill="#E5C79A" d="M8 29l-1.794 1.794c-.132.132-.206.311-.206.498v.003c0 .389.316.705.705.705h2.59c.389 0 .705-.316.705-.705v-2.295h-2z"/><path fill="#EACEA1" d="M16 1c-4.093 0-4.535 4.495-5.537 8.913-1.108 4.888-2.249 9.257-3.387 12.077-1.222 3.03-1.84 6.432.707 7.659 3.238 1.559 5.529-2.651 8.217-2.651v-25.998z"/><path fill="#0F769B" d="M9.229 22.021c.747-1.992-.282-4.25-.444-5.309-.567 2.062-1.138 3.865-1.709 5.279-.441 1.093-.8 2.232-.963 3.302 1.065-1.23 2.478-1.572 3.116-3.272z"/><path fill="#E5C79A" d="M16 1c-2.703 0-3.814 1.96-4.545 4.564-.087.31-.876 3.984-.955 4.311.487 0 3.303 1.151 5.5 1.151v-10.026z"/><path fill="#EACEA1" d="M16 1c-2.938 0-4.063 2.708-4.75 5.292 1.212.352 3.017 2.542 4.75 2.542v-7.834z"/><path fill="#0F769B" d="M16 1c-4.093 0-4.535 4.495-5.537 8.913 1.506-1.382 1.599-6.913 3.037-6.913.778 0 1.792 1.375 2.5 1.375v-3.375z"/><path fill="#fff" d="M13.031 4.05c-.158.456-.274 1.121-.227 1.452.289.316 1.233.76 2.048.772.075.001.135-.062.135-.137v-.381l-.035-.09c-.602-.676-1.075-1.317-1.726-1.694-.073-.042-.167-.003-.195.078z"/><path fill="#8A323F" d="M14.73 5.41c-.321-.37-.642-.764-.97-1.045-.117.224-.187.536-.187.897 0 .292.057.559.136.771.245.1.506.168.785.209.122-.197.216-.493.236-.832z"/><ellipse fill="#2B3332" cx="14.12" cy="5.515" rx=".272" ry=".544"/><ellipse fill="#fff" cx="13.989" cy="5.282" rx=".125" ry=".25"/><path fill="#EACEA1" d="M10.521 9.833c-2.333 1.646-7.459 5.736-8.491 6.617-.081.069-.042.201.063.217l.92.145-.794.943c-.073.087-.002.219.111.205l1.67-.439.225 1.077c.05.101.198.089.231-.019l.544-1.058 5.7-1.401-.179-6.287z"/><path fill="#0F769B" d="M13.228 2.385c-.397-.562-.839-1.506-1.083-2.056-.08-.18.083-.37.273-.321.79.205 2.526.904 2.707 1.265.244.489-1.897 1.112-1.897 1.112z"/><path fill="#F74000" d="M22.012 4.983l5.185-2.514c.213-.103.437.121.334.334l-2.514 5.185 3.757.376c.23.023.308.318.12.452l-7.457 5.315-5.437-5.568 5.184-7.457c.134-.188.429-.109.452.12l.376 3.757z"/><path fill="#F9C900" d="M21.305 6.397l4.517-2.56c.221-.125.466.12.341.341l-2.56 4.517 3.151.215c.239.016.32.326.121.458l-6.144 4.056-4.155-4.154 4.056-6.144c.132-.2.442-.118.458.121l.215 3.15z"/><path fill="#DBBA8C" d="M24 29l1.794 1.794c.132.132.206.311.206.498v.003c0 .389-.316.705-.705.705h-2.59c-.389 0-.705-.316-.705-.705v-2.295h2z"/><path fill="#E5C79A" d="M16 1c4.093 0 4.535 4.495 5.537 8.913 1.108 4.888 2.249 9.256 3.387 12.077 1.222 3.03 1.84 6.432-.707 7.659-3.238 1.559-5.529-2.651-8.217-2.651v-25.998z"/><path fill="#0A6F8E" d="M22.771 22.021c-.747-1.992.282-4.25.444-5.309.567 2.062 1.138 3.865 1.709 5.279.441 1.093.8 2.232.963 3.302-1.065-1.23-2.478-1.572-3.116-3.272z"/><path fill="#DBBA8C" d="M16 1c2.703 0 3.814 1.96 4.545 4.564.087.31.876 3.984.955 4.311-.487 0-3.303 1.151-5.5 1.151v-10.026z"/><path fill="#E5C79A" d="M16 1c2.938 0 4.062 2.708 4.75 5.292-1.212.352-3.017 2.541-4.75 2.541v-7.833z"/><path fill="#0A6F8E" d="M16 1c4.093 0 4.535 4.495 5.537 8.913-1.506-1.382-1.599-6.913-3.037-6.913-.778 0-1.792 1.375-2.5 1.375v-3.375z"/><path fill="#fff" d="M18.969 4.05c.158.456.274 1.121.227 1.452-.289.316-1.233.76-2.048.772-.075.001-.135-.062-.135-.137v-.381l.035-.09c.602-.676 1.075-1.317 1.726-1.694.073-.042.167-.003.195.078z"/><path fill="#8A323F" d="M17.27 5.41c.321-.37.642-.764.97-1.045.117.224.187.536.187.897 0 .292-.057.559-.136.771-.245.1-.506.168-.785.209-.122-.197-.216-.493-.236-.832z"/><ellipse fill="#2B3332" cx="17.88" cy="5.515" rx=".272" ry=".544"/><ellipse fill="#fff" cx="18.011" cy="5.282" rx=".125" ry=".25"/><path fill="#E5C79A" d="M21.479 9.833c2.333 1.646 7.459 5.736 8.491 6.617.081.069.042.201-.063.217l-.92.145.794.943c.073.087.002.219-.111.205l-1.67-.439-.225 1.077c-.05.101-.198.089-.231-.019l-.544-1.058-5.7-1.401.179-6.287z"/><path fill="#0A6F8E" d="M18.772 2.385c.397-.562.839-1.506 1.083-2.056.08-.18-.083-.37-.273-.321-.79.205-2.526.904-2.707 1.265-.244.489 1.897 1.112 1.897 1.112z"/></svg>