<svg xmlns="http://www.w3.org/2000/svg" width="32" height="32" viewBox="0 0 32 32"><path fill="#4CAEBC" d="M8.722 12.718c.717-.266 2.211 3.638-.805 4.657-2.959 1-4.125 1.417-4.917 1.625-.208.417-.341.692-.563 1.005-.089.126-.283.096-.331-.051l-.277-1.229s-.641.004-1.259-.042c-.139-.01-.217-.186-.129-.293.309-.375.84-.99.84-.99l-1.177-.587c-.145-.072-.137-.282.014-.343l1.841-.43c-.001.002 4.414-2.45 6.763-3.322z"/><path fill="#3B8FA3" d="M30.323 11.308c2.954 9.162-4.382 14.35-9.946 16.948l-3.972-6.325c6.595-.598 11.264-5.165 13.056-10.612.137-.418.727-.429.862-.011z"/><path fill="#4CAEBC" d="M8 19c-2.25 1.792-6 4.562-6 7s1.5 3.964 3.438 3.964c2.438 0 4-2.048 4-3.562 0-1.938.23-7.592-1.438-7.402z"/><path fill="#51BAC5" d="M15 11.464h-6.5c.042 5.417-2.5 7.542-2.5 12 0 2.542 1.25 7.5 9 7.5v-19.5z"/><path fill="#5BD3D5" d="M15 .964c-2.375 0-2.188-1.312-4.438-.875-1.922.374-3.562 5.292-3.562 7.834 0 3.031 2.685 5.392 5.125 6.917 1 .625 2.21.625 2.875.625v-14.501z"/><path fill="#56C7CD" d="M15 11.964c-3.188-.062-2.912-1.675-4.188-2.312-1.374-.688-2.437-.125-3.812-1.729 0 3.031 2.685 5.392 5.125 6.917 1 .625 2.21.625 2.875.625v-3.501z"/><path fill="#4CAEBC" d="M4.06 28.212c-.59.816-1.394 1.982-1.952 2.797-.278.407.015.955.508.955h3.556c.211 0 .408-.109.52-.288l.906-1.45c.038-.061.037-.138-.002-.198l-1.391-2.122-2.145.306z"/><path fill="#FFEAA7" d="M15 17.589c-1.625-.006-5.667-2.131-6.632-3.939-.184 1.393-.539 2.557-.918 3.651.509 1.406 5.8 4.281 7.55 4.35v-4.062z"/><path fill="#fff" d="M10.812 9.652l-.119-.049.666 2.546c.096.233.426.233.521 0l.297-1.137c-.48-.488-.732-1.044-1.365-1.36z"/><path fill="#2B3332" d="M9.902 7.195c.665.055 1.301.001 1.771-.176.069-.619-.262-1.707-.949-2.332-.562.375-.603.582-.759.902-.305.623-.554 1.099-.063 1.606z"/><path fill="#fff" d="M10.235 1.714c-1.295-.442-2.02.938-2.313 1.584-.381.958-.677 2.003-.849 2.956.299.173.632.332 1.009.507.546.254 1.7.52 2.731.462.241-.858.624-5.098-.578-5.509z"/><path fill="#EB6B48" d="M9.792 7.208c.166-.625.666-4.041-.165-4.408-.812-.357-1.622.856-2.244 3.628.216.114.444.226.698.333.389.165 1.169.364 1.711.447z"/><ellipse transform="matrix(.129 -.992 .992 .129 2.36 13.52)" fill="#333236" cx="8.875" cy="5.417" rx="1.045" ry=".402"/><path fill="#47A1B4" d="M21.278 12.718c-.717-.266-2.211 3.638.805 4.657 2.958 1 4.125 1.417 4.917 1.625.208.417.341.692.563 1.005.089.126.283.096.331-.051l.277-1.229s.641.004 1.259-.042c.139-.01.217-.186.129-.293-.309-.375-.84-.99-.84-.99l1.177-.587c.145-.072.137-.282-.014-.343l-1.841-.43c.001.002-4.414-2.45-6.763-3.322zM22 19c2.25 1.792 6 4.562 6 7s-1.5 3.964-3.438 3.964c-2.438 0-4-2.048-4-3.562 0-1.938-.23-7.592 1.438-7.402z"/><path fill="#4CAEBC" d="M15 11.464h6.5c-.042 5.417 2.5 7.542 2.5 12 0 2.542-1.25 7.5-9 7.5v-19.5z"/><path fill="#56C7CD" d="M15 .964c2.375 0 2.188-1.312 4.438-.875 1.922.374 3.562 5.292 3.562 7.834 0 3.031-2.685 5.392-5.125 6.917-1 .625-2.21.625-2.875.625v-14.501z"/><path fill="#51BAC5" d="M15 11.964c3.188-.062 2.912-1.675 4.188-2.312 1.374-.688 2.437-.125 3.812-1.729 0 3.031-2.685 5.392-5.125 6.917-1 .625-2.21.625-2.875.625v-3.501z"/><path fill="#47A1B4" d="M25.94 28.212c.59.816 1.394 1.982 1.952 2.797.278.407-.015.955-.508.955h-3.556c-.211 0-.408-.109-.52-.288l-.906-1.45c-.038-.061-.037-.138.002-.198l1.391-2.122 2.145.306z"/><path fill="#FFE28A" d="M15 17.589c1.625-.006 5.667-2.131 6.632-3.939.184 1.393.539 2.557.918 3.651-.509 1.406-5.8 4.281-7.55 4.35v-4.062z"/><path fill="#fff" d="M19.188 9.652l.119-.049-.666 2.546c-.096.233-.426.233-.521 0l-.297-1.137c.48-.488.732-1.044 1.365-1.36z"/><path fill="#2B3332" d="M20.098 7.195c-.665.055-1.301.001-1.771-.176-.069-.619.262-1.707.949-2.332.562.375.603.582.759.902.305.623.554 1.099.063 1.606z"/><path fill="#fff" d="M19.765 1.714c1.295-.443 2.021.937 2.313 1.584.382.958.677 2.003.849 2.956-.299.173-.632.332-1.009.507-.546.254-1.7.52-2.731.462-.241-.858-.624-5.098.578-5.509z"/><path fill="#EB6B48" d="M20.208 7.208c-.167-.625-.667-4.042.165-4.408.812-.357 1.621.856 2.244 3.627-.216.114-.444.226-.698.333-.389.166-1.169.365-1.711.448z"/><ellipse transform="matrix(.992 -.129 .129 .992 -.522 2.768)" fill="#333236" cx="21.125" cy="5.417" rx=".402" ry="1.045"/></svg>