<svg xmlns="http://www.w3.org/2000/svg" width="32" height="32" viewBox="0 0 32 32"><path fill="#3B8FA3" d="M30.323 11.308c2.954 9.162-4.382 14.35-9.946 16.948l-3.972-6.325c6.595-.598 11.264-5.165 13.056-10.612.137-.418.727-.429.862-.011z"/><path fill="#51BAC5" d="M8.722 12.718c.717-.266 2.16 4.03-.871 5.005s-4.105.767-4.553 1.21c-.283.28-.638.759-.861 1.072-.089.126-.283.096-.331-.051l-.32-.979s-.505.007-1.216-.102c-.137-.021-.207-.178-.129-.293.29-.424.84-1.179.84-1.179l-1.177-.587c-.145-.072-.137-.282.014-.343l1.668-.673c-.001.001 4.587-2.208 6.936-3.08zM6.75 19.652c-2.438 1.5-4.75 3.875-4.75 6.312s1.5 4 3.438 4c2.438 0 4-1.625 4-3.562s-1.02-6.94-2.688-6.75zM15 11.464h-6.5c.042 5.417-2.5 7.542-2.5 12 0 2.542 1.25 7.5 9 7.5v-19.5z"/><path fill="#FFEAA7" d="M15 19.965c-6.417-1.923-5.917-8.5-6.5-8.5.042 5.417-2.5 7.542-2.5 12 0 2.542 1.25 7.5 9 7.5v-11z"/><path fill="#5BD3D5" d="M15 1c-2.375 0-6 1.875-6 6-3 3.5-.438 9.464 6 9.464v-15.464z"/><path fill="#F3DC93" d="M15 12.5c-1.626 0-2.373-2.81-4.625-1.75-1.063.5-.5-2.375-2.175-2.495-1.578 3.504 1.083 8.209 6.8 8.209v-3.964z"/><path fill="#51BAC5" d="M4.435 28.212c-.59.816-1.394 1.982-1.952 2.797-.278.407.015.955.508.955h3.556c.211 0 .408-.109.52-.288l.906-1.45c.038-.061.037-.138-.002-.198l-1.391-2.122-2.145.306z"/><path fill="#4CAEBC" d="M23.25 19.688c2.438 1.5 4.75 3.874 4.75 6.312s-1.5 4-3.438 4c-2.438 0-4-1.625-4-3.562s1.02-6.94 2.688-6.75zM15 11.464h6.5c-.042 5.417 2.5 7.542 2.5 12 0 2.542-1.25 7.5-9 7.5v-19.5zM25.565 28.248c.59.816 1.394 1.982 1.952 2.797.279.406-.015.955-.508.955h-3.556c-.211 0-.408-.109-.52-.288l-.906-1.45c-.038-.061-.037-.138.002-.198l1.391-2.122 2.145.306zM21.278 12.718c-.717-.266-2.16 4.03.871 5.005s4.105.767 4.553 1.21c.283.28.638.759.861 1.072.089.126.283.096.331-.051l.32-.979s.505.007 1.216-.102c.137-.021.207-.178.129-.293-.29-.424-.84-1.179-.84-1.179l1.177-.587c.145-.072.137-.282-.014-.343l-1.668-.673c.001.001-4.587-2.208-6.936-3.08z"/><path fill="#9A3644" d="M14 3.781c0-.687.625-3.781 1-3.781v6.719c0 .505-1-2.25-1-2.938z"/><path fill="#2B3332" d="M9.962 3.714c-.585.872-.961 1.961-.962 3.284.707.204 2.049.44 4.062.158-.344-1.28-1.923-2.685-3.1-3.442z"/><path fill="#fff" d="M12.251 7.237c.115-.332.186-.712.186-1.122l-.01-.17c-.52-.699-1.249-1.356-1.934-1.862-.457.364-.774 1.134-.774 2.032 0 .388.064.747.168 1.066.601.09 1.386.134 2.364.056z"/><path fill="#EB6B48" d="M11.28 4.727c-.234.18-.405.706-.405 1.335 0 .518.117.966.288 1.21l.587-.009c.168-.246.281-.689.281-1.201 0-.247-.029-.476-.075-.678-.212-.23-.441-.448-.676-.657z"/><ellipse fill="#010101" cx="11.453" cy="6.094" rx=".141" ry=".344"/><path fill="#fff" d="M9.895 9.427l-.72 2.752c-.065.158.051.33.221.33h1.518c.17 0 .286-.173.221-.33l-.72-2.752c-.095-.233-.425-.233-.52 0z"/><path fill="#FFEAA7" d="M15 12.5c-1.626 0-2.373-2.81-4.625-1.75-1.063.5-.5-2.375-2.175-2.495-1.578 3.504 1.083 8.209 6.8 8.209v-3.964z"/><path fill="#56C7CD" d="M15.001 1c2.375 0 6 1.875 6 6 3 3.5.438 9.464-6 9.464v-15.464z"/><path fill="#F3DC93" d="M15.001 12.5c1.626 0 2.373-2.81 4.625-1.75 1.062.5.5-2.375 2.175-2.495 1.578 3.504-1.083 8.209-6.8 8.209v-3.964z"/><path fill="#8A323F" d="M15.001 6.719v-6.719c.375 0 1 3.094 1 3.781s-1 3.443-1 2.938z"/><path fill="#2B3332" d="M20.039 3.714c.585.872.961 1.961.962 3.284-.707.204-2.049.44-4.062.158.344-1.28 1.923-2.685 3.1-3.442z"/><path fill="#fff" d="M17.75 7.237c-.115-.332-.186-.712-.186-1.122l.01-.17c.52-.699 1.249-1.356 1.934-1.862.457.364.774 1.134.774 2.032 0 .388-.064.747-.168 1.066-.601.09-1.386.134-2.364.056z"/><path fill="#EB6B48" d="M18.721 4.727c.234.18.405.706.405 1.335 0 .518-.117.966-.288 1.21l-.587-.009c-.168-.246-.281-.689-.281-1.201 0-.247.029-.476.075-.678.212-.23.441-.448.676-.657z"/><ellipse fill="#010101" cx="18.548" cy="6.094" rx=".141" ry=".344"/><path fill="#fff" d="M20.107 9.427l.72 2.752c.065.158-.051.33-.221.33h-1.518c-.17 0-.286-.173-.221-.33l.72-2.752c.094-.233.424-.233.52 0z"/><path fill="#FFE28A" d="M15.001 12.5c1.626 0 2.373-2.81 4.625-1.75 1.062.5.5-2.375 2.175-2.495 1.578 3.504-1.083 8.209-6.8 8.209v-3.964zM15 19.965c4.125 1.41 6.99.279 8.281-.59.156.531.719 1.78.719 4.089 0 2.542-1.25 7.5-9 7.5v-10.999z"/><path fill="#51BAC5" d="M9.802 18.479c-.331-.376-.866-.497-1.326-.299l-1.577.68c-.329.947-.623 1.9-.779 2.971l.026.276c.046.499.409.911.897 1.021l1.934.435c.489.11.993-.107 1.248-.538l1.012-1.704c.256-.431.205-.977-.126-1.354l-1.309-1.488z"/><path fill="#4CAEBC" d="M19.998 23.022l.95-.958c.308-.31.381-.783.181-1.172l-.617-1.199c-.2-.389-.627-.604-1.059-.534l-1.331.216c-.431.07-.768.41-.835.842l-.205 1.333c-.067.432.152.858.543 1.054l1.204.607c.389.198.862.121 1.169-.189z"/><path fill="#51BAC5" d="M14.247 24.981l-1.174 3.284c-.186.521.2 1.069.753 1.069h1.174v-4.884c-.313 0-.627.177-.753.531z"/><path fill="#4CAEBC" d="M16.927 28.264l-1.174-3.284c-.126-.354-.44-.53-.753-.53v4.883h1.174c.553 0 .939-.548.753-1.069z"/></svg>