<svg xmlns="http://www.w3.org/2000/svg" width="32" height="32" viewBox="0 0 32 32"><path fill="#3B8FA3" d="M30.481 14.438c2.266 7.027-3.361 11.007-7.628 12.999l-3.047-4.851c4.524-2.495 8.639-3.962 10.014-8.139.105-.321.557-.33.661-.009z"/><path fill="#51BAC5" d="M12.237 11.538c-1.398.101-11.721 6.045-11.49 6.443.131.226 1.269 1.121 2.422 1.414 1.012-.03 1.357-.087 1.667-.142 1.414-.253 8.477-4.065 8.477-4.065l-1.076-3.65z"/><path fill="#DADDDC" d="M1.049 17.643c.248-.176.763.586.399.933-.22.21-.445.423-.622.623-.176.2-.355 1.096-.617 1.021s-.521-1.614.84-2.577z"/><path fill="#E3E5E5" d="M1.628 18.099c.197-.232.881.357.614.784-.161.258-.355.549-.477.787s-.052 1.531-.324 1.524c-.272-.008-.893-1.825.187-3.095z"/><path fill="#EDEEEE" d="M2.414 18.422c.152-.263.856.397.763.686l-.492 1.061c-.077.255.135 1.144-.134 1.186-.268.041-.972-1.491-.137-2.933z"/><path fill="#F7F7F7" d="M3.694 19.197c-.025-.481.703-.792 1.101-.524.194.13-.144 1.346-.319 1.669-.175.323-.684 1.096-.902 1.02-.217-.075.16-1.393.12-2.165z"/><path fill="#4CAEBC" d="M7.667 20.25c-2.438 1.5-5.667 3.277-5.667 5.714s1.5 4 3.438 4c2.438 0 4-1.625 4-3.562s-.104-6.342-1.771-6.152z"/><path fill="#51BAC5" d="M15 11.464h-4.25c0 7.619-4.75 8.542-4.75 13 0 2.542 1.25 6.5 9 6.5v-19.5z"/><path fill="#FFEAA7" d="M15 24.125c-1.313 0-6.313-2.5-7.475-3.756-.845 1.228-1.525 2.409-1.525 4.095.687.723 6.375 3.723 9 3.723v-4.062z"/><path fill="#5BD3D5" d="M15 2.08c-.769 0-1.396-.484-1.966-1.083-.949-.996-2.166-.427-2.593 1.168-.338 1.26-.546 2.641-1.14 4.246-1.458 3.943-.171 8.631 5.7 8.631v-12.962z"/><path fill="#8A323F" d="M14.202 3.017c0-.548.499-3.017.798-3.017v5.361c0 .404-.798-1.795-.798-2.344z"/><path fill="#fff" d="M10.344 8.597l-.656 2.509c-.059.144.047.301.202.301h1.385c.155 0 .261-.158.202-.301l-.657-2.509c-.088-.213-.388-.213-.476 0z"/><path fill="#FFEAA7" d="M10.782 9.803c-.932.438-.499-1.962-1.821-2.245-.522 2.333-.068 4.732 1.72 6.159l.274.2.012.008c1.051.671 2.406 1.089 4.032 1.089v-3.615c-1.482 0-2.163-2.562-4.217-1.596z"/><path fill="#fff" d="M11.352 3.135c-.365.697-.883 2.023-1.05 2.705-.025.102.013.205.118.205 0 0 2.385-.089 3.402 0 .105.009.171-.114.118-.205 0 0-.96-2.031-1.335-2.648-.483-.798-1.052-.44-1.253-.057z"/><path fill="#CA684F" d="M11.481 5.293c0 .256.048.499.134.72.749-.013 1.669-.016 2.208.031.105.009.171-.114.118-.205 0 0-.723-1.529-1.159-2.336-.745.194-1.301.92-1.301 1.79z"/><ellipse fill="#010101" cx="12.791" cy="5.101" rx=".228" ry=".557"/><path fill="#fff" d="M11.743 9.592l.352 1.344c.087.212.388.212.475 0l.242-.926c-.317-.23-.663-.398-1.069-.418z"/><path fill="#4CAEBC" d="M5.128 27.471c-1.044-.07-1.792.373-2.09 1.169.348.796.625 1.037.473 1.294-.274.461-1.357 2.066-1.357 2.066h4.889c-.373-.485-.771-1.045-.871-1.344-.05-.149.124-.323.373-1.02.265-.738-.671-2.115-1.417-2.165z"/><path fill="#E3E5E5" d="M3.281 31.125c-.295 0-1.098.358-1.098.875h1.615c.039-.234.028-.875-.517-.875zM6.136 31.125c.295 0 1.098.358 1.098.875h-1.615c-.039-.234-.028-.875.517-.875zM3.999 32c0-.323.259-.783.754-.754.366.022.603.28.56.754h-1.314z"/><path fill="#4CAEBC" d="M17.763 11.538c1.398.101 11.721 6.045 11.49 6.443-.131.226-1.269 1.121-2.422 1.414-1.012-.03-1.357-.087-1.667-.142-1.414-.253-8.477-4.065-8.477-4.065l1.076-3.65z"/><path fill="#DADDDC" d="M28.951 17.643c-.248-.176-.763.586-.399.933.22.21.445.423.622.623.176.2.355 1.096.617 1.021.261-.074.521-1.614-.84-2.577z"/><path fill="#E3E5E5" d="M28.372 18.099c-.197-.232-.881.357-.614.784.161.258.355.549.477.787s.052 1.531.324 1.524c.272-.008.893-1.825-.187-3.095z"/><path fill="#EDEEEE" d="M27.586 18.422c-.152-.263-.856.397-.763.686l.492 1.061s-.135 1.144.134 1.186c.268.041.972-1.491.137-2.933z"/><path fill="#F7F7F7" d="M26.306 19.197c.025-.481-.703-.792-1.101-.524-.194.13.144 1.346.319 1.669.175.323.684 1.096.902 1.02s-.16-1.393-.12-2.165z"/><path fill="#47A1B4" d="M22.333 20.25c2.438 1.5 5.667 3.277 5.667 5.714s-1.5 4-3.438 4c-2.438 0-4-1.625-4-3.562s.104-6.342 1.771-6.152z"/><path fill="#4CAEBC" d="M15 11.464h4.25c0 7.619 4.75 8.542 4.75 13 0 2.542-1.25 6.5-9 6.5v-19.5z"/><path fill="#56C7CD" d="M15 2.08c.769 0 1.396-.484 1.966-1.083.949-.996 2.166-.427 2.593 1.168.338 1.26.546 2.641 1.14 4.246 1.458 3.943.171 8.631-5.7 8.631v-12.962z"/><path fill="#7F1E32" d="M15.798 3.017c0-.548-.499-3.017-.798-3.017v5.361c0 .404.798-1.795.798-2.344z"/><path fill="#fff" d="M19.656 8.597l.656 2.509c.059.144-.047.301-.202.301h-1.385c-.155 0-.261-.158-.202-.301l.656-2.509c.089-.213.389-.213.477 0z"/><path fill="#FFE28A" d="M19.218 9.803c.932.438.499-1.962 1.821-2.245.522 2.333.068 4.732-1.72 6.159l-.274.2-.012.008c-1.051.671-2.406 1.089-4.032 1.089v-3.615c1.482 0 2.163-2.562 4.217-1.596z"/><path fill="#fff" d="M18.648 3.135c.365.697.883 2.023 1.05 2.705.025.102-.013.205-.118.205 0 0-2.385-.089-3.402 0-.105.009-.171-.114-.118-.205 0 0 .96-2.031 1.335-2.648.483-.798 1.052-.44 1.253-.057z"/><path fill="#CA684F" d="M18.519 5.293c0 .256-.048.499-.134.72-.749-.013-1.669-.016-2.208.031-.105.009-.171-.114-.118-.205 0 0 .723-1.529 1.159-2.336.745.194 1.301.92 1.301 1.79z"/><ellipse fill="#010101" cx="17.209" cy="5.101" rx=".228" ry=".557"/><path fill="#fff" d="M18.257 9.592l-.352 1.344c-.087.212-.388.212-.475 0l-.242-.926c.317-.23.663-.398 1.069-.418z"/><path fill="#47A1B4" d="M24.872 27.471c1.044-.07 1.792.373 2.09 1.169-.348.796-.625 1.037-.473 1.294.274.461 1.357 2.066 1.357 2.066h-4.889c.373-.485.771-1.045.871-1.344.05-.149-.124-.323-.373-1.02-.265-.738.671-2.115 1.417-2.165z"/><path fill="#DADDDC" d="M26.719 31.125c.295 0 1.098.358 1.098.875h-1.615c-.039-.234-.028-.875.517-.875zM23.864 31.125c-.295 0-1.098.358-1.098.875h1.615c.039-.234.028-.875-.517-.875zM26.001 32c0-.323-.259-.783-.754-.754-.366.022-.603.28-.56.754h1.314z"/><path fill="#FFE28A" d="M15 24.125c1.312 0 6.312-2.5 7.475-3.756.845 1.228 1.525 2.409 1.525 4.095-.688.723-6.375 3.723-9 3.723v-4.062z"/></svg>