<svg xmlns="http://www.w3.org/2000/svg" width="32" height="32" viewBox="0 0 32 32"><path fill="#A7794C" d="M20.686 11s0-1 2-1 2 6-2 6v-5z"/><circle fill="#A7794C" cx="23" cy="10" r="1"/><path fill="#B38658" d="M11.314 11s0-1-2-1-2 6 2 6v-5z"/><circle fill="#B38658" cx="9" cy="10" r="1"/><path fill="#604631" d="M17.003 2c0 1.105-.105 7 1 7s3-5.895 3-7-.895-2-2-2-2 .895-2 2z"/><path fill="#724D31" d="M15 2c0 1.105.105 7-1 7s-3-5.895-3-7 .895-2 2-2 2 .895 2 2z"/><path fill="#F3586F" d="M17.986 8.284c-.128-.812.003-3.297.016-6.007l.001-.277c0-.551.448-1 1-1s1 .449 1 1c-.003.74-1.242 4.777-2.017 6.284z"/><path fill="#FF5F7E" d="M14.017 8.284c-.775-1.507-2.014-5.544-2.017-6.284 0-.551.448-1 1-1s1 .449 1 1l.001.276c.013 2.71.144 5.196.016 6.008z"/><ellipse fill="#604631" cx="12.5" cy="20" rx="1.5" ry="2"/><ellipse fill="#4F4032" cx="19.5" cy="20" rx="1.5" ry="2"/><path fill="#B38658" d="M16 26h-3.154l-.377 1.225c-.73 2.373 1.044 4.775 3.527 4.775h.004v-6z"/><path fill="#A7794C" d="M19.154 26h-3.154v6h.004c2.483 0 4.257-2.402 3.527-4.775l-.377-1.225z"/><path fill="#604631" d="M16 26h3.154l-.616-2h-2.538z"/><path fill="#724D31" d="M12.846 26h3.154v-2h-2.538z"/><path fill="#4F4032" d="M17.923 22l-.923-3h-1v3z"/><path fill="#604631" d="M14.077 22l.923-3h1v3z"/><path fill="#A7794C" d="M16 22h-1.923l-.615 2h2.538z"/><path fill="#9E6E43" d="M16 24h2.538l-.615-2h-1.923z"/><path fill="#C09265" d="M16 7c-3.314 0-6 3.91-6 7.5s2.686 5.5 6 5.5v-13z"/><path fill="#B38658" d="M22 14.5c0-3.59-2.686-7.5-6-7.5v13c3.314 0 6-1.91 6-5.5z"/><path fill="#FCE8CC" d="M16 13c-1.657 0-3 1.343-3 3s1.343 3 3 3v-6z"/><path fill="#F5DEB9" d="M19 16c0-1.657-1.343-3-3-3v6c1.657 0 3-1.343 3-3z"/><circle fill="#373F3F" cx="14.5" cy="10.5" r=".5"/><circle fill="#2B3332" cx="17.5" cy="10.5" r=".5"/><path fill="#C09265" d="M16 14c-1.105 0-2 .895-2 2s.895 2 2 2v-4z"/><path fill="#B38658" d="M18 16c0-1.105-.895-2-2-2v4c1.105 0 2-.895 2-2z"/><path fill="#373F3F" d="M16 11c-.504 0-.899.74-.974.888-.062.124-.012.273.111.335.124.061.274.012.336-.111.159-.315.415-.612.527-.612v-.5z"/><path fill="#2B3332" d="M16.526 12.112c.044.087.132.138.224.138l.112-.027c.123-.062.173-.211.111-.335-.074-.148-.469-.888-.973-.888v.5c.112 0 .368.297.526.612z"/></svg>