<svg xmlns="http://www.w3.org/2000/svg" width="32" height="32" viewBox="0 0 32 32"><path fill="#E0C193" d="M24.5 15c-1.511 2.519-1.466 6-8.5 6v9c4.422 0 10.976-1.437 11.716-9.788.43-4.855 2.008-5.174 3.016-5.207.115-.004.159-.147.073-.223-.223-.198-.495-.282-.805-.282.147-.362.941-.761 1.894-.949.112-.022.141-.176.04-.229-.787-.418-2.203-.297-2.872-.094.026-.269.245-.556.67-.785.098-.053.086-.195-.019-.23-2.071-.688-3.779.396-5.213 2.787z"/><path fill="#914C39" d="M25.542 19.836c-.959-.959-1.552-2.131-1.789-3.339-.489 1.082-.999 2.178-2.051 3.021.288 1.05.835 2.059 1.676 2.9.965.965 2.147 1.554 3.363 1.79.383-.865.661-1.87.837-3-.732-.318-1.429-.765-2.036-1.372zM25.542 19.836c-.959-.959-1.552-2.131-1.789-3.339-.489 1.082-.999 2.178-2.051 3.021.288 1.05.835 2.059 1.676 2.9.965.965 2.147 1.554 3.363 1.79.383-.865.661-1.87.837-3-.732-.318-1.429-.765-2.036-1.372zM19.582 20.567c-.936.27-2.094.433-3.582.433v9c2.694 0 6.174-.544 8.654-2.849-2.063-1.052-4.268-3.918-5.072-6.584zM19.582 20.567c-.936.27-2.094.433-3.582.433v9c2.694 0 6.174-.544 8.654-2.849-2.063-1.052-4.268-3.918-5.072-6.584z"/><path fill="#F5DEB9" d="M11 15.25c0-1.595-1-4.75-1-7.75 0-3.402 2.409-6.5 6-6.5v29c-5 0-7-3.25-7-7.5 0-3.629 2-5 2-7.25zM11 15.25c0-1.595-1-4.75-1-7.75 0-3.402 2.409-6.5 6-6.5v29c-5 0-7-3.25-7-7.5 0-3.629 2-5 2-7.25z"/><path fill="#99533D" d="M13.062 2.296c-.861-.677-1.878-1.921-8.078-2.296-.121-.007-.212.131-.149.235 1.631 2.691 4.44 4.362 5.704 5.01 0 .001 1.399-2.012 2.523-2.949z"/><path fill="#EACEA1" d="M12.717 28.731c-1.19 0-3.255.768-3.255 2.269 0 .942 2.012 1 3.081 1s3.207-.062 3.207-2.2c0-.977-1.016-1.069-3.033-1.069z"/><path fill="#E5C79A" d="M19.283 28.731c1.19 0 3.255.768 3.255 2.269 0 .942-2.012 1-3.081 1s-3.207-.062-3.207-2.2c0-.977 1.016-1.069 3.033-1.069z"/><ellipse fill="#377360" cx="14" cy="5.925" rx="1" ry="1.075"/><ellipse fill="#fff" cx="14" cy="5.501" rx=".375" ry=".5"/><path fill="#A93949" d="M16 7.971v2.279c-.624 0-1-.504-1-.9v-.631c0-.072.016-.143.096-.201.378-.276.775-.547.904-.547z"/><path fill="#A55F49" d="M13.604 8.775l-.05-.041-1.837.045c-.068-.009-.124.05-.112.117l.197 1.057c.011.06.074.096.131.076l1.74-.658.031-.056-.1-.54zM13.926 10.024l-.061-.021-1.716.657c-.067.014-.1.089-.066.148l.54.93c.031.053.102.066.149.027l1.419-1.202.011-.063-.276-.476z"/><path fill="#EACEA1" d="M21 15.25c0-1.595 1-4.75 1-7.75 0-3.402-2.409-6.5-6-6.5v29c5 0 7-3.25 7-7.5 0-3.629-2-5-2-7.25zM21 15.25c0-1.595 1-4.75 1-7.75 0-3.402-2.409-6.5-6-6.5v29c5 0 7-3.25 7-7.5 0-3.629-2-5-2-7.25z"/><path fill="#99533D" d="M16 27.81v2.19c3.797 0 5.859-1.844 6.586-4.466-1.575 1.278-3.18 2.276-6.586 2.276zM16 27.81v2.19c3.797 0 5.859-1.844 6.586-4.466-1.575 1.278-3.18 2.276-6.586 2.276z"/><path fill="#A55F49" d="M9.012 22.106c.053-1.28.356-2.259.713-3.112 1.025 1.194 3.087 2.006 6.275 2.006v3.5c-3.812 0-5.938-1.062-6.988-2.394zM9.012 22.106c.053-1.28.356-2.259.713-3.112 1.025 1.194 3.087 2.006 6.275 2.006v3.5c-3.812 0-5.938-1.062-6.988-2.394z"/><path fill="#99533D" d="M22.988 22.106c-.053-1.28-.356-2.259-.713-3.112-1.025 1.194-3.087 2.006-6.275 2.006v3.5c3.812 0 5.938-1.062 6.988-2.394zM22.988 22.106c-.053-1.28-.356-2.259-.713-3.112-1.025 1.194-3.087 2.006-6.275 2.006v3.5c3.812 0 5.938-1.062 6.988-2.394z"/><path fill="#A55F49" d="M16 27.81v2.19c-3.797 0-5.859-1.844-6.586-4.466 1.575 1.278 3.18 2.276 6.586 2.276zM16 27.81v2.19c-3.797 0-5.859-1.844-6.586-4.466 1.575 1.278 3.18 2.276 6.586 2.276z"/><path fill="#F5DEB9" d="M4.835.235c.202.333.422.651.656.953l.961.152c.114.016.203-.099.159-.205l-.547-1.056c-.341-.029-.7-.056-1.08-.079-.121-.007-.212.131-.149.235z"/><path fill="#A55F49" d="M10 7.5c0 2.814.87 5.748.979 7.419.596-.239-1.329-7.223.73-8.873.079-.063.11-.16.086-.259-.342-1.41.78-2.65 2.067-2.65.945 0 1.747.613 2.029 1.463.019.057.064.084.109.084v-3.684c-3.591 0-6 3.098-6 6.5z"/><path fill="#914C39" d="M18.938 2.296c.861-.677 1.878-1.921 8.078-2.296.122-.007.212.131.149.235-1.631 2.691-4.44 4.362-5.704 5.01 0 .001-1.399-2.012-2.523-2.949z"/><path fill="#99533D" d="M18.396 8.775l.05-.041 1.837.045c.068-.009.124.05.112.117l-.197 1.057c-.011.06-.074.096-.131.076l-1.74-.658-.031-.056.1-.54zM18.074 10.024l.061-.021 1.716.657c.067.014.1.089.066.148l-.54.93c-.031.053-.102.066-.149.027l-1.419-1.202-.011-.063.276-.476z"/><path fill="#EFD4A7" d="M27.165.235c-.202.333-.422.651-.656.953l-.961.152c-.114.016-.203-.099-.159-.205l.547-1.056c.341-.029.7-.056 1.08-.079.121-.007.212.131.149.235z"/><path fill="#99533D" d="M22 7.5c0 2.814-.87 5.748-.979 7.419-.596-.239 1.329-7.223-.73-8.873-.079-.063-.11-.16-.086-.259.342-1.41-.78-2.65-2.067-2.65-.945 0-1.747.613-2.029 1.463-.019.057-.064.084-.109.084v-3.684c3.591 0 6 3.098 6 6.5z"/><path fill="#F5DEB9" d="M11.25 14.753c-2-.128-6.25 1.247-6.25 3.645 0 .74.625 1.599 1.75 1.599 1.129 0 2.25-3.372 4.5-3.256v-1.988z"/><path fill="#A55F49" d="M6.201 16.4l.01-.092c-.714.553-1.211 1.249-1.211 2.09 0 .74.625 1.599 1.75 1.599.499 0 1.006-.637 1.562-1.347-1.357-.184-2.111-1.283-2.111-2.25zM6.201 16.4l.01-.092c-.714.553-1.211 1.249-1.211 2.09 0 .74.625 1.599 1.75 1.599.499 0 1.006-.637 1.562-1.347-1.357-.184-2.111-1.283-2.111-2.25z"/><path fill="#EACEA1" d="M20.75 14.753c2.188 0 6.25 1.247 6.25 3.645 0 .74-.625 1.599-1.75 1.599-1.129 0-2.062-3.256-4.5-3.256v-1.988zM20.75 14.753c2.188 0 6.25 1.247 6.25 3.645 0 .74-.625 1.599-1.75 1.599-1.129 0-2.062-3.256-4.5-3.256v-1.988z"/><path fill="#99533D" d="M25.799 16.4l-.01-.092c.714.554 1.21 1.249 1.21 2.09 0 .74-.625 1.599-1.75 1.599-.499 0-1.006-.637-1.562-1.347 1.358-.184 2.112-1.283 2.112-2.25zM25.799 16.4l-.01-.092c.714.554 1.21 1.249 1.21 2.09 0 .74-.625 1.599-1.75 1.599-.499 0-1.006-.637-1.562-1.347 1.358-.184 2.112-1.283 2.112-2.25z"/><ellipse fill="#246C57" cx="18" cy="5.925" rx="1" ry="1.075"/><ellipse fill="#315D52" cx="18" cy="5.925" rx="1" ry="1.075"/><ellipse fill="#fff" cx="18" cy="5.501" rx=".375" ry=".5"/><path fill="#9A3644" d="M16 7.971v2.279c.624 0 1-.504 1-.9v-.631c0-.072-.016-.143-.096-.201-.378-.276-.775-.547-.904-.547z"/></svg>