<svg xmlns="http://www.w3.org/2000/svg" width="32" height="32" viewBox="0 0 32 32"><path fill="#FBCFD6" d="M16 27h-2v2l-3.108.777c-.566.142-1.043.524-1.304 1.046l-.227.454c-.165.332.076.723.448.723h6.191v-5z"/><path fill="#FAC4D1" d="M22.411 30.823c-.261-.522-.737-.904-1.304-1.046l-3.107-.777v-2h-2v5h6.191c.372 0 .613-.391.447-.724l-.227-.453z"/><path fill="#C09265" d="M16 5c-6.627 0-12 4.373-12 11 0 .525.045 1.03.111 1.526l-3.77 1.257c-.351.117-.453.554-.2.825.548.588 1.647 1.392 3.548 1.392.551 0 .999-.103 1.367-.268 1.876 3.893 6.066 6.268 10.944 6.268v-22z"/><path fill="#B38658" d="M26.944 20.732c.367.165.816.268 1.367.268 1.902 0 3-.804 3.549-1.392.253-.271.151-.708-.2-.825l-3.77-1.257c.065-.496.11-1.001.11-1.526 0-6.627-5.373-11-12-11v22c4.878 0 9.068-2.375 10.944-6.268z"/><path fill="#373F3F" d="M16 11l-6-6v-2.868c0-.222-.146-.417-.359-.48l-4.764-1.395c-.379-.111-.731.241-.62.62l1.395 4.763c.063.214.258.36.48.36h2.868l2.063 2.063c-.186-.026-.37-.063-.563-.063-2.485 0-4.5 2.239-4.5 5h-.75c-.138 0-.25.112-.25.25v.5c0 .138.112.25.25.25h.841c.153.838.509 1.585.988 2.214l-.713.713c-.098.098-.098.256 0 .354l.354.354c.098.098.256.098.354 0l.69-.69c.634.544 1.398.896 2.237 1v.806c0 .138.112.25.25.25h.5c.138 0 .25-.112.25-.25v-.806c1.624-.202 2.99-1.344 3.62-2.944h1.379v-4.001z"/><ellipse fill="#FFA68E" cx="10.5" cy="13" rx="3.5" ry="4"/><circle fill="#373F3F" cx="11" cy="12" r="1"/><path fill="#2B3332" d="M21.5 8c-.193 0-.377.037-.563.063l2.063-2.063h2.868c.222 0 .417-.146.48-.359l1.395-4.763c.111-.379-.241-.731-.62-.62l-4.763 1.395c-.214.061-.36.257-.36.479v2.868l-6 6v4h1.38c.63 1.601 1.996 2.742 3.62 2.944v.806c0 .138.112.25.25.25h.5c.138 0 .25-.112.25-.25v-.806c.839-.104 1.602-.456 2.237-1l.69.69c.098.098.256.098.354 0l.354-.354c.098-.098.098-.256 0-.354l-.713-.713c.479-.629.835-1.376.988-2.214h.841c.138 0 .25-.112.25-.25v-.5c0-.138-.112-.25-.25-.25h-.751c0-2.76-2.015-4.999-4.5-4.999z"/><ellipse fill="#FF9A7E" cx="21.5" cy="13" rx="3.5" ry="4"/><circle fill="#2B3332" cx="21" cy="12" r="1"/><path fill="#FBCFD6" d="M16 13c-1.105 0-2 1.119-2 2.5s.895 2.5 2 2.5v-5z"/><path fill="#FAC4D1" d="M18 15.5c0-1.381-.895-2.5-2-2.5v5c1.105 0 2-1.119 2-2.5z"/><path fill="#FDE2E6" d="M14.019 15.264l1.681 1.261c.089.067.194.1.3.1v-3.625c-1.04 0-1.885.996-1.981 2.264z"/><path fill="#FCD8DE" d="M16 13v3.625c.106 0 .211-.033.3-.1l1.681-1.261c-.096-1.268-.941-2.264-1.981-2.264z"/><path fill="#F7F7F7" d="M12 32h-2c0-.552.448-1 1-1s1 .448 1 1zM15 32h-2c0-.552.448-1 1-1s1 .448 1 1z"/><path fill="#EDEEEE" d="M19 32h-2c0-.552.448-1 1-1s1 .448 1 1zM22 32h-2c0-.552.448-1 1-1s1 .448 1 1z"/><path fill="#FCE8CC" d="M16 19c-3.602 0-6.646 2.381-7.649 5.654 1.074.778 2.308 1.374 3.649 1.773v.834c0 .354.357.596.686.464l1.814-.725 1.223.815c.084.056.181.084.277.084v-8.899z"/><path fill="#F5DEB9" d="M16.277 27.815l1.223-.815 1.814.726c.329.131.686-.111.686-.465v-.834c1.341-.399 2.575-.995 3.649-1.773-1.003-3.273-4.047-5.654-7.649-5.654v8.899c.097 0 .193-.028.277-.084z"/></svg>