<svg xmlns="http://www.w3.org/2000/svg" width="32" height="32" viewBox="0 0 32 32"><path fill="#E5C79A" d="M18.621 30.034l.379-3.034h-2v3l-.854.854c-.093.093-.146.22-.146.353v.293c0 .276.224.5.5.5h5c.276 0 .5-.224.5-.5v-.123c0-.223-.148-.419-.363-.481l-3.016-.862z"/><path fill="#EACEA1" d="M15 30v-3h-2l.379 3.034-3.017.862c-.214.062-.362.258-.362.481v.123c0 .276.224.5.5.5h5c.276 0 .5-.224.5-.5v-.293c0-.133-.053-.26-.146-.354l-.854-.853z"/><path fill="#4F4032" d="M16.062 10.102s14.754 4.918 6.218 18.655c-.133.214-.407.304-.636.199-1.363-.62-5.582-3.76-5.582-18.854z"/><path fill="#604631" d="M16 10.102s-14.754 4.918-6.218 18.655c.133.214.407.304.636.199 1.363-.62 5.582-3.76 5.582-18.854z"/><path fill="#C09265" d="M16 11c-3.866 0-7 4.029-7 9s3.134 9 7 9v-18z"/><path fill="#B38658" d="M16 11v18c3.866 0 7-4.029 7-9s-3.134-9-7-9z"/><path fill="#CDA073" d="M16 4c-3.866 0-7 2.91-7 6.5s3.134 6.5 7 6.5v-13z"/><path fill="#C09265" d="M23 10.5c0-3.59-3.134-6.5-7-6.5v13c3.866 0 7-2.91 7-6.5z"/><path fill="#EACEA1" d="M15.372 11.751c-.32 1.011-1.255 1.749-2.372 1.749-1.381 0-2.5-1.119-2.5-2.5 0-.39.097-.754.256-1.082l4.616 1.833z"/><path fill="#E5C79A" d="M21.244 9.918c.159.328.256.692.256 1.082 0 1.381-1.119 2.5-2.5 2.5-1.117 0-2.052-.738-2.372-1.749l4.616-1.833z"/><path fill="#2B3332" d="M20.778 10.103c.137.271.222.573.222.897 0 1.105-.895 2-2 2-.906 0-1.663-.607-1.909-1.433l3.687-1.464z"/><path fill="#373F3F" d="M11.222 10.103c-.137.271-.222.573-.222.897 0 1.105.895 2 2 2 .906 0 1.663-.607 1.909-1.433l-3.687-1.464z"/><path fill="#fff" d="M11.688 10.288c-.116.212-.188.453-.188.712 0 .828.672 1.5 1.5 1.5.695 0 1.275-.476 1.445-1.118l-2.757-1.094z"/><path fill="#F7F7F7" d="M17.555 11.382c.17.642.75 1.118 1.445 1.118.828 0 1.5-.672 1.5-1.5 0-.259-.072-.5-.188-.712l-2.757 1.094z"/><path fill="#C84054" d="M12.168 10.478c-.097.155-.168.326-.168.522 0 .552.448 1 1 1 .485 0 .87-.352.962-.809l-1.794-.713z"/><path fill="#B93D4F" d="M18.038 11.191c.092.457.477.809.962.809.552 0 1-.448 1-1 0-.196-.071-.367-.168-.522l-1.794.713z"/><path fill="#C9B88D" d="M23.735 2.636c-.054-.228-.366-.264-.47-.055l-.709 1.419-.757-3.03c-.063-.253-.422-.253-.485 0l-.758 3.03-.704-1.407c-.105-.21-.416-.176-.467.053-.21.938-.486 2.778-.015 4.709.096.394-.024.81-.343 1.06l-2.027 1.585-.776-1.553c-.046-.092-.135-.138-.224-.138s-.178.046-.224.138l-.776 1.553-2.027-1.586c-.32-.25-.44-.665-.343-1.06.471-1.93.195-3.77-.015-4.709-.051-.229-.362-.263-.467-.053l-.704 1.408-.758-3.03c-.063-.253-.422-.253-.485 0l-.757 3.03-.71-1.419c-.105-.21-.416-.173-.47.055-.522 2.205-.145 4.737.065 5.824.065.336.295.611.613.738l7.058 2.802 7.058-2.803c.318-.126.548-.402.613-.738.21-1.086.587-3.618.064-5.823z"/><path fill="#F5DEB9" d="M16 8.309c-.089 0-.178.046-.224.138l-.776 1.553-2.027-1.586c-.32-.25-.44-.665-.343-1.06.471-1.93.195-3.77-.015-4.709-.051-.229-.362-.263-.467-.053l-.704 1.408-.758-3.03c-.063-.253-.422-.253-.485 0l-.757 3.03-.71-1.419c-.105-.21-.416-.173-.47.055-.522 2.205-.145 4.737.065 5.824.065.336.295.611.613.738l7.058 2.802v-3.691z"/><path fill="#EFD4A7" d="M23.058 9.197c.318-.126.548-.402.613-.738.21-1.086.586-3.619.064-5.824-.054-.228-.366-.264-.47-.055l-.709 1.42-.757-3.03c-.063-.253-.422-.253-.485 0l-.758 3.03-.704-1.407c-.105-.21-.416-.176-.467.053-.21.938-.486 2.778-.015 4.709.096.394-.024.81-.343 1.06l-2.027 1.585-.776-1.553c-.046-.092-.135-.138-.224-.138v3.691l7.058-2.803z"/><path fill="#373F3F" d="M12.635 10.664c-.082.089-.135.205-.135.336 0 .276.224.5.5.5.274 0 .495-.22.499-.493l-.864-.343z"/><path fill="#2B3332" d="M18.501 11.007c.004.273.225.493.499.493.276 0 .5-.224.5-.5 0-.131-.053-.247-.135-.336l-.864.343z"/><path fill="#FAC7AF" d="M16 11c-.552 0-1 .672-1 1.5s.448 1.5 1 1.5v-3z"/><path fill="#F9BDA0" d="M17 12.5c0-.828-.448-1.5-1-1.5v3c.552 0 1-.672 1-1.5z"/><path fill="#FCD2BE" d="M15.01 12.359l.84.756.15.06v-2.175c-.52 0-.942.597-.99 1.359z"/><path fill="#FAC7AF" d="M16 11v2.175l.15-.06.84-.756c-.048-.762-.47-1.359-.99-1.359z"/><path fill="#604631" d="M10.827 18h2.346c.376 0 .617.399.443.732l-1.173 2.236c-.187.357-.698.357-.886 0l-1.173-2.236c-.175-.333.067-.732.443-.732z"/><path fill="#4F4032" d="M18.827 18h2.346c.376 0 .617.399.443.732l-1.173 2.236c-.187.357-.698.357-.886 0l-1.173-2.236c-.175-.333.067-.732.443-.732z"/><path fill="#604631" d="M10.827 22h2.346c.376 0 .617.399.443.732l-1.173 2.236c-.187.357-.698.357-.886 0l-1.173-2.236c-.175-.333.067-.732.443-.732z"/><path fill="#4F4032" d="M18.827 22h2.346c.376 0 .617.399.443.732l-1.173 2.236c-.187.357-.698.357-.886 0l-1.173-2.236c-.175-.333.067-.732.443-.732z"/><path fill="#604631" d="M16 22h-1.173c-.376 0-.617.399-.443.732l1.173 2.236c.094.178.268.268.443.268v-3.236z"/><path fill="#4F4032" d="M17.173 22h-1.173v3.236c.175 0 .349-.089.443-.268l1.173-2.236c.175-.333-.067-.732-.443-.732z"/><path fill="#604631" d="M16 18h-1.173c-.376 0-.617.399-.443.732l1.173 2.236c.094.178.268.268.443.268v-3.236z"/><path fill="#4F4032" d="M17.173 18h-1.173v3.236c.175 0 .349-.089.443-.268l1.173-2.236c.175-.333-.067-.732-.443-.732z"/></svg>