<svg xmlns="http://www.w3.org/2000/svg" width="32" height="32" viewBox="0 0 32 32"><circle fill="#DADDDC" cx="10.5" cy="29.5" r="2.5"/><path fill="#7C8AC4" d="M8 30c-.552 0-1-.448-1-1 0-.14.026-3.44 2.293-5.707.391-.391 1.023-.391 1.414 0s.391 1.023 0 1.414c-1.687 1.688-1.707 4.267-1.707 4.293 0 .552-.448 1-1 1z"/><circle fill="#E3E5E5" cx="7.5" cy="29.5" r="2.5"/><circle fill="#D1D4D4" cx="21.5" cy="29.5" r="2.5"/><path fill="#707EB7" d="M24 30c-.551 0-.999-.446-1-.998 0-.055-.046-2.634-1.707-4.295-.391-.391-.391-1.023 0-1.414s1.023-.391 1.414 0c2.267 2.267 2.293 5.567 2.293 5.707 0 .552-.448 1-1 1z"/><circle fill="#DADDDC" cx="24.5" cy="29.5" r="2.5"/><path fill="#373F3F" d="M12 8.778l-.909-4.543c-.058-.29.015-.59.2-.821l2.655-3.319c.18-.225.534-.018.427.249l-1.263 3.158c-.072.18-.09.377-.052.568l.942 4.708h-2z"/><path fill="#2B3332" d="M20 8.778l.909-4.543c.058-.29-.015-.59-.2-.821l-2.655-3.319c-.18-.225-.534-.018-.427.249l1.263 3.158c.072.18.09.377.052.568l-.942 4.708h2z"/><path fill="#FAE09F" d="M16 9c-6.627 0-12 4.477-12 10s5.373 10 12 10v-20z"/><path fill="#F7D684" d="M28 19c0-5.523-5.373-10-12-10v20c6.627 0 12-4.477 12-10z"/><path fill="#F57552" d="M16 9c-6.627 0-12 4.477-12 10s5.373 5.5 12 5.5v-15.5z"/><path fill="#EB6B48" d="M28 19c0-5.523-5.373-10-12-10v15.5c6.627 0 12 .023 12-5.5z"/><path fill="#FDEBBB" d="M16 7c-4.971 0-9 3.582-9 8s4.029 8 9 8v-16z"/><path fill="#FAE09F" d="M25 15c0-4.418-4.029-8-9-8v16c4.971 0 9-3.582 9-8z"/><path fill="#373F3F" d="M4.149 17.501c.974.142 2.172-.287 3.119-1.234 1.367-1.367 1.683-3.266.707-4.243-.088-.088-.192-.154-.294-.222-1.857 1.492-3.13 3.475-3.532 5.699z"/><path fill="#2B3332" d="M27.851 17.501c-.402-2.224-1.675-4.207-3.531-5.698-.102.067-.206.133-.294.222-.976.976-.66 2.876.707 4.243.946.947 2.144 1.375 3.118 1.233z"/><path fill="#FF8D6E" d="M16 7c-4.971 0-9 3.582-9 8s4.029 2 9 2v-10z"/><path fill="#FF805D" d="M25 15c0-4.418-4.029-8-9-8v10c4.971 0 9 2.418 9-2z"/><circle fill="#EDEEEE" cx="11" cy="13" r="3"/><circle fill="#373F3F" cx="11" cy="13" r="2"/><circle fill="#fff" cx="10" cy="12" r="1"/><circle fill="#E3E5E5" cx="21" cy="13" r="3"/><circle fill="#2B3332" cx="21" cy="13" r="2"/><circle fill="#F7F7F7" cx="20" cy="12" r="1"/><path fill="#8694D1" d="M5 30c-.552 0-1-.448-1-1 0-.18.026-4.44 2.293-6.707.391-.391 1.023-.391 1.414 0s.391 1.023 0 1.414c-1.4 1.4-1.707 4.295-1.707 5.293 0 .552-.448 1-1 1z"/><circle fill="#F7F7F7" cx="4.5" cy="29.5" r="2.5"/><path fill="#7C8AC4" d="M27 30c-.551 0-.999-.447-1-.998 0-.036-.029-3.616-1.707-5.294-.391-.391-.391-1.023 0-1.414s1.023-.391 1.414 0c2.267 2.266 2.293 6.526 2.293 6.706 0 .552-.447.999-.999 1h-.001z"/><circle fill="#E3E5E5" cx="27.5" cy="29.5" r="2.5"/></svg>