<svg xmlns="http://www.w3.org/2000/svg" width="32" height="32" viewBox="0 0 32 32"><path fill="#9A3644" d="M14.073 16.319c-1.516-.827-3.721-3.256-7.511-3.256-2.433 0-4.382.738-5.741 1.504-1.13.637-1.081 2.282.07 2.879 1.506.781 3.613 1.492 5.601 1.492 2.206 0 5.237-.482 7.58-1.447l.001-1.172z"/><path fill="#F7D684" d="M14.073 17.49c-2.343.965-5.374 1.447-7.58 1.447-1.596 0-3.268-.458-4.644-1.043-.653-.277-1.098-2.978 4.722-3.082 3.789-.068 5.987 1.429 7.503 2.256l-.001.422z"/><path fill="#9A3644" d="M17.927 16.319c1.516-.827 3.721-3.256 7.511-3.256 2.433 0 4.382.738 5.741 1.504 1.13.637 1.081 2.282-.07 2.879-1.506.781-3.613 1.492-5.601 1.492-2.206 0-5.237-.482-7.58-1.447l-.001-1.172z"/><path fill="#F0C877" d="M17.927 17.069c1.516-.827 3.713-2.324 7.503-2.256 5.82.104 5.375 2.805 4.722 3.082-1.377.585-3.049 1.043-4.644 1.043-2.206 0-5.237-.482-7.58-1.447l-.001-.422z"/><path fill="#373F3F" d="M14 25.615h2v5.333h-2z"/><path fill="#FAE09F" d="M16 14.5v12.5c-3.314 0-5.5-3.062-5.5-6 0-3.314 2.186-6.5 5.5-6.5z"/><path fill="#C84054" d="M16 3.681v12.444c-3.436 0-7-1.426-7-6.222 0-3.437 3.564-6.222 7-6.222z"/><path fill="#FDEBBB" d="M16 13.417v2.708c-3.047 0-6.193-1.121-6.868-4.718 1.368.926 3.432 2.01 6.868 2.01z"/><path fill="#373F3F" d="M12.498 6.254l-.608-3.043c-.044-.22.012-.447.151-.622l2.013-2.516c.136-.17.405-.014.324.189l-.958 2.394c-.055.137-.068.286-.04.43l.594 2.972c.062.309-.175.598-.49.598h-.497c-.237 0-.442-.168-.489-.402zM5.219 25.909c.372.407 1.004.435 1.411.064.027-.024 2.687-2.42 5.058-2.316.552.024 1.019-.403 1.043-.955.024-.552-.403-1.019-.955-1.043-3.203-.142-6.362 2.716-6.495 2.838-.407.373-.435 1.004-.063 1.411l.001.001z"/><ellipse transform="matrix(.738 -.675 .675 .738 -16.175 9.784)" fill="#DADDDC" cx="4.5" cy="25.703" rx="2.5" ry="2.5"/><path fill="#2B3332" d="M18 30.947h-2v-5.333h2z"/><path fill="#F7D684" d="M21.5 21c0 2.938-2.186 6-5.5 6v-12.5c3.314 0 5.5 3.186 5.5 6.5z"/><path fill="#B93D4F" d="M23 9.903c0 4.796-3.564 6.222-7 6.222v-12.444c3.436 0 7 2.785 7 6.222z"/><path fill="#FAE09F" d="M22.868 11.407c-.674 3.597-3.821 4.718-6.868 4.718v-2.708c3.436 0 5.5-1.084 6.868-2.01z"/><path fill="#2B3332" d="M19.502 6.254l.609-3.043c.044-.22-.012-.447-.151-.622l-2.013-2.516c-.136-.17-.405-.014-.324.189l.958 2.394c.055.137.068.286.04.43l-.594 2.972c-.062.309.175.598.49.598h.497c.236 0 .441-.168.488-.402zM26.781 25.909c-.372.407-1.004.435-1.411.064-.027-.024-2.687-2.42-5.058-2.316-.552.024-1.019-.403-1.043-.955s.403-1.019.955-1.043c3.203-.142 6.362 2.716 6.495 2.838.407.373.435 1.004.063 1.411l-.001.001z"/><ellipse transform="matrix(.675 -.738 .738 .675 -10.027 28.63)" fill="#DADDDC" cx="27.5" cy="25.703" rx="2.5" ry="2.5"/><path fill="#A93949" d="M14.354 29.294c-1.057 0-2.553.289-2.834 1.732-.099.506.313.974.829.974h3.651v-2.706h-1.646zM14.354 29.294c-1.057 0-2.553.289-2.834 1.732-.099.506.313.974.829.974h3.651v-2.706h-1.646z"/><path fill="#9A3644" d="M17.646 29.294c1.057 0 2.553.289 2.834 1.732.099.506-.313.974-.829.974h-3.651v-2.706h1.646z"/><path fill="#373F3F" d="M5.469 22.159c.372.407 1.004.435 1.411.064.027-.024 2.687-2.42 5.058-2.316.552.024 1.019-.403 1.043-.955.024-.552-.403-1.019-.955-1.043-3.203-.142-6.362 2.716-6.495 2.838-.407.373-.435 1.004-.063 1.411l.001.001z"/><ellipse transform="matrix(.738 -.675 .675 .738 -13.381 9.475)" fill="#D1D4D4" cx="5.5" cy="21.953" rx="2.5" ry="2.5"/><path fill="#2B3332" d="M26.531 22.159c-.372.407-1.004.435-1.411.064-.027-.024-2.687-2.42-5.058-2.316-.552.024-1.019-.403-1.043-.955s.403-1.019.955-1.043c3.203-.142 6.362 2.716 6.495 2.838.407.373.435 1.004.063 1.411l-.001.001z"/><ellipse transform="matrix(.675 -.738 .738 .675 -7.586 26.674)" fill="#C8CCCB" cx="26.5" cy="21.953" rx="2.5" ry="2.5"/><ellipse transform="matrix(.073 -.997 .997 .073 9.685 31.44)" fill="#137FA0" cx="21.75" cy="10.512" rx="3.261" ry="1.771"/><path fill="#0A6F8E" d="M23.492 9.598c.036.331.051.679.025 1.043-.131 1.796-1.028 3.194-2.004 3.123-.976-.071-1.661-1.585-1.53-3.381l.059-.461c.517-.465 1.193-.756 1.943-.756.554.001 1.066.164 1.507.432z"/><ellipse fill="#fff" cx="21.896" cy="9.042" rx="1" ry="1.25"/><ellipse transform="matrix(.997 -.073 .073 .997 -.737 .773)" fill="#137FA0" cx="10.25" cy="10.512" rx="1.771" ry="3.261"/><path fill="#0A6F8E" d="M8.508 9.598c-.036.331-.051.679-.025 1.043.131 1.796 1.028 3.194 2.004 3.123.976-.071 1.661-1.585 1.53-3.381l-.059-.461c-.517-.465-1.193-.756-1.943-.756-.554.001-1.066.164-1.507.432z"/><ellipse fill="#fff" cx="10.104" cy="9.042" rx="1" ry="1.25"/></svg>