<svg xmlns="http://www.w3.org/2000/svg" width="32" height="32" viewBox="0 0 32 32"><path fill="#78DF7C" d="M16 5.5v17.702c-5.937 0-10.75-3.963-10.75-8.851s4.813-8.851 10.75-8.851z"/><path fill="#0E616D" d="M16 6.711v-1.211c-3.541 0-6.683 1.41-8.641 3.585 1.126-.808 4.633-2.374 8.641-2.374z"/><path fill="#D9F07D" d="M8.709 19.125c-.559.059-4.562 1.25-5.25 1.625s-3.198 5.222-2.312 5.812c.938.625 3.125-3.312 4.375-3.625s3.573-1.075 4-1.188c1.187-.311.375-2.749-.813-2.624z"/><path fill="#0E616D" d="M5.707 19.95c-1.007.314-1.947.636-2.248.8-.261.142-.783.927-1.284 1.879.909.621 1.326 1.037 1.725 1.683.594-.674 1.169-1.262 1.621-1.375.523-.131 1.233-.34 1.914-.548-1.017-.389-1.434-1.472-1.728-2.439z"/><path fill="#D9F07D" d="M6.647 15.625c-.562 0-3.108.663-4.062.875-1.125.25-3.261 4.597-2.375 5.188.938.625 2.41-2.638 3.687-2.812 1.376-.188 3.124-.579 3.563-.625 1.188-.126.813-2.626-.813-2.626z"/><path fill="#0E616D" d="M4.502 16.044c-.744.176-1.49.361-1.917.456-.395.088-.914.68-1.383 1.437.592.854.925 1.271 1.144 2.15.518-.599 1.049-1.144 1.551-1.212.383-.052.795-.12 1.199-.192-.22-.433-.636-1.35-.594-2.639z"/><path fill="#D9F07D" d="M6.147 12.188c-.562 0-1.949-.239-2.687-.062-1.121.267-3.213 3.343-2.291 3.874.978.562 1.627-1.625 2.915-1.625.603 0 2.06.296 2.5.25 1.189-.125 1.189-2.437-.437-2.437z"/><path fill="#0E616D" d="M5.585 12.152c-.283-.025-.612-.058-.939-.077-.437-.025-.871-.026-1.187.05-.42.1-.977.596-1.461 1.204.627.63.794.88 1.189 1.406.267-.211.56-.36.896-.36l.443.03.591.074c-.074-.562-.157-1.521.468-2.327z"/><path fill="#90FB89" d="M16 18.333v10.583c-3.899 0-7.059-2.369-7.059-5.292 0-2.922 3.16-5.291 7.059-5.291z"/><path fill="#E55D53" d="M14 27.5c.766 0 1.25.417 1.25 1.5 0 .833-.666 1-.666 1.655 0 .504.197.813.405 1.136.059.091-.039.22-.147.207-.842-.096-2.342-.981-2.342-2.498 0-1.396.625-2 1.5-2z"/><circle fill="#373F3F" cx="10.687" cy="24.5" r="2.188"/><circle fill="#fff" cx="10.687" cy="24.5" r="1.062"/><ellipse fill="#0E616D" cx="10.979" cy="10.698" rx="1.43" ry="1.106"/><path fill="#6CD275" d="M26.75 14.351c0 4.888-4.813 8.851-10.75 8.851v-17.702c5.937 0 10.75 3.963 10.75 8.851z"/><path fill="#005865" d="M16 6.711v-1.211c3.541 0 6.683 1.41 8.641 3.585-1.126-.808-4.633-2.374-8.641-2.374z"/><path fill="#CBEB6B" d="M23.291 19.125c.559.059 4.562 1.25 5.25 1.625s3.198 5.222 2.312 5.812c-.938.625-3.125-3.312-4.375-3.625s-3.573-1.075-4-1.188c-1.187-.311-.375-2.749.813-2.624z"/><path fill="#005865" d="M26.293 19.95c1.007.314 1.947.636 2.248.8.261.142.783.927 1.284 1.879-.909.621-1.326 1.037-1.725 1.683-.594-.674-1.169-1.262-1.621-1.375-.523-.131-1.233-.34-1.914-.548 1.017-.389 1.434-1.472 1.728-2.439z"/><path fill="#CBEB6B" d="M25.353 15.625c.562 0 3.108.663 4.062.875 1.125.25 3.261 4.597 2.375 5.188-.938.625-2.41-2.638-3.687-2.812-1.376-.188-3.124-.579-3.563-.625-1.188-.126-.813-2.626.813-2.626z"/><path fill="#005865" d="M27.498 16.044c.744.176 1.49.361 1.917.456.395.088.914.68 1.383 1.437-.592.854-.925 1.271-1.144 2.15-.518-.599-1.049-1.144-1.551-1.212-.383-.052-.795-.12-1.199-.192.22-.433.636-1.35.594-2.639z"/><path fill="#CBEB6B" d="M25.853 12.188c.562 0 1.949-.239 2.688-.062 1.121.268 3.213 3.344 2.29 3.875-.978.562-1.627-1.625-2.915-1.625-.603 0-2.06.296-2.5.25-1.189-.126-1.189-2.438.437-2.438z"/><path fill="#005865" d="M26.415 12.152c.661-.059 1.574-.159 2.126-.027.42.1.977.596 1.461 1.204-.627.63-.794.88-1.189 1.406-.267-.211-.56-.36-.896-.36-.245 0-.632.049-1.034.104.074-.562.157-1.521-.468-2.327z"/><path fill="#84ED82" d="M23.059 23.625c0 2.922-3.161 5.292-7.059 5.292v-10.584c3.899 0 7.059 2.369 7.059 5.292z"/><path fill="#D64F45" d="M18.312 27.5c-.766 0-1.25.417-1.25 1.5 0 .833.666 1 .666 1.655 0 .504-.197.813-.405 1.136-.059.091.039.22.147.207.844-.097 2.343-.983 2.343-2.499-.001-1.395-.625-1.999-1.501-1.999z"/><circle fill="#2B3332" cx="21.312" cy="24.5" r="2.188"/><circle fill="#F7F7F7" cx="21.312" cy="24.5" r="1.062"/><ellipse fill="#005865" cx="21.021" cy="10.698" rx="1.43" ry="1.106"/><path fill="#fff" d="M16 19.042c-.671 0-1.75 2.542-1.833 2.875-.083.333 1.175.708 1.833.708v-3.583z"/><path fill="#F7F7F7" d="M16 19.042c.659 0 1.75 2.542 1.833 2.875.083.333-1.163.708-1.833.708v-3.583z"/><path fill="#005865" d="M21.478 15.199c-1.089-1.088-3.341-1.848-5.478-1.848v1.5c1.954 0 3.734.726 4.417 1.408.146.146.338.22.53.22s.384-.073.53-.22c.294-.293.294-.768.001-1.06z"/><path fill="#0E616D" d="M16 13.351c-2.137 0-4.389.76-5.478 1.848-.293.292-.293.768 0 1.061.146.146.338.22.53.22.191 0 .384-.073.53-.22.683-.683 2.463-1.408 4.417-1.408v-1.501z"/></svg>