<svg xmlns="http://www.w3.org/2000/svg" width="32" height="32" viewBox="0 0 32 32"><path fill="#C84054" d="M16 22.667c-3.667 0-9-3.833-9-9.917 0-4.917 4.5-8.75 9-8.75v18.667z"/><path fill="#373F3F" d="M7.122 14.235c.779 5.212 5.52 8.432 8.878 8.432v-13.584c-3.512 0-7.023 2.055-8.878 5.152z"/><path fill="#C84054" d="M8.247 17.541c1.79 3.239 5.176 5.125 7.753 5.125v-8.792c-2.901.001-5.786 1.434-7.753 3.667z"/><path fill="#373F3F" d="M16 22.667v-5.292c-2.126 0-4.24 1.033-5.994 2.462 1.807 1.807 4.113 2.83 5.994 2.83z"/><path fill="#7A63AD" d="M10.001 18.125c-1.085-.333-1.168-.375-1.917-.5-.375 1.917 1.229 5.312.229 6.396-1 1.083-1.271 1.667-2.188 2.75-.664.784-1.462 2.362-1.899 3-.074.108-.242.045-.227-.085.121-1.002 1.711-13.228 3.544-13.519.938-.149 2.401.401 2.958.958.16.159-.284 1.066-.5 1z"/><path fill="#DDAA5F" d="M8.394 23.904c-.54-.341-1.127-.639-1.764-.872-.497-.182-.997-.317-1.494-.41-.288 1.44-.533 2.899-.721 4.12.258.07.515.135.773.23.207.076.397.172.593.26.117-.169.233-.329.345-.461.917-1.083 1.188-1.667 2.188-2.75l.08-.117zM6.834 16.854c-.436.756-.846 2.061-1.213 3.563 1.117.27 2.123.747 2.927 1.396-.211-1.376-.677-3.017-.469-4.155-.375-.304-.79-.577-1.245-.804z"/><path fill="#F0C877" d="M11.375 21.25c-.751-.489-2.11-1.42-3.042-1.208-1.499.34-.957 3.489-1.957 4.572s-2.25 1.417-3.167 2.5c-.664.784-1.546 2.049-1.982 2.688-.074.108-.222.046-.227-.085-.043-1.175-.177-3.448 1.542-6.186 2.25-3.583 4.624-5.155 5.75-5.25.673-.056 3.395 1.155 4.124 1.803.376.333-.852 1.289-1.041 1.166z"/><path fill="#E85160" d="M16 30c-.5 0-6-1.417-6-6 0-1.667 1.5-5 6-5v11z"/><path fill="#F7F7F7" d="M16 16.75c-.641 0-1.75 4.833-1.833 5.167-.083.333 1.457.708 1.833.708v-5.875z"/><path fill="#9D85D3" d="M4.477 23.679c-.52-.278-1.051-.495-1.585-.664l-.349.516c-.757 1.206-1.143 2.314-1.348 3.285.438.154.874.333 1.303.562l.333.206.379-.47c.85-1.005 1.985-1.372 2.943-2.283-.5-.43-1.057-.822-1.676-1.152zM4.661 20.746l.379.173c.787.421 1.47.941 2.06 1.516.19-1.108.385-2.201 1.233-2.393.673-.153 1.567.291 2.295.733-.746-.822-1.382-1.61-1.923-2.446-.176-.059-.331-.056-.413-.049-.77.065-2.13.844-3.631 2.466z"/><ellipse transform="matrix(.934 -.356 .356 .934 -1.754 4.9)" fill="#373F3F" cx="12.417" cy="7.208" rx="2.125" ry="1.292"/><path fill="#F0C877" d="M13.632 11.96c.042-.208-1.361-1.208-2.667-.625-.403-1.208-3.262-9.88-9.5-11.25-5.722-1.256 7.058 11.779 8.542 13.277.086.087.212.107.325.057l3.3-1.459z"/><path fill="#9D85D3" d="M4.954 1.794c-1.221.513-2.323 1.246-3.273 2.14 1.319 1.824 3.2 3.978 4.856 5.782.824-.873 1.784-1.613 2.853-2.18-.984-1.945-2.446-4.19-4.436-5.742z"/><path fill="#77658C" d="M11.899 21.825c1.843-.579 2.479 3.272 2.517 3.597s-.879 1.126-1.186 1.202-1.581-.174-1.937-.649c-.402-.536-.481-3.808.606-4.15z"/><path fill="#080908" d="M12.153 22.657c1.226-.31 1.623 2.142 1.648 2.355.025.213-.575.737-.776.787-.201.049-1.035-.114-1.268-.425-.264-.351-.382-2.52.396-2.717z"/><path fill="#77658C" d="M11.931 21.825c1.843-.579 2.479 3.272 2.517 3.597s-.879 1.126-1.186 1.202-1.581-.174-1.937-.649c-.402-.536-.481-3.808.606-4.15z"/><path fill="#080908" d="M12.222 22.999c1.091-.276 1.444 1.906 1.466 2.095.022.189-.512.656-.691.7-.179.044-.921-.101-1.128-.378-.235-.312-.339-2.242.353-2.417z"/><path fill="#DADDDC" d="M14.625 29.292c-.019.404-.135 1.103-.135 1.103s.585 1.02 1.01 1.605c-.875 0-2.126-.117-2.87-.755-.744-.638-1.577-2.331-.838-3.287.708-.916 2.875.459 2.833 1.334z"/><ellipse transform="matrix(.962 -.272 .272 .962 -5.878 4.381)" fill="#F6F2EF" cx="12.896" cy="23.438" rx=".5" ry=".75"/><path fill="#B93D4F" d="M16 22.667c3.667 0 9-3.833 9-9.917 0-4.917-4.5-8.75-9-8.75v18.667z"/><path fill="#2B3332" d="M24.878 14.235c-.779 5.212-5.52 8.432-8.878 8.432v-13.584c3.512 0 7.023 2.055 8.878 5.152z"/><path fill="#B93D4F" d="M23.753 17.541c-1.79 3.239-5.176 5.125-7.753 5.125v-8.792c2.901.001 5.786 1.434 7.753 3.667z"/><path fill="#2B3332" d="M16 22.667v-5.292c2.126 0 4.24 1.033 5.994 2.462-1.807 1.807-4.113 2.83-5.994 2.83z"/><path fill="#6E57A0" d="M21.999 18.125c1.085-.333 1.168-.375 1.917-.5.375 1.917-1.229 5.312-.229 6.396 1 1.083 1.271 1.667 2.188 2.75.664.784 1.462 2.362 1.899 3 .074.108.242.045.227-.085-.119-1.002-1.709-13.228-3.542-13.519-.938-.149-2.401.401-2.958.958-.162.159.282 1.066.498 1z"/><path fill="#D4994F" d="M23.606 23.904c.54-.341 1.127-.639 1.764-.872.497-.182.997-.317 1.494-.41.288 1.44.533 2.899.721 4.12-.258.07-.515.135-.773.23-.207.076-.397.172-.593.26-.117-.169-.233-.329-.345-.461-.917-1.083-1.188-1.667-2.188-2.75l-.08-.117zM25.166 16.854c.436.756.846 2.061 1.213 3.563-1.117.27-2.123.747-2.927 1.396.211-1.376.677-3.017.469-4.155.375-.304.79-.577 1.245-.804z"/><path fill="#E8BA67" d="M20.625 21.25c.751-.489 2.11-1.42 3.042-1.208 1.499.34.957 3.489 1.957 4.572s2.25 1.417 3.167 2.5c.664.784 1.546 2.049 1.982 2.688.074.108.222.046.227-.085.043-1.175.177-3.448-1.542-6.186-2.25-3.583-4.624-5.155-5.75-5.25-.673-.056-3.395 1.155-4.124 1.803-.376.333.852 1.289 1.041 1.166z"/><path fill="#D84459" d="M16 30c.5 0 6-1.417 6-6 0-1.667-1.5-5-6-5v11z"/><path fill="#EDEEEE" d="M16 16.75c.641 0 1.75 4.833 1.833 5.167.083.333-1.457.708-1.833.708v-5.875z"/><path fill="#9179C6" d="M27.523 23.679c.52-.278 1.051-.495 1.585-.664l.349.516c.757 1.206 1.143 2.314 1.348 3.285-.438.154-.874.333-1.303.562l-.333.206-.379-.47c-.85-1.005-1.985-1.372-2.943-2.283.5-.43 1.057-.822 1.676-1.152zM27.339 20.746l-.379.173c-.787.421-1.47.941-2.06 1.516-.19-1.108-.385-2.201-1.233-2.393-.673-.153-1.567.291-2.295.733.746-.822 1.382-1.61 1.923-2.446.176-.059.331-.056.413-.049.77.065 2.13.844 3.631 2.466z"/><ellipse transform="matrix(.356 -.934 .934 .356 5.867 22.935)" fill="#2B3332" cx="19.583" cy="7.208" rx="1.292" ry="2.125"/><path fill="#E8BA67" d="M18.368 11.96c-.042-.208 1.361-1.208 2.667-.625.403-1.208 3.262-9.88 9.5-11.25 5.722-1.256-7.058 11.779-8.542 13.277-.086.087-.212.107-.325.057l-3.3-1.459z"/><path fill="#9179C6" d="M27.046 1.794c1.221.513 2.323 1.247 3.273 2.141-1.319 1.823-3.2 3.978-4.856 5.782-.824-.873-1.784-1.613-2.853-2.18.984-1.946 2.446-4.191 4.436-5.743z"/><path fill="#77658C" d="M20.101 21.825c-1.843-.579-2.479 3.272-2.517 3.597-.038.325.879 1.126 1.186 1.202s1.581-.174 1.937-.649c.402-.536.481-3.808-.606-4.15z"/><path fill="#080908" d="M19.847 22.657c-1.226-.31-1.623 2.142-1.648 2.355-.025.213.575.737.776.787.201.049 1.035-.114 1.268-.425.264-.351.382-2.52-.396-2.717z"/><path fill="#77658C" d="M20.069 21.825c-1.843-.579-2.479 3.272-2.517 3.597s.879 1.126 1.186 1.202 1.581-.174 1.937-.649c.402-.536.481-3.808-.606-4.15z"/><path fill="#080908" d="M19.778 22.999c-1.091-.276-1.444 1.906-1.466 2.095s.512.656.691.7c.179.044.921-.101 1.128-.378.235-.312.339-2.242-.353-2.417z"/><path fill="#D1D4D4" d="M20.208 27.958c.739.956-.094 2.649-.838 3.287-.744.638-1.995.755-2.87.755.425-.585 1.01-1.605 1.01-1.605s-.116-.699-.135-1.103c-.042-.875 2.125-2.25 2.833-1.334z"/><ellipse transform="matrix(.272 -.962 .962 .272 -8.639 35.462)" fill="#F6F2EF" cx="19.104" cy="23.438" rx=".75" ry=".5"/></svg>