<svg xmlns="http://www.w3.org/2000/svg" width="32" height="32" viewBox="0 0 32 32"><path fill="#137FA0" d="M5.875 4.958c-3-2.375-5.333-2.917-5.333-2.917 1.657 1.617 2.648 4.802 2.706 9.975.001.103.041.194.096.273l5.294-4.458c-.824-1.043-1.769-2.086-2.763-2.873z"/><path fill="#0A6F8E" d="M3.344 12.29c.087.125.224.214.387.221 4.222.179 6.885 2.67 7.728 3.031v-3.5s-1.158-2.105-2.82-4.211l-5.295 4.459z"/><path fill="#A366AD" d="M12 13.542c-.201 0-.391-.122-.467-.321-.153-.4-2.18-3.992-4.899-6.922-2.482-2.673-6.238-3.808-6.276-3.82-.265-.078-.416-.356-.337-.621.078-.264.359-.416.621-.337.165.048 4.058 1.226 6.724 4.097 2.728 2.938 4.865 6.631 5.101 7.244.099.258-.029.547-.287.646l-.18.034zM12 19c-1.205 0-8.304.521-10.979 5.649-.122.233.215.518.375.31 1.021-1.333 4.29-2.323 5.346-1.045.123.149.352.101.42-.08.706-1.883 2.384-3.834 4.838-3.834v-1zM13.062 21.871c0 .243-.022 1.009-.034 1.405-.003.098.115.155.198.096l.29-.206.389.646c.047.079.167.079.215.001l.346-.568.325.309c.078.074.211.022.211-.083v-1.363c0-.001-1.94-.511-1.94-.237z"/><path fill="#B370B9" d="M16 9.5c-2.607 0-5.5 2.536-5.5 6.5s2.75 7 5.5 7v-13.5zM15.216 10.394c-.725-1.08-3.256-3.748-4.899-4.743-.199-.12-.439.08-.362.299.747 2.108 2.954 5.588 2.954 5.588l2.307-1.144z"/><path fill="#DADDDC" d="M16 13.25c-.583 0-1.956 1.685-2.41 2.765-.038.092.053.179.147.146.71-.244 1.704-.411 2.263-.411v-2.5z"/><path fill="#FFD96C" d="M13.437 11.344c.844.031 1.719 1.156 1.719 1.156s-.719 1.125-1.562.594c-.668-.42-.469-1.375-.157-1.75z"/><path fill="#8A323F" d="M13.776 11.412c-.184.272-.28.833.134 1.094.446.281.835-.138.971-.315-.258-.267-.666-.629-1.105-.779z"/><path fill="#137FA0" d="M26.125 4.958c3-2.375 5.333-2.917 5.333-2.917-1.657 1.617-2.648 4.802-2.706 9.975-.001.103-.041.194-.096.273l-5.294-4.458c.824-1.043 1.769-2.086 2.763-2.873z"/><path fill="#0A6F8E" d="M28.656 12.29c-.087.125-.224.214-.387.221-4.222.179-6.885 2.67-7.728 3.031v-3.5s1.158-2.105 2.82-4.211l5.295 4.459z"/><path fill="#945BA0" d="M20 13.542l-.18-.033c-.258-.099-.386-.388-.287-.646.235-.613 2.373-4.307 5.101-7.244 2.666-2.872 6.56-4.049 6.725-4.098.263-.08.543.073.621.337.078.265-.072.542-.337.622-.038.011-3.801 1.153-6.276 3.819-2.72 2.93-4.746 6.522-4.899 6.922-.077.198-.267.321-.468.321zM20 13.542l-.18-.033c-.258-.099-.386-.388-.287-.646.235-.613 2.373-4.307 5.101-7.244 2.666-2.872 6.56-4.049 6.725-4.098.263-.08.543.073.621.337.078.265-.072.542-.337.622-.038.011-3.801 1.153-6.276 3.819-2.72 2.93-4.746 6.522-4.899 6.922-.077.198-.267.321-.468.321zM20 19c1.205 0 8.304.521 10.979 5.649.122.233-.215.518-.375.31-1.021-1.333-4.29-2.323-5.346-1.045-.123.149-.352.101-.42-.08-.706-1.883-2.384-3.834-4.838-3.834v-1zM18.938 21.871c0 .243.022 1.009.034 1.405.003.098-.115.155-.198.096l-.29-.206-.389.646c-.047.079-.167.079-.215.001l-.346-.568-.325.309c-.078.074-.211.022-.211-.083v-1.363c0-.001 1.94-.511 1.94-.237z"/><path fill="#A366AD" d="M16 9.5c2.607 0 5.5 2.536 5.5 6.5s-2.75 7-5.5 7v-13.5zM16.784 10.394c.725-1.08 3.256-3.748 4.899-4.743.199-.12.439.08.362.299-.747 2.108-2.954 5.588-2.954 5.588l-2.307-1.144z"/><path fill="#FFD96C" d="M18.562 11.344c-.844.031-1.719 1.156-1.719 1.156s.719 1.125 1.562.594c.669-.42.47-1.375.157-1.75z"/><path fill="#8A323F" d="M18.224 11.412c.184.272.28.833-.134 1.094-.446.281-.835-.138-.971-.315.258-.267.666-.629 1.105-.779z"/><path fill="#EDEEEE" d="M14.719 14.262c-.463.55-.906 1.223-1.128 1.752-.038.092.053.179.147.146.295-.102.64-.185.982-.253v-1.645z"/><path fill="#C8CCCB" d="M16 13.25c.583 0 1.956 1.685 2.41 2.765.038.092-.053.179-.147.146-.71-.244-1.704-.411-2.263-.411v-2.5z"/><path fill="#ABB2B1" d="M17.281 14.262c.463.55.906 1.223 1.128 1.752.038.092-.053.179-.147.146-.295-.102-.64-.185-.982-.253v-1.645z"/></svg>