<svg xmlns="http://www.w3.org/2000/svg" width="32" height="32" viewBox="0 0 32 32"><path d="M9.952 13.555l-3.563.713c-.949.19-1.852.561-2.66 1.094l-3.729 2.461v8.472c0 .211.245.327.408.194l.444-.363c.095-.078.158-.188.177-.309l.47-2.993.415 1.962c.039.183.258.26.403.142l.535-.438c.095-.078.158-.188.177-.309l.471-2.991.414 1.959c.039.183.258.26.403.142l.535-.438c.095-.078.158-.188.177-.309l.47-2.991.415 1.96c.039.183.258.26.403.142l.538-.44c.095-.078.158-.188.177-.309l.468-2.973.412 1.946c.039.183.258.26.403.142l2.685-2.198v-4.268h-1.048z" fill="#FFD96C"/><path d="M25.611 14.267l-3.563-.713h-1.048v4.268l2.686 2.197c.145.119.364.042.403-.142l.412-1.946.467 2.971c.019.121.082.232.177.309l.538.44c.145.119.364.042.403-.142l.415-1.96.47 2.991c.019.121.082.232.177.309l.535.438c.145.119.364.042.403-.142l.414-1.955.47 2.989c.019.121.082.232.177.309l.535.438c.145.119.364.042.403-.142l.415-1.962.47 2.993c.019.121.082.232.177.309l.444.363c.164.135.409.019.409-.192v-8.472l-3.729-2.461c-.808-.533-1.711-.905-2.66-1.095z" fill="#FFD04D"/><path d="M15.992 22.823h-1.992v8l1.553.776c.138.069.289.103.439.105v-8.881z" fill="#D64F45"/><path d="M15.992 22.823v8.881c.156.001.312-.033.455-.105l1.553-.776v-8h-2.008z" fill="#D1473D"/><path d="M13 9.823l-6.881 2.58c-.741.278-1.434.671-2.052 1.166l-3.692 2.953c-.237.19-.375.478-.375.782v.519l3.728-2.461c.808-.533 1.711-.905 2.66-1.095l3.563-.713h3l.049-3.731z" fill="#E0B12E"/><path d="M10 21.823l-3.637 9.092c-.151.379.19.77.586.671l3.051-.763 2-8-2-1z" fill="#E55D53"/><path d="M12 22.823l-2 8 1.553.776c.282.141.613.141.894 0l1.553-.776v-8h-2z" fill="#FFE28A"/><path d="M22 21.823l3.637 9.092c.151.379-.19.77-.586.671l-3.051-.763-2-8 2-1z" fill="#D64F45"/><path d="M20 22.823l2 8-1.553.776c-.282.141-.613.141-.894 0l-1.553-.776v-8h2z" fill="#FFD96C"/><path d="M19 9.823l6.881 2.58c.741.278 1.434.671 2.052 1.166l3.692 2.953c.237.19.375.478.375.782v.519l-3.728-2.461c-.808-.533-1.711-.905-2.66-1.095l-3.563-.713h-3l-.049-3.731z" fill="#DBA728"/><path d="M16 9.823c-4.418 0-7 3.582-7 8s2.582 8 7 8v-16z" fill="#FFE28A"/><path d="M23 17.823c0-4.418-2.582-8-7-8v16c4.418 0 7-3.582 7-8z" fill="#FFD96C"/><path d="M15.087 9.88l-.446.071-.302.058c-2.007.461-3.503 1.766-4.395 3.546l6.048 2.268v-6c-.307 0-.608.023-.905.057z" fill="#E8BA36"/><path d="M17.653 10.008l-.302-.058-.446-.071c-.297-.033-.598-.056-.905-.056v6l6.061-2.264c-.892-1.78-2.401-3.09-4.408-3.551z" fill="#E0B12E"/><path d="M16 7.823h-1l-4.5-3-.372 1.116c-.082.246-.065.515.047.749l2.035 4.24 3.79 1.895v-5z" fill="#FFE28A"/><path d="M17 7.823h-1v5l3.796-1.898 2.029-4.237c.112-.234.129-.502.047-.748l-.372-1.117-4.5 3z" fill="#FFD96C"/><path d="M10.175 6.688c-.112-.234-.129-.503-.047-.749l.372-1.116 3 2 1.5 1-3.886.819-.939-1.954z" fill="#373F3F"/><path d="M21.825 6.688c.112-.234.129-.503.047-.749l-.372-1.116-3 2-1.5 1 3.886.819.939-1.954z" fill="#2B3332"/><path d="M21.921 6.334l-3.42.488 3-2 .372 1.116c.042.13.058.264.048.396z" fill="#E0B12E"/><path d="M13.501 6.823l.499.333v.877l-1.501.317c-.315-.249-.499-.629-.499-1.031v-.71l1.501.214z" fill="#fff"/><path d="M13.5 6.823v1.316l-.095.02c-.467.098-.905-.257-.905-.734v-.745l1 .143z" fill="#373F3F"/><path d="M16-.07c-1.919 0-3.839.732-5.303 2.197l-1.266 1.265c-.223.223-.186.595.076.77l5.493 3.661h1v-7.893z" fill="#E55D53"/><path d="M17 7.823l5.493-3.662c.263-.175.299-.546.076-.77l-1.265-1.265c-1.465-1.464-3.385-2.196-5.304-2.196v7.893h1z" fill="#D64F45"/><path d="M18.499 6.823l-.499.333v.877l1.5.316c.316-.248.5-.629.5-1.031v-.71l-1.501.215z" fill="#F7F7F7"/><path d="M18.5 6.823v1.316l.095.02c.467.098.905-.257.905-.734v-.745l-1 .143z" fill="#2B3332"/><path d="M10.363 24.46c-.239.239-.419.53-.525.85l-.618 1.855c-.108.324.133.658.474.658h.039c.167 0 .323-.084.416-.223l.851-1.277.474 1.186c.076.19.26.314.464.314h.301c.215 0 .406-.138.474-.342l.386-1.158.754 1.257c.09.151.253.243.429.243h.023c.341 0 .582-.334.474-.658l-.618-1.855c-.107-.32-.287-.611-.525-.85-.408-.408-.961-.637-1.538-.637h-.198c-.576 0-1.129.229-1.537.637z" fill="#F6B392"/><path d="M18.363 24.46c-.239.239-.419.53-.525.85l-.618 1.855c-.108.324.133.658.474.658h.039c.167 0 .323-.084.416-.223l.851-1.277.474 1.186c.076.19.26.314.464.314h.301c.215 0 .406-.138.474-.342l.386-1.158.754 1.257c.09.151.253.243.429.243h.023c.341 0 .582-.334.474-.658l-.618-1.855c-.107-.32-.287-.611-.525-.85-.408-.408-.961-.637-1.538-.637h-.198c-.576 0-1.129.229-1.537.637zM15.992 7.823h-.992l-.813 1.627c-.108.216-.046.479.147.624l1.366 1.025c.087.065.189.097.292.099v-3.375z" fill="#F4A984"/><path d="M17 7.823h-1.008v3.374c.108.002.217-.03.308-.099l1.366-1.025c.193-.145.255-.407.147-.624l-.813-1.626z" fill="#EA9C7A"/><path d="M10.08 6.333l3.42.49-3-2-.372 1.116c-.043.129-.059.261-.048.394z" fill="#E8BA36"/></svg>