<svg xmlns="http://www.w3.org/2000/svg" width="32" height="32" viewBox="0 0 32 32"><ellipse fill="#6673AA" cx="18" cy="21" rx="1" ry="2"/><path fill="#E3DBF4" d="M22 16.5c0 .828 2.672 1.5 3.5 1.5s1.5-.672 1.5-1.5-.672-1.5-1.5-1.5-3.5.672-3.5 1.5z"/><path fill="#F1EDFA" d="M10 16.5c0 .828-2.672 1.5-3.5 1.5s-1.5-.672-1.5-1.5.672-1.5 1.5-1.5 3.5.672 3.5 1.5z"/><path fill="#707EB7" d="M30.722 7.902c-1.209-2.516-3.136-3.902-5.427-3.902-5.539 0-8.583 3.984-9.271 5.001l-.024-.001v12c3.866 0 7-2.134 7-6 0-3.45-2.499-5.516-5.784-5.922 1.045-1.312 3.757-4.078 8.079-4.078 2.416 0 3.796 1.814 4.527 3.336 1.872 3.895 1.443 9.901-.918 12.852l.781.625c2.615-3.27 3.09-9.64 1.037-13.911z"/><ellipse fill="#707EB7" cx="14" cy="21" rx="1" ry="2"/><path fill="#7C8AC4" d="M16 9c-3.866 0-7 2.134-7 6s3.134 6 7 6v-12z"/><ellipse fill="#FFEAA7" cx="12.5" cy="15.5" rx="2.5" ry="2.75"/><path fill="#373F3F" d="M13.5 15h-.5v-.75c0-.276-.224-.5-.5-.5s-.5.224-.5.5v.75h-.5c-.276 0-.5.224-.5.5s.224.5.5.5h.5v.75c0 .276.224.5.5.5s.5-.224.5-.5v-.75h.5c.276 0 .5-.224.5-.5s-.224-.5-.5-.5z"/><ellipse fill="#FFE28A" cx="19.5" cy="15.5" rx="2.5" ry="2.75"/><path fill="#2B3332" d="M20.5 15h-.5v-.75c0-.276-.224-.5-.5-.5s-.5.224-.5.5v.75h-.5c-.276 0-.5.224-.5.5s.224.5.5.5h.5v.75c0 .276.224.5.5.5s.5-.224.5-.5v-.75h.5c.276 0 .5-.224.5-.5s-.224-.5-.5-.5z"/><path fill="#FFEAA7" d="M5.5 22s-1.623.086-2.404-.812l-.781.625c.816 1.187.685 2.687.685 2.687 0 1.381 1.119 2.5 2.5 2.5s2.5-1.119 2.5-2.5-1.119-2.5-2.5-2.5z"/><path fill="#FFE28A" d="M26.5 22s1.623.086 2.404-.812l.781.625c-.816 1.187-.685 2.687-.685 2.687 0 1.381-1.119 2.5-2.5 2.5s-2.5-1.119-2.5-2.5 1.119-2.5 2.5-2.5z"/><path fill="#D84459" d="M16 17c-.276 0-.5.224-.5.5s.224.5.5.5v-1z"/><path fill="#C84054" d="M16.5 17.5c0-.276-.224-.5-.5-.5v1c.276 0 .5-.224.5-.5z"/><path fill="#7C8AC4" d="M16 9.035c-.646-.965-3.699-5.035-9.295-5.035-2.291 0-4.218 1.386-5.427 3.902-2.053 4.271-1.578 10.641 1.037 13.91l.781-.625c-2.361-2.951-2.79-8.957-.918-12.852.731-1.521 2.111-3.335 4.527-3.335 5.634 0 8.543 4.71 8.571 4.758l.724-.435v-.288z"/></svg>