<svg xmlns="http://www.w3.org/2000/svg" width="32" height="32" viewBox="0 0 32 32"><path fill="#5C699E" d="M23.863 22.862c0-.593.392-2.198 1.632-4.893s3.484-5.121 4.239-5.121c.755 0-2.131 7-.862 8.679.47-.048 1.582-.411 1.582-.411.303-.079.52.287.306.515-.553.589-1.187 1.18-1.187 1.782 0 .775.734 1.091 1.299 1.505.218.16.146.498-.118.556-.859.189-2.152.658-2.259 1.766-.065.67.061 1.34.235 1.902.181.584-.456 1.077-.968.745-.641-.415-1.186-1.161-1.854-2.054-1.829-2.444-3.391-2.772-5.516-2.85-1.36-.05 1.676-3.286 1.784-3.448.107-.161 1.094 1.219 1.687 1.327z"/><path fill="#FFD04D" d="M30.758 25.474c.262-.058.332-.395.116-.553-.566-.415-1.301-.731-1.301-1.507 0-.603.634-1.193 1.187-1.782.214-.229-.003-.594-.306-.516 0 0-1.111.363-1.582.411-.413.657-.33 1.24-.247 1.99.106.952.325 1.432-.417 2.208-1 1.047-4.438-1.627-7.188-.711 1.917.25 3.167.583 4.887 2.819.685.891 1.222 1.651 1.869 2.064.509.325 1.132-.178.953-.755-.174-.562-.3-1.232-.235-1.902.108-1.109 1.405-1.577 2.264-1.766z"/><path fill="#E3DBF4" d="M11.5 21.265c-1.031 0-2.188.062-3-.5s-1.406-1.5-2.5-1.5c-1.125 0-2 .938-2 2 0 1 .146 4.125 7.5 2.5v-2.5z"/><path fill="#7C8AC4" d="M10.5 16c.067.653.341 2.04 0 3-.224.629-1 1.688-1 3 0 3.469 2.406 6 6.5 6v-18c-2.986 0-5.906 2.031-5.5 6z"/><path fill="#707EB7" d="M16 20.605c-2.542 0-4.377-1.581-5.335-2.726-.004.393-.045.783-.165 1.121-.224.629-1 1.688-1 3 0 3.469 2.406 6 6.5 6v-7.395z"/><path fill="#F6B392" d="M16 17.296c-.688 0-2.844-.125-3.094-.156.562.719 1.688 1.625 3.094 1.625v-1.469z"/><path fill="#FFE28A" d="M16 13.702c-1.406 0-1.5-.856-2.75-.856-1.105 0-2 .985-2 2.2s.86 1.795 1.656 2.094c1 .375 1.812.375 3.094.375v-3.813z"/><path fill="#F1EDFA" d="M12.238 15.84c.36.54 2.407.562 2.7.135.198-.289-.562-2.34-1.71-2.272-1.148.067-1.25 1.747-.99 2.137z"/><path fill="#D84459" d="M14.938 15.975c.156-.228-.288-1.555-1.047-2.069-.674.471-.758 1.831-.586 2.338.685.073 1.461-.018 1.633-.269z"/><ellipse fill="#2B3332" cx="14.129" cy="15.353" rx=".371" ry=".71"/><ellipse fill="#F1EDFA" cx="13.953" cy="14.796" rx=".281" ry=".359"/><path fill="#E3DBF4" d="M20.5 21.265c1.031 0 2.188.062 3-.5s1.406-1.5 2.5-1.5c1.125 0 2 .938 2 2 0 1-.146 4.125-7.5 2.5v-2.5z"/><path fill="#7C8AC4" d="M16.5 5.542l-1.5.5c.052-1.789-.677-3.294-1.987-3.533-1.159-.212-2.25.499-2.692 1.485l-.352-.182c.64-1.427 1.75-2.656 3.254-2.532 1.939.161 3.277 1.376 3.277 4.262z"/><circle fill="#FFD96C" cx="10.448" cy="4.123" r="1.5"/><path fill="#707EB7" d="M21.5 16c-.067.653-.341 2.04 0 3 .224.629 1 1.688 1 3 0 3.469-2.406 6-6.5 6v-18c2.986 0 5.906 2.031 5.5 6z"/><path fill="#6673AA" d="M16 20.605c2.625 0 4.377-1.581 5.335-2.726.004.393.045.783.165 1.121.224.629 1 1.688 1 3 0 3.469-2.406 6-6.5 6v-7.395z"/><path fill="#EA9C7A" d="M16 17.296c.688 0 2.844-.125 3.094-.156-.562.719-1.688 1.625-3.094 1.625v-1.469z"/><path fill="#FFD96C" d="M16 13.702c1.406 0 1.5-.856 2.75-.856 1.105 0 2 .985 2 2.2s-.86 1.795-1.656 2.094c-1 .375-1.812.375-3.094.375v-3.813z"/><path fill="#F1EDFA" d="M19.762 15.84c-.36.54-2.407.562-2.7.135-.198-.289.562-2.34 1.71-2.272 1.148.067 1.25 1.747.99 2.137z"/><path fill="#D84459" d="M17.062 15.975c-.156-.228.288-1.555 1.047-2.069.674.471.758 1.831.586 2.338-.685.073-1.461-.018-1.633-.269z"/><ellipse fill="#2B3332" cx="17.871" cy="15.353" rx=".371" ry=".71"/><ellipse fill="#F1EDFA" cx="18.047" cy="14.796" rx=".281" ry=".359"/><path fill="#7C8AC4" d="M15 5.787v4.86h1v-7.677c-.641 1.156-1 2.322-1 2.817z"/><path fill="#707EB7" d="M19.75 0c-1.813 0-3.25 1.625-3.75 2.97v7.677h1v-4.87c0-2.464 1.249-3.763 2.5-4.003 3.917-.75 6 3.25 6 7.25h.75c0-6.542-2.938-9.024-6.5-9.024z"/><circle fill="#FFD96C" cx="25.688" cy="8.958" r="2"/></svg>