<svg xmlns="http://www.w3.org/2000/svg" width="32" height="32" viewBox="0 0 32 32"><ellipse transform="matrix(.924 -.383 .383 .924 -10.735 6.663)" fill="#FFD96C" cx="11.381" cy="30.316" rx="2.5" ry="1.5"/><ellipse transform="matrix(.383 -.924 .924 .383 -15.28 37.764)" fill="#FFD04D" cx="20.619" cy="30.316" rx="1.5" ry="2.5"/><path fill="#2B3332" d="M18 28l6.746-3.855c.157-.09.35-.088.505.005l4.2 2.52c.279.167.326.552.096.782l-2.14 2.14c-.215.215-.571.19-.754-.054l-2.393-3.191c-.15-.199-.423-.258-.642-.138l-4.335 2.391c-.173.095-.386.08-.544-.039l-.739-.561z"/><path fill="#FFD04D" d="M18.325 19.356s3.847.769 6.142 2.308c.524.351.676 1.056.394 1.62l-.004.008c-.294.588-.986.854-1.603.628-3.733-1.367-5.929-.564-5.929-.564l1-4z"/><path fill="#FFD96C" d="M13.675 19.356s-3.847.769-6.142 2.308c-.524.351-.676 1.056-.394 1.62l.004.008c.294.588.986.854 1.603.628 3.733-1.367 5.929-.564 5.929-.564l-1-4z"/><path fill="#FFE28A" d="M16 18c-3.314 0-6 4.686-6 8s2.686 4 6 4v-12z"/><path fill="#FFD96C" d="M22 26c0-3.314-2.686-8-6-8v12c3.314 0 6-.686 6-4z"/><path fill="#373F3F" d="M16 19h-2.616c-.708.55-1.336 1.285-1.855 2.118l.277 1.106c.09.358.523.499.806.262l.982-.824c.22-.185.55-.146.722.084l1.283 1.718c.1.134.25.201.401.201v-4.665z"/><path fill="#2B3332" d="M16.401 23.464l1.283-1.718c.172-.23.502-.268.722-.084l.982.824c.283.237.717.097.806-.262l.277-1.106c-.519-.832-1.147-1.568-1.855-2.118h-2.616v4.664c.15 0 .301-.067.401-.2z"/><path fill="#FFEAA7" d="M12.372 7.767l.559-3.357c.04-.238-.096-.47-.322-.552l-9.602-3.492c-.399-.145-.786.242-.641.641l3.492 9.602c.082.226.314.362.552.322l2.679-.447c-.688 1.035-1.089 2.233-1.089 3.516 0 3.866 3.582 7 8 7v-14c-1.307 0-2.538.28-3.628.767z"/><path fill="#FFE28A" d="M28.993.366l-9.602 3.492c-.226.082-.362.314-.322.552l.559 3.357c-1.09-.487-2.321-.767-3.628-.767v14c4.418 0 8-3.134 8-7 0-1.283-.401-2.481-1.089-3.515l2.679.447c.238.04.47-.096.552-.322l3.492-9.602c.145-.4-.242-.787-.641-.642z"/><circle fill="#96643B" cx="11.5" cy="13.5" r="1.5"/><path fill="#373F3F" d="M11.5 12c-.286 0-.55.084-.777.223-.139.227-.223.491-.223.777 0 .828.672 1.5 1.5 1.5.286 0 .55-.084.777-.223.139-.227.223-.491.223-.777 0-.828-.672-1.5-1.5-1.5z"/><circle fill="#fff" cx="12" cy="13" r=".5"/><circle fill="#8D5B36" cx="20.5" cy="13.5" r="1.5"/><path fill="#2B3332" d="M20.5 12c.286 0 .55.084.777.223.139.227.223.491.223.777 0 .828-.672 1.5-1.5 1.5-.286 0-.55-.084-.777-.223-.139-.227-.223-.491-.223-.777 0-.828.672-1.5 1.5-1.5z"/><circle fill="#F7F7F7" cx="20" cy="13" r=".5"/><path fill="#373F3F" d="M7 4.75v-.371c0-.179.184-.3.348-.23l5.252 2.251.332-1.99c.04-.238-.096-.47-.322-.552l-9.603-3.492c-.399-.145-.786.242-.641.641l3.492 9.602c.082.226.314.362.552.322l1.99-.331-2.251-5.252c-.07-.164.051-.348.23-.348h.371c.138 0 .25-.112.25-.25z"/><path fill="#2B3332" d="M25 4.75v-.371c0-.179-.184-.3-.348-.23l-5.252 2.251-.332-1.99c-.04-.238.096-.47.322-.552l9.602-3.492c.399-.145.786.242.641.641l-3.492 9.602c-.082.226-.314.362-.552.322l-1.989-.331 2.251-5.251c.07-.165-.051-.349-.23-.349h-.371c-.138 0-.25-.112-.25-.25z"/><path fill="#FF8D6E" d="M8.21 15.572c.394 1.499 1.333 2.813 2.631 3.773.138-.055.267-.126.373-.232.613-.613.364-1.854-.555-2.773-.779-.778-1.786-1.069-2.449-.768z"/><path fill="#FF805D" d="M23.8 15.539c-.662-.238-1.614.056-2.359.801-.919.919-1.167 2.16-.555 2.773.088.088.193.154.304.207 1.291-.964 2.224-2.281 2.61-3.781z"/><path fill="#373F3F" d="M16 14.5h-.25c-.138 0-.25.112-.25.25s.112.25.25.25h.25v-.5zM16 16.75c-.867 0-1.301-.405-1.324-.428-.098-.097-.255-.096-.353.001-.098.098-.098.256 0 .354.024.023.586.573 1.677.573v-.5z"/><path fill="#2B3332" d="M17.677 16.677c.097-.097.097-.253 0-.352-.095-.097-.253-.098-.353-.003-.017.017-.451.428-1.324.428v.5c1.091 0 1.653-.55 1.677-.573zM16.25 14.5h-.25v.5h.25c.138 0 .25-.112.25-.25s-.112-.25-.25-.25z"/></svg>