<svg xmlns="http://www.w3.org/2000/svg" width="32" height="32" viewBox="0 0 32 32"><path fill="#724D31" d="M20.869 3.29c5.781-.219 9.18.869 10.497 1.414.395.163.634.555.61.982-.106 1.966-.698 7.651-3.976 10.314 0 0-7.796-3.141-7.131-12.71z"/><path fill="#845331" d="M11.131 3.29c-5.781-.219-9.18.869-10.497 1.414-.395.163-.634.555-.61.982.106 1.966.698 7.651 3.976 10.314 0 0 7.796-3.141 7.131-12.71z"/><path fill="#FAB8CD" d="M18.172 14.306c-1.15 12.881 3.77 16.615 5.352 17.473.304.165.661.159.965-.007 1.431-.781 5.511-3.877 5.511-13.772 0-5.18-6.564-3.94-11.828-3.694z"/><path fill="#FAC4D1" d="M13.828 14.306c1.15 12.881-3.77 16.615-5.352 17.473-.304.165-.661.159-.965-.007-1.431-.781-5.511-3.877-5.511-13.772 0-5.18 6.564-3.94 11.828-3.694z"/><path fill="#FBCFD6" d="M2.133 15.933l-1.239.619c-.548.275-.894.835-.894 1.448s.346 1.173.894 1.447l1.256.628c.908 6.658 6.306 8.925 13.85 8.925v-27c-7.589 0-13.008 6.478-13.867 13.933z"/><path fill="#FAC4D1" d="M31.106 16.553l-1.239-.619c-.859-7.456-6.278-13.934-13.867-13.934v27c7.544 0 12.942-2.267 13.85-8.925l1.256-.628c.548-.274.894-.834.894-1.447s-.346-1.173-.894-1.447z"/><ellipse fill="#FF8D6E" cx="8.499" cy="16.001" rx="1.5" ry="1"/><ellipse fill="#FF805D" cx="23.499" cy="16.001" rx="1.5" ry="1"/><ellipse fill="#373F3F" cx="11.999" cy="13.501" rx="1" ry="1.5"/><ellipse fill="#2B3332" cx="19.999" cy="13.501" rx="1" ry="1.5"/><circle fill="#fff" cx="11.999" cy="13.001" r=".5"/><circle fill="#F7F7F7" cx="19.999" cy="13.001" r=".5"/><path fill="#FBCFD6" d="M16 0c2.209 0 4 1.791 4 4s-1.791 4-4 4v-8z"/><path fill="#FCD8DE" d="M11 5.001c0-2.761 2.239-5 5-5v10c-2.761 0-5-2.238-5-5z"/><path fill="#FDE2E6" d="M16 8c-1.381 0-2.5-1.119-2.5-2.5s1.119-2.5 2.5-2.5v5z"/><path fill="#373F3F" d="M16 16.251c-.854 0-1.629-.459-1.637-.464-.118-.07-.272-.033-.343.085-.071.118-.034.271.084.343.036.022.899.536 1.895.536v-.5z"/><path fill="#2B3332" d="M17.638 15.788c-.008.004-.78.464-1.638.464v.5c.996 0 1.859-.514 1.896-.536.119-.071.156-.225.085-.343-.071-.119-.226-.156-.343-.085z"/></svg>