<svg xmlns="http://www.w3.org/2000/svg" width="32" height="32" viewBox="0 0 32 32"><path fill="#FFEAA7" d="M16-.001c-.296 0-.593.131-.794.392-1.007 1.31-2.716 3.683-3.614 5.751-1.805-1.297-4.372-2.45-5.859-3.065-.609-.252-1.291.14-1.377.794-.216 1.635-.51 4.535-.255 6.769.165 1.444.016 2.893-.442 4.272-.453 1.363-.686 2.827-.656 4.349.138 7.002 6.041 12.712 12.997 12.723v-31.985z"/><path fill="#FFE28A" d="M16.439 31.993c6.976-.232 12.561-5.96 12.561-12.993 0-1.477-.248-2.896-.703-4.219-.457-1.328-.559-2.738-.399-4.134.256-2.236-.038-5.14-.255-6.777-.087-.654-.768-1.046-1.377-.794-1.487.615-4.054 1.767-5.859 3.065-.898-2.068-2.607-4.44-3.614-5.751-.2-.26-.497-.391-.793-.391v31.985l.439.009zM12.881 28.08c.533 1.136-.773 2.693-2.916 3.477-2.143.784-4.313.499-4.846-.637-.533-1.136.773-2.693 2.916-3.477 2.144-.785 4.313-.499 4.846.637z"/><path fill="#FFD96C" d="M19.119 28.08c-.533 1.136.773 2.693 2.916 3.477 2.143.784 4.313.499 4.846-.637.533-1.136-.773-2.693-2.916-3.477-2.144-.785-4.313-.499-4.846.637z"/><ellipse fill="#8D5B36" cx="12" cy="11" rx="1" ry="2"/><ellipse fill="#845331" cx="20" cy="11" rx="1" ry="2"/><path fill="#373F3F" d="M11.03 10.533c.075.637.471 1.134.97 1.134s.895-.496.97-1.134c-.087-.723-.369-1.29-.729-1.468l-.241-.065-.24.065c-.361.179-.643.745-.73 1.468z"/><path fill="#2B3332" d="M19.03 10.533c.075.637.471 1.134.97 1.134s.895-.496.97-1.134c-.087-.723-.369-1.289-.729-1.468l-.241-.065-.24.065c-.361.178-.643.745-.73 1.468z"/><circle fill="#fff" cx="12" cy="10.031" r=".5"/><circle fill="#F7F7F7" cx="20" cy="10.031" r=".5"/><path fill="#E85160" d="M16 12h-1.155c-.172 0-.293.167-.237.33.234.679.813 2.17 1.392 2.17v-2.5z"/><path fill="#D84459" d="M17.155 12h-1.155v2.5c.579 0 1.159-1.491 1.392-2.17.056-.163-.065-.33-.237-.33z"/><path fill="#F7F7F7" d="M16 15.207c-.128 0-.256.049-.354.146l-1.293 1.293c-.195.195-.512.195-.707 0l-1.293-1.293c-.195-.195-.512-.195-.707 0l-2.293 2.293c-.195.195-.512.195-.707 0l-2.293-2.293c-.195-.195-.512-.195-.707 0l-2.593 2.593c-.028.349-.053.698-.053 1.054 0 7.18 5.82 13 13 13v-16.793z"/><path fill="#EDEEEE" d="M29 19c0-.356-.025-.705-.053-1.053l-2.593-2.593c-.195-.195-.512-.195-.707 0l-2.293 2.293c-.195.195-.512.195-.707 0l-2.293-2.293c-.195-.195-.512-.195-.707 0l-1.293 1.293c-.195.195-.512.195-.707 0l-1.293-1.293c-.098-.098-.226-.146-.354-.146v16.792c7.18 0 13-5.82 13-13z"/><path fill="#D84459" d="M22 23.75c-.192 0-.384-.073-.53-.22l-2-2c-.293-.293-.293-.768 0-1.061l2-2c.293-.293.768-.293 1.061 0l2 2c.293.293.293.768 0 1.061l-2 2c-.147.147-.339.22-.531.22zm-.939-2.75l.939.939.939-.939-.939-.939-.939.939z"/><path fill="#E85160" d="M7.624 20.584l1.599-1.066c.332-.221.777.017.777.416v2.131c0 .399-.445.638-.777.416l-1.599-1.066c-.297-.197-.297-.633 0-.831z"/><path fill="#FFEAA7" d="M5.2 16.672c.424.123.783.385 1.036.743.498.706 1.134 1.972.495 3.238l-.242.442c-.61 1.02-2.025 1.207-2.916.414-1.425-1.268-3.573-3.391-3.573-4.663 0-1.533 3.744-.596 5.2-.174z"/><path fill="#FFE28A" d="M26.8 16.672c-.424.123-.783.385-1.036.743-.498.706-1.134 1.972-.495 3.238l.242.442c.61 1.02 2.025 1.207 2.916.414 1.425-1.268 3.573-3.391 3.573-4.663 0-1.533-3.744-.596-5.2-.174z"/><path fill="#5CA3D5" d="M16 26.457l-.501.601-1.091-2.91 1.592.398v-1.546l-3.076-.769-.124-.016c-.334 0-.591.34-.465.676l2.364 6.303c.079.21.273.325.47.325.14 0 .281-.058.383-.18l.448-.539v-2.343z"/><path fill="#529CCF" d="M19.227 23.807l-3.227-.807v1.546l1.318.329-1.318 1.582v2.343l3.49-4.188c.236-.283.095-.716-.263-.805zM24.25 29.046c.541-.445 1.037-.941 1.5-1.467v-2.579c0-.303-.183-.577-.463-.693-.279-.117-.603-.052-.817.163l-4 4c-.17.17-.249.413-.21.65s.189.443.405.551l1.526.763c.513-.279.997-.602 1.466-.944l-1.39-.695 1.984-1.984v2.235z"/><path fill="#E85160" d="M9.357 30.16l.978-.489c.216-.108.366-.313.405-.551s-.04-.48-.21-.65l-4-4c-.17-.17-.414-.247-.65-.21-.238.039-.443.189-.551.405l-.489.978c.294.493.615.967.97 1.414l.396-.791 2.528 2.528-.791.396c.448.355.921.676 1.414.97z"/></svg>