<svg xmlns="http://www.w3.org/2000/svg" width="32" height="32" viewBox="0 0 32 32"><path fill="#EDEEEE" d="M19 22s-.062-9.634 9.453-9.99c.296-.011.542.246.518.54-.174 2.095-1.395 9.45-9.971 9.45z"/><path fill="#DADDDC" d="M28.749 14.062c-6.116.553-7.958 5.13-8.51 7.877 6.083-.552 7.944-5.13 8.51-7.877z"/><path fill="#F7F7F7" d="M13 22s.062-9.634-9.453-9.99c-.296-.011-.542.246-.518.54.174 2.095 1.395 9.45 9.971 9.45z"/><path fill="#E3E5E5" d="M3.251 14.062c6.116.553 7.958 5.13 8.51 7.877-6.083-.552-7.944-5.13-8.51-7.877z"/><path fill="#EDEEEE" d="M16 12h-2v3.266c0 1.601-.764 3.109-2.066 4.039-2.108 1.506-3.345 4.151-2.809 7.038.512 2.754 2.718 4.984 5.468 5.52.477.093.946.127 1.407.127v-19.99z"/><path fill="#E3E5E5" d="M16 12h2v3.266c0 1.601.764 3.109 2.066 4.039 2.108 1.506 3.345 4.151 2.809 7.038-.512 2.754-2.718 4.984-5.468 5.52-.477.093-.946.127-1.407.127v-19.99z"/><path fill="#F7F7F7" d="M16.002 0c-.137 0-.274.06-.366.181-.465.605-1.254 1.7-1.668 2.654-.827-.595-2.001-1.123-2.69-1.408-.295-.122-.622.06-.679.375-.195 1.075-.571 3.487-.596 6.327-.034 3.809 2.788 5.867 5.999 5.872v-14.001z"/><path fill="#EDEEEE" d="M16.002 0c.137 0 .274.06.366.181.465.605 1.254 1.7 1.668 2.654.827-.595 2.001-1.123 2.69-1.408.295-.122.622.06.679.375.195 1.075.571 3.487.596 6.327.034 3.809-2.788 5.867-5.999 5.872v-14.001z"/><ellipse fill="#8D5B36" cx="13" cy="8" rx="1" ry="2"/><ellipse fill="#845331" cx="19" cy="8" rx="1" ry="2"/><path fill="#373F3F" d="M12.03 7.533c.075.637.471 1.134.97 1.134s.895-.496.97-1.134c-.087-.723-.369-1.29-.729-1.468l-.241-.065-.24.065c-.361.179-.643.745-.73 1.468z"/><path fill="#2B3332" d="M18.03 7.533c.075.637.471 1.134.97 1.134s.895-.496.97-1.134c-.087-.723-.369-1.289-.729-1.468l-.241-.065-.24.065c-.361.178-.643.745-.73 1.468z"/><circle fill="#fff" cx="13" cy="7.031" r=".5"/><circle fill="#F7F7F7" cx="19" cy="7.031" r=".5"/><path fill="#F7F7F7" d="M12.507 31.781c.823-.552.591-2.025-.517-3.29-1.109-1.265-2.674-1.844-3.497-1.292s-.591 2.025.517 3.29c1.109 1.266 2.674 1.844 3.497 1.292zM10.6 20.836c.212.061.392.192.518.372.249.353.567.986.247 1.619l-.121.221c-.305.51-1.013.603-1.458.207-.712-.634-1.786-1.696-1.786-2.332 0-.767 1.872-.298 2.6-.087z"/><path fill="#EDEEEE" d="M21.4 20.836c-.212.061-.392.192-.518.372-.249.353-.567.986-.247 1.619l.121.221c.305.51 1.013.603 1.458.207.712-.634 1.786-1.696 1.786-2.332 0-.767-1.872-.298-2.6-.087zM23.507 27.199c.823.552.591 2.025-.517 3.29-1.109 1.265-2.674 1.844-3.497 1.292s-.591-2.025.517-3.29c1.109-1.265 2.674-1.843 3.497-1.292z"/><path fill="#529CCF" d="M18.573 26.074l-.843.843c-.359.359-.261.964.193 1.192.495.247 1.077-.113 1.077-.666v-1.193c0-.222-.269-.334-.427-.176z"/><path fill="#5CA3D5" d="M13.055 25.379l-.384.878-.659-.659 1.043-.219m.851-1.19l-.106.011-2.896.61c-.389.082-.531.562-.251.843l1.829 1.829c.1.1.227.147.352.147.189 0 .375-.106.459-.3l1.067-2.439c.149-.339-.107-.701-.454-.701z"/><path fill="#E85160" d="M16 21.211l-.086-.018-.106-.011c-.341 0-.596.35-.461.686l.653 1.632v-2.289z"/><path fill="#D84459" d="M19.016 21.845l-3.016-.634v2.289l.653 1.633c.082.206.273.314.466.314.154 0 .31-.07.411-.217l1.796-2.612c.201-.294.039-.699-.31-.773zm-1.781 2.049l-.612-1.53 1.454.306-.842 1.224z"/><path fill="#E85160" d="M16.002 11h-1.495c-.214 0-.328.249-.191.412.373.444 1.029 1.088 1.684 1.088h.002v-1.5z"/><path fill="#D84459" d="M17.494 11h-1.492v1.5c.655-.001 1.309-.644 1.683-1.088.137-.163.022-.412-.191-.412z"/></svg>