<svg xmlns="http://www.w3.org/2000/svg" width="32" height="32" viewBox="0 0 32 32"><path fill="#B93D4F" d="M11 21l-2.722 4.537c-.15.25-.055.574.205.704l3.517 1.759 2-6-3-1z"/><path fill="#A93949" d="M21 21l2.722 4.537c.15.25.055.574-.205.704l-3.517 1.759-2-6 3-1z"/><path fill="#C84054" d="M16 23h-3l-1.781 5.342c-.108.324.133.658.475.658h4.306v-6z"/><path fill="#B93D4F" d="M16 29h4.306c.341 0 .582-.334.474-.658l-1.78-5.342h-3v6z"/><path fill="#EDEEEE" d="M23 30.667l1.582.264c.241.04.418.248.418.493v.076c0 .276-.224.5-.5.5h-1.5v-1.333z"/><path fill="#F7F7F7" d="M9 30.667l-1.582.263c-.241.041-.418.249-.418.494v.076c0 .276.224.5.5.5h1.5v-1.333z"/><path fill="#E85160" d="M16 0h-.414c-.481 0-.893.342-.983.814l-.138.729c-.306 1.613-.209 3.277.281 4.844l.504 1.613h.75v-8z"/><path fill="#D84459" d="M17.397.814c-.09-.472-.502-.814-.983-.814h-.414v8h.75l.504-1.613c.49-1.567.586-3.231.281-4.844l-.138-.729zM19 30v-5h-2v6.5c0 .276.224.5.5.5h5.5v-1.333l-4-.667z"/><path fill="#E85160" d="M13 25v5l-4 .667v1.333h5.5c.276 0 .5-.224.5-.5v-6.5h-2z"/><path fill="#AADB3D" d="M16 7c-6.075 0-11 3.925-11 10s4.925 10 11 10v-20z"/><path fill="#A2D336" d="M27 17c0-6.075-4.925-10-11-10v20c6.075 0 11-3.925 11-10z"/><path fill="#9ACC2E" d="M16 23v4c6.075 0 11-3.925 11-10l-.016-.321c-1.858 3.947-6.074 6.321-10.984 6.321z"/><path fill="#A2D336" d="M5.016 16.679l-.016.321c0 6.075 4.925 10 11 10v-4c-4.91 0-9.126-2.374-10.984-6.321z"/><path fill="#fff" d="M12.819 13.317c.106.101.106.265 0 .366-.42.4-1.524 1.317-2.819 1.317s-2.399-.917-2.819-1.317c-.106-.101-.106-.265 0-.366.42-.4 1.524-1.317 2.819-1.317s2.399.917 2.819 1.317z"/><path fill="#F7F7F7" d="M24.819 13.317c.106.101.106.265 0 .366-.42.4-1.524 1.317-2.819 1.317s-2.399-.917-2.819-1.317c-.106-.101-.106-.265 0-.366.42-.4 1.524-1.317 2.819-1.317s2.399.917 2.819 1.317z"/><path fill="#373F3F" d="M8.677 12.308c-.109.208-.177.441-.177.692 0 .828.672 1.5 1.5 1.5s1.5-.672 1.5-1.5c0-.251-.068-.484-.177-.692-.4-.178-.846-.308-1.323-.308s-.923.13-1.323.308z"/><path fill="#2B3332" d="M20.677 12.308c-.109.208-.177.441-.177.692 0 .828.672 1.5 1.5 1.5s1.5-.672 1.5-1.5c0-.251-.068-.484-.177-.692-.4-.178-.846-.308-1.323-.308s-.923.13-1.323.308z"/><ellipse transform="matrix(.966 -.259 .259 .966 -4.966 2.28)" fill="#FFE28A" cx="6.174" cy="20" rx="3" ry="5"/><path fill="#E85160" d="M3.277 20.776c.715 2.667 2.591 4.482 4.192 4.053l-2.589-9.659c-1.6.429-2.318 2.939-1.603 5.606z"/><path fill="#373F3F" d="M3.594 21.727c.28.695.645 1.293 1.052 1.789l1.339-.359.438 1.636c.352.098.705.128 1.045.037s.631-.293.887-.555l-2.43-9.068c-.352-.098-.705-.128-1.045-.037s-.631.293-.887.555l.438 1.636-1.338.359c-.105.633-.122 1.333-.017 2.075l1.873-.502.518 1.932-1.873.502z"/><ellipse transform="matrix(.259 -.966 .966 .259 -.177 39.769)" fill="#FFD96C" cx="25.826" cy="20" rx="5" ry="3"/><path fill="#D84459" d="M28.723 20.776c-.715 2.667-2.591 4.482-4.192 4.053l2.588-9.659c1.601.429 2.319 2.939 1.604 5.606z"/><path fill="#2B3332" d="M28.406 21.727c-.28.695-.645 1.293-1.052 1.789l-1.339-.359-.438 1.636c-.352.098-.705.128-1.045.037s-.631-.293-.887-.555l2.43-9.068c.352-.098.705-.128 1.045-.037s.631.293.887.555l-.438 1.636 1.339.359c.105.633.122 1.333.017 2.075l-1.873-.502-.518 1.932 1.872.502z"/><path fill="#FFE28A" d="M16 15c-2 0-4 .343-4 2 0 1.352 2.665 2.496 3.645 2.87.116.044.236.067.355.067v-4.937z"/><path fill="#FFD96C" d="M16.355 19.87c.98-.374 3.645-1.518 3.645-2.87 0-1.657-2-2-4-2v4.937c.12 0 .239-.022.355-.067z"/></svg>