<svg xmlns="http://www.w3.org/2000/svg" width="32" height="32" viewBox="0 0 32 32"><path fill="#D84459" d="M20.984 29.994l-.484.023v-1.757h-1.5v2.08c-.562.218-1 .552-1 1.061 0 .438 1.281.562 3 .562s5 .188 5-.281-2.781-1.688-5.016-1.688z"/><path fill="#E85160" d="M13 30.34v-2.08h-1.5v1.758l-.484-.023c-2.235-.001-5.016 1.218-5.016 1.687s3.281.281 5 .281 3-.125 3-.562c0-.509-.438-.843-1-1.061z"/><path fill="#A93949" d="M16 9.137l-8 14.363-3.63-3.176c-.205-.18-.229-.491-.052-.699l11.682-13.812v3.324z"/><path fill="#9ACC2E" d="M14.5 9c-.527.527-8.5 8.25-8.5 19 2.75 1.167 8.083 1 10 1v-20h-1.5z"/><g fill="#FFD96C"><path d="M8.305 26.532c-.729-.046-1.635-.284-2.189-.704-.028.28-.038.567-.056.852.681.372 1.525.558 2.198.6l.047-.748zM8.258 25.062l.047-.748c-.609-.038-1.342-.212-1.892-.513-.049.255-.09.515-.13.775.636.295 1.374.448 1.975.486z"/></g><path fill="#373F3F" d="M14.5 9c-.296.296-2.933 2.856-5.193 6.943.163-.159 2.951-2.854 4.105-3.404.056-.027.116-.015.162.026.866.782 1.981 2.435 2.426 2.435v-6h-1.5z"/><path fill="#FF6B8B" d="M14.5 16.403c0 .317-.765.854-1.708.854s-1.708-.355-1.708-.854.765-.903 1.708-.903 1.708.586 1.708.903z"/><path fill="#EDEEEE" d="M10.284 14.309c-1.353 2.129-2.705 4.806-3.519 7.905.558 1.081 1.235 1.786 1.235 1.786v4.566c2.801.532 6.461.436 8 .434v-9.5c-2.656 0-4.54-3.151-5.716-5.191z"/><path fill="#2B3332" d="M12.914 16.389c0 .519-.055.868-.122.868s-.122-.349-.122-.868.055-.889.122-.889.122.37.122.889z"/><path fill="#C84054" d="M11.303 18.627c.124-.069.166-.228.092-.349l-1.288-2.1c-.064-.104-.193-.147-.306-.101l-.7.281c-.731 1.368-1.396 2.903-1.932 4.57l4.134-2.301z"/><path fill="#FFD96C" d="M10.428 18.211l-.803-1.31c-.04-.065-.12-.091-.191-.063l-.723.29c-.458.92-.894 1.886-1.271 2.931l2.931-1.631c.077-.043.103-.142.057-.217z"/><path fill="#C84054" d="M7.999 25.372v3.188c2.801.532 6.449.442 7.989.44l.012-3.187c-1.533.001-5.193.093-8.001-.441z"/><path fill="#A2D336" d="M10.5 5.5c0 3.038 2.462 5.5 5.5 5.5v-11c-3.038 0-5.5 2.462-5.5 5.5z"/><path fill="#AADB3D" d="M10.5 5.5c0 3.038 2.462 5.5 5.5 5.5v-11c-3.038 0-5.5 2.462-5.5 5.5z"/><path fill="#373F3F" d="M7.999 26.909v1.656c2.801.533 6.462.437 8.001.435v-1.656c-1.536.001-5.196.098-8.001-.435z"/><path fill="#F9F8F5" d="M11.86 3c-.279 0-.535.021-.779.051-.302.606-.497 1.274-.557 1.982 1.628.301 3.976-.052 3.976-1.033 0-.262-.878-1-2.64-1z"/><path fill="#2B3332" d="M11.344 3.99c0 .558.393 1.004.911 1.132.305-.022.599-.066.871-.127.348-.207.593-.57.593-1.005 0-.291-.117-.547-.29-.754-.396-.133-.902-.228-1.519-.233-.333.21-.566.564-.566.987z"/><path fill="#F9F8F5" d="M12.542 3.042l-.042.208c0 .414.336.75.75.75.337 0 .611-.226.706-.532-.325-.182-.792-.351-1.414-.426z"/><path fill="#FFD96C" d="M16 5.5c-1 0-2 .438-2 1.031 0 .969.744 1.331.969 1.5.25.188.656 1.5 1.031 1.5v-4.031z"/><path fill="#E3E5E5" d="M7.877 30.589c.432.282.716.727.716 1.233l-.02.176c-1.346.011-2.573-.03-2.573-.316 0-.251.797-.715 1.877-1.093zm5.122-.268c.09.242.143.503.143.777 0 .275-.054.536-.144.779.624-.086 1.011-.233 1.011-.474 0-.517-.442-.858-1.01-1.082z"/><path fill="#9A3644" d="M16 5.813l11.682 13.811c.176.208.153.52-.052.699l-3.63 3.177-8-14.363v-3.324z"/><path fill="#93C427" d="M17.5 9c.527.527 8.5 8.25 8.5 19-2.75 1.167-8.083 1-10 1v-20h1.5z"/><g fill="#FFD04D"><path d="M23.695 26.532c.729-.046 1.635-.284 2.189-.704.028.28.038.567.056.852-.681.372-1.525.558-2.198.6l-.047-.748zM23.742 25.062l-.047-.748c.609-.038 1.342-.212 1.892-.513.049.255.09.515.13.775-.636.295-1.374.448-1.975.486z"/></g><path fill="#2B3332" d="M17.5 9c.296.296 2.933 2.856 5.193 6.943-.163-.159-2.951-2.854-4.105-3.404-.056-.027-.116-.015-.162.026-.866.782-1.981 2.435-2.426 2.435v-6h1.5z"/><path fill="#FF6B8B" d="M17.5 16.403c0 .317.765.854 1.708.854s1.708-.355 1.708-.854-.765-.903-1.708-.903-1.708.586-1.708.903z"/><path fill="#DADDDC" d="M21.716 14.309c1.353 2.129 2.705 4.806 3.519 7.905-.558 1.081-1.235 1.786-1.235 1.786v4.566c-2.801.532-6.461.436-8 .434v-9.5c2.656 0 4.54-3.151 5.716-5.191z"/><path fill="#2B3332" d="M19.086 16.389c0 .519.055.868.122.868s.122-.349.122-.868-.055-.889-.122-.889-.122.37-.122.889z"/><path fill="#B93D4F" d="M20.697 18.627c-.124-.069-.166-.228-.092-.349l1.288-2.1c.064-.104.193-.147.306-.101l.7.281c.731 1.368 1.396 2.903 1.932 4.57l-4.134-2.301z"/><path fill="#FFD04D" d="M21.572 18.211l.803-1.31c.04-.065.12-.091.191-.063l.723.29c.458.92.894 1.886 1.271 2.931l-2.931-1.631c-.077-.043-.103-.142-.057-.217z"/><path fill="#B93D4F" d="M24.001 25.372v3.188c-2.801.532-6.449.442-7.989.44l-.012-3.187c1.533.001 5.193.093 8.001-.441z"/><path fill="#9ACC2E" d="M21.5 5.5c0 3.038-2.462 5.5-5.5 5.5v-11c3.038 0 5.5 2.462 5.5 5.5z"/><path fill="#A2D336" d="M21.5 5.5c0 3.038-2.462 5.5-5.5 5.5v-11c3.038 0 5.5 2.462 5.5 5.5z"/><path fill="#2B3332" d="M24.001 26.909v1.656c-2.801.533-6.462.437-8.001.435v-1.656c1.536.001 5.196.098 8.001-.435z"/><path fill="#F9F8F5" d="M20.14 3c.279 0 .535.021.779.051.302.606.497 1.274.557 1.982-1.628.301-3.976-.052-3.976-1.033 0-.262.878-1 2.64-1z"/><path fill="#2B3332" d="M20.656 3.99c0 .558-.393 1.004-.911 1.132-.305-.022-.599-.066-.871-.127-.348-.207-.593-.57-.593-1.005 0-.291.117-.547.29-.754.396-.133.902-.228 1.519-.233.333.21.566.564.566.987z"/><path fill="#F9F8F5" d="M19.458 3.042l.042.208c0 .414-.336.75-.75.75-.337 0-.611-.226-.706-.532.325-.182.792-.351 1.414-.426z"/><path fill="#FFD04D" d="M16 5.5c1 0 2 .438 2 1.031 0 .969-.744 1.331-.969 1.5-.25.188-.656 1.5-1.031 1.5v-4.031z"/><path fill="#DADDDC" d="M26 31.682c0 .287-1.227.328-2.573.316l-.02-.176c0-.506.284-.951.716-1.233 1.08.378 1.877.842 1.877 1.093zm-8.009-.279c0 .241.387.388 1.011.474-.09-.243-.144-.504-.144-.779 0-.274.053-.535.143-.777-.568.224-1.01.565-1.01 1.082z"/></svg>