<svg xmlns="http://www.w3.org/2000/svg" width="32" height="32" viewBox="0 0 32 32"><path fill="#D196A6" d="M30.015 8.823c-1.666 5.189-4.8 8.688-9.328 8.688v4.83c4.919 0 9.323-3.187 9.687-13.442.009-.232-.288-.295-.359-.076z"/><path fill="#2B3332" d="M30.015 8.823c-1.666 5.189-4.8 8.688-9.328 8.688v4.83c4.919 0 9.323-3.187 9.687-13.442.009-.232-.288-.295-.359-.076z"/><path fill="#E5AC38" d="M29.867 11.684c-.293-.106-.561-.247-.82-.399-.388.821-.823 1.576-1.304 2.258.372.261.766.497 1.215.659.229.083.461.14.692.188.203-.803.365-1.682.488-2.634l-.271-.072z"/><circle fill="#F57552" cx="29.75" cy="8.438" r="2.25"/><path fill="#424B7E" d="M22.945 23.667c0 1.708.5 6.417-1.5 6.417-2.292 0-2.061-3-2.061-5.5l3.561-.917z"/><path fill="#FDEBBB" d="M10.542 5.46c0-3.015 2.444-5.458 5.458-5.458v10.917c-3.015-.001-5.458-2.445-5.458-5.459z"/><path fill="#FFF3D9" d="M16 7c-1.312 0-2.375-.938-2.375-2.25s1.063-2.25 2.375-2.25v4.5z"/><path fill="#495587" d="M20.82 25.583c0 1.708.5 6.417-1.5 6.417-2.333 0-2.061-3-2.061-5.5l3.561-.917z"/><circle fill="#F3E7C0" cx="23.125" cy="22.125" r="4.125"/><path fill="#F7D684" d="M27.75 22.125c0-.389 0-1.375-.75-2.375-1.595 1.748-4.75 5-7.5 2.375 0 2.278 1.847 4.125 4.125 4.125s4.125-1.847 4.125-4.125z"/><path fill="#FAE09F" d="M25.171 21.298c0 5.065-6.114 7.94-9.171 7.94v-16.238c5.065 0 9.171 3.233 9.171 8.298z"/><path fill="#F7D684" d="M25.171 21.298c0 5.065-6.114 7.94-9.171 7.94v-2.738c2.75 0 5.109-1.141 9.171-5.202z"/><path fill="#FAE09F" d="M28.75 17.375c0-1.673-1.066-3.085-2.551-3.628-.24-1.416-1.465-2.497-2.949-2.497-1.657 0-3 1.343-3 3 0 .836.343 1.59.894 2.134-.038.145-.067.291-.089.442-1.224.716-2.055 2.029-2.055 3.549 0 2.278 1.847 4.125 4.125 4.125 2.263 0 4.096-1.823 4.12-4.08.91-.709 1.505-1.803 1.505-3.045z"/><path fill="#495587" d="M22.347 11.255c-.097 3.245-4.231 5.995-6.347 5.995v-11.738c2.75 0 6.452 2.239 6.347 5.743z"/><ellipse fill="#111511" cx="18.25" cy="10.625" rx="1" ry="1.125"/><circle fill="#fff" cx="18.125" cy="10.375" r=".375"/><path fill="#424B7E" d="M22.347 11.255c-.097 3.245-4.231 6.245-6.347 6.245v-2c2 0 5-2.25 6.347-4.245z"/><path fill="#373F3F" d="M22.702 6.089c1.857-.245 5.844 1.687 6.04 3.18.197 1.494-3.341 2.972-5.175 3.214-.849.112-1.862-.203-2.492-.646-.795-.901-.925-3.122-.703-4.327.494-.681 1.395-1.298 2.33-1.421z"/><path fill="#E5AC38" d="M24.743 9.035c-.119-.904.15-1.763.683-2.42-.531-.21-1.066-.37-1.558-.461-1.149.614-1.824 1.867-1.647 3.214.19 1.444 1.308 2.578 2.728 2.792.528-.164 1.081-.377 1.598-.628-.959-.467-1.658-1.386-1.804-2.497z"/><path fill="#495587" d="M9.055 23.667c0 1.708-.5 6.417 1.5 6.417 2.292 0 2.061-3 2.061-5.5l-3.561-.917z"/><path fill="#515E91" d="M11.18 25.583c0 1.708-.5 6.417 1.5 6.417 2.333 0 2.061-3 2.061-5.5l-3.561-.917z"/><circle fill="#F3E7C0" cx="8.875" cy="22.125" r="4.125"/><path fill="#FAE09F" d="M4.25 22.125c0-.389 0-1.375.75-2.375 1.595 1.748 4.75 5 7.5 2.375 0 2.278-1.847 4.125-4.125 4.125s-4.125-1.847-4.125-4.125z"/><path fill="#FDEBBB" d="M16 13v16.238c-3.057 0-9.171-2.875-9.171-7.94s4.106-8.298 9.171-8.298z"/><path fill="#FAE09F" d="M16 26.5v2.738c-3.057 0-9.171-2.875-9.171-7.94 4.062 4.061 6.421 5.202 9.171 5.202z"/><path fill="#FDEBBB" d="M10.945 16.826c-.022-.151-.05-.297-.089-.442.551-.544.894-1.298.894-2.134 0-1.657-1.343-3-3-3-1.485 0-2.709 1.081-2.949 2.497-1.485.543-2.551 1.955-2.551 3.628 0 1.242.595 2.336 1.505 3.045.025 2.257 1.858 4.08 4.12 4.08 2.278 0 4.125-1.847 4.125-4.125 0-1.52-.831-2.833-2.055-3.549z"/><path fill="#515E91" d="M16 5.512v11.738c-2.116 0-6.25-2.75-6.347-5.995-.105-3.504 3.597-5.743 6.347-5.743z"/><ellipse fill="#111511" cx="13.75" cy="10.625" rx="1" ry="1.125"/><circle fill="#fff" cx="13.875" cy="10.375" r=".375"/><path fill="#495587" d="M16 15.5v2c-2.116 0-6.25-3-6.347-6.245 1.347 1.995 4.347 4.245 6.347 4.245z"/><path fill="#373F3F" d="M9.298 6.089c-1.857-.245-5.844 1.687-6.04 3.18s3.341 2.972 5.175 3.214c.849.112 1.862-.203 2.492-.646.795-.901.925-3.122.703-4.327-.494-.681-1.395-1.298-2.33-1.421z"/><path fill="#EFB43F" d="M9.779 9.367c.177-1.346-.498-2.6-1.647-3.214-.492.092-1.027.252-1.558.462.533.657.802 1.516.683 2.42-.146 1.111-.845 2.03-1.804 2.496.518.251 1.07.464 1.598.628 1.42-.213 2.538-1.347 2.728-2.792z"/><path fill="#FAE09F" d="M20.5 4.501c0 2.485-2.014 4.499-4.499 4.499v-8.999c2.485 0 4.499 2.015 4.499 4.5z"/><path fill="#FDEBBB" d="M16 7c1.294 0 2.344-.956 2.344-2.25s-1.05-2.25-2.344-2.25v4.5zM16 9c-1.312 0-2.375-.938-2.375-2.25s1.063-2.25 2.375-2.25v4.5z"/><path fill="#FFF3D9" d="M16 7c-.437 0-.792-.313-.792-.75s.355-.75.792-.75v1.5z"/><path fill="#FAE09F" d="M16 4.5c.292 0 .529.209.529.502s-.237.502-.529.502v-1.004z"/></svg>