<svg xmlns="http://www.w3.org/2000/svg" width="32" height="32" viewBox="0 0 32 32"><path d="M13 20.993l-4.73 9.46c-.1.199.091.419.303.349l2.427-.809 3-8-1-1z" fill="#E55D53"/><path d="M14 21.993l-3 8 1.223.815c.168.112.387.112.555 0l1.222-.815 1-8h-1z" fill="#D64F45"/><path d="M19 20.993l4.73 9.46c.1.199-.091.419-.303.349l-2.427-.809-3-8 1-1z" fill="#D1473D"/><path d="M18 21.993l3 8-1.223.815c-.168.112-.387.112-.555 0l-1.222-.815-1-8h1z" fill="#D64F45"/><path d="M16 21.993h-1l-1 8 1.776.888c.07.035.147.053.224.053v-8.941z" fill="#E55D53"/><path d="M16.224 30.881l1.776-.888-1-8h-1v8.941c.077 0 .153-.017.224-.053z" fill="#D1473D"/><path d="M21.923 7.84l-.923-1.847-1 1-4 2 3.616 3.384 1.777-1.777c.07-.07.117-.159.137-.255l.437-2.183c.021-.11.006-.223-.044-.322z" fill="#DBA728"/><path d="M4.969 6.993l-2.805-4.723c-.083-.14-.276-.165-.391-.049l-.646.645c-.076.076-.095.192-.046.288l.419.839h-.82c-.108 0-.203.069-.237.171l-.374 1.124c-.04.118.014.247.125.302l.806.403-.862.431c-.084.043-.138.129-.138.224v.691c0 .094.054.181.138.223l.862.431-.862.431c-.084.043-.138.129-.138.224v.691c0 .094.054.181.138.223l.862.431-.862.431c-.084.043-.138.129-.138.224v1.165c0 .108.069.203.171.237l1.329.443-1.314.657c-.108.054-.162.177-.129.292l.36 1.261c.043.151.212.225.352.155l1.731-.865-1.394 1.858c-.064.085-.067.2-.008.289l.744 1.116c.084.126.259.149.373.049l1.785-1.562-.924 2.541c-.043.119.01.252.123.309l1.558.779c.131.065.29.005.344-.131l.899-2.248v2.529c0 .126.094.232.219.248l1.55.194c.13.016.25-.071.276-.199l.455-2.272.46 2.299c.023.117.126.201.245.201h1.795v-5l-3.632-1.816c-.236-.118-.415-.324-.5-.574l-1.899-5.61z" fill="#FFD96C"/><path d="M19.5 8.993h-3.5l4-2 1.965.983.001.186-.437 2.183c-.019.097-.067.186-.137.255l-1.777 1.777.822-2.681-.937-.703z" fill="#2B3332"/><path d="M27.031 6.993l2.805-4.723c.083-.14.276-.164.392-.049l.645.645c.076.076.095.192.047.289l-.42.838h.82c.108 0 .203.069.237.171l.374 1.123c.039.118-.014.247-.125.303l-.806.403.862.431c.084.043.138.129.138.224v.691c0 .095-.054.181-.138.224l-.862.43.862.431c.084.043.138.129.138.224v.691c0 .095-.054.181-.138.224l-.862.43.862.431c.084.043.138.129.138.224v1.165c0 .108-.069.203-.171.237l-1.329.443 1.314.657c.108.054.162.177.129.292l-.36 1.261c-.043.151-.212.225-.352.155l-1.731-.865 1.394 1.858c.064.085.067.2.008.289l-.744 1.116c-.084.126-.259.149-.373.049l-1.785-1.562.924 2.541c.043.119-.01.252-.123.309l-1.558.779c-.131.065-.29.005-.344-.131l-.899-2.248v2.529c0 .126-.094.232-.219.248l-1.55.194c-.13.016-.25-.071-.276-.199l-.455-2.272-.46 2.299c-.023.117-.126.201-.245.201h-1.795v-5l3.632-1.816c.236-.118.415-.324.5-.574l1.899-5.61z" fill="#FFD04D"/><path d="M10.077 7.84l.923-1.847 1 1 4 2-3.616 3.384-1.777-1.777c-.07-.07-.117-.159-.137-.255l-.437-2.183c-.021-.11-.006-.223.044-.322zM12.384 12.378l-.411.386c-.268.252-.652.337-1.001.22l-2.27-.757c-.453-.151-.837-.459-1.083-.868l-2.619-4.366 1.869 5.607c.084.252.264.46.501.578l3.63 1.815 2-1-.616-1.615z" fill="#E0B12E"/><path d="M19.616 12.378l.411.386c.268.252.652.337 1.001.22l2.27-.757c.453-.151.837-.459 1.083-.868l2.619-4.366-1.869 5.607c-.084.252-.264.46-.501.578l-3.63 1.815-2-1 .616-1.615z" fill="#DBA728"/><path d="M20 6.993l2.591-2.591c.223-.223.19-.6-.076-.77-1.57-1.004-4.441-1.59-6.515-1.59v6.951l4-2z" fill="#D64F45"/><path d="M12 6.993l-2.591-2.591c-.223-.223-.19-.6.076-.77 1.57-1.004 4.441-1.59 6.515-1.59v6.951l-4-2z" fill="#E55D53"/><path d="M16 8.993h-3.5l-.938.703.822 2.681-1.384 2.616s-1 1.62-1 4c0 4.418 2.134 8 6 8v-18z" fill="#FFE28A"/><path d="M21 14.993l-1.384-2.616.822-2.681-.938-.703h-3.5v18c3.866 0 6-3.582 6-8 0-2.38-1-4-1-4z" fill="#FFD96C"/><path d="M16 1.066c-1.122 0-2.244.14-3.341.421-.317.081-.475.437-.32.725l3.661 6.781v-7.927z" fill="#FFEAA7"/><path d="M19.341 1.487c-1.097-.281-2.219-.421-3.341-.421v7.928l3.661-6.782c.155-.288-.004-.644-.32-.725z" fill="#FFE28A"/><path fill="#F7F7F7" d="M20 6.993l-.5 2h-3.5z"/><path d="M16 8.993l2.667-1.333v.833c0 .276-.224.5-.5.5h-2.167z" fill="#2B3332"/><path d="M12.5 8.993h3.5l-4-2-1.965.983-.001.186.437 2.183c.019.097.067.186.137.255l1.777 1.777-.822-2.681.937-.703z" fill="#373F3F"/><path fill="#fff" d="M12 6.993l.5 2h3.5z"/><path d="M16 8.993l-2.667-1.333v.833c0 .276.224.5.5.5h2.167z" fill="#373F3F"/><path d="M18.084 25.271l-.553.369c-.342.228-.586.575-.686.974l-.187.747c-.08.322.163.634.495.634h.032c.193 0 .37-.109.456-.282l.359-.72.452.752c.092.154.258.248.437.248h.396c.193 0 .37-.109.456-.282l.359-.718.272.679c.077.194.265.321.474.321h.001c.332 0 .575-.312.495-.634l-.187-.747c-.1-.399-.344-.746-.686-.974l-.553-.369c-.271-.181-.59-.277-.916-.277-.326.001-.645.098-.916.279z" fill="#F4A984"/><path d="M12.084 25.271l-.553.369c-.342.228-.586.575-.686.974l-.187.747c-.08.322.163.634.495.634h.032c.193 0 .37-.109.456-.282l.359-.72.452.752c.092.154.258.248.437.248h.396c.193 0 .37-.109.456-.282l.359-.718.272.679c.077.194.265.321.474.321h.001c.332 0 .575-.312.495-.634l-.187-.747c-.1-.399-.344-.746-.686-.974l-.553-.369c-.271-.181-.59-.277-.916-.277-.326.001-.645.098-.916.279z" fill="#F6B392"/><path d="M16 8.993l-1.193 1.193c-.176.176-.196.454-.046.654l.84 1.12c.1.133.25.2.4.2v-3.167z" fill="#F4A984"/><path d="M16.4 11.96l.84-1.12c.149-.199.13-.478-.046-.654l-1.194-1.193v3.167c.15 0 .3-.067.4-.2z" fill="#EA9C7A"/></svg>