<svg xmlns="http://www.w3.org/2000/svg" width="32" height="32" viewBox="0 0 32 32"><path fill="#D196A6" d="M28.486 12.381c-2.23 6.38-6.425 10.681-12.486 10.681v5.938c6.584 0 12.48-3.918 12.967-16.525.011-.285-.386-.363-.481-.094z"/><path fill="#EA8BB4" d="M28.486 12.381c-2.23 6.38-6.425 10.681-12.486 10.681v5.938c6.584 0 12.48-3.918 12.967-16.525.011-.285-.386-.363-.481-.094z"/><path fill="#3A3A38" d="M28.486 12.381c-.204.583-.43 1.142-.666 1.688.253.084.512.158.779.213l.243.038c.052-.598.1-1.203.125-1.845.012-.285-.386-.363-.481-.094z"/><path fill="#2B3332" d="M27.209 21.537c.599-1.43 1.067-3.097 1.372-5.038-.587-.131-1.149-.313-1.684-.539-.861 1.555-1.879 2.903-3.054 3.996.986.719 2.12 1.26 3.366 1.581z"/><path fill="#B0D3EA" d="M28.75 14.5c-1.243 0-2.25-1.007-2.25-2.25s1.007-2.25 2.25-2.25 2.25 1.007 2.25 2.25-1.007 2.25-2.25 2.25z"/><path fill="#F9ADC8" d="M12.146 22.207l-3.575.511c-1.881.269-3.314 1.84-3.314 3.744 0 .913.278 1.822.994 2.538l1 1.04-1.417.708c-.332.166-.583.345-.583.876 0 .251.152.374.287.374l6.363.002c.135 0 .349-.125.349-.575 0-.362-.207-.509-.391-.692l-.692-.692.979-1.041v-6.793z"/><path fill="#C8CCCB" d="M7.25 31.938c0-.625-.243-1.185-.627-1.584l-.79.395c-.332.166-.583.345-.583.876 0 .251.152.374.287.374h1.707l.006-.061z"/><path fill="#F8A1C4" d="M19.854 22.207l3.575.511c1.881.269 3.314 1.84 3.314 3.744 0 .913-.278 1.822-.994 2.538l-1 1.04 1.417.708c.332.166.583.345.583.876 0 .251-.152.374-.287.374l-6.363.002c-.135 0-.349-.125-.349-.575 0-.362.207-.509.391-.692l.692-.692-.979-1.041v-6.793z"/><path fill="#ABB2B1" d="M24.75 31.938c0-.625.243-1.185.627-1.584l.79.395c.332.166.583.345.583.876 0 .251-.152.374-.287.374h-1.707l-.006-.061z"/><path fill="#FAC4D1" d="M16 12.562h-2.875s-5.125 4.688-5.125 9.438 3.875 8 8 8v-17.438z"/><path fill="#FAB8CD" d="M16 26.25c-3.625 0-6.938-3.062-8-4.25 0 4.75 3.875 8 8 8v-3.75z"/><path fill="#FAC4D1" d="M3.065 19.568c.692 1.608 7.011-1.982 7.368-2.692.357-.71-.719-3.145-1.398-2.825-.755.355-6.719 3.779-5.97 5.517z"/><path fill="#FAB8CD" d="M28.935 19.568c-.692 1.608-7.011-1.982-7.368-2.692-.357-.71.719-3.145 1.398-2.825.755.355 6.719 3.779 5.97 5.517z"/><circle fill="#E3E5E5" cx="10.072" cy="11.219" r="2.197"/><circle fill="#E3E5E5" cx="11.988" cy="16.281" r="2.344"/><circle fill="#F7F7F7" cx="10.955" cy="13.875" r="2.917"/><path fill="#F7F7F7" d="M16 12.104v8.104c-2.238 0-4.052-1.814-4.052-4.052 0-2.238 1.814-4.052 4.052-4.052z"/><circle fill="#E3E6E4" cx="12.413" cy="8.892" r="1.329"/><ellipse transform="matrix(.674 -.739 .739 .674 -3.968 13.369)" fill="#E3E5E5" cx="13.154" cy="11.178" rx="2.01" ry="2.221"/><path fill="#E3E5E5" d="M16 10.071v5.569c-1.538 0-2.784-1.247-2.784-2.784 0-1.538 1.246-2.785 2.784-2.785z"/><path fill="#FBCFD6" d="M16 5.04c-2.245 0-4.75.289-4.75 3.21 0 3.237 1.494 4.299 3.218 5.408.532.342.907.659 1.532.659v-9.277z"/><path fill="#D1D4D4" d="M16 .708c-2.227 0-4.033 1.798-4.033 4.015l.008.068h4.025v-4.083z"/><path fill="#D1D6D2" d="M16 .708c-2.227 0-4.033 1.798-4.033 4.015l.008.068h4.025v-4.083z"/><path fill="#373F3F" d="M12.205 6.758c.155.842.064 2.395-.492 3.024-.44.309-1.148.53-1.742.452-1.282-.169-3.755-1.202-3.617-2.246s2.924-2.394 4.222-2.223c.654.086 1.283.518 1.629.993z"/><path fill="#F8C4CF" d="M10.912 8.056c.124-.941-.348-1.817-1.151-2.246-.344.064-.718.176-1.089.323.372.459.561 1.06.478 1.691-.103.777-.592 1.419-1.262 1.745.362.175.748.324 1.117.439.993-.149 1.774-.942 1.907-1.952z"/><ellipse fill="#D1D4D4" cx="11.695" cy="3.823" rx="2.597" ry="2.823"/><path fill="#D1D4D4" d="M16 4.878v-.867c0-.909-1.377-1.427-2.369-1.427-1.308 0-2.369 1.027-2.369 2.295s1.061 2.295 2.369 2.295 2.369-1.029 2.369-2.296z"/><ellipse fill="#D1D4D4" cx="11.873" cy="5.295" rx="2.111" ry="2.295"/><path fill="#E3E5E5" d="M15.5 2.99c0-1.652-1.231-2.99-2.75-2.99s-2.75 1.338-2.75 2.99 1.461 2.74 2.75 2.74c1.293-.001 2.75-1.089 2.75-2.74z"/><path fill="#F7F7F7" d="M12.75 1.062v2.958c-.751 0-1.361-.662-1.361-1.479s.61-1.479 1.361-1.479zM12.754 4.021v-4.005c1.017 0 1.842.897 1.842 2.003s-.825 2.002-1.842 2.002z"/><circle fill="#373F3F" cx="13.905" cy="9.375" r=".75"/><path fill="#0A6F8E" d="M14.149 9.881c-.414 0-.75-.336-.75-.75 0-.144.051-.27.121-.385-.215.132-.365.358-.365.629 0 .414.336.75.75.75.27 0 .497-.151.629-.365-.115.07-.241.121-.385.121z"/><circle fill="#E3E6E4" cx="14.135" cy="9.088" r=".286"/><path fill="#FAB8CD" d="M16 12.562h2.875s5.125 4.688 5.125 9.438-3.875 8-8 8v-17.438z"/><circle fill="#D1D4D4" cx="21.928" cy="11.219" r="2.197"/><circle fill="#D1D4D4" cx="20.012" cy="16.281" r="2.344"/><circle fill="#E3E5E5" cx="21.045" cy="13.875" r="2.917"/><path fill="#E3E5E5" d="M20.052 16.156c0 2.238-1.814 4.052-4.052 4.052v-8.104c2.238 0 4.052 1.814 4.052 4.052z"/><circle fill="#E3E6E4" cx="19.587" cy="8.892" r="1.329"/><ellipse transform="matrix(.739 -.674 .674 .739 -2.612 15.613)" fill="#D1D4D4" cx="18.846" cy="11.178" rx="2.221" ry="2.01"/><path fill="#D1D4D4" d="M18.784 12.855c0 1.538-1.247 2.784-2.784 2.784v-5.569c1.538.001 2.784 1.248 2.784 2.785z"/><path fill="#FAC4D1" d="M16 5.04c2.245 0 4.75.289 4.75 3.21 0 3.237-1.494 4.299-3.218 5.408-.532.342-.907.659-1.532.659v-9.277z"/><path fill="#C8CCCB" d="M16 .708c2.227 0 4.033 1.798 4.033 4.015l-.008.068h-4.025v-4.083z"/><path fill="#2B3332" d="M21.424 5.765c1.298-.171 4.085 1.179 4.222 2.223s-2.335 2.078-3.617 2.246c-.593.078-1.302-.142-1.742-.452-.556-.63-.647-2.182-.492-3.024.346-.475.975-.907 1.629-.993z"/><path fill="#F8C4CF" d="M21.088 8.056c-.124-.941.348-1.817 1.151-2.246.344.064.718.176 1.089.323-.372.459-.561 1.06-.478 1.691.102.776.591 1.419 1.261 1.745-.362.175-.748.324-1.117.439-.992-.149-1.773-.942-1.906-1.952z"/><ellipse fill="#C8CCCB" cx="20.305" cy="3.823" rx="2.597" ry="2.823"/><path fill="#C8CCCB" d="M16 4.878v-.867c0-.909 1.377-1.427 2.369-1.427 1.308 0 2.369 1.027 2.369 2.295s-1.061 2.295-2.369 2.295c-1.308-.001-2.369-1.029-2.369-2.296z"/><ellipse fill="#C8CCCB" cx="20.127" cy="5.295" rx="2.111" ry="2.295"/><path fill="#D1D4D4" d="M16.5 2.99c0-1.652 1.231-2.99 2.75-2.99s2.75 1.338 2.75 2.99-1.461 2.74-2.75 2.74c-1.293-.001-2.75-1.089-2.75-2.74z"/><path fill="#E3E5E5" d="M20.611 2.542c0 .817-.609 1.479-1.361 1.479v-2.959c.751 0 1.361.663 1.361 1.48zm-1.365 1.479v-4.005c-1.017 0-1.842.897-1.842 2.003s.825 2.002 1.842 2.002z"/><circle fill="#2B3332" cx="18.095" cy="9.375" r=".75"/><path fill="#0A6F8E" d="M17.851 9.881c.414 0 .75-.336.75-.75 0-.144-.051-.27-.121-.385.215.132.365.358.365.629 0 .414-.336.75-.75.75-.27 0-.497-.151-.629-.365.115.07.241.121.385.121z"/><circle fill="#E3E6E4" cx="17.865" cy="9.088" r=".286"/><path fill="#F9ADC8" d="M16 26.25c3.625 0 6.938-3.062 8-4.25 0 4.75-3.875 8-8 8v-3.75z"/></svg>