<svg xmlns="http://www.w3.org/2000/svg" width="32" height="32" viewBox="0 0 32 32"><path fill="#D196A6" d="M28.828 12.948c-1.666 5.189-4.8 8.688-9.328 8.688v4.83c4.919 0 9.323-3.187 9.687-13.442.009-.232-.289-.295-.359-.076z"/><path fill="#F0C13E" d="M28.828 12.948c-1.666 5.189-4.8 8.688-9.328 8.688v4.83c4.919 0 9.323-3.187 9.687-13.442.009-.232-.289-.295-.359-.076z"/><path fill="#3A3A38" d="M28.828 12.947c-.152.474-.321.929-.498 1.373.189.068.382.128.582.173l.181.031c.039-.486.075-.978.094-1.501.009-.231-.289-.294-.359-.076z"/><path fill="#2B3332" d="M27.874 20.395c.447-1.163.797-2.519 1.025-4.098-.438-.107-.858-.255-1.258-.438-.643 1.265-1.404 2.361-2.281 3.25.736.584 1.583 1.025 2.514 1.286zM26.212 23.377c-.61-.311-1.203-.673-1.771-1.094-.573-.425-1.097-.891-1.574-1.389-1.02.477-2.141.742-3.367.742v3.951c.285.293.586.573.904.84 2.199-.185 4.241-1.088 5.808-3.05z"/><path fill="#FFD96C" d="M14.317 14.526c-1.436-.031-3.078.183-5.352 1.174-2.276.992-5.021 2.992-4.965 3.336s3.539.524 5.682-.25c2.302-.831 3.617-2.023 4.667-3.15.116-.301-.032-1.11-.032-1.11z"/><path fill="#FFD04D" d="M17.683 14.526c1.436-.031 3.078.183 5.352 1.174 2.276.992 5.021 2.992 4.965 3.336-.056.343-3.539.524-5.682-.25-2.302-.831-3.617-2.023-4.667-3.15-.116-.301.032-1.11.032-1.11zM9.788 21.03c-.373 0-3.172 3.172-3.172 4.945s2.053 2.193 2.053 3.079-3.669.903-3.669 1.976 2.879 1.119 3.958.792c1.375-.417 1.995-.949 1.995-1.415s-.606-.653-.606-1.026 1.819-1.12 1.819-1.12l-2.378-7.231z"/><path fill="#FFD96C" d="M16 8.958l-2.667.042s.667.792.667 4.708c0 4.125-5 4.334-5 10.292 0 4.042 4.583 6 7 6v-21.042z"/><path fill="#EDEEEE" d="M16 17.167c-1.542 0-3.083 4.159-6.606 4.159-.246.771-.394 1.648-.394 2.674 0 4.042 4.583 6 7 6v-12.833z"/><path fill="#FFE28A" d="M16 2c-1.92 0-4.5 1.206-4.5 4.75 0 2.363 2.875 5 4.5 5v-9.75z"/><path fill="#434C4B" d="M14.49 2.23c-.134-.715-.591-1.545-1.5-1.909-.909-.364-2.162-.433-2.408-.136-.227.273-.207 1.898.5 2.726.752.881 1.29.884 1.772 1.045.545.183 1.772-.999 1.636-1.726z"/><g fill="#434C4B"><path d="M13.996 13.345l.004.363-.035.459c.521.286 1.1.487 1.726.564l.309.007v-.787l-.213-.006c-.653-.08-1.255-.293-1.791-.6zM13.942 11.624c.019.271.033.571.043.892.557.33 1.186.557 1.869.641l.146.003v-.788l-.05-.001c-.747-.091-1.419-.364-2.008-.747z"/></g><path fill="#FFE28A" d="M13.745.839c-.209-.207-.447-.395-.755-.518l-.177-.061c-.259 1.029-1.024 1.847-2.019 2.186.081.169.172.33.288.466.161.189.311.332.455.45 1.154-.336 2.026-1.311 2.208-2.523z"/><circle fill="#373F3F" cx="13.639" cy="6.281" r=".75"/><path fill="#0A6F8E" d="M13.883 6.787c-.414 0-.75-.336-.75-.75 0-.144.051-.27.121-.385-.215.132-.365.358-.365.629 0 .414.336.75.75.75.27 0 .497-.151.629-.365-.114.07-.241.121-.385.121z"/><circle fill="#fff" cx="13.869" cy="5.994" r=".286"/><path fill="#E85160" d="M16 3.808v2.093c-.552 0-1-.469-1-1.047s.448-1.046 1-1.046z"/><path fill="#F7C845" d="M22.212 21.03c.373 0 3.172 3.172 3.172 4.945s-2.053 2.193-2.053 3.079 3.669.903 3.669 1.976-2.879 1.119-3.958.792c-1.375-.417-1.995-.949-1.995-1.415s.606-.653.606-1.026-1.819-1.12-1.819-1.12l2.378-7.231z"/><path fill="#FFD04D" d="M16 8.958l2.667.042s-.667.792-.667 4.708c0 4.125 5 4.333 5 10.292 0 4.042-4.583 6-7 6v-21.042z"/><path fill="#E3E5E5" d="M16 17.167c1.542 0 3.083 4.159 6.606 4.159.246.771.394 1.648.394 2.674 0 4.042-4.583 6-7 6v-12.833z"/><path fill="#FFD96C" d="M16 2c1.92 0 4.5 1.206 4.5 4.75 0 2.363-2.875 5-4.5 5v-9.75z"/><path fill="#373F3F" d="M17.51 2.23c.134-.715.591-1.545 1.5-1.909.909-.364 2.162-.433 2.408-.136.227.273.207 1.898-.5 2.726-.752.881-1.29.884-1.772 1.045-.545.183-1.772-.999-1.636-1.726z"/><g fill="#373F3F"><path d="M18.004 13.345l-.004.363.035.459c-.521.286-1.1.487-1.726.564l-.309.007v-.787l.213-.006c.653-.08 1.255-.293 1.791-.6zM18.058 11.624c-.019.271-.033.571-.043.892-.557.33-1.186.557-1.869.641l-.146.003v-.788l.05-.001c.747-.091 1.419-.364 2.008-.747z"/></g><path fill="#FFD96C" d="M18.255.839c.209-.207.447-.395.755-.518l.177-.061c.259 1.029 1.024 1.847 2.019 2.186-.081.169-.172.33-.288.466-.161.189-.311.332-.455.45-1.154-.336-2.026-1.311-2.208-2.523z"/><circle fill="#2B3332" cx="18.361" cy="6.281" r=".75"/><path fill="#0A6F8E" d="M18.117 6.787c.414 0 .75-.336.75-.75 0-.144-.051-.27-.121-.385.215.132.365.358.365.629 0 .414-.336.75-.75.75-.27 0-.497-.151-.629-.365.114.07.241.121.385.121z"/><circle fill="#F7F7F7" cx="18.131" cy="5.994" r=".286"/><path fill="#D84459" d="M17 4.854c0 .578-.448 1.047-1 1.047v-2.093c.552 0 1 .468 1 1.046zM28.75 15.625c-1.243 0-2.25-1.007-2.25-2.25s1.007-2.25 2.25-2.25 2.25 1.007 2.25 2.25-1.007 2.25-2.25 2.25z"/></svg>