<svg xmlns="http://www.w3.org/2000/svg" width="32" height="32" viewBox="0 0 32 32"><path fill="#B9FCB5" d="M10 8.984c0 3.314 2.686 6 6 6v-12c-3.314 0-6 2.687-6 6z"/><path fill="#A3FA9E" d="M16 2.984v12c3.314 0 6-2.686 6-6s-2.686-6-6-6z"/><path fill="#E55D53" d="M10.021 4.484c-.128-.358-.566-1.134-.832-1.594-.125-.215-.389-.306-.618-.21-.611.256-1.735.844-2.092 1.804-.352.949-.237 1.73-.114 2.16.062.217.261.359.486.357l1.607-.017 1.563-2.5zM7.826 12.267c.172.09.36-.067.346-.26-.103-1.423.557-3.024 1.765-4.043.766-.646.604-.542.667-1.479-1.666-.001-4.604.312-4.625 2.498-.009.918.454 2.552 1.847 3.284zM10.021 4.984c-1.625-1.625.854-4.984 3.088-4.984 1.54 0 2.37 1.568 1.62 2.776-1.303 2.099-3.151 2.208-3.151 2.208h-1.557z"/><path fill="#4EAC5D" d="M16.063 17c2.375.875 3.091 1.938 4.903 4.125 1.926 2.325 1.201 7.035-1.287 9.814-.093.104-.252.116-.355.022-1.107-1-3.231-3.129-5.317-5.795-.749-.958 2.056-8.166 2.056-8.166z"/><path fill="#54B668" d="M15.945 17c-2.375.875-3.091 1.938-4.903 4.125-1.926 2.325-1.201 7.035 1.287 9.814.093.104.252.116.355.022 1.107-1 3.231-3.129 5.317-5.795.749-.958-2.056-8.166-2.056-8.166z"/><path fill="#4EAC5D" d="M16.063 17c2.375.875 4.657 1.75 6.47 3.938 1.925 2.323 4.52 6.73 2.189 9.496-.09.107-.253.12-.357.027-1.098-.97-3.139-2.817-5.439-5.295-2.888-3.108-2.863-8.166-2.863-8.166z"/><path fill="#FFE28A" d="M16 17c5.788.312 7.883.812 9.758 3.188 1.703 2.157 2.206 7.195 5.105 8.947.224.135.123.475-.138.465-4.212-.175-6.652-1.246-9.38-3.974-3-3.001-5.345-8.626-5.345-8.626z"/><path fill="#60C46F" d="M16 17c2.597.667 4.649 1.75 6.462 3.938 1.897 2.29 1.972 8.401-1.096 10.468-.154.104-.359-.008-.379-.193-.116-1.082-.766-3.391-2.963-5.588-1.359-1.36-2.024-3.062-2.024-5.115v-3.51z"/><path fill="#FFE28A" d="M20.5 24.331c0 3.164-1.857 4.413-4.3 7.573-.05.064-.125.096-.2.096v-14.836c2.375.875 4.5 4.042 4.5 7.167z"/><path fill="#54B668" d="M15.945 17c-2.375.875-4.657 1.75-6.47 3.938-1.925 2.323-4.52 6.73-2.189 9.496.09.107.253.12.357.027 1.098-.97 3.139-2.817 5.439-5.295 2.888-3.108 2.863-8.166 2.863-8.166z"/><path fill="#FFEAA7" d="M16 17c-5.788.312-7.875.812-9.75 3.188-1.703 2.157-2.206 7.195-5.105 8.947-.224.135-.123.475.138.465 4.212-.175 6.652-1.246 9.38-3.974 3-3.001 5.337-8.626 5.337-8.626z"/><path fill="#6CD275" d="M16 17c-2.597.667-4.649 1.75-6.462 3.938-1.897 2.29-1.972 8.401 1.096 10.468.154.104.359-.008.379-.193.116-1.082.766-3.391 2.963-5.588 1.359-1.36 2.024-3.062 2.024-5.115v-3.51z"/><path fill="#FFEAA7" d="M11.5 24.331c0 3.164 1.857 4.413 4.3 7.573.05.064.125.096.2.096v-14.836c-2.375.875-4.5 4.042-4.5 7.167z"/><path fill="#78DF7C" d="M16 14c.833 0 1.708 1 2.958 1s4.08-.796 5.51-.469c1.229.281.469 3.969-1.406 3.969-2.012 0-3.219-1.25-4.094-1.281l-2.968-.219v-3z"/><path fill="#84ED82" d="M16.005 14c-.833 0-1.708 1-2.958 1s-4.08-.796-5.51-.469c-1.23.281-.47 3.969 1.405 3.969 2.012 0 3.219-1.25 4.094-1.281l2.969-.219v-3z"/><ellipse transform="matrix(.707 -.707 .707 .707 -.837 8.886)" fill="#FFEAA7" cx="10.307" cy="5.453" rx="2.125" ry="1.75"/><ellipse transform="matrix(.707 -.707 .707 .707 -.638 8.419)" fill="#4F4032" cx="9.844" cy="4.979" rx="1.525" ry=".663"/><path fill="#E55D53" d="M16.006 2.978c0 .798-.525 3.136-1.256 3.772-.844.734-3.018.924-3.25-.266-.04-.255-.176-1.306.422-1.906.795-.799 2.234-1.587 4.084-1.6zM9.398 11.317c.051.076.155.093.225.034.839-.717 3.04-1.765 2.862-3.367-.094-.843-.984-1.5-.984-1.5s-4.245 1.658-2.103 4.833z"/><path fill="#D64F45" d="M21.985 4.484c.128-.358.566-1.135.832-1.594.125-.215.389-.306.618-.21.611.257 1.735.844 2.092 1.805.352.949.237 1.73.114 2.16-.062.217-.261.359-.486.357l-1.607-.017-1.563-2.501zM24.18 12.267c-.172.09-.36-.067-.346-.26.103-1.423-.557-3.024-1.765-4.043-.766-.646-.604-.542-.667-1.479 1.667 0 4.604.312 4.625 2.498.009.918-.454 2.552-1.847 3.284zM21.985 4.984c1.625-1.625-.854-4.984-3.088-4.984-1.54 0-2.37 1.568-1.62 2.776 1.303 2.099 3.151 2.208 3.151 2.208h1.557z"/><ellipse transform="matrix(.707 -.707 .707 .707 2.499 16.94)" fill="#FFE28A" cx="21.699" cy="5.453" rx="1.75" ry="2.125"/><ellipse transform="matrix(.707 -.707 .707 .707 2.97 17.129)" fill="#4F4032" cx="22.162" cy="4.979" rx=".663" ry="1.525"/><path fill="#D64F45" d="M16 2.978c0 .798.525 3.136 1.256 3.772.844.734 3.018.924 3.25-.266.04-.255.176-1.306-.422-1.906-.795-.799-2.234-1.587-4.084-1.6zM22.608 11.317c-.051.076-.155.093-.225.034-.839-.717-3.04-1.765-2.862-3.367.094-.843.984-1.5.984-1.5s4.245 1.658 2.103 4.833z"/><path fill="#CE8683" d="M16 11.766l-.003-1.687c-.322 0-.668-.031-.981-.126l-.047.034c.006.415.103 1.779 1.031 1.779z"/><circle fill="#140E0F" cx="13.75" cy="9" r="1"/><circle fill="#fff" cx="13.75" cy="8.65" r=".5"/><path fill="#DF6144" d="M14.572 10.38c.048.134-.245.314-.655.404-.41.089-.78.054-.828-.08-.048-.134.245-.314.655-.404.41-.09.78-.054.828.08z"/><path fill="#E55D53" d="M14.969 9.986l.047-.034c.312.095.662.126.984.126v1.687c-.928.001-1.025-1.363-1.031-1.779z"/><circle fill="#373F3F" cx="13.75" cy="9" r="1"/><circle fill="#fff" cx="13.75" cy="8.65" r=".5"/><path fill="#E55D53" d="M14.572 10.38c.048.134-.245.314-.655.404-.41.089-.78.054-.828-.08-.048-.134.245-.314.655-.404.41-.09.78-.054.828.08z"/><path fill="#D64F45" d="M16 11.766v-1.687c.322 0 .672-.031.984-.126l.047.034c-.006.415-.103 1.779-1.031 1.779z"/><circle fill="#2B3332" cx="18.25" cy="9" r="1"/><circle fill="#F7F7F7" cx="18.25" cy="8.65" r=".5"/><path fill="#D64F45" d="M17.428 10.38c-.048.134.245.314.655.404.41.089.78.054.828-.08.048-.134-.245-.314-.655-.404-.41-.09-.78-.054-.828.08z"/><path fill="#A3FA9E" d="M10.962 12.245c1.069 1.649 2.926 2.739 5.038 2.739v-1.234c-1.792.042-3.917-.792-5.038-1.505z"/><path fill="#90FB89" d="M21.038 12.245c-1.069 1.649-2.926 2.739-5.038 2.739v-1.234c1.792.042 3.917-.792 5.038-1.505z"/></svg>