<svg xmlns="http://www.w3.org/2000/svg" width="32" height="32" viewBox="0 0 32 32"><path fill="#2B3332" d="M19.371 32.044l-.062-.002c-.253-.021-.477-.167-.598-.39l-4.437-8.435c-.129-.245-.035-.547.209-.675.245-.127.547-.035.675.209l4.247 8.074 3.545-4.822 7.663 4.628-2.84-8.811c-.084-.263.06-.544.323-.629.262-.083.545.06.629.323l3.045 9.447c.097.301-.001.623-.249.818-.249.196-.584.216-.853.053l-7.453-4.501-3.245 4.413c-.15.194-.368.3-.599.3zm11.448-.777h.01-.01z"/><path fill="#65A9DC" d="M11.815 5.625c-.401-3.153-2.875-5.583-5.876-5.583-3.28 0-5.939 2.901-5.939 6.478 0 3.436 2.454 6.239 5.554 6.456-.262.868-.435 1.779-.509 2.722-.603.272-1.302.424-2.045.424-.917 0-3-.625-3 1.5 0 1.75 1.958 1.875 3 1.5.538-.194 1.302-.719 2.047-1.301.504 6.126 5.212 10.929 10.953 10.929v-24.031c-1.483 0-2.895.325-4.185.906z"/><circle fill="#529CCF" cx="28.396" cy="23.688" r="3.604"/><path fill="#5CA3D5" d="M29 16.122c-.743 0-1.442-.151-2.045-.424-.074-.943-.247-1.854-.509-2.722 3.098-.22 5.551-3.022 5.551-6.457 0-3.578-2.659-6.479-5.94-6.479-3.001 0-5.476 2.43-5.877 5.582-1.289-.579-2.7-.903-4.18-.903v24.031c5.741 0 10.449-4.803 10.953-10.929.745.582 1.509 1.107 2.047 1.301 1.042.375 3 .25 3-1.5 0-2.125-2.083-1.5-3-1.5z"/><path fill="#65A9DC" d="M9.792 25c-.833.917-2.568 2.916-2.958 4-.375 1.042-.25 3 1.5 3 2.125 0 1.5-2.083 1.5-3 0-1.162.333-2.25 1-2.958-.626-.584-1.042-1.042-1.042-1.042z"/><path fill="#E55D53" d="M2.006 8.038c0-2.592 1.839-4.538 3.96-4.538 2.467 0 3.887 2.14 4.023 3.268.012.104-.052.194-.147.237-1.846.85-3.395 3.306-3.74 4.796-.027.118-.125.201-.246.195-1.72-.076-3.85-1.467-3.85-3.958z"/><path fill="#5CA3D5" d="M22.539 25c.833.917 2.568 2.916 2.958 4 .375 1.042.25 3-1.5 3-2.125 0-1.5-2.083-1.5-3 0-1.162-.333-2.25-1-2.958.625-.584 1.042-1.042 1.042-1.042z"/><path fill="#D64F45" d="M29.991 8.038c0-2.592-1.839-4.538-3.96-4.538-2.467 0-3.887 2.14-4.023 3.268-.012.104.052.194.147.237 1.846.85 3.395 3.306 3.74 4.796.027.118.125.201.246.195 1.72-.076 3.85-1.467 3.85-3.958z"/><path fill="#EDEEEE" d="M6.148 22.092c1.804 3.947 5.538 6.658 9.852 6.658v-9.083c-4.333 0-8.25 1.416-9.852 2.425z"/><path fill="#E55D53" d="M16 12.585v3.218c-1.188 0-2.198-1.625-2.249-2.551-.006-.102.079-.172.175-.207.383-.14 1.007-.454 2.074-.46z"/><path fill="#D64F45" d="M18.075 13.045c.096.035.181.105.175.207-.051.926-1.062 2.551-2.249 2.551v-3.218c1.067.006 1.691.32 2.074.46z"/><ellipse fill="#373F3F" cx="12.499" cy="10.028" rx="1.499" ry="1.665"/><circle fill="#fff" cx="12.499" cy="9.395" r=".833"/><ellipse fill="#2B3332" cx="19.501" cy="10.028" rx="1.499" ry="1.665"/><circle fill="#F7F7F7" cx="19.501" cy="9.395" r=".833"/><path fill="#E3E5E5" d="M25.852 22.092c-1.804 3.947-5.538 6.658-9.852 6.658v-9.083c4.333 0 8.25 1.416 9.852 2.425z"/></svg>