<svg xmlns="http://www.w3.org/2000/svg" width="32" height="32" viewBox="0 0 32 32"><path fill="#2B3332" d="M29.347 32.026c-.15 0-.3-.045-.429-.136l-4.497-3.62c-.076-.062-.177-.081-.273-.059l-6.715 1.741-3.018-4.959c-.144-.236-.068-.543.167-.687.236-.144.544-.068.687.167l2.631 4.324 5.996-1.554c.399-.103.83-.011 1.152.248l3.917 3.155-1.081-5.381c-.054-.271.121-.535.392-.589.268-.054.534.121.589.392l1.218 6.062c.058.306-.071.608-.328.775-.125.08-.267.121-.408.121zm-.245-.705h.01-.01z"/><circle fill="#4896C8" cx="28.375" cy="25.125" r="3.604"/><path fill="#5CA3D5" d="M25 17.664c.917.833 2.916 2.568 4 2.958 1.042.375 3 .25 3-1.5 0-2.125-2.083-1.5-3-1.5-1.162 0-2.25-.333-2.958-1-.584.625-1.042 1.042-1.042 1.042zM22.33 32c-1.458 0-3.958-2.625-4.542-3.5.667-.625 1.083-1 1.083-1s2 1.5 3.375 1.5 2.042.542 2.042 1.5c.001 1-.833 1.5-1.958 1.5zM17.725 10.769c.498-1.195 2.07-5.924 2.717-6.571.647-.647 9.264-5.974 11.326-3.584 1.512 1.752-4.821 5.54-6.251 6.438-.203.127-.381.282-.538.464l-4.865 5.644-2.389-2.391z"/><path fill="#D64F45" d="M19.836 8.733c.265-.886 1.336-3.571 1.758-3.992.421-.421 6.44-3.737 7.155-2.513.596 1.022-3.742 3.722-4.131 4.046l-2.705 3.341s-1.063-.605-2.077-.882z"/><path fill="#5CA3D5" d="M16 7.5v23c5.816 0 10.531-5.149 10.531-11.5s-4.715-11.5-10.531-11.5z"/><path fill="#CE8683" d="M16 14.763c-.506 0-1.169.133-1.479.733.149.289.355.529.595.704l.067.044c.096.063.197.112.303.152l.099.037c.133.04.271.067.415.067v-1.737z"/><path fill="#65A9DC" d="M14.274 11.022c-.523-1.254-2.512-6.662-2.904-7.524-.211-.463-.679-2.456-3.814-2.456-3.031 0-7.472 1.933-7.472 4.337 0 1.933 6.897.627 6.897.627l4.785 7.524 2.508-2.508zM7 17.664c-.917.833-2.916 2.568-4 2.958-1.042.375-3 .25-3-1.5 0-2.125 2.083-1.5 3-1.5 1.162 0 2.25-.333 2.958-1 .584.625 1.042 1.042 1.042 1.042zM9.67 32c1.458 0 3.958-2.625 4.542-3.5-.667-.625-1.083-1-1.083-1s-2 1.5-3.375 1.5-2.042.542-2.042 1.5c-.001 1 .833 1.5 1.958 1.5z"/><path fill="#E55D53" d="M12.417 8.975c-.532-1.29-1.625-4.1-1.897-4.654-.603.637-1.937 1.346-2.603 1.588.243.419 2.447 3.895 2.447 3.895s1.055-.598 2.053-.829z"/><path fill="#65A9DC" d="M5.469 19c0 6.351 4.715 11.5 10.531 11.5v-23c-5.816 0-10.531 5.149-10.531 11.5z"/><path fill="#F7F7F7" d="M6.376 23.694c.428-.382.927-.694 1.707-.694 1.959 0 1.917 2.042 3.917 2.042s2.042-2.042 4-2.042v7.5c-4.469 0-7.977-2.801-9.624-6.806zm4.791-5.09c-1.036 0-1.875.895-1.875 2s.839 2 1.875 2 1.875-.895 1.875-2c0-1.104-.84-2-1.875-2zm-3.584-1.812c-.483 0-.875.448-.875 1s.392 1 .875 1 .875-.448.875-1c0-.553-.391-1-.875-1zm7.042 3.708c0 .81.616 1.467 1.375 1.467v-2.933c-.759-.001-1.375.656-1.375 1.466z"/><path fill="#EDEEEE" d="M16 30.5v-7.5c1.958 0 2 2.042 4 2.042s1.958-2.042 3.917-2.042c.78 0 1.268.324 1.695.706-1.588 3.941-5.331 6.794-9.612 6.794zm2.958-9.896c0 1.105.839 2 1.875 2s1.875-.895 1.875-2-.839-2-1.875-2-1.875.896-1.875 2zm4.584-2.812c0 .552.392 1 .875 1s.875-.448.875-1-.392-1-.875-1c-.484 0-.875.447-.875 1zm-7.542 1.241v2.933c.759 0 1.375-.657 1.375-1.467 0-.809-.616-1.466-1.375-1.466z"/><path fill="#E55D53" d="M16 14.752v3.218c-1.188 0-2.198-1.625-2.249-2.551-.006-.102.079-.172.175-.207.383-.14 1.007-.454 2.074-.46z"/><path fill="#D64F45" d="M18.075 15.212c.096.035.181.105.175.207-.051.926-1.062 2.551-2.249 2.551v-3.218c1.067.006 1.691.32 2.074.46z"/><g fill="#373F3F"><ellipse cx="12.5" cy="12.167" rx="1.5" ry="1.667"/><circle cx="12.5" cy="11.533" r=".833"/></g><ellipse fill="#373F3F" cx="12.5" cy="12.167" rx="1.5" ry="1.667"/><circle fill="#fff" cx="12.5" cy="11.533" r=".833"/><ellipse fill="#2B3332" cx="19.5" cy="12.167" rx="1.5" ry="1.667"/><circle fill="#F7F7F7" cx="19.5" cy="11.533" r=".833"/></svg>