<svg xmlns="http://www.w3.org/2000/svg" width="32" height="32" viewBox="0 0 32 32"><path fill="#9E6E43" d="M11.926.556c-.499-.3-1.148-.111-1.409.41l-.031.062c-.262.523-.02 1.158.523 1.376l3.991 1.596v1h-1c-1.105 0-2 .895-2 2v6.422c0 .605-.539 1.085-1.137.998-1.59-.231-2.789-.94-3.691-1.836-.539-.535-.288-1.459.442-1.668l1.523-.435-.274-.962-2.406.687c-.487.139-1.007-.108-1.201-.576-.578-1.393-.745-2.572-.76-2.693l-.992.125c.004.031.164 1.182.727 2.624.217.555-.076 1.178-.649 1.342l-1.719.491.274.962 2.349-.671c.399-.114.832.025 1.073.363.95 1.333 2.32 3.542 4.288 4.06 1.286.339 2.153 1.545 2.153 2.875v4.498c0 .348-.181.672-.479.853l-1.268.775c-.746.456-1.109 1.344-.897 2.192l.644 2.574h-1c-.552 0-1 .448-1 1s.448 1 1 1h2c.552 0 1-.448 1-1v-1c0-.552.448-1 1-1h3v-26l-4.074-2.444z"/><path fill="#96643B" d="M28.418 11.028c-.573-.164-.865-.787-.649-1.342.563-1.442.723-2.593.727-2.624l-.992-.125c-.015.12-.183 1.3-.76 2.693-.194.467-.714.715-1.201.576l-2.406-.687-.274.962 1.523.435c.731.209.982 1.133.442 1.668-.903.896-2.101 1.605-3.691 1.836-.598.087-1.137-.393-1.137-.998v-6.422c0-1.105-.895-2-2-2h-1v-1l3.991-1.596c.543-.217.785-.852.523-1.376l-.031-.062c-.26-.521-.909-.71-1.409-.41l-4.074 2.444v26h3c.552 0 1 .448 1 1v1c0 .552.448 1 1 1h2c.552 0 1-.448 1-1s-.448-1-1-1h-1l.644-2.575c.212-.848-.151-1.736-.897-2.192l-1.268-.775c-.298-.181-.479-.504-.479-.852v-5.498c0-1.33.867-1.536 2.153-1.874 1.968-.518 3.338-2.727 4.288-4.06.241-.338.674-.477 1.073-.363l2.349.671.274-.962-1.719-.492z"/><circle fill="#4EAC5D" cx="4" cy="7" r="2"/><circle fill="#4EAC5D" cx="2" cy="12" r="2"/><circle fill="#4EAC5D" cx="9" cy="10" r="2"/><circle fill="#48A353" cx="28" cy="7" r="2"/><circle fill="#48A353" cx="30" cy="12" r="2"/><circle fill="#48A353" cx="23" cy="10" r="2"/><ellipse fill="#373F3F" cx="14.5" cy="9" rx=".5" ry="1"/><ellipse fill="#2B3332" cx="17.5" cy="9" rx=".5" ry="1"/><path fill="#F9BDA0" d="M16 12c-.865 0-1.768-.443-1.777-.448-.248-.121-.547-.022-.67.225s-.023.546.224.67c.045.023 1.118.553 2.223.553v-1z"/><path fill="#F6B392" d="M18.224 12.447c.247-.124.347-.423.224-.67-.123-.248-.421-.346-.67-.225-.01.005-.913.448-1.778.448v1c1.105 0 2.178-.53 2.224-.553z"/><ellipse fill="#FFD96C" cx="14" cy="19.5" rx=".5" ry="1"/><ellipse fill="#FFD96C" cx="14" cy="26.5" rx=".5" ry="1"/><ellipse fill="#FFD04D" cx="18" cy="20.5" rx=".5" ry="1"/><path fill="#FFD96C" d="M16 21.5c-.414 0-.75.672-.75 1.5s.336 1.5.75 1.5v-3z"/><path fill="#FFD04D" d="M16.75 23c0-.828-.336-1.5-.75-1.5v3c.414 0 .75-.672.75-1.5z"/><path fill="#FFD96C" d="M16 15.5c-.414 0-.75.672-.75 1.5s.336 1.5.75 1.5v-3z"/><path fill="#FFD04D" d="M16.75 17c0-.828-.336-1.5-.75-1.5v3c.414 0 .75-.672.75-1.5z"/></svg>