<svg xmlns="http://www.w3.org/2000/svg" width="32" height="32" viewBox="0 0 32 32"><path fill="#BEE758" d="M20.614 14.734v3.498c2.308 0 9.232-1.154 9.232-6.924h-2.309c.001 2.308-5.733 3.426-6.923 3.426z"/><path fill="#FFE28A" d="M29.846 10.154c0-.637-.517-1.154-1.154-1.154s-1.154.517-1.154 1.154c-.637 0-1.154.517-1.154 1.154 0 .478.29.888.704 1.063-.134.155-.284.306-.465.446 1.672 1.52 1.167 1.087 2.161 1.931.466-.647.8-1.414.957-2.307l.104.021c.637 0 1.154-.517 1.154-1.154s-.516-1.154-1.153-1.154z"/><path fill="#B38658" d="M28.692 12.173c-.478 0-.865-.387-.865-.865s.387-.865.865-.865.865.387.865.865-.387.865-.865.865z"/><path fill="#CBEB6B" d="M4.462 11.308h-2.309c0 5.77 6.925 6.924 9.232 6.924v-3.498c-1.189 0-6.923-1.118-6.923-3.426z"/><path fill="#FFEAA7" d="M4.911 12.371c.414-.175.704-.585.704-1.063 0-.637-.517-1.154-1.154-1.154.001-.637-.516-1.154-1.153-1.154s-1.154.517-1.154 1.154c-.637 0-1.154.517-1.154 1.154s.517 1.154 1.154 1.154l.104-.021c.158.893.491 1.66.957 2.307.994-.844.489-.411 2.161-1.931-.181-.14-.331-.291-.465-.446z"/><circle fill="#B38658" cx="3.308" cy="11.308" r=".865"/><path fill="#B1E346" d="M24.072 19.5c1.143 0 5.714 1.143 5.714 3.428 0 .956-.622 1.789-1.273 2.462-.502.518-.427 1.357.174 1.757l2.243 1.495-4.571 2.286-1.904-3.047c-.214-.214-.224-.558-.023-.784l1.257-1.228c.306-.299.187-.816-.219-.951l-2.54-.847 1.142-4.571z"/><circle fill="#FFD96C" cx="26.357" cy="30.928" r="1.072"/><circle fill="#FFD96C" cx="28.785" cy="29.857" r="1.072"/><circle fill="#FFD96C" cx="30.928" cy="28.785" r="1.072"/><path fill="#BEE758" d="M7.928 19.5c-1.143 0-5.714 1.143-5.714 3.428 0 .956.622 1.789 1.273 2.462.502.518.427 1.357-.174 1.757l-2.243 1.495 4.571 2.286 1.904-3.047c.214-.214.224-.558.023-.784l-1.257-1.228c-.306-.299-.187-.816.219-.951l2.54-.847-1.142-4.571z"/><circle fill="#FFE28A" cx="5.643" cy="30.928" r="1.072"/><circle fill="#FFE28A" cx="3.215" cy="29.857" r="1.072"/><circle fill="#FFE28A" cx="1.072" cy="28.785" r="1.072"/><path fill="#65A9DC" d="M16.031 4.688h-.011c-.276-.006-.495-.235-.489-.511.044-2.053.09-4.177 2.261-4.177 1.312 0 1.728.737 1.845 1.054.203.546.054 1.178-.363 1.537-.382.33-.901.365-1.39.097-.242-.133-.33-.438-.196-.68.133-.242.437-.329.68-.196.169.093.231.04.254.021.087-.075.142-.261.078-.431-.096-.256-.427-.402-.908-.402-.923 0-1.201.42-1.26 3.198-.007.273-.229.49-.501.49z"/><path fill="#BEE758" d="M22.909 16.726c-.921-1.346-1.337-3.755-1.364-5.567.388-.733.611-1.551.611-2.418 0-3.09-2.755-5.595-6.154-5.595v26.854c4.613-.001 8.357-3.964 8.357-8.577-.001-1.743-.536-3.36-1.45-4.697z"/><path fill="#CBEB6B" d="M16.001 3.146c-3.399 0-6.154 2.505-6.154 5.595 0 .865.222 1.682.608 2.413-.027 1.813-.443 4.225-1.365 5.573-.914 1.337-1.449 2.954-1.449 4.697 0 4.613 3.744 8.576 8.357 8.577v-15.666h-.002.005v-11.189z"/><path d="M16.859 21.985c-.814 0-.246-.976-.857-.994v3.935c4.391-.015 4.053-6.805 0-6.82v1.309c1.999.014 2.3 2.57.857 2.57zM15.988 20.989c-2.558 0-2.433 3.939 0 3.939l.013-.001v-3.935l-.013-.003z" fill="none"/><path fill="#FFEAA7" d="M15.988 17.636c-8.13 0-8.891 12.411 0 12.364v-.19c-7.368 0-6.701-10.486 0-10.486l.013.001v-1.688l-.013-.001z"/><path fill="#FFE28A" d="M16.859 23.204c1.443 0 1.143-2.557-.857-2.569v1.576c.611.016.042.993.857.993z"/><path fill="#FFEAA7" d="M15.988 26.147c-2.433 0-2.558-3.939 0-3.939l.013.003v-1.576l-.013-.002c-4.88 0-4.897 7.381 0 7.381l.013-.001v-1.867l-.013.001z"/><path fill="#FFE28A" d="M16.002 17.637v1.688c4.053.015 4.391 6.805 0 6.82v1.867c7.564-.013 6.649-10.36 0-10.375z"/><ellipse fill="#fff" cx="11.867" cy="6.31" rx="1.818" ry="1.958"/><ellipse fill="#2B3332" cx="11.867" cy="6.412" rx="1.259" ry="1.356"/><circle fill="#fff" cx="12.136" cy="5.534" r=".67"/><path fill="#FFEAA7" d="M10.407 10.523c2.891-.064 3.271-2.238 5.595-2.238v6.154c-2.238 0-5.595-2.238-5.595-3.916z"/><ellipse fill="#fff" cx="20.136" cy="6.31" rx="1.818" ry="1.958"/><ellipse fill="#2B3332" cx="20.136" cy="6.412" rx="1.259" ry="1.356"/><circle fill="#fff" cx="19.886" cy="5.41" r=".699"/><path fill="#FFE28A" d="M21.596 10.523c-2.891-.064-3.271-2.238-5.595-2.238v6.154c2.238 0 5.595-2.238 5.595-3.916zM10.407 10.523c2.378.979 3.147.909 5.595.91v3.006c-2.238 0-5.595-2.238-5.595-3.916z"/><path fill="#FFD96C" d="M21.596 10.523c-2.378.979-3.147.909-5.595.91v3.006c2.238 0 5.595-2.238 5.595-3.916z"/><circle fill="#FF9A7E" cx="11.246" cy="10.803" r="1.399"/><circle fill="#FF9A7E" cx="20.757" cy="10.803" r="1.399"/></svg>