<svg xmlns="http://www.w3.org/2000/svg" width="32" height="32" viewBox="0 0 32 32"><path fill="#78DF7C" d="M16 13.4l-1.583-.317-.351-1.756c-.04-.198-.194-.353-.392-.392l-1.756-.351-.351-1.756c-.04-.198-.194-.353-.392-.392l-1.758-.353-.352-1.756c-.04-.198-.194-.353-.392-.392l-1.673-.335v-3.24c0-.215-.138-.406-.342-.474l-4.709-1.57c-.196-.065-.387-.005-.512.121l14.563 14.563v-1.6z"/><path fill="#84ED82" d="M1.316.949l1.57 4.709c.068.204.259.342.474.342h3.24l.335 1.673c.04.198.194.353.392.392l1.756.351.351 1.756c.04.198.194.353.392.392l1.756.351.351 1.756c.04.198.194.353.392.392l1.756.351.351 1.756c.04.198.194.353.392.392l1.176.238v-.8l-14.563-14.563c-.126.126-.186.316-.121.512z"/><path fill="#6CD275" d="M16 13.4l1.583-.317.351-1.756c.04-.198.194-.353.392-.392l1.756-.351.351-1.756c.04-.198.194-.353.392-.392l1.756-.351.351-1.756c.04-.198.194-.353.392-.392l1.676-.337v-3.24c0-.215.138-.406.342-.474l4.709-1.57c.195-.065.386-.005.512.121l-14.563 14.563v-1.6z"/><path fill="#60C46F" d="M30.684.949l-1.57 4.709c-.068.204-.259.342-.474.342h-3.24l-.335 1.673c-.04.198-.194.353-.392.392l-1.756.351-.351 1.756c-.04.198-.194.353-.392.392l-1.756.351-.351 1.756c-.04.198-.194.353-.392.392l-1.756.351-.351 1.756c-.04.198-.194.353-.392.392l-1.176.238v-.8l14.563-14.563c.126.126.186.316.121.512z"/><path fill="#EA8BB4" d="M24 25c-1.336 0-2.591-.52-3.535-1.464-.391-.391-.391-1.024 0-1.414.391-.391 1.023-.391 1.414 0 1.133 1.133 3.109 1.133 4.242 0 .706-.706 1.014-1.714.824-2.696-.105-.542.249-1.067.791-1.172.547-.104 1.067.25 1.172.792.317 1.635-.196 3.313-1.373 4.49-.944.944-2.199 1.464-3.535 1.464z"/><path fill="#F9ADC8" d="M12.145 14.687c-.615-.332-4.489-2.371-5.409-1.451-.787.787.592 3.737 1.215 4.959-.603 1.089-.951 2.362-.951 3.805 0 4.971 4.029 8 9 8v-16c-1.382 0-2.685.242-3.855.687z"/><path fill="#F8A1C4" d="M25.264 13.236c-.92-.92-4.794 1.118-5.409 1.451-1.17-.445-2.473-.687-3.855-.687v16c4.971 0 9-3.029 9-8 0-1.443-.348-2.716-.951-3.805.623-1.222 2.002-4.172 1.215-4.959z"/><path fill="#724D31" d="M22.409 17.381c-.343-.343-.357-.891-.032-1.251.83-.917 2.304-2.449 2.623-2.13.294.294-.537 2.011-1.149 3.167-.285.539-1.011.645-1.442.214z"/><path fill="#845331" d="M9.494 17.478c.343-.343.357-.891.032-1.251-.83-.917-2.304-2.449-2.623-2.13-.294.294.537 2.011 1.149 3.167.285.538 1.011.645 1.442.214z"/><circle fill="#FFE28A" cx="13" cy="19" r="1"/><circle fill="#FFD96C" cx="19" cy="19" r="1"/><path fill="#845331" d="M13.669 22.229c.498.132 1.275.271 2.331.271v3.5s-2.597 0-2.958-3.222c-.04-.353.283-.64.627-.549z"/><path fill="#F297BE" d="M13.5 32c1.105 0 1.5-1.343 1.5-3h-3c0 1.657.395 3 1.5 3z"/><path fill="#EA8BB4" d="M18.5 32c1.105 0 1.5-1.343 1.5-3h-3c0 1.657.395 3 1.5 3z"/><path fill="#724D31" d="M18.331 22.229c-.498.132-1.275.271-2.331.271v3.5s2.597 0 2.958-3.222c.04-.353-.283-.64-.627-.549z"/><path fill="#F8A1C4" d="M16 27c-3.959 0-7.37-1.758-8.99-4.809.103 4.855 4.085 7.809 8.99 7.809v-3z"/><path fill="#F297BE" d="M24.99 22.191c-1.62 3.051-5.031 4.809-8.99 4.809v3c4.905 0 8.887-2.954 8.99-7.809z"/><path fill="#F9ADC8" d="M7.337 26.663c.781.781 2.01.111 3.182-1.061l-2.121-2.121c-1.172 1.172-1.842 2.401-1.061 3.182z"/><path fill="#F8A1C4" d="M24.663 26.663c-.781.781-2.01.111-3.182-1.061l2.121-2.121c1.172 1.172 1.842 2.401 1.061 3.182z"/></svg>