<svg xmlns="http://www.w3.org/2000/svg" width="32" height="32" viewBox="0 0 32 32"><path fill="#6CD275" d="M15 26.5c0 1.933-.895 3.5-2 3.5s-2-1.567-2-3.5 4-1.933 4 0z"/><path fill="#60C46F" d="M21 26.5c0 1.933-.895 3.5-2 3.5s-2-1.567-2-3.5 4-1.933 4 0z"/><path fill="#6CD275" d="M22.801 10.146s9.199 1.854 9.199 5.854-3 6.5-6.5 6.5l-2.699-12.354z"/><path fill="#78DF7C" d="M9.199 10.146s-9.199 1.854-9.199 5.854 3 6.5 6.5 6.5l2.699-12.354z"/><path fill="#84ED82" d="M16 8c-6.075 0-11 4.477-11 10s4.925 10 11 10v-20z"/><path fill="#78DF7C" d="M27 18c0-5.523-4.925-10-11-10v20c6.075 0 11-4.477 11-10z"/><circle fill="#F3586F" cx="12" cy="16" r="1"/><circle fill="#E85160" cx="20" cy="16" r="1"/><path fill="#78DF7C" d="M10 22c-1.628 0-3.826-1.32-4.71-1.749 1.125 4.437 5.488 7.749 10.71 7.749v-5c-2 0-1-1-6-1z"/><path fill="#6CD275" d="M22 22c1.628 0 3.826-1.32 4.71-1.749-1.125 4.437-5.488 7.749-10.71 7.749v-5c2 0 1-1 6-1z"/><path fill="#78DF7C" d="M10.265 26.563c-1.367 1.367-3.108 1.842-3.889 1.061-.781-.781-.306-2.522 1.061-3.889s4.195 1.461 2.828 2.828z"/><path fill="#6CD275" d="M21.735 26.563c1.367 1.367 3.108 1.842 3.889 1.061.781-.781.306-2.522-1.061-3.889s-4.195 1.461-2.828 2.828z"/><path fill="#FFD96C" d="M16 4c-1.657 0-3 .895-3 2s1.343 2 3 2v-4z"/><path fill="#FFD04D" d="M19 6c0-1.105-1.343-2-3-2v4c1.657 0 3-.895 3-2z"/><ellipse fill="#FFE28A" cx="12" cy="7" rx="3" ry="2"/><ellipse fill="#FFD96C" cx="20" cy="7" rx="3" ry="2"/><path fill="#fff" d="M16 6c-2.209 0-4 .895-4 2s1.791 2 4 2v-4z"/><path fill="#F7F7F7" d="M20 8c0-1.105-1.791-2-4-2v4c2.209 0 4-.895 4-2z"/><ellipse fill="#FFEAA7" cx="12" cy="9" rx="3" ry="2"/><ellipse fill="#FFE28A" cx="20" cy="9" rx="3" ry="2"/><path fill="#FEF1C6" d="M16 8c-1.657 0-3 .895-3 2s1.343 2 3 2v-4z"/><path fill="#FFEAA7" d="M19 10c0-1.105-1.343-2-3-2v4c1.657 0 3-.895 3-2z"/><circle fill="#fff" cx="12" cy="15.75" r=".25"/><circle fill="#F7F7F7" cx="20" cy="15.75" r=".25"/></svg>