<svg xmlns="http://www.w3.org/2000/svg" width="32" height="32" viewBox="0 0 32 32"><path fill="#7C8AC4" d="M16 30c-.552 0-1 .448-1 1s.448 1 1 1v-2z"/><path fill="#707EB7" d="M17 31c0-.552-.448-1-1-1v2c.552 0 1-.448 1-1z"/><path fill="#FDEBBB" d="M8 24c-2.209 0-4 1.791-4 4s1.791 4 4 4v-8z"/><path fill="#FAE09F" d="M12 28c0-2.209-1.791-4-4-4v8c2.209 0 4-1.791 4-4zM4.051 28.51c.253 1.966 1.915 3.49 3.949 3.49v-2c-1.514 0-2.893-.565-3.949-1.49z"/><path fill="#F7D684" d="M8 30v2c2.034 0 3.696-1.525 3.949-3.49-1.056.925-2.435 1.49-3.949 1.49z"/><path fill="#FDEBBB" d="M24 24c-2.209 0-4 1.791-4 4s1.791 4 4 4v-8z"/><path fill="#FAE09F" d="M28 28c0-2.209-1.791-4-4-4v8c2.209 0 4-1.791 4-4zM20.051 28.51c.253 1.966 1.915 3.49 3.949 3.49v-2c-1.514 0-2.893-.565-3.949-1.49z"/><path fill="#F7D684" d="M24 30v2c2.034 0 3.696-1.525 3.949-3.49-1.056.925-2.435 1.49-3.949 1.49z"/><path fill="#9AA6D6" d="M16 15c-4.418 0-8 3.582-8 8s3.582 8 8 8v-16z"/><path fill="#8694D1" d="M24 23c0-4.418-3.582-8-8-8v16c4.418 0 8-3.582 8-8z"/><path fill="#FFF3D9" d="M16 0c-3.866 0-7 3.134-7 7s3.134 7 7 7v-14z"/><path fill="#FDEBBB" d="M23 7c0-3.866-3.134-7-7-7v14c3.866 0 7-3.134 7-7zM9.035 7.698c.318 3.206 2.801 5.769 5.965 6.223v1.079h1v-4c-2.808 0-5.314-1.287-6.965-3.302z"/><path fill="#FAE09F" d="M22.965 7.698c-1.651 2.015-4.157 3.302-6.965 3.302v4h1v-1.079c3.164-.454 5.647-3.017 5.965-6.223z"/><path fill="#6CD275" d="M16 15s-1.86-2.791-3.787-.297c-.132.171-.132.424 0 .595 1.927 2.493 3.787-.298 3.787-.298z"/><path fill="#60C46F" d="M19.746 14.677c-.6-.685-2.173-2.036-3.746.323 1.573 2.359 3.146 1.008 3.746.323.162-.185.162-.461 0-.646z"/><ellipse fill="#ABB4DD" cx="12.5" cy="25" rx="1.5" ry="2"/><ellipse fill="#9AA6D6" cx="19.5" cy="25" rx="1.5" ry="2"/><circle fill="#E85160" cx="13" cy="20" r="1"/><circle fill="#D84459" cx="19" cy="20" r="1"/><circle fill="#fff" cx="13" cy="19.75" r=".25"/><circle fill="#F7F7F7" cx="19" cy="19.75" r=".25"/><path fill="#9A3644" d="M15 21.5s0-.5 1-.5v2s-1 0-1-1.5z"/><path fill="#8A323F" d="M17 21.5s0-.5-1-.5v2s1 0 1-1.5z"/></svg>