<svg xmlns="http://www.w3.org/2000/svg" width="32" height="32" viewBox="0 0 32 32"><path fill="#845194" d="M22.169 28.724l-.408-.012c-3.191-.18-7.438-2.553-8.259-3.689l1.619-1.173c.433.56 4.098 2.759 6.84 2.87.882.033 1.541-.159 1.924-.58.674-.741-.188-3.621-.881-5.934-.53-1.77-1.078-3.6-1.288-5.269l1.984-.249c.188 1.503.713 3.252 1.22 4.944 1.008 3.368 1.879 6.276.445 7.854-.748.822-1.822 1.238-3.196 1.238z"/><g fill="#F7D684"><ellipse transform="matrix(.712 -.702 .702 .712 -3.571 20.255)" cx="22.921" cy="14.483" rx="4.474" ry="4.474"/><path d="M17.909 8.862c-.719-1.335-.027-3.052 1.561-3.442.802-.196 1.686.071 2.246.677.595.644.761 1.459.585 2.188-.108.447-.074.914.143 1.319l1.59 2.954-2.237 1.204-1.59-2.954c-.217-.404-.588-.69-1.019-.845-.528-.19-.992-.567-1.279-1.101zM28.468 19.577c1.324.738 3.052.072 3.464-1.511.208-.799-.046-1.687-.644-2.256-.635-.605-1.447-.783-2.18-.617-.448.101-.915.061-1.317-.163l-2.93-1.633-1.237 2.219 2.931 1.633c.4.223.681.598.83 1.032.183.532.553 1.001 1.083 1.296zM26.317 7.806c1.085-1.059 2.926-.868 3.739.551.41.716.397 1.64-.031 2.346-.454.75-1.192 1.134-1.942 1.166-.459.02-.899.181-1.228.502l-2.401 2.344-1.774-1.818 2.401-2.344c.328-.32.501-.755.531-1.213.036-.56.27-1.11.705-1.534z"/></g><path fill="#B370B9" d="M11.417 14.333c-5.625 0-10.417 4.948-10.417 6.667 0 1.333 1.92 2.356 3.417 1.458 1.042-.625.393-1.968 1.292-2.708 1.417-1.167 3.285-2.434 5.62-2.434l.088-2.983z"/><path fill="#A366AD" d="M11.5 31.241l-3-.25-.5-7.658 3.5 1.885z"/><path fill="#B370B9" d="M12.5 3.742v11c-4.287 0-7-2.324-7-5.5s2.713-5.5 7-5.5zM12.5 12.742h-2s-2.792 5.375-2.792 9 2.375 5.5 4.792 5.5v-14.5z"/><path fill="#FDEBBB" d="M12.5 19.167c-1.375 0-3.458.667-4.792 2.575 0 3.625 2.375 5.5 4.792 5.5v-8.075z"/><path fill="#B370B9" d="M6.861 6.786c1.248 2.73.702 5.54-.91 6.277s-3.931-.878-5.179-3.608-.952-5.54.66-6.277 4.181.879 5.429 3.608z"/><ellipse transform="matrix(.909 -.416 .416 .909 -3.512 2.067)" fill="#FDEBBB" cx="2.991" cy="9.098" rx="1.283" ry="2.936"/><path fill="#B370B9" d="M12.5 0c-.458 0-1.063 2.417-1.25 3.062l-.75-1.562c-.375.688-.625 2.438-.063 3.312.563.875 2.063 0 2.063 0v-4.812z"/><path fill="#FDEBBB" d="M8.437 7.104c1.365-.211 2.604 1.153 4.063 1.153v6.235c-2.884 0-6.208-2.313-6.208-4.449 0-1.759.666-2.71 2.145-2.939z"/><path fill="#fff" d="M10.208 13.167c.458.458 1.417.825 2.292.825v-1.141c-1.208 0-1.542-.511-2.048-.511-.457.001-.573.497-.244.827z"/><path fill="#FDEBBB" d="M5.92 31.265c.134.912 1.305.734 2.915.734s2.915.134 2.915-.734c0-.553-1.305-1.268-2.915-1.268s-2.995.721-2.915 1.268z"/><circle fill="#fff" cx="8.833" cy="9.75" r="1.792"/><circle fill="#0F0E0D" cx="8.833" cy="9.75" r="1.107"/><ellipse transform="matrix(.707 -.707 .707 .707 -4.139 8.77)" fill="#F9F7F2" cx="8.517" cy="9.381" rx=".474" ry=".474"/><path fill="#A366AD" d="M13.583 14.333c5.625 0 10.417 4.948 10.417 6.667 0 1.333-1.92 2.356-3.417 1.458-1.042-.625-.393-1.968-1.292-2.708-1.417-1.167-3.285-2.434-5.62-2.434l-.088-2.983z"/><path fill="#945BA0" d="M13.5 31.241l3-.25.5-7.658-3.5 1.885z"/><path fill="#A366AD" d="M19.5 9.242c0 3.176-2.713 5.5-7 5.5v-11c4.287 0 7 2.324 7 5.5zM12.5 12.742h2s2.792 5.375 2.792 9-2.375 5.5-4.792 5.5v-14.5zM18.139 6.786c-1.248 2.73-.702 5.54.91 6.277 1.612.737 3.931-.878 5.179-3.608 1.248-2.73.952-5.54-.66-6.277-1.613-.737-4.181.879-5.429 3.608z"/><ellipse transform="matrix(.416 -.909 .909 .416 4.584 25.332)" fill="#FAE09F" cx="22.009" cy="9.098" rx="2.936" ry="1.283"/><path fill="#A366AD" d="M12.5 0c.458 0 1.063 2.417 1.25 3.062l.75-1.562c.375.688.625 2.438.063 3.312-.563.875-2.063 0-2.063 0v-4.812z"/><path fill="#FAE09F" d="M18.708 10.042c0 2.136-3.325 4.449-6.208 4.449v-6.234c1.458 0 2.698-1.364 4.063-1.153 1.479.229 2.145 1.18 2.145 2.938z"/><path fill="#F7F7F7" d="M14.792 13.167c-.458.458-1.417.825-2.292.825v-1.141c1.208 0 1.542-.511 2.048-.511.457.001.573.497.244.827z"/><path fill="#FAE09F" d="M19.08 31.265c-.134.912-1.305.734-2.915.734s-2.915.134-2.915-.734c0-.553 1.305-1.268 2.915-1.268s2.995.721 2.915 1.268z"/><circle fill="#fff" cx="16.167" cy="9.75" r="1.792"/><circle fill="#0F0E0D" cx="16.167" cy="9.75" r="1.107"/><ellipse transform="matrix(.707 -.707 .707 .707 -1.806 14.403)" fill="#F9F7F2" cx="16.483" cy="9.381" rx=".474" ry=".474"/><path fill="#FAE09F" d="M12.5 19.167c1.375 0 3.458.667 4.792 2.575 0 3.625-2.375 5.5-4.792 5.5v-8.075z"/></svg>