<svg xmlns="http://www.w3.org/2000/svg" width="32" height="32" viewBox="0 0 32 32"><path fill="#84ED82" d="M16 16.5h-2c0 1.576-.356 2.715-.767 3.692-3.87-4.858-5.666-1.238-8.165-1.238-1.532 0-3.361-2.003-4.046-4.004-.172-.502-.916-.408-.964.121-.322 3.536 1.69 8.946 4.936 8.946 3.235 0 2.858-5.082 7.379-1.86-.22.575-.373 1.164-.373 1.842 0 1.173.513 2.322 1.416 3.095-.427 2.567-2.51 1.674-4.416 1.674-1.562 0-4 .312-4 1.281l2.438.469s-1.395.574-.688 1.281c.734.734 2.031-.781 5.25-.781 2.335 0 2.903-1.61 3.026-3.104.306.071.629.117.975.117v-11.531z"/><path fill="#E8BA36" d="M16 6.256v-4.069c-1.176-.519-2.767-.354-3.591-.629-.166-.055-.33.055-.339.23-.058 1.02-1.072 2.799-.636 4.23-1.265-.28-2.748.133-3.597.35-.17.043-.271.133-.271.308 0 .745-.218 2.102.053 3.275-.271 1.173-.053 2.529-.053 3.275 0 .175.101.265.271.308.827.211 2.254.602 3.496.365-.071 1.299.688 2.743.738 3.622.01.175.173.286.339.23.824-.275 2.415-.11 3.591-.629v-4.069l-.441-.309c-.519-.352-1.342-.906-2.176-.951-.02-.688-.436-1.339-.841-1.843.519-.647 1.059-1.536.751-2.432.864-.007 1.728-.589 2.265-.954l.441-.308z"/><path fill="#FFD04D" d="M14.651 5.922c.491.088.986.094 1.355.094v-6.016c-.076 0-.152.035-.205.104-.643.841-2.579 1.787-2.927 3.309-1.241-.26-2.735.18-3.583.066-.174-.023-.313.116-.29.29.104.777-.249 2.094-.111 3.264-1.192.628-2.001 2.155-2.73 2.713-.139.106-.139.304 0 .41.729.557 1.537 2.083 2.728 2.712-.134 1.167.217 2.477.113 3.25-.023.174.116.313.29.29.847-.113 2.341.327 3.583.066.348 1.523 2.284 2.468 2.927 3.309.053.07.129.104.205.104v-6.016c-.368 0-.864.006-1.355.094-.224-.779-.896-1.453-1.325-1.883-.319-.319-.773-.771-1.305-1.075.044-.389.049-.764.049-1.058 0-.297-.005-.677-.051-1.07.532-.304.987-.756 1.307-1.076.43-.427 1.102-1.102 1.325-1.881z"/><path fill="#FEF1C6" d="M16.006 3.879v11.75c-3.245 0-5.875-2.63-5.875-5.875 0-3.244 2.63-5.875 5.875-5.875z"/><path fill="#FFEAA7" d="M10.131 9.754c0 1.339.453 2.569 1.207 3.557.744-.984 1.19-2.206 1.19-3.535 0-1.339-.453-2.569-1.207-3.557-.744.985-1.19 2.207-1.19 3.535z"/><path d="M16.006 3.879v11.75c-3.245 0-5.875-2.63-5.875-5.875 0-3.244 2.63-5.875 5.875-5.875z" fill="none"/><path fill="#FFEAA7" d="M10.131 9.754c0 1.339.453 2.569 1.207 3.557.744-.984 1.19-2.206 1.19-3.535 0-1.339-.453-2.569-1.207-3.557-.744.985-1.19 2.207-1.19 3.535z"/><path d="M16.006 3.879v11.75c-3.245 0-5.875-2.63-5.875-5.875 0-3.244 2.63-5.875 5.875-5.875z" fill="none"/><path fill="#E85160" d="M16 13.642c-1.219 0-2.536-1.045-2.91-3.004-.067-.353.352-.576.604-.321.581.589 1.126.825 2.306.825v2.5z"/><path fill="#78DF7C" d="M31.949 15.071c-.048-.529-.792-.623-.964-.121-.685 2.001-2.514 4.004-4.046 4.004-2.5 0-4.296-3.62-8.165 1.238-.411-.978-.767-2.117-.767-3.692h-2v11.531c.346 0 .668-.046.975-.117.123 1.494.69 3.104 3.026 3.104 3.219 0 4.516 1.516 5.25.781.707-.707-.688-1.281-.688-1.281s2.438.5 2.438-.469-2.438-1.281-4-1.281c-1.907 0-3.989.894-4.416-1.674.903-.773 1.416-1.922 1.416-3.095 0-.678-.153-1.267-.372-1.843 4.521-3.221 4.144 1.86 7.379 1.86 3.244.001 5.256-5.41 4.934-8.945z"/><path fill="#E0B12E" d="M24.441 6.676c0-.175-.101-.265-.271-.308-.849-.217-2.333-.63-3.597-.35.436-1.431-.578-3.21-.636-4.23-.01-.175-.173-.286-.339-.23-.824.275-2.415.11-3.591.629v4.069l.441.309c.537.365 1.401.947 2.265.954-.308.896.233 1.785.751 2.432-.404.505-.82 1.156-.841 1.843-.834.044-1.657.599-2.176.951l-.441.309v4.069c1.176.519 2.767.354 3.591.629.166.055.33-.055.339-.23.05-.879.809-2.324.738-3.622 1.242.238 2.669-.154 3.496-.365.17-.043.271-.133.271-.308 0-.745.218-2.102-.053-3.275.271-1.173.053-2.53.053-3.276z"/><path fill="#F7C845" d="M25.847 9.746c-.729-.557-1.538-2.085-2.73-2.713.138-1.17-.215-2.487-.112-3.263.023-.174-.116-.313-.29-.29-.847.113-2.341-.327-3.583-.066-.348-1.523-2.284-2.468-2.927-3.309-.053-.07-.129-.105-.205-.105v6.016c.368 0 .864-.006 1.355-.094.223.779.896 1.453 1.325 1.883.319.319.774.772 1.307 1.076-.046.393-.051.773-.051 1.07 0 .294.005.669.049 1.058-.531.304-.986.756-1.305 1.075-.43.43-1.102 1.104-1.325 1.883-.491-.088-.986-.094-1.355-.094v6.016c.076 0 .152-.035.205-.104.643-.841 2.579-1.787 2.927-3.309 1.241.26 2.735-.18 3.583-.066.174.023.313-.116.29-.29-.103-.773.247-2.083.113-3.25 1.191-.629 2-2.155 2.728-2.712.14-.108.14-.306.001-.412z"/><path fill="#FFEAA7" d="M21.875 9.754c0 3.245-2.63 5.875-5.875 5.875v-11.75c3.245 0 5.875 2.631 5.875 5.875z"/><path fill="#FFE28A" d="M19.478 9.777c0 1.329.446 2.55 1.19 3.535.754-.988 1.207-2.218 1.207-3.557 0-1.329-.446-2.55-1.19-3.535-.754.988-1.207 2.218-1.207 3.557z"/><path fill="#2B3332" d="M14.984 9.142c-.076 0-.152-.035-.201-.101l-1.139-1.535c-.044-.059-.109-.095-.182-.1-.077-.005-.143.02-.195.072l-1.09 1.09c-.098.098-.256.098-.354 0s-.098-.256 0-.354l1.09-1.09c.154-.155.37-.233.585-.218.218.016.417.126.547.301l1.139 1.535c.083.111.059.268-.052.35l-.148.05zm2.239-.101l1.139-1.535c.044-.059.109-.095.182-.1.081-.004.144.02.195.072l1.09 1.09c.098.098.256.098.354 0s.098-.256 0-.354l-1.09-1.09c-.154-.155-.372-.232-.585-.218-.218.017-.418.127-.548.302l-1.139 1.535c-.083.111-.059.268.052.35l.149.049c.076 0 .152-.035.201-.101z"/><path fill="#D84459" d="M16.006 11.142c1.181 0 1.726-.236 2.306-.825.252-.256.671-.032.604.321-.373 1.959-1.691 3.004-2.91 3.004v-2.5z"/></svg>