<svg xmlns="http://www.w3.org/2000/svg" width="32" height="32" viewBox="0 0 32 32"><path fill="#843822" d="M16 24.781v6.969c-1.427 0-2.25-1.958-2.25-3.542 0-2 .823-3.427 2.25-3.427z"/><path fill="#AD4630" d="M12.778.062c-.08-.113-.258-.064-.267.074-.201 3.389.767 6.159 1.155 6.865.445.808 1.787.62 1.75 0-.066-1.13-1.714-5.643-2.638-6.939z"/><path fill="#A0422C" d="M19.222.062c.08-.113.258-.064.267.074.201 3.389-.767 6.159-1.155 6.865-.445.808-1.787.62-1.75 0 .066-1.13 1.714-5.643 2.638-6.939z"/><path fill="#DADDDC" d="M15.95 14.394v1.383c-3.018-.677-8.868-2.853-11-3.965-2.412-1.258-5.812-3.812-4.75-5.813.825-1.555 3.689-2.014 6.75.564 3.562 3 6.145 5.886 8.062 7.25.316.224.633.411.938.581z"/><path fill="#FF805D" d="M4.906 5.255l-2.452 4.967c.811.625 1.706 1.178 2.496 1.59.625.326 1.575.745 2.675 1.189l1.551-4.475c-.698-.639-1.434-1.297-2.226-1.964-.699-.588-1.387-1.012-2.044-1.307z"/><path fill="#E3E5E5" d="M15.95 18.283v1.44c-2.698-.338-8.035-1.881-10-2.723-2.501-1.072-5.41-3.305-5-5.001.438-1.811 3.062-1.686 5.75-.499 3.019 1.334 6.145 4.698 8.062 6.062.403.287.81.518 1.188.721z"/><path fill="#FF8D6E" d="M4.742 10.826l-2.065 4.183c.95.795 2.151 1.51 3.273 1.991.456.195 1.098.429 1.841.676l1.579-4.555c-.878-.645-1.777-1.226-2.67-1.621-.668-.295-1.331-.524-1.958-.674z"/><path fill="#923D27" d="M16 20.865v6.969c-1.427 0-2.75-1.083-2.75-3.292 0-1.649 1.323-3.677 2.75-3.677z"/><path fill="#A0422C" d="M16 18.323v6.969c-1.427 0-3-1.083-3-3.292 0-1.648 1.573-3.677 3-3.677z"/><path fill="#AD4630" d="M16 15.781v6.719c-1.427 0-3.5-1.125-3.5-3.5 0-2.188 2.073-3.219 3.5-3.219z"/><path fill="#B94A34" d="M8.966 11.814c0 2.51 2.102 4.825 4.988 5.59.314.57.927 1.154 2.046 1.154v-12.308c-3.885 0-7.034 2.491-7.034 5.564z"/><path fill="#9ACC2E" d="M10.885 8.012c-1.736 0-3.385 1.832-3.385 4.488s1.649 4.488 3.385 4.488c2.865 0 2.949-2.974 5.115-2.974v-3.028c-2.167 0-2.25-2.974-5.115-2.974z"/><path fill="#AADB3D" d="M10.885 8.012c-1.736 0-3.385 1.832-3.385 4.488 1.547 1.913 6.302 1.088 6.734-2.402-.826-.877-1.522-2.086-3.349-2.086z"/><path fill="#923D27" d="M12.417 29.879c-.752-.352-1.691-.629-2.667-.629-1.219 0-3 .426-3 1 0 .801 1.5 1 3 1 .869 0 1.649-.06 2.277-.146.333.953 2.198.896 3.973.896v-3.5c-1.842 0-3 .706-3.583 1.379z"/><ellipse fill="#373F3F" cx="10.87" cy="12.5" rx="1.37" ry="2.25"/><ellipse fill="#fff" cx="11.12" cy="12" rx=".5" ry=".875"/><path fill="#424B7E" d="M14.766 19.444c-.536.197-3.17 1.189-3.891 1.368-.574.142-.828.458-1.091 1.071-.224.524-.602 1.165-.884 1.572-.077.111-.25.312-.375-.094l-.199-.588-.915.588s-.588.196.457-1.438 2.101-1.86 3.071-2.014c.997-.159 2.486-.851 3.738-1.227.394-.118.414.643.089.762zm-.204.952c-1.042.271-1.871.241-2.917 1.875-1.045 1.634-.52 1.479-.52 1.479l.915-.588.199.588c.125.406.298.205.375.094.281-.406.659-1.047.884-1.571.262-.612.569-1.084 1.148-1.21.479-.105.44-.803-.084-.667z"/><path fill="none" d="M16 9.594v8.781"/><path fill="#D1D4D4" d="M16.987 13.812c1.918-1.364 4.5-4.25 8.062-7.25 3.061-2.578 5.925-2.118 6.75-.564 1.063 2.001-2.338 4.555-4.75 5.814-2.132 1.112-7.982 3.288-11 3.965v-1.383c.306-.17.623-.357.938-.582z"/><path fill="#F57552" d="M27.094 5.255l2.452 4.967c-.811.626-1.706 1.178-2.496 1.591-.625.326-1.575.745-2.675 1.189l-1.551-4.475c.698-.64 1.434-1.298 2.226-1.965.699-.588 1.387-1.012 2.044-1.307z"/><path fill="#DADDDC" d="M17.237 17.562c1.918-1.364 5.043-4.729 8.062-6.062 2.688-1.188 5.312-1.312 5.75.499.41 1.696-2.499 3.929-5 5.001-1.965.842-7.302 2.384-10 2.723v-1.44c.379-.203.786-.434 1.188-.721z"/><path fill="#FF805D" d="M27.258 10.826l2.065 4.183c-.95.795-2.151 1.51-3.273 1.991-.456.195-1.098.429-1.841.676l-1.579-4.555c.878-.646 1.777-1.227 2.67-1.621.668-.295 1.331-.524 1.958-.674z"/><path fill="#7D3119" d="M18.25 28.208c0 1.583-.823 3.542-2.25 3.542v-6.969c1.427 0 2.25 1.427 2.25 3.427z"/><path fill="#843822" d="M18.75 24.542c0 2.208-1.323 3.292-2.75 3.292v-6.969c1.427 0 2.75 2.028 2.75 3.677z"/><path fill="#923D27" d="M19 22c0 2.208-1.573 3.292-3 3.292v-6.969c1.427 0 3 2.029 3 3.677z"/><path fill="#A0422C" d="M19.5 19c0 2.375-2.073 3.5-3.5 3.5v-6.719c1.427 0 3.5 1.031 3.5 3.219z"/><path fill="#AD4630" d="M23.034 11.814c0-3.073-3.149-5.564-7.034-5.564v12.307c1.119 0 1.732-.584 2.046-1.154 2.887-.764 4.988-3.08 4.988-5.589z"/><path fill="none" d="M16 9.594v8.781"/><path fill="#93C427" d="M21.115 8.012c1.736 0 3.385 1.832 3.385 4.488s-1.649 4.488-3.385 4.488c-2.865 0-2.949-2.974-5.115-2.974v-3.028c2.167 0 2.25-2.974 5.115-2.974z"/><path fill="#A2D336" d="M21.115 8.012c1.736 0 3.385 1.832 3.385 4.488-1.547 1.913-6.302 1.088-6.734-2.402.826-.877 1.522-2.086 3.349-2.086z"/><path fill="#843822" d="M22.25 29.25c-.975 0-1.914.277-2.667.629-.583-.673-1.741-1.379-3.583-1.379v3.5c1.775 0 3.64.057 3.973-.896.628.086 1.408.146 2.277.146 1.5 0 3-.199 3-1 0-.574-1.781-1-3-1z"/><ellipse fill="#2B3332" cx="21.13" cy="12.5" rx="1.37" ry="2.25"/><ellipse fill="#F7F7F7" cx="20.88" cy="12" rx=".5" ry=".875"/><path fill="#3A4274" d="M17.322 18.682c1.252.376 2.741 1.068 3.738 1.227.97.155 2.026.381 3.071 2.014 1.045 1.634.457 1.438.457 1.438l-.915-.588-.199.588c-.125.406-.298.205-.375.094-.281-.406-.659-1.047-.884-1.571-.262-.612-.517-.929-1.091-1.071-.722-.179-3.356-1.172-3.891-1.368-.324-.12-.304-.881.089-.763zm.032 2.38c.578.126.885.598 1.148 1.21.225.524.602 1.165.884 1.571.077.111.25.312.375-.094l.199-.588.915.588s.526.154-.52-1.479c-1.045-1.634-1.875-1.604-2.917-1.875-.524-.135-.563.563-.084.667z"/></svg>