<svg xmlns="http://www.w3.org/2000/svg" width="32" height="32" viewBox="0 0 32 32"><path fill="#9FC9E4" d="M21.359 29.854c.238 1.243-.858 2.128-1.921 2.128-1.205 0-2.079-.67-2.079-1.764 0-1.172.567-1.813 1.875-2.031 1.125-.187 1.937.688 2.125 1.667z"/><path fill="#B0D3EA" d="M10.641 29.854c-.238 1.243.858 2.128 1.921 2.128 1.205 0 2.079-.67 2.079-1.764 0-1.172-.567-1.813-1.875-2.031-1.125-.187-1.937.688-2.125 1.667z"/><path fill="#9FC9E4" d="M26.25 16.688c-3.537 2.432-3.563 6.188-6 6.188v3.375c2.312 0 3.455-3 7.062-3 3.063 0 4.688-1.75 4.688-4.312 0-2.689-3.75-3.627-5.75-2.251z"/><path fill="#B0D3EA" d="M25 7.5c0 3.14-2.315 5.828-5.6 6.945-.421.143-.672.561-.672 1.006 0 2.924 3.773 4.299 3.773 8.667 0 3.694-3 5.381-6.5 5.381v-29.499c4.97 0 8.999 3.358 8.999 7.5zM25 7.5c0 3.14-2.315 5.828-5.6 6.945-.421.143-.672.561-.672 1.006 0 2.924 3.773 4.299 3.773 8.667 0 3.694-3 5.381-6.5 5.381v-29.499c4.97 0 8.999 3.358 8.999 7.5z"/><path fill="#8EC0E0" d="M18.458 18.749c0-.348-.379-.598-.794-.332-.359.23-.873.461-1.664.461v1.261c.67 0 1.664-.224 2.158-.717.185-.186.3-.409.3-.673z"/><path fill="#7FB8E0" d="M19.854 21.376c0-.545-.595-.938-1.245-.521-.562.361-1.368.723-2.61.723v1.977c1.05 0 2.609-.352 3.383-1.124.292-.291.472-.641.472-1.055z"/><path fill="#71B1E1" d="M21.192 25.002c0-.734-.801-1.264-1.676-.701-.757.487-1.843.973-3.515.973v2.663c1.415 0 3.514-.474 4.557-1.514.391-.392.634-.864.634-1.421z"/><path fill="#C1DDEE" d="M16 0v29.5c-3.5 0-6.5-1.688-6.5-5.381 0-4.369 3.773-5.744 3.773-8.667 0-.445-.251-.863-.672-1.006-3.286-1.118-5.601-3.806-5.601-6.946 0-4.142 4.029-7.5 9-7.5z"/><path fill="#D2E6F3" d="M16 0v14.934c-1.906.004-2.978-.345-3.4-.488-3.285-1.118-5.6-3.806-5.6-6.946 0-4.142 4.029-7.5 9-7.5z"/><path fill="#C1DDEE" d="M25 7.5c0 3.14-2.315 5.828-5.6 6.945-.421.143-1.493.492-3.4.488v-14.933c4.971 0 9 3.358 9 7.5zM25 7.5c0 3.14-2.315 5.828-5.6 6.945-.421.143-1.493.492-3.4.488v-14.933c4.971 0 9 3.358 9 7.5z"/><path fill="#C27BC6" d="M9 7.5c-.498 0-1.223.013-2.041.04-.414-.391-4.88-4.586-5.278-4.188-.342.342 1.928 2.842 3.287 4.278-.496.029-.991.063-1.469.104-.456-.429-3.22-3.007-3.476-2.751-.23.23 1.313 1.925 2.216 2.878-1.297.157-2.239.375-2.239.669 0 .351.929.575 2.224.718-.905.955-2.43 2.633-2.201 2.862.255.255 3.019-2.322 3.476-2.751.464.031.947.056 1.434.075-1.363 1.442-3.592 3.903-3.253 4.242.399.399 4.88-3.812 5.28-4.189.767.01 1.476.013 2.04.013.39-.313.358-1.651 0-2z"/><path fill="#B370B9" d="M32 8.53c0-.294-.942-.512-2.239-.67.903-.953 2.446-2.648 2.216-2.878-.256-.255-3.02 2.323-3.476 2.751-.478-.04-.973-.075-1.469-.103 1.359-1.436 3.629-3.936 3.287-4.278-.398-.398-4.864 3.797-5.278 4.188-.818-.027-1.543-.04-2.041-.04-.358.349-.39 1.687 0 2 .564 0 1.273-.003 2.039-.014.4.377 4.881 4.589 5.28 4.189.339-.339-1.89-2.8-3.253-4.242.487-.019.97-.043 1.434-.074.457.429 3.22 3.007 3.476 2.751.229-.229-1.296-1.907-2.201-2.862 1.296-.143 2.225-.366 2.225-.718z"/><circle fill="#fff" cx="12.488" cy="7.988" r=".938"/><path fill="#373F3F" d="M12.488 7.35c.352 0 .638.286.638.638 0 .352-.286.638-.638.638s-.638-.286-.638-.638c0-.352.286-.638.638-.638m0-.6c-.684 0-1.238.554-1.238 1.238 0 .684.554 1.238 1.238 1.238s1.238-.554 1.238-1.238c0-.684-.554-1.238-1.238-1.238z"/><circle fill="#F7F7F7" cx="19.512" cy="7.988" r=".938"/><path fill="#2B3332" d="M19.512 7.35c.352 0 .638.286.638.638 0 .352-.286.638-.638.638s-.638-.286-.638-.638c0-.352.286-.638.638-.638m0-.6c-.684 0-1.238.554-1.238 1.238 0 .684.554 1.238 1.238 1.238s1.238-.554 1.238-1.238c0-.684-.554-1.238-1.238-1.238z"/><path fill="#E2EFF7" d="M16 4.938v-4.938c-2.383 0-4.544.778-6.154 2.038 1.205 1.711 3.742 2.9 6.154 2.9z"/><path fill="#D2E6F3" d="M16 4.938v-4.938c2.383 0 4.544.778 6.154 2.038-1.205 1.711-3.742 2.9-6.154 2.9z"/><path fill="#F6B392" d="M15 11.125c0 1.105.448 2 1 2v-4c-.552 0-1 .895-1 2z"/><path fill="#F4A984" d="M17 11.125c0 1.105-.448 2-1 2v-4c.552 0 1 .895 1 2z"/><path fill="#9FC9E4" d="M13.542 18.749c0-.348.379-.598.794-.332.359.23.873.461 1.664.461v1.261c-.67 0-1.664-.224-2.158-.717-.185-.186-.3-.409-.3-.673z"/><path fill="#8EC0E0" d="M12.146 21.376c0-.545.595-.938 1.245-.521.562.361 1.368.723 2.61.723v1.977c-1.05 0-2.609-.352-3.383-1.124-.292-.291-.472-.641-.472-1.055z"/><path fill="#7FB8E0" d="M10.808 25.002c0-.734.801-1.264 1.676-.701.757.487 1.843.973 3.515.973v2.663c-1.415 0-3.514-.474-4.557-1.514-.391-.392-.634-.864-.634-1.421z"/></svg>