<svg xmlns="http://www.w3.org/2000/svg" width="32" height="32" viewBox="0 0 32 32"><path fill="#4390BF" d="M24.667 20.833c-3.75 2.833-1.167 3.917-10.724 3.917 1.661 1.94 6.638 3 10.039 2.659.982-.098 5.851-1.409 5.851-3.825 0-3.084-2.788-4.548-5.166-2.751z"/><path fill="#529CCF" d="M26.5 21.25c-3.75 2.833-3.333 4-10.391 4 1.661 1.94 6.823 2.591 10.224 2.25.982-.098 5.667-1 5.667-3.417 0-3.083-3.121-4.63-5.5-2.833z"/><path fill="#65A9DC" d="M26.833 22.833c-3.75 2.833-3 5.167-10.833 3.25 1.833 3.167 8.833 3.333 11.583 3 1.82-.22 4.417-1.083 4.417-3.5 0-3.083-2.788-4.547-5.167-2.75z"/><path fill="#B0D3EA" d="M16 0v28.5c-2.083 0-2.689 1.07-4.5 1-4.333-.167-5.452-3.832-5.5-6-.083-3.75 2.25-6.333 2.5-8.75.548-5.297-.5-14.75 7.5-14.75z"/><path fill="#C1DDEE" d="M9.386 5.659c.775-3.154 2.496-5.659 6.614-5.659v7.062c-3.438.25-5.25-.562-6.614-1.403z"/><path fill="#8EC0E0" d="M11.25 28.625l-2.018 2.018c-.148.148-.232.35-.232.561v.003c0 .438.355.793.793.793h2.914c.438 0 .793-.355.793-.793v-2.582h-2.25z"/><path fill="#B0D3EA" d="M10.5 17.5s-3.299-.609-5.583-2c-1.774-1.081-4.148-2.922-4.773-4.61-.516-1.393.524-1.538.524-1.538s-.494-.538.146-1.193c.613-.627 1.264-.192 1.264-.192s.075-.702.69-.702c1.625 0 2.125 6.697 7.75 6.697l-.018 3.538z"/><path fill="#675099" d="M7.992 16.609c-.758 1.922-2.054 4.078-1.992 6.891.875-2.188 2.5-.812 3.062-3.062.375-1.498-.937-2.063-1.07-3.829z"/><path fill="#6E57A0" d="M7.992 16.609c-.758 1.922-2.054 4.078-1.992 6.891.875-2.188 2.5-.812 3.062-3.062.375-1.498-.937-2.063-1.07-3.829z"/><path fill="#9FC9E4" d="M23.5 14.75c.25 2.417 2.583 5 2.5 8.75-.048 2.168-1.167 5.833-5.5 6-1.811.07-2.417-1-4.5-1v-28.5c8.042 0 6.952 9.453 7.5 14.75zM21.481 13.962c5.625 0 6.125-6.697 7.75-6.697.615 0 .69.702.69.702s.652-.434 1.264.192c.64.655.147 1.193.147 1.193s1.04.145.524 1.538c-.625 1.688-2.999 3.529-4.773 4.61-2.284 1.391-5.583 2-5.583 2l-.019-3.538z"/><path fill="#F9BDA0" d="M16 6.417c-1.878 0-1.625.562-4.375.292.348 1.844 2.229 3.333 4.375 3.333v-3.625z"/><path fill="#F6B392" d="M16 6.417c-1.878 0-1.625.562-4.375.292.348 1.844 2.229 3.333 4.375 3.333v-3.625z"/><path fill="#7FB8E0" d="M20.75 28.625l2.018 2.018c.148.148.232.35.232.561v.003c0 .438-.355.793-.793.793h-2.914c-.438 0-.793-.355-.793-.793v-2.582h2.25z"/><path fill="#9FC9E4" d="M16 25.438v3.062c-2.083 0-2.689 1.07-4.5 1-4.333-.167-5.417-3.833-5.5-6 1.875 1.125 5.5 1.938 10 1.938z"/><path fill="#8EC0E0" d="M26 23.5c-.083 2.167-1.167 5.833-5.5 6-1.811.07-2.417-1-4.5-1v-3.062c4.5 0 8.125-.813 10-1.938z"/><path fill="#604893" d="M24.01 16.609c.758 1.922 2.055 4.078 1.992 6.891-.875-2.188-2.5-.812-3.062-3.062-.375-1.498.937-2.063 1.07-3.829zM24.01 16.609c.758 1.922 2.055 4.078 1.992 6.891-.875-2.188-2.5-.812-3.062-3.062-.375-1.498.937-2.063 1.07-3.829z"/><path fill="#B0D3EA" d="M16 7.062v-7.062c4.118 0 5.839 2.505 6.614 5.659-1.364.841-3.176 1.653-6.614 1.403z"/><path fill="#F4A984" d="M16 6.417c1.878 0 1.521.5 4.375.271-.348 1.844-2.229 3.354-4.375 3.354v-3.625z"/><circle fill="#2B3332" cx="18.875" cy="4.458" r=".375"/><circle fill="#373F3F" cx="13.125" cy="4.458" r=".375"/><path fill="#F6B392" d="M16 7.594c-1.521-.031-3.083.344-3.667.668.81 1.059 2.174 1.78 3.667 1.78v-2.448z"/><path fill="#F4A984" d="M16 7.594c-1.521-.031-3.083.344-3.667.668.81 1.059 2.174 1.78 3.667 1.78v-2.448z"/><path fill="#EA9C7A" d="M16 7.594c1.521-.031 3.083.344 3.667.668-.81 1.059-2.174 1.78-3.667 1.78v-2.448z"/></svg>