<svg xmlns="http://www.w3.org/2000/svg" width="32" height="32" viewBox="0 0 32 32"><path fill="#D285D2" d="M16 26.292c4.042 0 8.37-2.279 9.5-7.292.958-4.25 2.47-7.121 3.75-9.042.667-1 1.625-.542 1.208.125-.353.565-1.333 1.75-1.667 2.625.875-1 1.771-1.838 2.083-2.042 1.083-.708 1.552.585.583 1.125-2.167 1.208-4.337 4.358-4.958 7.25-1.082 5.042-4.624 8.459-10.499 8.459v-1.208z"/><path fill="#EBCEEB" d="M11.086 8.525c-1.173-.202-4.704-.003-5.635.725.85.566 2.467.79 2.75.75-.364.202-1.169.805-1.25 1.25 3.204-.412 4.499-1.997 4.499-1.997l-.364-.728z"/><path fill="#E5BDE5" d="M20.899 8.525c1.173-.202 4.704-.003 5.635.725-.85.566-2.467.79-2.75.75.364.202 1.169.805 1.25 1.25-3.204-.412-4.499-1.997-4.499-1.997l.364-.728zM30.679.056c.075-.098.239-.06.268.06.355 1.503-1.094 3.26-3.427 5.26-1.346 1.154-4.701 3.129-6.784 3.421-2.083.292-5.105-2.595-4.083-3.458 2.617-2.214 7.877-3.204 11.617-4.006 1.549-.332 1.945-.672 2.409-1.277z"/><path fill="#3A4274" d="M27.52 5.375c-1.346 1.154-4.701 3.129-6.784 3.421-2.083.292-3.029-1.766-2.008-2.629 2.541-2.148 6.981-2.914 10.403-3.833.123-.033.22.098.166.213-.541 1.136-.893 1.751-1.777 2.828z"/><path fill="#D285D2" d="M19.5 16.143c0 4.107 3.611 6.948 1.935 10.778l-.503 1.147c.622.183 1.079.751 1.079 1.433 0 .828-.672 1.5-1.5 1.5-.608 0-1.13-.364-1.365-.884-.626.082-1.557-.055-3.147-.152v-13.822h3.501z"/><path fill="#E5BDE5" d="M17.012 30.232s-.762-11.232-1.012-11.232v-5l2-.75s2.592 3.085 2.385 5.5c-.341 3.984-.817 9.549-.941 11.064.514.206.861.578.861 1.007 0 .651-.792 1.179-1.769 1.179-.977 0-1.769-.528-1.769-1.179 0-.216.093-.415.245-.589z"/><path fill="#D285D2" d="M16 17.25v-3.25l2-.75s1.036 1.233 1.746 2.75c-1.746 1.25-3.746 1.25-3.746 1.25z"/><path fill="#E5BDE5" d="M21.51 7.179c.373 2.014.52 3.818-.879 5.217-.889.889-3.466 1.644-4.326 1.909-.101.031-.203.044-.305.043v-11.371c2.26 0 5.01 1.5 5.51 4.202z"/><path fill="#EBCEEB" d="M1.382.056c-.075-.098-.239-.06-.268.06-.355 1.503 1.094 3.26 3.427 5.26 1.346 1.154 4.701 3.129 6.784 3.421 2.083.292 5.105-2.595 4.083-3.458-2.616-2.214-7.877-3.204-11.616-4.006-1.55-.332-1.946-.672-2.41-1.277z"/><path fill="#3A4274" d="M4.542 5.375c1.346 1.154 4.701 3.129 6.784 3.421 2.083.292 3.029-1.766 2.008-2.629-2.541-2.149-6.982-2.914-10.403-3.834-.124-.033-.221.098-.166.214.54 1.136.892 1.751 1.777 2.828z"/><path fill="#D799D6" d="M12.5 16.143c0 4.107-3.611 6.948-1.935 10.778l.503 1.147c-.622.183-1.079.751-1.079 1.433 0 .828.672 1.5 1.5 1.5.608 0 1.13-.364 1.365-.884.626.082 1.557-.055 3.147-.152v-13.822h-3.501z"/><path fill="#EBCEEB" d="M14.988 30.232s.762-11.232 1.012-11.232v-5l-2-.75s-2.592 3.085-2.385 5.5c.341 3.984.817 9.549.941 11.064-.514.206-.861.578-.861 1.007 0 .651.792 1.179 1.769 1.179.977 0 1.769-.528 1.769-1.179 0-.216-.093-.415-.245-.589z"/><path fill="#E0ABDF" d="M16 17.25v-3.25l-2-.75s-1.036 1.233-1.746 2.75c1.746 1.25 3.746 1.25 3.746 1.25z"/><path fill="#EBCEEB" d="M10.5 7.179c-.373 2.014-.52 3.818.879 5.217.889.889 3.466 1.644 4.326 1.909.101.031.203.044.305.043v-11.371c-2.26 0-5.01 1.5-5.51 4.202z"/><path fill="#675099" d="M12.771 7c-1.188.688-1.042 3.333 1.208 3.25.563-.583-.479-3.271-1.208-3.25z"/><path fill="#fff" d="M14.111 9.329c-.077-.522-.3-1.143-.57-1.612-1.416.345-.666 2.221.57 1.612z"/><path fill="#675099" d="M19.29 7c1.188.688 1.042 3.333-1.208 3.25-.562-.583.479-3.271 1.208-3.25z"/><path fill="#fff" d="M17.951 9.329c.077-.522.3-1.143.57-1.612 1.415.345.665 2.221-.57 1.612z"/><path fill="#C84054" d="M15.167 6.333c0 .46.373.833.833.833v-1.666c-.46 0-.833.373-.833.833z"/><path fill="#B93D4F" d="M16 5.5v1.667c.46 0 .833-.373.833-.833 0-.461-.373-.834-.833-.834z"/><path fill="#2B3332" d="M15.5 12.448c0 .138.224.25.5.25v-.5c-.276 0-.5.112-.5.25zM16.5 12.448c0 .138-.224.25-.5.25v-.5c.276 0 .5.112.5.25z"/></svg>