<svg xmlns="http://www.w3.org/2000/svg" xmlns:xlink="http://www.w3.org/1999/xlink" width="32" height="32" viewBox="0 0 32 32"><path fill="#373F3F" d="M31.735 14.655c-6.776.044-9.023 7.624-13.218 9.845v1.75c3.708-3.461 13.284-3.438 13.483-11.324.004-.143-.121-.272-.265-.271z"/><path fill="#505957" d="M12.5 16.143c0 4.107-3.611 6.948-1.935 10.778l.503 1.147c-.622.183-1.079.751-1.079 1.433 0 .828.672 1.5 1.5 1.5.608 0 1.13-.364 1.365-.884.626.082 1.557-.055 3.147-.152v-13.822h-3.501z"/><path fill="#5C6664" d="M14.988 30.232s.762-11.232 1.012-11.232v-5l-2-.75s-2.592 3.085-2.385 5.5c.341 3.984.817 9.549.941 11.064-.514.206-.861.578-.861 1.007 0 .651.792 1.179 1.769 1.179.977 0 1.769-.528 1.769-1.179 0-.216-.093-.415-.245-.589z"/><path fill="#FFD96C" d="M13.609 21.107c-.068-.692-.365-1.316-.795-1.668-.28-.229-.596-.334-.907-.299l-.254.062.07.817c.071-.067.155-.123.256-.133l.037-.001c.131 0 .247.073.322.134.275.226.477.671.524 1.162.036.364-.016.732-.144 1.01-.117.256-.287.414-.469.432-.115.016-.224-.036-.313-.102l.071.826c.116.023.282.026.319.022.837-.082 1.401-1.076 1.283-2.262z"/><path fill="#FFD04D" d="M11.859 25.348c-.053-.536-.241-1.032-.529-1.396-.287-.364-.651-.555-1.021-.57-.05.174-.11.517-.142.777l.101-.034c.211 0 .389.184.476.293.199.252.331.608.37 1.004.039.394-.02.769-.166 1.055-.065.127-.209.336-.411.378l.302.691c.317-.111.588-.358.778-.728.209-.412.296-.935.242-1.47z"/><path fill="#505957" d="M16 17.25v-3.25l-2-.75s-1.036 1.233-1.746 2.75c1.746 1.25 3.746 1.25 3.746 1.25z"/><path fill="#5C6664" d="M10.5 7.179c-.373 2.014-.52 3.818.879 5.217.889.889 3.466 1.644 4.326 1.909.101.031.203.044.305.043v-11.371c-2.26 0-5.01 1.5-5.51 4.202zM13.365 5.052c-1.615-1.052-2.584-2.639-4.821-3.783-2.482-1.269-5.669-1.269-6.794-1.269.062 1 3.169 3.459 4.75 4.25 1.5.75 4.25.5 6.5 1.25.133-.055.365-.448.365-.448z"/><path fill="#FFD96C" d="M6.756.58c-.592-.168-1.188-.287-1.756-.372-1.25.542-1.5 1.042-1.754 1.725.389.349.821.701 1.255 1.028.249-.711.999-1.711 2.255-2.381z"/><path fill="#E07552" d="M11.25 7.75c-.25 1.25.25 2.75 1.25 2.75.5 0 1.5-.331 1.5-.75 0-1.75-2.652-2.49-2.75-2z"/><path d="M15.25 6.25c0 .811.396 1.375.75 1.375v-2.75c-.354 0-.75.564-.75 1.375z" fill="none"/><path fill="#FFD96C" d="M15.25 6.25c0-.811.396-1.375.75-1.375v-.75c-.841 0-1.5.934-1.5 2.125s.659 2.125 1.5 2.125v-.75c-.354 0-.75-.564-.75-1.375z"/><defs><path id="a" d="M11.25 7.75c-.25 1.25.25 2.75 1.25 2.75.5 0 1.5-.331 1.5-.75 0-1.75-2.652-2.49-2.75-2z"/></defs><use xlink:href="#a" overflow="visible" fill="#DD7731"/><clipPath id="b"><use xlink:href="#a" overflow="visible"/></clipPath><ellipse clip-path="url(#b)" fill="#2B3332" cx="12.625" cy="8.5" rx=".375" ry="1"/><path fill="#434C4B" d="M19.5 16.143c0 4.107 3.611 6.948 1.935 10.778l-.503 1.147c.622.183 1.079.751 1.079 1.433 0 .828-.672 1.5-1.5 1.5-.608 0-1.13-.364-1.365-.884-.626.082-1.557-.055-3.147-.152v-13.822h3.501z"/><path fill="#505957" d="M17.012 30.232s-.762-11.232-1.012-11.232v-5l2-.75s2.592 3.085 2.385 5.5c-.341 3.984-.817 9.549-.941 11.064.514.206.861.578.861 1.007 0 .651-.792 1.179-1.769 1.179-.977 0-1.769-.528-1.769-1.179 0-.216.093-.415.245-.589z"/><path fill="#434C4B" d="M16 17.25v-3.25l2-.75s1.036 1.233 1.746 2.75c-1.746 1.25-3.746 1.25-3.746 1.25z"/><path fill="#505957" d="M21.51 7.179c.373 2.014.52 3.818-.879 5.217-.889.889-3.466 1.644-4.326 1.909-.101.031-.203.044-.305.043v-11.371c2.26 0 5.01 1.5 5.51 4.202zM18.645 5.052c1.615-1.052 2.585-2.639 4.822-3.783 2.481-1.269 5.668-1.269 6.793-1.269-.062 1-3.169 3.459-4.75 4.25-1.5.75-4.25.5-6.5 1.25-.133-.055-.365-.448-.365-.448z"/><path fill="#FFD04D" d="M25.254.58c.592-.168 1.188-.287 1.756-.371 1.25.542 1.5 1.042 1.754 1.724-.389.349-.821.701-1.255 1.028-.249-.711-.999-1.711-2.255-2.381z"/><path fill="#D8714F" d="M20.76 7.75c.25 1.25-.25 2.75-1.25 2.75-.5 0-1.5-.331-1.5-.75 0-1.75 2.652-2.49 2.75-2z"/><path d="M16.76 6.25c0 .811-.396 1.375-.75 1.375v-2.75c.355 0 .75.564.75 1.375z" fill="none"/><path fill="#FFD04D" d="M16.76 6.25c0-.811-.396-1.375-.75-1.375v-.75c.841 0 1.5.934 1.5 2.125s-.659 2.125-1.5 2.125v-.75c.355 0 .75-.564.75-1.375z"/><defs><path id="c" d="M20.76 7.75c.25 1.25-.25 2.75-1.25 2.75-.5 0-1.5-.331-1.5-.75 0-1.75 2.652-2.49 2.75-2z"/></defs><use xlink:href="#c" overflow="visible" fill="#DD7731"/><clipPath id="d"><use xlink:href="#c" overflow="visible"/></clipPath><ellipse clip-path="url(#d)" fill="#2B3332" cx="19.385" cy="8.5" rx=".375" ry="1"/><path fill="#F0C13E" d="M27.25 15.994c-.876.558-1.659 1.252-2.388 2.006-.112 1.5 2.138 3.25 3.388 3.313.978-.63 1.841-1.377 2.493-2.313-1.493-.5-3.243-1.75-3.493-3.006z"/><path fill="#FFD04D" d="M18.401 21.107c.068-.692.365-1.316.795-1.668.28-.229.596-.334.907-.299l.254.062-.07.817c-.071-.067-.155-.123-.256-.133l-.037-.001c-.131 0-.247.073-.322.134-.275.226-.477.671-.524 1.162-.036.364.016.732.144 1.01.117.256.287.414.469.432.115.016.224-.036.313-.102l-.071.826c-.116.023-.282.026-.319.022-.837-.082-1.4-1.076-1.283-2.262z"/><path fill="#F7C845" d="M20.151 25.348c.053-.536.241-1.032.529-1.396.287-.364.651-.555 1.021-.57.05.174.11.517.142.777l-.101-.034c-.211 0-.389.184-.476.293-.199.252-.331.608-.37 1.004-.039.394.02.769.166 1.055.065.127.209.336.411.378l-.302.691c-.317-.111-.588-.358-.778-.728-.209-.412-.296-.935-.242-1.47z"/><path fill="#2B3332" d="M15.5 12.448c0 .138.224.25.5.25v-.5c-.276 0-.5.112-.5.25zM16.5 12.448c0 .138-.224.25-.5.25v-.5c.276 0 .5.112.5.25z"/><path d="M16.5 12.448c0 .138-.224.25-.5.25v-.5c.276 0 .5.112.5.25z"/></svg>