<svg xmlns="http://www.w3.org/2000/svg" width="32" height="32" viewBox="0 0 32 32"><path fill="#3A4274" d="M16 0c-.814 0-3.525 5.423-3.525 5.423l-4.413-1.858c-.239-.101-.47.16-.34.385l3.668 6.399h4.61v-10.349z"/><path fill="#2B376B" d="M16.001 3.15c-.566 0-2.986 3.229-2.986 3.229l-4.225-.551 2.46 4.26 4.752-2.3v-4.638zM16 0c.814 0 3.548 5.423 3.548 5.423l4.413-1.858c.239-.101.47.16.34.385l-3.668 6.399h-4.633v-10.349z"/><path fill="#232F5E" d="M16 3.15c.566 0 2.986 3.229 2.986 3.229l4.226-.551-2.46 4.26-4.752-2.3v-4.638z"/><path fill="#151C39" d="M19.125 24.484c.279-.93 6.672-6.085 6.672-6.085.182-.137.425.066.323.27l-.538 1.077 3.211-1.605c.186-.093.383.104.29.29l-.658 1.315h3.359c.178 0 .28.203.173.346l-2.584 3.445 2.564 2.589c.114.114.068.307-.084.358l-3.427.844.738 1.475c.083.165-.067.351-.246.306l-3.335-.834.614 1.227c.097.194-.12.394-.305.282l-6.706-4.056-.061-1.244z"/><path fill="#3A4274" d="M14.5 14h1.5v4h-1.5z"/><path fill="#EFD4A7" d="M16 27h-2v2l-3.108.777c-.566.142-1.043.524-1.304 1.046l-.227.454c-.165.332.076.723.448.723h6.191v-5z"/><path fill="#E5C79A" d="M22.411 30.823c-.261-.522-.737-.904-1.304-1.046l-3.107-.777v-2h-2v5h6.191c.372 0 .613-.391.447-.724l-.227-.453z"/><path fill="#F7F7F7" d="M12 32h-2c0-.552.448-1 1-1s1 .448 1 1zM15 32h-2c0-.552.448-1 1-1s1 .448 1 1z"/><path fill="#EDEEEE" d="M19 32h-2c0-.552.448-1 1-1s1 .448 1 1zM22 32h-2c0-.552.448-1 1-1s1 .448 1 1z"/><path fill="#3A4274" d="M12.363 16.701l2.887 2.08v-2.531h-2.739c-.241 0-.342.308-.148.451zM16 16.958v10.5c-3.049 0-5.521-2.127-5.521-4.75s2.472-5.75 5.521-5.75z"/><path fill="#2B376B" d="M16 14h1.5v4h-1.5zM19.637 16.701l-2.887 2.08v-2.531h2.739c.241 0 .342.308.148.451zM21.521 22.708c0 2.623-2.472 4.75-5.521 4.75v-10.5c3.049 0 5.521 3.127 5.521 5.75z"/><path fill="#1E264E" d="M18.375 17.604c2.312 1.062 4.533 3.521 4.533 4.521 0 .826-1.748 1.661-4.389 1.847-.597.042-1.038-.447-1.081-1.044-.105-1.47-.126-4.157.937-5.324z"/><path fill="#232F5E" d="M13.615 17.604c-2.312 1.062-4.533 3.521-4.533 4.521 0 .826 1.748 1.661 4.389 1.847.597.042 1.038-.447 1.081-1.044.105-1.47.126-4.157-.937-5.324zM16 26.042v1.417c-1.906 0-3.586-.831-4.578-2.094 1.12.468 1.529.677 4.578.677z"/><path fill="#1E264E" d="M20.578 25.364c-.992 1.264-2.672 2.094-4.578 2.094v-1.417c3.049.001 3.458-.208 4.578-.677z"/><path fill="#3A4274" d="M16 15.76c-2.728 0-4.949-1.646-4.949-4.371 0-3.426 3.124-3.796 4.949-3.796v8.167z"/><path fill="#232F5E" d="M16 13.05v2.71c-2.017 0-3.677-.876-4.46-2.347 1.892.806 4.46-2.413 4.46-.363z"/><path fill="#F7F7F7" d="M15.435 9.242c-.068.633-.573 2.337-1.934 2.337-1.261 0-1.661-1.202-1.545-1.945.86-.391 2.906-.503 3.479-.392z"/><path fill="#FF4A00" d="M14.915 9.22c0 .701-.219 1.627-1.085 1.627-.809 0-1.085-.701-1.085-1.288.561-.303 1.805-.41 2.17-.339z"/><path fill="#E5C79A" d="M12.754 12.994c.781 1.116 2.577 2.192 3.246 2.192v-3.415s-2.074.665-3.246 1.223z"/><path fill="#EFD4A7" d="M16 9.762c-.429 0-.445.99-1.085 1.604-.697.67-2.712.701-2.712 2.192.725 0 1.955-.542 2.457-.542.502 0 .795.542 1.339.542v-3.796z"/><ellipse fill="#F7F7F7" cx="13.831" cy="9.965" rx=".407" ry=".542"/><path fill="#232F5E" d="M11.234 10.078c1.885-.621 3.169-.655 4.762-.655l.004-2.373c-2.433 0-8.406 1.356-8.406 2.441 0 .678 1.898.587 3.64.587z"/><path fill="#2B376B" d="M16 7.593c1.825 0 4.949.37 4.949 3.796 0 2.724-2.221 4.371-4.949 4.371v-8.167z"/><path fill="#1E264E" d="M20.47 13.413c-.783 1.471-2.452 2.347-4.468 2.347l-.002-2.71c.014-2.05 2.578 1.169 4.47.363z"/><path fill="#F7F7F7" d="M16.565 9.242c.068.633.573 2.337 1.934 2.337 1.261 0 1.661-1.202 1.545-1.945-.86-.391-2.906-.503-3.479-.392z"/><path fill="#FF4A00" d="M17.085 9.22c0 .701.219 1.627 1.085 1.627.809 0 1.085-.701 1.085-1.288-.561-.303-1.805-.41-2.17-.339z"/><path fill="#DBBA8C" d="M19.246 12.994c-.781 1.116-2.511 2.192-3.246 2.192v-3.415s2.074.665 3.246 1.223z"/><path fill="#E5C79A" d="M16 9.762c.429 0 .445.99 1.085 1.604.697.67 2.712.701 2.712 2.192-.725 0-1.955-.542-2.457-.542s-.796.542-1.34.542v-3.796z"/><ellipse fill="#F7F7F7" cx="18.169" cy="9.965" rx=".407" ry=".542"/><path fill="#1E264E" d="M20.766 10.078c-1.885-.621-3.169-.655-4.762-.655l-.004-2.373c2.433 0 8.406 1.356 8.406 2.441 0 .678-1.898.587-3.64.587z"/></svg>