<svg xmlns="http://www.w3.org/2000/svg" width="32" height="32" viewBox="0 0 32 32"><path fill="#EA8BB4" d="M28.715 22.251c-.778 7.874-7.778 8.499-12.715 8.499v-5.333c5.312.208 9.164.264 12.272-3.338.157-.182.467-.066.443.172z"/><path fill="#F9ADC8" d="M12.896 22.207l-3.575.511c-1.881.269-3.314 1.84-3.314 3.744-.001.913.277 1.822.993 2.538l1 1.04-1.417.708c-.331.166-.583.346-.583.876 0 .251.152.374.287.374l6.364.002c.135 0 .349-.125.349-.575 0-.362-.207-.509-.391-.692l-.692-.692.979-1.041v-6.793zM14 20.5s-7.438 2.906-10.064.501c.944-1.093 6.855-4.459 10.064-4.501v4z"/><path fill="#FAB8CD" d="M16 14.958v15.792c-3.495 0-6-2.496-6-6.938 0-4.187 2.505-8.854 6-8.854z"/><path fill="#FEF1C6" d="M16 26.167v4.583c-3.495 0-6-2.496-6-6.938 1.667 1.563 3.812 2.355 6 2.355z"/><path fill="#C84054" d="M16 16.972c-.829 0-2.093-.471-2.844-1.242-1.403 0-2.263.745-2.592 1.133-.306.362-1.631-.181-1.631 1.087 1.676-.249 1.835.702 2.741 1.087.851.361 1.647-.604 2.174-.544.997.113.883 1.631 2.152 1.631v-3.152z"/><path fill="#E3E5E5" d="M6.036 21.879c-.83-.119-1.564-.388-2.099-.878.254-.294.867-.752 1.69-1.266.081.807.206 1.348.409 2.144z"/><path fill="#F8A1C4" d="M18.061 20.5s7.438 2.906 10.064.501c-.943-1.093-6.855-4.459-10.064-4.501v4z"/><path fill="#E3E5E5" d="M26.026 21.879c.83-.119 1.564-.388 2.099-.878-.254-.294-.867-.752-1.69-1.266-.082.807-.207 1.348-.409 2.144z"/><path fill="#FFEAA7" d="M16 28.417v2.333c-2.751 0-4.889-1.547-5.674-4.371 1.174.913 3.424 2.038 5.674 2.038z"/><path fill="#EDEEEE" d="M15.023 16.81c-.374-.112-.763-.28-1.119-.496-1.234.108-2.932.787-3.611 1.767.539.251.813.715 1.381.957.851.361 1.647-.604 2.174-.544-.056-.407.25-1.019 1.175-1.684z"/><path fill="#DADDDC" d="M13.394 9.595c-.02.611-.072 2.013-.083 2.775-.002.132-.121.237-.26.235-4.798-.066-6.691-4.056-6.943-6.954-.021-.238.297-.348.453-.16 1.89 2.276 4.019 3.825 6.589 3.87.137.002.248.103.244.234z"/><path fill="#C8CCCB" d="M16 0c-.062 0-.136.077-.218.206-.308.487-.725 1.719-1 2.407-.087.219-.43.21-.564.022-.277-.391-.7-.992-1.049-1.516-.092-.138-.289-.06-.282.112l.082 1.929c.006.127-.16.259-.263.203-.376-.207-1.165-.639-1.981-1.069-.132-.07-.27.083-.21.231.767 1.894 1.249 3.821.809 5.04.772.975 4.676 0 4.676 0v-7.565z"/><path fill="#D1D4D4" d="M16 4.898v6.592c-2.239 0-5.121-.464-5.121-2.382 0-2.394 2.235-4.21 5.121-4.21z"/><path fill="#DADDDC" d="M16 7.064v5.749c-2.443 0-5.586-.506-5.586-2.598 0-2.101 3.143-3.151 5.586-3.151z"/><path fill="#FAB8CD" d="M12.031 11.025c-.325.523-.52 1.138-.52 1.859 0 2.314 1.829 4.116 4.49 4.116v-8c-2.665 0-3.625 1.069-3.97 2.025z"/><ellipse fill="#fff" cx="14.46" cy="11.79" rx=".954" ry="1.563"/><ellipse fill="#373F3F" cx="14.527" cy="11.859" rx=".136" ry=".272"/><path fill="#FEF1C6" d="M16 12.35c-.955 0-1.91.132-2.837.397l-.028.008c-.342.098-.578.41-.578.766 0 .242.11.471.299.622l1.392 1.114c.497.398 1.115.614 1.751.614v-3.521z"/><path fill="#FFEAA7" d="M16 14.395c-1.267 0-2.438-.235-3.4-.632.047.147.133.28.256.379l1.392 1.114c.497.398 1.115.614 1.751.614v-1.475z"/><path fill="#fff" d="M13.977 14.173l.149.595c.018.07.08.119.153.119.072 0 .135-.049.153-.119l.122-.489-.577-.106z"/><path fill="#D1D4D4" d="M16 4.115v1.604c-.633 0-1.146-.359-1.146-.802 0-.443.513-.802 1.146-.802z"/><path fill="#F8A1C4" d="M19.104 22.207l3.575.511c1.881.269 3.314 1.84 3.314 3.744 0 .913-.278 1.822-.994 2.538l-1 1.04 1.417.708c.332.166.584.346.584.876 0 .251-.152.374-.287.374l-6.364.002c-.135 0-.349-.125-.349-.575 0-.362.207-.509.391-.692l.692-.692-.979-1.041v-6.793z"/><path fill="#F9ADC8" d="M22 23.812c0 4.441-2.505 6.938-6 6.938v-15.792c3.495 0 6 4.667 6 8.854z"/><path fill="#FFEAA7" d="M22 23.812c0 4.441-2.505 6.938-6 6.938v-4.583c2.188 0 4.333-.792 6-2.355z"/><path fill="#FFE28A" d="M21.674 26.379c-.785 2.824-2.923 4.371-5.674 4.371v-2.333c2.25 0 4.5-1.125 5.674-2.038z"/><path fill="#B93D4F" d="M16 16.972c.829 0 2.093-.471 2.844-1.242 1.403 0 2.263.745 2.592 1.133.306.362 1.631-.181 1.631 1.087-1.676-.249-1.835.702-2.741 1.087-.851.361-1.647-.604-2.174-.544-.997.113-.883 1.631-2.152 1.631v-3.152z"/><path fill="#E3E5E5" d="M16.977 16.81c.374-.112.763-.28 1.119-.496 1.234.108 2.932.787 3.611 1.767-.539.251-.813.715-1.381.957-.851.361-1.647-.604-2.174-.544.056-.407-.25-1.019-1.175-1.684z"/><path fill="#D1D4D4" d="M18.851 9.361c2.569-.046 4.699-1.594 6.589-3.87.156-.188.474-.078.453.16-.252 2.898-2.145 6.888-6.943 6.954-.139.002-.258-.103-.26-.235-.011-.763-.064-2.165-.083-2.775-.005-.131.106-.232.244-.234z"/><path fill="#ABB2B1" d="M16 0c.062 0 .136.077.218.206.308.487.725 1.719 1 2.407.087.219.43.21.564.022.277-.391.7-.992 1.049-1.516.092-.138.289-.06.282.112l-.082 1.929c-.006.127.16.259.263.203.376-.207 1.165-.639 1.981-1.069.132-.07.27.083.21.231-.767 1.894-1.249 3.821-.809 5.04-.772.975-4.676 0-4.676 0v-7.565z"/><path fill="#C8CCCB" d="M21.121 9.108c0 1.917-2.882 2.382-5.121 2.382v-6.592c2.886 0 5.121 1.816 5.121 4.21z"/><path fill="#D1D4D4" d="M21.586 10.214c0 2.092-3.144 2.598-5.586 2.598v-5.748c2.443 0 5.586 1.05 5.586 3.15z"/><path fill="#F9ADC8" d="M19.969 11.025c-.345-.956-1.305-2.025-3.969-2.025v8c2.66 0 4.49-1.802 4.49-4.116 0-.721-.196-1.336-.521-1.859z"/><ellipse fill="#F7F7F7" cx="17.54" cy="11.79" rx=".954" ry="1.563"/><ellipse fill="#2B3332" cx="17.473" cy="11.859" rx=".136" ry=".272"/><path fill="#FFEAA7" d="M16 12.35c.955 0 1.91.132 2.837.397l.028.008c.342.098.578.41.578.766 0 .242-.11.471-.299.622l-1.392 1.114c-.497.398-1.115.614-1.751.614v-3.521z"/><path fill="#FFE28A" d="M16 14.395c1.267 0 2.438-.235 3.4-.632-.047.147-.133.28-.256.379l-1.392 1.114c-.497.398-1.115.614-1.751.614v-1.475z"/><path fill="#F7F7F7" d="M18.023 14.173l-.149.595c-.018.07-.08.119-.153.119-.072 0-.135-.049-.153-.119l-.122-.489.577-.106z"/><path fill="#C8CCCB" d="M17.146 4.917c0 .443-.513.802-1.146.802v-1.604c.633 0 1.146.359 1.146.802z"/><path fill="#C84054" d="M16 4.333v1.167c-.46 0-.833-.261-.833-.583 0-.323.373-.584.833-.584z"/><path fill="#B93D4F" d="M16.833 4.917c0 .322-.373.583-.833.583v-1.167c.46 0 .833.261.833.584z"/></svg>