<svg xmlns="http://www.w3.org/2000/svg" width="32" height="32" viewBox="0 0 32 32"><path fill="#468DAC" d="M15.746 2.792c-2.458 1-9.5.458-11 3.542-.984 2.023.583 4-.25 5.667-.648 1.295-2.206 1.755-4.032-1.044-.142-.218-.488-.111-.462.147.277 2.716 1.532 7.022 5.744 7.022 11.125-.001 10-15.334 10-15.334zM4.558 8.188c.417 2.417-1.468 2.175-2.194 1.525-.105-.094-.269-.021-.258.12.139 1.745 1.203 4.213 5.733 4.063 4.396-.146-3.281-5.708-3.281-5.708z"/><path fill="#3085A6" d="M4.75 19.5c0 1.901 2.417 1.083 3 3 .568 1.866-3.776 2.869-2 5 1.667 2 3.083-.833 5 .083 1.46.698 1.75 3.417 5.25 3.417v-14s-11.25.125-11.25 2.5z"/><path fill="#5091AF" d="M6 12c0 4.971 4.477 9 10 9v-18c-5.523 0-10 4.029-10 9z"/><path fill="#F3586F" d="M14.196 20.15c-.183-.237-.457-.4-.779-.4-.552 0-1 .448-1 1s.448 1 1 1c.252 0 .476-.102.652-.256.221.864.998 1.506 1.931 1.506v-4c-.799 0-1.484.472-1.804 1.15z"/><path fill="#5091AF" d="M12.5 3.333c0 1.289 1.567 2.333 3.5 2.333v-4.666c-1.933 0-3.5 1.045-3.5 2.333zM15.996 3.688c-2.188 0-3.625-2.062-6-1.688-2.593.409-2.875 3-5 3-1.601 0-2.244-.709-2.651-1.38-.126-.208-.44-.128-.464.114-.178 1.765.375 3.318 1.24 4.266 3.875 4.25 10.629 1.812 12.879 1.812l-.004-6.124z"/><path fill="#FFC172" d="M15 10c0 2.209-1.791 4-4 4s-4-1.791-4-4 8-2.209 8 0z"/><path fill="#F3586F" d="M15 10c0-1.35-2.985-1.871-5.308-1.571-.43.582-.692 1.293-.692 2.071 0 1.683 1.189 3.087 2.773 3.422 1.839-.36 3.227-1.978 3.227-3.922z"/><path fill="#373F3F" d="M13.646 8.724c-.573-.195-1.275-.313-2.009-.356-.384.362-.637.956-.637 1.632 0 1.105.672 2 1.5 2s1.5-.895 1.5-2c0-.488-.136-.929-.354-1.276z"/><path fill="#FF5F7E" d="M3.375 5.938h.937v-.994c-1.107-.173-1.625-.759-1.967-1.324-.126-.208-.44-.128-.464.114-.119 1.183.095 2.267.507 3.141h.987v-.937z"/><path fill="#F3586F" d="M4.125 9.984c-.525.343-1.339.107-1.761-.271-.105-.094-.269-.021-.258.12.051.639.228 1.374.651 2.042h.43v-.938h.938v-.953zM2.187 12.759c-.529-.297-1.111-.862-1.724-1.803-.142-.218-.488-.112-.462.147.105 1.032.353 2.292.849 3.46h.4v-.938h.937v-.866z"/><path fill="#3A89A8" d="M16.254 2.792c2.458 1 9.5.458 11 3.542.984 2.023-.583 4 .25 5.667.648 1.295 2.206 1.755 4.032-1.044.142-.218.488-.111.462.147-.277 2.716-1.532 7.022-5.744 7.022-11.125-.001-10-15.334-10-15.334zM27.442 8.188c-.417 2.417 1.468 2.175 2.194 1.525.105-.094.269-.021.258.12-.139 1.745-1.203 4.213-5.733 4.063-4.396-.146 3.281-5.708 3.281-5.708z"/><path fill="#137FA0" d="M27.262 19.5c0 1.901-2.417 1.083-3 3-.568 1.866 3.776 2.869 2 5-1.667 2-3.083-.833-5 .083-1.46.698-1.762 3.417-5.262 3.417v-14s11.262.125 11.262 2.5z"/><path fill="#468DAC" d="M26.012 12c0 4.971-4.489 9-10.012 9l.012-18c5.523 0 10 4.029 10 9z"/><path fill="#E85160" d="M18.595 19.75c-.323 0-.598.164-.781.402-.323-.679-1.014-1.152-1.814-1.152v4c.933 0 1.719-.642 1.942-1.506.176.154.4.256.653.256.552 0 1-.448 1-1s-.448-1-1-1z"/><path fill="#468DAC" d="M16 3.688c2.187 0 3.641-2.062 6.016-1.688 2.593.409 2.875 3 5 3 1.601 0 2.244-.709 2.651-1.38.126-.208.44-.128.464.114.177 1.764-.376 3.318-1.24 4.266-3.875 4.25-10.641 1.812-12.891 1.812v-6.124z"/><path fill="#FFB76D" d="M17.012 10c0 2.209 1.791 4 4 4s4-1.791 4-4-8-2.209-8 0z"/><path fill="#E85160" d="M17.012 10c0-1.35 2.985-1.871 5.308-1.571.429.581.692 1.293.692 2.071 0 1.683-1.189 3.087-2.773 3.422-1.839-.36-3.227-1.978-3.227-3.922z"/><path fill="#2B3332" d="M18.366 8.724c.573-.195 1.275-.313 2.009-.356.384.362.637.956.637 1.632 0 1.105-.672 2-1.5 2s-1.5-.895-1.5-2c0-.488.136-.929.354-1.276z"/><path fill="#F3586F" d="M28.637 5.938h-.938v-.994c1.108-.173 1.625-.76 1.968-1.324.126-.208.44-.128.464.114.119 1.183-.095 2.266-.507 3.141h-.987v-.937z"/><path fill="#E85160" d="M27.875 9.984c.525.342 1.339.107 1.761-.272.105-.094.269-.021.258.12-.051.639-.228 1.374-.651 2.042h-.43v-.938h-.938v-.952zM29.812 12.759c.529-.297 1.111-.862 1.724-1.803.142-.218.488-.112.462.147-.105 1.032-.353 2.292-.849 3.46h-.4v-.938h-.938v-.866z"/><path fill="#468DAC" d="M19.5 3.333c0 1.289-1.567 2.333-3.5 2.333v-4.666c1.933 0 3.5 1.045 3.5 2.333z"/></svg>