<svg xmlns="http://www.w3.org/2000/svg" width="32" height="32" viewBox="0 0 32 32"><path fill="#EDEEEE" d="M9.426 18.044c-4.53 0-8.079-3.667-8.079-8.349s3.549-8.349 8.079-8.349 8.079 3.667 8.079 8.349-3.549 8.349-8.079 8.349z"/><path fill="#434C4B" d="M9.426 2.693c3.775 0 6.733 3.076 6.733 7.002 0 3.926-2.957 7.002-6.733 7.002s-6.733-3.076-6.733-7.002c0-3.926 2.958-7.002 6.733-7.002m0-2.693c-5.355 0-9.426 4.341-9.426 9.695 0 5.355 4.071 9.695 9.426 9.695s9.426-4.341 9.426-9.695-4.071-9.695-9.426-9.695zM28.273 9.371l-2.318 4.693-7-2.839v-1.514l9.318-.34m2.651-2.791l-.046.001-14.616.533v5.925l10.019 4.063c.148.069.303.102.456.102.398 0 .779-.221.967-.6l4.183-8.469c.355-.72-.172-1.555-.963-1.555z"/><ellipse fill="#2B3332" cx="9.583" cy="9.695" rx="2.267" ry="2.561"/><ellipse transform="matrix(.5 -.866 .866 .5 -2.964 11.872)" fill="#fff" cx="8.8" cy="8.503" rx="1.225" ry="1.084"/><ellipse transform="matrix(.5 -.866 .866 .5 -4.182 14.333)" fill="#0A6F8E" cx="10.321" cy="10.788" rx="1.274" ry="1.127"/><path fill="#434C4B" d="M9.479 24.207c1.896 0 4.507-.518 6.497-1.939.562-.401.691-1.182.291-1.744-.401-.562-1.185-.691-1.744-.291-1.768 1.263-4.177 1.555-5.497 1.459l.758-3.557-2.444-.521-1.802 8.451-5.098 3.808c-.553.413-.667 1.196-.253 1.75.245.329.621.502 1.002.502.26 0 .522-.081.747-.249l4.46-3.332 4.571 3.226c.563.399 1.344.264 1.742-.3.397-.564.264-1.344-.301-1.742l-4.428-3.126.523-2.453c.297.035.619.058.976.058z"/></svg>