<svg xmlns="http://www.w3.org/2000/svg" width="32" height="32" viewBox="0 0 32 32"><path fill="#4F4032" d="M28.5 15.812c-2.499.064-4 2.062-4 4.188 0 4.125-2.375 6.75-6.5 6.75v2.75c11.062 0 14-5.312 14-9.5 0-2.312-1.062-4.25-3.5-4.188z"/><path fill="#93C2CA" d="M16 0v8.5s10.993 1.125 10.75 0c-.9-4.163-5.437-8.5-10.75-8.5z"/><path fill="#99C7CE" d="M14.031 28.625h-4.361c-.431-.741-1.305-1.298-2.268-1.062-.734.179-1.326.796-1.481 1.535-.276 1.319.723 2.48 1.993 2.48.506 0 .965-.186 1.319-.492.406-.351.933-.527 1.469-.527h3.328v-1.934z"/><path fill="#ACD7DD" d="M16 0v29.5h-3c0-6.25-6.25-11-6.25-17.75 0-4.75 2.5-11.75 9.25-11.75z"/><path fill="#BEE2EA" d="M16 0v4c-1.5 0-4.25-.75-5.25-2.137 1.35-1.14 3.08-1.863 5.25-1.863z"/><path fill="#A5D1D8" d="M16.031 28.625h-2.978c-.873 0-1.762-.191-2.472-.699-.522-.374-1.212-.535-1.93-.348-.763.198-1.386.825-1.578 1.589-.375 1.494.745 2.833 2.177 2.833.558 0 1.065-.205 1.456-.543.448-.387 1.03-.582 1.622-.582h3.673l.03-2.25z"/><path fill="#373F3F" d="M14.155 5.856c.168.099.099.356-.096.358l-3.911.036-.05-.064.165-.617.055-.037 3.466.418-3.211-1.372-.029-.06.167-.618.075-.031 3.369 1.987z"/><path fill="#E55D53" d="M16 8.75c-.5 0-.5.75-.95.75-.55 0-.5-.75-1-.75s-.5.75-1 .75-.5-.75-1-.75-.5.75-1 .75-.5-.75-.75-.75c-.05 1.75 1.2 6.25 5.7 6.25v-6.25z"/><path fill="#ACD7DD" d="M4.31 2.382l-3.709-1.366c-.322-.119-.651.154-.595.492l1.322 7.932c.034.202.13.389.275.533l7.277 7.277v-2.25l-4.445-6.317c-.197-.28-.289-.62-.259-.962l.425-4.881c.017-.201-.102-.388-.291-.458z"/><path fill="#93C2CA" d="M17.969 28.625h4.361c.431-.741 1.305-1.298 2.268-1.062.734.179 1.326.796 1.481 1.535.276 1.319-.723 2.48-1.993 2.48-.506 0-.965-.186-1.319-.492-.406-.351-.933-.527-1.469-.527h-3.328v-1.934z"/><path fill="#A5D1D8" d="M25.25 11.75c0 6.75-6.25 11.5-6.25 17.75h-3v-29.5c6.75 0 9.25 7 9.25 11.75z"/><path fill="#9FCCD3" d="M16 28.625h3.033c.851 0 1.717-.192 2.403-.695.508-.373 1.178-.536 1.891-.358.765.191 1.396.811 1.594 1.575.391 1.503-.732 2.853-2.171 2.853-.558 0-1.065-.205-1.456-.543-.448-.387-1.03-.582-1.622-.582h-3.673v-2.25z"/><path fill="#373F3F" d="M17.845 5.856c-.168.099-.099.356.096.358l3.911.036.05-.064-.165-.617-.055-.037-3.466.418 3.211-1.372.029-.06-.167-.618-.075-.031-3.369 1.987z"/><path fill="#D64F45" d="M16 8.75c.5 0 .5.75.95.75.55 0 .5-.75 1-.75s.5.75 1 .75.5-.75 1-.75.5.75 1 .75.5-.75.75-.75c.05 1.75-1.2 6.25-5.7 6.25v-6.25z"/><path fill="#A5D1D8" d="M27.69 2.382l3.709-1.367c.321-.118.651.154.594.492l-1.322 7.932c-.034.202-.13.389-.275.533l-7.276 7.278v-2.25l4.445-6.317c.197-.28.289-.62.259-.962l-.425-4.881c-.017-.201.102-.388.291-.458zM16 20.75v8.75h-3c0-3.792-2.3-7.032-4.11-10.501 1.36.751 3.36 1.751 7.11 1.751z"/><path fill="#9FCCD3" d="M16 20.75v8.75h3c0-3.792 2.3-7.032 4.11-10.501-1.36.751-3.36 1.751-7.11 1.751z"/><ellipse fill="#E2DEDB" cx="26.75" cy="19.925" rx=".75" ry="1.075"/><ellipse fill="#2B3332" cx="26.75" cy="19.938" rx=".125" ry=".179"/><ellipse fill="#E2DEDB" cx="29.25" cy="19.925" rx=".75" ry="1.075"/><ellipse fill="#2B3332" cx="29.25" cy="19.938" rx=".125" ry=".179"/><path fill="#ACD7DD" d="M16 0v4c1.5 0 4.25-.75 5.25-2.137-1.35-1.14-3.08-1.863-5.25-1.863z"/></svg>