<svg xmlns="http://www.w3.org/2000/svg" width="32" height="32" viewBox="0 0 32 32"><path fill="#724D31" d="M14.062 29.5h-1.75l-1.75-8.125h3.5z"/><path fill="#2E2D2B" d="M14.12 30.5h-2.092c-.151 0-.266-.134-.244-.283l.208-1.384h2.167l.207 1.381c.022.151-.094.286-.246.286z"/><path fill="#724D31" d="M14.558 29c-.063-.945-.666-1.5-1.495-1.5s-1.434.555-1.497 1.5l-.003.506 1.425.469h.15l1.423-.469-.003-.506z"/><circle fill="#604631" cx="22" cy="17" r="2.5"/><path fill="#E3E5E5" d="M23.569 18.946c-.569-.259-.882-.696-1.382-1.571.875-.25 2.313-.548 2.313-.375 0 .786-.363 1.488-.931 1.946z"/><path fill="#F7BC48" d="M22.669 14.602c-.098.154-.169.327-.169.523 0 .552.448 1 1 1 .273 0 .52-.111.7-.288-.317-.599-.865-1.049-1.531-1.235z"/><path fill="#604631" d="M23.988 15.499c-.25-.331-.577-.599-.959-.772-.092.109-.154.245-.154.398 0 .345.28.625.625.625.202 0 .374-.102.488-.251z"/><path fill="#2E2D2B" d="M15.557 32h-2.092c-.151 0-.266-.134-.244-.283l.208-1.384h2.167l.207 1.381c.023.151-.094.286-.246.286z"/><path fill="#EFB43F" d="M14 6.062v9.381c0 .332-.021.473-.2.565-1.092.562-3.487 2.998-3.3 5.241.188 2.25 1.867 2.988 2.312 4.938.25 1.094 1.188 4.813 1.188 4.813h2v-24.938h-2zM16 30.25c-.063-.945-.671-1.25-1.5-1.25s-1.434.555-1.497 1.5l-.003.506 1.425.469h.15l1.423-.469.002-.756z"/><path fill="#845331" d="M14.511 12.472c.153 0 .288-.098.336-.244l.316-.971c.047-.145-.005-.305-.128-.395l-.826-.6c-.062-.045-.135-.067-.207-.067v2.278h.509zM14.207 15.321l.826-.6c.124-.09.175-.249.128-.395l-.316-.971c-.047-.145-.183-.244-.336-.244h-.509v2.277c.073 0 .146-.022.207-.067z"/><path fill="#F7BC48" d="M10.75 3.419c.868 1.534 4.041 1.905 4.041 1.905v-2.642s-2.808.079-4.041.737zM16 2.25v8.18c-2.182-.007-4.09-.663-4.09-2.922s1.929-5.258 4.09-5.258z"/><path fill="#EDEEEE" d="M13.145 4.032c.752-1.032 1.775-1.782 2.855-1.782v8.18c-1.956 0-1.528-1.101-1.528-3.36 0-1.129-.566-2.632-1.327-3.038z"/><circle fill="#EDEEEE" cx="13.625" cy=".625" r=".625"/><path fill="#fff" d="M14.009 4.534c1.113.121 1.074 1.708 1.059 2.683-.003.202-.19.351-.387.306-.528-.118-1.362-.278-1.844-.392-.158-.037-.266-.187-.245-.348.11-.816.66-2.331 1.417-2.249z"/><path fill="#EDEEEE" d="M15.081 3.057l-1.688-2.25.4-.301 1.688 2.25-.4.301z"/><path fill="#FAB8CD" d="M16 7.988v4.21c-1.424 0-1.789-1.293-2.034-1.868-.09-.212-.106-.227 0-.383.333-.488 1.304-1.959 2.034-1.959z"/><path fill="#845331" d="M14.253 19.147c.103-.138.105-.327.006-.467l-1.402-1.982c-1.046.935-2.28 2.55-2.362 4.135l1.723.584c.163.055.343-.001.446-.139l1.589-2.131z"/><path fill="#2B3332" d="M14.701 6.588c.034-.76-.211-1.381-.641-1.425-.43-.044-.84.523-.917 1.266-.03.294.009.558.079.789l1.262.267c.149-.226.201-.549.217-.897z"/><ellipse fill="#fff" cx="14.016" cy="6.125" rx=".312" ry=".625"/><path fill="#724D31" d="M17.938 29.5h1.75l1.75-8.125h-3.5z"/><path fill="#2E2D2B" d="M17.88 30.5h2.092c.151 0 .266-.134.244-.283l-.208-1.384h-2.167l-.207 1.381c-.022.151.094.286.246.286z"/><path fill="#724D31" d="M17.442 29c.063-.945.666-1.5 1.495-1.5s1.434.555 1.497 1.5l.003.506-1.425.469h-.15l-1.423-.469.003-.506z"/><path fill="#2E2D2B" d="M16.443 32h2.092c.151 0 .266-.134.244-.283l-.208-1.384h-2.167l-.207 1.381c-.023.151.094.286.246.286z"/><path fill="#E5AC38" d="M18 6.062v9.381c0 .332.021.473.2.565 1.092.562 3.487 2.998 3.3 5.241-.188 2.25-1.867 2.988-2.312 4.938-.25 1.094-1.188 4.813-1.188 4.813h-2v-24.938h2zM16 30.25c.063-.945.671-1.25 1.5-1.25s1.434.555 1.497 1.5l.003.506-1.425.469h-.15l-1.423-.469-.002-.756z"/><path fill="#724D31" d="M17.489 12.472c-.153 0-.288-.098-.336-.244l-.316-.971c-.047-.145.005-.305.128-.395l.826-.6c.062-.045.135-.067.207-.067v2.278h-.509zM17.793 15.321l-.826-.6c-.124-.09-.175-.249-.128-.395l.316-.971c.047-.145.183-.244.336-.244h.509v2.277c-.073 0-.146-.022-.207-.067z"/><path fill="#E5AC38" d="M21.25 3.419c-.868 1.534-4.041 1.905-4.041 1.905v-2.642s2.808.079 4.041.737z"/><path fill="#EFB43F" d="M20.09 7.509c0 2.259-1.908 2.915-4.09 2.922v-8.181c2.161 0 4.09 3 4.09 5.259z"/><path fill="#E3E5E5" d="M17.528 7.07c0 2.259.428 3.36-1.528 3.36v-8.18c1.08 0 2.103.75 2.855 1.782-.761.406-1.327 1.909-1.327 3.038z"/><circle fill="#E3E5E5" cx="18.375" cy=".625" r=".625"/><path fill="#fff" d="M17.991 4.534c-1.113.121-1.074 1.708-1.059 2.683.003.202.19.351.387.306.528-.118 1.362-.278 1.844-.392.158-.037.266-.187.245-.348-.11-.816-.66-2.331-1.417-2.249z"/><path fill="#E3E5E5" d="M16.519 2.756l1.688-2.25.4.301-1.688 2.25-.4-.301z"/><path fill="#F9ADC8" d="M18.034 9.947c.106.156.09.171 0 .383-.244.576-.61 1.868-2.034 1.868v-4.21c.73 0 1.701 1.471 2.034 1.959z"/><path fill="#724D31" d="M17.747 19.147c-.103-.138-.105-.327-.006-.467l1.402-1.982c1.046.935 2.28 2.55 2.362 4.135l-1.723.584c-.163.055-.343-.001-.446-.139l-1.589-2.131z"/><path fill="#2B3332" d="M17.299 6.588c-.034-.76.211-1.381.641-1.425.43-.044.84.523.917 1.266.03.294-.009.558-.079.789l-1.262.267c-.149-.226-.201-.549-.217-.897z"/><ellipse fill="#fff" cx="17.984" cy="6.125" rx=".312" ry=".625"/></svg>