<svg xmlns="http://www.w3.org/2000/svg" width="32" height="32" viewBox="0 0 32 32"><path fill="#1A2040" d="M25.218 21.843l-.79 1.8 2.031 2.251c.047.074.054.168.018.248l-.927 2.085c-.042.095-.137.156-.241.156h-2.046c-.095 0-.182-.051-.229-.133l-1.241-1.184.263 2.165c0 .121-.082.226-.199.256l-1.966.689c-.12.03-.244-.027-.299-.138l-.959-2.181-.511 3.077c-.01.071-.044.132-.103.174-.316.226-1.421.892-2.019.892v-11.167l9.218 1.01z"/><path fill="#1E264E" d="M6.782 21.843l.79 1.8-2.031 2.251c-.047.074-.054.168-.018.248l.927 2.085c.042.095.137.156.241.156h2.046c.095 0 .182-.051.229-.133l1.241-1.184-.263 2.165c0 .121.082.226.199.256l1.966.689c.12.03.244-.027.299-.138l.959-2.181.511 3.077c.01.071.044.132.103.174.316.226 1.421.892 2.019.892v-11.167l-9.218 1.01z"/><path fill="#45A396" d="M16 18.667c-3.227 0-7.553-.288-12.152 5.827-.059.078-.07.185-.023.271.284.525.664 1.172.835 1.46.055.093.161.135.266.112l4.134-.906.109-.054c.299-.27 2.054-1.833 3.081-2.252-.292.417-.5 1-.5 1v2s2.208.5 4.25.5v-7.958z"/><path fill="#3A9384" d="M16 18.667c3.227 0 7.553-.288 12.152 5.827.059.078.07.185.023.271-.284.525-.664 1.172-.835 1.46-.055.093-.161.135-.266.112l-4.134-.906-.109-.054c-.299-.27-2.054-1.833-3.081-2.252.292.417.5 1 .5 1v2s-2.208.5-4.25.5v-7.958z"/><path fill="#4EAFA3" d="M16 14.792c-3.227 0-8.303-.288-12.902 5.827-.059.078-.07.185-.023.271.284.525.664 1.172.835 1.46.055.093.161.135.266.112l4.134-.906.109-.054c.299-.27 2.054-1.833 3.081-2.252-.292.417-.5 1-.5 1v2s2.958.5 5 .5v-7.958z"/><path fill="#45A396" d="M16 14.792c3.227 0 8.303-.288 12.902 5.827.059.078.07.185.023.271-.284.525-.664 1.172-.835 1.46-.055.093-.161.135-.266.112l-4.134-.906-.109-.054c-.299-.27-2.054-1.833-3.081-2.252.292.417.5 1 .5 1v2s-2.958.5-5 .5v-7.958z"/><path fill="#4EAFA3" d="M16 .062c-1.25 0-5 10.438-5 10.438h5v-10.438z"/><path fill="#81A9A2" d="M16 11.226v-1.851c-.406 0-3.839-5.5-6.768-7.244-.145-.087-.322-.087-.474-.011-1.247.62-3.983 2.017-4.623 2.343-.083.043-.135.129-.135.222v1.685c0 .067.021.125.069.172.459.451 4.087 3.981 3.973 6.374l7.958-1.69z"/><path fill="#60C4BC" d="M16 11.226v-1.851c-.406 0-3.839-5.5-6.768-7.244-.145-.087-.322-.087-.474-.011-1.247.62-3.983 2.017-4.623 2.343-.083.043-.135.129-.135.222v1.685c0 .067.021.125.069.172.459.451 4.087 3.981 3.973 6.374l7.958-1.69z"/><path fill="#1E264E" d="M8.649 4.381c-.145-.087-.323-.087-.474-.011-1.041.518-3.107 1.57-4.137 2.095l.031.078c.459.451 4.087 3.981 3.973 6.374l6.583-1.606c-.208-1.103-3.462-5.433-5.976-6.93z"/><path fill="#E3E5E5" d="M13.181 8.863c-.312-.148-.654-.238-1.014-.238-1.45 0-2.625 1.026-2.625 2.292 0 .567.245 1.079.635 1.479l4.448-1.085c-.082-.436-.644-1.378-1.444-2.448z"/><path fill="#D64F45" d="M13.288 9.006c-.832.031-1.497.625-1.497 1.358 0 .657.533 1.206 1.242 1.335l1.378-.336.177-.171c-.135-.45-.616-1.257-1.3-2.186z"/><path fill="#1C1A19" d="M13.747 9.659l-.018-.004c-.656 0-1.188.464-1.188 1.037 0 .44.326.793.771.939l1.07-.261.2-.198c-.107-.341-.405-.877-.835-1.513z"/><path fill="#4E6965" d="M11 16l.111-.274-.111.274z"/><path fill="#45A396" d="M16 .062c1.25 0 5 10.438 5 10.438h-5v-10.438z"/><path fill="#81A9A2" d="M16 11.226v-1.851c.406 0 3.839-5.5 6.768-7.244.145-.087.323-.087.474-.011 1.247.62 3.984 2.017 4.623 2.344.083.042.135.128.135.221v1.685c0 .067-.021.125-.069.172-.459.451-4.087 3.981-3.973 6.374l-7.958-1.69z"/><path fill="#58B7AE" d="M16 11.226v-1.851c.406 0 3.839-5.5 6.768-7.244.145-.087.323-.087.474-.011 1.247.62 3.984 2.017 4.623 2.344.083.042.135.128.135.221v1.685c0 .067-.021.125-.069.172-.459.451-4.087 3.981-3.973 6.374l-7.958-1.69z"/><path fill="#1A2040" d="M23.351 4.381c.145-.087.323-.087.474-.011 1.041.518 3.107 1.57 4.137 2.096l-.031.078c-.459.451-4.087 3.981-3.973 6.374l-6.583-1.606c.208-1.104 3.462-5.434 5.976-6.931z"/><path fill="#E3E5E5" d="M18.819 8.863c.312-.148.654-.238 1.014-.238 1.45 0 2.625 1.026 2.625 2.292 0 .567-.245 1.079-.635 1.479l-4.448-1.085c.082-.436.644-1.378 1.444-2.448z"/><path fill="#D64F45" d="M18.712 9.006c.832.031 1.497.625 1.497 1.358 0 .657-.533 1.206-1.242 1.335l-1.378-.336-.177-.171c.135-.45.616-1.257 1.3-2.186z"/><path fill="#1C1A19" d="M18.253 9.659l.018-.004c.656 0 1.188.464 1.188 1.037 0 .44-.326.793-.771.939l-1.07-.261-.2-.198c.107-.341.405-.877.835-1.513z"/><path fill="#4E6965" d="M21 16l-.111-.274.111.274z"/><path fill="#60C4BC" d="M16 10.542c-3.227 0-8.303-.288-12.902 5.827-.059.078-.07.185-.023.271.284.525.664 1.172.835 1.46.055.093.161.135.266.112l4.134-.906.109-.054c.299-.27 2.054-1.833 3.081-2.252-.292.417-.5 1-.5 1v2s2.958.5 5 .5v-7.958z"/><path fill="#58B7AE" d="M16 10.542c3.227 0 8.303-.288 12.902 5.827.059.078.07.185.023.271-.284.525-.664 1.172-.835 1.46-.055.093-.161.135-.266.112l-4.134-.906-.109-.054c-.299-.27-2.054-1.833-3.081-2.252.292.417.5 1 .5 1v2s-2.958.5-5 .5v-7.958z"/></svg>