<svg xmlns="http://www.w3.org/2000/svg" width="32" height="32" viewBox="0 0 32 32"><path fill="#D64F45" d="M16 5c-7.18 0-13 4.701-13 10.5s5.82 10.5 13 10.5v-21z"/><path fill="#D1473D" d="M29 15.5c0-5.799-5.82-10.5-13-10.5v21c7.18 0 13-4.701 13-10.5z"/><path fill="#373F3F" d="M16 15h-1.55c-.232-1.141-1.24-2-2.45-2s-2.218.859-2.45 2h-2.55v1h2.55c.232 1.141 1.24 2 2.45 2s2.218-.859 2.45-2h1.55v-1z"/><path fill="#2B3332" d="M25 15h-2.55c-.232-1.141-1.24-2-2.45-2s-2.218.859-2.45 2h-1.55v1h1.55c.232 1.141 1.24 2 2.45 2s2.218-.859 2.45-2h2.55v-1z"/><circle fill="#fff" cx="12" cy="15.5" r="1.5"/><circle fill="#373F3F" cx="12" cy="15.5" r="1"/><circle fill="#F7F7F7" cx="20" cy="15.5" r="1.5"/><circle fill="#2B3332" cx="20" cy="15.5" r="1"/><path fill="#FDE2E6" d="M15 18l-1 3h-2l-1-2h-2l-1 1.5-2-.5-2-4h-1s.001 1.385.671 3.123l-.481.629c-.116.152-.135.356-.05.527l.722 1.444c.084.17.258.277.447.277h1.065c.389.457.843.903 1.371 1.321l.224 2.355c.019.197.152.364.34.427l2.398.799c.18.06.378.013.512-.121l1.267-1.267c.559.132 1.156.237 1.791.317l.609 1.827c.068.204.259.342.474.342h1.64v-10h-1z"/><path fill="#FCD8DE" d="M28.329 19.123c.67-1.738.671-3.123.671-3.123h-1l-2 4-2 .5-1-1.5h-2l-1 2h-2l-1-3h-1v10h1.64c.215 0 .406-.138.474-.342l.609-1.827c.532-.067 1.044-.148 1.523-.252l1.203 1.203c.134.134.332.181.512.121l2.398-.799c.188-.063.321-.23.34-.427l.199-2.086c.684-.494 1.255-1.033 1.73-1.59h1.065c.189 0 .363-.107.447-.276l.722-1.444c.085-.171.066-.376-.05-.527l-.483-.631z"/><path fill="#FDECEF" d="M14.36 3c-.215 0-.406.138-.474.342l-.609 1.827c-.635.08-1.233.185-1.791.317l-1.267-1.267c-.134-.134-.332-.181-.512-.121l-2.398.799c-.188.063-.321.23-.34.427l-.224 2.355c-.528.418-.982.864-1.371 1.321h-1.065c-.189 0-.363.107-.447.276l-.722 1.445c-.085.171-.066.376.05.527l.481.629c-.67 1.738-.671 3.123-.671 3.123h1l2-4 2-.5 1 1.5h2l1-2h2l1 3h1v-10h-1.64z"/><path fill="#FDE2E6" d="M28.329 11.877l.481-.629c.116-.152.135-.356.05-.527l-.722-1.444c-.084-.17-.258-.277-.447-.277h-1.065c-.475-.558-1.046-1.097-1.73-1.59l-.199-2.086c-.019-.197-.152-.364-.34-.427l-2.397-.799c-.18-.06-.378-.013-.512.121l-1.203 1.203c-.479-.104-.99-.185-1.523-.252l-.609-1.827c-.067-.205-.258-.343-.473-.343h-1.64v10h1l1-3h2l1 2h2l1-1.5 2 .5 2 4h1s-.001-1.385-.671-3.123z"/><path fill="#E55D53" d="M6.175 17.823l-5.78-1.239c-.23-.049-.395-.252-.395-.488v-1.192c0-.236.165-.44.395-.489l5.78-1.239c.476-.102.957.154 1.138.606l.093.231c.381.954.381 2.017 0 2.971l-.092.231c-.182.454-.662.71-1.139.608z"/><path fill="#D64F45" d="M25.825 13.177l5.78 1.239c.23.049.395.252.395.488v1.192c0 .236-.165.44-.395.489l-5.78 1.239c-.476.102-.957-.154-1.138-.606l-.093-.231c-.381-.954-.381-2.017 0-2.971l.092-.231c.182-.454.662-.71 1.139-.608z"/></svg>