<svg xmlns="http://www.w3.org/2000/svg" width="32" height="32" viewBox="0 0 32 32"><path fill="#FFD04D" d="M16 0c-.438 0-2.5 2.375-2.5 4 0 1.626.812 3 2.5 3v-7z"/><path fill="#FFD96C" d="M13.548 3.66l-.048.34c0 1.626.812 3 2.5 3v-4.812c-1.187 0-1.995.59-2.452 1.472z"/><path fill="#FFE28A" d="M16 5.5v14.5c-4.971 0-7-2.315-7-6 0-4.938 6-4.375 6-8.5h1z"/><path fill="#FDF2D2" d="M9.521 11.795c-.324.595-.521 1.309-.521 2.205 0 3.685 2.029 6 7 6v-10.438c-2.813 0-5.063.876-6.479 2.233z"/><path fill="#FFF3D9" d="M9.521 11.795c-.324.595-.521 1.309-.521 2.205 0 3.685 2.029 6 7 6v-10.438c-2.813 0-5.063.876-6.479 2.233z"/><path fill="#FDF2D2" d="M9.521 11.795c-.324.595-.521 1.309-.521 2.205 0 3.685 2.029 6 7 6v-10.438c-2.813 0-5.063.876-6.479 2.233z"/><path fill="#60C4BC" d="M9 14c0 3.685 2.029 6 7 6v-8.625c-2.964 0-5.365.865-6.977 2.224l-.023.401z"/><path fill="#FFF3D9" d="M16 20v-6.875c-2.871 0-5.235.773-6.924 2.006.397 3.019 2.485 4.869 6.924 4.869z"/><path fill="#60C4BC" d="M16 20v-5.062c-2.645 0-4.852.661-6.505 1.729.851 2.089 2.887 3.333 6.505 3.333z"/><path fill="#FFE28A" d="M13.917 5.781c.399.731 1.084 1.219 2.083 1.219v-2.438c-.999 0-1.684.489-2.083 1.219z"/><path fill="#EDEEEE" d="M1.069 11.873c.634-1.557 3.546-.75 5.478.548 3.136 2.106 4.469 5.478 4.44 7.121-3.604-1.096-10.767-5.584-9.918-7.669z"/><path fill="#DADDDC" d="M2.627 15.159c.373-1.451 3.211-.744 5.218.433 1.672.98 3.056 2.998 3.171 3.95-3.545-.404-8.913-2.347-8.389-4.383z"/><path fill="#FFE28A" d="M16 16.656v13.344c-4.971 0-9-2.987-9-6.672s4.029-6.672 9-6.672z"/><path fill="#45A396" d="M16 26.188v3.812c-2.249 0-4.305-.612-5.883-1.623 2.195 0 2.383-2.189 5.883-2.189z"/><path fill="#4EAFA3" d="M7 23.328c0 1.338.537 2.582 1.452 3.626 1.993-.227 3.548-1.9 3.548-3.954 0-1.862-1.279-3.414-3.002-3.859-1.248 1.145-1.998 2.6-1.998 4.187z"/><path fill="#FDEBBB" d="M7.022 23h3.728c0 1.519-1.231 2.75-2.75 2.75-.137 0-.268-.021-.399-.04-.382-.741-.601-1.542-.601-2.382l.022-.328z"/><path fill="#FFF3D9" d="M7.022 23h3.728c0-1.512-1.221-2.738-2.731-2.748-.583.829-.932 1.76-.997 2.748z"/><path fill="#45A396" d="M13.486 31.833l.983-2.781h-2.437l.983 2.781c.078.223.392.223.471 0z"/><path fill="#F7C845" d="M16 0c.438 0 2.5 2.375 2.5 4 0 1.626-.812 3-2.5 3v-7z"/><path fill="#FFD04D" d="M18.452 3.66l.048.34c0 1.626-.812 3-2.5 3v-4.812c1.187 0 1.995.59 2.452 1.472z"/><path fill="#FFD96C" d="M17 5.5c0 4.125 6 3.562 6 8.5 0 3.685-2.029 6-7 6v-14.5h1z"/><path fill="#FDF2D2" d="M22.479 11.795c.324.595.521 1.309.521 2.205 0 3.685-2.029 6-7 6v-10.438c2.812 0 5.062.876 6.479 2.233z"/><path fill="#FDEBBB" d="M22.479 11.795c.324.595.521 1.309.521 2.205 0 3.685-2.029 6-7 6v-10.438c2.812 0 5.062.876 6.479 2.233z"/><path fill="#58B7AE" d="M23 14c0 3.685-2.029 6-7 6v-8.625c2.964 0 5.365.865 6.977 2.224l.023.401z"/><path fill="#FDEBBB" d="M16 20v-6.875c2.871 0 5.235.773 6.924 2.006-.397 3.019-2.485 4.869-6.924 4.869z"/><path fill="#58B7AE" d="M16 20v-5.062c2.645 0 4.852.661 6.505 1.729-.851 2.089-2.887 3.333-6.505 3.333z"/><path fill="#FFD96C" d="M18.083 5.781c-.399.731-1.084 1.219-2.083 1.219v-2.438c.999 0 1.684.489 2.083 1.219z"/><path fill="#E3E5E5" d="M21.013 19.542c-.029-1.643 1.304-5.015 4.44-7.121 1.932-1.297 4.844-2.105 5.478-.548.849 2.085-6.314 6.573-9.918 7.669z"/><path fill="#D1D4D4" d="M29.373 15.159c-.373-1.451-3.211-.744-5.218.432-1.672.98-3.056 2.998-3.171 3.95 3.545-.403 8.913-2.346 8.389-4.382z"/><path fill="#FFD96C" d="M25 23.328c0 3.685-4.029 6.672-9 6.672v-13.344c4.971 0 9 2.987 9 6.672z"/><path fill="#3A9384" d="M21.883 28.377c-1.578 1.011-3.634 1.623-5.883 1.623v-3.812c3.5 0 3.688 2.189 5.883 2.189z"/><path fill="#45A396" d="M25 23.328c0 1.338-.537 2.582-1.452 3.626-1.993-.227-3.548-1.9-3.548-3.954 0-1.862 1.279-3.414 3.002-3.859 1.248 1.145 1.998 2.6 1.998 4.187z"/><path fill="#FAE09F" d="M25 23.328c0 .84-.219 1.641-.601 2.382-.131.019-.262.04-.399.04-1.519 0-2.75-1.231-2.75-2.75h3.728l.022.328z"/><path fill="#FDEBBB" d="M24.978 23h-3.728c0-1.512 1.221-2.738 2.731-2.748.583.829.932 1.76.997 2.748z"/><path fill="#3A9384" d="M18.514 31.833l-.983-2.781h2.437l-.983 2.781c-.078.223-.392.223-.471 0z"/></svg>