<svg xmlns="http://www.w3.org/2000/svg" width="32" height="32" viewBox="0 0 32 32"><path fill="#A4337F" d="M30.955 23.798c-.029-.118-.19-.155-.255-.053-.531.826-.947.622-2.049 1.018-.524-.321-1.153-.51-1.83-.51-1.825 0-3.305 1.358-3.305 3.034s1.48 3.034 3.305 3.034c1.825 0 3.305-1.358 3.305-3.034 0-.218-.027-.429-.075-.634.797-.927 1.063-2.205.904-2.855z"/><path fill="#137FA0" d="M13.437 14.625l-7.375-1.188c0 1.769-.312 4.812-3.125 5.438-.264.059-.321.642-.253 1.23l11.046-.826-.293-4.654z"/><path fill="#0F769B" d="M2.685 20.105c.074.641.296 1.288.565 1.27 1.812-.125 2.766.453 3.75 1.625 1.753 2.087 2.125 4.875 2.125 4.875l4.812-5.312-.207-3.283-11.045.825z"/><ellipse transform="matrix(.975 -.221 .221 .975 -5.799 5.143)" fill="#BC4285" cx="20.099" cy="28.504" rx="2.275" ry="1.758"/><ellipse transform="matrix(.975 -.221 .221 .975 -5.516 4.678)" fill="#BF538E" cx="18.161" cy="27.004" rx="2.275" ry="1.758"/><ellipse transform="matrix(.977 -.212 .212 .977 -5.438 5.705)" fill="#B2357F" cx="23.867" cy="28.193" rx="2.64" ry="2.544"/><path fill="#C976A3" d="M6.125 13.438c.187 1.25 1.875 3.125 3.562 3.125.813.812 2.75 2.437 2.75 2.437l.75-2.812s-4.25-4.562-5.812-4.875c-.659-.132-1.25 2.125-1.25 2.125z"/><path fill="#C56A9B" d="M12 29c0 1.013-1.398 2-2.75 2s-2.333-.821-2.333-1.833 1.096-1.833 2.448-1.833 2.635.653 2.635 1.666z"/><path fill="#C976A3" d="M16 16.812h-3.563s-2.625 2.875-2.625 5.562 2.375 4.376 6.188 4.376v-9.938zM11.375 25l-.875 1.375s-1.25-.312-1.5.875c-.232 1.101 2.687 1.938 3 .625.151-.635-.313-1.062-.313-1.062l.813-1.188-1.125-.625zM9.291 29.901c0 .641-.417 1.25-1.25 1.25-1.583 0-2.022.432-2.557.819-.098.071-.235.011-.236-.11-.008-.963.865-3.204 2.835-3.125 1.042.041 1.208.787 1.208 1.166z"/><path fill="#DB92BB" d="M4.604 20.187c-.022.813-.89 1.248-1.723 1.227-1.506-.039-1.756-.539-2.669.045-.102.065-.233-.036-.21-.155.183-.946 1.691-2.735 3.649-2.5.599.071.974.634.953 1.383z"/><path fill="#0F769B" d="M18.563 14.625l7.375-1.188c0 1.769.312 4.812 3.125 5.438.264.059.321.642.253 1.23l-11.046-.826.293-4.654z"/><path fill="#0A6F8E" d="M29.315 20.105c-.074.641-.296 1.288-.565 1.27-1.812-.125-2.765.453-3.75 1.625-1.753 2.087-2.125 4.875-2.125 4.875l-4.812-5.312.207-3.283 11.045.825z"/><path fill="#D786B3" d="M27.396 20.187c.023.813.89 1.248 1.723 1.227 1.506-.039 1.756-.539 2.669.045.102.065.233-.036.21-.155-.183-.946-1.691-2.735-3.649-2.5-.599.071-.974.634-.953 1.383z"/><path fill="#DB92BB" d="M2 3.062c0-.938 6.25-.166 6.25 7 0 5.5-5.75 3.875-5.75 1.938-1.438-.688-2.5-1.75-2.5-3.436 0-.979 4 2.067 4-.564 0-2.062-2-3.372-2-4.938z"/><path fill="#C56A9B" d="M25.875 13.438c-.188 1.25-1.875 3.125-3.562 3.125-.813.812-2.751 2.437-2.751 2.437l-.75-2.812s4.25-4.562 5.812-4.875c.66-.132 1.251 2.125 1.251 2.125z"/><path fill="#C25E94" d="M20 29c0 1.013 1.398 2 2.75 2s2.333-.821 2.333-1.833-1.096-1.833-2.448-1.833c-1.352-.001-2.635.653-2.635 1.666z"/><path fill="#C56A9B" d="M16 16.812h3.562s2.625 2.875 2.625 5.562-2.375 4.376-6.187 4.376v-9.938zM20.625 25l.875 1.375s1.25-.312 1.5.875c.232 1.101-2.688 1.938-3 .625-.151-.635.312-1.062.312-1.062l-.812-1.188 1.125-.625zM22.709 29.901c0 .641.417 1.25 1.25 1.25 1.583 0 2.022.432 2.557.819.098.071.235.011.236-.11.008-.963-.865-3.204-2.835-3.125-1.042.041-1.208.787-1.208 1.166z"/><path fill="#D786B3" d="M30 3.062c0-.938-6.25-.166-6.25 7 0 5.5 5.75 3.875 5.75 1.938 1.438-.688 2.5-1.75 2.5-3.436 0-.979-4 2.067-4-.564 0-2.062 2-3.372 2-4.938z"/><path fill="#DB92BB" d="M14.75 7.145c-.45-2.422-1.378-7.145-1.815-7.145-1.078 0-1.794 6.867-1.914 9.378-1.191 1.161-2.021 2.534-2.021 3.622 0 2.125 3.134 5 7 5v-11c-.405-.017-.826.038-1.25.145z"/><path fill="#D786B3" d="M20.98 9.378c-.121-2.511-.837-9.378-1.915-9.378-.437 0-1.365 4.723-1.815 7.145-.424-.107-.845-.162-1.25-.145v11c3.866 0 7-2.875 7-5 0-1.088-.83-2.461-2.02-3.622zM16 15v3c-3.866 0-7-2.875-7-5 1.25.812 4.703 1.906 7 2z"/><path fill="#FFA68E" d="M12.419 14.354c.107 1.206.956 5.646 3.581 5.646v-5c-1.059-.043-2.36-.303-3.581-.646z"/><path fill="#fff" d="M11.97 14.226l-.16 1.414c.004.205.254.301.395.153l.903-1.252c-.386-.095-.766-.203-1.138-.315zM12.697 9.756c-1.19-.191-2.061 1.806-1.661 2.358.4.553 3.256 1.011 3.414.792.157-.218-.206-2.901-1.753-3.15z"/><ellipse transform="matrix(.159 -.987 .987 .159 -.517 22.598)" fill="#373F3F" cx="13" cy="11.602" rx=".75" ry=".25"/><path fill="#D084B1" d="M23 13c0 2.125-3.134 5-7 5v-3c2.297-.094 5.75-1.188 7-2z"/><path fill="#FF9A7E" d="M19.581 14.354c-.107 1.206-.769 5.646-3.581 5.646v-5c1.059-.043 2.36-.303 3.581-.646z"/><path fill="#F7F7F7" d="M20.03 14.226l.16 1.414c-.004.205-.254.301-.395.153l-.903-1.252c.386-.095.766-.203 1.138-.315zM19.303 9.756c1.19-.191 2.061 1.806 1.661 2.358-.4.553-3.256 1.011-3.414.792-.157-.218.206-2.901 1.753-3.15z"/><ellipse transform="matrix(.987 -.159 .159 .987 -1.599 3.16)" fill="#2B3332" cx="19" cy="11.602" rx=".25" ry=".75"/></svg>