<svg xmlns="http://www.w3.org/2000/svg" width="32" height="32" viewBox="0 0 32 32"><path fill="#495587" d="M16.458 28.019l-3.666 1.419c-.254.098-.25.459.006.552l3.695 1.341c.189.069.401.036.56-.086l2.085-1.598-2.118-1.554c-.162-.119-.374-.147-.562-.074z"/><path fill="#515E91" d="M21.663 29.317l-.403-.816c-.153-.31-.438-.534-.776-.609l-.986-.219c-.313-.07-.64-.005-.903.179l-.714.5c-.305.214-.487.563-.487.935v1.071c0 .372.182.721.487.935l.714.5c.262.184.59.249.903.179l.986-.219c.337-.075.623-.299.776-.609l.403-.816c.157-.318.157-.692 0-1.011z"/><path fill="#5C699E" d="M25.908 26.578l-1.303-1.084c-.2-.166-.464-.233-.719-.182l-1.729.349c-.251.051-.466.211-.587.436l-.819 1.528c-.125.234-.136.512-.028.755l.681 1.533c.108.242.321.421.579.485l1.682.417c.249.062.512.009.718-.143l1.418-1.049c.209-.155.337-.396.347-.656l.069-1.693c.011-.267-.103-.524-.309-.696z"/><path fill="#6673AA" d="M30.28 23.904l-.758-1.827c-.116-.28-.353-.493-.645-.578l-1.976-.578c-.287-.084-.596-.036-.844.132l-1.675 1.134c-.256.174-.418.456-.439.765l-.129 1.954c-.02.309.103.61.334.815l1.512 1.344c.223.199.524.287.819.242l2.035-.314c.3-.046.563-.226.715-.489l.991-1.712c.158-.272.18-.6.06-.888z"/><path fill="#707EB7" d="M29.175 15.009l-2.067.387c-.317.059-.59.259-.743.543l-1.035 1.928c-.15.28-.168.612-.048.907l.812 1.991c.124.305.382.535.699.624l2.004.563c.317.089.657.027.921-.169l1.73-1.277c.256-.189.414-.482.431-.799l.12-2.185c.018-.322-.112-.635-.351-.851l-1.563-1.406c-.248-.223-.584-.317-.91-.256z"/><path fill="#7C8AC4" d="M30.737 11.614l-1.267-2.013c-.194-.309-.518-.513-.881-.555l-2.459-.287c-.357-.042-.714.078-.974.327l-1.757 1.683c-.269.257-.404.625-.365.995l.242 2.342c.038.37.245.702.561.899l2.064 1.288c.305.19.679.235 1.02.121l2.349-.784c.346-.116.622-.382.749-.724l.828-2.23c.131-.352.09-.745-.11-1.062z"/><path fill="#8694D1" d="M26.861 7.796l-.16-2.289c-.059-.846-.498-1.62-1.195-2.105l-2.017-1.404c-.686-.477-1.548-.624-2.353-.399l-2.298.64c-.833.232-1.512.836-1.84 1.636l-.855 2.086c-.328.8-.268 1.707.162 2.457l1.187 2.069c.416.725 1.133 1.226 1.956 1.367l2.422.416c.836.144 1.692-.099 2.328-.66l1.721-1.518c.654-.576 1.002-1.425.942-2.296z"/><path fill="#ABB4DD" d="M1.993 5.872c.099-.637 2.167-1.887 2.336-2.122.169-.234.398-.904 1.228-1.146s2.867-.507 3.254-.848c.387-.341.633-.753 1.131-.72s2.8.506 3.931.135 1.295-1.11 1.735-1.168 1.986.674 2.237 1.118-.045 1.427 1.004 2.476l1.69 1.657-3.336 4.75-9.55-1.078s-1.842-.099-3.294.317-1.181-2.59-1.438-2.426c-.25.159-1.046-.181-.928-.945z"/><path fill="#F7F7F7" d="M1.945 7.914l-.19 1.344 4.911-1.152 1.215-1.796-4.944.502z"/><path fill="#9AA6D6" d="M19.458 10.645c-.45.962-.35 2.837-.889 3.315-.365.324-1.911.723-2.483.674-.647-.056-.911-.532-1.62-.399-1.419.267-.826 1.448-2.829 1.197s-.95-1.143-2.541-1.497c-1.591-.354-1.543 1.176-3.286.633s-.764-1.805-1.332-2.047c-.567-.243-4.47-2.178-4.47-3.479 0-1.309 4.461-1.012 6.755-1.202.321-.394 1.344-2.03 1.776-2.051.432-.021 1.892 1.624 2.122 1.636.23.012.999-1.176 1.266-1.156.267.021 1.085 1.453 1.39 1.435.551-.033 1.679-2.798 2.432-3.08l2.749 1.435c1.14.293 1.502-1.352 2.012-1.2.51.152 2.134 1.406 2.044 1.813-.09.407-.14 1.328-.645 1.682-.506.354-2.155 1.658-2.451 2.291z"/><path fill="#363534" d="M7.147 4.26c-.059.265 4.157-.093 4.475-.3.318-.208.762-1.332.686-1.427-.076-.095-5.029 1.135-5.161 1.727z"/><path fill="#fff" d="M7.147 4.26c-.035.156 1.41.096 2.67-.022.313-.406.494-.854.547-1.272-1.431.389-3.14.949-3.217 1.294z"/><path fill="#9A3644" d="M7.147 4.26c-.024.108.667.111 1.51.064l.073-.086c.188-.291.281-.601.288-.873-.982.316-1.818.656-1.871.895z"/></svg>