<svg xmlns="http://www.w3.org/2000/svg" width="32" height="32" viewBox="0 0 32 32"><path fill="#FAE09F" d="M25 32h-6.714s-.785-1.779.339-2.75c.702-.606 3.014-.171 4.651.581.984.451 1.724 1.357 1.724 2.169z"/><path fill="#C95C73" d="M16 26.5c.75 0 3.394 1.808 3.25 2.5-.156.75-1.719.75-3.25.75v-3.25z"/><path fill="#DD7C8A" d="M16 15.75v12l4.75 2.75s1.78-.757 2.75-1c1-.25 2.117 1.088 3 .5.75-.5-.25-2.25 0-3 .177-.53 1.5-1 1.5-1.75 0-1.031-3.75-1.75-4-2.5l-2.5-7h-5.5z"/><path fill="#DB7383" d="M16 26.5v1.25c1.5 0 2.375 2.75 4.75 2.75 1.5 0 1.78-.757 2.75-1 1-.25 2.117 1.088 3 .5.75-.5-.25-2.25 0-3 .177-.53 1.5-1 1.5-1.75 0-1.031-3.75-1.75-4-2.5-1.25 2.667-4.25 3.75-8 3.75z"/><ellipse transform="matrix(.946 -.323 .323 .946 -5.915 8.239)" fill="#A5D1D8" cx="21.833" cy="21.917" rx=".841" ry="1.875"/><path fill="#A5D1D8" d="M17.627 23.716c.254 1.004 1.143 1.787 1.827 1.496.428-.182.904-.961.624-1.958-.313-1.116-1.183-1.819-1.725-1.682-.766.193-1 1.06-.726 2.144z"/><path fill="#FDEBBB" d="M7 32h6.714s.785-1.779-.339-2.75c-.702-.606-3.014-.171-4.651.581-.984.451-1.724 1.357-1.724 2.169z"/><path fill="#DE8490" d="M11.222 16.577c-1-.5-6.165-3.266-7.375-2.217-1.875 1.625 5.125 4.875 5.625 5.125.75-.75 1.75-2.908 1.75-2.908z"/><path fill="#DD7C8A" d="M20.778 16.577c1-.5 6.165-3.266 7.375-2.217 1.875 1.625-5.125 4.875-5.625 5.125-.75-.75-1.75-2.908-1.75-2.908z"/><path fill="#CB6278" d="M16 26.5c-.75 0-3.394 1.808-3.25 2.5.156.75 1.719.75 3.25.75v-3.25z"/><path fill="#DE8490" d="M16 15.75v12l-4.75 2.75s-1.78-.757-2.75-1c-1-.25-2.117 1.088-3 .5-.75-.5.25-2.25 0-3-.177-.53-1.5-1-1.5-1.75 0-1.031 3.75-1.75 4-2.5l2.5-7h5.5zM12.23.493c1.061 1.061.707 6.718-.177 7.955s-2.623.5-3.182 0c-3.358-3.005-4.419-4.066-2.475-6.364s4.95-2.475 5.834-1.591z"/><path fill="#373F3F" d="M12.23.493c.295.295.481.946.576 1.758-3.306-.001-5.056 2.249-5.949 4.322-1.681-1.712-1.937-2.744-.461-4.489 1.945-2.298 4.95-2.475 5.834-1.591z"/><path fill="#E2959E" d="M6 1.75c1.5 0 5.25 4.25 5.5 5.75s-1.501 2.208-2.25 2.25c-4.5.25-6 .25-6.25-2.75s1.75-5.25 3-5.25z"/><path fill="#434C4B" d="M6 1.75c.545 0 1.387.561 2.25 1.347-2 1.903-2.25 4.403-1.75 6.752-2.399-.022-3.31-.57-3.5-2.849-.25-3 1.75-5.25 3-5.25z"/><path fill="#93C2CA" d="M9.5 16.5c0 .75.75 2 2.75 2s1.5 1.5 3.75 1.5v-3.5h-6.5z"/><path fill="#E2959E" d="M16 4.5c-4.25 0-8.75 5.25-8.75 9.5 0 4.75 6.5 2.25 8.75 2.25v-11.75z"/><path fill="#DD7C8A" d="M16 26.5v1.25c-1.5 0-2.375 2.75-4.75 2.75-1.5 0-1.78-.757-2.75-1-1-.25-2.117 1.088-3 .5-.75-.5.25-2.25 0-3-.177-.53-1.5-1-1.5-1.75 0-1.031 3.75-1.75 4-2.5 1.25 2.667 4.25 3.75 8 3.75z"/><ellipse transform="matrix(.323 -.946 .946 .323 -13.86 24.449)" fill="#ACD7DD" cx="10.167" cy="21.917" rx="1.875" ry=".841"/><path fill="#ACD7DD" d="M14.373 23.716c-.254 1.004-1.143 1.787-1.827 1.496-.428-.182-.904-.961-.624-1.958.313-1.116 1.183-1.819 1.725-1.682.766.193 1 1.06.726 2.144z"/><path fill="#FEFAF9" d="M12.225 13.688c.285-.285 1.71.855 1.71.855l-1.14.855s-.855-1.425-.57-1.71z"/><path fill="#DE8490" d="M16 13.75c-1.25 0-3.5.5-3.5 2.5s2.75 1.75 3.5 1.75v-4.25z"/><path fill="#373F3F" d="M16 11.875c-.625 0-1.562.312-1.562.625s.938.625 1.562.625v-1.25z"/><path fill="#DD7C8A" d="M19.77.493c-1.061 1.061-.707 6.718.177 7.955.884 1.237 2.623.5 3.182 0 3.359-3.005 4.419-4.066 2.475-6.364s-4.95-2.475-5.834-1.591z"/><path fill="#2B3332" d="M19.77.493c-.295.295-.481.946-.576 1.758 3.306-.001 5.056 2.249 5.949 4.322 1.681-1.712 1.937-2.744.46-4.489-1.944-2.298-4.949-2.475-5.833-1.591z"/><path fill="#E08C96" d="M26 1.75c-1.5 0-5.25 4.25-5.5 5.75s1.501 2.208 2.25 2.25c4.5.25 6 .25 6.25-2.75s-1.75-5.25-3-5.25z"/><path fill="#373F3F" d="M26 1.75c-.545 0-1.387.561-2.25 1.347 2 1.903 2.25 4.403 1.75 6.752 2.399-.022 3.31-.57 3.5-2.849.25-3-1.75-5.25-3-5.25z"/><path fill="#88B9C3" d="M22.5 16.5c0 .75-.75 2-2.75 2s-1.5 1.5-3.75 1.5v-3.5h6.5z"/><path fill="#E08C96" d="M16 4.5c4 0 8.75 5.25 8.75 9.5 0 4.75-6.5 2.25-8.75 2.25v-11.75z"/><path fill="#F7F7F7" d="M19.775 13.688c-.285-.285-1.71.855-1.71.855l1.14.855s.855-1.425.57-1.71z"/><path fill="#DD7C8A" d="M16 13.75c1.25 0 3.5.5 3.5 2.5s-2.75 1.75-3.5 1.75v-4.25z"/><path fill="#2B3332" d="M16 11.875c.625 0 1.562.312 1.562.625s-.937.625-1.562.625v-1.25z"/><path fill="#FEFAF9" d="M10.638 9.019c.57.296 2.654 1.416 3.362 2.328.047.06.037.145-.021.194-.529.44-2.285 1.485-3.404.329-.625-.646-.263-2.257-.127-2.768.023-.084.113-.123.19-.083z"/><path fill="#373F3F" d="M13.152 10.563c-.494-.375-1.067-.733-1.562-1.02-.192.176-.322.416-.322.698 0 .545.442.986.986.986.428.001.765-.282.898-.664z"/><path fill="#F7F7F7" d="M21.362 9.019c-.57.296-2.654 1.416-3.362 2.328-.047.06-.037.145.021.194.529.44 2.285 1.485 3.404.329.625-.646.263-2.257.127-2.768-.023-.084-.113-.123-.19-.083z"/><path fill="#2B3332" d="M18.848 10.563c.494-.375 1.067-.733 1.562-1.02.192.176.322.416.322.698 0 .545-.442.986-.986.986-.428.001-.765-.282-.898-.664z"/></svg>