<svg xmlns="http://www.w3.org/2000/svg" width="32" height="32" viewBox="0 0 32 32"><path fill="#D799D6" d="M19.458 13.917c.5-.167 5.417-1.417 6.542-1.417 1.031 0 5 2.125 5 2.75 0 .973-1.292 2.75-2 2.75s-1.673-.815-3.5-1.5c-.667-.25-4.167 1.458-4.167 1.458l-1.875-4.041z"/><path fill="#373F3F" d="M27.73 13.064c.599.272 1.242.61 1.802.946-1.321.516-2.263 1.763-2.344 3.247-.444-.227-.969-.48-1.594-.72l-.01-.121c-.001-1.487.881-2.761 2.146-3.352z"/><path fill="#E0ABDF" d="M12.542 13.917c-.5-.167-5.417-1.417-6.542-1.417-1.031 0-5 2.125-5 2.75 0 .973 1.292 2.75 2 2.75s1.673-.815 3.5-1.5c.667-.25 4.167 1.458 4.167 1.458l1.875-4.041z"/><path fill="#434C4B" d="M4.395 13.064c-.599.272-1.242.61-1.802.946 1.321.516 2.263 1.763 2.344 3.247.444-.227.969-.48 1.594-.72l.01-.121c.001-1.487-.881-2.761-2.146-3.352z"/><path fill="#E0ABDF" d="M14 4.001c-.313-.562-2.563-4.067-5.75-4-2.219.047-4.031 3.422-3.983 4.235.009.144.105.267.249.268 1.728.007 3.612-.199 4.234-.44v1.699c0 .067.039.129.103.149 1.358.42 4.927-.409 5.147-.911.146-.333.121-.782 0-1z"/><path fill="#D799D6" d="M8.75 4.227c.035-.857-.566-3.677-.954-4.167l-.223.064-.204.072c-1.797.73-3.143 3.338-3.102 4.041.009.143.105.266.249.267 1.728.007 3.612-.199 4.234-.44v.163zM9 28.125c-.723.924-1.562 2.234-1.957 2.813l-.043.139v.673c0 .138.112.25.25.25h3.56c.092 0 .176-.05.22-.131l2.054-3.786-4.084.042z"/><path fill="#E0ABDF" d="M12.25 12.083h3.75v15.917c-2.875 0-2.291 2-5 2-3.375 0-4.167-4.208-4-6.5.242-3.327 5.25-11.417 5.25-11.417z"/><path fill="#D799D6" d="M16 26.062v1.938c-2.875 0-2.291 2-5 2-3.375 0-4.167-4.208-4-6.5 2.375 2.5 9 2.562 9 2.562z"/><path fill="#434C4B" d="M12.375 12.083h3.75v5.333c-4.417.001-3.75-5.333-3.75-5.333z"/><path fill="#E5BDE5" d="M16 14.5c-1.75 0-3.188-1.5-3.75-1.5h-2.096c-.262 0-.51-.132-.641-.359-.359-.622-.763-2.134-.763-2.641 0-1.375 3.687-8 7.25-8v12.5z"/><path fill="#EBCEEB" d="M16 9.531v4.969c-1.75 0-3.188-1.5-3.75-1.5h-2.096c-.262 0-.51-.132-.641-.359-.069-.119-.357-.735-.419-1.079.25.062.156.062.531.094-.09-.427.193-3.336 1.066-6.034.272-.841.599-1.615.993-2.205.086-.129.283-.071.278.083l-.002.6c.035 2.36.595 6.354 1.353 7.243.187-.531 1.468-1.812 2.687-1.812z"/><path fill="#434C4B" d="M14.5 7.625c0-.563.672-.75 1.5-.75v1.875c-.828 0-1.5-.711-1.5-1.125z"/><path fill="#FAF9F7" d="M12.88 4.242c.43.217 2.183 1.59 2.543 2.01.034.04.003.101-.049.101h-2.048c-.295 0-.535-.239-.535-.535v-1.519c.001-.046.048-.078.089-.057z"/><ellipse fill="#373F3F" cx="13.861" cy="5.673" rx=".25" ry=".5"/><path fill="#D799D6" d="M18 5.001c.22.502 3.789 1.331 5.147.911.064-.02.103-.082.103-.149v-1.699c.622.241 2.505.448 4.234.44.144-.001.241-.123.249-.268.048-.813-1.764-4.188-3.983-4.235-3.187-.067-5.438 3.438-5.75 4-.121.218-.146.667 0 1z"/><path fill="#D285D2" d="M23.25 4.227c-.035-.857.566-3.677.954-4.167l.223.065.204.071c1.797.73 3.143 3.338 3.102 4.041-.009.144-.105.267-.249.268-1.728.007-3.612-.199-4.234-.44v.162zM23 28.125c.723.924 1.562 2.234 1.957 2.813l.043.139v.673c0 .138-.112.25-.25.25h-3.56c-.092 0-.176-.05-.22-.131l-2.054-3.786 4.084.042z"/><path fill="#D799D6" d="M19.75 12.083h-3.75v15.917c2.875 0 2.291 2 5 2 3.375 0 4.167-4.208 4-6.5-.242-3.327-5.25-11.417-5.25-11.417z"/><path fill="#373F3F" d="M19.75 12.083h-3.75v5.333c4.417.001 3.75-5.333 3.75-5.333z"/><path fill="#E0ABDF" d="M16 14.5c1.75 0 3.188-1.5 3.75-1.5h2.096c.262 0 .51-.132.641-.359.359-.622.763-2.134.763-2.641 0-1.375-3.688-8-7.25-8v12.5z"/><path fill="#E5BDE5" d="M18.688 11.344c.758-.889 1.318-4.883 1.353-7.243l-.002-.6c-.005-.155.192-.212.278-.083.393.59.721 1.364.993 2.205.873 2.698 1.156 5.607 1.066 6.034.375-.031.281-.031.531-.094-.094.406-.35.959-.419 1.079-.132.226-.38.358-.642.358h-2.096c-.562 0-2 1.5-3.75 1.5v-4.969c1.219 0 2.5 1.281 2.688 1.813z"/><path fill="#373F3F" d="M16 8.75v-1.875c.828 0 1.5.188 1.5.75 0 .414-.672 1.125-1.5 1.125z"/><path fill="#FAF9F7" d="M19.12 4.242c-.43.217-2.183 1.59-2.543 2.01-.034.04-.003.101.049.101h2.048c.295 0 .535-.239.535-.535v-1.519c-.001-.046-.048-.078-.089-.057z"/><ellipse fill="#282828" cx="18.139" cy="5.673" rx=".25" ry=".5"/><path fill="#D285D2" d="M16 26.062v1.938c2.875 0 2.291 2 5 2 3.375 0 4.167-4.208 4-6.5-2.375 2.5-9 2.562-9 2.562z"/></svg>