<svg xmlns="http://www.w3.org/2000/svg" width="32" height="32" viewBox="0 0 32 32"><path fill="#ACD7DD" d="M2 2c1.833.125 11.75 6.958 13 11-4.958 0-7.208-.375-10-2.958-3.006-2.782-3-6.125-3-8.042z"/><path fill="#B9E2E7" d="M3.398 2.526c.216 1.774.873 3.896 2.894 5.766 2.328 2.154 4.284 2.771 7.742 2.917-2.339-3.274-7.844-7.278-10.636-8.683z"/><path fill="#A0422C" d="M9.958 7.083c.167 3.167 3.815 5.987 4.095 5.618s.78-.827.863-1.035c.084-.208-4.416-5.291-4.958-4.583z"/><path fill="#B9E2E7" d="M14.054 12.702c.364 1.17 1.218 4.49.267 5.311-.951.821-5.072-1.093-4.612-2.179s2.478-2.89 3.034-3.331c.555-.442 1.311.199 1.311.199z"/><path fill="#923D27" d="M10.521 23.417c-.292.25-2.167 3.042-2.208 5.083-.037 1.799.833 3.458.833 3.458s1.417.125 1.542-.25.583-8.292.375-8.292l-.542.001z"/><path fill="#A0422C" d="M11.184 17.685c.272-.623 3.944-.392 3.097 1.659-.694 1.681-3.784-.086-3.097-1.659zM11.665 18.928c-.486.839-1.694 4.164-1.339 5.201.338.989 2.756-4.627 2.524-4.854-.233-.229-1.185-.347-1.185-.347z"/><path fill="#EDF4E4" d="M8.271 32c0-.333 1.125-1.083 1.458-1.083.333 0 .606.751.583 1.083h-2.041z"/><path fill="#AD4630" d="M15 10v1.031s-1.062.594-1.75.875-.312 4.719 2.75 4.719v-6.625h-1z"/><path fill="#5C6664" d="M15 10v1.031s.594 2.766 1 2.766v-3.797h-1z"/><path fill="#AD4630" d="M12.25 21.752c0 2.292 1.417 3.625 2.875 4.812.292.238.518.281.875.281v-9.656c-1.625 0-3.75 2.25-3.75 4.563zM16 17.682s-2.268.613-1.958.402c1.042-.708.458-2.827.458-2.827h1.5v2.425zM13 5.422v3.031c0 .225.086.441.252.594.462.427 1.441 1.116 2.092 1.537.266.172.46.281.656.293v-5.252l-3-.203z"/><path fill="#B94A34" d="M16 .001c-.452-.074-1.396 3.692-1.5 3.942-.312-.188-4.073-2.427-4.5-2-.504.504 3.072 3.912 4.979 5.438.417.333.542.451 1.021.451v-7.831zM11.184 10.976c.078-.675 3.944-.392 3.097 1.659-.694 1.681-3.364.657-3.097-1.659zM8.771 17.329l-.417-.908 2.839-1.304.695-3.011.974.225-.805 3.489z"/><ellipse transform="matrix(.953 -.304 .304 .953 -5.224 2.339)" fill="#B94A34" cx="4.902" cy="17.953" rx="4" ry="2.75"/><path fill="#923D27" d="M7.701 18.413c-.009-.049-.043-.086-.092-.097-.388-.093-.967-.251-1.327-.367l-.115.022c-.551.459-1.652 1.437-2.136 1.77.137-.657.226-1.074.309-1.524.017-.091-.066-.169-.155-.144-.543.149-1.367.402-1.809.552l-.079.089c-.078.337-.229.984-.35 1.536.905.62 2.335.788 3.791.324.88-.281 1.612-.749 2.147-1.299-.062-.261-.135-.587-.184-.862z"/><ellipse transform="matrix(.983 -.183 .183 .983 -2.934 1.53)" fill="#434C4B" cx="6.821" cy="16.658" rx=".824" ry="1.047"/><ellipse transform="matrix(.983 -.183 .183 .983 -2.934 1.53)" fill="#CDAE5F" cx="6.821" cy="16.658" rx=".375" ry=".476"/><path fill="#434C4B" d="M12.467 20.44c.57 1.219 1.569 2.129 2.596 2.966.313.255.555.301.938.301v-2.574c-.918 0-1.985-3.248-2.747-2.209-.334.455-.609.971-.787 1.516z"/><path fill="#505957" d="M12.882 19.494c.581.861 1.372 1.564 2.18 2.222.313.255.556.302.938.302v-2.186c-.719 0-1.69-.878-2.215-1.528-.34.342-.65.747-.903 1.19z"/><path fill="#5C6664" d="M13.408 18.717c.494.562 1.07 1.058 1.652 1.533.314.255.557.302.94.302v-1.253c-.613 0-1.58-.965-1.906-1.282-.242.204-.473.44-.686.7z"/><path fill="#fff" d="M13.595 7.078l-.062.027.002.826c0 .25.434.896 1.271.516.093-.042.095-.152.038-.228-.049-.065-.995-.913-1.249-1.141z"/><path fill="#CDAE5F" d="M14.61 7.997l-.691-.627c-.064.109-.107.248-.107.404 0 .341.185.617.414.617.176 0 .324-.164.384-.394z"/><path fill="#505957" d="M14.398 7.803l-.264-.24c-.049.048-.087.117-.087.21 0 .148.08.268.18.268.091 0 .16-.106.171-.238z"/><path fill="#A5D1D8" d="M30 2c-1.833.125-11.75 6.958-13 11 4.958 0 7.208-.375 10-2.958 3.006-2.782 3-6.125 3-8.042z"/><path fill="#ACD7DD" d="M28.602 2.526c-.215 1.773-.873 3.896-2.893 5.765-2.328 2.154-4.284 2.771-7.742 2.917 2.338-3.273 7.843-7.277 10.635-8.682z"/><path fill="#923D27" d="M22.042 7.083c-.167 3.167-3.815 5.987-4.095 5.618-.28-.368-.78-.827-.863-1.035-.084-.208 4.416-5.291 4.958-4.583z"/><path fill="#ACD7DD" d="M17.946 12.702c-.364 1.17-1.218 4.49-.267 5.311.951.821 5.072-1.093 4.612-2.179-.459-1.086-2.478-2.89-3.034-3.331-.555-.442-1.311.199-1.311.199z"/><path fill="#843822" d="M21.479 23.417c.292.25 2.167 3.042 2.208 5.083.037 1.799-.833 3.458-.833 3.458s-1.417.125-1.542-.25-.583-8.292-.375-8.292l.542.001z"/><path fill="#923D27" d="M20.816 17.685c-.272-.623-3.944-.392-3.097 1.659.694 1.681 3.784-.086 3.097-1.659zM20.335 18.928c.486.839 1.694 4.164 1.339 5.201-.338.989-2.756-4.627-2.524-4.854l1.185-.347z"/><path fill="#EDF4E4" d="M23.729 32c0-.333-1.125-1.083-1.458-1.083-.333 0-.606.751-.583 1.083h2.041z"/><path fill="#A0422C" d="M17 10v1.031s1.062.594 1.75.875.312 4.719-2.75 4.719v-6.625h1z"/><path fill="#505957" d="M17 10v1.031s-.594 2.766-1 2.766v-3.797h1z"/><path fill="#A0422C" d="M19.75 21.752c0 2.292-1.417 3.625-2.875 4.812-.292.238-.518.281-.875.281v-9.656c1.625 0 3.75 2.25 3.75 4.563zM16 17.682s2.268.613 1.958.402c-1.042-.708-.458-2.827-.458-2.827h-1.5v2.425zM19 5.422v3.031c0 .225-.086.441-.252.594-.462.427-1.441 1.116-2.092 1.537-.266.172-.46.281-.656.293v-5.252l3-.203z"/><path fill="#AD4630" d="M16 .001c.452-.074 1.396 3.692 1.5 3.942.312-.188 4.073-2.427 4.5-2 .504.504-3.072 3.912-4.979 5.438-.417.333-.542.451-1.021.451v-7.831z"/><path fill="#B94A34" d="M20.816 10.976c-.078-.675-3.944-.392-3.097 1.659.694 1.681 3.364.657 3.097-1.659zM23.229 17.329l-3.286-1.509-.805-3.489.974-.225.695 3.011 2.839 1.304z"/><ellipse transform="matrix(.304 -.953 .953 .304 1.759 38.313)" fill="#AD4630" cx="27.098" cy="17.953" rx="2.75" ry="4"/><path fill="#7D3119" d="M24.299 18.413c.009-.049.043-.086.092-.097.388-.093.967-.251 1.327-.367l.115.022c.551.459 1.652 1.437 2.136 1.77-.137-.657-.226-1.074-.309-1.524-.017-.091.066-.169.155-.144.543.149 1.367.402 1.809.552l.079.089c.078.337.229.984.35 1.536-.905.62-2.335.788-3.791.324-.88-.281-1.612-.749-2.147-1.299.062-.261.135-.587.184-.862z"/><ellipse transform="matrix(.183 -.983 .983 .183 4.193 38.362)" fill="#373F3F" cx="25.179" cy="16.658" rx="1.047" ry=".824"/><ellipse transform="matrix(.183 -.983 .983 .183 4.193 38.362)" fill="#CDAE5F" cx="25.179" cy="16.658" rx=".476" ry=".375"/><path fill="#373F3F" d="M19.533 20.44c-.57 1.219-1.569 2.129-2.596 2.966-.313.255-.555.301-.938.301v-2.574c.918 0 1.985-3.248 2.747-2.209.334.455.609.971.787 1.516z"/><path fill="#434C4B" d="M19.118 19.494c-.581.861-1.372 1.564-2.18 2.222-.313.255-.556.302-.938.302v-2.186c.719 0 1.69-.878 2.215-1.528.34.342.65.747.903 1.19z"/><path fill="#505957" d="M18.592 18.717c-.494.562-1.07 1.058-1.652 1.533-.314.255-.557.302-.94.302v-1.253c.613 0 1.58-.965 1.906-1.282.242.204.473.44.686.7z"/><path fill="#fff" d="M18.405 7.078l.062.027-.002.826c0 .25-.434.896-1.271.516-.093-.042-.095-.152-.038-.228.049-.065.995-.913 1.249-1.141z"/><path fill="#CDAE5F" d="M17.39 7.997l.691-.627c.064.109.107.248.107.404 0 .341-.185.617-.414.617-.176 0-.324-.164-.384-.394z"/><path fill="#434C4B" d="M17.602 7.803l.264-.24c.049.048.087.117.087.21 0 .148-.08.268-.18.268-.091 0-.16-.106-.171-.238z"/></svg>