<svg xmlns="http://www.w3.org/2000/svg" width="32" height="32" viewBox="0 0 32 32"><path fill="#F7C845" d="M9.726 20.265c-.298-.444-.971.047-1.539.047-2.062 0-2.187-1.862-4.187-1.862-1.938 0-3 .8-3 2.55 0 1.508 1.688 2 3 2 2.188 0 3.564-.016 5.477-1.24.441-.282.593-.981.249-1.495z"/><path fill="#843822" d="M16 14v14c-5.5 0-9.5-2.688-9.5-5.781 0-5.031 3.875-8.219 9.5-8.219z"/><path fill="#FFEAA7" d="M16 15v5.5c-1.458 0-3.292-1-3.5-2.5-.287-2.064 1.67-3 3.5-3z"/><ellipse transform="matrix(.817 -.576 .576 .817 -8.186 8.385)" fill="#FFEAA7" cx="9.131" cy="17.103" rx="2.333" ry="1.325"/><ellipse transform="matrix(.817 -.576 .576 .817 -7.983 8.118)" fill="#373F3F" cx="8.811" cy="16.649" rx="1.361" ry=".478"/><path fill="#FFEAA7" d="M7 26c-1.636-1.869-2.224-3.714-1-4.938.812-.812 2.825-.49 4.461 1.378s2.975 4.517 1.476 5.559c-1.437 1.001-3.301-.13-4.937-1.999z"/><path fill="#373F3F" d="M6.627 23.726c-.368.501.064 1.609.964 2.475.9.866 1.927 1.162 2.295.661.368-.501-.064-1.609-.964-2.475-.9-.866-1.928-1.162-2.295-.661z"/><path fill="#FFD04D" d="M8.688 24.875c-.423-.423-1.005-.555-1.562-.25-3.017 1.653-3.016.375-4.626.375-1.515 0-2.5.891-2.5 2.375 0 1.685 1.812 2.625 3 2.625 2.536 0 4.083-1.535 5.917-3.292.422-.404.259-1.344-.229-1.833z"/><path fill="#373F3F" d="M16 15.417v3.208c-1.125 0-2.278-.419-2.458-1.458-.167-.959 1.22-1.75 2.458-1.75z"/><path fill="#FFD96C" d="M11.625 4.375c0 1.655.93 3.078 2.286 3.821.049.122.089.251.089.385v7.356c0 1.105.938 1.562 2 1.562v-17.499c-2.416 0-4.375 1.959-4.375 4.375z"/><ellipse fill="#373F3F" cx="14.333" cy="4.583" rx=".5" ry="1"/><path fill="#F0C13E" d="M22.274 20.265c.298-.444.971.047 1.539.047 2.062 0 2.188-1.862 4.188-1.862 1.938 0 3 .8 3 2.55 0 1.508-1.688 2-3 2-2.188 0-3.564-.016-5.477-1.24-.442-.282-.594-.981-.25-1.495z"/><path fill="#7D3119" d="M25.5 22.219c0 3.094-4 5.781-9.5 5.781v-14c5.625 0 9.5 3.188 9.5 8.219z"/><path fill="#FFE28A" d="M19.5 18c-.208 1.5-2.042 2.5-3.5 2.5v-5.5c1.83 0 3.787.936 3.5 3z"/><ellipse transform="matrix(.576 -.817 .817 .576 -4.286 25.94)" fill="#FFE28A" cx="22.869" cy="17.103" rx="1.325" ry="2.333"/><ellipse transform="matrix(.576 -.817 .817 .576 -3.78 26.009)" fill="#2B3332" cx="23.189" cy="16.649" rx=".478" ry="1.361"/><path fill="#FFE28A" d="M25 26c1.636-1.869 2.224-3.714 1-4.938-.812-.812-2.825-.49-4.461 1.378-1.636 1.869-2.975 4.517-1.476 5.559 1.437 1.001 3.301-.13 4.937-1.999z"/><path fill="#2B3332" d="M25.373 23.726c.368.501-.064 1.609-.964 2.475-.9.866-1.927 1.162-2.295.661-.368-.501.064-1.609.964-2.475.9-.866 1.928-1.162 2.295-.661z"/><path fill="#F7C845" d="M23.312 24.875c.423-.423 1.005-.555 1.562-.25 3.017 1.653 3.016.375 4.626.375 1.515 0 2.5.891 2.5 2.375 0 1.685-1.812 2.625-3 2.625-2.536 0-4.083-1.535-5.917-3.292-.422-.404-.259-1.344.229-1.833z"/><path fill="#2B3332" d="M18.458 17.167c-.181 1.039-1.333 1.458-2.458 1.458v-3.208c1.238 0 2.625.791 2.458 1.75z"/><path fill="#FFD04D" d="M20.375 4.375c0 1.655-.93 3.078-2.286 3.821-.049.122-.089.251-.089.385v7.356c0 1.105-.938 1.562-2 1.562v-17.499c2.416 0 4.375 1.959 4.375 4.375z"/><path fill="#2B3332" d="M17.667 3.583c.276 0 .5.448.5 1s-.224 1-.5 1-.5-.448-.5-1 .224-1 .5-1z"/></svg>