<svg xmlns="http://www.w3.org/2000/svg" width="32" height="32" viewBox="0 0 32 32"><path fill="#456F93" d="M9.216 30h-2.094v-2.75h2.094zM7.562 18.577l-2.103 1.767-.94-1.119 2.103-1.767z"/><path fill="#4D7495" d="M10.006 13.49v9.019c0 3.308 2.682 5.99 5.991 5.99v-21c-3.309.001-5.991 2.683-5.991 5.991zM10.006 13.49v9.019c0 3.308 2.682 5.99 5.991 5.99v-21c-3.309.001-5.991 2.683-5.991 5.991z"/><path fill="#3E688C" d="M15.996 18.75v9.75c-3.308 0-5.991-2.682-5.991-5.99v-5.229c3.776 0 2.683 1.469 5.991 1.469z"/><path fill="#396186" d="M10 14.938c-1.719 0-1.861 1.473-2.43 1.739-.758.354-1.57.385-1.57 1.323.875-.062 1.297.975.832 1.169.005.199.31.473.812.335.594-.164.573-.981 1.173-1.027.6-.046 2.684.198 2.684-1.602-.001-.969-.393-1.937-1.501-1.937zM2 23c-.092-.069-.954-.177-1-.5-.046-.323.969-.654 1.5-1s.25-1 .5-1.5c.633-1.266 2.469-1.468 3-.938.496.496.051 1.702-.5 2.438-.375.5-.5.562-.5 2.5 0 1.153-.32 1.91-.5 2-.084-.758-.802-1.604-1.771-1.604-.799 0-1.131.86-1.229 1.604-.301.014-1.5-.565-1.5-1 0-.562 2-1.156 2-2z"/><ellipse fill="#396186" cx="7.344" cy="30.375" rx="2.25" ry="1.625"/><path fill="#396186" d="M10.344 22.938c-.254 0-.6.155-.976.406-.351-.449-1.087-1.344-1.368-1.344-.531 0-.625 1.219-.5 2 .056.348.184.623.297.812-.902 1.11-1.487 2.435-.766 3.156.812.812 3.589-.165 4.763-1.828 1.125-1.593-.482-3.202-1.45-3.202z"/><path fill="#E3E5E5" d="M6.786 31.06c0-.565-.474-.935-1.071-.803-.61.135-1.903.833-1.903 1.427 0 .595 2.974.328 2.974-.624z"/><path fill="#456F93" d="M13.125 25.208c.45.45 2.042.73 2.871.73v-7.188c-1.699 0-2.238-.387-2.871-.764v7.222z"/><path fill="#396186" d="M13.125 27.767c.853.467 1.831.733 2.871.733v-2.562c-.83 0-2.422-.28-2.871-.73v2.559z"/><path fill="#3E688C" d="M16 3c-.417 0-2.708-3-3.5-3-1.292 0 0 2.25 0 3s-.5 1.042-.5 2c0 1.083 1.083-.5 2-.5.661 0 .822.966.828 1.199.027.98-.106 3.173-.211 4.694-.344.181-.667.413-.935.686-.956-.62-2.016-1.957-2.515-2.845.202-.183.333-.441.333-.734 0-.552-.448-1-1-1s-1 .448-1 1c0 .538.427.969.959.992.541 1.047 1.666 2.443 2.784 3.177-.147.264-.243.543-.243.831 0 1.316-.125 3.25 1 3.25.958 0 .958-.5 2-.5l-.002-3.25h.002v-9z"/><ellipse transform="matrix(.99 -.143 .143 .99 -1.863 2.03)" fill="#FFEAA7" cx="13.154" cy="13.941" rx="1.072" ry="1.463"/><ellipse transform="matrix(.99 -.143 .143 .99 -1.863 2.03)" fill="#373F3F" cx="13.154" cy="13.941" rx=".636" ry=".867"/><circle fill="#456F93" cx="2.75" cy="26" r="1.75"/><path fill="#E3E5E5" d="M3.735 25.708c-.438 0-.694.376-.623.831.075.478.426 1.461.888 1.461s.474-2.292-.265-2.292zM2.028 26.1c-.462 0-.488.565-.438 1.015.056.51.472 1.385.91 1.385s.474-2.4-.472-2.4z"/><path fill="#3E688C" d="M22.784 27.25h2.094v2.75h-2.094zM25.377 17.459l2.103 1.767-.94 1.119-2.103-1.767z"/><path fill="#456F93" d="M21.994 13.49v9.019c0 3.308-2.682 5.99-5.991 5.99v-21c3.309.001 5.991 2.683 5.991 5.991zM21.994 13.49v9.019c0 3.308-2.682 5.99-5.991 5.99v-21c3.309.001 5.991 2.683 5.991 5.991z"/><path fill="#396186" d="M21.994 17.281v5.229c0 3.308-2.682 5.99-5.991 5.99v-9.75c3.309 0 2.216-1.469 5.991-1.469zM21.994 17.281v5.229c0 3.308-2.682 5.99-5.991 5.99v-9.75c3.309 0 2.216-1.469 5.991-1.469z"/><path fill="#365C84" d="M22 14.938c1.719 0 1.861 1.473 2.43 1.739.758.354 1.57.385 1.57 1.323-.875-.062-1.297.975-.832 1.169-.005.199-.31.473-.812.335-.594-.164-.573-.981-1.173-1.027-.6-.046-2.684.198-2.684-1.602.001-.969.393-1.937 1.501-1.937zM30 23c.092-.069.954-.177 1-.5.046-.323-.969-.654-1.5-1s-.25-1-.5-1.5c-.633-1.266-2.469-1.468-3-.938-.496.496-.051 1.702.5 2.438.375.5.5.562.5 2.5 0 1.153.32 1.91.5 2 .084-.758.802-1.604 1.771-1.604.799 0 1.131.86 1.229 1.604.301.014 1.5-.565 1.5-1 0-.562-2-1.156-2-2z"/><ellipse fill="#365C84" cx="24.656" cy="30.375" rx="2.25" ry="1.625"/><path fill="#365C84" d="M24.203 24.812c.113-.189.241-.464.297-.812.125-.781.031-2-.5-2-.281 0-1.017.895-1.368 1.343-.376-.251-.722-.406-.976-.406-.969 0-2.576 1.609-1.451 3.203 1.174 1.663 3.951 2.641 4.763 1.828.722-.721.137-2.046-.765-3.156z"/><path fill="#DADDDC" d="M25.214 31.06c0-.565.474-.935 1.071-.803.61.135 1.903.833 1.903 1.427 0 .595-2.974.328-2.974-.624z"/><path fill="#3E688C" d="M18.875 25.208c-.45.45-2.042.73-2.871.73v-7.188c1.699 0 2.238-.387 2.871-.764v7.222z"/><path fill="#365C84" d="M18.875 27.767c-.853.467-1.831.733-2.871.733v-2.562c.83 0 2.422-.28 2.871-.73v2.559z"/><path fill="#396186" d="M22.5 7.5c0-.552-.448-1-1-1s-1 .448-1 1c0 .293.131.551.333.734-.499.888-1.559 2.226-2.515 2.845-.268-.273-.591-.505-.935-.686-.105-1.522-.238-3.715-.211-4.694.006-.233.167-1.199.828-1.199.917 0 2 1.583 2 .5 0-.958-.5-1.25-.5-2s1.292-3 0-3c-.792 0-3.083 3-3.5 3v9h.002l-.002 3.25c1.042 0 1.042.5 2 .5 1.125 0 1-1.934 1-3.25 0-.288-.096-.567-.242-.832 1.118-.734 2.243-2.13 2.784-3.177.531-.022.958-.453.958-.991z"/><ellipse transform="matrix(.143 -.99 .99 .143 2.347 30.593)" fill="#FFE28A" cx="18.846" cy="13.941" rx="1.463" ry="1.072"/><ellipse transform="matrix(.143 -.99 .99 .143 2.347 30.593)" fill="#2B3332" cx="18.846" cy="13.941" rx=".867" ry=".636"/><circle fill="#3E688C" cx="29.25" cy="26" r="1.75"/><path fill="#DADDDC" d="M28.265 25.708c.438 0 .694.376.623.831-.075.478-.426 1.461-.888 1.461s-.474-2.292.265-2.292zM29.972 26.1c.462 0 .488.565.438 1.015-.057.51-.472 1.385-.911 1.385s-.473-2.4.473-2.4z"/></svg>