<svg xmlns="http://www.w3.org/2000/svg" width="32" height="32" viewBox="0 0 32 32"><path fill="#3B8FA3" d="M16.563 14.679c.596-.325 4.146-1.618 5.701-1.877 3-.5 5.342-2.066 5.868-2.092.553-.028 1.263.25 1.895.368.725.136 1.347.132 1.5.316.263.316.03.889.105 1.368.079.5.368.895.368 1.263 0 .316-.447.395-.763.789-.353.441-.289.974-.526 1-.157.017-1.526-1.816-1.868-1.816-.581 0-4.342.539-6.526 1.092s-4.684 1.579-5.026 1.789c-.343.212-.728-2.2-.728-2.2z"/><path fill="#E3E5E5" d="M30.026 11.079c.725.136 1.347.132 1.5.316.263.316.03.889.105 1.368.079.5.368.895.368 1.263 0 .316-.447.395-.763.789-.353.441-.289.974-.526 1-.157.017-1.526-1.816-1.868-1.816-.264 0-1.183.112-2.311.284l1.574-1.362-2.303-.221c-.113-.012-.155-.155-.066-.226l2.166-1.7.23-.063c.553-.028 1.263.249 1.894.368z"/><path fill="#D1D4D4" d="M31.526 11.394c.263.316.03.889.105 1.368.079.5.368.895.368 1.263 0 .316-.447.395-.763.789-.353.441-.289.974-.526 1-.148.016-1.369-1.601-1.793-1.781l2.458-2.722.151.083z"/><g fill="#47A1B4"><path d="M15.437 14.679c-.596-.325-4.146-1.618-5.701-1.877-3-.5-5.342-2.066-5.868-2.092-.553-.028-1.263.25-1.895.368-.725.136-1.347.132-1.5.316-.263.316-.03.889-.105 1.368-.079.501-.368.895-.368 1.264 0 .316.447.395.763.789.353.441.289.974.526 1 .157.017 1.526-1.816 1.868-1.816.581 0 4.342.539 6.526 1.092s4.684 1.579 5.026 1.789c.343.211.728-2.201.728-2.201zM1.974 11.079c-.725.136-1.347.132-1.5.316-.263.316-.03.889-.105 1.368-.08.5-.369.894-.369 1.263 0 .316.447.395.763.789.353.441.289.974.526 1 .157.017 1.526-1.816 1.868-1.816.264 0 1.183.112 2.311.284l-1.574-1.362 2.304-.221c.113-.012.155-.155.066-.226l-2.166-1.7-.23-.063c-.553-.028-1.263.249-1.894.368zM.624 11.312l2.458 2.722c-.423.18-1.644 1.798-1.793 1.781-.237-.026-.173-.559-.526-1-.316-.395-.763-.473-.763-.789 0-.368.289-.763.368-1.263.076-.479-.158-1.053.105-1.368l.151-.083z"/></g><path fill="#4295AC" d="M15.437 14.679c-.596-.325-4.146-1.618-5.701-1.877-3-.5-5.342-2.066-5.868-2.092-.553-.028-1.263.25-1.895.368-.725.136-1.347.132-1.5.316-.263.316-.03.889-.105 1.368-.079.501-.368.895-.368 1.264 0 .316.447.395.763.789.353.441.289.974.526 1 .157.017 1.526-1.816 1.868-1.816.581 0 4.342.539 6.526 1.092s4.684 1.579 5.026 1.789c.343.211.728-2.201.728-2.201z"/><path fill="#E3E5E5" d="M1.974 11.079c-.725.136-1.347.132-1.5.316-.263.316-.03.889-.105 1.368-.08.5-.369.894-.369 1.263 0 .316.447.395.763.789.353.441.289.974.526 1 .157.017 1.526-1.816 1.868-1.816.264 0 1.183.112 2.311.284l-1.574-1.362 2.304-.221c.113-.012.155-.155.066-.226l-2.166-1.7-.23-.063c-.553-.028-1.263.249-1.894.368z"/><path fill="#D1D4D4" d="M.624 11.312l2.458 2.722c-.423.18-1.644 1.798-1.793 1.781-.237-.026-.173-.559-.526-1-.316-.395-.763-.473-.763-.789 0-.368.289-.763.368-1.263.076-.479-.158-1.053.105-1.368l.151-.083z"/><path fill="#4295AC" d="M15.25 24.039h-3s.042 4.618.5 5.972c-1.188.146-1.833-.521-2.75-.521-1.042 0-1.583 2.5-.042 2.5 1.792 0 5.542.125 5.542-.542 0-.917-.5-2.188-.5-3.958 0-1.809.25-3.451.25-3.451z"/><path fill="#E3E5E5" d="M9.618 29.741c-.311-.064-1.857-.101-2.92 1.122-.059.068-.025.179.062.201 1.199.314 2.843.226 3.358-.032.208-.104.312-1.125-.5-1.291z"/><path fill="#EDEEEE" d="M10.074 30.782c-.323-.066-1.104-.083-1.988.208-.328.108-.777.463-.948.797-.043.084.012.184.107.185 1.215.02 2.832.038 3.33.018.103-.145.311-1.041-.501-1.208z"/><path fill="#3B8FA3" d="M16.76 24.039h3s-.042 4.618-.5 5.972c1.188.146 1.833-.521 2.75-.521 1.042 0 1.583 2.5.042 2.5-1.792 0-5.542.125-5.542-.542 0-.917.5-2.188.5-3.958 0-1.809-.25-3.451-.25-3.451z"/><path fill="#DADDDC" d="M22.393 29.741c.311-.064 1.857-.101 2.92 1.122.059.068.025.179-.062.201-1.199.314-2.843.226-3.358-.032-.209-.104-.313-1.125.5-1.291z"/><path fill="#E3E5E5" d="M21.937 30.782c.323-.066 1.104-.083 1.988.208.328.108.777.463.948.797.043.084-.012.184-.107.185-1.215.02-2.832.038-3.33.018-.104-.145-.312-1.041.501-1.208z"/><path fill="#E7685F" d="M23.083 19.833c1.736-.2 4.752.56 5.891.802.143.03.16.224.025.282-1.017.432-3.269 1.282-4.917 1.708-2.083.538-3.925-.708-5.047-1.313.001 0 1.88-1.228 4.048-1.479zm-4.715 2.851c.761 1.023 1.904 2.931 4.019 3.323 1.674.311 4.073.491 5.178.53.147.005.213-.178.096-.266-.931-.7-3.343-2.664-5.001-3.216-2.07-.691-4.292-.371-4.292-.371zm-.888-2.5c1.273.075 3.469.425 5.129-.943 1.314-1.083 2.995-2.805 3.734-3.626.098-.109.001-.278-.142-.245-1.135.263-4.19.848-5.678 1.763-1.86 1.144-3.043 3.051-3.043 3.051z"/><path fill="#47A1B4" d="M13.667 13.292c-.708 1-2.333 3.417-2.667 7.708s3.458 4.5 5 4.5v-12.208s-2.282-.072-2.333 0zM10.577 7.521c-.415-1.499-.447-3.941-.442-4.904.001-.199.198-.331.382-.255.991.408 3.623 1.522 4.047 1.993.502.559-2.537 3.609-3.792 3.364-.098-.019-.168-.102-.195-.198z"/><path fill="#4CAEBC" d="M10.5 7.929c-.373 2.014-.52 3.818.879 5.217.889.889 3.466 1.644 4.326 1.909.101.031.203.044.305.043v-11.371c-2.26 0-5.01 1.5-5.51 4.202z"/><path fill="#4295AC" d="M18.344 13.292c.708 1 2.333 3.417 2.667 7.708.333 4.292-3.469 4.5-5.01 4.5v-12.208c-.001 0 2.291-.072 2.343 0z"/><path fill="#47A1B4" d="M21.51 7.929c.373 2.014.52 3.818-.879 5.217-.889.889-3.466 1.644-4.326 1.909-.101.031-.203.044-.305.043v-11.371c2.26 0 5.01 1.5 5.51 4.202z"/><path fill="#E55D53" d="M18.059 7.035c0-1.375 1.123-3.641 2.941-4.994 1.792-1.333 5.477-1.968 6.736-2.041.178-.01.311.165.248.332-.626 1.676-1.942 3.626-2.984 4.668-1.12 1.12-4.316 2.869-6.941 2.035z"/><path fill="#E7685F" d="M18.61 7.169c2.506.459 5.347-1.126 6.39-2.169.91-.91 2.029-2.513 2.715-4.021-1.533.169-4.667.802-6.277 2-1.499 1.115-3.501 3.771-2.828 4.19z"/><path fill="#47A1B4" d="M16.375 5.848l2.589-.419c.101-.016.178.089.131.181l-.595 1.155 1.581-.463c.069-.02.141.022.157.092l.429 1.871-3.417-.5-.875-1.917z"/><path fill="#E7685F" d="M16.017 12.5c-.109 0-.297.25-.813.25-.211 0-.449-.113-.583-.188-.045-.025-.1.011-.093.062.048.344.289 1.282 1.488 1.282v-1.406z"/><path fill="#E55D53" d="M16 12.5c.109 0 .297.25.812.25.211 0 .449-.113.583-.188.045-.025.1.011.093.062-.048.344-.289 1.282-1.488 1.282v-1.406z"/><path fill="#0E616D" d="M10.371 8.231c-.047-.066.01-.155.089-.138.403.087.919.228 1.325.431.486.243-.286 1.937-.841 2.105-.451-.109-1.196-.392-1.599-.551-.082-.032-.07-.152.017-.168l1.074-.208-.773-.758c-.061-.06-.01-.163.075-.15l1.163.179-.53-.742z"/><path fill="#fff" d="M14.018 11.292c.21.021.353-.205.239-.383-.576-.897-1.741-2.111-2.648-2.464-1.06-.412-1.783 1.68-1.236 2.002.613.36 2.417.721 3.645.845z"/><path fill="#D1473D" d="M13.27 11.196c-.517-.077-1.064-.178-1.556-.296-.136-.204-.232-.442-.232-.713 0-.631.439-1.13 1-1.213.459.357.914.821 1.287 1.278-.019.398-.214.731-.499.944z"/><ellipse fill="#373F3F" cx="12.605" cy="10.242" rx=".329" ry=".657"/><path fill="#005865" d="M21.629 8.231c.047-.066-.01-.155-.089-.138-.403.087-.919.228-1.325.431-.486.243.286 1.937.841 2.105.451-.109 1.196-.392 1.599-.551.082-.032.07-.152-.017-.168l-1.074-.208.775-.757c.061-.06.01-.163-.075-.15l-1.163.179.528-.743z"/><path fill="#F7F7F7" d="M17.982 11.292c-.21.021-.353-.205-.239-.383.576-.897 1.741-2.111 2.648-2.464 1.06-.412 1.783 1.68 1.236 2.002-.613.36-2.417.721-3.645.845z"/><path fill="#CF3C35" d="M18.23 10.252c.374-.457.828-.921 1.287-1.278.561.083 1 .583 1 1.213 0 .271-.097.508-.232.713-.492.118-1.039.219-1.556.296-.284-.213-.479-.546-.499-.944z"/><ellipse fill="#2B3332" cx="19.395" cy="10.242" rx=".329" ry=".657"/><path fill="#FFD96C" d="M16 6.958v3.125c-.535 0-.969-.7-.969-1.562 0-.863.434-1.563.969-1.563z"/><path fill="#FFD04D" d="M16 6.958v3.125c.535 0 .969-.7.969-1.562 0-.863-.434-1.563-.969-1.563z"/><path fill="#FFD96C" d="M15.25 17.729c0 .69.336 1.25.75 1.25v-2.5c-.414 0-.75.56-.75 1.25z"/><path fill="#FFD04D" d="M16.75 17.729c0 .69-.336 1.25-.75 1.25v-2.5c.414 0 .75.56.75 1.25z"/></svg>