<svg xmlns="http://www.w3.org/2000/svg" width="32" height="32" viewBox="0 0 32 32"><path fill="#C8CCCB" d="M23.808 30.425l-1.289-.411c-.182-.089-.412.017-.414.191l-.009.795c-.001.065.037.116.087.157l-.157.536c-.049.167.14.335.341.303l1.352-.018c.2-.032.261-.24.11-.375l-.833-.549.807-.239c.184-.084.187-.301.005-.39z"/><ellipse transform="matrix(.383 -.924 .924 .383 -15.074 37.928)" fill="#DD7731" cx="20.845" cy="30.244" rx="1.561" ry="2.618"/><path fill="#DD7731" d="M18.883 17.109c.847.226 4.81 2.876 6.448 4.817 1.203 1.425-.376 2.559-1.709 2.549-3.207-.025-6.997-6.764-6.997-6.764l2.258-.602z"/><path fill="#EF8C48" d="M16 16.582c3.707 0 6.711 5.242 6.711 8.948s-3.004 4.475-6.711 4.475v-13.423zM24 11.835c0 3.774-3.72 6.833-8 6.833v-14.667c4.833-.083 8 4.06 8 7.834z"/><path fill="#FFD04D" d="M21.404 16.83c-1.444 1.14-3.36 1.838-5.404 1.838v-6.876c5.5 0 6.985 3.791 5.404 5.038z"/><path fill="#C8CCCB" d="M24.556 25.048l-.622-.494c-.107-.059-.109-.211-.005-.274l.478-.287c.104-.063.238.011.24.133l.145.782c.001.121-.13.199-.236.14zm1.949-2.377l-.743-.283c-.105-.061-.237.014-.238.136l-.003.557c-.001.122.131.199.237.138l.746-.275c.105-.059.106-.211.001-.273zm-.514 1.575l-.329-.723c-.032-.118-.179-.157-.265-.071l-.394.394c-.086.086-.047.233.071.265l.723.329c.118.031.226-.077.194-.194z"/><ellipse fill="#EF8C48" cx="23.417" cy="4.083" rx="3.917" ry="4.083"/><ellipse fill="#2B3332" cx="23.445" cy="5.292" rx="1.972" ry="2.083"/><path fill="#E8803A" d="M22.711 25.531c0 3.707-3.005 4.474-6.711 4.474v-2.225s4.494.218 6.711-2.249z"/><path fill="#D1D4D4" d="M9.821 31.157c.05-.04.087-.092.087-.157l-.008-.794c-.002-.174-.232-.28-.414-.191l-1.289.411c-.182.089-.18.306.004.39l.807.239-.833.549c-.151.135-.09.343.11.375l1.352.018c.2.032.389-.137.341-.303l-.157-.537z"/><ellipse transform="matrix(.924 -.383 .383 .924 -10.724 6.573)" fill="#E8803A" cx="11.159" cy="30.244" rx="2.618" ry="1.561"/><path fill="#EF8C48" d="M13.117 17.109c-.847.226-4.81 2.876-6.448 4.817-1.203 1.425.376 2.559 1.709 2.549 3.207-.025 6.997-6.764 6.997-6.764l-2.258-.602z"/><path fill="#F79654" d="M16 16.582c-3.707 0-6.711 5.242-6.711 8.948s3.005 4.474 6.711 4.474v-13.422z"/><path fill="#E89755" d="M8 11.835c0 3.774 3.72 6.833 8 6.833v-14.667c-4.833-.083-8 4.06-8 7.834z"/><path fill="#F79654" d="M16 4.001v14.667c-4.28 0-8-3.059-8-6.833s3.167-7.917 8-7.834z"/><path fill="#FFD96C" d="M16 11.792v6.876c-2.044 0-3.96-.698-5.404-1.838-1.581-1.247-.096-5.038 5.404-5.038z"/><path fill="#D1D4D4" d="M7.209 24.907l.145-.782c.002-.122.135-.196.24-.133l.478.287c.104.063.102.215-.005.274l-.622.494c-.107.06-.238-.018-.236-.14zm-1.712-1.962l.746.275c.106.06.237-.016.237-.138l-.003-.557c-.001-.122-.133-.197-.238-.136l-.743.283c-.106.061-.105.213.001.273zm.706 1.495l.723-.329c.118-.032.157-.179.071-.265l-.394-.394c-.086-.086-.233-.047-.265.071l-.329.723c-.032.117.076.225.194.194z"/><path fill="#FFF5D8" d="M16 11.221c-.679-.485-1.11-1.297-1.059-2.206.044-.779.46-1.458 1.059-1.892v-1.889l-.224.001c-1.871.132-3.419 1.612-3.626 3.475-.262 2.355 1.557 4.346 3.85 4.382v-1.871z"/><path fill="#FEF1C6" d="M19.874 10.134c-.432 1.704-1.973 2.965-3.811 2.965l-.062-.007v-1.87c.414.296.92.471 1.468.471 1.062 0 1.946-.655 2.332-1.583.018-.045.084-.023.073.024zm-.808-2.934c.195.16.416.001.277-.21-.714-1.079-1.947-1.777-3.343-1.756v1.889c.433-.314.959-.504 1.522-.492.589.012 1.123.222 1.544.569z"/><ellipse fill="#373F3F" cx="12.333" cy="11.417" rx="1.25" ry="1.458"/><ellipse fill="#fff" cx="12.333" cy="10.9" rx=".679" ry=".792"/><path fill="#373F3F" d="M16 12.625v1.042c-.736 0-1.333-.233-1.333-.521s.597-.521 1.333-.521z"/><ellipse fill="#F79654" cx="8.708" cy="4.083" rx="3.917" ry="4.083"/><path fill="#373F3F" d="M8.555 7.375c-1.089 0-1.972-.933-1.972-2.083s.883-2.083 1.972-2.083 1.972.933 1.972 2.083-.883 2.083-1.972 2.083z"/><path fill="#EF8C48" d="M9.289 25.531c0 3.707 3.005 4.474 6.711 4.474v-2.225s-4.494.218-6.711-2.249z"/><ellipse fill="#2B3332" cx="19.667" cy="11.417" rx="1.25" ry="1.458"/><ellipse fill="#F7F7F7" cx="19.667" cy="10.9" rx=".679" ry=".792"/><path fill="#2B3332" d="M17.333 13.146c0 .288-.597.521-1.333.521v-1.042c.736 0 1.333.233 1.333.521z"/></svg>