<svg xmlns="http://www.w3.org/2000/svg" width="32" height="32" viewBox="0 0 32 32"><path fill="#7D8091" d="M16 0v28c-2.667 0-8.495-.17-10.917-5.083-2.916-5.917-3-15.584 1.667-19.917 2.133-1.981 4.75-2.833 9.25-3z"/><path fill="#6673AA" d="M16 0v28c-2.667 0-8.495-.17-10.917-5.083-2.916-5.917-3-15.584 1.667-19.917 2.133-1.981 4.75-2.833 9.25-3z"/><path fill="#515E91" d="M5.083 22.917c.355.72.79 1.328 1.271 1.859.481-.531.916-1.139 1.271-1.859 2.829-5.738 2.979-14.989-1.271-19.495-4.249 4.506-4.099 13.757-1.271 19.495z"/><path fill="#495587" d="M3.742 19.181c.099-.147.193-.301.277-.471 1.421-2.882 1.543-7.453-.418-9.898-.811 3.264-.695 7.041.141 10.369z"/><path fill="#5C699E" d="M16 0v28c2.667 0 8.495-.17 10.917-5.083 2.916-5.917 3-15.584-1.667-19.917-2.133-1.981-4.75-2.833-9.25-3z"/><path fill="#495587" d="M26.917 22.917c-.355.72-.79 1.328-1.271 1.859-.481-.531-.916-1.139-1.271-1.859-2.829-5.738-2.979-14.989 1.271-19.495 4.249 4.506 4.099 13.757 1.271 19.495z"/><path fill="#D1473D" d="M10.458 16.625c2.792 2.5 1.521 7.802-1.708 8.094 4 3 6.562 2.594 7.25 2.594v-10.688h-5.542zM16 32c-2.438 0-2.5-2.188-4-2.25s-1.25 1.25-4 1.25c-2.25 0-1.339-2-3-2-1.75 0-4.125 1.312-4-.375.232-3.136 9.125-4.5 15-4.5v7.875z"/><ellipse transform="matrix(.985 -.173 .173 .985 -4.414 1.439)" fill="#C23734" cx="6.026" cy="25.981" rx="2.287" ry="1.434"/><ellipse fill="#C23734" cx="11.562" cy="25.875" rx="1.5" ry=".94"/><path fill="#CF3C35" d="M21.542 16.625c-2.792 2.5-1.521 7.802 1.708 8.094-4 3-6.563 2.594-7.25 2.594v-10.688h5.542zM16 32c2.438 0 2.5-2.188 4-2.25s1.25 1.25 4 1.25c2.25 0 1.339-2 3-2 1.75 0 4.125 1.312 4-.375-.232-3.136-9.125-4.5-15-4.5v7.875z"/><ellipse transform="matrix(.173 -.985 .985 .173 -4.118 47.056)" fill="#A92F31" cx="25.974" cy="25.981" rx="1.434" ry="2.287"/><path fill="#C23734" d="M16 26.312v3.75c-1.381 0-2.5-.839-2.5-1.875s1.119-1.875 2.5-1.875z"/><ellipse fill="#A92F31" cx="20.438" cy="25.875" rx="1.5" ry=".94"/><path fill="#A92F31" d="M18.5 28.188c0 1.036-1.119 1.875-2.5 1.875v-3.75c1.381-.001 2.5.839 2.5 1.875z"/><path fill="#D64F45" d="M19.207 4.485c1.496 0 2.536 1.925 2.708 4.286.208 2.854 1.396 3.053 1.396 4.354 0 3.314-3.274 6-7.312 6v-12.75c1.312 0 1.812-1.89 3.208-1.89z"/><path fill="#D1473D" d="M23.311 13.125c0 3.314-3.274 6-7.312 6v-4c3.249 0 3.312-2 7.312-2z"/><path fill="#E55D53" d="M12.79 4.485c-1.496 0-2.536 1.925-2.708 4.286-.208 2.854-1.396 3.053-1.396 4.354 0 3.314 3.274 6 7.313 6v-12.75c-1.313 0-1.813-1.89-3.209-1.89z"/><path fill="#D64F45" d="M8.686 13.125c0 3.314 3.274 6 7.313 6v-4c-3.251 0-3.313-2-7.313-2z"/><path fill="#FEF1C6" d="M14.665 8.521c0 1.639-1.056 2.967-1.875 2.967-1.12 0-1.875-1.328-1.875-2.967s.839-2.967 1.875-2.967 1.875 1.328 1.875 2.967z"/><path fill="#373F3F" d="M13.106 8.625c0 .276-.178.5-.316.5-.189 0-.316-.224-.316-.5s.141-.5.316-.5.316.224.316.5z"/><path fill="#E7685F" d="M15.998 9.562v6.875c-2.875 0-4.688-1.483-4.688-3.312.001-1.829 2.001-3.563 4.688-3.563z"/><path fill="#E55D53" d="M10.266 16.019c0-.379-.205-3.144.467-3.953h-1.079l-.656-.003c-.687.937-.021 2.562.045 3.956-.602.41-1.295.982-1.295 1.867 0 1.396.885 1.974 1.906 1.974s1.906-.579 1.906-1.974c.001-.884-.692-1.456-1.294-1.867z"/><path fill="#E7685F" d="M12.579 17.144c0-.379-.033-3.272-.033-3.953h-1.158c0 .682-.033 3.574-.033 3.953-.602.41-1.295.982-1.295 1.867 0 1.396.885 1.974 1.906 1.974s1.906-.579 1.906-1.974c.001-.884-.691-1.456-1.293-1.867z"/><path fill="#FFEAA7" d="M17.332 8.521c0 1.639 1.056 2.967 1.875 2.967 1.12 0 1.875-1.328 1.875-2.967s-.839-2.967-1.875-2.967-1.875 1.328-1.875 2.967z"/><path fill="#2B3332" d="M18.891 8.625c0 .276.178.5.316.5.189 0 .316-.224.316-.5s-.141-.5-.316-.5c-.175 0-.316.224-.316.5z"/><path fill="#E55D53" d="M20.686 13.125c0 1.829-1.812 3.312-4.688 3.312v-6.875c2.688 0 4.688 1.734 4.688 3.563z"/><path fill="#D64F45" d="M24.252 17.887c0-.885-.692-1.457-1.295-1.867.066-1.394.732-3.019.045-3.957l-.656.003h-1.078c.672.809.467 3.574.467 3.953-.602.41-1.295.982-1.295 1.867 0 1.396.885 1.974 1.906 1.974 1.021.001 1.906-.578 1.906-1.973z"/><path fill="#E55D53" d="M20.641 17.144c0-.379-.033-3.272-.033-3.953h-1.158c0 .682-.033 3.574-.033 3.953-.602.41-1.295.982-1.295 1.867 0 1.396.885 1.974 1.906 1.974s1.906-.579 1.906-1.974c.002-.884-.691-1.456-1.293-1.867z"/><path fill="#424B7E" d="M28.305 19.181c-.099-.147-.193-.301-.277-.471-1.421-2.882-1.543-7.453.418-9.898.811 3.264.695 7.041-.141 10.369z"/></svg>