<svg xmlns="http://www.w3.org/2000/svg" width="32" height="32" viewBox="0 0 32 32"><path fill="#CDA073" d="M16 2c-8.837 0-16 4.716-16 13 0 9.858 7.775 10.97 11.827 15.789.094.112.262.122.365.018l.808-.807.823.823c.098.098.256.098.354 0l.823-.823.823.823c.049.049.113.073.177.073v-28.896z"/><path fill="#C09265" d="M16 2c8.837 0 16 4.716 16 13 0 9.858-7.775 10.97-11.827 15.789-.094.112-.262.122-.365.018l-.808-.807-.823.823c-.098.098-.256.098-.354 0l-.823-.823-.823.823c-.049.049-.113.073-.177.073v-28.896z"/><path fill="#373F3F" d="M6.562 15.069c-.504 0-.854-.072-.865-.075-.135-.029-.221-.162-.191-.297s.165-.219.297-.191c.116.023 2.878.584 3.711-1.837.044-.131.192-.202.317-.155.131.045.2.188.155.317-.661 1.923-2.374 2.238-3.424 2.238z"/><path fill="#2B3332" d="M25.437 15.069c-1.05 0-2.763-.315-3.424-2.238-.045-.13.024-.272.155-.317.127-.048.272.024.317.155.833 2.422 3.595 1.861 3.711 1.837.133-.027.268.057.297.191s-.057.268-.191.297c-.01.003-.362.075-.865.075z"/><path fill="#FAB8CD" d="M16 15c-2.761 0-4.5 1.067-4.5 3s1.739 3 4.5 3v-6z"/><path fill="#F9ADC8" d="M20.5 18c0-1.933-1.739-3-4.5-3v6c2.761 0 4.5-1.067 4.5-3z"/><path fill="#9A3644" d="M14.25 19c-.138 0-.25-.112-.25-.25v-1.5c0-.138.112-.25.25-.25s.25.112.25.25v1.5c0 .138-.112.25-.25.25z"/><path fill="#8A323F" d="M17.75 19c-.138 0-.25-.112-.25-.25v-1.5c0-.138.112-.25.25-.25s.25.112.25.25v1.5c0 .138-.112.25-.25.25z"/><path fill="#604631" d="M15.526 9.577c.076.228.275.342.474.342v-7.919c-1.005 0-1.984.069-2.937.189l2.463 7.388zM1.813 8.518l3.879 1.108c.447.128.811-.371.553-.758l-2.042-3.063c-.935.79-1.744 1.693-2.39 2.713zM3.577 12.526l-3.085-1.028c-.281.986-.446 2.039-.473 3.163l3.558-1.186c.456-.153.456-.797 0-.949zM3.793 17h-3.664c.181 1.467.557 2.713 1.081 3.79l2.936-2.936c.315-.315.092-.854-.353-.854z"/><path fill="#4F4032" d="M16.474 9.577l2.463-7.388c-.953-.12-1.932-.189-2.937-.189v7.919c.199 0 .398-.114.474-.342zM27.797 5.805l-2.042 3.064c-.258.387.106.886.553.758l3.879-1.108c-.646-1.021-1.455-1.924-2.39-2.714zM31.508 11.497l-3.085 1.028c-.456.152-.456.797 0 .949l3.558 1.186c-.027-1.124-.192-2.177-.473-3.163zM31.871 17h-3.664c-.445 0-.669.539-.354.854l2.936 2.936c.525-1.077.901-2.323 1.082-3.79z"/><path fill="#C09265" d="M1.323 21.024c2.394 4.635 7.483 6.171 10.505 9.765.094.112.262.122.365.018l.807-.807.823.823c.098.098.256.098.354 0l.823-.823.823.823c.049.049.113.073.177.073v-4.396c-5.912 0-11.193-2.133-14.677-5.476z"/><path fill="#B38658" d="M16 26.5v4.396c.064 0 .128-.024.177-.073l.823-.823.823.823c.098.098.256.098.354 0l.823-.823.808.808c.104.104.271.094.365-.018 3.022-3.594 8.111-5.13 10.505-9.765-3.485 3.342-8.766 5.475-14.678 5.475z"/></svg>