<svg xmlns="http://www.w3.org/2000/svg" width="32" height="32" viewBox="0 0 32 32"><path fill="#B38658" d="M16 18l-10 3v5.789c0 .79-.234 1.562-.672 2.219l-.806 1.209c-.142.213.091.477.32.362l1.158-.579.823.823c.098.098.256.098.354 0l.823-.823.823.823c.098.098.256.098.354 0l.823-.823h1l.823.823c.098.098.256.098.354 0l.823-.823.823.823c.098.098.256.098.354 0l.823-.823.823.823c.049.049.113.073.177.073v-12.896z"/><path fill="#A7794C" d="M16.177 30.823l.823-.823.823.823c.098.098.256.098.354 0l.823-.823.823.823c.098.098.256.098.354 0l.823-.823h1l.823.823c.098.098.256.098.354 0l.823-.823.823.823c.098.098.256.098.354 0l.823-.823 1.158.579c.229.115.462-.149.32-.362l-.807-1.21c-.437-.657-.671-1.428-.671-2.217v-5.79l-10-3v12.896c.064 0 .128-.024.177-.073z"/><path fill="#B38658" d="M16 0c-5.523 0-10 4.477-10 10v8h10v-18z"/><path fill="#A7794C" d="M26 18v-8c0-5.523-4.477-10-10-10v18h10z"/><path fill="#CDA073" d="M7.084 11.763c-.117.852-.446 1.664-.957 2.357-1.75 2.376-5.202 7.83-1.327 9.38 1.729.692 2.735-.299 3.318-1.881l.704.704c.098.098.256.098.354 0l.824-.823.823.823c.098.098.256.098.354 0l.823-.823.823.823c.098.098.256.098.354 0l2.823-2.823v-15.5c-4.551 0-8.313 3.378-8.916 7.763z"/><path fill="#EDEEEE" d="M20.123 25.71c-.056-.381.092-.762.405-.986.384-.275.94-.584 1.496-.584.601 0 1.203.362 1.586.65.269.202.415.53.386.865-.123 1.446-.801 5.493-4.523 6.331-.461.104-.791-.425-.508-.803.732-.974 1.559-2.735 1.158-5.473z"/><path fill="#F7F7F7" d="M11.877 25.71c.056-.381-.092-.762-.405-.986-.384-.275-.94-.584-1.496-.584-.601 0-1.203.362-1.586.65-.269.202-.415.53-.386.865.123 1.446.801 5.493 4.523 6.331.461.104.791-.425.508-.803-.732-.974-1.559-2.735-1.158-5.473z"/><path fill="#C09265" d="M24.916 11.763c.117.852.446 1.664.957 2.357 1.75 2.376 5.202 7.83 1.327 9.38-1.729.692-2.735-.299-3.318-1.881l-.704.704c-.098.098-.256.098-.354 0l-.824-.823-.823.823c-.098.098-.256.098-.354 0l-.823-.823-.823.823c-.098.098-.256.098-.354 0l-2.823-2.823v-15.5c4.551 0 8.313 3.378 8.916 7.763z"/><path fill="#FAB8CD" d="M16 25c-1.381 0-2.5.619-2.5 2s1.119 2 2.5 2v-4z"/><path fill="#F9ADC8" d="M18.5 27c0-1.381-1.119-2-2.5-2v4c1.381 0 2.5-.619 2.5-2z"/><path fill="#9A3644" d="M14.5 27.75l-.061-.008c-.134-.033-.216-.169-.182-.303l.25-1c.033-.133.165-.221.303-.182.134.033.216.169.182.303l-.25 1c-.028.114-.13.19-.242.19z"/><path fill="#8A323F" d="M17.5 27.75c-.112 0-.214-.076-.242-.189l-.25-1c-.034-.134.048-.27.182-.303.138-.041.27.049.303.182l.25 1c.034.134-.048.27-.182.303l-.061.007z"/></svg>