<svg xmlns="http://www.w3.org/2000/svg" width="32" height="32" viewBox="0 0 32 32"><path fill="#E08C96" d="M.845 15.843c-.241-.34-.182-.647.039-.862l2.569-2.484 1.444 2.041-3.197 1.597c-.276.138-.57.112-.855-.292zM3.948 9.407c.417.014.626.247.662.553l.423 3.549-2.499-.085.663-3.512c.058-.303.257-.522.751-.505zM1.959 10.384l10.215 6.14-2.388 3.425-9.311-7.432c-.631-.485-.568-1.094-.193-1.594.34-.453.912-1.005 1.677-.539z"/><path fill="#E2959E" d="M12.628 6.647c-.695-.48-2.29-1.582-4.018-2.78l.714-.63c.231-.204.303-.508.078-.859-.267-.416-.56-.455-.842-.33l-1.568.696c-1.388-.963-2.701-1.878-3.534-2.465-.499-.352-1.458-.459-2.041.208-.563.644-.437 1.274.083 1.833.397.426.957 1.023 1.596 1.699l-1.274.303c-.3.071-.507.306-.473.721.04.493.28.665.587.687l2.984.215c1.266 1.335 2.557 2.692 3.458 3.638-2.064 2.199-3.374 5.078-3.502 7.667-.229 4.623 2.207 12.752 11.124 12.752v-24c-1.184 0-2.314.235-3.372.645z"/><path fill="#E08C96" d="M14.5 3.002s-.792 5.042-1 7c.41.472 1.708.5 2.5.5v-8.495c-.756.014-1.427.517-1.5.995zM14.5 3.002s-.792 5.042-1 7c.41.472 1.708.5 2.5.5v-8.495c-.756.014-1.427.517-1.5.995z"/><path fill="#93C2CA" d="M9.469 26.502h5l-.826 4.682c-.109.581-.695.941-1.262.776l-1.745-.507c-.386-.112-.667-.444-.714-.843l-.453-4.108z"/><path fill="#ACD7DD" d="M13.5 22.475l.224 1.291c-3.871-.778-6.966-3.399-8.869-5.743-.042 4.417 2.604 12 11.146 11.979v-8.97l-2.501 1.443z"/><path fill="#E2959E" d="M9.503 21.767l-.44 2.543c-.036.207.061.414.243.518l1.948 1.125c.155.089.345.089.5 0l1.948-1.125c.182-.105.278-.312.243-.518l-.44-2.543-2-1.443-2.002 1.443zM8.611 20.638c-.456.456-2.622 1.468-3.929 2.055-.575.258-1.249.045-1.573-.495l-.432-.721c-.295-.492-.215-1.123.195-1.525l2.802-2.752 2.937 3.438z"/><path fill="#ACD7DD" d="M10.341 19.707l-.025.854c-.003.09.044.175.121.222l.921.552c.098.059.224.043.305-.038l.51-.51c.081-.081.097-.207.038-.305l-.552-.921c-.047-.078-.131-.124-.222-.121l-.854.025c-.131.003-.238.109-.242.242z"/><path fill="#9FCCD3" d="M16 27.523v2.479c-5.459.013-8.51-3.08-9.99-6.467 3.047 2.593 5.052 3.988 9.99 3.988z"/><path fill="#DE8490" d="M31.155 15.843c.241-.34.182-.647-.039-.862l-2.569-2.484-1.444 2.041 3.197 1.597c.276.138.57.112.855-.292zM28.052 9.407c-.416.014-.626.246-.662.553l-.423 3.549 2.499-.085-.663-3.512c-.058-.303-.257-.522-.751-.505zM30.041 10.384l-10.215 6.14 2.388 3.425 9.311-7.432c.631-.485.568-1.094.193-1.594-.34-.453-.912-1.005-1.677-.539z"/><path fill="#E08C96" d="M30.178 4.322l-1.274-.303c.638-.676 1.199-1.273 1.596-1.699.52-.559.646-1.19.083-1.833-.583-.667-1.542-.56-2.041-.208-.833.587-2.146 1.502-3.534 2.465l-1.568-.697c-.282-.125-.574-.086-.842.33-.225.351-.153.655.078.859l.714.63c-1.728 1.198-3.323 2.3-4.018 2.78-1.058-.409-2.188-.644-3.372-.644v24c8.917 0 11.353-8.129 11.125-12.75-.128-2.589-1.438-5.468-3.502-7.667.901-.947 2.192-2.303 3.458-3.638l2.984-.215c.308-.022.547-.194.587-.687.033-.417-.174-.652-.474-.723z"/><path fill="#DE8490" d="M17.5 3.002s.792 5.042 1 7c-.41.472-1.708.5-2.5.5v-8.495c.756.014 1.427.517 1.5.995z"/><path fill="#88B9C3" d="M22.531 26.502h-5l.826 4.682c.109.581.695.941 1.262.776l1.745-.507c.386-.112.667-.444.714-.843l.453-4.108z"/><path fill="#A3C0C6" d="M16 30.002v-3.5"/><path fill="#A5D1D8" d="M18.276 23.766l.224-1.291-2.5-1.444v8.969999999999999c8.542.021 11.188-7.563 11.146-11.979-1.904 2.344-4.999 4.966-8.87 5.744z"/><path fill="#E08C96" d="M22.497 21.767l.44 2.543c.036.207-.061.414-.243.518l-1.948 1.125c-.155.089-.345.089-.5 0l-1.948-1.125c-.182-.105-.278-.312-.243-.518l.44-2.543 2-1.443 2.002 1.443zM23.389 20.638c.456.456 2.622 1.468 3.929 2.055.575.258 1.249.045 1.573-.495l.432-.721c.295-.492.215-1.123-.195-1.525l-2.802-2.752-2.937 3.438z"/><path fill="#A5D1D8" d="M21.659 19.707l.025.854c.003.09-.044.175-.121.222l-.921.552c-.098.059-.224.043-.305-.038l-.51-.51c-.081-.081-.097-.207-.038-.305l.552-.921c.047-.078.131-.124.222-.121l.854.025c.131.003.238.109.242.242z"/><path fill="#99C7CE" d="M25.99 23.534c-1.48 3.387-4.531 6.48-9.99 6.467v-2.479c4.938.001 6.943-1.394 9.99-3.988z"/><ellipse transform="matrix(.259 -.966 .966 .259 -3.679 22.39)" fill="#373F3F" cx="12.75" cy="13.592" rx="1.526" ry=".821"/><ellipse transform="matrix(.259 -.966 .966 .259 -3.096 22.14)" fill="#fff" cx="12.879" cy="13.088" rx=".702" ry=".482"/><ellipse transform="matrix(.966 -.259 .259 .966 -2.862 5.445)" fill="#2B3332" cx="19.25" cy="13.592" rx=".821" ry="1.526"/><ellipse transform="matrix(.966 -.259 .259 .966 -2.736 5.395)" fill="#F7F7F7" cx="19.121" cy="13.088" rx=".482" ry=".702"/><path fill="#373F3F" d="M16 17.252c-1.462 0-2.33-.684-2.338-.69-.105-.09-.262-.075-.352.028-.089.105-.077.263.027.352.039.033 1.006.811 2.663.811v-.501z"/><path fill="#2B3332" d="M16 17.252c1.462 0 2.33-.684 2.338-.69.105-.09.262-.075.352.028.089.105.077.263-.027.352-.039.033-1.006.811-2.663.811v-.501z"/></svg>