<svg xmlns="http://www.w3.org/2000/svg" width="32" height="32" viewBox="0 0 32 32"><path fill="#E3E5E5" d="M16 12.551c.241 0 .482-.158.622-.474 1.5-3.393 4.81-12.077-.622-12.077v12.551z"/><path fill="#EDEEEE" d="M15.378 12.077c.14.316.381.474.622.474v-12.551c-5.432 0-2.122 8.684-.622 12.077z"/><path fill="#E3E5E5" d="M16 19.449c-.241 0-.482.158-.622.474-1.5 3.393-4.81 12.077.622 12.077v-12.551z"/><path fill="#DADDDC" d="M16.622 19.923c-.14-.316-.381-.474-.622-.474v12.551c5.432 0 2.122-8.684.622-12.077z"/><path fill="#EDEEEE" d="M16 22.449c-.167 0-.333.083-.43.247-1.037 1.771-3.325 6.304.43 6.304v-6.551z"/><path fill="#E3E5E5" d="M16.43 22.697c-.097-.165-.263-.247-.43-.247v6.55c3.755 0 1.467-4.533.43-6.303z"/><path fill="#C8DAC8" d="M15.57 1.697c-.478.817-1.217 2.219-1.512 3.495-4.593.904-8.058 4.95-8.058 9.808 0 5.523 4.477 10 10 10v-23.551c-.167 0-.333.083-.43.248z"/><path fill="#BAD3C1" d="M17.942 5.192c-.295-1.276-1.034-2.679-1.512-3.495-.097-.165-.263-.248-.43-.248v23.551c5.523 0 10-4.477 10-10 0-4.858-3.465-8.904-8.058-9.808zM6.016 15.324c.173 5.371 4.57 9.676 9.984 9.676v-9c-1 0-2 1-2 1-3.776 0-6.379-.872-7.984-1.676z"/><path fill="#AFC9B7" d="M25.984 15.324c-.173 5.371-4.57 9.676-9.984 9.676v-9c1 0 2 1 2 1 3.776 0 6.379-.872 7.984-1.676z"/><path fill="#EDEEEE" d="M7.303 19.726c.33-.193.33-.666 0-.86-1.77-1.037-6.303-3.325-6.303.43s4.533 1.467 6.303.43z"/><path fill="#E3E5E5" d="M24.697 19.726c-.33-.193-.33-.666 0-.86 1.77-1.037 6.303-3.325 6.303.43s-4.533 1.467-6.303.43z"/><path fill="#F7F7F7" d="M23 16c0 1.657-.343 3-2 3s-2-1.343-2-3 .343-3 2-3 2 1.343 2 3z"/><path fill="#2B3332" d="M22 16c0 1.105-.172 2-1 2s-1-.895-1-2 .172-2 1-2 1 .895 1 2z"/><circle fill="#F7F7F7" cx="21" cy="15" r=".5"/><path fill="#fff" d="M13 16c0 1.657-.343 3-2 3s-2-1.343-2-3 .343-3 2-3 2 1.343 2 3z"/><path fill="#373F3F" d="M12 16c0 1.105-.172 2-1 2s-1-.895-1-2 .172-2 1-2 1 .895 1 2z"/><circle fill="#fff" cx="11" cy="15" r=".5"/></svg>