<svg xmlns="http://www.w3.org/2000/svg" width="32" height="32" viewBox="0 0 32 32"><path fill="#FFD96C" d="M16 1.5v-1.5c-.966 0-1.75.784-1.75 1.75 0 .27.066.522.175.75.281-.59.878-1 1.575-1z"/><path fill="#E55D53" d="M10 29.542s3.292-.542 6-.542v-27.958c-4.458 0-9 3.5-9 8.458 0 5.083 4.458 6.583 4.458 9.458 0 3.292-1.458 4.542-1.458 4.542v6.042z"/><path fill="#D64F45" d="M16 5.958v-4.916c-4.458 0-9 3.5-9 8.458 0 2.487 1.125 4.188 2.156 5.469 5.343 0 3.281-9.011 6.844-9.011zM8 21.958c-3.708 0-4.083 5.542-6 5.542-.513 0-.985-.373-1.333-.753-.358-.391-.667-.382-.667.205 0 1.548 1.18 3.631 4.042 3.631 4.083 0 7.417-1.583 7.417-4.083-.001-2.292-.584-4.542-3.459-4.542z"/><path fill="#E55D53" d="M11.5 23.5c1.5 0 4 .583 4 4.5 0 2.917-3.083 4-6.083 4s-6.917-1.917-6.917-6c0-2.25 1.5-4.5 2.969-5.969 1.5-1.5 1.845-.656 1.062.469-1.073 1.542-1.448 6.083 1.885 6.083.001-1.25 1.084-3.083 3.084-3.083z"/><ellipse transform="matrix(.259 -.966 .966 .259 -20.673 20.851)" fill="#FFD96C" cx="3.25" cy="23.896" rx="1.5" ry="1.375"/><ellipse transform="matrix(.866 -.5 .5 .866 -13.536 5.525)" fill="#FFD96C" cx="3.542" cy="28.021" rx="1.375" ry="1.5"/><path fill="#CF3C35" d="M6.458 9.875c0-1.956 1.129-3.542 2.521-3.542s2.521 1.586 2.521 3.542c0 .21-.022.415-.038.615-.09 1.135-4.833 1.01-4.961-.032-.028-.231-.043-.338-.043-.583z"/><path fill="#F7F7F7" d="M11.5 10.083c0 1.956-1.129 3.542-2.521 3.542s-2.521-1.586-2.521-3.542c0-.541 5.042-.583 5.042 0z"/><path fill="#FFD96C" d="M14.425 2.5c-.109.228-.175.48-.175.75 0 .966.784 1.75 1.75 1.75v-3.5c-.697 0-1.294.41-1.575 1z"/><path fill="#373F3F" d="M8.583 12.583c-.276 0-.5-.224-.5-.5v-1c0-.276.224-.5.5-.5s.5.224.5.5v1c0 .276-.224.5-.5.5z"/><path fill="#FFD04D" d="M16 1.5v-1.5c.966 0 1.75.784 1.75 1.75 0 .27-.066.522-.175.75-.281-.59-.878-1-1.575-1z"/><path fill="#D64F45" d="M22 29.542s-3.292-.542-6-.542v-27.958c4.458 0 9 3.5 9 8.458 0 5.083-4.458 6.583-4.458 9.458 0 3.167 1.458 4.542 1.458 4.542v6.042z"/><path fill="#D1473D" d="M16 5.958v-4.916c4.458 0 9 3.5 9 8.458 0 2.487-1.281 4.438-2.156 5.469-5.343 0-3.344-9.011-6.844-9.011zM24 21.958c3.708 0 4.083 5.542 6 5.542.513 0 .985-.373 1.333-.753.358-.391.667-.382.667.205 0 1.548-1.18 3.631-4.042 3.631-4.083 0-7.417-1.583-7.417-4.083.001-2.292.584-4.542 3.459-4.542z"/><path fill="#D64F45" d="M20.5 23.5c-1.5 0-4 .583-4 4.5 0 2.917 3.083 4 6.083 4s6.917-1.917 6.917-6c0-2.25-1.5-4.5-2.969-5.969-1.5-1.5-1.845-.656-1.062.469 1.073 1.542 1.448 6.083-1.885 6.083-.001-1.25-1.084-3.083-3.084-3.083z"/><ellipse transform="matrix(.966 -.259 .259 .966 -5.205 8.255)" fill="#FFD04D" cx="28.75" cy="23.896" rx="1.375" ry="1.5"/><ellipse transform="matrix(.5 -.866 .866 .5 -10.038 38.656)" fill="#FFD04D" cx="28.458" cy="28.021" rx="1.5" ry="1.375"/><ellipse transform="matrix(.456 -.89 .89 .456 -8.478 43.648)" fill="#FFD04D" cx="31.453" cy="28.756" rx=".695" ry=".501"/><ellipse transform="matrix(.707 -.707 .707 .707 -12.521 29.991)" fill="#FFD04D" cx="29.942" cy="30.111" rx=".701" ry=".604"/><ellipse transform="matrix(.89 -.456 .456 .89 -13.045 3.409)" fill="#FFD96C" cx=".547" cy="28.756" rx=".501" ry=".695"/><ellipse transform="matrix(.707 -.707 .707 .707 -20.689 10.274)" fill="#FFD96C" cx="2.058" cy="30.111" rx=".604" ry=".701"/><path fill="#C23734" d="M25.542 9.875c0-1.956-1.129-3.542-2.521-3.542s-2.521 1.586-2.521 3.542c0 .21.022.415.038.615.09 1.135 4.833 1.01 4.961-.032.028-.231.043-.338.043-.583z"/><path fill="#EDEEEE" d="M20.5 10.083c0 1.956 1.129 3.542 2.521 3.542s2.521-1.586 2.521-3.542c0-.541-5.042-.583-5.042 0z"/><path fill="#FFD04D" d="M17.575 2.5c.109.228.175.48.175.75 0 .966-.784 1.75-1.75 1.75v-3.5c.697 0 1.294.41 1.575 1z"/><path fill="#2B3332" d="M17.75 13.438c0-.966-.784-1.75-1.75-1.75v3.5c.966 0 1.75-.784 1.75-1.75z"/><path fill="#373F3F" d="M14.25 13.438c0 .966.784 1.75 1.75 1.75v-3.5c-.966 0-1.75.783-1.75 1.75z"/><path fill="#CF3C35" d="M16 11.188v.5c.966 0 1.75.784 1.75 1.75s-.784 1.75-1.75 1.75v.5c1.241 0 2.25-1.009 2.25-2.25s-1.009-2.25-2.25-2.25z"/><path fill="#D1473D" d="M13.75 13.438c0 1.241 1.009 2.25 2.25 2.25v-.5c-.966 0-1.75-.784-1.75-1.75s.784-1.75 1.75-1.75v-.5c-1.241 0-2.25 1.009-2.25 2.25z"/><path fill="#2B3332" d="M23.167 12.583c-.276 0-.5-.224-.5-.5v-1c0-.276.224-.5.5-.5s.5.224.5.5v1c0 .276-.224.5-.5.5z"/></svg>