<svg xmlns="http://www.w3.org/2000/svg" xmlns:xlink="http://www.w3.org/1999/xlink" width="32" height="32" viewBox="0 0 32 32"><path fill="#FFEAA7" d="M10.363 28.637c-.239.239-.419.53-.525.85l-.618 1.855c-.109.324.132.658.474.658h.039c.167 0 .323-.084.416-.223l.851-1.277.474 1.186c.076.19.26.314.465.314h.301c.215 0 .406-.138.474-.342l.386-1.158.754 1.257c.091.151.253.243.429.243h.023c.341 0 .582-.334.474-.658l-.618-1.855c-.107-.32-.287-.611-.525-.85-.408-.408-.961-.637-1.538-.637h-.198c-.577 0-1.13.229-1.538.637z"/><path fill="#FFE28A" d="M18.363 28.637c-.239.239-.419.53-.525.85l-.618 1.855c-.109.324.132.658.474.658h.039c.167 0 .323-.084.416-.223l.851-1.277.474 1.186c.076.19.26.314.465.314h.301c.215 0 .406-.138.474-.342l.386-1.158.754 1.257c.091.151.253.243.429.243h.023c.341 0 .582-.334.474-.658l-.618-1.855c-.107-.32-.287-.611-.525-.85-.408-.408-.961-.637-1.538-.637h-.198c-.577 0-1.13.229-1.538.637z"/><path fill="#D1D4D4" d="M30.25 24c0 3.107-2.916 4.5-6 4.5s-5.667-2.518-5.667-5.625 2.5-4.375 5.583-4.375c3.042 0 6.084 2.393 6.084 5.5z"/><defs><path id="a" d="M30.25 24c0 3.107-2.916 4.5-6 4.5s-5.667-2.518-5.667-5.625 2.5-4.375 5.583-4.375c3.042 0 6.084 2.393 6.084 5.5z"/></defs><clipPath id="b"><use xlink:href="#a" overflow="visible"/></clipPath><path clip-path="url(#b)" fill="#C8CCCB" d="M30.25 24c0 3.107-2.75 4.625-5.833 4.625-2.118 0-3.961-1.189-4.907-2.94-.431-.798-.093-2.254-.093-3.227 4.625 3.708 9.836 2.423 10.833.292.11.412 0 .798 0 1.25z"/><path fill="#C23734" d="M28.17 9.032c-.448-.336-4.397 2.039-6.939 3.632.477-.568.769-1.295.769-2.226 0-2.761-2.125-6-6-6v24.558999999999997c1.005-.003 2.438.441 4.312.441 2.481 0 4.438-2.67 4.438-4.688 0-1.82-.906-4.192-1.929-6.441 5.269-1.345 5.774-8.958 5.349-9.277z"/><path fill="#CF3C35" d="M10 10.438c0 .931.292 1.659.769 2.227-2.541-1.593-6.49-3.968-6.939-3.632-.425.319.08 7.932 5.349 9.277-1.023 2.248-1.929 4.62-1.929 6.44 0 2.017 1.957 4.688 4.438 4.688 1.875 0 3.308-.443 4.312-.441v-24.558999999999997c-3.875 0-6 3.238-6 6z"/><path fill="#C23734" d="M7.25 24.75c0 2.017 1.957 4.688 4.437 4.688 1.875 0 3.308-.443 4.313-.441v-2.997c-2.792 0-6.771.146-8.75-1.25z"/><path fill="#B33533" d="M24.75 24.75c0 2.017-1.957 4.688-4.438 4.688-1.875 0-3.308-.443-4.312-.441v-2.997c2.792 0 6.771.146 8.75-1.25z"/><path fill="#C23734" d="M5.664 15.87c1.091 1.506 2.737 2.662 5.166 2.662l.549-1.186s-3.007-.147-5.715-1.476z"/><path fill="#B33533" d="M26.336 15.87c-1.091 1.506-2.737 2.662-5.166 2.662l-.549-1.186s3.007-.147 5.715-1.476z"/><path fill="#DADDDC" d="M16 23.75c-.5 0-2.985-5.77-2.985-5.77l-3.402 1.518c-.102.068-.23-.036-.184-.15l1.596-3.366h-2.11c-.12 0-.17-.153-.074-.224l2.409-1.758-.999-.38c-.094-.035-.109-.161-.027-.218l1.298-.902h4.478v11.25z"/><path fill="#E3E5E5" d="M16 21.25c-.5 0-2.75-4.251-2.75-4.251l-2.415 1.276c-.102.068-.231-.036-.185-.15l1.35-2.626-2.792.001 2.018-1.493-1.004-.382c-.094-.036-.11-.162-.027-.22l1.305-.906h4.5v8.751z"/><path fill="#EDEEEE" d="M10.088 9.443h5.912v5.099c-3 0-6-.979-6-4.104 0-.367.026-.635.088-.995zM16 6.5l-3.339-2.702-1.138-3.709c-.038-.124-.215-.117-.244.009l-.597 2.669-4.625-2.406c-.115-.06-.232.074-.159.18l2.269 3.257-3.105.253c-.125.01-.157.178-.045.234l5.53 3.515-1.499.577c-.123.041-.108.22.02.24l1.161.175-.874.549c-.096.064-.059.213.055.226l6.59.933v-4z"/><path fill="#373F3F" d="M11 10.118c0 1.039.843 1.882 1.882 1.882s2.118-.843 2.118-1.882-1.078-2.118-2.118-2.118-1.882 1.078-1.882 2.118z"/><path fill="#fff" d="M12 10.088c0 .78.632 1.412 1.412 1.412 1.119 0 1.588-.632 1.588-1.412 0-.78-.656-1.588-1.588-1.588-.78 0-1.412.809-1.412 1.588z"/><path fill="#373F3F" d="M13.25 10.059c0 .52.421.941.941.941s.809-.421.809-.941-.289-1.059-.809-1.059-.941.539-.941 1.059z"/><path fill="#fff" d="M14 10.029c0 .26.211.471.471.471s.404-.211.404-.471-.145-.529-.404-.529c-.26 0-.471.27-.471.529z"/><path fill="#FFEAA7" d="M16 13.5c-.844 0-3-.75-3-1.5s1.688-1.5 3-1.5v3z"/><path fill="#FFE28A" d="M16 12.25c-1.312 0-1.927 0-3-.25 0 .75 2.156 1.5 3 1.5v-1.25z"/><path fill="#D1D4D4" d="M16 23.75c.5 0 2.985-5.77 2.985-5.77l3.402 1.518c.102.068.23-.036.184-.15l-1.596-3.366h2.11c.12 0 .17-.153.074-.224l-2.409-1.758.999-.38c.094-.035.109-.161.027-.218l-1.299-.902h-4.477v11.25z"/><path fill="#DADDDC" d="M16 21.25c.5 0 2.75-4.251 2.75-4.251l2.415 1.276c.102.068.231-.036.185-.15l-1.35-2.626 2.792.001-2.018-1.493 1.004-.382c.094-.036.11-.162.027-.22l-1.306-.905h-4.499v8.75z"/><path fill="#E3E5E5" d="M22 10.438c0 3.125-3 4.104-6 4.104v-5.099h5.912c.062.36.088.628.088.995zM16 6.5l3.339-2.702 1.138-3.709c.038-.124.215-.117.244.009l.597 2.669 4.625-2.407c.115-.06.232.074.159.18l-2.269 3.257 3.104.253c.125.01.157.178.045.234l-5.529 3.516 1.499.577c.123.041.108.22-.02.24l-1.161.175.874.549c.096.064.06.213-.055.226l-6.59.933v-4z"/><path fill="#2B3332" d="M21 10.118c0 1.039-.843 1.882-1.882 1.882s-2.118-.843-2.118-1.882 1.078-2.118 2.118-2.118 1.882 1.078 1.882 2.118z"/><path fill="#F7F7F7" d="M20 10.088c0 .78-.632 1.412-1.412 1.412-1.119 0-1.588-.632-1.588-1.412 0-.78.656-1.588 1.588-1.588.78 0 1.412.809 1.412 1.588z"/><path fill="#2B3332" d="M18.75 10.059c0 .52-.421.941-.941.941s-.809-.421-.809-.941.289-1.059.809-1.059.941.539.941 1.059z"/><path fill="#eee" d="M18 10.029c0 .26-.211.471-.471.471s-.404-.211-.404-.471.145-.529.404-.529.471.27.471.529z"/><path fill="#FFE28A" d="M16 10.5c1.312 0 3 .75 3 1.5s-2.156 1.5-3 1.5v-3z"/><path fill="#FFD96C" d="M16 12.25c1.312 0 1.927 0 3-.25 0 .75-2.156 1.5-3 1.5v-1.25z"/><path fill="#F7F7F7" d="M18 10.029c0 .26-.211.471-.471.471s-.404-.211-.404-.471.145-.529.404-.529.471.27.471.529z"/></svg>