<svg xmlns="http://www.w3.org/2000/svg" width="32" height="32" viewBox="0 0 32 32"><path fill="#9AA6D6" d="M19.882 30.667c-2.352.143-4.189-1.326-4.69-3.706-.255-1.211.245-2.711 1.26-3.605.853-.752 1.477-1.655 1.782-2.637h-1.595c-.295 1.018-.96 1.93-1.903 2.637-1.137.853-2.01 1.621-2.01 3.105 0 3.194 4.615 5.849 7.244 4.249l-.002-.007-.086-.036z"/><path fill="#ABB4DD" d="M12.727 26.461c-.011-1.484.873-2.252 2.01-3.105.943-.707 1.608-1.619 1.903-2.637h-1.557c-.312.862-.918 1.642-1.77 2.281-1.137.853-2.687 1.812-2.687 4.25 0 3.706 5.973 6.455 9.328 3.534l.017-.076c-2.629 1.576-7.226-1.762-7.244-4.247z"/><path fill="#E5BDE5" d="M12.87 7.562c-1.625.313-10.198 2.265-10.938 2.438-2.938.688-2.188 3 0 3s2.375 2 4 2c3.313 0 2.062 3.438 6 3.25.562-.027.938-10.688.938-10.688z"/><path fill="#232F5E" d="M12.5 7.625c-2.751.588-9.922 2.224-10.568 2.375-1.425.334-1.977 1.049-1.923 1.698l.06.282c.069.185.19.356.355.505l1.126-1.267 1.2.862c.115.082.275.054.354-.064l.853-1.271 1.231.799c.112.073.261.045.339-.064l.874-1.216 1.186.797c.115.077.27.047.347-.068l.857-1.278 1.271.825c.115.074.268.043.344-.07l.775-1.155c.047-.07.141-.087.21-.04l1.072.918.037-2.568zM14.5 7.004c-.511-.511-1.607-3.215-2-4s-.379-1.932.5-2c1.003-.077 1.025.989 1 1.5-.033.688 1.106 4.066 1.106 4.066l-.606.434z"/><path fill="#EBCEEB" d="M16 6v16.016c-3.538 0-6.406-3.051-6.406-7.474s2.868-8.542 6.406-8.542z"/><path fill="#2B376B" d="M10.488 10.317c1.117-2.508 3.167-4.317 5.512-4.317v2.202c-1.001 0-.801-.701-1.868-.701-1.492 0-2.536 1.602-3.644 2.816z"/><path fill="#373F3F" d="M11.69 12.524c-.391-.155-.735-.332-.981-.551-.068-.061-.17.001-.146.09.125.465.52.707 1.002.897.46.182.984.281 1.401-.001.075-.051.039-.168-.052-.163-.361.021-.781-.096-1.224-.272zM11.69 14.393c-.391-.155-.735-.332-.981-.551-.068-.061-.17.001-.146.09.125.465.52.707 1.002.897.46.182.984.281 1.401-.001.075-.051.039-.168-.052-.163-.361.021-.781-.096-1.224-.272z"/><path fill="#E0ABDF" d="M19.13 7.562c1.625.313 10.198 2.265 10.938 2.438 2.938.688 2.188 3 0 3s-2.375 2-4 2c-3.312 0-2.062 3.438-6 3.25-.562-.027-.938-10.688-.938-10.688z"/><path fill="#1E264E" d="M19.5 7.625c2.751.588 9.922 2.224 10.568 2.375 1.425.334 1.977 1.049 1.923 1.698l-.06.282c-.069.185-.19.356-.355.505l-1.126-1.267-1.2.862c-.115.082-.275.054-.354-.064l-.853-1.271-1.231.799c-.112.073-.261.045-.339-.064l-.874-1.216-1.186.797c-.115.077-.27.047-.347-.068l-.857-1.278-1.271.825c-.115.074-.268.043-.344-.07l-.774-1.152c-.047-.07-.141-.087-.21-.04l-1.072.918-.038-2.571zM17.5 7.004c.511-.511 1.607-3.215 2-4s.379-1.932-.5-2c-1.003-.077-1.025.989-1 1.5.033.688-1.106 4.066-1.106 4.066l.606.434z"/><path fill="#E5BDE5" d="M22.406 14.542c0 4.423-2.868 7.474-6.406 7.474v-16.016c3.538 0 6.406 4.119 6.406 8.542z"/><path fill="#232F5E" d="M17.868 7.501c-1.068 0-.868.701-1.868.701v-2.202c2.345 0 4.395 1.809 5.512 4.317-1.108-1.214-2.152-2.816-3.644-2.816z"/><path fill="#2B3332" d="M20.31 12.524c.391-.155.735-.332.981-.551.068-.061.17.001.146.09-.125.465-.52.707-1.002.897-.46.182-.984.281-1.401-.001-.075-.051-.039-.168.052-.163.361.021.781-.096 1.224-.272zM20.31 14.393c.391-.155.735-.332.981-.551.068-.061.17.001.146.09-.125.465-.52.707-1.002.897-.46.182-.984.281-1.401-.001-.075-.051-.039-.168.052-.163.361.021.781-.096 1.224-.272z"/><path fill="#C8DAC8" d="M27.103 18.524s1.127-.213 1.218.061-.346.462-.304.731c.061.396.7.335.609.822-.091.487-.426.488-.457.974-.03.487.548 1.157.304 1.309-.244.152-1.614-.7-1.766-2.071-.153-1.369.396-1.826.396-1.826zM26.067 14.875c-.569-.379-1.58-1.201-2.022-.885-.442.316.126.695.063 1.138-.063.442-.379.822 0 1.201.379.379 1.896-.758 1.896-.758l.063-.696zM28.808 14.875c.569-.379 1.58-1.201 2.022-.885.442.316-.126.695-.063 1.138.063.442.379.822 0 1.201-.379.379-1.896-.758-1.896-.758l-.063-.696z"/><path fill="#91AD9D" d="M27.445 12.708c.623 0 1.059.778 1.21 1.462.183.822.7 1.539.7 2.357 0 1.455-.688 2.453-1.911 2.453s-1.834-1.271-1.834-2.544c0-.7.518-1.231.639-2.236.089-.725.548-1.492 1.196-1.492z"/><path fill="#7C998B" d="M28.321 14.17c.204.817 1.035 1.539 1.035 2.357 0 1.455-.688 2.453-1.911 2.453s-1.834-1.271-1.834-2.544c0-.7.589-1.167.853-2.145.212-.791 1.643-.974 1.857-.121z"/><path fill="#C8DAC8" d="M27.559 15.266c-.7-.122-.731 1.583-.122 1.705.312.062.59-.254.293-.754-.274-.465.345-.861-.171-.951z"/><ellipse fill="#373F3F" cx="13.828" cy="9.203" rx=".75" ry=".875"/><ellipse fill="#fff" cx="13.828" cy="9.203" rx=".375" ry=".5"/><ellipse fill="#2B3332" cx="18.172" cy="9.203" rx=".75" ry=".875"/><ellipse fill="#F7F7F7" cx="18.172" cy="9.203" rx=".375" ry=".5"/><path fill="#373F3F" d="M16 11.321c-.508 0-.913-.117-1.171-.34-.104-.09-.262-.077-.353.026-.09.104-.078.263.026.353.351.302.868.461 1.498.461v-.5z"/><path fill="#2B3332" d="M17.524 11.008c-.09-.104-.247-.116-.353-.026-.258.223-.664.34-1.171.34l-.002.001v.498l.002.001c.629 0 1.147-.159 1.498-.461.104-.09.116-.249.026-.353z"/></svg>