<svg xmlns="http://www.w3.org/2000/svg" width="32" height="32" viewBox="0 0 32 32"><path fill="#843822" d="M.111 17.484c2.806-1.609 10.189-2.567 11.931 1.1-3.617-.709-11.959-.834-11.959-.834-.102-.067-.078-.206.028-.266z"/><path fill="#923D27" d="M.111 15.15c2.826-.872 11.056-2.817 12.264 3.225l-12.292-2.958c-.102-.068-.089-.231.028-.267z"/><path fill="#A0422C" d="M.111 12.275c2.826-.872 11.339-.15 12.547 5.891l-12.575-5.624c-.102-.068-.089-.231.028-.267z"/><path fill="#7D3119" d="M31.889 17.484c-2.806-1.609-10.189-2.567-11.931 1.1 3.617-.708 11.958-.833 11.958-.833.103-.068.079-.207-.027-.267z"/><path fill="#843822" d="M31.889 15.15c-2.826-.872-11.056-2.817-12.264 3.225l12.292-2.958c.102-.068.089-.231-.028-.267z"/><path fill="#923D27" d="M31.889 12.275c-2.826-.872-11.339-.15-12.547 5.891l12.575-5.625c.102-.067.089-.23-.028-.266z"/><g fill="#424B7E"><path d="M31.985 18.983c.069-.154-.112-.3-.262-.223-2.42 1.258-4.048 1.793-6.209 2.172-2.363.414 1.659 2.122 2.297 4.088 1.058-1.295 3.148-3.749 4.174-6.037zM24.22 20.878c-1.878.451-2.974 2.086-2.491 3.906.267 1.007.933 1.673 1.781 1.989.152.057.288-.109.202-.246-.191-.305-.305-.67-.3-1.087.01-.759.458-1.472 1.145-1.796 1.185-.558 2.521.104 2.841 1.308.056.213.075.426.062.634-.01.162.186.245.294.124.6-.667.864-1.549.595-2.565-.484-1.82-2.65-2.622-4.129-2.267zM31.985 18.983c.069-.154-.112-.3-.262-.223-2.42 1.258-4.048 1.793-6.209 2.172-2.363.414 1.659 2.122 2.297 4.088 1.058-1.295 3.148-3.749 4.174-6.037zM24.22 20.878c-1.878.451-2.974 2.086-2.491 3.906.267 1.007.933 1.673 1.781 1.989.152.057.288-.109.202-.246-.191-.305-.305-.67-.3-1.087.01-.759.458-1.472 1.145-1.796 1.185-.558 2.521.104 2.841 1.308.056.213.075.426.062.634-.01.162.186.245.294.124.6-.667.864-1.549.595-2.565-.484-1.82-2.65-2.622-4.129-2.267z"/></g><path fill="#ABB4DD" d="M14.958 10.5c0 3.518-1.142 5.115-2.329 6.509-1.824-5.466-9.846-8.235-12.533-7.406-.116.036-.129.199-.027.266l12.164 7.604c-1.152 1.332-2.233 2.649-2.233 5.527 0 5.417 6 5 6 5v-17.5h-1.042z"/><path fill="#495587" d="M12.719 23.632c-.428-.479-1.198-.355-1.459.232-.4.896-.426 2.182.131 2.696.241.223.505.402.775.562.036.737.083 1.732.083 1.961 0 .375-.281.979-.406 1.667.188.469 1.25.531 1.594.094.031-.562.188-1.219.188-1.719l.017-1.394.459.115c.902.182-.026-2.698-1.382-4.214z"/><path fill="#E3E5E5" d="M11.872 29.966c-.471.125-1.392.749-1.087 1.989.014.055.089.062.116.012.571-1.034 1.12-.659 1.609-1.146.378-.377-.115-.994-.638-.855zM13.694 29.847c.45.186 1.282.926.815 2.115-.021.053-.096.05-.117-.003-.43-1.1-1.023-.801-1.444-1.348-.325-.424.245-.97.746-.764z"/><path fill="#C8CCCB" d="M14.398 14.117c.523.402 1.085.701 1.602.87v-1.719c-.396-.129-.811-.333-1.223-.604-.094.54-.223 1.02-.379 1.453z"/><path fill="#9DA5A4" d="M14.088 14.864c.603.53 1.291.92 1.912 1.123v-1.719c-.459-.15-.947-.4-1.419-.737-.136.494-.301.938-.493 1.333z"/><path fill="#838C8A" d="M13.638 15.668c.69.753 1.578 1.313 2.362 1.569v-1.719c-.571-.187-1.19-.529-1.756-.997-.18.424-.384.801-.606 1.147z"/><path fill="#9AA6D6" d="M31.904 9.603c-2.686-.829-10.709 1.94-12.533 7.406-1.187-1.394-2.329-2.991-2.329-6.509h-1.042v17.5s6 .417 6-5c0-2.878-1.081-4.195-2.233-5.527l12.164-7.604c.102-.067.089-.23-.027-.266z"/><path fill="#424B7E" d="M20.608 26.56c.557-.515.531-1.8.131-2.696-.262-.586-1.031-.711-1.459-.232-1.356 1.516-2.284 4.396-1.382 4.215l.459-.115.017 1.394c0 .5.156 1.156.188 1.719.344.438 1.406.375 1.594-.094-.125-.688-.406-1.292-.406-1.667 0-.23.047-1.224.083-1.961.271-.161.534-.34.775-.563z"/><path fill="#E3E5E5" d="M20.128 29.966c.471.125 1.392.749 1.087 1.989-.014.055-.089.062-.116.012-.571-1.034-1.12-.659-1.609-1.146-.378-.377.115-.994.638-.855zM18.306 29.847c-.45.186-1.282.926-.815 2.115.021.053.096.05.117-.003.43-1.1 1.023-.801 1.444-1.348.325-.424-.245-.97-.746-.764z"/><path fill="#ABB2B1" d="M17.602 14.117c-.523.402-1.085.701-1.602.87v-1.719c.396-.129.811-.333 1.223-.604.094.54.223 1.02.379 1.453z"/><path fill="#909997" d="M17.912 14.864c-.603.53-1.291.92-1.912 1.123v-1.719c.459-.15.947-.4 1.419-.737.136.494.301.938.493 1.333z"/><path fill="#757F7E" d="M18.362 15.668c-.69.753-1.578 1.313-2.362 1.569v-1.719c.571-.187 1.19-.529 1.756-.997.18.424.384.801.606 1.147z"/><path fill="#ABB4DD" d="M12.261 6.138c0 1.03.572 4.98.744 5.266.171.286 2.995 2.06 2.995 2.06v-7.384l-3.739.058z"/><path fill="#FFE28A" d="M13.132 6.985l.235 1.968c.014.116.067.225.152.308l1.475 1.451-.064-2.496-1.798-1.231z"/><ellipse fill="#373F3F" cx="14.183" cy="8.609" rx=".312" ry=".618"/><path fill="#9AA6D6" d="M16 0c-.744 0-1.246 5.519-1.662 5.519-5.66 0-.085 1.712.231 3.08.172.744.744 5.488 1.431 5.488v-14.087zM19.739 6.138c0 1.03-.572 4.98-.744 5.266-.171.286-2.995 2.06-2.995 2.06v-7.384l3.739.058z"/><path fill="#FFD96C" d="M18.868 6.985l-.235 1.968c-.014.116-.067.225-.152.308l-1.475 1.451.064-2.495 1.798-1.232z"/><ellipse fill="#2B3332" cx="17.817" cy="8.609" rx=".312" ry=".618"/><path fill="#8694D1" d="M16 0c.744 0 1.246 5.519 1.662 5.519 5.66 0 .085 1.712-.231 3.08-.172.744-.744 5.488-1.431 5.488v-14.087z"/></svg>