<svg xmlns="http://www.w3.org/2000/svg" width="32" height="32" viewBox="0 0 32 32"><path fill="#434C4B" d="M19.708 19.833c1.026.494 5.448.018 7.704-3.957.132-.232.486-.107.454.157-.458 3.738-2.073 10.3-7.574 10.3l-.584-6.5z"/><path fill="#5C6664" d="M12.232 14.927c0 4.422-4.888 7.481-3.084 11.604l.541 1.235c-.67.197-1.689.809-1.689 1.542 0 .892 1.25 1.192 2.142 1.192.655 0 1.466.032 1.72-.529.674.088 2.427-.059 4.138-.164v-14.88h-3.768z"/><path fill="#DADDDC" d="M8.602 25.767l.789 1.79.069.107c.181.102.508.265 1.331.269.823.004 1.607-.181 1.607-.181l-.053-2.174s-1.13.292-1.891.282c-.664-.008-1.379-.145-1.648-.25-.107-.043-.221.042-.204.157z"/><path fill="#687271" d="M14.75 2.283c-1.125-1.25-7.156-1.728-7.375-.792-.292 1.25 3.45 4.335 3.45 4.335l3.925-3.543z"/><path fill="#5C6664" d="M13.538 2.654c-.756-.84-5.621-1.571-5.788-1.029-.254.824 3.151 3.41 3.151 3.41l2.637-2.381z"/><path fill="#F79654" d="M12.232 14.927c0 4.422.574 15.074 1.31 15.035.736-.039 1.208-1.67 2.458-1.67v-13.365h-3.768z"/><path fill="#757F7E" d="M14.91 29.847s.342-10.093 1.09-10.093v-7.134l-2.153-.807s-2.791 3.321-2.568 5.922c.368 4.29.88 10.031 1.013 11.662-.553.222-1.354 1.142-1.354 1.604 0 .701 1.28 1 2.332 1 1.052 0 2.251-.299 2.251-1 0-.233-.447-.967-.611-1.154z"/><path fill="#FCA15E" d="M15.614 20.722c.114-.599.242-.969.386-.969v-5.045c-.417 0-1.247 1.308-1.542 1.792-1.166 1.917.459.833 1.156 4.222z"/><path fill="#757F7E" d="M10.49 6.202c-.373 2.014-.093 4.292.996 5.29.927.85 3.349 1.571 4.209 1.836.101.031.203.044.305.043v-11.371c-2.26 0-5.01 1.5-5.51 4.202z"/><path fill="#fff" d="M12.208 4.792c-.456.281-.375 2.102-.375 2.102 0 .722.583 1.303 1.305 1.311.839.009 1.806-.077 1.987-.496.459-1.062-1.974-3.497-2.917-2.917z"/><ellipse fill="#2B3332" cx="13.375" cy="6.521" rx=".75" ry="1.062"/><ellipse fill="#fff" cx="13.5" cy="6.333" rx=".375" ry=".531"/><path fill="#DADDDC" d="M16 10.371v-8.371c-1.822 0-3.961.974-4.985 2.767 2.785.056 4.883 5.605 4.985 5.604z"/><path fill="#FCA15E" d="M10.529 9.666c.183.759.498 1.406.957 1.827.927.85 3.349 1.571 4.209 1.836.101.031.203.044.305.043v-5.645c-2.654 0-1.837 1.951-5.471 1.939z"/><path fill="#F79654" d="M10.904 10.706c.159.309.352.576.582.786.927.85 3.349 1.571 4.209 1.836.101.031.203.044.305.043v-3.496c-1.833 0-1.5.831-5.096.831z"/><path fill="#393532" d="M16 7.54c-.417 0-.885.214-.885.513 0 .28.652.559.885.559v-1.072z"/><path fill="#DADDDC" d="M11.941 27.842l.017 1.524.054.115c.165.125.706.481 1.53.481.79 0 1.267-.21 1.433-.298l.072-.119.123-1.63c.008-.107-.089-.188-.191-.155-.316.104-.935.282-1.438.282-.664 0-1.125-.187-1.377-.328-.1-.056-.225.012-.223.128z"/><path fill="#505957" d="M19.768 14.927c0 4.422 4.888 7.481 3.084 11.604l-.541 1.235c.67.197 1.689.809 1.689 1.542 0 .892-1.25 1.192-2.142 1.192-.655 0-1.466.032-1.72-.529-.674.088-2.427-.059-4.138-.164v-14.88h3.768z"/><path fill="#C8CCCB" d="M23.398 25.767l-.789 1.79-.069.107c-.181.102-.508.265-1.331.269-.823.004-1.607-.181-1.607-.181l.053-2.174s1.13.292 1.891.282c.664-.008 1.379-.145 1.648-.25.107-.043.221.042.204.157z"/><path fill="#5C6664" d="M17.25 2.283c1.125-1.25 7.156-1.728 7.375-.792.292 1.25-3.45 4.335-3.45 4.335l-3.925-3.543z"/><path fill="#505957" d="M18.462 2.654c.756-.84 5.621-1.571 5.788-1.029.254.824-3.151 3.41-3.151 3.41l-2.637-2.381z"/><path fill="#EF8C48" d="M19.768 14.927c0 4.422-.574 15.074-1.31 15.035-.736-.039-1.208-1.67-2.458-1.67v-13.365h3.768z"/><path fill="#687271" d="M17.09 29.847s-.342-10.093-1.09-10.093v-7.134l2.153-.807s2.791 3.321 2.568 5.922c-.368 4.29-.88 10.031-1.013 11.662.553.222 1.354 1.142 1.354 1.604 0 .701-1.28 1-2.332 1-1.052 0-2.251-.299-2.251-1 0-.233.447-.967.611-1.154z"/><path fill="#F79654" d="M16.386 20.722c-.114-.599-.242-.969-.386-.969v-5.045c.417 0 1.247 1.308 1.542 1.792 1.166 1.917-.459.833-1.156 4.222z"/><path fill="#687271" d="M21.51 6.202c.373 2.014.093 4.292-.996 5.29-.927.85-3.349 1.571-4.209 1.836-.101.031-.203.044-.305.043v-11.371c2.26 0 5.01 1.5 5.51 4.202z"/><path fill="#fff" d="M19.792 4.792c.456.281.375 2.102.375 2.102 0 .722-.583 1.303-1.305 1.311-.839.009-1.806-.077-1.987-.496-.459-1.062 1.974-3.497 2.917-2.917z"/><ellipse fill="#2B3332" cx="18.625" cy="6.521" rx=".75" ry="1.062"/><ellipse fill="#fff" cx="18.5" cy="6.333" rx=".375" ry=".531"/><path fill="#C8CCCB" d="M16 10.371v-8.371c1.822 0 3.961.974 4.985 2.767-2.785.056-4.883 5.605-4.985 5.604z"/><path fill="#F79654" d="M21.471 9.666c-.183.759-.498 1.406-.957 1.827-.927.85-3.349 1.571-4.209 1.836-.101.031-.203.044-.305.043v-5.645c2.654 0 1.837 1.951 5.471 1.939z"/><path fill="#EF8C48" d="M21.096 10.706c-.159.309-.352.576-.582.786-.927.85-3.349 1.571-4.209 1.836-.101.031-.203.044-.305.043v-3.496c1.833 0 1.5.831 5.096.831z"/><path fill="#393532" d="M16 7.54c.417 0 .885.214.885.513 0 .28-.652.559-.885.559v-1.072z"/><path fill="#C8CCCB" d="M20.059 27.842l-.017 1.524-.054.115c-.165.125-.706.481-1.53.481-.79 0-1.267-.21-1.433-.298l-.072-.119-.123-1.63c-.008-.107.089-.188.191-.155.316.104.935.282 1.438.282.664 0 1.125-.187 1.377-.328.1-.056.225.012.223.128z"/></svg>