<svg xmlns="http://www.w3.org/2000/svg" width="32" height="32" viewBox="0 0 32 32"><path fill="#687271" d="M21.26 6.202c.373 2.014.093 4.292-.996 5.29-.927.85-3.099 1.571-3.959 1.836-.101.031-.203.044-.305.043v-11.371c2.26 0 4.76 1.5 5.26 4.202z"/><path fill="#F7F7F7" d="M19.818 5.817c.247.433.305 1.248.262 1.683-.057.581-.43.766-1.014.772-.678.007-1.91-.032-1.91-.401.001-.943 2.23-2.178 2.662-2.054z"/><path fill="#6D240B" d="M17.157 7.871c0-.643 1.029-1.411 1.825-1.802.239.308.392.743.392 1.237 0 .364-.091.687-.233.957l-.075.009c-.678.007-1.909-.032-1.909-.401z"/><ellipse fill="#F7F7F7" cx="18.409" cy="7.438" rx=".375" ry=".5"/><path fill="#5C6664" d="M12.232 14.927c0 4.422-4.888 7.481-3.084 11.604l.541 1.235c-.67.197-1.689.809-1.689 1.542 0 .892 1.25 1.192 2.142 1.192.655 0 1.466.032 1.72-.529.674.088 2.427-.059 4.138-.164v-14.88h-3.768z"/><path fill="#D1D4D4" d="M12.373 26.698l-.027-1.121s-1.13.292-1.891.282c-.664-.008-1.379-.145-1.648-.25-.108-.042-.222.042-.205.157l.401.91c.365.152.853.291 1.489.311.64.021 1.403-.156 1.881-.289z"/><path fill="#909997" d="M10.493 26.988c-.636-.02-1.124-.16-1.489-.311l.388.88.07.107c.181.102.508.265 1.331.269.823.004 1.607-.181 1.607-.181l-.026-1.053c-.479.132-1.242.309-1.881.289z"/><path fill="#434C4B" d="M21 22.406c11.375-.688 8.875-8.625 6.187-13.125 7.656 7.656 2.708 14.625-5.25 14.625l-.937-1.5z"/><path fill="#F79654" d="M12.232 14.927c0 4.422.574 15.074 1.31 15.035.736-.039 1.208-1.67 2.458-1.67v-13.365h-3.768z"/><path fill="#757F7E" d="M14.91 29.847s.342-10.093 1.09-10.093v-7.134l-2.153-.807s-2.791 3.321-2.568 5.922c.368 4.29.88 10.031 1.013 11.662-.553.222-1.354 1.142-1.354 1.604 0 .701 1.28 1 2.332 1 1.052 0 2.251-.299 2.251-1 0-.233-.447-.967-.611-1.154z"/><path fill="#FCA15E" d="M15.614 20.722c.114-.599.242-.969.386-.969v-3.659c-.417 0-1.695.912-1.781 1.5-.157 1.062 1.031.187 1.395 3.128z"/><path fill="#757F7E" d="M10.74 6.202c-.373 2.014-.093 4.292.996 5.29.927.85 3.099 1.571 3.959 1.836.101.031.203.044.305.043v-11.371c-2.26 0-4.76 1.5-5.26 4.202z"/><path fill="#fff" d="M12.182 5.817c-.247.433-.305 1.248-.263 1.683.057.581.43.766 1.014.772.678.007 1.91-.032 1.91-.401 0-.943-2.229-2.178-2.661-2.054z"/><path fill="#76260D" d="M14.843 7.871c0-.643-1.029-1.411-1.825-1.802-.239.308-.392.743-.392 1.237 0 .364.091.687.233.957l.075.009c.678.007 1.909-.032 1.909-.401z"/><ellipse fill="#fff" cx="13.591" cy="7.438" rx=".375" ry=".5"/><path fill="#DADDDC" d="M15.109 28.73l.061-.815c.008-.107-.089-.188-.191-.155-.316.104-.935.282-1.438.282-.664 0-1.125-.187-1.377-.328-.101-.056-.226.012-.224.128l.009.794c.367.155.864.299 1.512.32.539.018 1.175-.107 1.648-.226z"/><path fill="#9DA5A4" d="M13.461 28.956c-.648-.021-1.145-.165-1.512-.32l.008.729.054.115c.165.125.706.481 1.53.481.79 0 1.267-.21 1.433-.298l.072-.119.061-.815c-.471.12-1.107.245-1.646.227z"/><path fill="#FCA15E" d="M10.937 10.2c.188.527.452.975.799 1.292.927.85 3.099 1.571 3.959 1.836.101.031.203.044.305.043v-8.644c-1.458 0-1.5 2.69-1.5 3.023 0 1.634-3.042 1.042-3.563 2.45z"/><path fill="#F79654" d="M11.154 10.706c.159.309.352.576.582.786.927.85 3.099 1.571 3.959 1.836.101.031.203.044.305.043v-2.496c-1.833 0-2 1.042-4.846-.169z"/><path fill="#373F3F" d="M16 8.623c-.417 0-.885.214-.885.513 0 .28.652.559.885.559v-1.072z"/><path fill="#DADDDC" d="M14.75 2.625c-.604-.769-1.875-2.625-4.75-2.625-2.669 0-3.65 3.088-2.444 4.231.088.084.236 0 .208-.118-.318-1.362.864-2.321 1.903-2.321 1.381 0 2.528 2.044 2.75 2.333.416.542 2.791-.917 2.333-1.5zM14.766 14.696c.151-.016.172-.227.035-.293-.894-.431-1.505-.873-1.838-1.384-.225.34-.468.736-.699 1.165.71.416 1.576.611 2.502.512zM16 13.812v1.875c-.219 0-.734-.42-.734-.938s.328-.937.734-.937z"/><path fill="#505957" d="M19.768 14.927c0 4.422 4.888 7.481 3.084 11.604l-.541 1.235c.67.197 1.689.809 1.689 1.542 0 .892-1.25 1.192-2.142 1.192-.655 0-1.466.032-1.72-.529-.674.088-2.427-.059-4.138-.164v-14.88h3.768z"/><path fill="#C8CCCB" d="M19.627 26.698l.027-1.121s1.13.292 1.891.282c.664-.008 1.379-.145 1.648-.25.108-.042.222.042.205.157l-.401.91c-.365.152-.853.291-1.489.311-.64.021-1.403-.156-1.881-.289z"/><path fill="#838C8A" d="M21.507 26.988c.636-.02 1.124-.16 1.489-.311l-.388.88-.07.107c-.181.102-.508.265-1.331.269-.823.004-1.607-.181-1.607-.181l.026-1.053c.479.132 1.242.309 1.881.289z"/><path fill="#EF8C48" d="M19.768 14.927c0 4.422-.574 15.074-1.31 15.035-.736-.039-1.208-1.67-2.458-1.67v-13.365h3.768z"/><path fill="#687271" d="M17.09 29.847s-.342-10.093-1.09-10.093v-7.134l2.153-.807s2.791 3.321 2.568 5.922c-.368 4.29-.88 10.031-1.013 11.662.553.222 1.354 1.142 1.354 1.604 0 .701-1.28 1-2.332 1-1.052 0-2.251-.299-2.251-1 0-.233.447-.967.611-1.154z"/><path fill="#F79654" d="M16.386 20.722c-.114-.599-.242-.969-.386-.969v-3.659c.417 0 1.695.912 1.781 1.5.157 1.062-1.031.187-1.395 3.128z"/><path fill="#D1D4D4" d="M16.891 28.73l-.061-.815c-.008-.107.089-.188.191-.155.316.104.935.282 1.438.282.664 0 1.125-.187 1.377-.328.101-.056.226.012.224.128l-.009.794c-.367.155-.864.299-1.512.32-.539.018-1.175-.107-1.648-.226z"/><path fill="#909997" d="M18.539 28.956c.648-.021 1.145-.165 1.512-.32l-.008.729-.054.115c-.165.125-.706.481-1.53.481-.79 0-1.267-.21-1.433-.298l-.072-.119-.061-.815c.471.12 1.107.245 1.646.227z"/><path fill="#F79654" d="M21.063 10.2c-.188.527-.452.975-.799 1.292-.927.85-3.099 1.571-3.959 1.836-.101.031-.203.044-.305.043v-8.644c1.458 0 1.5 2.69 1.5 3.023 0 1.634 3.042 1.042 3.563 2.45z"/><path fill="#EF8C48" d="M20.846 10.706c-.159.309-.352.576-.582.786-.927.85-3.099 1.571-3.959 1.836-.101.031-.203.044-.305.043v-2.496c1.833 0 2 1.042 4.846-.169z"/><path fill="#2B3332" d="M16 8.623c.417 0 .885.214.885.513 0 .28-.652.559-.885.559v-1.072z"/><path fill="#D1D4D4" d="M17.25 2.625c.604-.769 1.875-2.625 4.75-2.625 2.669 0 3.65 3.088 2.444 4.231-.088.084-.236 0-.208-.118.318-1.361-.863-2.321-1.902-2.321-1.381 0-2.528 2.044-2.75 2.333-.417.542-2.792-.917-2.334-1.5z"/><path fill="#C8CCCB" d="M17.234 14.696c-.151-.016-.172-.227-.035-.293.894-.431 1.505-.873 1.838-1.384.225.34.468.736.699 1.165-.71.416-1.576.611-2.502.512zM16.734 14.75c0 .518-.516.938-.734.938v-1.875c.406-.001.734.419.734.937z"/><path fill="#434C4B" d="M24.951 6.954c-.124-.063-.26.063-.207.191l2.283 5.563.073-.005.679-2.556 2.687-.338.012-.073-5.527-2.782z"/></svg>