<svg xmlns="http://www.w3.org/2000/svg" width="32" height="32" viewBox="0 0 32 32"><path d="M15.654 12.983c-2.852-.143-4.849-2.257-5.456-5.111l-5.298 5.299c-.826.826-1.483 1.789-1.967 2.829-.579 1.244-.908 2.602-.933 4 0 2.209 1.791 4 4 4h10v-8h-2.615l2.269-3.017z" fill="#D285D2"/><path d="M12.896 12.102l-3.511 3.898h4l2.269-3.017c-1.042-.052-1.971-.362-2.758-.881z" fill="#C27BC6"/><path d="M10.198 7.873l-2 2c.628 2.955 2.745 5.127 5.76 5.127l.186-.01 1.509-2.006c-2.851-.143-4.848-2.258-5.455-5.111zM24.494 6.5c.162-.209.137-1.5-.494-1.5s-.656 1.291-.494 1.5h.988z" fill="#FDEBBB"/><path d="M24.869 11h-1.737c-.658.5-.658 2.5-.25 3h2.237c.407-.5.407-2.5-.25-3z" fill="#F0C877"/><path d="M24.66 8.5h-1.32c-.548.417-.548 2.083-.208 2.5h1.737c.339-.417.339-2.083-.209-2.5z" fill="#F7D684"/><path d="M24.494 6.5h-.987c-.438.333-.438 1.667-.167 2h1.321c.271-.333.271-1.667-.167-2z" fill="#FAE09F"/><path fill="#A366AD" d="M25.5 16h-3l.381-2h2.238z"/><path d="M26 16h-10v8h10c2.209 0 4-1.791 4-4s-1.791-4-4-4z" fill="#C27BC6"/><path d="M16 24h-12c-2.209 0-4 1.791-4 4s1.791 4 4 4h12v-8z" fill="#D285D2"/><path d="M28 24h-12v8h12c2.209 0 4-1.791 4-4s-1.791-4-4-4zM16 30h-12c-1.642 0-3.086-.802-3.998-2.024l-.002.024c0 2.209 1.791 4 4 4h12v-2z" fill="#C27BC6"/><path d="M28 30h-12v2h12c2.209 0 4-1.791 4-4l-.002-.024c-.912 1.222-2.356 2.024-3.998 2.024z" fill="#B370B9"/><path d="M16 22h-10.5c-1.335 0-2.541-.531-3.438-1.384.298 1.915 1.94 3.384 3.938 3.384h10v-2z" fill="#C27BC6"/><path d="M16 22v2h10c1.998 0 3.64-1.469 3.938-3.384-.897.853-2.103 1.384-3.438 1.384h-10.5z" fill="#B370B9"/><path d="M12.896 12.102l-1.875 2.082c.838.519 1.826.816 2.937.816l.186-.01 1.509-2.006c-1.041-.053-1.97-.363-2.757-.882z" fill="#FAE09F"/><path d="M16 .003l-.042-.003c-3.889 0-5.958 2.134-5.958 6s2.333 7 5.958 7l.042-.002v-12.995z" fill="#D285D2"/><path d="M16 .003v12.995c3.601-.024 6-3.147 6-6.998 0-3.851-2.139-5.981-6-5.997z" fill="#C27BC6"/><circle cx="11.5" cy="5.5" r="1.5" fill="#FDEBBB"/><path d="M12 5.5c0 1.105-.224 1.25-.5 1.25s-.5-.145-.5-1.25.224-1.25.5-1.25.5.145.5 1.25z" fill="#373F3F"/><circle cx="20.5" cy="5.5" r="1.5" fill="#FAE09F"/><path d="M21 5.5c0 1.105-.224 1.25-.5 1.25s-.5-.145-.5-1.25.224-1.25.5-1.25.5.145.5 1.25z" fill="#2B3332"/><path d="M16 10.998l-1.056.002c-2.22 0-4.139-1.342-4.139-1.342.976 2.003 2.787 3.342 5.153 3.342l.042-.003v-1.999z" fill="#C27BC6"/><path d="M16.042 13c2.366 0 4.178-1.339 5.152-3.342 0 0-1.918 1.342-4.139 1.342l-1.056-.002v1.999l.043.003z" fill="#B370B9"/></svg>