<svg xmlns="http://www.w3.org/2000/svg" width="32" height="32" viewBox="0 0 32 32"><path fill="#E3E5E5" d="M19.66 11.467c1.058.029 1.698-.209 2.81.121s2.311 1.324 1.994 2.155c-.317.831-1.38 1.299-2.657.565-1.277-.734-2.471-2.225-2.471-2.225l.324-.616z"/><path fill="#8EC0E0" d="M25.175 8.073c.087-.072.04-.213-.073-.222-1.597-.129-2.835-.336-4.127-.101-1.557.283-2 .75-3.375.688-1.863-.085-1.586.438-1.586.438v2.124s.398.562 1.711.562c1.5 0 1.875-.75 3.25-.875.924-.084 3 .498 3.863.756.118.035.212-.102.135-.199l-1.435-1.807 1.637-1.364z"/><path fill="#B0D3EA" d="M24.839 1.251c-.809-.055-1.307.325-1.707.62-.328.242-.528.379-.819.379-.42 0-.725-.22-1.079-.475-.305-.22-.62-.447-1.021-.518-.54-.096-1.034-.074-1.459.042l.17-.678c.066-.268-.096-.539-.364-.606-.272-.066-.539.096-.606.364l-.704 2.816c-.376-.091-.764-.152-1.156-.187l-.094-.008v10.985s3.577.396 4.609-2.925c.572-1.839.578-4.044-.397-5.731-.516-.893-1.219-1.453-2.015-1.808l.188-.753.021-.035c.16-.438.816-.633 1.631-.491.176.031.378.177.611.345.41.295.921.663 1.663.663.635 0 1.066-.318 1.413-.574.341-.252.606-.447 1.061-.427.274.04.511-.197.525-.473s-.196-.51-.471-.525z"/><path fill="#EDEEEE" d="M12.34 11.468c-1.058.029-1.698-.209-2.81.121-1.112.329-2.311 1.324-1.994 2.155s1.38 1.299 2.657.565c1.277-.734 2.471-2.225 2.471-2.225l-.324-.616z"/><path fill="#9FC9E4" d="M6.825 8.074c-.087-.072-.04-.213.073-.222 1.597-.129 2.835-.336 4.127-.101 1.557.283 2 .75 3.375.687 1.863-.085 1.586.438 1.586.438v2.125s-.398.562-1.711.562c-1.5 0-1.875-.75-3.25-.875-.924-.084-3 .498-3.863.756-.118.035-.212-.102-.135-.199l1.435-1.807-1.637-1.364z"/><path fill="#C1DDEE" d="M15.908 3.008c-.393.035-.78.096-1.157.187l-.704-2.816c-.066-.269-.344-.432-.606-.364-.269.067-.431.339-.364.606l.169.677c-.423-.115-.917-.136-1.458-.04-.401.07-.717.298-1.021.518-.354.255-.659.475-1.079.475-.291 0-.491-.137-.819-.379-.4-.295-.893-.674-1.707-.62-.275.015-.487.25-.473.525.014.275.25.515.525.473.452-.015.72.175 1.061.427.347.256.778.574 1.413.574.742 0 1.253-.368 1.663-.663.233-.168.436-.313.611-.345.815-.144 1.471.053 1.631.491l.021.035.188.754c-.796.355-1.499.915-2.015 1.808-.974 1.687-.968 3.892-.397 5.731 1.033 3.32 4.61 2.924 4.61 2.924v-10.985l-.092.007z"/><path fill="#E3E5E5" d="M29.937 15.375c-.125-1.438-.25-2.25.375-3.562 0 0-.958 1.271-3.187.812-.859-.177-1.625 2.438-2.188 3.188-.562.75-2.812.938-2.812.938s-.18 1.087-.289 2.188h6.053c.112-1.219 2.171-2.155 2.048-3.564z"/><path fill="#DADDDC" d="M27.875 19l.014-.062h-6.053c-.093.944-.134 1.899.039 2.188.375.625-.563 2 5 1.25 1.301-.175 3.169 2.061 3.187 1.938.375-2.439-2.25-3.752-2.187-5.314z"/><path fill="#8EC0E0" d="M20.937 17.812c-.104 0-.207-.031-.296-.097-.223-.163-.271-.477-.107-.699.504-.687 1.364-.819 2.196-.948.55-.085 1.118-.173 1.492-.422.634-.423.943-1.122 1.217-1.738.24-.541.467-1.053.894-1.328.753-.488 1.323-.396 1.78-.321.279.045.522.083.825.007.243-.062.45-.393.67-.742.339-.54.761-1.212 1.605-1.272.272-.023.515.188.535.463.02.275-.188.515-.463.535-.316.022-.525.319-.831.807-.3.477-.639 1.018-1.269 1.179-.508.129-.91.064-1.233.012-.401-.065-.646-.105-1.077.174-.177.114-.352.51-.521.894-.312.704-.702 1.581-1.577 2.165-.559.372-1.237.477-1.895.578-.66.102-1.283.198-1.542.552-.097.131-.249.201-.403.201zM27.292 13.208c-.21 0-.404-.133-.475-.342-.087-.263.055-.546.316-.633.28-.093.387-.817.465-1.347l.032-.213c.106-.692.567-1.174.903-1.525.101-.105.239-.25.269-.31.124-.246.425-.347.671-.224.247.124.347.424.224.671-.097.195-.257.362-.44.555-.271.283-.579.604-.638.986l-.031.206c-.122.83-.274 1.862-1.138 2.15l-.158.026zM29.937 24.75c-.144 0-.286-.062-.386-.182-1.139-1.379-2.942-1.93-4.588-1.404-2.242.712-3.164-.763-3.605-1.474l-.166-.256c-.17-.021-.325-.127-.399-.294-.112-.252.002-.548.254-.66.578-.258.929.31 1.16.683.445.715.947 1.531 2.454 1.048 2.038-.648 4.262.026 5.662 1.721.176.213.146.528-.067.704-.093.077-.206.114-.319.114z"/><path fill="#B0D3EA" d="M19.25 13.917l-3.25-.221v-1.241l2.182-1.038s4.818 1.75 4.818 5.583c.007 2.667-.725 3.559-2.917 5.75-.104.104-.203.228-.302.354 3.086-5.964-.531-9.187-.531-9.187z"/><path fill="#F7D684" d="M17.276 21.478l-.247.493c-.34.016-.681.029-1.029.029v8.455l.336.29c.301-.037.632-.141.987-.346.317-1.828 1.104-5.549 2.459-7.295.283-.547.493-1.063.671-1.564-.803.167-1.641.295-2.514.369l-.216-.431c-.092-.184-.355-.184-.447 0z"/><path fill="#FAE09F" d="M17.276 17.478l-.247.493c-.34.016-.681.029-1.029.029v4c.348 0 .689-.013 1.029-.028l.247-.493c.092-.184.355-.184.447 0l.216.431c.872-.074 1.71-.203 2.514-.369.576-1.618.643-2.987.479-4.104-.945.221-1.945.384-2.992.473l-.216-.431c-.093-.185-.356-.185-.448-.001z"/><path fill="#FDEBBB" d="M19.25 13.917l-3.25-.221v4.304c.348 0 .689-.013 1.029-.028l.247-.493c.092-.184.355-.184.447 0l.216.431c1.047-.089 2.048-.253 2.992-.473-.339-2.305-1.681-3.52-1.681-3.52z"/><path fill="#B0D3EA" d="M18 30v-5.562c0-1.105-.895-2-2-2v9.562c1.105 0 2-.895 2-2zM18 30v-5.562c0-1.105-.895-2-2-2v9.562c1.105 0 2-.895 2-2z"/><path fill="#fff" d="M19 7.498c0-.166-.011-.323-.028-.472l1.028-1.028v2c0 .552-.448 1-1 1h-.5c.276 0 .5-.672.5-1.5z"/><path fill="#F7F7F7" d="M18.028 7.97c.066.596.251 1.028.472 1.028h-1.5l1.028-1.028z"/><path fill="#373F3F" d="M18.028 7.97l.944-.944c.017.149.028.306.028.472 0 .828-.224 1.5-.5 1.5-.221 0-.406-.432-.472-1.028zM17.5 11.5c0 .828-.672 1.5-1.5 1.5v-3c.828 0 1.5.672 1.5 1.5z"/><path d="M17 11.5c0-.552-.448-1-1-1v2c.552 0 1-.448 1-1z" fill="none"/><path fill="#9FC9E4" d="M16 9.5v1c.552 0 1 .448 1 1s-.448 1-1 1v1c1.103 0 2-.897 2-2s-.897-2-2-2z"/><path fill="#C1DDEE" d="M12.75 13.917l3.25-.22v-1.241l-2.182-1.038s-4.818 1.75-4.818 5.583c-.007 2.667.725 3.559 2.917 5.75.104.104.203.228.302.354-3.086-5.965.531-9.188.531-9.188z"/><path fill="#FAE09F" d="M14.724 21.479l.247.493c.34.015.682.028 1.029.028v8.455l-.336.29c-.301-.037-.632-.141-.987-.346-.317-1.828-1.104-5.549-2.459-7.295-.283-.547-.493-1.063-.671-1.564.803.167 1.641.295 2.514.369l.216-.431c.092-.183.355-.183.447.001z"/><path fill="#FDEBBB" d="M14.724 17.479l.247.493c.34.015.682.028 1.029.028v4c-.348 0-.689-.013-1.029-.028l-.247-.493c-.092-.184-.355-.184-.447 0l-.216.431c-.872-.074-1.71-.203-2.514-.369-.576-1.618-.643-2.987-.479-4.104.945.221 1.945.384 2.992.473l.216-.431c.093-.184.356-.184.448 0z"/><path fill="#FFF3D9" d="M12.75 13.917l3.25-.22v4.304c-.348 0-.689-.013-1.029-.028l-.247-.493c-.092-.184-.355-.184-.447 0l-.216.431c-1.047-.089-2.048-.253-2.992-.473.339-2.306 1.681-3.521 1.681-3.521z"/><path fill="#C1DDEE" d="M14 30.001v-5.562c0-1.105.895-2 2-2v9.562c-1.105 0-2-.896-2-2zM14 30.001v-5.562c0-1.105.895-2 2-2v9.562c-1.105 0-2-.896-2-2z"/><path fill="#fff" d="M13 7.498c0-.166.011-.323.028-.472l-1.028-1.028v2c0 .552.448 1 1 1h.5c-.276 0-.5-.671-.5-1.5z"/><path fill="#F7F7F7" d="M13.972 7.971c-.066.596-.251 1.028-.472 1.028h1.5l-1.028-1.028z"/><path fill="#373F3F" d="M13.972 7.971l-.944-.944c-.017.148-.028.305-.028.471 0 .828.224 1.5.5 1.5.221 0 .406-.432.472-1.027z"/><path fill="#434C4B" d="M16 10.001v3c-.828 0-1.5-.672-1.5-1.5s.672-1.5 1.5-1.5z"/><path d="M15 11.501c0-.552.448-1 1-1v2c-.552 0-1-.449-1-1z" fill="none"/><path fill="#B0D3EA" d="M16 9.501v1c-.552 0-1 .448-1 1s.448 1 1 1v1c-1.103 0-2-.897-2-2s.897-2 2-2z"/></svg>