<svg xmlns="http://www.w3.org/2000/svg" width="32" height="32" viewBox="0 0 32 32"><path fill="#45A396" d="M20.375 30h3.001c.25 0 .462-.185.495-.433l1.191-8.755h-4.688v9.188z"/><path fill="#D1D4D4" d="M20.75 29.993c0 .246.008.445 1.375.445 1.394 0 1.375-.199 1.375-.445s-.616-.552-1.375-.552-1.375.306-1.375.552z"/><path fill="#60C4BC" d="M23.75 11.504c3.125 5.621 1.308 10.371.875 11.496-.89 2.313-2.679 6.145-3.5 8.189-.077.193-.262.312-.47.309l-3.133-.052c-.285-.005-.54-.244-.522-.528 0 0-.406-4.605-.5-6.043-.045-.686-.089-.621-.5-.621v-21.754c5.083 0 7.75 3.55 7.75 9.004z"/><path fill="#4EAFA3" d="M11.625 30h-3.001c-.25 0-.462-.185-.495-.433l-1.191-8.755h4.688v9.188z"/><path fill="#DADDDC" d="M11.25 29.993c0 .246-.008.445-1.375.445-1.394 0-1.375-.199-1.375-.445s.616-.552 1.375-.552 1.375.306 1.375.552z"/><path fill="#79C6C1" d="M16 2.5v21.754c-.411 0-.413-.06-.5.621-.188 1.469-.5 6.043-.5 6.043.018.284-.237.523-.522.528l-3.133.052c-.208.003-.392-.116-.47-.309-.821-2.044-2.611-5.876-3.5-8.189-.433-1.126-2.25-5.875.875-11.496 0-5.454 2.667-9.004 7.75-9.004z"/><path fill="#60C4BC" d="M16 20.583v3.67c-.411 0-.413-.06-.5.621-.188 1.469-.5 6.043-.5 6.043.018.284-.237.523-.522.528l-3.133.052c-.208.003-.392-.116-.47-.309-.821-2.044-2.611-5.876-3.5-8.189-.131-.341-1.031-2.875-.875-4.25 2.057.86 5.75 1.751 9.5 1.834z"/><path fill="#58B7AE" d="M25.5 18.75c.156 1.375-.744 3.909-.875 4.25-.89 2.313-2.679 6.145-3.5 8.189-.077.193-.262.312-.47.309l-3.133-.052c-.285-.005-.54-.244-.522-.528 0 0-.312-4.574-.5-6.043-.087-.682-.089-.621-.5-.621v-3.67c3.75-.084 7.443-.975 9.5-1.834z"/><path fill="#E3E5E5" d="M14.375 31.555c0 .246-.008.445-1.375.445-1.394 0-1.375-.199-1.375-.445s.616-.552 1.375-.552 1.375.306 1.375.552z"/><path fill="#8FCEC9" d="M16 12.066v11c-.72 0-1.276.015-1.703-.74-1.018-1.801-2.047-6.135-2.047-8.072 0-1.334 2.5-2.188 3.75-2.188z"/><path fill="#D64F45" d="M16 11.066v2.688c-2.438 0-4.25 2-4.25-.75 0-1.334 3-1.938 4.25-1.938z"/><ellipse transform="matrix(.259 -.966 .966 .259 .427 19.239)" fill="#373F3F" cx="12.75" cy="9.342" rx="1.526" ry=".821"/><ellipse transform="matrix(.259 -.966 .966 .259 1.009 18.99)" fill="#fff" cx="12.879" cy="8.838" rx=".702" ry=".482"/><ellipse transform="matrix(.966 -.259 .259 .966 -1.762 5.301)" fill="#2B3332" cx="19.25" cy="9.342" rx=".821" ry="1.526"/><ellipse transform="matrix(.966 -.259 .259 .966 -1.636 5.25)" fill="#F7F7F7" cx="19.121" cy="8.838" rx=".482" ry=".702"/><path fill="#60C4BC" d="M10.375 4.785c-4.438 0-7.798 2.439-9.495 5.841-1.813 3.632-.606 8.264 1.644 8.19 4.012-.132 6.501-6.478 7.169-9.154.351-1.408.604-3.049.682-4.877z"/><path fill="#D64F45" d="M.011 14.849c.112 2.23 1.109 4.014 2.512 3.967 1.435-.047 2.672-.897 3.704-2.082-1.882-.34-2.376-1.489-2.65-2.775-.085-.4-.607-.518-.864-.199-.718.889-1.764 1.158-2.702 1.089z"/><path fill="#DADDDC" d="M17.625 31.555c0 .246.008.445 1.375.445 1.394 0 1.375-.199 1.375-.445s-.616-.551-1.375-.551-1.375.305-1.375.551z"/><path fill="#79C6C1" d="M16 12.066v11c.72 0 1.276.015 1.703-.74 1.018-1.801 2.047-6.135 2.047-8.072 0-1.334-2.5-2.188-3.75-2.188z"/><path fill="#D1473D" d="M16 11.066v2.688c2.438 0 4.25 2 4.25-.75 0-1.334-3-1.938-4.25-1.938z"/><path fill="#58B7AE" d="M21.625 4.785c4.438 0 7.798 2.439 9.495 5.841 1.813 3.632.606 8.264-1.644 8.19-4.012-.132-6.501-6.478-7.169-9.154-.351-1.408-.604-3.049-.682-4.877z"/><path fill="#D1473D" d="M31.989 14.849c-.112 2.23-1.109 4.014-2.512 3.967-1.435-.047-2.672-.897-3.704-2.082 1.882-.34 2.376-1.489 2.65-2.775.085-.4.607-.518.864-.199.718.889 1.764 1.158 2.702 1.089z"/></svg>