<svg xmlns="http://www.w3.org/2000/svg" width="32" height="32" viewBox="0 0 32 32"><path fill="#7FB8E0" d="M20.375 30h3.501c.25 0 .462-.185.495-.433l.691-8.755h-4.688v9.188z"/><path fill="#EDEEEE" d="M23.158 30c.234-.299.317-.979-.602-1.384-1.271-.561-1.505 1.085-1.305 1.384h1.907zM23.928 28.957c-.312.73-.119 1.043-.119 1.043h1.572c-.268-.536-.849-1.028-1.453-1.043z"/><path fill="#8EC0E0" d="M11.625 30h-3.501c-.25 0-.462-.185-.495-.433l-.691-8.755h4.688v9.188z"/><path fill="#EDEEEE" d="M8.842 30c-.234-.299-.317-.979.602-1.384 1.271-.561 1.505 1.085 1.305 1.384h-1.907zM8.072 28.957c.312.73.119 1.043.119 1.043h-1.572c.268-.536.849-1.028 1.453-1.043z"/><path fill="#C1DDEE" d="M16 2.5v21.754c-.411 0-.413-.06-.5.621-.188 1.469-.5 6.043-.5 6.043.018.284-.237.523-.522.528l-3.133.052c-.208.003-.392-.116-.47-.309-.821-2.044-2.611-5.876-3.5-8.189-.433-1.126-2.25-5.875.875-11.496 0-3.421 4-9.004 7.75-9.004z"/><path fill="#B0D3EA" d="M16 20.583v3.67c-.411 0-.442-.064-.5.621-.125 1.469-.5 6.543-.5 6.543-.031.301-.237.577-.522.582h-3.603c-.821-2.044-2.611-6.687-3.5-9-.131-.341-1.031-2.875-.875-4.25 2.057.86 5.75 1.751 9.5 1.834z"/><path fill="#fff" d="M10.042 8.9v2.39c0 .142.078.273.204.34l2.782 1.471v-2.793l-2.986-1.408z"/><path fill="#434C4B" d="M.208 7.863c-.257-.042-.283-.397-.038-.483 1.821-.638 3.29-.88 5.562-.88 1.833 0 4.174.731 4.583-.375.417-1.125 1.018-3.625 5.685-3.625v22.375c-1.583 0-3.018-.458-3.018-1.792 0-2.753.5-10.833-1-12.333-1.637-1.637-3.75-.625-6.5-.75-1.741-.079-3.112-1.783-5.274-2.137z"/><path fill="#5C6664" d="M16 11.213h-3.269v1.415c.227 1.198.316 2.763.34 4.359h2.929v-5.774z"/><path fill="#505957" d="M13.01 15.162c.053.955.069 1.968.068 2.959-.001.825-.013 1.63-.029 2.37.705.317 1.651.517 2.952.517v-4.54c-1.22 0-2.376.089-2.991-1.306z"/><path fill="#EDEEEE" d="M7.526 15.854c1.766-.854 3.724.188 3.724 2.125s-1.787 2.438-3.053 2.438-3.176-1.125-3.176-3.688c0-2.251 1.58-4.74 3.686-6.093.246-.158.583.062.46.301-1.56 3.036-1.563 3.563-1.641 4.917z"/><path fill="#E3E5E5" d="M11.25 17.979c0 1.938-1.787 2.438-3.053 2.438s-3.176-1.125-3.176-3.688c0-.54.091-1.095.259-1.643.491 1.476 2.053 3.664 5.97 2.893z"/><path fill="#EDEEEE" d="M11.592 32c-.234-.299-.317-.979.602-1.384 1.271-.561 1.505 1.085 1.305 1.384h-1.907zM10.822 30.957c.312.73.119 1.043.119 1.043h-1.572c.268-.536.849-1.028 1.453-1.043z"/><ellipse fill="#373F3F" cx="11.729" cy="11.03" rx=".5" ry=".75"/><path fill="#EDEEEE" d="M14.297 30.957c-.313.73-.119 1.043-.119 1.043h1.572c-.268-.536-.849-1.028-1.453-1.043z"/><path fill="#505957" d="M12.419 26.047v2.372c0 .297-.235.543-.533.544-1.174.004-2.814-.884-3.14-1.65-.325-.764-.841-1.903-1.033-2.639-.115-.44.237-.687.478-.555 1.605.882 2.343 1.307 3.738 1.391.279.016.49.258.49.537z"/><path fill="#B0D3EA" d="M23.75 11.504c3.125 5.621 1.308 10.371.875 11.496-.89 2.313-2.679 6.145-3.5 8.189-.077.193-.262.312-.47.309l-3.133-.052c-.285-.005-.54-.244-.522-.528 0 0-.312-4.574-.5-6.043-.087-.682-.089-.621-.5-.621v-21.754c3.75 0 7.75 5.583 7.75 9.004z"/><path fill="#9FC9E4" d="M25.5 18.75c.156 1.375-.744 3.909-.875 4.25-.89 2.313-2.679 6.956-3.5 9h-3.603c-.285-.005-.491-.281-.522-.582 0 0-.375-5.074-.5-6.543-.058-.685-.089-.621-.5-.621v-3.67c3.75-.084 7.443-.975 9.5-1.834z"/><path fill="#F7F7F7" d="M21.958 8.9v2.39c0 .142-.078.273-.204.34l-2.782 1.471v-2.793l2.986-1.408z"/><ellipse fill="#2B3332" cx="20.271" cy="11.03" rx=".5" ry=".75"/><path fill="#373F3F" d="M31.792 7.863c.256-.042.283-.397.038-.483-1.821-.638-3.29-.88-5.562-.88-1.833 0-4.174.731-4.583-.375-.417-1.125-1.018-3.625-5.685-3.625v22.375c1.583 0 3.018-.458 3.018-1.792 0-2.753-.5-10.833 1-12.333 1.637-1.637 3.75-.625 6.5-.75 1.741-.079 3.112-1.783 5.274-2.137z"/><path fill="#505957" d="M16 11.213h3.269v1.415c-.227 1.198-.316 2.763-.34 4.359h-2.929v-5.774z"/><path fill="#434C4B" d="M20.883 10.126c-.303.154-.596.342-.872.615l-.011.009c-.085.085-.158.207-.23.332l-.115.225c-.231.513-.396 1.231-.507 2.085-.558-1.845-1.815-1.739-3.148-1.739v-4.539c3.671 0 4.591 1.558 4.883 3.012zM18.99 15.162c-.053.955-.069 1.968-.068 2.959.001.825.013 1.63.029 2.37-.704.318-1.651.518-2.951.518v-4.54c1.219-.001 2.375.088 2.99-1.307z"/><path fill="#E3E5E5" d="M24.474 15.854c-1.766-.854-3.724.188-3.724 2.125s1.787 2.438 3.053 2.438 3.176-1.125 3.176-3.688c0-2.251-1.58-4.74-3.686-6.093-.246-.158-.583.062-.46.301 1.56 3.036 1.563 3.563 1.641 4.917z"/><path fill="#DADDDC" d="M20.75 17.979c0 1.938 1.787 2.438 3.053 2.438s3.176-1.125 3.176-3.688c0-.54-.091-1.095-.259-1.643-.491 1.476-2.053 3.664-5.97 2.893z"/><path fill="#EDEEEE" d="M20.408 32c.234-.299.317-.979-.602-1.384-1.272-.561-1.506 1.085-1.305 1.384h1.907zM21.178 30.957c-.312.73-.119 1.043-.119 1.043h1.572c-.268-.536-.849-1.028-1.453-1.043zM17.703 30.957c.313.73.119 1.043.119 1.043h-1.572c.268-.536.849-1.028 1.453-1.043z"/><path fill="#434C4B" d="M19.581 26.047v2.372c0 .297.235.543.533.544 1.174.004 2.814-.884 3.14-1.65.325-.764.841-1.903 1.033-2.639.115-.44-.237-.687-.478-.555-1.605.882-2.343 1.307-3.738 1.391-.279.016-.49.258-.49.537z"/><path fill="#505957" d="M11.117 10.126c.303.154.596.342.872.615l.011.009c.085.085.158.207.23.332l.115.225c.231.513.396 1.231.507 2.085.558-1.845 1.815-1.739 3.148-1.739v-4.539c-3.671 0-4.591 1.558-4.883 3.012z"/></svg>