<svg xmlns="http://www.w3.org/2000/svg" width="32" height="32" viewBox="0 0 32 32"><path fill="#5CA3D5" d="M21.807 21.077l-1.067-.657-.864-.531c3.231-5.251 1.59-7.046 3.808-10.65 2.209-3.591 5.382-4.326 6.552-4.023.746.877 1.571 4.071-.638 7.662-2.219 3.603-4.56 2.947-7.791 8.199z"/><path fill="#F3586F" d="M23 5.792c0 2.521-1.5 5-4.098 5.646-1.037.258-1.339 1.646-1.339 2.509v1.246c0 1.599.922 1.797 2.438 2.307 3.483 1.174 7 2.438 7 7 0 3.642-4.688 7.5-11 7.5v-31.996c3.749 0 6.999 2.589 6.999 5.788z"/><path fill="#FF5F7E" d="M16 .004v31.996c-6.312 0-11-3.858-11-7.5 0-4.562 3.517-5.826 7-7 1.515-.511 2.438-.709 2.438-2.307v-1.246c0-.863-.271-2.28-1.339-2.509-2.419-.519-4.099-3.126-4.099-5.646 0-3.199 3.25-5.788 7-5.788z"/><path fill="#FF7899" d="M16 .004v7.653c-3.5 0-4.719-.344-7-1.865 0-3.199 3.25-5.788 7-5.788z"/><path fill="#FF6B8B" d="M23 5.792c-2.281 1.521-3.5 1.865-7 1.865v-7.653c3.75 0 7 2.589 7 5.788z"/><path fill="#fff" d="M10.656 8.423c-.496-.008-.957-.212-1.295-.568-.26-.628-.392-1.324-.392-2.063 0-.831.214-1.615.604-2.329 1.709-1.088 2.709 1.102 2.709 2.475-.001 1.372-.728 2.498-1.626 2.485z"/><ellipse fill="#373F3F" cx="10.723" cy="5.789" rx=".875" ry="1.458"/><ellipse fill="#fff" cx="10.723" cy="5.789" rx=".438" ry=".729"/><path fill="#F7F7F7" d="M19.719 5.938c0-1.373 1-3.562 2.709-2.475.39.714.604 1.498.604 2.329 0 .739-.132 1.436-.392 2.063-.338.356-.799.56-1.295.568-.899.013-1.626-1.113-1.626-2.485z"/><ellipse fill="#2B3332" cx="21.277" cy="5.789" rx=".875" ry="1.458"/><ellipse fill="#F7F7F7" cx="21.277" cy="5.789" rx=".438" ry=".729"/><path fill="#65A9DC" d="M16 11.25v-4.693c.841-.001 1.681.122 2.15.371.544.288 1.035.6.717 1.081l-1.792 2.701c-.239.36-.657.54-1.075.54zM21.969 30.725c-1.694.789-3.729 1.275-5.969 1.275v-8.312c3.833 0 5.5 3.687 5.969 7.037zM23.338 20.735c-2.182 2.182-1.815 5.085-.107 6.794 1.709 1.709 4.112 1.575 6.294-.607s3.369-6.23 1.661-7.939-5.666-.43-7.848 1.752z"/><path fill="#71B1E1" d="M16 23.688v8.312c-2.24 0-4.275-.486-5.969-1.275.469-3.35 2.136-7.037 5.969-7.037zM8.662 20.735c2.182 2.182 1.815 5.085.107 6.794-1.709 1.709-4.112 1.575-6.294-.607s-3.369-6.23-1.661-7.939 5.666-.43 7.848 1.752zM14.925 10.71l-1.792-2.701c-.319-.48.173-.792.717-1.081.469-.249 1.309-.372 2.15-.371v4.693c-.418 0-.836-.18-1.075-.54z"/></svg>