<svg xmlns="http://www.w3.org/2000/svg" width="32" height="32" viewBox="0 0 32 32"><circle fill="#724D31" cx="19.771" cy="18.833" r="3.833"/><path fill="#9E6E43" d="M14 29.625h-1.208l-1.792-9.833 2.5-.25z"/><path fill="#532F42" d="M12.77 29.5h1.117l.482.908c.022.042-.008.092-.055.092h-2.058c-.05 0-.08-.056-.052-.098l.566-.902zM14.069 31h1.342l.589.908v.092h-2.55c-.06 0-.096-.056-.062-.098l.681-.902z"/><path fill="#A7794C" d="M16 10.5l-2.375.042s.387 2.164 0 3.802c-.475 2.011-2.375 2.941-2.584 4.829l-.025-.001-.003.223-.013.105.011.096c.037 3.031 2.596 5.56 2.531 6.695-.062 1.094.333 3.75.552 4.896h1.312l.243-8.386.351.011v-12.312z"/><path fill="#C09265" d="M16 3.917c-3.666 0-3.222 3.774-3.222 4.239 0 .639-1.074.965-1.074 2.206 0 1.189 1.479 1.353 1.88 1.611s.24 1.611 2.417 1.611v-9.667z"/><path fill="#8D5B36" d="M16 10.003c-1.611 0-1.924 1.656-2.417 1.969.401.258.24 1.611 2.417 1.611v-3.58z"/><path fill="#FDEBBB" d="M13.932 5.122c-.236-.158-.456-.32-.615-.44.223-.719.115-1.615-.467-2.326.238-.418.379-1.003.104-1.571-.088-.182-.306-.257-.488-.17-.182.088-.258.307-.17.488.122.253.086.521-.006.745-.669-.419-1.479-.433-2.097-.442-.243-.002-.521-.006-.618-.044-.133-.053-.249-.173-.312-.322-.05-.116-.088-.305.008-.533.078-.187-.01-.4-.196-.479-.184-.077-.4.01-.479.195-.151.363-.154.753-.007 1.101.14.331.401.593.718.718.223.088.512.092.878.097.64.008 1.436.019 1.944.5.631.597.66 1.374.469 1.896l-.029.024c-.046.058-.065.125-.071.193l-.044.079-.002.005c-.389.424-1.31.764-2.189.21-.592-.374-.799-1.144-.965-1.762-.095-.354-.17-.633-.31-.827-.198-.276-.517-.465-.872-.519-.377-.053-.752.042-1.065.279-.161.122-.193.35-.071.511.122.161.35.196.512.073.197-.148.387-.16.515-.139.16.023.306.107.389.223.061.085.133.352.196.588.09.335.2.728.376 1.105-.32-.016-.661.045-.941.297-.15.136-.162.367-.027.516.135.15.366.163.516.027.194-.175.665-.259 1.12.068l.236.176c.439.278.911.398 1.362.398.696 0 1.338-.288 1.742-.722.157.117.346.254.549.39.062.042.133.062.203.062.118 0 .234-.057.304-.162.113-.167.068-.394-.1-.506z"/><circle fill="#532F42" cx="11.98" cy="4.314" r=".875"/><path fill="#fff" d="M13.63 7.132c-.126-.072-.291-.024-.351.109-.244.545-.084 1.108.422 1.328.362.157.903-.043 1.166-.409.087-.121.05-.292-.079-.366l-1.158-.662z"/><path fill="#FFFEFC" d="M13.63 7.132c-.126-.072-.291-.024-.351.109-.244.545-.084 1.108.422 1.328.362.157.903-.043 1.166-.409.087-.121.05-.292-.079-.366l-1.158-.662z"/><path fill="#373F3F" d="M13.917 7.295l-.043.248c0 .32.181.579.404.579.18 0 .327-.171.379-.404l-.74-.423z"/><path fill="#F5DEB9" d="M16 22.812h-.359c.079-.389-2.099-6.188.359-6.188v6.188z"/><path fill="#96643B" d="M18 29.625h1.208l1.792-9.833-2.75-.25z"/><path fill="#472236" d="M19.23 29.5h-1.117l-.482.908c-.022.042.008.092.055.092h2.058c.05 0 .08-.056.052-.098l-.566-.902zM17.94 31h-1.326l-.614.908v.092h2.551c.06 0 .095-.056.061-.098l-.672-.902z"/><path fill="#9E6E43" d="M20.989 19.588l.011-.088-.013-.105-.003-.223-.025.001c-.21-1.888-2.109-2.818-2.584-4.829-.387-1.638 0-3.802 0-3.802l-2.375-.042v12.312l.351-.016.243 8.391h1.312c.219-1.146.615-3.802.552-4.896-.065-1.136 2.499-3.668 2.531-6.703z"/><path fill="#B38658" d="M16 3.917c3.666 0 3.222 3.774 3.222 4.239 0 .639 1.074.965 1.074 2.206 0 1.189-1.479 1.353-1.88 1.611s-.24 1.611-2.417 1.611v-9.667z"/><path fill="#845331" d="M16 10.003c1.611 0 1.924 1.656 2.417 1.969-.401.258-.24 1.611-2.417 1.611v-3.58z"/><path fill="#FAE09F" d="M18.068 5.122c.236-.158.456-.32.615-.44-.223-.719-.115-1.615.467-2.326-.238-.418-.379-1.003-.104-1.571.088-.182.306-.257.488-.17.182.088.258.307.17.488-.122.253-.086.521.006.745.669-.419 1.479-.433 2.097-.442.244-.003.521-.007.619-.045.132-.053.249-.173.312-.322.049-.116.088-.305-.008-.533-.078-.187.01-.4.196-.479.184-.077.4.01.479.195.151.362.154.753.007 1.101-.14.331-.401.593-.718.718-.223.088-.512.092-.878.097-.64.008-1.436.019-1.944.5-.631.597-.66 1.374-.469 1.896l.029.024c.046.058.065.125.071.193l.044.079.002.005c.389.424 1.31.764 2.189.21.591-.374.798-1.144.964-1.762.095-.354.17-.633.31-.827.199-.275.517-.465.873-.519.376-.054.751.042 1.064.278.161.122.193.351.072.512-.122.161-.351.195-.512.072-.197-.148-.387-.16-.515-.139-.16.023-.306.107-.389.223-.062.085-.134.353-.197.589-.09.335-.2.728-.376 1.105.32-.016.661.045.941.297.15.135.162.366.027.516-.135.15-.366.163-.516.027-.194-.175-.665-.259-1.12.068l-.236.176c-.439.278-.911.398-1.362.398-.696 0-1.338-.288-1.742-.722-.157.117-.346.254-.549.39-.062.042-.133.062-.203.062-.118 0-.234-.057-.304-.162-.113-.166-.068-.393.1-.505z"/><circle fill="#472236" cx="20.02" cy="4.314" r=".875"/><path fill="#F7F7F7" d="M18.37 7.132c.126-.072.291-.024.351.109.244.545.084 1.108-.422 1.328-.362.157-.903-.043-1.166-.409-.087-.121-.05-.292.079-.366l1.158-.662z"/><path fill="#FFFEFC" d="M18.37 7.132c.126-.072.291-.024.351.109.244.545.084 1.108-.422 1.328-.362.157-.903-.043-1.166-.409-.087-.121-.05-.292.079-.366l1.158-.662z"/><path fill="#2B3332" d="M18.083 7.295l.043.248c0 .32-.181.579-.404.579-.18 0-.327-.171-.379-.404l.74-.423z"/><path fill="#EFD4A7" d="M16 22.812h.359c-.079-.389 2.099-6.188-.359-6.188v6.188z"/></svg>