<svg xmlns="http://www.w3.org/2000/svg" width="32" height="32" viewBox="0 0 32 32"><path fill="#EACEA1" d="M28.892 16.633c-4.508 2.401-8.079.847-10.212-.081-.485-.211-1.15-.5-1.357-.496l-.23-1.986c.702-.085 1.445.238 2.385.648 2.033.885 4.819 2.096 8.474.15l.94 1.765z"/><ellipse fill="#EACEA1" cx="28.206" cy="16.108" rx="1.441" ry="1.276"/><path fill="#E0C193" d="M20.679 28.916c-.548 0-1.099-.056-1.62-.162-2.144-.44-3.476-1.671-3.476-3.212h1c0 1.562 2.049 2.104 2.677 2.232 1.833.376 4.142-.024 4.655-1.222.148-.345.058-.646-.113-1.148-.255-.748-.605-1.773.315-3.251.413-.663 1.035-.884 1.585-1.078 1.247-.44 2.798-.989 2.798-8.075h1c0 7.207-1.569 8.348-3.464 9.019-.538.189-.853.314-1.07.663-.669 1.075-.449 1.719-.217 2.4.184.539.392 1.149.085 1.865-.586 1.368-2.357 1.969-4.155 1.969zM20.679 28.916c-.548 0-1.099-.056-1.62-.162-2.144-.44-3.476-1.671-3.476-3.212h1c0 1.562 2.049 2.104 2.677 2.232 1.833.376 4.142-.024 4.655-1.222.148-.345.058-.646-.113-1.148-.255-.748-.605-1.773.315-3.251.413-.663 1.035-.884 1.585-1.078 1.247-.44 2.798-.989 2.798-8.075h1c0 7.207-1.569 8.348-3.464 9.019-.538.189-.853.314-1.07.663-.669 1.075-.449 1.719-.217 2.4.184.539.392 1.149.085 1.865-.586 1.368-2.357 1.969-4.155 1.969z"/><path fill="#F5DEB9" d="M7.376 24.206c-.198-5.104 2.755-7.642 4.52-9.158.401-.345.951-.817 1.037-1.006l1.888.657c-.229.669-.844 1.197-1.622 1.865-1.682 1.445-3.985 3.426-3.825 7.563l-1.998.079zM16 12h-2s-.375 3.188-1.25 4.812c-1.219 2.264-2.25 3.442-2.25 5.688 0 3.125 3.25 4.5 5.5 4.5v-15z"/><path fill="#EFD4A7" d="M16 24.562c-1.813 0-3.688-.438-5.5-2.062 0 3.125 3.25 4.5 5.5 4.5v-2.438zM13.937 26.188c-.25.812-.326 3.161 0 3.812.813 1.625-1.5 2-2.937 2-1.471 0-2.938-1.438-2-2 .937-.562 3.295.205 3.062-.375-.375-.937-.25-4.313-.062-4.625.187-.312 1.937 1.188 1.937 1.188z"/><path fill="#96643B" d="M16 13.902v2.382c-2.219 0-3.292-1.334-3.292-3.011 0-.431.092-.839.254-1.21.435 1.019 1.402 1.768 2.583 1.846.154.01.306.006.455-.007zM11.396 6.157c-1.598.943-4.162 3.512-4.176 6.001 0 .081.069.152.15.159 3.802.315 6.317-2.317 6.317-2.317l-2.291-3.843z"/><path fill="#FCE8CC" d="M11 6.5c0 1.625.812 7.5 5 7.5v-8.625l-5 1.125z"/><path fill="#96643B" d="M11.004 6.642c.022.926.271 2.857 1.071 4.517l.108.025c1.159.116 2.22-.993 2.369-2.477.123-1.225-.418-2.311-1.26-2.723l-2.149.484-.139.174z"/><path fill="#fff" d="M12.628 6.76c-.673-.068-2.003-.479-1.48 1.32.088.553.225 1.17.422 1.798.195.198.436.328.708.356.749.075 1.434-.641 1.53-1.6.097-.96-.432-1.799-1.18-1.874z"/><ellipse transform="matrix(.1 -.995 .995 .1 3.114 20.554)" fill="#2B3332" cx="12.918" cy="8.556" rx=".5" ry=".375"/><path fill="#F5DEB9" d="M16 7.5c-1.313 0-1.75-.812-2.875-.562-1.426.316-3.125 1.065-3.125-.938 0-1.75 2.5-3 4.562-3 .628 0 .25-3 1.438-3v7.5z"/><path fill="#EACEA1" d="M16 7.5c-1.313 0-1.75-.812-2.875-.562-1.426.316-3.125 1.065-3.125-.938 1.344-.031 1.937-.406 2.906-.567 1.881-.313 2.233.473 3.094.473v1.594z"/><path fill="#F5DEB9" d="M9.984 24.919c0-.446-.29-.816-.688-.956-.221-.287-.552-.484-.942-.484-.422 0-.775.229-.991.557-.427.115-.749.488-.749.951 0 .554.449 1.003 1.003 1.003l.062-.013c.103.305.382.528.722.528.364 0 .656-.258.736-.598.478-.086.847-.485.847-.988z"/><path fill="#E2D4C3" d="M9.374 24.128v-.19c-.18.1-.377.166-.582.213l.582-.023zM7.376 24.206l.604-.024c-.214-.031-.417-.09-.605-.177l.001.201z"/><path fill="#96643B" d="M8.212 23.118c-.292-.023-.562-.107-.808-.231-.026.358-.038.729-.029 1.117.188.087.753.193 1.083.183.388-.012.735-.151.915-.25-.008-.375.005-.731.036-1.071-.356.189-.765.287-1.197.252zM11.955 29.823c.241.077.688.155.973.147.388-.012.735-.151.915-.25v-.01c-.063-.264-.1-.616-.115-1.006-.321.142-.672.226-1.047.196-.289-.023-.556-.106-.8-.228.039.399.097.74.182.953.042.105-.003.165-.108.198zM8.429 21.192c-.256-.021-.499-.084-.72-.183-.086.328-.155.673-.21 1.032.255.132.539.217.843.241.423.034.825-.06 1.177-.239.085-.445.202-.858.345-1.243-.405.283-.904.435-1.435.392z"/><path fill="#EFD4A7" d="M16 12h2s.375 3.188 1.25 4.812c1.219 2.264 2.25 3.442 2.25 5.688 0 3.125-3.25 4.5-5.5 4.5v-15z"/><path fill="#EACEA1" d="M16 24.562c1.812 0 3.688-.438 5.5-2.062 0 3.125-3.25 4.5-5.5 4.5v-2.438zM18.062 26.188c.25.812.326 3.161 0 3.812-.812 1.625 1.5 2 2.938 2 1.471 0 2.938-1.438 2-2s-3.295.205-3.062-.375c.374-.937.25-4.313.062-4.625l-1.938 1.188z"/><path fill="#845331" d="M16.455 13.908c1.181-.078 2.148-.827 2.583-1.846.162.371.254.779.254 1.21 0 1.677-1.042 3.011-3.292 3.011v-2.382c.149.014.301.018.455.007zM20.604 6.157c1.598.943 4.162 3.512 4.176 6.002 0 .081-.069.152-.15.159-3.802.314-6.318-2.318-6.318-2.318l2.292-3.843z"/><path fill="#F5DEB9" d="M21 6.5c0 1.625-.812 7.5-5 7.5v-8.625l5 1.125z"/><path fill="#845331" d="M20.996 6.642c-.022.926-.271 2.857-1.071 4.517l-.108.025c-1.159.116-2.22-.993-2.369-2.477-.123-1.225.418-2.311 1.26-2.723l2.149.484.139.174z"/><path fill="#fff" d="M19.372 6.76c.673-.068 2.003-.479 1.48 1.32-.088.553-.225 1.17-.422 1.798-.195.198-.436.328-.708.356-.749.075-1.434-.641-1.53-1.6-.097-.96.432-1.799 1.18-1.874z"/><path fill="#EFD4A7" d="M16 7.5c1.312 0 1.75-.812 2.875-.562 1.426.316 3.125 1.065 3.125-.938 0-1.75-2.5-3-4.562-3-.629 0-.25-3-1.438-3v7.5z"/><path fill="#E0C193" d="M16 7.5c1.312 0 1.75-.812 2.875-.562 1.426.316 3.125 1.065 3.125-.938-1.344-.031-1.938-.406-2.906-.567-1.881-.313-2.233.473-3.094.473v1.594z"/><path fill="#845331" d="M20.045 29.823c-.241.077-.688.155-.973.147-.388-.012-.735-.151-.915-.25v-.01c.063-.264.1-.616.115-1.006.321.142.672.226 1.047.196.289-.023.556-.106.8-.228-.039.399-.097.74-.182.953-.042.105.003.165.108.198z"/><ellipse fill="#EACEA1" cx="27.806" cy="14.719" rx=".712" ry=".828"/><ellipse fill="#EACEA1" cx="29.939" cy="15.538" rx=".732" ry=".762"/><ellipse fill="#EACEA1" cx="29.722" cy="16.877" rx=".732" ry=".762"/><path fill="#E0C193" d="M29.045 5.978c-.093-.062-.22-.052-.302.024-.954.886-2.275 2.669-2.275 4.497 0 1.625.833 3 2.458 3 1.806 0 4.39-1.165 2.289-5.786-.044-.096-.194-.052-.195.054-.004.399.036.866-.141 1.283.063-1.314-.782-2.371-1.834-3.072z"/><path fill="#48A353" d="M31.215 7.712c-.044-.096-.194-.052-.195.054-.004.399.036.866-.141 1.283.062-1.312-.782-2.37-1.835-3.071-.093-.062-.22-.052-.302.024-.954.886-2.275 2.669-2.275 4.497l.001.018.342.179.41-.783.421.221.469-.894 1.049.549.284-.542 1.806.946.518-.989c-.127-.454-.304-.947-.552-1.492z"/><path fill="#845331" d="M26.566 16.488c.039.434-.098.833-.335 1.159.416-.098.842-.228 1.279-.393.118-.263.18-.556.152-.864-.041-.449-.252-.839-.561-1.122-.308.129-.609.235-.905.322.199.251.339.553.37.898zM25.829 16.389c-.021-.237-.09-.459-.195-.657-.37.08-.73.131-1.078.156.091.184.158.382.177.6.05.556-.174 1.067-.554 1.419.352-.005.717-.036 1.089-.084.385-.355.611-.873.561-1.434z"/><ellipse transform="matrix(.995 -.1 .1 .995 -.76 1.95)" fill="#2B3332" cx="19.082" cy="8.556" rx=".375" ry=".5"/></svg>