<svg xmlns="http://www.w3.org/2000/svg" width="32" height="32" viewBox="0 0 32 32"><path fill="#E5BDE5" d="M12.009 21.051l-1.338-.579 1.882-4.194 1.318.581zM9.667 20.875c-.16.319-.042 1.192.238 1.413.496.393 1.262.628 2.012.795.805 0 .875-.926.875-1.708s-.653-1.417-1.458-1.417c-.686 0-1.289.163-1.667.917z"/><path fill="#C8CCCB" d="M11.798 19.213c-.165-.07-.302-.174-.437-.278l-.48 1.07c.139.11.289.21.461.282.308.131.629.172.941.149l.475-1.07c-.318.027-.646-.02-.96-.153z"/><path fill="#DADDDC" d="M12.255 18.139c-.158-.067-.287-.167-.417-.266l-.481 1.073c.135.104.279.197.442.267.315.134.643.173.962.147l.475-1.069c-.325.031-.66-.015-.981-.152z"/><path fill="#E5BDE5" d="M15 9.893v1.443c-.718.095-1.476.319-1.833.914-.25.417-.208 1.083 0 1.5-.506 1.725-.708 3.042-.708 3.042l1.412.067.629-2.417v4.743h1.5v-9.292h-1z"/><path fill="#B38658" d="M12.546 28.523c-1.21.097-2.902.608-2.87 1.858.032 1.25 2.055 1.619 3.016 1.619s2.308-.209 2.308-1.555-.526-1.787-1.3-1.886c-.826-.107-1.154-.036-1.154-.036z"/><path fill="#E5BDE5" d="M13.654 29.592c-.203.335-1.264.265-1.326-.14l.714-6.754 1.823.193-.927 4.849s-.041 1.451-.284 1.852zM13.006 27.638l-.636-1.044c-.209-.258-.284-1.149.43-1.618.15-.098.624-.353.624-.353.258-.209.664-.585.872-.327 0 0-.018 1.243.043 1.651.097.651 0 1.202-.243 1.428-.302.282-.419.794-.419.794-.256.21-.462-.273-.671-.531z"/><path fill="#B38658" d="M16 18.296v4.576c-.458 0-.583 1.587-1.625 1.587-2.5 0-2.983-1.897-2.792-3.382.208-1.618 1.646-3.348 3.188-3.348.713 0 1.057.151 1.229.567z"/><path fill="#DADDDC" d="M16 16.5v1.208c-.571 0-1.088-.147-1.5-.381v-1.22c.411.239.924.393 1.5.393z"/><path fill="#C8CCCB" d="M16 17.708c-.576 0-1.089-.154-1.5-.393 0 0-.019.243-.202.374-.166.119-.266.151-.482.253.161.229.406.432.684.592v.001l.002.001.008.005v-.002c.41.232.923.378 1.49.378v-1.209z"/><path fill="#E0ABDF" d="M19.991 21.051l1.338-.579-1.882-4.194-1.318.581zM22.333 20.875c.16.319.042 1.192-.238 1.413-.496.393-1.262.628-2.012.795-.805 0-.875-.926-.875-1.708s.653-1.417 1.458-1.417c.686 0 1.289.163 1.667.917z"/><path fill="#ABB2B1" d="M20.202 19.213c.165-.07.302-.174.437-.278l.48 1.07c-.139.11-.289.21-.461.282-.308.131-.629.172-.941.149l-.475-1.07c.318.027.646-.02.96-.153z"/><path fill="#C8CCCB" d="M19.745 18.139c.158-.067.287-.167.417-.266l.481 1.073c-.135.104-.279.197-.442.267-.315.134-.643.173-.962.147l-.475-1.069c.325.031.66-.015.981-.152z"/><path fill="#E0ABDF" d="M19.542 16.792s-.203-1.316-.708-3.042c.208-.417.25-1.083 0-1.5-.357-.595-1.116-.82-1.833-.914v-1.443h-1v9.292h1.5v-4.743l.629 2.417 1.412-.067z"/><path fill="#A7794C" d="M19.454 28.523c1.21.097 2.902.608 2.87 1.858-.032 1.25-2.055 1.619-3.016 1.619s-2.308-.209-2.308-1.555.526-1.787 1.3-1.886c.826-.107 1.154-.036 1.154-.036z"/><path fill="#E0ABDF" d="M18.346 29.592c.203.335 1.264.265 1.326-.14l-.714-6.754-1.823.193.927 4.849s.041 1.451.284 1.852zM18.994 27.638l.636-1.044c.209-.258.284-1.149-.43-1.618-.15-.098-.624-.353-.624-.353-.258-.209-.664-.585-.872-.327 0 0 .018 1.243-.043 1.651-.097.651 0 1.202.243 1.428.302.282.419.794.419.794.256.21.462-.273.671-.531z"/><path fill="#EBCEEB" d="M16 2.053v8.786c-2.83 0-5.125-1.967-5.125-4.393s2.295-4.393 5.125-4.393z"/><path fill="#fff" d="M14.715 5.759l-2.025-.637c-.222.22-.357.832-.357 1.4 0 .564.135.918.351 1.345l1.804-.216c.227-.303.369-.706.369-1.153 0-.266-.054-.515-.142-.739z"/><path fill="#FFFFFD" d="M14.715 5.759l-2.025-.637c-.222.22-.357.832-.357 1.4 0 .564.135.918.351 1.345l1.804-.216c.227-.303.369-.706.369-1.153 0-.266-.054-.515-.142-.739z"/><path fill="#B38658" d="M13.107 6.43c0 .686.223 1.231.509 1.325l.218-.026c.258-.146.453-.659.453-1.299 0-.327-.056-.615-.14-.85l-.782-.246c-.152.247-.258.635-.258 1.096z"/><ellipse fill="#2B3332" cx="13.825" cy="6.32" rx=".239" ry=".554"/><path fill="#E5BDE5" d="M11.472 8.463c.189-.526.306-1.129.306-1.782 0-.776-.158-1.489-.419-2.075-.304.561-.485 1.18-.485 1.84.001.731.229 1.411.598 2.017zM16 0s-.344 0-.561.217c-.182.182-.494 1.995-.589 2.574-.018.112.025.22.113.292 0 0 .613.828 1.037.828v-3.911zM21.125 6.446c0 2.426-2.295 4.393-5.125 4.393v-8.786c2.83 0 5.125 1.967 5.125 4.393z"/><path fill="#fff" d="M17.285 5.759l2.025-.636c.222.22.357.832.357 1.4 0 .564-.135.918-.351 1.345l-1.804-.216c-.227-.303-.369-.706-.369-1.153 0-.267.054-.516.142-.74z"/><path fill="#FFFFFD" d="M17.285 5.759l2.025-.636c.222.22.357.832.357 1.4 0 .564-.135.918-.351 1.345l-1.804-.216c-.227-.303-.369-.706-.369-1.153 0-.267.054-.516.142-.74z"/><path fill="#B38658" d="M18.893 6.43c0 .686-.223 1.231-.509 1.325l-.218-.026c-.258-.146-.453-.659-.453-1.299 0-.327.056-.615.14-.85l.782-.246c.152.247.258.635.258 1.096z"/><ellipse fill="#2B3332" cx="18.175" cy="6.32" rx=".239" ry=".554"/><path fill="#E0ABDF" d="M20.528 8.463c-.189-.526-.306-1.129-.306-1.782 0-.776.158-1.489.419-2.075.304.561.485 1.18.485 1.84-.001.731-.229 1.411-.598 2.017zM16 0s.344 0 .561.217c.182.182.494 1.995.589 2.574.018.112-.025.22-.113.292 0 0-.688.828-1.037.828v-3.911z"/><path fill="#2B3332" d="M15.982 9.705c-.479 0-.952-.094-1.173-.28-.108-.092-.122-.253-.031-.361.092-.108.254-.12.361-.031.234.197 1.398.225 1.738-.013.116-.082.275-.054.357.062.082.116.054.275-.063.356-.252.177-.724.267-1.189.267z"/><path fill="#A7794C" d="M17.229 17.729c1.542 0 2.979 1.729 3.188 3.348.191 1.485-.292 3.382-2.792 3.382-1.042 0-1.167-1.587-1.625-1.587v-4.576c.172-.416.516-.567 1.229-.567z"/><path fill="#C8CCCB" d="M17.5 16.107v1.22c-.412.235-.929.381-1.5.381v-1.208c.576 0 1.089-.154 1.5-.393z"/><path fill="#ABB2B1" d="M16 17.708c.576 0 1.089-.154 1.5-.393 0 0 .019.243.202.374.166.119.266.151.482.253-.161.229-.406.432-.684.592v.001l-.002.001-.008.005v-.002c-.41.232-.923.378-1.49.378v-1.209z"/></svg>