<svg xmlns="http://www.w3.org/2000/svg" width="32" height="32" viewBox="0 0 32 32"><ellipse transform="matrix(.707 -.707 .707 .707 -15.334 22.98)" fill="#FAE09F" cx="20.072" cy="30" rx="1.569" ry="2.353"/><ellipse transform="matrix(.707 -.707 .707 .707 -17.698 17.272)" fill="#FDEBBB" cx="12" cy="30" rx="2.353" ry="1.569"/><path fill="#EA8BB4" d="M23 25.75c0-4.349-3.134-8.75-7-8.75v14c3.866 0 7-.901 7-5.25z"/><path fill="#F297BE" d="M16 17c-3.866 0-7 4.401-7 8.75s3.134 5.25 7 5.25v-14z"/><path fill="#FAE09F" d="M13.264.271c-.105.538-.25 1.782.346 2.899-1.653-.918-4.06-1.668-6.922-.771-.178.055-.231.287-.096.415.716.678 2.732 2.344 5.545 2.65-2.958.894-6.743 3.34-8.031 9.929-.06.306.18.591.493.591h.401l-.942 5.65c-.036.219.074.433.272.531.993.494 4.344 1.819 11.67 1.819v-21.491c-.268-.928-.929-1.883-2.412-2.409-.141-.05-.295.04-.324.187z"/><path fill="#F7D684" d="M27.893 15.393c-1.288-6.589-5.073-9.035-8.031-9.929 2.814-.307 4.83-1.972 5.546-2.65.135-.128.082-.36-.095-.416-2.84-.89-5.233-.157-6.885.751.58-1.102.449-2.323.349-2.855-.028-.147-.182-.238-.323-.189-1.533.53-2.193 1.521-2.454 2.473v21.406c7.326 0 10.677-1.325 11.669-1.818.199-.099.309-.313.272-.531l-.941-5.651h.401c.312 0 .552-.284.492-.591z"/><path fill="#FFF3D9" d="M16 17c-2.717 0-5.07 2.174-6.23 4.975l-.001-.001-1.136.831c-.899.658-1.087 1.923-.419 2.814l1.16 1.547c.362.483 1.018.638 1.558.368.411-.205.644-.61.672-1.04 1.263.373 2.768.506 4.396.506v-10z"/><path fill="#FDEBBB" d="M20.396 26.493c.028.43.261.835.672 1.04.54.27 1.196.115 1.558-.368l1.16-1.547c.668-.891.48-2.156-.419-2.814l-1.136-.831-.001.002c-1.159-2.801-3.513-4.975-6.23-4.975v10c1.629 0 3.134-.133 4.396-.507z"/><path fill="#F8A1C4" d="M16 8c-4.971 0-9 3.029-9 8s4.029 8 9 8v-16z"/><path fill="#F297BE" d="M25 16c0-4.971-4.029-8-9-8v16c4.971 0 9-3.029 9-8z"/><circle fill="#fff" cx="11.5" cy="14.5" r="2.5"/><circle fill="#F7F7F7" cx="20.5" cy="14.5" r="2.5"/><path fill="#2B3332" d="M18 14.5c0 .432.12.833.313 1.187.354.193.755.313 1.187.313 1.381 0 2.5-1.119 2.5-2.5 0-.432-.12-.833-.313-1.187-.354-.193-.755-.313-1.187-.313-1.381 0-2.5 1.119-2.5 2.5z"/><path fill="#373F3F" d="M20 13.5c-.942 0-1.717.656-1.928 1.533.054.23.13.451.241.654.354.193.755.313 1.187.313.992 0 1.842-.583 2.246-1.421-.335-.634-.979-1.079-1.746-1.079zM9 14.5c0 .432.12.833.313 1.187.354.193.755.313 1.187.313 1.381 0 2.5-1.119 2.5-2.5 0-.432-.12-.833-.313-1.187-.354-.193-.755-.313-1.187-.313-1.381 0-2.5 1.119-2.5 2.5z"/><path fill="#FAC4D1" d="M16 16c-1.657 0-3 1.567-3 3.5s1.343 3.5 3 3.5v-7z"/><path fill="#FAB8CD" d="M19 19.5c0-1.933-1.343-3.5-3-3.5v7c1.657 0 3-1.567 3-3.5z"/><circle fill="#F7F7F7" cx="19.5" cy="13.5" r=".5"/><path fill="#FAE09F" d="M6 13.5s2.815-.938 7.537-.997c.248-.003.466-.183.495-.429.094-.8.471-2.577 1.968-4.074l-6-.5s-3 2-4 6z"/><path fill="#F7D684" d="M26 13.5s-2.815-.938-7.537-.997c-.248-.003-.466-.183-.495-.429-.094-.8-.471-2.577-1.968-4.074l6-.5s3 2 4 6z"/><path fill="#434C4B" d="M11 13.5c-.942 0-1.717.656-1.928 1.533.054.23.13.451.241.654.354.193.755.313 1.187.313.992 0 1.842-.583 2.246-1.421-.335-.634-.979-1.079-1.746-1.079z"/><circle fill="#fff" cx="10.5" cy="13.5" r=".5"/><path fill="#F297BE" d="M16 17c-.552 0-1 .672-1 1.5s.448 1.5 1 1.5v-3z"/><path fill="#EA8BB4" d="M17 18.5c0-.828-.448-1.5-1-1.5v3c.552 0 1-.672 1-1.5z"/></svg>