<svg xmlns="http://www.w3.org/2000/svg" width="32" height="32" viewBox="0 0 32 32"><path fill="#FFD96C" d="M14 7.157v-6.157c0-.552-.448-1-1-1h-1.895c-.592 0-1.054.511-.995 1.099l.708 7.081c-3.197 1.724-4.818 5.229-4.818 9.82 0 6.627 3.373 12 10 12v-23c-.706 0-1.368.06-2 .157zm-1.9-6.157c.497 0 .9.403.9.9v1.263c0 .462-.375.837-.837.837-.43 0-.79-.326-.833-.754l-.126-1.256c-.053-.53.364-.99.896-.99z"/><path fill="#FFD04D" d="M21.182 8.181l.708-7.081c.059-.589-.403-1.1-.995-1.1h-1.895c-.552 0-1 .448-1 1v6.157c-.632-.097-1.294-.157-2-.157v23c6.627 0 10-5.373 10-12 0-4.591-1.621-8.096-4.818-9.819zm-2.182-6.281c0-.497.403-.9.9-.9.532 0 .949.46.896.99l-.126 1.256c-.043.428-.403.754-.833.754-.462 0-.837-.375-.837-.837v-1.263zM32 27s0-7-7-11v2h1c3 3 0 7.182 0 9h6z"/><path fill="#2B3332" d="M29 22c.794 0 1.51.314 2.046.817.947 2.336.954 4.183.954 4.183h-6c0-.967.844-2.604 1.187-4.376.505-.386 1.128-.624 1.813-.624zM28.721 19.038c.562.647 1.032 1.303 1.417 1.953-1.405-1.106-2.812.009-2.812.009l-.002-.003c-.022-.462-.112-.921-.276-1.37.616-.539 1.196-.654 1.673-.589z"/><path fill="#FFD96C" d="M0 27s0-7 7-11v2h-1c-3 3 0 7.182 0 9h-6z"/><path fill="#F7F7F7" d="M18.16 14.896l4.407-1.763c.164-.066.344.051.343.227-.002.853-.193 2.942-2.012 3.14-1.731.189-2.559-.763-2.86-1.241-.083-.132-.024-.305.122-.363z"/><path fill="#2B3332" d="M19.898 16c.552 0 1-.895 1-2l-.01-.196-1.942.777c.125.819.502 1.419.952 1.419z"/><path fill="#fff" d="M13.864 14.896l-4.407-1.763c-.164-.066-.344.051-.343.227.002.853.193 2.942 2.012 3.14 1.731.189 2.559-.763 2.86-1.241.083-.132.024-.305-.122-.363z"/><path fill="#2B3332" d="M12.126 16c-.552 0-1-.895-1-2l.01-.196 1.942.777c-.125.819-.502 1.419-.952 1.419z"/><path fill="#373F3F" d="M16 18h-1.915c-.237 0-.442.167-.49.399l-.825 4c-.063.31.174.601.49.601h1.386l-.676 3.381c-.097.485.494.801.844.452l1.186-1.186v-7.647z"/><path fill="#2B3332" d="M19.439 21h-.793l.781-2.342c.108-.324-.133-.658-.474-.658h-2.953v7.647l3.793-3.793c.315-.315.092-.854-.354-.854z"/><path fill="#373F3F" d="M9.306 21c.341 0 .582-.334.474-.658l-.667-2c-.067-.204-.258-.342-.473-.342h-2.64c0 1.038.093 2.039.258 3h3.048zM11.114 23.342c-.068-.204-.259-.342-.474-.342h-3.898c.353 1.101.833 2.109 1.438 3h3.126c.341 0 .582-.334.474-.658l-.666-2z"/><path fill="#2B3332" d="M22.886 18.342l-.667 2c-.108.324.133.658.475.658h3.049c.164-.961.257-1.962.257-3h-2.64c-.215 0-.406.138-.474.342zM25.258 23h-3.898c-.215 0-.406.138-.474.342l-.667 2c-.108.324.133.658.475.658h3.126c.605-.891 1.086-1.899 1.438-3z"/><path fill="#FFE28A" d="M13.31 31.698c1.152-.772.828-2.835-.724-4.606s-3.744-2.582-4.896-1.809-.828 2.835.724 4.606 3.744 2.581 4.896 1.809z"/><path fill="#FFD96C" d="M24.31 25.283c1.152.772.828 2.835-.724 4.606s-3.744 2.581-4.896 1.809c-1.152-.772-.828-2.835.724-4.606s3.744-2.582 4.896-1.809z"/><circle fill="#FFD96C" cx="29" cy="27" r="3"/><path fill="#373F3F" d="M3 22c-.794 0-1.51.314-2.046.817-.947 2.336-.954 4.183-.954 4.183h6c0-.967-.844-2.604-1.187-4.376-.505-.386-1.128-.624-1.813-.624z"/><circle fill="#FFE28A" cx="3" cy="27" r="3"/><path fill="#373F3F" d="M3.279 19.038c-.562.647-1.032 1.303-1.417 1.953 1.405-1.106 2.812.009 2.812.009l.002-.003c.022-.462.112-.921.276-1.37-.616-.539-1.196-.654-1.673-.589z"/><circle fill="#F7F7F7" cx="3" cy="25" r="1"/><ellipse transform="matrix(.5 -.866 .866 .5 -21.883 18.098)" fill="#F7F7F7" cx="4.732" cy="28" rx="1" ry="1"/><ellipse transform="matrix(.866 -.5 .5 .866 -13.83 4.385)" fill="#F7F7F7" cx="1.268" cy="28" rx="1" ry="1"/><circle fill="#EDEEEE" cx="29" cy="25" r="1"/><ellipse transform="matrix(.5 -.866 .866 .5 -8.883 40.615)" fill="#EDEEEE" cx="30.732" cy="28" rx="1" ry="1"/><ellipse transform="matrix(.866 -.5 .5 .866 -10.347 17.385)" fill="#EDEEEE" cx="27.268" cy="28" rx="1" ry="1"/></svg>