<svg xmlns="http://www.w3.org/2000/svg" width="32" height="32" viewBox="0 0 32 32"><path d="M31.362 30.299l-1.316-3.51c-.651-1.735-2.151-3.011-3.968-3.374l-.003-.001c-1.333-.267-2.718-.017-3.874.7l-.674.418c-.666.413-1.527-.066-1.527-.85v-1.204c0-1.848.878-3.56 2.311-4.726 2.251-1.832 3.689-3.623 3.689-6.752 0-5.523-4.477-9.999-10-9.999-.376 0-.756.02-1.141.062-4.47.495-8.148 4.061-8.761 8.517-.512 3.721 1.026 6.113 3.646 8.216 1.421 1.141 2.256 2.856 2.256 4.678v2.329c0 2.183.719 3.916 2 5.196.583.583 1.264 1.043 2 1.378.881.403 1.842.623 2.828.623h1.343c1.811 0 3.548-.719 4.828-2l1.367-1.367c.36-.36.934-.392 1.332-.074l2.883 2.306c.397.318.96-.09.781-.566z" fill="#866EBA"/><path d="M26.269 25.731c-2.885 0-3.923 2.923-6.956 3.038-3.032.116-3.313-2.577-3.313-2.577v-25.191c-.376 0-.756.02-1.141.062-4.47.495-8.148 4.061-8.761 8.517-.512 3.721 1.026 6.113 3.646 8.216 1.421 1.141 2.256 2.856 2.256 4.678v2.329c0 2.183.719 3.916 2 5.196.583.583 1.264 1.043 2 1.378.881.403 1.842.623 2.828.623h1.343c1.811 0 3.548-.719 4.828-2l1.367-1.367c.36-.36.934-.392 1.332-.074l2.883 2.306c.198.159.438.136.606.015h.001c0-.001-2.15-5.149-4.919-5.149z" fill="#9179C6"/><path d="M20 23.682v-1.204l.028-.478h-8.055l.027.474v2.329c0 2.183.719 3.916 2 5.196.169.169.362.305.547.453l5.927-5.927c-.276-.17-.474-.47-.474-.843z" fill="#7A63AD"/><path d="M16 26.192v-4.192h-4.027l.027.474v2.329c0 2.183.719 3.916 2 5.196.169.169.362.305.547.453l2.421-2.421c-.853-.761-.968-1.839-.968-1.839z" fill="#866EBA"/><path d="M21.527 24.532c-.349.216-.749.183-1.053-.006l-5.927 5.927c.452.363.931.687 1.453.925.881.402 1.842.622 2.828.622h1.343c1.581 0 3.105-.549 4.319-1.54l-2.963-5.928z" fill="#6E57A0"/><path d="M22.859 27.198c-1.003.748-2.023 1.514-3.546 1.572-1.113.042-1.852-.294-2.346-.736l-2.421 2.421c.452.363.931.687 1.453.925.882.4 1.843.62 2.829.62h1.343c1.581 0 3.105-.549 4.319-1.54l-1.631-3.262z" fill="#7A63AD"/><path d="M26.079 23.416l-.003-.001c-1.333-.267-2.718-.017-3.874.7l-.674.418 2.964 5.928c.177-.144.347-.297.51-.46l1.367-1.367c.278-.278.68-.355 1.033-.233l.976-3.904c-.662-.53-1.443-.91-2.299-1.081z" fill="#675099"/><path d="M26.269 25.731c-1.436 0-2.415.725-3.41 1.467l1.631 3.262c.177-.144.347-.297.51-.46l1.367-1.367c.278-.278.68-.355 1.033-.233l.518-2.073c-.513-.36-1.066-.596-1.649-.596z" fill="#6E57A0"/><path d="M30.046 26.79c-.344-.917-.93-1.7-1.67-2.294l-.976 3.904c.105.036.207.086.299.159l2.883 2.306c.397.317.959-.09.781-.566l-1.317-3.509z" fill="#604893"/><path d="M27.918 26.327l-.518 2.073c.105.036.207.086.299.159l2.883 2.306c.198.159.438.136.606.015h.001c-.001-.001-1.344-3.202-3.271-4.553z" fill="#675099"/><path d="M18.732 10.732c-.976.976-.976 2.559 0 3.536s2.559.976 3.536 0c.723-.723 1.325-3.264 1.589-4.534.073-.353-.238-.664-.591-.591-1.27.264-3.811.866-4.534 1.589z" fill="#D84459"/><path d="M20.5 14c.4 0 .777-.156 1.06-.439.309-.309.721-1.522 1.058-2.874.046-.184-.121-.35-.304-.304-1.353.337-2.565.748-2.874 1.057-.284.283-.44.66-.44 1.06s.156.777.439 1.06c.284.284.661.44 1.061.44z" fill="#F7D684"/><path d="M13.268 10.732c.976.976.976 2.559 0 3.536s-2.559.976-3.536 0c-.723-.723-1.325-3.264-1.589-4.534-.073-.353.238-.664.591-.591 1.27.264 3.811.866 4.534 1.589z" fill="#E85160"/><path d="M11.5 14c-.4 0-.777-.156-1.06-.439-.309-.309-.721-1.522-1.058-2.874-.046-.184.121-.35.304-.304 1.353.337 2.565.748 2.874 1.057.284.283.44.66.44 1.06s-.156.777-.439 1.06c-.284.284-.661.44-1.061.44z" fill="#FAE09F"/><path d="M16 7l-1 2.5c-.576-.325-1.299-.474-1.972-.534-.283-.025-.387.367-.125.478 1.307.552 2.234 1.483 2.716 2.057.1.119.24.178.381.178v-4.679z" fill="#373F3F"/><path d="M16.381 11.5c.482-.573 1.409-1.505 2.716-2.057.262-.111.158-.503-.125-.478-.673.061-1.396.21-1.972.535l-1-2.5v4.678c.141 0 .281-.059.381-.178z" fill="#2B3332"/><path d="M16 15.138c-.098 0-.195.029-.28.087-.29.2-.828.502-1.72.775-.923.282-1.847.217-2.42.125-.222-.035-.375.214-.241.394.478.642 1.449 1.652 2.833 1.652.905 0 1.384.429 1.622.767.051.073.129.109.207.109v-3.909z" fill="#373F3F"/><path d="M16.207 18.939c.237-.339.717-.767 1.622-.767 1.384 0 2.355-1.01 2.833-1.652.134-.18-.02-.43-.241-.394-.574.091-1.498.156-2.421-.126-.892-.273-1.43-.574-1.72-.775-.085-.058-.182-.087-.28-.087v3.91c.078 0 .156-.036.207-.109z" fill="#2B3332"/><path d="M16 0c-2.761 0-5 2.149-5 4.8s2.239 3.2 5 3.2v-8z" fill="#A78EDD"/><path d="M21 4.8c0-2.651-2.239-4.8-5-4.8v8c2.761 0 5-.549 5-3.2zM11.457 6.51c.79 1.192 2.525 1.49 4.543 1.49v-1c-1.644 0-2-1-4.543-.49z" fill="#9D85D3"/><path d="M14.43 5c.222 0 .333-.267.178-.426-.435-.444-1.135-1.074-1.608-1.074-.43-.026-.406 1.5 0 1.5h1.43z" fill="#fff"/><path d="M14.491 4.46c-.245-.242-.545-.511-.842-.704-.092.159-.149.38-.149.626 0 .241.055.459.144.618h.712c.079-.141.124-.332.135-.54z" fill="#373F3F"/><path d="M17.57 5c-.222 0-.333-.267-.178-.426.435-.444 1.135-1.074 1.608-1.074.43-.026.406 1.5 0 1.5h-1.43z" fill="#F7F7F7"/><path d="M17.509 4.46c.245-.242.545-.511.842-.704.092.16.149.381.149.627 0 .241-.055.459-.144.618h-.712c-.079-.142-.124-.333-.135-.541z" fill="#2B3332"/><path d="M20.543 6.51c-.79 1.192-2.525 1.49-4.543 1.49v-1c1.644 0 2-1 4.543-.49z" fill="#9179C6"/></svg>