<svg xmlns="http://www.w3.org/2000/svg" width="32" height="32" viewBox="0 0 32 32"><path fill="#FAB8CD" d="M11.949 30s-4.549 3.206-6.375 1.5c-2.705-2.527 9.25-5.875 9.25-5.875l-2.875 4.375z"/><ellipse transform="matrix(.999 -.043 .043 .999 -.964 .298)" fill="#FDEBBB" cx="6.496" cy="22.757" rx="5" ry="1.851"/><path fill="#FDEBBB" d="M11.156 22.726c.297.976-1.597 2.459-4.23 3.313s-5.009.755-5.306-.221c-.297-.976 1.597-2.459 4.23-3.313s5.009-.754 5.306.221z"/><ellipse transform="matrix(.999 -.043 .043 .999 -.86 .311)" fill="#FDEBBB" cx="6.871" cy="20.319" rx="5" ry="1.851"/><circle fill="#FAC4D1" cx="6" cy="6.875" r="3"/><circle fill="#FBCFD6" cx="9.062" cy="4" r="4"/><circle fill="#FDE2E6" cx="9" cy="4.562" r="2.938"/><path fill="#FBCFD6" d="M11.734 1.439c1.266-1.104 3.2-1.354 4.266-1.354v30.75c-7.25 0-12.5-4.57-12.5-11.75 0-4.375 4.247-14.167 8.234-17.646z"/><path fill="#FDEBBB" d="M3.5 19.085c0 7.18 5.25 11.75 12.5 11.75v-9.25c-3.917 0-10.875-1.666-12.5-2.5z"/><path fill="#FCEABA" d="M3.5 19.085c0 7.18 5.25 11.75 12.5 11.75v-9.25c-3.917 0-10.875-1.666-12.5-2.5z"/><path fill="#FFF3D9" d="M16 16.044v9.5c-2.462 0-4.245-1.897-4.245-4.335 0-2.374 2.313-5.165 4.245-5.165z"/><path fill="#FAB8CD" d="M11.227 20.91c1.315.462 2.62.661 4.773.661v4.349c-2.813 0-4.87-2.111-4.974-4.864-.004-.105.103-.181.201-.146z"/><circle fill="#FDE2E6" cx="8.469" cy="5.297" r="2"/><circle fill="#FAB8CD" cx="26" cy="6.875" r="3"/><circle fill="#FAC4D1" cx="22.938" cy="4" r="4"/><circle fill="#FCD8DE" cx="23" cy="4.562" r="2.938"/><path fill="#FFF3D9" d="M10.044 16.134c.371-.916-1.118-2.7-3.431-4.064-2.385-1.406-4.725-1.826-5.227-.938-.226.4-.024 1.001.466 1.665-.796.121-1.348.399-1.466.839s.221.957.85 1.46c-.756.33-1.232.749-1.236 1.209-.009 1.02 2.228 1.826 4.996 1.801 2.686-.025 4.867-.825 5.004-1.804l.045-.077-.001-.091z"/><path fill="#FAB8CD" d="M12.259 16.701c-.208.775-1.725 1.042-3.091.676s-1.235-1.005-1.028-1.78c.208-.775.414-1.393 1.78-1.028 1.367.368 2.547 1.357 2.339 2.132z"/><ellipse fill="#373F3F" cx="13.594" cy="5.719" rx=".75" ry="1.5"/><ellipse fill="#fff" cx="13.594" cy="5.281" rx=".375" ry=".625"/><path fill="#F9ADC8" d="M20.051 30s4.549 3.206 6.375 1.5c2.705-2.527-9.25-5.875-9.25-5.875l2.875 4.375z"/><ellipse transform="matrix(.043 -.999 .999 .043 1.68 47.267)" fill="#FAE09F" cx="25.504" cy="22.757" rx="1.851" ry="5"/><path fill="#FAE09F" d="M20.844 22.726c-.297.976 1.597 2.459 4.23 3.313s5.009.755 5.306-.221c.297-.976-1.597-2.459-4.23-3.313s-5.009-.754-5.306.221z"/><ellipse transform="matrix(.043 -.999 .999 .043 3.757 44.559)" fill="#FAE09F" cx="25.129" cy="20.319" rx="1.851" ry="5"/><path fill="#FAC4D1" d="M28.5 19.085c0 7.18-5.25 11.75-12.5 11.75v-30.75c1.066 0 3 .25 4.266 1.354 3.987 3.479 8.234 13.271 8.234 17.646z"/><path fill="#FAE09F" d="M28.5 19.085c0 7.18-5.25 11.75-12.5 11.75v-9.25c3.917 0 10.875-1.666 12.5-2.5z"/><path fill="#FBE4A2" d="M28.5 19.085c0 7.18-5.25 11.75-12.5 11.75v-9.25c3.917 0 10.875-1.666 12.5-2.5z"/><path fill="#FDEBBB" d="M20.245 21.209c0 2.438-1.783 4.335-4.245 4.335v-9.5c1.932 0 4.245 2.791 4.245 5.165z"/><path fill="#F9ADC8" d="M20.974 21.055c-.104 2.753-2.161 4.864-4.974 4.864v-4.349c2.153 0 3.458-.199 4.773-.661.098-.034.205.042.201.146z"/><path fill="#FDEBBB" d="M30.764 15.096c.629-.502.968-1.02.85-1.46s-.671-.718-1.466-.839c.49-.664.692-1.265.466-1.665-.502-.888-2.842-.468-5.227.938-2.314 1.364-3.802 3.148-3.431 4.064v.09l.045.077c.137.979 2.318 1.779 5.004 1.804 2.768.025 5.005-.781 4.996-1.801-.005-.459-.481-.878-1.237-1.208z"/><path fill="#F9ADC8" d="M19.741 16.701c.208.775 1.725 1.042 3.091.676s1.235-1.005 1.028-1.78-.414-1.393-1.78-1.028c-1.367.368-2.547 1.357-2.339 2.132z"/><ellipse fill="#2B3332" cx="18.406" cy="5.719" rx=".75" ry="1.5"/><ellipse fill="#F7F7F7" cx="18.406" cy="5.281" rx=".375" ry=".625"/><circle fill="#FCD8DE" cx="23.531" cy="5.297" r="2"/><path fill="#D74459" d="M14.32 8.5c-.154 0-.273.137-.247.29.05.297.552 1.957 1.927 1.957v-2.247h-1.68z"/><path fill="#E7685F" d="M14.48 9.776c.3.49.781.97 1.52.97v-1.307c-.458.004-1.026.132-1.52.337z"/><path fill="#C84054" d="M17.68 8.5c.154 0 .273.137.247.29-.05.297-.552 1.957-1.927 1.957v-2.247h1.68z"/><path fill="#E55D53" d="M17.52 9.776c-.3.49-.781.97-1.52.97v-1.307c.458.004 1.026.132 1.52.337z"/></svg>