<svg xmlns="http://www.w3.org/2000/svg" width="32" height="32" viewBox="0 0 32 32"><path fill="#79C6C1" d="M31.827 13.944l-3.097-6.292 1.212.391c.161.009.263-.17.172-.303l-1.399-1.848 1.136-1.968c.059-.15-.08-.302-.235-.258l-2.052.965-1.498-1.654c-.125-.102-.312-.017-.318.144l.262 2.215-2.077.912c-.136.087-.113.292.039.347l2.228.437.472 2.27c.041.156.243.197.342.07l.676-1.575 3.262 6.612-5.268-2.058c-.619-.224-1.326-.016-1.718.512l-8.117 10.901.802.598 8.118-10.902c.133-.178.364-.246.562-.173l5.272 2.059c.394.142.824.027 1.096-.291.271-.319.318-.761.128-1.111z"/><path fill="#C976A3" d="M27 18.622c0 1.136-.502 2.147-1.285 2.851l-2.497-6.691c2.094.035 3.782 1.738 3.782 3.84z"/><path fill="#D786B3" d="M25.24 20.201l-.571-1.531h.023l-4.616-12.31c-1.054 0-2.177-.048-2.177-.048v12.358h1.412c.026 2.102 1.734 3.799 3.842 3.799.988 0 1.88-.383 2.562-.996.395-.355.718-.787.942-1.275l-1.417.003zM5 18.622c0 1.136.502 2.147 1.285 2.851l2.497-6.691c-2.094.035-3.782 1.738-3.782 3.84z"/><path fill="#DB92BB" d="M14.101 6.312s-1.123.048-2.177.048l-4.616 12.31h.023l-.571 1.531-1.416-.003c.224.487.547.92.942 1.275.681.613 1.573.996 2.562.996 2.108 0 3.815-1.697 3.842-3.799h1.412v-12.358z"/><path fill="#ECE9F3" d="M14.862 1.138c0 .406.225.746.545.947-2.052 2.399-6.407 3.386-6.407 7.665 0 2.812 3.5 4.25 7 4.25v-14c-.628 0-1.138.509-1.138 1.138z"/><path fill="#FFD04D" d="M16 20l-3.814-.954c-2.028-.507-3.94 1.164-3.709 3.242l.47 4.234c.034.302-.072.603-.287.818l-.367.367c-.188.188-.293.442-.293.707v1.586c0 .552.448 1 1 1h7v-11z"/><path fill="#FFD96C" d="M16 10.168c-2.886.488-5 2.987-5 5.915v10.919c0 .639-.254 1.252-.706 1.704l-.001.001c-.188.188-.293.442-.293.707v1.586c0 .552.448 1 1 1h3c.552 0 1-.448 1-1v-3.029c0-1.976.195-3.946.583-5.883l.257-1.283c.027-.135.087-.255.161-.363v-10.274z"/><path fill="#F7C845" d="M16 20l3.814-.954c2.028-.507 3.94 1.164 3.709 3.242l-.47 4.234c-.034.302.072.603.287.818l.367.367c.188.188.293.442.293.707v1.586c0 .552-.448 1-1 1h-7v-11z"/><path fill="#FFD04D" d="M16 10.168c2.886.488 5 2.987 5 5.915v10.919c0 .639.254 1.252.706 1.704l.001.001c.188.188.293.442.293.707v1.586c0 .552-.448 1-1 1h-3c-.552 0-1-.448-1-1v-3.029c0-1.976-.195-3.946-.583-5.883l-.257-1.283c-.027-.135-.087-.255-.161-.363v-10.274z"/><path fill="#D4C9EF" d="M16 13.125c-.719 0-4.25-1.25-4.25-.062 0 1 2.125 3.062 2.125 4.438 0 3.139 1.125 2.156 1.125 3.5 0 1.438-.312 4.375 1 4.375v-12.251z"/><path fill="#C6B7E9" d="M16 13.125c.719 0 4.25-1.25 4.25-.062 0 1-2.125 3.062-2.125 4.438 0 3.139-1.125 2.156-1.125 3.5 0 1.438.312 4.375-1 4.375v-12.251z"/><path fill="#E3DBF4" d="M16 11.5v2.5c-3.5 0-7-1.438-7-4.25 1 .75 3 1.75 7 1.75z"/><path fill="#FFE28A" d="M12.028 6.752c-.089.269-.153.557-.153.888 0 1.838 1.938 3.297 3.266 3.328.24.006.472-.02.697-.068-.148-.091-.37-.235-.588-.401 0-2.363-1.167-3.734-3.222-3.747z"/><path fill="#3E3D3D" d="M16 11v-.148l-.162.05.162.098z"/><path fill="#F7F7F7" d="M14.125 11.969c-.094.656.156 4.375.844 4.438.436.04.219-3.469.219-4.5l-1.063.062z"/><path fill="#fff" d="M13.426 6.976c-.123.051-.241.113-.332.213-.434.477-.433 1.419.204 1.999.553.504 1.429.522 1.895.234-.238-1.187-.838-2.03-1.767-2.446z"/><ellipse transform="matrix(.006 -1 1 .006 5.551 22.282)" fill="#E7685F" cx="13.984" cy="8.348" rx=".625" ry=".542"/><ellipse transform="matrix(.006 -1 1 .006 5.563 22.262)" fill="#373F3F" cx="13.98" cy="8.332" rx=".359" ry=".311"/><path fill="#373F3F" d="M11.193 4.146c.235.785.625 2.072.807 2.604 2.074 0 3.25 1.375 3.25 3.75.354.271.75.5.75.5v-8.148c-1.25 0-1.75 1.628-1.75 2.398-1.031-.399-2.07-1.002-2.686-1.385-.195-.122-.437.061-.371.281z"/><path fill="#8FCEC9" d="M16 10.289l-4.733-2.594c-.123-.075-.265.065-.187.184l2.391 3.408-1.455 2.573c-.072.115.057.249.179.188l3.805-1.912v-1.847z"/><path fill="#E3DEED" d="M16.593 2.085c.32-.201.545-.541.545-.947 0-.629-.51-1.138-1.138-1.138v14c3.5 0 7-1.438 7-4.25 0-4.279-4.355-5.266-6.407-7.665z"/><path fill="#FFD96C" d="M19.972 6.752c.089.269.153.557.153.888 0 1.838-1.938 3.297-3.266 3.328-.24.006-.472-.02-.697-.068.148-.091.37-.235.588-.401 0-2.363 1.167-3.734 3.222-3.747z"/><path fill="#3E3D3D" d="M16 11v-.148l.162.05-.162.098z"/><path fill="#F7F7F7" d="M18.574 6.976c.123.051.241.113.332.213.434.477.27 1.334-.368 1.914-.553.504-1.265.607-1.731.32.238-1.188.838-2.031 1.767-2.447z"/><path fill="#2B3332" d="M20.807 4.146c-.235.785-.625 2.072-.807 2.604-2.074 0-3.25 1.375-3.25 3.75-.354.271-.75.5-.75.5v-8.148c1.25 0 1.75 1.628 1.75 2.398 1.031-.399 2.07-1.002 2.686-1.385.195-.122.437.061.371.281z"/><path fill="#D4C9EF" d="M23 9.75c0 2.812-3.5 4.25-7 4.25v-2.5c4 0 6-1 7-1.75z"/><path fill="#EDEEEE" d="M17.875 11.969c.094.656-.156 4.375-.844 4.438-.436.04-.219-3.469-.219-4.5l1.063.062z"/><path fill="#79C6C1" d="M16 10.289l4.733-2.594c.124-.074.265.065.187.185l-2.391 3.408 1.455 2.573c.072.115-.057.249-.179.188l-3.805-1.913v-1.847z"/><ellipse transform="matrix(.006 -1 1 .006 9.573 26.328)" fill="#E55D53" cx="18.031" cy="8.348" rx=".625" ry=".542"/><ellipse transform="matrix(.006 -1 1 .006 9.585 26.308)" fill="#2B3332" cx="18.027" cy="8.332" rx=".359" ry=".311"/></svg>