<svg xmlns="http://www.w3.org/2000/svg" width="32" height="32" viewBox="0 0 32 32"><path fill="#E3E5E5" d="M13.25 11.846l-4.829-4.279c-.186-.165-.477-.013-.45.234l.327 2.892-5.453-3.706c-.258-.176-.56.153-.362.396l3.578 4.396-4.687-1.239c-.282-.075-.467.288-.241.473l5.267 4.292-2.907.883c-.26.079-.256.448.006.521l9.548 2.666.203-7.529z"/><path fill="#DADDDC" d="M18.782 11.846l4.829-4.279c.186-.165.477-.013.45.234l-.327 2.892 5.453-3.706c.259-.176.56.153.363.396l-3.578 4.396 4.687-1.239c.282-.075.467.288.241.473l-5.267 4.293 2.907.883c.26.079.256.448-.006.521l-9.548 2.666-.204-7.53z"/><path fill="#8D5B36" d="M16 20l-3.814-1.954c-1.936.766-3.94 2.164-3.709 4.242l.47 4.234c.034.302-.072.603-.287.818l-.367.367c-.188.188-.293.442-.293.707v1.586c0 .552.448 1 1 1h5s1.521-2.376 2-2.376v-8.624z"/><path fill="#E3E5E5" d="M14.375 30.188h.175c.485-.689 1.159-1.564 1.45-1.564v-8.624l-1.625-.406v10.594z"/><path fill="#434C4B" d="M14.594 24.677c0 1.536-1.749 2.781-3.906 2.781-.806 0-1.548-.181-2.168-.481-.129-.062-.207-.198-.207-.341v-1.537c0-.26.258-.445.499-.348.555.222 1.192.351 1.876.351 1.563 0 2.902-.658 3.526-1.603.237.359.38.755.38 1.178z"/><path fill="#96643B" d="M16 10.168c-2.886.488-5 2.987-5 5.915v10.919c0 .639-.254 1.252-.706 1.704l-.001.001c-.188.188-.293.442-.293.707v1.586c0 .552.448 1 1 1h3c.552 0 1-.448 1-1v-3.029c0-1.976.195-3.946.583-5.883l.257-1.283c.027-.135.087-.255.161-.363v-10.274z"/><path fill="#F7F7F7" d="M13.833 17c0 .875 1.042 3.441 2.167 3.441v-3.441h-2.167z"/><path fill="#9E6E43" d="M16 .948c-.305-.305-.726-.771-1.28-.942-.125-.038-.226.107-.147.212.239.314.334.491.388.73-.35 0-2.721-.694-4.566 2.699-.068.126.075.255.194.175.451-.301.767-.281 1.121-.383-1.152.72-1.492 2.142-1.58 2.949-.014.129.148.2.233.102.478-.553 1.003-.666 1.314-.582-.955.637-1.8 2.474-1.307 3.652.038.09.151.112.221.045.512-.494 1.124-.763 1.689-.814-.997 1.689-1.294 6.759-2.696 8.961-.073.114.056.251.176.189.493-.256.833-.571 1.146-.771-.359.629-.469 1.266-.496 2.247-.003.126.154.188.236.093.509-.584.914-1.099 1.69-1.77.194.852.689 2.308 1.429 3.117.09.098.258.015.23-.116-.281-1.346.27-3.046.631-3.437.134.402.871-.991 1.374-.991v-15.365z"/><path fill="#FFEAA7" d="M15.083 9.292c-.458 1.333-2.167 8.333 0 9.333-.208-.625-.208-1.167.083-1.458.167.875.583 2.125.833 2.125v-10h-.916z"/><path fill="#A0422C" d="M16 5.184v3.031l-2.746 4.463c-.08.131-.282.073-.281-.081l.034-4.344-2.094-.508c-.138-.033-.158-.221-.031-.283l2.088-1.028-1.602-2.158c-.085-.115.021-.273.159-.237l4.473 1.145z"/><path fill="#fff" d="M13.527 5.004c0 .716-.065 1.269.749 1.53.49.157 1.53.195 1.53.195l-.066-1.432-2.213-.293z"/><path fill="#EACEA1" d="M16 7.469l-1.5 1s-.188 2.031 1.5 2.031v-3.031z"/><path fill="#EDEEEE" d="M15.447 5.981v1.009s-1.399.879-1.53 1.041.553 3.417 1.041 3.678v-3.157l1.042-.293v-2.311s-.293-.228-.553.033z"/><path fill="#E55D53" d="M14.891 6.653c.154-.134.263-.379.263-.673 0-.431-.226-.781-.504-.781s-.504.35-.504.781c0 .22.06.418.155.56.16.049.373.086.59.113z"/><path fill="#FFE28A" d="M12.47 3.062c-.03-.061-.122-.041-.123.027-.014.883.109 2.338 1.635 2.338 1.953 0 1.334 1.562 2.018 1.562v-5.239c-.325 0-.488 2.343-.521 2.701-.26-.618-1.107-.586-1.562-.586-.991 0-1.237-.372-1.447-.803z"/><ellipse fill="#373F3F" cx="14.601" cy="6.046" rx=".195" ry=".325"/><path fill="#505957" d="M15.024 25.465c.197-.083.413.076.413.289l-.102 1.715c0 .117-.063.228-.169.28-.628.311-1.281.458-2.104.458-.807 0-1.548-.181-2.168-.481-.129-.062-.207-.198-.207-.341v-1.537c0-.26.258-.445.499-.348.555.222 1.192.351 1.876.351.72.001 1.387-.142 1.962-.386z"/><path fill="#845331" d="M16 20l3.814-1.954c1.936.766 3.94 2.164 3.709 4.242l-.47 4.234c-.034.302.072.603.287.818l.367.367c.188.188.293.442.293.707v1.586c0 .552-.448 1-1 1h-5s-1.521-2.376-2-2.376v-8.624z"/><path fill="#DADDDC" d="M17.625 30.188h-.175c-.485-.689-1.159-1.564-1.45-1.564v-8.624l1.625-.406v10.594z"/><path fill="#373F3F" d="M17.786 23.499c.624.945 1.963 1.603 3.526 1.603.683 0 1.321-.129 1.876-.351.241-.096.499.089.499.348v1.537c0 .143-.078.279-.207.341-.621.3-1.362.481-2.168.481-2.157 0-3.906-1.245-3.906-2.781 0-.423.143-.819.38-1.178z"/><path fill="#8D5B36" d="M16 10.168c2.886.488 5 2.987 5 5.915v10.919c0 .639.254 1.252.706 1.704l.001.001c.188.188.293.442.293.707v1.586c0 .552-.448 1-1 1h-3c-.552 0-1-.448-1-1v-3.029c0-1.976-.195-3.946-.583-5.883l-.257-1.283c-.027-.135-.087-.255-.161-.363v-10.274z"/><path fill="#EDEEEE" d="M18.167 17c0 .875-1.042 3.441-2.167 3.441v-3.441h2.167z"/><path fill="#96643B" d="M16 .948c.305-.305.726-.771 1.28-.942.125-.038.226.107.147.212-.239.314-.334.491-.388.73.35 0 2.721-.694 4.566 2.699.068.126-.075.255-.194.175-.451-.301-.767-.282-1.121-.383 1.152.72 1.492 2.142 1.58 2.949.014.129-.148.2-.233.102-.478-.553-1.003-.666-1.314-.582.955.637 1.8 2.474 1.307 3.652-.038.09-.151.112-.221.045-.512-.495-1.124-.763-1.689-.815.997 1.689 1.294 6.759 2.696 8.961.073.114-.056.251-.176.189-.493-.256-.833-.571-1.146-.771.359.629.469 1.266.496 2.247.003.126-.154.188-.236.093-.509-.584-.914-1.099-1.69-1.77-.194.852-.689 2.308-1.429 3.117-.09.098-.258.015-.23-.116.281-1.346-.27-3.046-.631-3.437-.134.402-.871-.928-1.374-.928v-15.427z"/><path fill="#FFE28A" d="M16.917 9.292c.458 1.333 2.167 8.333 0 9.333.208-.625.208-1.167-.083-1.458-.167.875-.583 2.125-.833 2.125v-10h.916z"/><path fill="#923D27" d="M16 5.184v3.031l2.746 4.463c.08.131.282.073.281-.081l-.034-4.344 2.094-.508c.138-.033.158-.221.031-.283l-2.088-1.028 1.602-2.158c.085-.115-.021-.273-.159-.237l-4.473 1.145z"/><path fill="#F7F7F7" d="M18.473 5.004c0 .716.065 1.269-.749 1.53-.49.157-1.53.195-1.53.195l.065-1.432 2.214-.293z"/><path fill="#E5C79A" d="M16 7.469l1.5 1s.188 2.031-1.5 2.031v-3.031z"/><path fill="#E3E5E5" d="M16.553 5.981v1.009s1.399.879 1.53 1.041c.13.163-.553 3.417-1.041 3.678v-3.157l-1.042-.293v-2.311s.293-.228.553.033z"/><path fill="#D64F45" d="M17.109 6.653c-.154-.134-.263-.379-.263-.673 0-.431.226-.781.504-.781s.504.35.504.781c0 .22-.06.418-.155.56-.16.049-.373.086-.59.113z"/><path fill="#FFD96C" d="M19.53 3.062c.03-.061.122-.041.123.027.014.883-.109 2.338-1.635 2.338-1.953 0-1.334 1.562-2.018 1.562v-5.239c.325 0 .488 2.343.521 2.701.26-.618 1.107-.586 1.562-.586.991 0 1.237-.372 1.447-.803z"/><ellipse fill="#2B3332" cx="17.399" cy="6.046" rx=".195" ry=".325"/><path fill="#434C4B" d="M18.938 25.852c.683 0 1.32-.129 1.876-.351.241-.096.499.089.499.348v1.537c0 .143-.077.279-.207.341-.621.3-1.362.481-2.168.481-.823 0-1.476-.147-2.104-.458-.105-.052-.169-.163-.169-.28l-.102-1.715c0-.214.216-.373.413-.289.575.243 1.242.386 1.962.386z"/></svg>