<svg xmlns="http://www.w3.org/2000/svg" width="32" height="32" viewBox="0 0 32 32"><path fill="#926B98" d="M16 5.5c-.792-1.583-3.042-3-5.333.458-1.723 2.6-.917 4.334-1.167 5.792-.177 1.031-1.083 1.625-1.125 2.958-.072 2.316-.605 3.574-1.651 2.672-.217-.187-.538-.009-.47.27.237.969.798 2.191 2.121 2.142 2.208-.083 3.5-1.875 3.625-3.625.059-.823 4-6.898 4-6.898v-3.769z"/><path fill="#9B78A1" d="M16 2.958c-1.25 0-2.958 1.296-4.708 4.375-1.208 2.125-.25 4-1.167 5.917s-.372 3.448-.625 4.333c-.333 1.167-2.667 1.625-3.25.083 0 0-.015 2.624 2.167 2.542 2.208-.083 3.5-1.875 3.625-3.625.058-.823 3.958-6.898 3.958-6.898v-6.727z"/><path fill="#79C6C1" d="M11.644 12.516c0 5.112-4.494 8.646-2.409 13.413l.625 1.427c-.774.228-1.343.935-1.343 1.783 0 1.031.836 1.867 1.867 1.867.757 0 1.406-.453 1.699-1.1 1.166-.28 1.791-.405 3.916-.94v-16.45h-4.355z"/><path fill="#8FCEC9" d="M14.741 29.8s.384-9.728 1.259-9.728v-10.472l-2.563-.538s-2.937 4.5-2.781 7.656c.246 4.971.903 10.676 1.058 12.561-.639.257-1.071.719-1.071 1.253 0 .81.985 1.467 2.201 1.467 1.216 0 2.201-.657 2.201-1.467 0-.268-.116-.516-.304-.732z"/><path fill="#DADDDC" d="M14.292 10.917c-.375.5-1.354 3.479-1.479 4.688s2.75 3.333 3.188 4.583v-8.979c-.001-.001-1.656-.363-1.709-.292z"/><path fill="#8FCEC9" d="M11.68 7.221c-.571 1.571-.273 2.438.62 3.318.346.341.782.684 1.291 1.071.885.673.673 1.363 2.073 1.903.111.043.22.05.335.048v-9.773c-1.98 0-2.888.546-3.555 1.686-.278.477-.513 1.058-.764 1.747z"/><path fill="#fff" d="M13.437 6.375c-.873 1.062-.725 1.834-.725 1.834s1.009.684 2.519 1.156l-.169-2.802c0-.001-1.239-.656-1.625-.188z"/><ellipse fill="#A0422C" cx="14.031" cy="7.938" rx=".688" ry="1.154"/><path fill="#45A396" d="M16 0c-.229 0-1.563 2.303-2.366 3.409-.239.329-.302.748-.168 1.132.617 1.769 1.772 5.013 1.772 5.013h.762v-9.554z"/><path fill="#fff" d="M16 8.799c-.361-1.017-1.072-3.084-1.526-4.388-.08-.229-.043-.475.101-.673.394-.545.938-1.414 1.425-2.122v7.183z"/><path fill="#9B78A1" d="M16 3.396s-1.604-.109-1.604.729c0 .564 1.604 1.531 1.604 1.531v-2.26z"/><path fill="#926B98" d="M14.412 3.973c-.029.13-.019.272.027.403.454 1.304 1.2 3.406 1.562 4.423v-3.549c-.205 0-.55-1.277-1.589-1.277z"/><ellipse fill="#1D1D1B" cx="14.031" cy="7.969" rx=".203" ry=".469"/><path fill="#45A396" d="M16 9.667s-.448-1.324-1.093-1.671c-1.22-.657-3.143-1.931-4.061-2.361-.757-.354-.399-1.566.404-1.177 1.375.667 4.75 2.578 4.75 2.578v2.631z"/><path fill="#F7F7F7" d="M11.547 7.626c-.381 1.321-.061 2.112.753 2.913.346.341.782.684 1.291 1.071.885.673.673 1.363 2.073 1.903.111.043.23.05.346.048l-.01-4.186-.833-.042c-1.002-.378-2.458-1.125-2.458-1.125-.751-.375-1.124-.711-1.162-.582z"/><path fill="#926B98" d="M16.01 5.5c.792-1.583 3.042-3 5.333.458 1.723 2.6.917 4.333 1.167 5.792.177 1.031 1.083 1.625 1.125 2.958.072 2.316.605 3.574 1.651 2.672.217-.187.538-.009.47.27-.237.969-.798 2.191-2.121 2.142-2.208-.083-3.5-1.875-3.625-3.625-.059-.823-4-6.898-4-6.898v-3.769z"/><path fill="#9B78A1" d="M16.01 2.958c1.25 0 2.958 1.296 4.708 4.375 1.208 2.125.25 4 1.167 5.917.917 1.917.372 3.448.625 4.333.333 1.167 2.667 1.625 3.25.083 0 0 .015 2.624-2.167 2.542-2.208-.083-3.5-1.875-3.625-3.625-.058-.823-3.958-6.898-3.958-6.898v-6.727z"/><path fill="#60C4BC" d="M20.366 12.516c0 5.112 4.494 8.646 2.409 13.413l-.625 1.427c.774.228 1.343.935 1.343 1.783 0 1.031-.836 1.867-1.867 1.867-.757 0-1.406-.453-1.699-1.1-1.166-.28-1.791-.405-3.916-.94v-16.45h4.355z"/><path fill="#79C6C1" d="M17.27 29.8s-.384-9.728-1.259-9.728v-10.472l2.563-.538s2.937 4.5 2.781 7.656c-.246 4.971-.903 10.676-1.058 12.561.639.257 1.071.719 1.071 1.253 0 .81-.985 1.467-2.201 1.467-1.216 0-2.201-.657-2.201-1.467-.001-.268.115-.516.304-.732z"/><path fill="#D1D4D4" d="M17.719 10.917c.375.5 1.354 3.479 1.479 4.688s-2.75 3.333-3.188 4.583v-8.979c0-.001 1.655-.363 1.709-.292z"/><path fill="#79C6C1" d="M20.33 7.221c.571 1.571.273 2.438-.62 3.318-.346.341-.782.684-1.291 1.071-.885.673-.673 1.363-2.073 1.903-.111.043-.22.05-.335.048v-9.773c1.98 0 2.888.546 3.555 1.686.279.477.514 1.058.764 1.747z"/><path fill="#fff" d="M18.573 6.375c.873 1.062.725 1.834.725 1.834s-1.009.684-2.519 1.156l.169-2.802c0-.001 1.24-.656 1.625-.188z"/><ellipse fill="#A0422C" cx="17.979" cy="7.938" rx=".688" ry="1.154"/><path fill="#3A9384" d="M16.01 0v9.554h.762s1.155-3.244 1.772-5.013c.134-.384.071-.803-.168-1.132-.802-1.106-2.137-3.409-2.366-3.409z"/><path fill="#fff" d="M16.01 8.799c.361-1.017 1.072-3.084 1.526-4.388.08-.229.043-.475-.101-.673-.395-.545-.938-1.414-1.426-2.122v7.183z"/><path fill="#9B78A1" d="M16.01 3.396s1.604-.109 1.604.729c0 .564-1.604 1.531-1.604 1.531v-2.26z"/><path fill="#926B98" d="M17.598 3.973c.029.13.019.272-.027.403-.454 1.304-1.2 3.406-1.562 4.423v-3.549c.205 0 .55-1.277 1.589-1.277z"/><ellipse fill="#1D1D1B" cx="17.979" cy="7.969" rx=".203" ry=".469"/><path fill="#3A9384" d="M16.01 9.667s.448-1.324 1.093-1.671c1.22-.657 3.143-1.931 4.061-2.361.757-.354.399-1.566-.404-1.177-1.375.667-4.75 2.578-4.75 2.578v2.631z"/><path fill="#EDEEEE" d="M20.463 7.626c.381 1.321.061 2.112-.753 2.913-.346.341-.782.684-1.291 1.071-.885.673-.673 1.363-2.073 1.903-.111.043-.23.05-.346.048l.01-4.187.833-.042c1.002-.378 2.458-1.125 2.458-1.125.751-.374 1.124-.71 1.162-.581z"/></svg>