<svg xmlns="http://www.w3.org/2000/svg" width="32" height="32" viewBox="0 0 32 32"><path fill="#90A74E" d="M28.731 26.557l-9.396-1.587c-.845-.143-1.392-.835-1.222-1.546l.319-1.337c.17-.711.992-1.172 1.836-1.029l9.396 1.587c.845.143 1.392.835 1.222 1.546l-.319 1.337c-.17.711-.992 1.172-1.836 1.029zM30.827 21.919l-9.256 2.089c-.832.188-1.688-.228-1.911-.928l-.42-1.318c-.223-.7.271-1.42 1.103-1.608l9.256-2.089c.832-.188 1.553-.141 1.776.559l.554 1.686c.223.702-.27 1.422-1.102 1.609zM28.475 17.91l-6.946 6.465c-.624.581-1.573.653-2.118.16l-1.026-.927c-.545-.493-.481-1.363.143-1.945l6.946-6.465c.624-.581 1.573-.653 2.118-.16l1.026.927c.545.493.481 1.364-.143 1.945z"/><path fill="#A8B875" d="M11.181 21.592l-3.856.551c-2.029.289-3.825 2.234-3.825 4.288 0 .984.299 1.965 1.072 2.737l.591.615c-.95.297-1.58.78-1.58 1.217 0 1.208 1.567 1 3.5 1s3.5.167 3.5-1.25c0-.24-.199-.462-.527-.652l.875-.929.25-7.577z"/><path fill="#B4C187" d="M9.062 14.062c.006.513-.012.962-.039 1.384-2.477.876-6.523 3.427-6.523 5.882 0 1.949 2.728.134 5.155-1.012-.363.908-.655 1.949-.655 3.684 0 5 3.5 7 9 7v-26.312c-3.812 0-6.99 4.605-6.938 9.374z"/><path fill="#C0C998" d="M16 4.688c-3.813 0-6.99 4.605-6.938 9.375.006.531-.008 1.009-.037 1.443.85 1.932 4.037 3.682 6.975 3.682v-14.5z"/><path fill="#F7F7F7" d="M3.583 31c0 .744.597.949 1.505.999.04-.159.068-.324.068-.499 0-.606-.258-1.139-.651-1.453-.567.28-.922.629-.922.953z"/><path fill="#CDD4AD" d="M16 10c-.542 0-2-.458-2-1.042 0-.583 1.125-8.958 2-8.958v10z"/><path fill="#373F3F" d="M12.333 11.438c.344-1.312-2.5-2.781-3.406-2.375.124.593 3.196 3.174 3.406 2.375zM11.114 12.562s-1.163-.042-1.344.125c-.344 1.062.344 3.406.719 3.375.437-.036.625-3.5.625-3.5z"/><path fill="#7D3119" d="M12.17 28.511c.605.887 1.329 1.781 2.08 2.41.559.05 1.14.079 1.75.079v-1.623l-.03.001c-1.473 0-2.808-.319-3.8-.867z"/><path fill="#923D27" d="M16 21.742v-1.705c-.504 0-1.356.75-2.239 1.705-.487.527-.982 1.113-1.435 1.675.867.698 2.226 1.157 3.674 1.157v-2.832z"/><path fill="#843822" d="M12.326 23.418c-.465.577-.884 1.126-1.199 1.546-.235.314-.322.695-.286 1.069.02.21.068.418.175.61.285.507.684 1.179 1.153 1.868.992.548 2.327.867 3.801.867l.03-.001v-4.803c-1.448 0-2.807-.458-3.674-1.156z"/><path fill="#373F3F" d="M9.796 23.387l-1.326-1.639c-.187-.231-.182-.563.013-.787l1.326-1.534c.245-.283.684-.283.929 0l1.326 1.534c.194.225.2.556.013.787l-1.326 1.638c-.247.304-.709.304-.955.001z"/><path fill="#9EB164" d="M26.837 29.783l.591-.615c.772-.772 1.072-1.753 1.072-2.737 0-2.054-1.796-3.999-3.825-4.289l-3.856-.551.25 7.577.875.929c-.328.19-.527.412-.527.652 0 1.417 1.567 1.25 3.5 1.25s3.5.208 3.5-1c0-.436-.63-.919-1.58-1.216z"/><path fill="#A8B875" d="M22.977 15.447c-.027-.422-.045-.871-.039-1.384.052-4.77-3.126-9.375-6.938-9.375v26.312c5.5 0 9-2 9-7 0-1.735-.292-2.776-.655-3.684 2.427 1.147 5.155 2.962 5.155 1.012 0-2.455-4.046-5.006-6.523-5.881z"/><path fill="#B4C187" d="M16 4.688c3.812 0 6.99 4.605 6.938 9.375-.006.531.008 1.009.037 1.443-.85 1.932-4.037 3.682-6.975 3.682v-14.5z"/><path fill="#EDEEEE" d="M28.417 31c0 .744-.597.949-1.505.999-.04-.159-.068-.324-.068-.499 0-.606.258-1.139.651-1.453.567.28.922.629.922.953z"/><path fill="#C0C998" d="M16 0c.875 0 2 8.375 2 8.958 0 .584-1.458 1.042-2 1.042v-10z"/><path fill="#76260D" d="M19.83 28.511c-.605.887-1.329 1.781-2.08 2.41-.559.05-1.14.079-1.75.079v-1.623l.03.001c1.473 0 2.808-.319 3.8-.867z"/><path fill="#843822" d="M16 21.742v-1.705c.504 0 1.356.75 2.239 1.705.487.527.982 1.113 1.435 1.675-.867.698-2.226 1.157-3.674 1.157v-2.832z"/><path fill="#7D3119" d="M19.674 23.418c.465.577.884 1.126 1.199 1.546.235.314.322.695.286 1.069-.02.21-.068.418-.175.61-.285.507-.684 1.179-1.153 1.868-.992.548-2.327.867-3.801.867l-.03-.001v-4.803c1.448 0 2.807-.458 3.674-1.156z"/><path fill="#2B3332" d="M22.204 23.387l1.326-1.638c.187-.231.182-.563-.013-.787l-1.326-1.534c-.245-.283-.684-.283-.929 0l-1.326 1.534c-.194.225-.2.556-.013.787l1.326 1.638c.247.303.709.303.955 0z"/><path fill="#F7F7F7" d="M10.147 9.159c-.656 1.37-1.047 2.939-1.084 4.542 1.012-.311 3.012-.58 3.912-.652.147-.012.248-.148.22-.293-.157-.795-.814-3.045-3.048-3.597z"/><path fill="#843822" d="M12.349 10.731c.058.271.093.572.093.894 0 .6-.114 1.135-.293 1.509-.343.042-.726.094-1.113.155-.226-.371-.375-.976-.375-1.664 0-.919.265-1.687.628-1.946.443.297.793.662 1.06 1.052z"/><ellipse fill="#373F3F" cx="11.52" cy="11.719" rx=".297" ry=".75"/><path fill="#2B3332" d="M19.667 11.438c-.344-1.312 2.5-2.781 3.406-2.375-.124.593-3.196 3.174-3.406 2.375zM20.886 12.562s1.163-.042 1.344.125c.344 1.062-.344 3.406-.719 3.375-.437-.036-.625-3.5-.625-3.5z"/><path fill="#EDEEEE" d="M21.853 9.159c.656 1.37 1.047 2.939 1.084 4.542-1.012-.311-3.012-.58-3.912-.652-.147-.012-.248-.148-.22-.293.157-.795.814-3.045 3.048-3.597z"/><path fill="#7D3119" d="M20.711 9.679c.363.259.628 1.027.628 1.946 0 .688-.149 1.293-.375 1.664-.387-.061-.769-.113-1.113-.155-.179-.374-.293-.909-.293-1.509 0-.322.035-.623.093-.894.267-.39.617-.755 1.06-1.052z"/><ellipse fill="#2B3332" cx="20.48" cy="11.719" rx=".297" ry=".75"/><path fill="#E7685F" d="M16 15.75c-.713 0-1.247-.201-1.509-.229-.097-.01-.174.068-.162.165.063.539.359 2.064 1.671 2.064v-2z"/><path fill="#E55D53" d="M16 15.75c.713 0 1.247-.201 1.509-.229.097-.01.174.068.162.165-.064.539-.359 2.064-1.671 2.064v-2z"/></svg>