<svg xmlns="http://www.w3.org/2000/svg" width="32" height="32" viewBox="0 0 32 32"><path fill="#90A74E" d="M22.301 22.312c1.566.488 3.007 1.13 4.586.353.725-.356 1.528-1.717 1.879-2.363.058-.106.217-.077.233.043l.257 1.857 2.576-.837c.109-.035.204.082.147.181l-1.488 2.61 1.443.816c.1.056.078.206-.033.231-.756.167-2.637.601-3.207.904-.72.381-1.253 1.398-2.791 2.135-1.93.925-5.762.59-6.154.32l2.552-6.25z"/><path fill="#B4C187" d="M10.583 11.667c-1.542-.042-7.292 3-8.583 5.708-.559 1.171 1.96 1.718 3.292.667.792-.625 2.333-2.083 4.792-2l.499-4.375zM6.417 14.292l-.95-3.152c-.037-.121.085-.23.202-.18l2.123.915-.471-3.113c-.022-.144.155-.231.256-.125l3.257 3.446-4.417 2.209z"/><path fill="#C0C998" d="M16 2.417c-4.093 0-4.535 4.495-5.537 8.913-1.108 4.888-1.255 6.837-2.421 9.837-1.28 3.29.416 8.833 7.958 8.833v-27.583z"/><path fill="#8694D1" d="M9.542 18.125c.105.699 4.057 6.079 5.667 7.812.271.292.354.479.792.479v-12.812l-6.459 4.521z"/><path fill="#7C8AC4" d="M9.542 18.125c.105.699 4.057 6.079 5.667 7.812.271.292.354.479.792.479v-9.256c-.774 0-2.455-.185-4.152-.649l-2.307 1.614z"/><path fill="#707EB7" d="M15.208 25.938c.2.215.299.372.513.441l.039.008.24.03v-3.924c-1.107 0-2.881-.534-4.582-1.394 1.279 1.787 2.896 3.875 3.79 4.839z"/><path fill="#B4C187" d="M16 2.167c-4.093 0-4.535 4.745-5.537 9.163-1.304 2.639-2.405 6.731-2.836 8.21-.04.137.11.251.226.168 2.552-1.811 5.731-4.216 7.084-5.271.455-.354.646-.437 1.063-.437v-11.833z"/><path fill="#A8B875" d="M16 10.667c-1.542-.042-3.958-2-4.73-2.984-.176.707-.734 3.186-.895 3.942.333.833 4 1.625 5.625 1.75v-2.708z"/><path fill="#B4C187" d="M11.542 25.5c.047 2.861-.403 4.583-3.051 4.583-2.459 0-3.641-2.175-3.641-4.8s1.939-4.658 3.405-4.658c1.512 0 3.243 2.25 3.287 4.875z"/><path fill="#9EB164" d="M7.958 28.208c-.874-.058-1.5.312-1.75.979.292.667.524.868.396 1.083-.229.386-1.135 1.73-1.135 1.73h4.094c-.312-.406-.646-.875-.729-1.125-.042-.125.104-.271.312-.854.221-.618-.563-1.771-1.188-1.813z"/><path fill="#F7F7F7" d="M6.715 32h-1.616c0-.517.804-.875 1.098-.875.546 0 .557.641.518.875zm1.821 0h1.615c0-.517-.804-.875-1.098-.875-.545 0-.556.641-.517.875zm-.306 0c.043-.474-.194-.733-.56-.754-.495-.029-.754.431-.754.754h1.314z"/><path fill="#373F3F" d="M13.887 13.576c-.067.234-3.02-.688-3.181-.86-.161-.172.464-1.36.837-1.305.374.054 2.438 1.835 2.344 2.165zM5.816 22.245c-.352.504-.63 1.101-.795 1.769 1.209.378 3.337.899 3.394.671.086-.345-1.63-1.81-2.599-2.44zM4.864 25.538c.021.68.125 1.32.311 1.9 1.237-.32 3.224-.964 3.155-1.182-.107-.337-2.304-.685-3.466-.718zM13.194 14.5c0-.292-2.062-.896-2.396-.771s.229 1.042.396 1.104c.166.063 2-.227 2-.333z"/><path fill="#F7F7F7" d="M2.757 17.7c-.347.207-1.665.509-1.754.143-.076-.313 1.204-1.202 1.488-1.124.525.145.469.859.266.981zm.208.212c-.286.072-.958 1.478-.737 1.713.258.274 1.255-.64 1.454-.991.116-.206-.189-.855-.717-.722zm1.381-.83c-.279.095-.562.844-.324 1.06.279.253.85-.216 1.02-.582.1-.215-.18-.653-.696-.478z"/><path fill="#fff" d="M13.391 4.109c-.484.188-.85 1.516-.651 2.049.213.216 2.729.169 2.729.169l-2.078-2.218z"/><path fill="#373F3F" d="M15.469 6.328l-1.652-1.764c-.504.295-.582 1.452-.4 1.726.812.061 2.052.038 2.052.038z"/><ellipse fill="#fff" cx="14.394" cy="5.55" rx=".443" ry=".534"/><path fill="#A8B875" d="M16 0c-.583 0-1.125 3.5-1.125 3.5l-2.35-.807c-.121-.042-.22.103-.135.2.85.969 2.516 3.607 3.61 3.607v-6.5zM21.417 11.667c1.542-.042 7.292 3 8.583 5.708.559 1.171-1.96 1.718-3.292.667-.792-.625-2.333-2.083-4.792-2l-.499-4.375zM25.583 14.292l.949-3.152c.037-.121-.085-.23-.202-.18l-2.123.915.471-3.113c.022-.144-.155-.231-.256-.125l-3.257 3.446 4.418 2.209z"/><path fill="#B4C187" d="M16 2.417c4.093 0 4.535 4.495 5.537 8.913 1.108 4.888 1.255 6.837 2.421 9.837 1.28 3.29-.416 8.833-7.958 8.833v-27.583z"/><path fill="#7C8AC4" d="M22.458 18.125c-.105.699-4.057 6.079-5.667 7.812-.271.292-.354.479-.792.479v-12.812l6.459 4.521z"/><path fill="#707EB7" d="M22.458 18.125c-.105.699-4.057 6.079-5.667 7.812-.271.292-.354.479-.792.479v-9.256c.774 0 2.455-.185 4.152-.649l2.307 1.614z"/><path fill="#6673AA" d="M16.792 25.938c-.2.215-.299.372-.513.441l-.039.008-.24.03v-3.924c1.107 0 2.881-.534 4.582-1.394-1.279 1.787-2.896 3.875-3.79 4.839z"/><path fill="#A8B875" d="M16 2.167c4.093 0 4.535 4.745 5.537 9.163 1.304 2.639 2.405 6.731 2.836 8.21.04.137-.11.251-.226.168-2.552-1.811-5.731-4.216-7.084-5.271-.455-.354-.646-.437-1.063-.437v-11.833z"/><path fill="#9EB164" d="M16 10.667c1.542-.042 3.958-2 4.73-2.984.176.707.734 3.186.895 3.942-.333.833-4 1.625-5.625 1.75v-2.708z"/><path fill="#A8B875" d="M20.458 25.5c-.047 2.861.403 4.583 3.051 4.583 2.459 0 3.641-2.175 3.641-4.8s-1.939-4.658-3.405-4.658c-1.512 0-3.243 2.25-3.287 4.875z"/><path fill="#97AC59" d="M24.042 28.208c.874-.058 1.5.312 1.75.979-.292.667-.524.868-.396 1.083.229.386 1.135 1.73 1.135 1.73h-4.094c.312-.406.646-.875.729-1.125.042-.125-.104-.271-.312-.854-.221-.618.563-1.771 1.188-1.813z"/><path fill="#EDEEEE" d="M25.802 31.125c.295 0 1.098.358 1.098.875h-1.615c-.039-.234-.028-.875.517-.875zm-2.855 0c-.295 0-1.098.358-1.098.875h1.615c.039-.234.028-.875-.517-.875zm2.137.875c0-.323-.259-.783-.754-.754-.366.022-.603.28-.56.754h1.314z"/><path fill="#2B3332" d="M18.114 13.576c.067.234 3.02-.688 3.181-.86.161-.172-.464-1.36-.837-1.305s-2.439 1.835-2.344 2.165zM26.184 22.245c.352.504.63 1.101.795 1.769-1.209.378-3.337.899-3.394.671-.086-.345 1.63-1.81 2.599-2.44zM27.136 25.538c-.021.68-.125 1.32-.311 1.9-1.237-.32-3.224-.964-3.155-1.182.107-.337 2.304-.685 3.466-.718zM18.806 14.5c0-.292 2.062-.896 2.396-.771.333.125-.229 1.042-.396 1.104-.166.063-2-.227-2-.333z"/><path fill="#EDEEEE" d="M29.509 16.719c.284-.078 1.564.811 1.488 1.124-.089.366-1.407.064-1.754-.143-.203-.122-.259-.836.266-.981zm-1.19 1.915c.199.352 1.196 1.265 1.454.991.221-.234-.452-1.64-.737-1.713-.529-.133-.834.516-.717.722zm-1.361-1.074c.17.366.741.835 1.02.582.238-.216-.045-.965-.324-1.06-.516-.175-.796.263-.696.478z"/><path fill="#F7F7F7" d="M18.513 4.109c.484.188.85 1.516.651 2.049-.213.216-2.729.169-2.729.169l2.078-2.218z"/><path fill="#2B3332" d="M16.434 6.328l1.652-1.764c.504.295.582 1.452.4 1.726-.812.061-2.052.038-2.052.038z"/><ellipse fill="#F7F7F7" cx="17.509" cy="5.55" rx=".443" ry=".534"/><path fill="#9EB164" d="M16 0c.583 0 1.125 3.5 1.125 3.5l2.35-.807c.121-.042.22.103.135.2-.85.969-2.516 3.607-3.61 3.607v-6.5z"/></svg>