<svg xmlns="http://www.w3.org/2000/svg" width="32" height="32" viewBox="0 0 32 32"><path fill="#5C699E" d="M26.629 22.177c.272.761 1.649 2.192 2.083 2.228l-.254-1.359c.001.001-.905-.742-1.829-.869zM32 26.125c-1.052-.027-3.382-1.148-3.604-1.671l1.784-.239s1.287.819 1.82 1.91z"/><path fill="#9FC9E4" d="M14.071 15.708l-3.498 1.446-4.698.512-1.936 2.204c-.081.082-.207.098-.306.039 0 0-.654-.805-.803-.98-.038-.045-.109-.163-.039-.262.25-.354.75-1.042.75-1.042l-2.446.037-.148-.114-.321-1.285c-.023-.092.045-.183.14-.186l2.418-.095-3.068-.704c-.078-.018-.128-.094-.114-.172l.31-1.747c.017-.094.116-.149.204-.113l2.415.978-1.326-.954-.794-1.601c-.03-.061-.015-.136.036-.18l1.201-1.036c.084-.072.214-.032.243.075l.456 1.692 1.496 1.447-.25-2.202c-.009-.077.043-.149.12-.164l1.361-.273c.083-.017.163.038.177.121l.427 2.463s3.999 1.227 4.445 1.221c.446-.006 2.28-.371 3.136-.572l.412 1.447z"/><path fill="#8EC0E0" d="M18.34 14.261c.856.2 2.69.565 3.136.572.446.006 4.445-1.221 4.445-1.221l.427-2.463c.014-.083.095-.138.177-.121l1.361.273c.076.015.128.087.12.164l-.25 2.202 1.496-1.447.456-1.692c.029-.107.159-.147.243-.075l1.201 1.036c.052.045.067.119.036.18l-.794 1.601-1.326.954 2.415-.978c.088-.036.187.019.204.113l.31 1.747c.014.079-.036.155-.114.172l-3.068.704 2.418.095c.095.004.163.094.14.186l-.321 1.285-.148.114-2.446-.037s.5.688.75 1.042c.07.099 0 .217-.039.262-.149.175-.803.98-.803.98-.099.059-.225.043-.306-.039l-1.936-2.204-4.698-.512-3.498-1.446.412-1.447z"/><path fill="#7FB8E0" d="M31.999 20.751c-.778 7.874-7.778 8.499-12.715 8.499v-5.333c5.312.208 9.164.264 12.272-3.338.156-.182.466-.066.443.172z"/><path fill="#B0D3EA" d="M16 7.25c-2.667 0-1.415 1.748-2.417 6.167-1.108 4.888-2.875 4.75-4.042 7.75-1.279 3.29-1.083 8.833 6.459 8.833v-22.75z"/><path fill="#707EB7" d="M16 18.625c-.75 0-1.688-1.312-2.25-1-2.249 1.249-4.308 3.807-4.354 3.945-1.107 3.32-.638 8.43 6.604 8.43v-11.375z"/><path fill="#9FC9E4" d="M12.542 25.692c.042 2.533-.357 4.058-2.702 4.058-2.177 0-3.224-1.926-3.224-4.25s1.717-4.125 3.015-4.125c1.34 0 2.873 1.993 2.911 4.317zM8.451 29.054c-.463.641-1.095 1.556-1.533 2.196-.219.319.012.75.399.75h2.792c.166 0 .32-.085.408-.226l.712-1.139c.03-.048.029-.108-.002-.156l-1.092-1.667-1.684.242zM16 7.25c2.667 0 1.415 1.748 2.417 6.167 1.108 4.888 2.875 4.75 4.042 7.75 1.279 3.29 1.083 8.833-6.459 8.833v-22.75z"/><path fill="#C1DDEE" d="M12.314 5.523c0 1.016.564 4.909.733 5.191.17.282 2.953 2.031 2.953 2.031v-7.278l-3.686.056z"/><path fill="#D2E6F3" d="M16 0c-.733 0-2.467 3.286-2.866 3.685-3.152 3.152 1.145 2.916 1.456 4.264.169.733.733 4.796 1.411 4.796v-12.745z"/><path fill="#6673AA" d="M10.472 4.875c.576 1.612 3.493 4.645 4.415 4.722l-.537-2.879c-.001 0-1.92-1.574-3.878-1.843z"/><path fill="#fff" d="M14.481 7.425c-.311-.466-.683-.735-.961-.628-.389.15-.439.96-.113 1.81l.029.059c.597.529 1.14.906 1.451.932l-.406-2.173z"/><ellipse fill="#1D1D1B" cx="14.029" cy="8.087" rx=".233" ry=".497"/><path fill="#B0D3EA" d="M19.686 5.523c0 1.016-.564 4.909-.733 5.191-.17.282-2.953 2.031-2.953 2.031v-7.278l3.686.056z"/><path fill="#C1DDEE" d="M16 0c.733 0 2.467 3.286 2.866 3.685 3.152 3.152-1.145 2.916-1.456 4.264-.169.733-.733 4.796-1.411 4.796v-12.745z"/><path fill="#5C699E" d="M21.528 4.875c-.576 1.612-3.493 4.645-4.415 4.722l.537-2.879c.001 0 1.92-1.574 3.878-1.843z"/><path fill="#fff" d="M17.519 7.425c.311-.466.684-.735.961-.628.389.15.439.96.113 1.81l-.029.059c-.597.529-1.14.906-1.451.932l.406-2.173z"/><ellipse fill="#1D1D1B" cx="17.971" cy="8.087" rx=".233" ry=".497"/><path fill="#6673AA" d="M16 18.625c.75 0 1.688-1.312 2.25-1 2.249 1.249 4.308 3.807 4.354 3.945 1.107 3.32.638 8.43-6.604 8.43v-11.375z"/><path fill="#8EC0E0" d="M19.458 25.692c-.042 2.533.357 4.058 2.702 4.058 2.177 0 3.224-1.926 3.224-4.25s-1.717-4.125-3.015-4.125c-1.34 0-2.873 1.993-2.911 4.317zM23.549 29.054c.463.641 1.095 1.556 1.533 2.196.219.319-.012.75-.399.75h-2.792c-.166 0-.32-.085-.408-.226l-.712-1.139c-.03-.048-.029-.108.002-.156l1.092-1.667 1.684.242z"/></svg>