<svg xmlns="http://www.w3.org/2000/svg" width="32" height="32" viewBox="0 0 32 32"><path d="M30.726 14.177l-1.298-3.893c-.213-.638-.982-.889-1.53-.497l-5.036 3.597.035.414c.085 2.248.156 4.442.048 6.436-.067 1.246.133 2.48.529 3.658l1.994-1.494c.322-.241.468-.652.37-1.043l-.838-3.355 5.224-2.612c.445-.223.659-.739.502-1.211z" fill="#F7C845"/><path d="M11 29l-1.794 1.794c-.132.132-.206.311-.206.498v.003c0 .389.316.705.705.705h2.59c.389 0 .705-.316.705-.705v-2.295h-2z" fill="#FFD04D"/><path d="M9.054 20.234c-.107-1.995-.036-4.188.048-6.436.14-3.697 3.105-6.767 6.804-6.798l.094.004v21.996c-2 0-3.624 1.257-5.118.846-1.347-.371-2.421-1.482-2.757-2.838-.22-.887-.139-1.734.157-2.471.552-1.373.852-2.825.772-4.303z" fill="#FFD96C"/><path d="M8.289 19.785c.666-.666 1.763-.605 2.351.13l2.014 2.517c.503.629.453 1.535-.117 2.104-.569.569-1.476.619-2.104.117l-1.961-1.569c-1.032-.825-1.118-2.364-.183-3.299zM8.873 6.978c-2.027-3.511-1.937-5.943-1.824-6.76.023-.166.191-.262.346-.198.767.317 2.93 1.471 4.943 4.958.585 1.013.931 1.837 1.129 2.515.756-.307 1.577-.485 2.44-.492l.093.003v13.996c-3.006 0-5.621-1.66-6.988-4.111.017-1.01.052-2.043.091-3.091.061-1.629.672-3.135 1.652-4.314-.554-.517-1.186-1.301-1.882-2.506z" fill="#FFE28A"/><path d="M7.963 5.169c-1.069-2.428-1.006-4.285-.914-4.951.023-.166.191-.262.346-.198.614.254 2.17 1.045 3.749 3.159-1.296.228-2.435.969-3.181 1.99z" fill="#373F3F"/><path d="M21 29l1.794 1.794c.132.132.206.311.206.498v.003c0 .389-.316.705-.705.705h-2.59c-.389 0-.705-.316-.705-.705v-2.295h2z" fill="#F7C845"/><path d="M22.946 20.234c.107-1.995.036-4.188-.048-6.436-.14-3.697-3.105-6.767-6.804-6.798l-.094.004v21.996c2 0 3.624 1.257 5.118.846 1.347-.371 2.421-1.482 2.757-2.838.22-.887.139-1.734-.157-2.471-.552-1.373-.852-2.825-.772-4.303z" fill="#FFD04D"/><path d="M16.575 7.029l-.481-.029-.046.002.527.027z" fill="#ECCD50"/><path d="M23.127 6.978c2.027-3.511 1.937-5.943 1.824-6.76-.023-.166-.191-.262-.346-.198-.767.317-2.93 1.471-4.943 4.958-.585 1.013-.931 1.837-1.129 2.515-.756-.307-1.576-.485-2.439-.493l-.094.004v13.996c3.006 0 5.621-1.66 6.988-4.111-.017-1.01-.052-2.043-.091-3.091-.061-1.629-.672-3.135-1.652-4.314.554-.517 1.186-1.301 1.882-2.506z" fill="#FFD96C"/><path d="M17 15.501c0-.552-.448-.5-1-.5v1c.552 0 1 .053 1-.5z" fill="#2B3332"/><path d="M16 15.001c-.552 0-1-.052-1 .5s.448.5 1 .5v-1z" fill="#373F3F"/><path d="M11 16.467c0 .828-.172 1.5-1 1.5s-1.5-.672-1.5-1.5.672-1.5 1.5-1.5 1 .671 1 1.5z" fill="#FF8D6E"/><path d="M21 16.467c0 .828.172 1.5 1 1.5s1.5-.672 1.5-1.5-.672-1.5-1.5-1.5-1 .671-1 1.5z" fill="#FF805D"/><path d="M23.711 19.785c-.666-.666-1.763-.605-2.351.13l-2.014 2.517c-.503.629-.453 1.535.117 2.104.569.569 1.476.619 2.104.117l1.961-1.569c1.032-.825 1.118-2.364.183-3.299z" fill="#FFD96C"/><circle cx="12.5" cy="13.5" r="1.5" fill="#96643B"/><path d="M12.5 12c-.286 0-.55.084-.777.223-.139.227-.223.491-.223.777 0 .828.672 1.5 1.5 1.5.286 0 .55-.084.777-.223.139-.227.223-.491.223-.777 0-.828-.672-1.5-1.5-1.5z" fill="#373F3F"/><circle cx="13" cy="13" r=".5" fill="#fff"/><circle cx="19.5" cy="13.5" r="1.5" fill="#8D5B36"/><path d="M19.5 12c.286 0 .55.084.777.223.139.227.223.491.223.777 0 .828-.672 1.5-1.5 1.5-.286 0-.55-.084-.777-.223-.139-.227-.223-.491-.223-.777 0-.828.672-1.5 1.5-1.5z" fill="#2B3332"/><circle cx="19" cy="13" r=".5" fill="#F7F7F7"/><path d="M24.037 5.169c1.069-2.428 1.006-4.285.914-4.951-.023-.166-.191-.262-.346-.198-.614.254-2.17 1.045-3.749 3.159 1.296.228 2.435.969 3.181 1.99z" fill="#2B3332"/></svg>