<svg xmlns="http://www.w3.org/2000/svg" width="32" height="32" viewBox="0 0 32 32"><path fill="#A8B875" d="M.5 7.409s.182.38.888 1.397l-.859 2.074c-.018.049-.009.103.023.144l.827 1.058s.133.237.331-.044c.612-.871 1.25-1.788 1.25-1.788.032.161-.438 1.326-.771 2.509l.028.135.981 1.226c.067.084.196.074.248-.019.188-.34.418-.825.972-1.726-.081.57-.242 1.14-.638 2.254l.019.144 1.045 1.405c.059.079.181.075.242-.002.547-.684.61-.762.999-1.384-.04.645-.432 1.329-.684 2.053l.017.135 1.138 1.688c.056.083.18.085.244.009.453-.541.701-.935 1.159-1.469.075.357-.417 1.681-.862 2.413-.033.055-.027.12.014.169l1.483 1.773c.072.086.208.067.252-.036.174-.406.553-1.295.862-2.069.146.875-.187 2.581-.272 2.992-.012.058.012.113.061.148l3.461.568 1.708-6.333-.178-.209h-1.488l-7-10-4.75-4.061-.75 4.846z"/><path fill="#CDD4AD" d="M14.26 15.73l-1.795 6.655-2.324-1.648c-.051-.036-.077-.094-.064-.156.09-.433.44-2.225.286-3.144-.325.813-.723 1.748-.906 2.174-.046.108-.19.128-.265.038l-1.559-1.863c-.043-.052-.05-.12-.015-.177.468-.769.985-2.161.906-2.536-.48.56-.741.975-1.217 1.543-.067.08-.198.078-.257-.009l-1.195-1.774-.019-.143c.265-.76.676-1.479.718-2.157-.408.653-.474.735-1.049 1.454-.065.081-.193.086-.255.003l-1.098-1.477c-.031-.042-.038-.102-.02-.151.416-1.17.585-1.769.671-2.368-.583.947-.825 1.457-1.022 1.814-.054.098-.19.108-.261.02l-1.031-1.289-.029-.142c.35-1.243.844-2.467.81-2.636 0 0-.67.964-1.313 1.879-.208.296-.347.047-.347.047l-.869-1.112c-.034-.043-.043-.1-.024-.152l1.02-2.764c-.501.854-.93 1.482-1.352 2.166-.165.269-.33-.029-.33-.029l-.055-.077v-2.412l1.012-1.993-.512-.569-.5-1.179 5.153 3.435 7.356 10.509h1.565l.186.22z"/><path fill="#CB412A" d="M.351 5.997c-.035.052-.035.121.002.172l.796 1.114s.157.284.315.028c.401-.651.809-1.248 1.286-2.061l-.971 2.63c-.018.049-.01.103.022.144l.827 1.058s.133.237.331-.044c.612-.871 1.25-1.788 1.25-1.788.032.161-.439 1.326-.772 2.509l.028.135.981 1.226c.067.084.196.074.248-.019.188-.34.418-.825.972-1.726-.081.57-.242 1.14-.638 2.254l.019.144 1.045 1.405c.059.079.181.075.242-.002.547-.684.61-.762.999-1.384-.04.645-.432 1.329-.684 2.053l.019.135 1.138 1.688c.056.083.18.085.244.009.453-.541.701-.935 1.159-1.469.075.357-.417 1.681-.862 2.413-.033.055-.027.12.014.169l1.483 1.773c.072.086.208.067.252-.036.174-.406.553-1.295.862-2.069.146.875-.187 2.581-.272 2.992-.012.058.012.113.061.148l2.211 1.568 1.708-6.333-.178-.209h-1.488l-7-10-5.98-3.986-.02 1.779c.5.583.833.958 1.583 1.791l-1.232 1.789z"/><path fill="#AD4630" d="M.351 5.997c-.035.052-.035.121.002.172l.796 1.114s.157.284.315.028c.401-.651.809-1.248 1.286-2.061l-.971 2.63c-.018.049-.01.103.022.144l.827 1.058s.133.237.331-.044c.612-.871 1.25-1.788 1.25-1.788.032.161-.439 1.326-.772 2.509l.028.135.981 1.226c.067.084.196.074.248-.019.188-.34.418-.825.972-1.726-.081.57-.242 1.14-.638 2.254l.019.144 1.045 1.405c.059.079.181.075.242-.002.547-.684.61-.762.999-1.384-.04.645-.432 1.329-.684 2.053l.019.135 1.138 1.688c.056.083.18.085.244.009.453-.541.701-.935 1.159-1.469.075.357-.417 1.681-.862 2.413-.033.055-.027.12.014.169l1.483 1.773c.072.086.208.067.252-.036.174-.406.553-1.295.862-2.069.146.875-.187 2.581-.272 2.992-.012.058.012.113.061.148l2.211 1.568 1.708-6.333-.178-.209h-1.488l-7-10-5.98-3.986-.02 1.779c.5.583.833.958 1.583 1.791l-1.232 1.789z"/><path fill="#FFC550" d="M15.823 25.024l-1.626-1.626c-.105-.105-.279-.096-.372.021l-3.501 4.376c-.131.164-.014.406.195.406h2.481l-.665 1.995c-.083.25.227.442.414.256l1.251-1.251 1.792 2.688c.049.074.129.111.208.111v-6.903c-.064 0-.128-.024-.177-.073z"/><path fill="#E55D53" d="M16 9.42v15.83s-2.704 1.685-4.567-.674c-1.224-1.55-.609-3.863.536-6.107.781-1.531 3.375-4.281 2.347-9.845.432-.175 1.684.796 1.684.796z"/><path fill="#E3E5E5" d="M16 17.958v7.292s-2.704 1.685-4.567-.674c-1.224-1.55-.609-3.863.536-6.107.305-.597.885-1.38 1.419-2.442.237 1.098 1.612 1.931 2.612 1.931z"/><path fill="#515E91" d="M12 23.624v1h-1.5c-.276 0-.5.224-.5.5s.224.5.5.5h.793l-.543.543c-.195.195-.195.512 0 .707.195.195.512.195.707 0l.543-.543v.793c0 .276.224.5.5.5s.5-.224.5-.5v-3.5h-1z"/><path fill="#9EB164" d="M32 6.659s-.682 1.13-1.388 2.147l.859 2.074c.018.049.009.103-.023.144l-.827 1.058s-.133.237-.331-.044c-.612-.871-1.25-1.788-1.25-1.788-.032.161.438 1.326.771 2.509l-.028.135-.981 1.226c-.067.084-.196.074-.248-.019-.188-.34-.418-.825-.972-1.726.081.57.242 1.14.638 2.254l-.019.144-1.045 1.405c-.059.079-.181.075-.242-.002-.547-.684-.61-.762-.999-1.384.04.645.432 1.329.684 2.053l-.018.136-1.138 1.688c-.056.083-.18.085-.244.009-.453-.541-.701-.935-1.159-1.469-.075.357.417 1.681.862 2.413.033.055.027.12-.014.169l-1.483 1.773c-.072.086-.208.067-.252-.036-.174-.406-.553-1.295-.862-2.069-.146.875.187 2.581.272 2.992.012.058-.012.113-.061.148l-3.461.568-1.708-6.333.178-.209h1.489l7-10 4.5-4.811 1.5 4.845z"/><path d="M32 3.995v1.313l-.512-.743.512-.57z" fill="none"/><path fill="#C0C998" d="M17.926 15.51h1.565l7.356-10.509 5.153-3.435-.5 1.179-.512.57 1.012 1.992v2.411l-.055.077s-.165.298-.331.029c-.422-.684-.851-1.311-1.352-2.166l1.02 2.764c.019.051.01.109-.024.152l-.868 1.113s-.14.249-.347-.046c-.643-.916-1.313-1.88-1.313-1.88-.034.169.461 1.393.81 2.636l-.029.142-1.031 1.289c-.07.088-.206.078-.261-.02-.197-.357-.439-.867-1.022-1.814.086.599.255 1.198.671 2.368.018.049.011.109-.02.151l-1.098 1.477c-.062.083-.19.078-.255-.002-.575-.719-.641-.801-1.049-1.454.042.678.454 1.397.718 2.157l-.019.143-1.195 1.774c-.059.087-.19.09-.257.009-.476-.569-.737-.983-1.217-1.543-.079.375.438 1.767.906 2.536.035.057.028.126-.015.177l-1.559 1.863c-.075.09-.219.07-.265-.038-.183-.426-.581-1.361-.906-2.174-.153.92.197 2.712.286 3.144.013.061-.013.119-.064.156l-2.324 1.648-1.795-6.656.186-.22z"/><path fill="#CB412A" d="M31.649 5.997c.036.052.035.121-.001.172l-.796 1.114s-.157.284-.315.028c-.401-.651-.81-1.248-1.287-2.061l.971 2.63c.018.049.009.103-.023.144l-.827 1.058s-.133.237-.331-.044c-.612-.871-1.25-1.788-1.25-1.788-.032.161.438 1.326.771 2.509l-.028.135-.981 1.226c-.067.084-.196.074-.248-.019-.188-.34-.418-.825-.972-1.726.081.57.242 1.14.638 2.254l-.019.144-1.045 1.405c-.059.079-.181.075-.242-.002-.547-.684-.61-.762-.999-1.384.04.645.432 1.329.684 2.053l-.018.136-1.138 1.688c-.056.083-.18.085-.244.009-.453-.541-.701-.935-1.159-1.469-.075.357.417 1.681.862 2.413.033.055.027.12-.014.169l-1.483 1.773c-.072.086-.208.067-.252-.036-.174-.406-.553-1.295-.862-2.069-.146.875.187 2.581.272 2.992.012.058-.012.113-.061.148l-2.211 1.568-1.708-6.333.178-.209h1.489l7-10 5.98-3.986.02 1.778c-.5.583-.833.958-1.583 1.791l1.232 1.789z"/><path fill="#A0422C" d="M31.649 5.997c.036.052.035.121-.001.172l-.796 1.114s-.157.284-.315.028c-.401-.651-.81-1.248-1.287-2.061l.971 2.63c.018.049.009.103-.023.144l-.827 1.058s-.133.237-.331-.044c-.612-.871-1.25-1.788-1.25-1.788-.032.161.438 1.326.771 2.509l-.028.135-.981 1.226c-.067.084-.196.074-.248-.019-.188-.34-.418-.825-.972-1.726.081.57.242 1.14.638 2.254l-.019.144-1.045 1.405c-.059.079-.181.075-.242-.002-.547-.684-.61-.762-.999-1.384.04.645.432 1.329.684 2.053l-.018.136-1.138 1.688c-.056.083-.18.085-.244.009-.453-.541-.701-.935-1.159-1.469-.075.357.417 1.681.862 2.413.033.055.027.12-.014.169l-1.483 1.773c-.072.086-.208.067-.252-.036-.174-.406-.553-1.295-.862-2.069-.146.875.187 2.581.272 2.992.012.058-.012.113-.061.148l-2.211 1.568-1.708-6.333.178-.209h1.489l7-10 5.98-3.986.02 1.778c-.5.583-.833.958-1.583 1.791l1.232 1.789z"/><path fill="#EFB43F" d="M16.177 25.024l1.626-1.626c.105-.105.279-.096.372.021l3.501 4.376c.131.164.014.406-.195.406h-2.481l.665 1.995c.083.25-.227.442-.414.256l-1.251-1.251-1.792 2.688c-.049.074-.129.111-.208.111v-6.903c.064 0 .128-.024.177-.073z"/><path fill="#D64F45" d="M16 9.42v15.83s2.704 1.685 4.567-.674c1.224-1.55.609-3.863-.536-6.107-.781-1.531-3.375-4.281-2.347-9.845-.432-.175-1.684.796-1.684.796z"/><path fill="#DADDDC" d="M16 17.958v7.292s2.704 1.685 4.567-.674c1.224-1.55.609-3.863-.536-6.107-.305-.597-.885-1.38-1.419-2.442-.237 1.098-1.612 1.931-2.612 1.931z"/><path fill="#424B7E" d="M20 23.624v1h1.5c.276 0 .5.224.5.5s-.224.5-.5.5h-.793l.543.543c.195.195.195.512 0 .707-.195.195-.512.195-.707 0l-.543-.543v.793c0 .276-.224.5-.5.5s-.5-.224-.5-.5v-3.5h1z"/><path fill="#FFC550" d="M15.187 5.239c-.015-1.205.209-1.971-1.012-2.475-1.502-.619-1.879-2.293-.72-2.667.381-.123 1.268-.275 1.504.566.151.537-.132.635-.489.856.282.066 1.544-.137 1.544.954v2.396l-.827.37z"/><path fill="#E7685F" d="M16.014 4.691v8.306c-1.72 0-3.115-1.859-3.115-4.153s1.395-4.153 3.115-4.153z"/><path fill="#EFB43F" d="M13.317 11.03c.485 1.321 2.098 2.157 2.697 2.157v-3.057c0 .001-1.648.401-2.697.9z"/><path fill="#373F3F" d="M15.697 7.298c-.929-.055-2.289-.397-2.903-1.237-.092-.126-.292-.083-.327.069-.181.779-.325 1.96.49 2.724.703.659 2.117 1.121 2.366.872l.374-2.428z"/><path fill="#fff" d="M15.697 7.814c-.832-.067-1.862-.297-2.517-.786-.11-.082-.27-.02-.291.115-.076.473-.017 1.047.597 1.623.533.5 1.804.812 1.993.623l.218-1.575z"/><path fill="#B94A34" d="M14.92 9.409c.315-.093.575-.305.71-.6.031-.254.047-.533.056-.732-.024-.099-.054-.191-.102-.278-.524-.05-1.099-.171-1.62-.371-.291.205-.493.527-.493.91 0 .196.063.372.151.533.353.263.886.461 1.298.538z"/><ellipse fill="#373F3F" cx="14.45" cy="8.414" rx=".324" ry=".485"/><path fill="#FFC550" d="M16.014 6.391c-.384 0-.722 2.504-1.294 3.054-.624.599-2.104.627-2.104 1.962.539-.189.983-.485 1.915-.485.449 0 .996.809 1.483.809v-5.34z"/><path fill="#EFB43F" d="M16.84 5.239c.015-1.205-.209-1.971 1.012-2.475 1.502-.619 1.879-2.293.72-2.667-.381-.123-1.268-.275-1.504.566-.151.537.132.635.489.856-.282.066-1.544-.137-1.544.954v2.396l.827.37z"/><path fill="#E55D53" d="M19.129 8.844c0 2.294-1.395 4.153-3.115 4.153v-8.306c1.72 0 3.115 1.86 3.115 4.153z"/><path fill="#2B3332" d="M16.209 7.298c.929-.055 2.289-.397 2.903-1.237.092-.126.292-.083.327.069.181.779.325 1.96-.49 2.724-.703.659-2.117 1.121-2.366.872l-.374-2.428z"/><path fill="#fff" d="M16.209 7.814c.832-.067 1.862-.297 2.517-.786.11-.082.27-.02.291.115.076.473.017 1.047-.597 1.623-.533.5-1.804.812-1.993.623l-.218-1.575z"/><path fill="#AD4630" d="M16.986 9.409c-.315-.093-.575-.305-.71-.6-.031-.254-.047-.533-.056-.732.024-.099.054-.191.102-.278.524-.05 1.099-.171 1.62-.371.291.205.493.527.493.91 0 .196-.063.372-.151.533-.353.263-.886.461-1.298.538z"/><ellipse fill="#2B3332" cx="17.457" cy="8.414" rx=".324" ry=".485"/><path fill="#DDA32F" d="M18.711 11.03c-.485 1.321-2.098 2.157-2.697 2.157v-3.057c0 .001 1.648.401 2.697.9z"/><path fill="#EFB43F" d="M16.014 6.391c.384 0 .722 2.504 1.294 3.054.624.599 2.104.627 2.104 1.962-.539-.189-.983-.485-1.915-.485-.449 0-.996.809-1.483.809v-5.34z"/></svg>