<svg xmlns="http://www.w3.org/2000/svg" width="32" height="32" viewBox="0 0 32 32"><path fill="#E2EFF7" d="M14.929 17.391c-1.414-.805-5.901-2.516-10.179-2.058-1.167.125-1.268 1.147-.625 1.667s7.804 3.315 10.25 2.792l.554-2.401z"/><path fill="#D2E6F3" d="M17.071 17.391c1.414-.805 5.901-2.516 10.179-2.058 1.167.125 1.268 1.147.625 1.667s-7.804 3.315-10.25 2.792l-.554-2.401z"/><path fill="#B1E346" d="M15.5 31.118c0 .735-.834.882-1.862.882s-3.332.049-3.332-.882c0-.784 1.924-.944 3.105-.874.173.01.324-.118.324-.292v-4.077h1.47v4.6c.18.132.295.327.295.643z"/><path fill="#D9F07D" d="M16 19h-1.399c-1.142 2.708-2.351 2.792-2.351 5.25 0 3.333 2.25 4.5 3.75 4.5v-9.75z"/><path fill="#BEE758" d="M13.884 20.402c-.88 1.442-1.634 1.906-1.634 3.848 0 3.333 2.25 4.5 3.75 4.5v-6.301c-.333 0-1.537-1.319-2.116-2.047z"/><path fill="#AADB3D" d="M16.794 30.475v-4.6h1.47v4.077c0 .173.151.302.324.292 1.182-.07 3.105.09 3.105.874 0 .931-2.304.882-3.332.882s-1.862-.147-1.862-.882c.001-.316.116-.511.295-.643z"/><path fill="#D9F07D" d="M15.25 17.552v.283c-3.447.621-11.518 4.773-12.75 5.165-.917.292-1.5.5-1.5.5l.75.417-.75.416.792.208s-.25.375-.542.708c1.958-.125 7.25-2 8.625-2.708.929-.479 5.375-2.333 6.125-2.333v-2.656h-.75z"/><path fill="#CBEB6B" d="M16 19h1.399c1.142 2.708 2.351 2.792 2.351 5.25 0 3.333-2.25 4.5-3.75 4.5v-9.75z"/><path fill="#B1E346" d="M18.116 20.402c.88 1.442 1.634 1.906 1.634 3.848 0 3.333-2.25 4.5-3.75 4.5v-6.301c.333 0 1.537-1.319 2.116-2.047z"/><path fill="#CBEB6B" d="M30.25 23.917l.75-.417s-.583-.208-1.5-.5c-1.232-.392-9.303-4.544-12.75-5.165v-.283h-.75v2.657c.75 0 5.196 1.855 6.125 2.333 1.375.708 6.667 2.583 8.625 2.708-.292-.333-.542-.708-.542-.708l.792-.209-.75-.416z"/><path fill="#E6F490" d="M16 0c-2.417 7.5-8 6.583-8 11.542 0 4.583 4.292 6.25 8 6.25v-17.792z"/><path fill="#E2EFF7" d="M7.9 5.495c-.765-1.965-.315-4.051 1.195-5.283.101-.082.05-.247-.065-.191-2.186 1.06-3.226 3.641-2.33 5.945.901 2.317 3.435 3.517 5.774 2.796.109-.034.067-.187-.037-.179-1.98.152-3.762-1.095-4.537-3.088z"/><path fill="#373F3F" d="M9.788 10.036c.896-.256 2.8 1.162 3.199 2.776.399 1.614.296 2.386-.208 2.62-.72.334-3.273.082-3.681-2.252-.408-2.335.271-3.025.69-3.144z"/><path fill="#fff" d="M10.078 10.82c.692-.197 2.162.897 2.471 2.143.308 1.246.229 1.843-.161 2.023-.556.258-2.527.063-2.843-1.739-.316-1.802.209-2.335.533-2.427z"/><path fill="#C1DDEE" d="M11.814 11.685c.34.365.619.811.735 1.278.308 1.246.229 1.843-.161 2.023-.278.129-.91.145-1.511-.097-.78-1.423-.247-3.72.937-3.204z"/><ellipse fill="#65A9DC" cx="11.698" cy="13.542" rx=".698" ry="1.167"/><path fill="#fff" d="M12.009 12.832c-.065.441.094.83.355.868.106.016.206-.062.299-.15-.031-.183-.059-.362-.115-.586-.059-.238-.162-.47-.292-.689-.117.131-.212.32-.247.557z"/><path fill="#D9F07D" d="M16 0c2.417 7.5 8 6.583 8 11.542 0 4.583-4.292 6.25-8 6.25v-17.792z"/><path fill="#2B3332" d="M22.212 10.036c-.896-.256-2.8 1.162-3.199 2.776s-.296 2.386.208 2.62c.72.334 3.273.082 3.681-2.252.408-2.335-.271-3.025-.69-3.144z"/><path fill="#F7F7F7" d="M21.922 10.82c-.692-.197-2.162.897-2.471 2.143-.308 1.246-.229 1.843.161 2.023.556.258 2.527.063 2.843-1.739.316-1.802-.209-2.335-.533-2.427z"/><path fill="#B0D3EA" d="M20.186 11.685c-.34.365-.619.811-.735 1.278-.308 1.246-.229 1.843.161 2.023.278.129.91.145 1.511-.097.78-1.423.247-3.72-.937-3.204z"/><path fill="#B1E346" d="M20.144 6.111l.023.103c.038.14-.121.244-.229.15-.435-.379-.794-.674-1.181-.964.003.386.282 1.291.449 2.007.034.145-.137.242-.24.137-.55-.565-1.172-1.401-1.548-1.63-.017.323-.124 1.314-.232 2.166-.02.16-.216.15-.296-.026-.308-.672-.635-1.484-.89-1.819v-6.235c.25 0 .446.348.5.5 1.033 2.899 2.214 4.427 3.644 5.611z"/><path fill="#BEE758" d="M11.856 6.111l-.023.103c-.038.14.121.244.229.15.436-.379.795-.674 1.183-.964-.003.386-.282 1.291-.449 2.007-.034.145.137.242.24.137.55-.565 1.172-1.401 1.548-1.63.017.323.124 1.314.232 2.166.02.16.216.15.296-.026.306-.672.633-1.484.888-1.819v-6.235c-.25 0-.446.348-.5.5-1.033 2.899-2.214 4.427-3.644 5.611z"/><ellipse fill="#5CA3D5" cx="20.302" cy="13.542" rx=".698" ry="1.167"/><path fill="#F7F7F7" d="M19.991 12.832c.065.441-.094.83-.355.868-.106.016-.206-.062-.299-.15.031-.183.059-.362.115-.586.059-.238.162-.47.292-.689.117.131.212.32.247.557z"/><path fill="#8EC0E0" d="M7.718 4.91l-1.23.304c-.437-2.091.591-4.247 2.542-5.193.115-.056.166.109.065.191-1.361 1.11-1.851 2.914-1.377 4.698z"/><path fill="#D2E6F3" d="M24.1 5.495c.764-1.965.315-4.051-1.196-5.283-.101-.082-.049-.247.065-.192 2.186 1.061 3.226 3.641 2.33 5.945-.901 2.317-3.435 3.517-5.774 2.796-.109-.034-.067-.187.037-.179 1.981.153 3.763-1.094 4.538-3.087z"/><path fill="#7FB8E0" d="M22.905.212c-.101-.082-.049-.247.065-.192 1.951.947 2.979 3.102 2.542 5.193l-1.23-.304c.474-1.783-.016-3.587-1.377-4.697z"/><path fill="#373F3F" d="M16 16.375c-.52 0-1.068-.163-1.336-.396-.103-.09-.261-.08-.353.024-.091.104-.08.262.024.353.361.315 1.015.52 1.664.52v-.501z"/><path fill="#2B3332" d="M17.688 16.003c-.092-.104-.25-.114-.353-.024-.268.233-.816.396-1.336.396v.5c.649 0 1.303-.204 1.664-.52.106-.09.116-.249.025-.352z"/></svg>