<svg xmlns="http://www.w3.org/2000/svg" width="32" height="32" viewBox="0 0 32 32"><path d="M16.5 30l-.001-1c.593-.001 14.501-.258 14.501-19.5h1c0 20.266-15.345 20.5-15.5 20.5z" fill="#845331"/><path d="M32 10v-5.191c0-.372-.391-.613-.724-.447l-1.276.638-2.835-4.725c-.102-.171-.287-.275-.486-.275-.354 0-.621.32-.558.668l1.606 8.834c.129.708.94 1.052 1.539.653l1.734-1.155v1h1zM28.576 31.151c-1.163-1.151-4.623-1.151-4.623-1.151s1-1 1-4c0-.992-.44-1.761-1.025-2.352.012-.212.025-.424.025-.648 0-.523-.041-1.058-.107-1.596l4.094-2.729c.579-.386.78-1.142.469-1.764-.271-.542-.863-.843-1.46-.744l-4.427.738c-1.347-2.754-3.591-4.879-6.521-4.902v17.995c1.509-.004 2.835-.199 3.953-.605v1.192c0 .265.105.52.293.707l.414.414c.186.189.441.294.706.294h6.849c.442 0 .674-.538.36-.849z" fill="#F7BC48"/><path d="M12.895 8.14s-1.415-4.403-4.468-5.752c-.727-.321-1.508.32-1.372 1.103.224 1.291.17 3.216-1.423 4.929-.377.405-.366 1.031.033 1.413.965.923 3.013 2.055 6.352.061l.878-1.754z" fill="#96643B"/><path d="M7.192 2.796c-.121.198-.182.436-.137.695.224 1.291.17 3.216-1.423 4.929l-.028.044c2.396 2.745 6.414 1.43 6.414 1.43l.877-1.754s-2.389-3.517-5.703-5.344z" fill="#FFC550"/><path d="M19.126 8.14s1.415-4.403 4.468-5.752c.726-.321 1.508.32 1.372 1.103-.224 1.291-.17 3.216 1.423 4.929.376.405.365 1.031-.034 1.413-.965.923-3.013 2.055-6.352.061l-.877-1.754z" fill="#8D5B36"/><path d="M24.829 2.796c.12.198.182.436.137.695-.224 1.291-.17 3.216 1.423 4.929l.028.044c-2.396 2.745-6.414 1.43-6.414 1.43l-.877-1.754s2.388-3.517 5.703-5.344z" fill="#F7BC48"/><path d="M28.215 32h-3.263c0-.693.192-1.335.502-1.903 1.077.123 2.449.402 3.109 1.042.324.313.103.861-.348.861z" fill="#8D5B36"/><path d="M15.953 12c-2.954 0-5.214 2.134-6.569 4.905l-4.426-.738c-.597-.099-1.19.202-1.46.744-.311.622-.11 1.378.469 1.764l4.094 2.729c-.067.538-.108 1.073-.108 1.596 0 .224.013.436.025.648-.585.591-1.025 1.36-1.025 2.352 0 3 1 4 1 4s-3.46 0-4.623 1.151c-.315.311-.082.849.359.849h6.849c.265 0 .52-.105.707-.293l.414-.414c.188-.188.293-.442.293-.707v-1.19c1.13.41 2.472.604 4 .604l.047-.001v-17.995l-.046-.004zM16 5c3.728 0 5.112.549 6 4 .164.639 2 2.917 2 5 0 4.418-3.582 5-8 5v-14z" fill="#FFC550"/><path d="M16 5c-3.728 0-5.112.549-6 4-.164.639-2 2.917-2 5 0 4.418 3.582 5 8 5v-14z" fill="#FFCF6E"/><path d="M17 14.501c0-.552-.448-.5-1-.5v1c.552 0 1 .053 1-.5z" fill="#2B3332"/><path d="M16 14.001c-.552 0-1-.052-1 .5s.448.5 1 .5v-1z" fill="#373F3F"/><circle cx="12.5" cy="12.5" r="1.5" fill="#96643B"/><path d="M12.5 11c-.286 0-.55.084-.777.223-.139.227-.223.491-.223.777 0 .828.672 1.5 1.5 1.5.286 0 .55-.084.777-.223.139-.227.223-.491.223-.777 0-.828-.672-1.5-1.5-1.5z" fill="#373F3F"/><circle cx="13" cy="12" r=".5" fill="#fff"/><circle cx="19.5" cy="12.5" r="1.5" fill="#8D5B36"/><path d="M19.5 11c.286 0 .55.084.777.223.139.227.223.491.223.777 0 .828-.672 1.5-1.5 1.5-.286 0-.55-.084-.777-.223-.139-.227-.223-.491-.223-.777 0-.828.672-1.5 1.5-1.5z" fill="#2B3332"/><circle cx="19" cy="12" r=".5" fill="#F7F7F7"/><circle cx="10" cy="15" r="1" fill="#FEF1C6"/><circle cx="22" cy="15" r="1" fill="#FFEAA7"/><path d="M9.953 27v.014c.002.932.595 1.765 1.442 2.154 1.245.573 2.797.836 4.604.831l.001-.001v-8.997l-.002-.002c-3.335-.023-6.045 2.672-6.045 6.001z" fill="#FEF1C6"/><path d="M21.953 27c0-3.298-2.661-5.972-5.953-5.998v8.996c1.85-.005 3.428-.294 4.679-.912.774-.383 1.27-1.201 1.273-2.065l.001-.021z" fill="#FFEAA7"/><path d="M3.497 16.911c-.311.622-.11 1.378.469 1.764l1.286.857c.844-.566 1.401-1.528 1.401-2.621 0-.161-.024-.315-.047-.469l-1.647-.275c-.599-.099-1.191.203-1.462.744z" fill="#96643B"/><path d="M28.408 16.911c.311.622.11 1.378-.469 1.764l-1.286.857c-.844-.566-1.401-1.528-1.401-2.621 0-.161.024-.315.047-.469l1.647-.275c.599-.099 1.191.203 1.462.744z" fill="#8D5B36"/><path d="M3.69 32h3.263c0-.693-.192-1.335-.502-1.903-1.077.123-2.449.402-3.109 1.042-.324.313-.102.861.348.861z" fill="#96643B"/></svg>