<svg xmlns="http://www.w3.org/2000/svg" width="32" height="32" viewBox="0 0 32 32"><path d="M22 21s3 0 3 5l-3 6h-3l-1-11h4z" fill="#71B1E1"/><path d="M10 21s-3 0-3 5l3 6h3l1-11h-4z" fill="#7FB8E0"/><path d="M16 16c-3.866 0-7 3.134-7 7s3.134 7 7 7v-14z" fill="#E2EFF7"/><path d="M23 23c0-3.866-3.134-7-7-7v14c3.866 0 7-3.134 7-7zM9.035 23.698c.351 3.538 3.335 6.302 6.965 6.302v-3c-2.808 0-5.314-1.287-6.965-3.302z" fill="#D2E6F3"/><path d="M16 27v3c3.63 0 6.614-2.764 6.965-6.302-1.651 2.015-4.157 3.302-6.965 3.302z" fill="#C1DDEE"/><path d="M23 14s4.932 2.816 3.235 10.996c-.114.547-.648.901-1.191.765l-2.496-.624c-.33-.082-.587-.333-.692-.656-.415-1.28-1.855-4.481-5.856-4.481v-6h7z" fill="#7FB8E0"/><path d="M31.666.639l-.419-.419c-.141-.141-.331-.22-.53-.22h-1.689c-1.477 0-2.705.34-3.73.871l.044-.082c.099-.18.072-.403-.073-.548l-.01-.01c-.144-.144-.367-.177-.545-.077-2.102 1.179-3.218 4.814-3.492 5.818-1.331-1.231-3.097-1.972-5.222-1.972v15c2 0 8-1.029 8-6 0-.73-.073-1.435-.2-2.115 2.295-.414 4.02-1.429 5.123-3.038.67-.977 1.019-2.049 1.188-3.058.601-.472 1.232-.717 1.599-.831.19-.059.317-.235.317-.433v-.244c0-.172-.097-.33-.251-.407l-.749-.374c.153-.614.422-.997.643-1.222.174-.179.173-.463-.004-.639z" fill="#B0D3EA"/><path d="M9 14s-4.932 2.816-3.235 10.996c.114.547.648.901 1.191.765l2.496-.624c.33-.082.587-.333.692-.656.415-1.28 1.855-4.481 5.856-4.481v-6h-7z" fill="#8EC0E0"/><path d="M22.057 6.854c.184-.857 1.429-5.585 6.531-5.843.254-.013.481.164.523.415.27 1.621.766 7.368-5.516 8.484-.33-1.146-.848-2.182-1.538-3.056z" fill="#4896C8"/><path d="M10.801 5.953c-.281-1.027-1.396-4.627-3.487-5.799-.178-.1-.401-.067-.545.077l-.008.008c-.147.147-.174.37-.075.55l.044.082c-1.025-.531-2.253-.871-3.73-.871h-1.689c-.199 0-.39.079-.53.22l-.42.419c-.176.176-.178.46-.004.639.221.225.49.608.643 1.222l-.749.374c-.154.077-.251.235-.251.407v.244c0 .199.127.375.317.434.367.113.998.358 1.599.831.169 1.008.519 2.08 1.188 3.057 1.098 1.603 2.815 2.617 5.096 3.034-.127.68-.2 1.388-.2 2.119 0 4.971 6 6 8 6v-15c-2.113 0-3.871.734-5.199 1.953z" fill="#C1DDEE"/><path d="M8.087 13.964c.722 4.139 6.05 5.036 7.913 5.036v-4.207c-.128 0-.256-.049-.354-.146l-.793-.793c-.195-.195-.512-.195-.707 0l-.856.856c-.169.169-.433.195-.631.062l-.8-.533c-1.124-.749-2.554-.848-3.772-.275z" fill="#B0D3EA"/><path d="M23.913 13.964c-1.218-.573-2.649-.473-3.772.276l-.8.533c-.198.132-.462.106-.631-.062l-.857-.857c-.195-.195-.512-.195-.707 0l-.793.793c-.098.098-.226.146-.354.146v4.207c1.864 0 7.192-.897 7.914-5.036z" fill="#9FC9E4"/><path d="M11.312 9.062c-.739.674-1.232 1.612-1.303 2.672-.01.143.112.266.256.266h3.215c.21 0 .326-.242.195-.406l-1.998-2.497c-.089-.113-.259-.132-.365-.035z" fill="#fff"/><path d="M12.134 9.668c-.686.55-1.134 1.384-1.134 2.332h2.48c.21 0 .326-.242.195-.406l-1.541-1.926z" fill="#E85160"/><path d="M20.697 9.062c.739.674 1.232 1.612 1.303 2.672.009.143-.113.266-.257.266h-3.215c-.21 0-.326-.242-.195-.406l1.998-2.497c.09-.113.26-.132.366-.035z" fill="#F7F7F7"/><path d="M19.874 9.668c.686.55 1.134 1.385 1.134 2.332h-2.48c-.21 0-.326-.242-.195-.406l1.541-1.926z" fill="#D84459"/><path d="M9.97 6.854c-.185-.857-1.429-5.585-6.531-5.843-.254-.013-.481.164-.523.415-.27 1.621-.766 7.368 5.516 8.484.331-1.146.849-2.182 1.538-3.056z" fill="#529CCF"/><path d="M10.834 13.764c-.55-.165-1.128-.205-1.695-.117.2.881.576 2.353.861 2.353.272 0 .629-1.347.834-2.236z" fill="#fff"/><path d="M21.166 13.764c.205.889.562 2.236.834 2.236.285 0 .661-1.472.861-2.353-.567-.088-1.145-.048-1.695.117z" fill="#F7F7F7"/><path d="M29.243 3.016c-.006-.666-.075-1.227-.134-1.587-.041-.252-.268-.431-.523-.418-5.1.259-6.344 4.986-6.529 5.843.278.353.521.739.742 1.141.567-1.663 2.211-4.837 6.444-4.979z" fill="#4390BF"/><path d="M9.228 7.995c.221-.403.464-.788.742-1.141-.185-.857-1.429-5.584-6.529-5.843-.255-.013-.482.166-.523.418-.058.36-.127.921-.134 1.587 4.233.142 5.877 3.316 6.444 4.979z" fill="#4896C8"/><path d="M9.97 6.854c.03.146-1.97-2.854-2.97-2.854s-2 2-2 3c0 .778 2.417 2.159 3.491 2.734.332-1.075.826-2.052 1.479-2.88z" fill="#5BD3D5"/><path d="M22.058 6.854c-.03.146 1.97-2.854 2.97-2.854s2 2 2 3c0 .778-2.417 2.159-3.491 2.734-.333-1.075-.826-2.052-1.479-2.88z" fill="#56C7CD"/><path d="M25.533 4.176c-.166-.102-.335-.176-.505-.176-1 0-3 3-2.97 2.854.278.353.522.738.742 1.141.357-1.049 1.14-2.705 2.733-3.819z" fill="#51BAC5"/><path d="M9.228 7.995c.22-.403.464-.789.742-1.142.03.147-1.97-2.853-2.97-2.853-.171 0-.339.074-.505.176 1.593 1.115 2.376 2.77 2.733 3.819z" fill="#56C7CD"/></svg>