<svg xmlns="http://www.w3.org/2000/svg" width="32" height="32" viewBox="0 0 32 32"><path d="M25.822 28.188c.729-.801 1.164-1.862 1.164-3.188 0-3.314-2.686-6-6-6v11h5.412c.336 0 .589-.329.48-.646-.177-.517-.563-.938-1.056-1.166z" fill="#945BA0"/><path d="M11 19c-3.314 0-6 2.686-6 6 0 1.326.436 2.387 1.164 3.188-.493.228-.879.648-1.057 1.166-.109.317.145.646.481.646h5.412s3.314-11 0-11zM20.986 21s5.823.972 4.08 10.582c-.044.238-.256.418-.498.418h-3.164c-.235 0-.434-.16-.487-.388-.211-.926-1.022-3.214-3.931-3.612l4-7z" fill="#A366AD"/><path d="M10.977 21s-5.823.972-4.08 10.582c.044.238.256.418.498.418h3.164c.235 0 .434-.16.487-.388.211-.926 1.022-3.214 3.931-3.612l-4-7z" fill="#B370B9"/><path d="M15.492 6.212l-1.377 8.949c-.768.136-1.474.358-2.111.661-.101-2.602-1.121-9.091-8.225-15.166-.319-.273-.82-.046-.825.375-.038 3.317.357 13.684 6.602 16.762-1.016 1.329-1.57 3.09-1.57 5.207 0 3.312 6.188 7 8 7v-24.212c-.225 0-.451.142-.494.424z" fill="#D285D2"/><path d="M9.967 16.892c-4.876-2.428-5.836-10.028-5.988-14.134-.009-.225.263-.343.425-.187 6.217 5.99 6.641 11.999 6.614 13.795l-1.051.526z" fill="#4CAEBC"/><path d="M28.221.656c-7.115 6.085-8.127 12.584-8.226 15.178-.644-.31-1.36-.535-2.138-.672l-1.377-8.95c-.043-.283-.269-.424-.494-.424v24.212c1.812 0 8-3.688 8-7 0-2.112-.552-3.869-1.562-5.197 6.264-3.066 6.66-13.451 6.622-16.773-.005-.42-.506-.647-.825-.374z" fill="#C27BC6"/><path d="M20.982 16.366c-.027-1.791.394-7.801 6.612-13.792.162-.157.434-.039.425.187-.156 4.107-1.12 11.706-5.986 14.131l-1.051-.526z" fill="#47A1B4"/><path d="M15.986 26l-1.465.488c-.705.235-.917 1.13-.391 1.656l.15.15c.452.452 1.065.706 1.704.706h.002v-3z" fill="#F6B392"/><path d="M15.988 29c.639 0 1.252-.254 1.704-.706l.15-.15c.526-.526.314-1.421-.391-1.656l-1.465-.488v3h.002z" fill="#F4A984"/><path d="M15.986 26l-1.5.5.378 1.156c.068.205.259.344.476.344h.646v-2z" fill="#fff"/><path d="M15.986 26l1.5.5-.378 1.156c-.067.205-.259.344-.475.344h-.646v-2z" fill="#F7F7F7"/><path d="M10.012 16.869l1.006-.503c.027-1.796-.397-7.805-6.613-13.794-.162-.156-.434-.038-.425.187.018.454.046.951.086 1.476 5.135 5.302 5.88 10.49 5.946 12.634z" fill="#47A1B4"/><path d="M27.931 4.238c.041-.524.069-1.022.087-1.477.009-.226-.263-.344-.426-.187-6.217 5.991-6.638 12.001-6.611 13.791l1.006.503c.067-2.14.81-7.327 5.944-12.63z" fill="#4295AC"/><path d="M12.716 24.46l-2.036-4.071c-.089-.178-.341-.188-.44-.014-.343.602-.867 1.873-.339 3.402.049.143.166.251.309.299l2.033.678c.383.126.573-.095.473-.294z" fill="#fff"/><path d="M11.208 21.443c-.301.548-.698 1.564-.44 2.817l1.646.549c.211.07.402-.15.303-.349l-1.509-3.017z" fill="#E85160"/><path d="M19.256 24.46l2.036-4.071c.089-.178.341-.188.44-.014.343.602.867 1.873.339 3.402-.049.143-.166.251-.309.299l-2.033.678c-.383.126-.573-.095-.473-.294z" fill="#F7F7F7"/><path d="M20.764 21.443c.301.548.698 1.564.44 2.817l-1.646.549c-.211.07-.402-.15-.303-.349l1.509-3.017z" fill="#D84459"/><path d="M15.986 20.5l-1.379-.345c-.316-.079-.621.16-.621.485v.124c0 .758.428 1.45 1.106 1.789l.671.335c.07.035.147.053.224.053v-2.441z" fill="#B370B9"/><path d="M17.365 20.155l-1.379.345v2.441c.077 0 .153-.018.224-.053l.671-.335c.678-.339 1.106-1.031 1.106-1.789v-.124c-.001-.325-.307-.564-.622-.485z" fill="#A366AD"/></svg>