<svg xmlns="http://www.w3.org/2000/svg" width="32" height="32" viewBox="0 0 32 32"><path fill="#945BA0" d="M23 23l1 4-6 4v-3z"/><path d="M24 27l-6 4v.5c0 .276.224.5.5.5h8.035c.257 0 .465-.208.465-.465 0-.334-.167-.647-.445-.832l-1.055-.703.276-.553c.141-.282.141-.613 0-.894l-.5-1c-.169-.339-.515-.553-.894-.553h-.382zM9 23l-1 4 6 4v-3z" fill="#A366AD"/><path d="M8 27l6 4v.5c0 .276-.224.5-.5.5h-8.035c-.257 0-.465-.208-.465-.465 0-.334.167-.647.445-.832l1.055-.703-.276-.553c-.141-.282-.141-.613 0-.894l.5-1c.169-.339.515-.553.894-.553h.382z" fill="#B370B9"/><path d="M16 12c-4.971 0-8 4.029-8 9s3.029 9 8 9v-18z" fill="#EBCEEB"/><path d="M24 21c0-4.971-3.029-9-8-9v18c4.971 0 8-4.029 8-9zM8.003 20.917l-.003.083c0 4.971 3.029 9 8 9v-11c-4 0-4 2-7 2-.362 0-.691-.032-.997-.083z" fill="#E5BDE5"/><path d="M24 21l-.003-.085c-.311.054-.649.085-1.019.085-2.994 0-3.001-1.991-6.978-1.999v10.999c4.971 0 8-4.029 8-9zM8.736 24.984c1.179 2.969 3.726 5.016 7.264 5.016v-8c-4 0-4 3-7 3l-.264-.016z" fill="#E0ABDF"/><path d="M23.264 24.982l-.286.018c-2.994 0-3.001-2.987-6.978-2.999v7.999c3.539 0 6.086-2.047 7.264-5.018z" fill="#D799D6"/><path d="M7 17l-1.188 3.906c-.535 1.758.623 3.58 2.442 3.842l.604.087c.602.087 1.142-.381 1.142-.99v-5.845l-3-1z" fill="#A366AD"/><path d="M11.379 14.345l-1.102-.339c-1.735-.533-3.542.584-3.84 2.374l-.317 1.904c-.058.345.248.641.591.572l3.928-.786c.215-.043.377-.221.399-.439l.341-3.286z" fill="#B370B9"/><path d="M25 17l1.188 3.906c.535 1.758-.623 3.58-2.442 3.842l-.604.087c-.602.087-1.142-.381-1.142-.99v-5.845l3-1z" fill="#945BA0"/><path d="M20.617 14.345l1.102-.339c1.735-.533 3.542.584 3.84 2.374l.317 1.904c.058.345-.248.641-.591.572l-3.928-.786c-.215-.043-.377-.221-.399-.439l-.341-3.286z" fill="#A366AD"/><path d="M15.526.423l-1.068 3.204c-1.061.183-1.983.566-2.758 1.121-.663-1.434-2.224-3.698-5.68-4.566-.384-.097-.725.268-.6.643l.225.675s-1.186-.36-2.768.143c-.391.124-.471.646-.136.884l.576.41s-.817.039-1.653.545c-.334.202-.306.697.042.871l.515.257c-.236.672-.308 1.461-.076 2.39.749 2.997 4.867 3.187 6.884 3.094-.018.262-.029.53-.029.806 0 4.639 5.25 5.6 7 5.6v-16.419c-.199 0-.398.114-.474.342zm-12.211 2.524l.001-.01.005.004-.006.006z" fill="#D285D2"/><path d="M30.337 3.482c-.836-.506-1.653-.545-1.653-.545l.576-.41c.335-.238.255-.76-.137-.884-1.582-.503-2.768-.143-2.768-.143l.225-.675c.125-.375-.216-.74-.599-.644-3.456.868-5.017 3.132-5.68 4.566-.778-.558-1.706-.941-2.773-1.123l-1.068-3.201c-.076-.228-.275-.342-.474-.342v4.919h.014v11.5c1.75 0 7-.961 7-5.6 0-.276-.011-.544-.029-.806 2.018.093 6.135-.097 6.884-3.094.232-.929.16-1.718-.076-2.39l.515-.257c.348-.174.376-.669.043-.871zm-1.658-.541l.005-.004.001.01-.006-.006z" fill="#C27BC6"/><path d="M21.547 9.263c.267.374.334.899.257 1.339-.042.233-.254.398-.491.398h-1.508c-.427 0-.66-.501-.381-.825.373-.434.95-.874 1.563-1.089.203-.071.434.001.56.177zM21.547 9.263c.267.374.334.899.257 1.339-.042.233-.254.398-.491.398h-1.508c-.427 0-.66-.501-.381-.825.373-.434.95-.874 1.563-1.089.203-.071.434.001.56.177z" fill="#F7F7F7"/><path d="M20.729 9.198c-.509.233-.975.603-1.295.969-.284.325-.058.833.374.833h.738c.238 0 .45-.166.491-.4.081-.466.001-1.026-.308-1.402z" fill="#2B3332"/><path d="M10.453 9.263c-.267.374-.334.899-.257 1.339.042.233.254.398.491.398h1.508c.427 0 .66-.501.381-.825-.373-.434-.95-.874-1.563-1.089-.203-.071-.434.001-.56.177zM10.453 9.263c-.267.374-.334.899-.257 1.339.042.233.254.398.491.398h1.508c.427 0 .66-.501.381-.825-.373-.434-.95-.874-1.563-1.089-.203-.071-.434.001-.56.177z" fill="#fff"/><path d="M11.271 9.198c-.308.376-.389.936-.308 1.403.041.234.253.4.491.4h.738c.432 0 .658-.508.373-.834-.32-.367-.786-.736-1.294-.969z" fill="#373F3F"/><path d="M21.5 13.876l-.688-1.719c-.092-.231-.428-.2-.477.044l-.335 1.675h1.5z" fill="#F7F7F7"/><path d="M10.486 13.876l.688-1.719c.092-.231.428-.2.477.044l.335 1.675h-1.5z" fill="#fff"/><path d="M9.625 13.356c1.438 2.537 4.993 3.144 6.375 3.144v-2.5c-.701 0-1.791-.38-3-.602-1.092-.201-3.375-.042-3.375-.042z" fill="#C27BC6"/><path d="M22.375 13.356s-2.283-.159-3.375.041c-1.209.223-2.299.603-3 .603v2.5c1.382 0 4.937-.607 6.375-3.144z" fill="#B370B9"/><path d="M26.039 2.949c-1.249-.416-2.66-.128-3.564.83-.719.762-1.138 1.548-1.372 2.114.604.923 1.38 2.291 1.742 3.692.253.015.534.027.863.027 1.714 0 4.666-.306 5.178-2.354.765-3.067-2.699-4.26-2.847-4.309z" fill="#47A1B4"/><path d="M26.039 2.949c-1.249-.417-2.66-.128-3.564.83-.719.762-1.138 1.548-1.372 2.114.181.276.375.588.572.934.216-.341.465-.693.801-1.048.904-.957 2.315-1.246 3.564-.83.114.038 2.185.757 2.788 2.481l.059-.173c.764-3.066-2.7-4.259-2.848-4.308z" fill="#4295AC"/><path d="M25.875 2.906c-1.207-.34-2.535-.044-3.4.872-.727.77-1.139 1.552-1.37 2.117.386.591.841 1.361 1.216 2.21l.387.007c1.263 0 4.248-.193 4.693-1.975.414-1.661-.653-2.688-1.526-3.231z" fill="#3B8FA3"/><path d="M10.892 5.88c-.236-.566-.652-1.345-1.366-2.102-.904-.957-2.316-1.246-3.565-.829-.148.049-3.612 1.242-2.846 4.308.512 2.048 3.464 2.354 5.178 2.354.322 0 .599-.012.848-.027.364-1.407 1.146-2.781 1.751-3.704z" fill="#4CAEBC"/><path d="M25.875 2.906c-1.207-.34-2.535-.044-3.4.872-.727.77-1.139 1.552-1.37 2.117.18.276.374.587.57.931.216-.341.466-.693.801-1.048.904-.957 2.315-1.246 3.564-.83.063.021.738.255 1.427.755.142-1.404-.799-2.304-1.592-2.797z" fill="#348B99"/><path d="M10.319 6.814c.197-.346.392-.659.573-.935-.236-.566-.652-1.345-1.366-2.102-.905-.956-2.316-1.245-3.565-.828-.148.049-3.612 1.242-2.846 4.308l.059.173c.603-1.724 2.674-2.443 2.788-2.481 1.249-.417 2.66-.128 3.564.83.331.35.579.698.793 1.035z" fill="#47A1B4"/><path d="M9.666 8.105c.377-.855.836-1.631 1.225-2.223-.233-.564-.644-1.34-1.365-2.103-.865-.916-2.193-1.213-3.4-.872-.873.543-1.94 1.57-1.525 3.23.445 1.782 3.431 1.975 4.693 1.975l.372-.007z" fill="#4295AC"/><path d="M10.319 6.815c.196-.345.391-.657.572-.933-.233-.564-.644-1.34-1.365-2.103-.865-.916-2.193-1.213-3.4-.872-.793.493-1.734 1.393-1.59 2.797.689-.5 1.363-.734 1.427-.755 1.249-.417 2.66-.128 3.564.83.33.35.577.698.792 1.036z" fill="#3B8FA3"/></svg>