<svg xmlns="http://www.w3.org/2000/svg" width="32" height="32" viewBox="0 0 32 32"><path d="M16 1c-2.701 0-5.209 1.108-7.288 2.871 0 0-7.712-1.084-8.212-.371l3.615 6.907c-.712 1.809-1.115 2.721-1.115 4.593 0 0 .007.417.052 1.128l-2.18 1.635c-.926.694-1.148 1.991-.506 2.953l.004.006c.511.767 1.449 1.129 2.343.906l.997-.249c.623 3.33 1.792 7.307 3.984 10.227.188.251.49.392.804.392h3.004c.314 0 .617-.142.803-.394.636-.864 1.144-1.821 1.55-2.826.699.134 1.412.222 2.145.222v-28z" fill="#FBCFD6"/><path d="M31.132 17.766l-2.184-1.638c.045-.711.052-1.128.052-1.128 0-1.872-.403-2.784-1.115-4.593 0 0 4.115-6.194 3.615-6.907-.5-.713-8.212.371-8.212.371-.852-.723-1.779-1.327-2.759-1.798-1.1-1.268-2.719-2.073-4.529-2.073v29c.733 0 1.446-.088 2.146-.223.406 1.005.914 1.962 1.55 2.826.186.253.489.394.803.394h3.002c.314 0 .616-.141.804-.392 2.192-2.92 3.361-6.896 3.984-10.227l.992.248c.895.224 1.834-.138 2.348-.904l.004-.006c.644-.96.424-2.257-.501-2.95z" fill="#FAC4D1"/><path d="M11 5c0-2.761 2.239-5 5-5v10c-2.761 0-5-2.239-5-5z" fill="#FCD8DE"/><path d="M16 2c-1.657 0-3 1.343-3 3s1.343 3 3 3v-6z" fill="#FDE2E6"/><path d="M20 6c0-2.209-1.791-4-4-4v8c2.209 0 4-1.791 4-4z" fill="#FBCFD6"/><path d="M16 8c1.105 0 2-.895 2-2s-.895-2-2-2v4z" fill="#FCD8DE"/><ellipse cx="8.5" cy="16" rx="1.5" ry="1" fill="#F9ADC8"/><ellipse cx="23.5" cy="16" rx="1.5" ry="1" fill="#F8A1C4"/><ellipse cx="12" cy="13.5" rx="1" ry="1.5" fill="#373F3F"/><ellipse cx="20" cy="13.5" rx="1" ry="1.5" fill="#2B3332"/><circle cx="12" cy="13" r=".5" fill="#fff"/><circle cx="20" cy="13" r=".5" fill="#F7F7F7"/><path d="M16 16.25c-.3 0-.477.126-.632.237-.181.129-.368.263-.868.263-.271 0-.528-.09-.764-.267-.109-.082-.267-.06-.35.05-.083.11-.06.267.05.35.324.243.682.366 1.064.366.66 0 .948-.206 1.159-.356.13-.093.201-.144.341-.144v-.499z" fill="#373F3F"/><path d="M16 16.25c.3 0 .477.126.632.237.181.129.368.263.868.263.271 0 .528-.09.764-.267.109-.082.267-.06.35.05.083.11.06.267-.05.35-.324.243-.682.366-1.064.366-.66 0-.948-.206-1.159-.356-.13-.092-.201-.143-.341-.143v-.5z" fill="#2B3332"/><path d="M4.412 24.414c.696 2.524 1.73 5.122 3.282 7.191.188.251.49.392.803.392h3.005c.314 0 .617-.142.802-.394.621-.844 1.119-1.778 1.52-2.757-3.619-.464-6.875-2.063-9.412-4.432zM4.412 24.414c.696 2.524 1.73 5.122 3.282 7.191.188.251.49.392.803.392h3.005c.314 0 .617-.142.802-.394.621-.844 1.119-1.778 1.52-2.757-3.619-.464-6.875-2.063-9.412-4.432z" fill="#FAC4D1"/><path d="M18.176 28.845c.401.979.899 1.913 1.52 2.757.186.253.489.394.802.394h3.004c.314 0 .615-.141.803-.392 1.553-2.069 2.587-4.667 3.282-7.191-2.536 2.37-5.792 3.969-9.411 4.432zM18.176 28.845c.401.979.899 1.913 1.52 2.757.186.253.489.394.802.394h3.004c.314 0 .615-.141.803-.392 1.553-2.069 2.587-4.667 3.282-7.191-2.536 2.37-5.792 3.969-9.411 4.432z" fill="#FAB8CD"/><path d="M.5 3.5c-.337.481 1.423 3.452 2.607 5.338 1.968-.672 3.393-2.517 3.393-4.713 0-.184-.035-.358-.054-.536-2.318-.262-5.624-.548-5.946-.089z" fill="#96643B"/><path d="M25.554 3.589c-.019.178-.054.352-.054.536 0 2.196 1.425 4.041 3.393 4.713 1.184-1.886 2.944-4.857 2.607-5.338-.322-.459-3.628-.173-5.946.089z" fill="#8D5B36"/></svg>