<svg xmlns="http://www.w3.org/2000/svg" width="32" height="32" viewBox="0 0 32 32"><path d="M23.391 10.444l7.937-2.841c.524-.188.916.492.492.852l-3.976 3.372 3.745.681c.547.1.547.884 0 .984l-8.294 1.508.096-4.556z" fill="#EA8BB4"/><path d="M8.609 10.444l-7.937-2.841c-.524-.188-.916.492-.492.852l3.976 3.372-3.745.681c-.547.1-.547.884 0 .984l8.294 1.508-.096-4.556z" fill="#F297BE"/><path d="M31.274 14.601l-4.816-1.376c-.339-1.21-.829-2.367-1.427-3.447 2.115-2.548 6.53-8.032 5.909-8.701-.62-.667-6.101 3.167-8.672 5.027-.41-.406-.834-.78-1.269-1.116-.007-2.756-2.242-4.988-4.999-4.988v29c6.488 0 10.222-3.944 10.883-10h.288c1.574 0 3.056-.741 4-2l.628-.838c.421-.56.149-1.369-.525-1.561z" fill="#FAC4D1"/><path d="M9.732 6.104c-2.572-1.86-8.053-5.694-8.673-5.027-.621.669 3.794 6.153 5.909 8.701-.597 1.079-1.087 2.237-1.427 3.447l-4.816 1.376c-.674.193-.946 1.001-.525 1.562l.629.837c.944 1.259 2.426 2 4 2h.288c.661 6.056 4.395 10 10.883 10v-26c-2.086 0-4.342 1.198-6.268 3.104z" fill="#FBCFD6"/><path d="M12 4c0-2.209 1.791-4 4-4v8c-2.209 0-4-1.791-4-4z" fill="#FCD8DE"/><path d="M16 2c-1.105 0-2 .895-2 2s.895 2 2 2v-4z" fill="#FDE2E6"/><path d="M19 5c0-1.657-1.343-3-3-3v6c1.657 0 3-1.343 3-3z" fill="#FBCFD6"/><path d="M16 6c.552 0 1-.448 1-1s-.448-1-1-1v2z" fill="#FCD8DE"/><ellipse cx="12" cy="10.5" rx="1" ry="1.5" fill="#373F3F"/><ellipse cx="20" cy="10.5" rx="1" ry="1.5" fill="#2B3332"/><circle cx="12" cy="10" r=".5" fill="#fff"/><circle cx="20" cy="10" r=".5" fill="#F7F7F7"/><path d="M16 13.25c-.3 0-.477.126-.632.237-.181.129-.368.263-.868.263-.271 0-.528-.09-.764-.267-.109-.082-.267-.06-.35.05-.083.11-.06.267.05.35.324.243.682.366 1.064.366.66 0 .948-.206 1.159-.356.13-.093.201-.144.341-.144v-.499z" fill="#373F3F"/><path d="M16 13.25c.3 0 .477.126.632.237.181.129.368.263.868.263.271 0 .528-.09.764-.267.109-.082.267-.06.35.05.083.11.06.267-.05.35-.324.243-.682.366-1.064.366-.66 0-.948-.206-1.159-.356-.13-.092-.201-.143-.341-.143v-.5z" fill="#2B3332"/><path d="M6.732 4h.001c-2.505-1.7-5.246-3.383-5.674-2.923-.428.461 1.542 3.214 3.5 5.716l-.023-.114c-.277-1.386.783-2.679 2.196-2.679z" fill="#96643B"/><path d="M25.268 4h-.001c2.506-1.7 5.247-3.383 5.674-2.923.428.461-1.541 3.214-3.499 5.716l.023-.114c.276-1.386-.784-2.679-2.197-2.679z" fill="#8D5B36"/><path d="M17.694 28.893c.289.933.625 1.811 1.02 2.585.168.328.516.522.885.522h1.016c.248 0 .492-.087.676-.252 2.957-2.646 4.381-6.775 5.068-10.142-1.202 4.064-4.137 6.755-8.665 7.287z" fill="#FAB8CD"/><path d="M5.64 21.606c.687 3.367 2.111 7.496 5.068 10.142.185.165.429.252.677.252h1.016c.369 0 .717-.194.885-.523.395-.774.732-1.651 1.021-2.585-4.529-.531-7.464-3.222-8.667-7.286z" fill="#FAC4D1"/></svg>