<svg xmlns="http://www.w3.org/2000/svg" width="32" height="32" viewBox="0 0 32 32"><path d="M16 19s9-3 9-9h2s2.114 18-11 18v-9z" fill="#E8803A"/><path d="M25 10h2l.001-.001c2.1-1.05 2.764-3.727 1.4-5.637l-1.588-2.223c-.399-.558-1.229-.558-1.627 0l-1.588 2.223c-1.364 1.91-.699 4.587 1.4 5.637l.002.001z" fill="#FF4A00"/><path d="M25 10s-.849-1.007-1.03-1.738c-.199-.802-.038-1.646.442-2.318l1.181-1.653c.199-.279.614-.279.814 0l1.181 1.653c.48.672.642 1.518.442 2.319-.181.73-1.03 1.737-1.03 1.737h-2z" fill="#FF8F00"/><path d="M25 10l-.001-.002c-.467-.889-.346-1.974.305-2.739l.506-.594c.1-.117.281-.117.381 0l.506.594c.651.764.772 1.848.306 2.737l-.003.004h-2z" fill="#FFD400"/><path d="M16 13h-5.423c-1.629 1.07-4.327 3.451-6.307 8.309-.133.327.114.691.467.691h1.263l.651.651c.193.193.5.199.696.011.365-.35.989-.932 1.703-1.543.053.655.159 1.285.303 1.889-.697.63-1.353 1.59-1.353 2.992 0 3 1 4 1 4s-1.574 0-1.929 1.396c-.078.307.176.604.492.604h4.022c.265 0 .52-.105.707-.293l.414-.414c.189-.188.294-.442.294-.707v-2.327c.874.472 1.875.741 3 .741v-16z" fill="#F79654"/><path d="M27.73 21.309c-1.98-4.858-4.678-7.239-6.307-8.309h-5.423v16c1.125 0 2.126-.269 3-.741v2.327c0 .265.105.52.293.707l.414.414c.188.188.442.293.707.293h4.022c.317 0 .571-.297.493-.604-.355-1.396-1.929-1.396-1.929-1.396s1-1 1-4c0-1.402-.656-2.362-1.353-2.993.145-.604.25-1.233.303-1.889.713.611 1.338 1.193 1.703 1.543.197.189.503.182.696-.011l.651-.65h1.263c.353 0 .6-.364.467-.691z" fill="#EF8C48"/><path d="M23 9c0-.66-.244-1.4-.49-1.979-.318-.747-.532-1.531-.735-2.317-.455-1.764-1.808-4.704-5.775-4.704v15c3.866 0 7-2.134 7-6z" fill="#FCA15E"/><path d="M16 0c-3.967 0-5.32 2.94-5.775 4.704-.203.786-.417 1.57-.735 2.317-.246.579-.49 1.319-.49 1.979 0 3.866 3.134 6 7 6v-15z" fill="#FFAD68"/><path d="M19.5 5c-.828 0-1.5.672-1.5 1.5v2.576c0 .244.177.453.418.493h.001c.703.117 1.424.009 2.061-.31l.243-.122c.17-.084.277-.257.277-.446v-2.191c0-.828-.672-1.5-1.5-1.5z" fill="#0A6F8E"/><path d="M18.973 8.616c-.157 0-.472-.059-.472-.51l-.001-2.106c0-.551.449-1 1-1s1 .449 1 1v1.85c0 .379-.243.463-.243.463-.397.198-.84.303-1.284.303z" fill="#2B3332"/><circle cx="19.5" cy="6" r=".5" fill="#F7F7F7"/><path d="M11 23c0 1.927.556 3.671 1.456 4.936.992.678 2.18 1.064 3.544 1.064v-13c-2.761 0-5 3.134-5 7z" fill="#FDEBBB"/><path d="M21 23c0-3.866-2.239-7-5-7v13c1.364 0 2.552-.386 3.544-1.064.9-1.265 1.456-3.009 1.456-4.936z" fill="#FAE09F"/><path d="M12.5 5c.828 0 1.5.672 1.5 1.5v2.576c0 .244-.177.453-.418.493h-.001c-.703.117-1.424.009-2.061-.31l-.243-.122c-.17-.084-.277-.257-.277-.446v-2.191c0-.828.672-1.5 1.5-1.5z" fill="#0F769B"/><path d="M13.027 8.616c.157 0 .472-.059.472-.51l.001-2.106c0-.551-.449-1-1-1s-1 .449-1 1v1.85c0 .379.243.463.243.463.397.198.84.303 1.284.303z" fill="#373F3F"/><circle cx="12.5" cy="6" r=".5" fill="#fff"/><path d="M22.503 11.438c-1.511.912-2.911.914-5.003 1.034-.329.019-1.162.528-1.5.528v2c2.954 0 5.475-1.25 6.503-3.562z" fill="#F79654"/><path d="M9.497 11.438c1.028 2.312 3.549 3.562 6.503 3.562v-2c-.338 0-1.171-.509-1.5-.528-2.092-.12-3.491-.122-5.003-1.034z" fill="#FCA15E"/></svg>