<svg xmlns="http://www.w3.org/2000/svg" width="32" height="32" viewBox="0 0 32 32"><path d="M13.029 10.775c-.517-1.897-1.585-3.582-3.043-4.866-.495.932-1.231 1.715-2.122 2.273l6.136 9.818h1l-1.971-7.225z" fill="#54B668"/><path d="M9.987 5.909c-.407-.359-.84-.692-1.305-.983l-2.93-1.831c-.356-.222-.761-.189-1.065.004l3.177 5.083c.891-.558 1.627-1.341 2.123-2.273z" fill="#CBEB6B"/><path d="M7.864 8.182c-.86.539-1.865.863-2.944.905.459 1.652 1.335 3.168 2.56 4.393l4.52 4.52h2l-6.136-9.818z" fill="#4EAC5D"/><path d="M7.864 8.182l-3.177-5.083c-.302.191-.505.54-.459.954l.384 3.46c.059.535.165 1.06.307 1.573 1.08-.041 2.085-.365 2.945-.904z" fill="#BEE758"/><path d="M26.248 3.095l-2.93 1.831c-2.133 1.333-3.686 3.422-4.348 5.849l-1.97 7.225h1l9.313-14.901c-.304-.193-.709-.226-1.065-.004z" fill="#4EAC5D"/><path d="M10.05 14.05c-1.313-1.313-3.093-2.05-4.949-2.05h-3.158c-.409 0-.731.232-.891.547l11.448 5.953 1.5-.5-3.95-3.95z" fill="#6CD275"/><path d="M27.313 3.099l-9.313 14.901h2l4.52-4.52c1.606-1.606 2.617-3.71 2.868-5.967l.384-3.46c.046-.414-.157-.763-.459-.954zM27.313 3.099l-9.313 14.901h2l4.52-4.52c1.606-1.606 2.617-3.71 2.868-5.967l.384-3.46c.046-.414-.157-.763-.459-.954z" fill="#48A353"/><path d="M1.129 13.581l1.777 2.487c1.314 1.84 3.436 2.932 5.696 2.932h2.398l1.5-.5-11.448-5.953c-.158.312-.158.705.077 1.034zM16 6v12h2v-.001c1.622-4.032 1.852-8.473.702-12.647-.813.411-1.729.648-2.702.648z" fill="#60C46F"/><path d="M18.457 4.472l-1.232-3.782c-.134-.411-.518-.69-.951-.69h-.274v6c.973 0 1.889-.237 2.702-.648-.081-.294-.15-.59-.245-.88z" fill="#D9F07D"/><path d="M14 17.999v.001h2v-12c-.973 0-1.889-.237-2.702-.648-1.15 4.174-.921 8.615.702 12.647z" fill="#6CD275"/><path d="M15.726 0c-.433 0-.817.279-.951.69l-1.232 3.781c-.095.291-.164.587-.245.88.813.412 1.729.649 2.702.649v-6h-.274z" fill="#E6F490"/><path d="M22.013 5.909c.407-.359.839-.692 1.305-.983l2.93-1.831c.356-.222.761-.189 1.065.004l-3.177 5.083c-.891-.558-1.627-1.341-2.123-2.273z" fill="#BEE758"/><path d="M24.136 8.182l3.177-5.083c.302.192.505.541.459.955l-.384 3.46c-.059.535-.165 1.06-.307 1.573-1.08-.042-2.085-.366-2.945-.905z" fill="#B1E346"/><path d="M26.531 14.844l-7.031 3.656 1.5.5h2.398c1.917 0 3.729-.792 5.039-2.153-.812-.475-1.47-1.167-1.906-2.003z" fill="#54B668"/><path d="M30.948 12.547l-4.417 2.297c.436.836 1.094 1.528 1.905 2.003.234-.244.458-.499.658-.779l1.777-2.487c.235-.329.235-.722.077-1.034z" fill="#CBEB6B"/><path d="M25.948 12.547c0-.165.033-.321.049-.481-1.523.198-2.949.887-4.046 1.984l-3.951 3.95 1.5.5 7.031-3.656c-.36-.691-.583-1.464-.583-2.297z" fill="#60C46F"/><path d="M30.057 12h-3.157c-.304 0-.605.027-.903.066-.016.161-.049.316-.049.481 0 .833.223 1.606.583 2.297l4.417-2.297c-.16-.315-.483-.547-.891-.547zM1.052 12.547l4.417 2.297c-.436.836-1.094 1.528-1.905 2.003-.234-.244-.458-.499-.658-.779l-1.777-2.487c-.235-.329-.235-.722-.077-1.034z" fill="#D9F07D"/><path d="M1.943 12h3.157c.304 0 .605.027.903.066.016.161.049.316.049.481 0 .833-.223 1.606-.583 2.297l-4.417-2.297c.16-.315.483-.547.891-.547z" fill="#E6F490"/><path fill="#4896C8" d="M12 27h2v4h-2z"/><path fill="#4390BF" d="M18 27h2v4h-2z"/><path d="M16 17c-3.866 0-7 3.07-7 6.857 0 .198.013.386.03.572.305 3.35 3.307 4.571 6.97 4.571v-12z" fill="#5CA3D5"/><path d="M22.97 24.429c.017-.185.03-.373.03-.572 0-3.787-3.134-6.857-7-6.857v12c3.663 0 6.665-1.221 6.97-4.571z" fill="#529CCF"/><path d="M22.97 24.429c-1.372 1.841-3.977 2.571-6.97 2.571v2c3.663 0 6.665-1.221 6.97-4.571z" fill="#4896C8"/><path d="M16 27c-2.993 0-5.598-.73-6.97-2.571.305 3.35 3.307 4.571 6.97 4.571v-2z" fill="#529CCF"/><circle cx="13" cy="23" r="1" fill="#E85160"/><circle cx="19" cy="23" r="1" fill="#D84459"/><path d="M15 30.5c0 1.105-.895 1.5-2 1.5s-2-.395-2-1.5.895-1.5 2-1.5 2 .395 2 1.5z" fill="#529CCF"/><path d="M21 30.5c0 1.105-.895 1.5-2 1.5s-2-.395-2-1.5.895-1.5 2-1.5 2 .395 2 1.5z" fill="#4896C8"/><circle cx="13" cy="23" r=".5" fill="#fff"/><circle cx="19" cy="23" r=".5" fill="#F7F7F7"/></svg>