<svg xmlns="http://www.w3.org/2000/svg" width="32" height="32" viewBox="0 0 32 32"><path d="M29.888 20.051c-.39-.105-2.169-.401-3.912-.592l.024-.459c0-5.523-4.477-12-10-12v20c4.57 0 8.415-1.702 9.609-5.416 1.548.674 3.126 1.264 3.502 1.365.8.214 1.623-.26 1.837-1.061.215-.8-.26-1.623-1.06-1.837z" fill="#707EB7"/><path d="M6 19l.024.459c-1.743.19-3.521.487-3.912.592-.8.214-1.275 1.037-1.061 1.837.214.8 1.037 1.275 1.837 1.061.376-.101 1.954-.691 3.502-1.365 1.195 3.714 5.04 5.416 9.61 5.416v-20c-5.523 0-10 6.477-10 12z" fill="#7C8AC4"/><path fill="#515E91" d="M17 25h2v4.5h-2z"/><path d="M17 29.5c0 1.5 4.672 1.5 5.5 1.5s1.5-.672 1.5-1.5-.672-1.5-1.5-1.5-5.5 0-5.5 1.5zM13 25h2v4.5h-2z" fill="#5C699E"/><path d="M15 29.5c0 1.5-4.672 1.5-5.5 1.5s-1.5-.672-1.5-1.5.672-1.5 1.5-1.5 5.5 0 5.5 1.5z" fill="#6673AA"/><path d="M16 2.289c1.173-.192 2.514-.289 4-.289 5.422 0 9 1.239 9 4s-3.578 4-9 4c-1.486 0-2.827-.097-4-.289v-7.422z" fill="#E85160"/><path d="M16 2.289c-1.173-.192-2.514-.289-4-.289-5.422 0-9 1.239-9 4s3.578 4 9 4c1.486 0 2.827-.097 4-.289v-7.422z" fill="#F3586F"/><circle cx="12" cy="15" r="1" fill="#F3586F"/><circle cx="12" cy="15" r=".5" fill="#fff"/><circle cx="20" cy="15" r="1" fill="#D84459"/><circle cx="20" cy="15" r=".5" fill="#F7F7F7"/><path d="M16 16.625c-.836 0-1.27-.607-1.293-.64-.078-.114-.233-.145-.347-.067-.115.077-.145.232-.067.347.023.035.593.86 1.707.86v-.5z" fill="#373F3F"/><path d="M17.707 16.265c.078-.114.047-.27-.067-.347-.112-.078-.269-.047-.347.067-.004.006-.442.64-1.293.64v.5c1.114 0 1.684-.825 1.707-.86z" fill="#2B3332"/><path d="M16 1h-1.36c-.953 0-1.774.673-1.961 1.608l-.679 3.392h4v-5z" fill="#FCA15E"/><path d="M17.36 1h-1.36v5h4l-.678-3.392c-.187-.935-1.008-1.608-1.962-1.608z" fill="#F79654"/><path d="M18 8c0 2.761-3.578 4-9 4s-9-1.239-9-4 3.578-4 9-4 9 1.239 9 4z" fill="#FF5F7E"/><path d="M32 8c0 2.761-3.578 4-9 4s-9-1.239-9-4 3.578-4 9-4 9 1.239 9 4z" fill="#F3586F"/><path d="M16 5c-5.422 0-9 1.239-9 4s3.578 4 9 4v-8z" fill="#FF6B8B"/><path d="M25 9c0-2.761-3.578-4-9-4v8c5.422 0 9-1.239 9-4z" fill="#FF5F7E"/><path d="M24.613 21.135c-2.012 1.936-5.109 2.865-8.613 2.865v3c4.568 0 8.402-1.709 9.594-5.422-.333-.146-.663-.294-.981-.443z" fill="#6673AA"/><path d="M7.387 21.135c-.318.149-.648.297-.982.442 1.193 3.714 5.027 5.423 9.595 5.423v-3c-3.504 0-6.601-.929-8.613-2.865z" fill="#707EB7"/></svg>