<svg xmlns="http://www.w3.org/2000/svg" width="32" height="32" viewBox="0 0 32 32"><path d="M14.617 4.067c-1.263-1.126-5.247-4.562-6.21-4.006-.848.489-.187 4.551.218 6.648 1.377-1.496 3.517-2.4 5.992-2.642z" fill="#373F3F"/><path d="M23.375 6.709c.405-2.097 1.066-6.159.218-6.649-.963-.556-4.946 2.88-6.21 4.006 2.475.243 4.615 1.147 5.992 2.643z" fill="#2B3332"/><path d="M14.683 29.367c-.378-.757-.482-1.617-.303-2.436-.895-.085-1.706-.258-2.38-.568v.21c0 .938.219 1.864.638 2.703.166.333-.075.724-.447.724h-1.191c-.552 0-1 .448-1 1s.448 1 1 1h2.71c.712 0 1.29-.578 1.29-1.29v-.002c0-.466-.108-.925-.317-1.341z" fill="#FDEBBB"/><path d="M21 30h-1.191c-.372 0-.613-.391-.447-.724.419-.839.638-1.765.638-2.703v-.21c-.674.31-1.485.483-2.38.568.179.819.075 1.679-.303 2.436-.209.416-.317.875-.317 1.341v.002c0 .712.578 1.29 1.29 1.29h2.71c.552 0 1-.448 1-1s-.448-1-1-1zM16 25c12 0 12-5 12-5l3-1s1 8-15 8v-2z" fill="#FAE09F"/><path d="M31 19c0-1.657-1.343-3-3-3v4s-.003.636-.546 1.454l1.804 1.804c2.009-2.082 1.742-4.258 1.742-4.258z" fill="#C98B44"/><path d="M28 16c-1.105 0-2 .895-2 2s.895 2 2 2v-4z" fill="#D4994F"/><path d="M28 20c.552 0 1-.448 1-1s-.448-1-1-1v2z" fill="#DDAA5F"/><path d="M25 11c0-4.51-4.029-7-9-7v14c4.971 0 9-2.49 9-7z" fill="#FDEBBB"/><path d="M16 4c-4.971 0-9 2.49-9 7s4.029 7 9 7v-14z" fill="#FFF3D9"/><path d="M24.271 10.144v-.001c-.071-.266.086-.54.353-.61 1.692-.443 7.265-1.87 7.374-1.46.11.41-5.429 1.96-7.117 2.423-.265.073-.538-.085-.61-.352z" fill="#E8BA67"/><path d="M7.729 10.144v-.001c.071-.266-.086-.54-.353-.61-1.692-.443-7.265-1.87-7.374-1.46-.11.41 5.429 1.96 7.117 2.423.265.073.538-.085.61-.352z" fill="#F0C877"/><path d="M24.271 12.856v.001c-.071.266.086.54.353.61 1.692.443 7.265 1.87 7.374 1.46.11-.41-5.429-1.96-7.117-2.423-.265-.073-.538.085-.61.352z" fill="#E8BA67"/><path d="M7.729 12.856v.001c.071.266-.086.54-.353.61-1.692.443-7.265 1.87-7.374 1.46-.11-.41 5.429-1.96 7.117-2.423.265-.073.538.085.61.352z" fill="#F0C877"/><path d="M18 10.286c0 1.262 1.119 1.714 2.5 1.714s2.5-.452 2.5-1.714-1.119-2.286-2.5-2.286-2.5 1.023-2.5 2.286z" fill="#F7F7F7"/><path d="M20.502 12c.552 0 .5-1.12.5-2.5 0-.545.007-1.045-.017-1.455-.158-.029-.319-.045-.485-.045-.165 0-.325.017-.481.044-.024.411-.017.911-.017 1.456-.001 1.38-.053 2.5.5 2.5z" fill="#2B3332"/><path d="M14 10.286c0 1.262-1.119 1.714-2.5 1.714s-2.5-.452-2.5-1.714 1.119-2.286 2.5-2.286 2.5 1.023 2.5 2.286z" fill="#fff"/><path d="M11.498 12c-.552 0-.5-1.12-.5-2.5 0-.545-.007-1.045.017-1.455.158-.029.319-.045.485-.045.165 0 .325.017.481.044.024.411.017.911.017 1.456.001 1.38.053 2.5-.5 2.5z" fill="#373F3F"/><path d="M16 2c-1.657 0-2 1.343-2 3s.343 3 2 3v-6z" fill="#F7D684"/><path d="M18 5c0-1.657-.343-3-2-3v6c1.657 0 2-1.343 2-3zM14.061 6c.15 1.163.634 2 1.939 2v-2h-1.939zM14.061 6c.15 1.163.634 2 1.939 2v-2h-1.939z" fill="#F0C877"/><path d="M17.939 6c-.15 1.163-.635 2-1.939 2v-2h1.939z" fill="#E8BA67"/><path d="M16 4v-2c-1.304 0-1.789.837-1.939 2h1.939z" fill="#FAE09F"/><path d="M17.939 4c-.15-1.163-.635-2-1.939-2v2h1.939z" fill="#F7D684"/><path d="M12 17s-4.073 2.444-7.072 6.596c-.609.843-.928 1.864-.928 2.903v.001c0 .828.672 1.5 1.5 1.5s1.5-.672 1.5-1.5c0-1.314.322-2.618.997-3.745.568-.948 1.426-2.039 2.679-2.949-.43 1.079-.676 2.198-.676 3.194 0 3.314 2.686 4 6 4v-12c-1.539 0-4 2-4 2z" fill="#FFF3D9"/><path d="M27.072 23.596c-2.999-4.152-7.072-6.596-7.072-6.596s-2.461-2-4-2v12c3.314 0 6-.686 6-4 0-.996-.246-2.115-.676-3.194 1.253.909 2.11 2.001 2.678 2.949.676 1.127.998 2.431.998 3.745 0 .828.672 1.5 1.5 1.5s1.5-.672 1.5-1.5v-.001c0-1.039-.319-2.06-.928-2.903z" fill="#FDEBBB"/><path d="M16 14v4c3.971 0 7.334-1.593 8.529-4.531-2.175.688-5.192.531-8.529.531z" fill="#FAE09F"/><path d="M7.471 13.469c1.195 2.938 4.558 4.531 8.529 4.531v-4c-3.337 0-6.354.157-8.529-.531z" fill="#FDEBBB"/><path d="M12.638 29.276c.166.333-.075.724-.447.724h-1.191c-.552 0-1 .448-1 1s.448 1 1 1h2.71c.712 0 1.29-.578 1.29-1.29v-.002c0-.466-.108-.925-.317-1.342 0 0-.539-.367-1.065-.367l-.98.277z" fill="#DDAA5F"/><path d="M19.362 29.276c-.166.333.075.724.447.724h1.191c.552 0 1 .448 1 1s-.448 1-1 1h-2.71c-.712 0-1.29-.578-1.29-1.29v-.002c0-.466.108-.925.317-1.342 0 0 .539-.367 1.065-.367.525.001.98.277.98.277z" fill="#D4994F"/><path d="M20.073 14.004c.108.365.311.996.427.996.118 0 .328-.659.434-1.019l-.861.023z" fill="#F7F7F7"/><path d="M11.927 14.004l-.861-.024c.106.361.316 1.02.434 1.02.116 0 .319-.631.427-.996z" fill="#fff"/><path d="M22.511 5.921c.33-1.816.517-3.469.5-4.425-.003-.189-.205-.305-.371-.214-.912.506-2.429 1.642-3.968 2.976 1.48.301 2.795.862 3.839 1.663z" fill="#D4994F"/><path d="M13.327 4.259c-1.541-1.336-3.059-2.473-3.967-2.978-.165-.092-.367.025-.371.214-.017.955.169 2.609.5 4.426 1.044-.801 2.358-1.362 3.838-1.662z" fill="#DDAA5F"/></svg>