<svg xmlns="http://www.w3.org/2000/svg" width="32" height="32" viewBox="0 0 32 32"><path d="M21 27h.479l3.304 3.452c.29.303.29.793 0 1.096l-.003.003c-.25.261-.642.302-.936.097l-.518-.361c-.249-.174-.574-.174-.823 0l-.626.436c-.26.181-.565.277-.877.277v-5z" fill="#FFE28A"/><path d="M11 27h.479l3.304 3.452c.29.303.29.793 0 1.096l-.003.003c-.25.261-.642.302-.936.097l-.518-.361c-.249-.174-.574-.174-.823 0l-.626.436c-.26.181-.565.277-.877.277v-5z" fill="#FFEAA7"/><path d="M11 27h-.479l-3.304 3.452c-.29.303-.29.793 0 1.096l.003.003c.25.261.642.302.936.097l.518-.361c.249-.174.574-.174.823 0l.626.436c.26.181.565.277.877.277v-5z" fill="#FEF1C6"/><path d="M20.521 27l-3.304 3.452c-.29.303-.29.793 0 1.096l.003.003c.25.261.642.302.936.097l.518-.361c.249-.174.574-.174.823 0l.626.436c.26.181.565.277.877.277v-5h-.479z" fill="#FFEAA7"/><path d="M9.158 14.859h-.019l-.002.006c-2.38.636-7.068 2.23-8.876 5.274-.152.256-.025.604.255.703 2.048.721 4.545.337 6.692-.308-.128.561-.208 1.07-.208 1.466 0 4.393 3.481 7.955 9 7.996v-15.17l-6.842.033z" fill="#FFD04D"/><path d="M31.505 20.841c.281-.099.407-.447.255-.702-1.794-3.02-6.422-4.612-8.818-5.258l-.328-.086-6.614.032v15.17l.004.003c5.628.039 8.996-3.558 8.996-8 0-.397-.078-.908-.202-1.471 2.15.647 4.654 1.035 6.707.312z" fill="#F7C845"/><path d="M16.75 1c0-.552-.198-1-.75-1s-.75.448-.75 1c0 .149.5 3.25.5 3.25h.5s.5-3.101.5-3.25zM16.25 4.25s.5-3.101.5-3.25c0-.552-.198-1-.75-1v4.25h.25z" fill="#2B3332"/><path d="M14.508 1.776c-.276-.478-.671-.767-1.15-.491-.478.276-.426.763-.15 1.241.075.129 2.058 2.565 2.058 2.565l.434-.251s-1.117-2.935-1.192-3.064z" fill="#373F3F"/><path d="M18.791 2.562c.276-.478.329-.965-.15-1.241-.478-.276-.873.013-1.15.491-.074.13-1.191 3.065-1.191 3.065l.433.25s1.983-2.435 2.058-2.565z" fill="#2B3332"/><path d="M16 4c-4.418 0-8 2.539-8 7s3.582 7 8 7v-14z" fill="#FFD96C"/><path d="M24 11c0-4.461-3.582-7-8-7v14c4.418 0 8-2.539 8-7z" fill="#FFD04D"/><path d="M14 10.5c0 .828-1.145 1.5-2.25 1.5s-1.75-.672-1.75-1.5.645-1.5 1.75-1.5 2.25.672 2.25 1.5z" fill="#fff"/><circle cx="12" cy="10.5" r=".5" fill="#373F3F"/><path d="M18 10.5c0 .828 1.145 1.5 2.25 1.5s1.75-.672 1.75-1.5-.645-1.5-1.75-1.5-2.25.672-2.25 1.5z" fill="#F7F7F7"/><circle cx="20" cy="10.5" r=".5" fill="#2B3332"/><path d="M16 11.828c-.512 0-1.024.195-1.414.586-.375.375-.884.586-1.414.586h-1.554c-.743 0-1.227.782-.894 1.447.178.357.223.765.126 1.152l-.401 1.604c-.253 1.014.316 2.052 1.308 2.382 1.377.459 2.81.689 4.243.689v-8.446z" fill="#FEF1C6"/><path d="M20.243 19.586c.991-.33 1.561-1.369 1.308-2.382l-.401-1.604c-.097-.387-.052-.795.126-1.152.333-.666-.151-1.448-.894-1.448h-1.554c-.53 0-1.039-.211-1.414-.586-.391-.391-.902-.586-1.414-.586v8.446c1.433 0 2.866-.229 4.243-.688z" fill="#FFEAA7"/><path d="M16 27v2.996l.094.004c5.508 0 8.82-3.498 8.899-7.844-1.62 3.049-5.032 4.844-8.993 4.844z" fill="#F0C13E"/><path d="M7.008 22.157c.083 4.32 3.54 7.799 8.992 7.839v-2.996c-3.96 0-7.372-1.795-8.992-4.843z" fill="#F7C845"/></svg>