<svg xmlns="http://www.w3.org/2000/svg" width="32" height="32" viewBox="0 0 32 32"><path d="M14.555 6.416l1.445 1.084.781-.586c-.461-1.364-.781-2.479-.781-2.914 0-1.103.897-2 2-2s2 .897 2 2c0 .553.447 1 1 1s1-.447 1-1c0-2.206-1.794-4-4-4s-4 1.794-4 4c0 .502.211 1.38.518 2.401l.037.015z" fill="#F7D684"/><path d="M18 0c-1.103 0-2.103.448-2.827 1.173l1.414 1.414c.362-.363.862-.587 1.413-.587 1.103 0 2 .897 2 2 0 .553.447 1 1 1s1-.447 1-1c0-2.206-1.794-4-4-4zM4 6c1.105 0 2 .895 2 2v2c0 .552-.448 1-1 1s-1-.448-1-1c0 .552-.448 1-1 1s-1-.448-1-1c0 .552-.448 1-1 1s-1-.448-1-1v-2c0-1.105.895-2 2-2h2zM7 28l-.553 1.106c-.274.548-.834.894-1.447.894-.552 0-1 .448-1 1s.448 1 1 1c.64 0 1.254-.254 1.707-.707l.293-.293c0 .552.448 1 1 1s1-.448 1-1v-1h2c.552 0 1-.448 1-1s-.448-1-1-1h-4z" fill="#D4994F"/><path d="M28 6c-1.105 0-2 .895-2 2v2c0 .552.448 1 1 1s1-.448 1-1c0 .552.448 1 1 1s1-.448 1-1c0 .552.448 1 1 1s1-.448 1-1v-2c0-1.105-.895-2-2-2h-2zM25 28l.553 1.106c.274.548.834.894 1.447.894.552 0 1 .448 1 1s-.448 1-1 1c-.64 0-1.254-.254-1.707-.707l-.293-.293c0 .552-.448 1-1 1s-1-.448-1-1v-1h-2c-.552 0-1-.448-1-1s.448-1 1-1h4z" fill="#C98B44"/><path d="M16 7.5l-1.445-1.084c-.273-.205-.666-.082-.774.242l-.281.842-2.248-.375c-.355-.059-.655.265-.567.614l.229.915c-1.362-.412-3.562-1.006-3.914-.654-.382.382.351 2.943.757 4.243l-.403.403c-.195.195-.195.512 0 .707l.646.647-1.638 3.276c-.166.333.075.724.447.724h1.191l-.781 2.342c-.108.324.133.658.475.658h.806l1.276 2.553c.124.247.424.347.671.223l.553-.276 1.284 1.712c.129.172.354.242.558.174l1.158-.386 1.776.888c.07.035.147.053.224.053v-18.441z" fill="#FDEBBB"/><path d="M16.224 25.888l1.776-.888 1.158.386c.204.068.429-.002.558-.174l1.284-1.712.553.276c.247.124.547.024.671-.223l1.276-2.553h.806c.341 0 .582-.334.474-.658l-.78-2.342h1.191c.372 0 .613-.391.447-.724l-1.638-3.276.646-.646c.195-.195.195-.512 0-.707l-.403-.403c.406-1.301 1.139-3.862.757-4.244-.352-.352-2.552.242-3.914.655l.229-.915c.087-.349-.212-.674-.567-.614l-2.248.374-.281-.842c-.108-.324-.501-.447-.774-.242l-1.445 1.084v18.441c.077 0 .153-.018.224-.053z" fill="#FAE09F"/><path d="M8.462 11.124c-.192-.667-.356-1.311-.459-1.817-.035-.175.115-.331.29-.297.546.106 1.201.274 1.829.454l-1.66 1.66z" fill="#DDAA5F"/><path d="M21.877 9.463c.636-.183 1.295-.355 1.831-.46.175-.035.326.122.291.297-.103.507-.268 1.153-.46 1.824l-1.662-1.661z" fill="#D4994F"/><path d="M14.777 16.852l-2.235-1.49c-.285-.19-.671-.044-.761.287-.16.588-.298 1.457.031 2.081.087.166.259.27.446.27h2.742v-.732c0-.168-.084-.324-.223-.416zM14.777 16.852l-2.235-1.49c-.285-.19-.671-.044-.761.287-.16.588-.298 1.457.031 2.081.087.166.259.27.446.27h2.742v-.732c0-.168-.084-.324-.223-.416z" fill="#fff"/><path d="M17.223 16.852l2.235-1.49c.285-.19.671-.044.761.287.16.588.298 1.457-.031 2.081-.087.165-.259.27-.446.27h-2.742v-.732c0-.168.084-.324.223-.416z" fill="#F7F7F7"/><path d="M14.001 16.334l-1.002-.668.001.334c0 1.105-.052 2 .5 2 .495 0 .504-.721.501-1.666z" fill="#E85160"/><path d="M17.999 16.334l1.002-.668-.001.334c0 1.105.052 2-.5 2-.495 0-.504-.721-.501-1.666z" fill="#D84459"/><path d="M16 17c-1.105 0-2 .672-2 1.5s.895 1.5 2 1.5v-3z" fill="#F4A984"/><path d="M18 18.5c0-.828-.895-1.5-2-1.5v3c1.105 0 2-.672 2-1.5z" fill="#EA9C7A"/><path d="M16 23.941c-.077 0-.153-.018-.224-.053l-1.553-.776c-.141-.07-.306-.07-.447 0l-.5.25c-.169.085-.372.066-.524-.047l-1.506-1.129c-.152-.114-.354-.132-.524-.047l-.401.201c-.192.096-.425.059-.577-.094l-1.244-1.246 1.276 2.553c.124.247.424.347.671.223l.553-.276 1.284 1.712c.129.172.354.242.558.174l1.158-.386 1.776.888c.07.035.147.053.224.053v-2z" fill="#FAE09F"/><path d="M16.224 25.888l1.776-.888 1.158.386c.204.068.429-.002.558-.174l1.284-1.712.553.276c.247.124.547.024.671-.223l1.276-2.553-1.245 1.245c-.152.152-.385.19-.577.094l-.401-.201c-.169-.085-.372-.066-.524.047l-1.506 1.129c-.152.114-.354.132-.524.047l-.5-.25c-.141-.07-.306-.07-.447 0l-1.553.776c-.07.035-.147.053-.224.053v2c.078.001.154-.017.225-.052z" fill="#F7D684"/><path d="M8 14l-.646-.646c-.098-.098-.147-.226-.147-.354h-1.207c-.552 0-1-.448-1-1v-1c-.552 0-1-.448-1-1 0 .552-.448 1-1 1v2.558c0 .861.551 1.625 1.368 1.897l2.49.83 1.142-2.285z" fill="#FAE09F"/><path d="M28 10c0 .552-.448 1-1 1v1c0 .552-.448 1-1 1h-1.207c0 .128-.049.256-.146.354l-.647.646 1.143 2.286 2.49-.83c.816-.272 1.367-1.037 1.367-1.898v-2.558c-.552 0-1-.448-1-1zM11 23.5l-.553.276c-.247.124-.547.024-.671-.223l-1.221-2.442-1.269 3.174c-.189.472-.286.976-.286 1.485v2.23h2v-1.172c0-.53.211-1.039.586-1.414l1.628-1.628-.214-.286z" fill="#F7D684"/><path d="M23.444 21.111l-1.221 2.442c-.123.247-.423.347-.67.223l-.553-.276-.214.286 1.628 1.628c.375.375.586.884.586 1.414v1.172h2v-2.23c0-.509-.097-1.013-.286-1.486l-1.27-3.173z" fill="#F0C877"/></svg>