<svg xmlns="http://www.w3.org/2000/svg" width="32" height="32" viewBox="0 0 32 32"><path d="M13.8 20.9l-1.308.436c-.204.068-.429-.002-.558-.174l-.168-.224-.586 2.345c-.116.463-.062.952.151 1.38l.669 1.337v2l-2.748 1.832c-.164.11-.357.168-.555.168h-.697c-.552 0-1 .448-1 1s.448 1 1 1h1.764c.155 0 .308-.036.447-.106l1.578-.789c.139-.069.292-.105.447-.105h.764c.552 0 1-.448 1-1v-5.764c0-.155.036-.308.106-.447l1.094-2.189-1.4-.7z" fill="#C98B44"/><path d="M24 30h-.697c-.197 0-.39-.058-.555-.168l-2.748-1.832v-2l.669-1.338c.214-.427.267-.916.151-1.38l-.586-2.345-.168.224c-.129.172-.354.242-.558.174l-1.308-.435-1.4.7 1.094 2.189c.07.139.106.292.106.447v5.764c0 .552.448 1 1 1h.764c.155 0 .308.036.447.106l1.578.789c.139.069.292.105.447.105h1.764c.552 0 1-.448 1-1s-.448-1-1-1z" fill="#BF7D3C"/><path d="M16 1.65l-1.645-1.234c-.273-.205-.666-.082-.774.242l-.331.992-2.548-.425c-.355-.059-.655.265-.567.614l.239.958c-1.249-.393-3.978-1.193-4.374-.797-.461.461.699 4.085.95 4.85l-.496.496c-.195.195-.195.512 0 .707l.746.747-1.838 3.676c-.166.333.075.724.447.724h1.391l-.881 2.642c-.108.324.133.658.475.658h.956l1.426 2.853c.124.247.424.347.671.223l.653-.326 1.434 1.912c.129.172.354.242.558.174l1.308-.436 1.976.988c.07.035.147.053.224.053v-20.291z" fill="#FFF3D9"/><path d="M16.224 21.888l1.976-.988 1.308.436c.204.068.429-.002.558-.174l1.434-1.912.653.326c.247.124.547.024.671-.223l1.426-2.853h.956c.341 0 .582-.334.474-.658l-.88-2.642h1.391c.372 0 .613-.391.447-.724l-1.838-3.676.746-.746c.195-.195.195-.512 0-.707l-.496-.497c.251-.765 1.411-4.389.95-4.85-.396-.396-3.125.404-4.374.798l.239-.958c.087-.349-.212-.674-.567-.614l-2.548.424-.331-.992c-.108-.324-.501-.447-.774-.242l-1.645 1.234v20.291c.077 0 .153-.018.224-.053z" fill="#FDEBBB"/><path d="M18 28h2c.276 0 .5-.224.5-.5v-1c0-.276-.224-.5-.5-.5h-2c-.276 0-.5.224-.5.5v1c0 .276.224.5.5.5z" fill="#2B3332"/><path d="M22.877 3.463c.636-.183 1.295-.355 1.831-.46.175-.035.326.122.291.297-.103.507-.268 1.153-.46 1.824l-1.662-1.661z" fill="#C98B44"/><path d="M14.777 12.852l-2.235-1.49c-.285-.19-.671-.044-.761.287-.16.588-.298 1.457.031 2.081.087.166.259.27.446.27h2.742v-.732c0-.168-.084-.324-.223-.416zM14.777 12.852l-2.235-1.49c-.285-.19-.671-.044-.761.287-.16.588-.298 1.457.031 2.081.087.166.259.27.446.27h2.742v-.732c0-.168-.084-.324-.223-.416z" fill="#fff"/><path d="M17.223 12.852l2.235-1.49c.285-.19.671-.044.761.287.16.588.298 1.457-.031 2.081-.087.165-.259.27-.446.27h-2.742v-.732c0-.168.084-.324.223-.416z" fill="#F7F7F7"/><path d="M7.462 5.124c-.192-.667-.356-1.311-.459-1.817-.035-.175.115-.331.29-.297.546.106 1.201.274 1.829.454l-1.66 1.66z" fill="#D4994F"/><path d="M14.001 12.334l-1.002-.668.001.334c0 1.105-.052 2 .5 2 .495 0 .504-.721.501-1.666z" fill="#E85160"/><path d="M17.999 12.334l1.002-.668-.001.334c0 1.105.052 2-.5 2-.495 0-.504-.721-.501-1.666z" fill="#D84459"/><path d="M16 13c-1.105 0-2 .672-2 1.5s.895 1.5 2 1.5v-3z" fill="#F4A984"/><path d="M18 14.5c0-.828-.895-1.5-2-1.5v3c1.105 0 2-.672 2-1.5z" fill="#EA9C7A"/><path d="M14 28h-2c-.276 0-.5-.224-.5-.5v-1c0-.276.224-.5.5-.5h2c.276 0 .5.224.5.5v1c0 .276-.224.5-.5.5zM4.001 20.172l-.707-.707c-.391-.391-.391-1.024 0-1.414l1.414-1.414c.391-.391 1.024-.391 1.414 0l.707.707-2.828 2.828z" fill="#373F3F"/><path d="M27.999 20.172l.707-.707c.391-.391.391-1.024 0-1.414l-1.414-1.414c-.391-.391-1.024-.391-1.414 0l-.707.707 2.828 2.828zM18 8.25c-.064 0-.128-.024-.177-.073-.098-.098-.098-.256 0-.354l.823-.823-.823-.823c-.098-.098-.098-.256 0-.354s.256-.098.354 0l1 1c.098.098.098.256 0 .354l-1 1c-.049.049-.113.073-.177.073zm4.177-.073c.098-.098.098-.256 0-.354l-.823-.823.823-.823c.098-.098.098-.256 0-.354s-.256-.098-.354 0l-1 1c-.098.098-.098.256 0 .354l1 1c.049.049.113.073.177.073s.128-.024.177-.073zm-1 1c.098-.098.098-.256 0-.354l-1-1c-.098-.098-.256-.098-.354 0l-1 1c-.098.098-.098.256 0 .354s.256.098.354 0l.823-.823.823.823c.049.049.113.073.177.073s.128-.024.177-.073zm-1-3l1-1c.098-.098.098-.256 0-.354s-.256-.098-.354 0l-.823.823-.823-.823c-.098-.098-.256-.098-.354 0s-.098.256 0 .354l1 1c.049.049.113.073.177.073s.128-.024.177-.073z" fill="#2B3332"/><path d="M16 19.741c-.077 0-.153-.018-.224-.053l-1.753-.876c-.141-.07-.306-.07-.447 0l-.6.3c-.169.085-.372.066-.524-.047l-1.706-1.279c-.152-.114-.354-.132-.524-.047l-.501.251c-.192.096-.425.059-.577-.094l-1.394-1.396 1.426 2.853c.124.247.424.347.671.223l.653-.326 1.434 1.912c.129.172.354.242.558.174l1.308-.436 1.976.988c.07.035.147.053.224.053v-2.2z" fill="#FDEBBB"/><path d="M16.224 21.888l1.976-.988 1.308.436c.204.068.429-.002.558-.174l1.434-1.912.653.326c.247.124.547.024.671-.223l1.426-2.853-1.395 1.395c-.152.152-.385.19-.577.094l-.501-.251c-.169-.085-.372-.066-.524.047l-1.706 1.279c-.152.114-.354.132-.524.047l-.6-.3c-.141-.07-.306-.07-.447 0l-1.753.876c-.07.035-.147.053-.224.053v2.2c.078.001.154-.017.225-.052z" fill="#FAE09F"/><path d="M9.658 20.172l.707-.707c.391-.391.391-1.024 0-1.414l-.707-.707c-.781-.781-2.047-.781-2.828 0l-2.828 2.828c-.781.781-.781 2.047 0 2.828l1.414 1.414c.781.781 2.047.781 2.828 0l1.414-1.414c.781-.781.781-2.047 0-2.828z" fill="#D4994F"/><path d="M22.342 20.172l-.707-.707c-.391-.391-.391-1.024 0-1.414l.707-.707c.781-.781 2.047-.781 2.828 0l2.828 2.828c.781.781.781 2.047 0 2.828l-1.414 1.414c-.781.781-2.047.781-2.828 0l-1.414-1.414c-.781-.781-.781-2.047 0-2.828z" fill="#C98B44"/><path d="M3.716 14.798l2.397-1.598h-.304c-.372 0-.613-.391-.447-.724l1.713-3.426h-.376c-.89 0-1.735.395-2.305 1.079l-2.931 3.517c-.662.795-.609 1.963.122 2.695l1.709 1.709 1.414-1.414-1.068-1.069c-.223-.223-.187-.594.076-.769z" fill="#D4994F"/><path d="M30.536 13.647l-2.931-3.517c-.57-.684-1.414-1.079-2.305-1.079h-.375l1.713 3.426c.166.332-.076.724-.447.724h-.304l2.397 1.598c.263.175.299.546.076.77l-1.069 1.069 1.414 1.414 1.709-1.709c.732-.733.785-1.901.122-2.696z" fill="#C98B44"/></svg>