<svg xmlns="http://www.w3.org/2000/svg" width="32" height="32" viewBox="0 0 32 32"><path d="M12.446 26.443c-.148.185-.446.081-.446-.156v-2.287l-1.46.73c-.199.1-.419-.091-.349-.303l.809-2.427h-1.595c-.186 0-.307-.196-.224-.362l.819-1.638-.953-.476c-.018.158-.047.313-.047.476v11.5c0 .276.224.5.5.5h4c.276 0 .5-.224.5-.5v-6.999l-1.554 1.942z" fill="#FCA15E"/><path d="M12.446 26.443c-.148.185-.446.081-.446-.156v-2.287l-1.46.73c-.199.1-.419-.091-.349-.303l.809-2.427h-1.595c-.186 0-.307-.196-.224-.362l.819-1.638-.953-.476c-.018.158-.047.313-.047.476v11.5c0 .276.224.5.5.5h4c.276 0 .5-.224.5-.5v-6.999l-1.554 1.942z" fill="#FFAD68"/><path d="M22 20l.819 1.638c.083.166-.038.362-.223.362h-1.596l.809 2.427c.07.211-.15.402-.349.303l-1.46-.73v2.287c0 .236-.298.341-.445.156l-1.555-1.943v7c0 .276.224.5.5.5h4c.276 0 .5-.224.5-.5v-11.5c0-.163-.029-.318-.048-.476l-.952.476z" fill="#F79654"/><path d="M22 20l.819 1.638c.083.166-.038.362-.223.362h-1.596l.809 2.427c.07.211-.15.402-.349.303l-1.46-.73v2.287c0 .236-.298.341-.445.156l-1.555-1.943v7c0 .276.224.5.5.5h4c.276 0 .5-.224.5-.5v-11.5c0-.163-.029-.318-.048-.476l-.952.476z" fill="#FCA15E"/><path d="M18 24.5l-1 1.75v4.25c0 .276.224.5.5.5h.5v-6.5z" fill="#EF8C48"/><path d="M14 24.5l-1.555 1.943 1.555-1.943v6.5h.5c.276 0 .5-.224.5-.5v-4.251l-1-1.749z" fill="#FCA15E"/><path d="M18.817 20l-7-7s-2-13 10-13c10.647 0 10.273 11.808 10.054 14.471-.018.213-.275.307-.426.156l-2.628-2.627v2.396c0 .223-.269.334-.427.177l-2.573-2.573s1 8-7 8z" fill="#FAE09F"/><path d="M25.757 7.496c-.422-1.619-1.091-2.841-2.667-2.408-.511.141-.909.582-1.215 1.113.709 1.095 1.125 2.397 1.125 3.799 0 .195-.013.387-.029.578.539.322 1.119.518 1.648.373 1.576-.434 1.56-1.836 1.138-3.455z" fill="#F79654"/><path d="M9 10c0-1.402.416-2.704 1.126-3.799-.307-.531-.704-.972-1.215-1.113-1.577-.434-2.245.789-2.668 2.408-.422 1.619-.438 3.021 1.138 3.455.529.145 1.109-.051 1.648-.373-.016-.191-.029-.383-.029-.578z" fill="#FCA15E"/><path d="M18 26l1.71 1.71c.169.169.433.195.631.062l2.659-1.772v2l-1.747 2.184c-.147.184-.403.24-.614.135l-2.639-1.319v-3z" fill="#2B3332"/><path d="M14 26l-1.71 1.71c-.169.169-.433.195-.631.062l-2.659-1.772v2l1.747 2.184c.147.184.403.24.614.135l2.639-1.319v-3z" fill="#373F3F"/><path d="M16 3c-3.866 0-7 3.134-7 7s3.134 7 7 7v-14z" fill="#FFAD68"/><path d="M23 10c0-3.866-3.134-7-7-7v14c3.866 0 7-3.134 7-7z" fill="#FCA15E"/><path d="M16 9.35c-.455 0-.91.104-1.328.313-.47.235-1 .342-1.525.31-3.116-.194-4.106-1.323-4.146 1.038-.047 2.803 1.974 5.264 4.73 5.774.773.143 1.532.206 2.268.206v-7.641z" fill="#FFF3D9"/><path d="M23 11.167c0-2.557-.959-1.397-4.121-1.195-.534.034-1.073-.069-1.552-.308-.417-.209-.872-.314-1.327-.314v7.642c3.865-.001 7-1.96 7-5.825z" fill="#FDEBBB"/><path d="M22.221 14.114c-1.159.793-3.506-.121-6.221-.122v3c2.711-.001 5.058-.969 6.221-2.878z" fill="#FAE09F"/><path d="M15.996 13.992c-2.59 0-4.846.832-6.056.221.843 1.305 2.184 2.276 3.791 2.573.773.143 1.532.206 2.268.206v-3h-.003zM9.545 7.288c-.263-.646-.589-1.151-.9-1.236-.125-.034-.239-.052-.337-.052-.175 0-.64 0-1.097 1.748-.515 1.977.012 2.122.435 2.239l.109.013c.348 0 .82-.276 1.277-.641.067-.728.241-1.424.513-2.071z" fill="#FDEBBB"/><path d="M24.789 7.749c-.457-1.749-.922-1.749-1.097-1.749-.099 0-.212.018-.338.052-.31.085-.637.59-.9 1.236.272.646.447 1.343.513 2.071.459.365.93.641 1.278.641l.108-.013c.424-.117.951-.262.436-2.238z" fill="#FAE09F"/><path d="M16 16.992c-.736 0-1.496-.063-2.268-.206-1.434-.265-2.664-1.061-3.513-2.156l-1.884.314c-.166.028-.258.208-.182.358l.847 1.698-.888 1.776c-.061.124-.011.274.112.336l1.776.888-.819 1.638c-.083.166.038.362.224.362h1.595l-.809 2.427c-.07.211.15.402.349.303l1.46-.73v2.287c0 .236.298.341.445.156l1.555-1.943 1.782 3.119c.054.094.153.133.247.122v-10.75l-.029.001z" fill="#FFF3D9"/><path d="M23.888 18.776l-.888-1.776.849-1.697c.075-.15-.017-.331-.182-.358l-1.811-.302c-1.246 1.554-3.388 2.342-5.825 2.349v10.75c.074-.009.145-.048.187-.122l1.782-3.12 1.555 1.943c.147.185.445.081.445-.156v-2.287l1.46.73c.199.1.419-.091.349-.303l-.809-2.427h1.595c.186 0 .307-.196.224-.362l-.819-1.638 1.776-.888c.124-.062.174-.212.112-.336z" fill="#FDEBBB"/><path d="M16 11.001c-.552 0-1-.052-1 .5 0 .341.382.738.674.991.094.081.21.122.326.122v-1.613z" fill="#373F3F"/><path d="M16.326 12.493c.292-.254.674-.65.674-.992 0-.552-.448-.5-1-.5v1.613c.116.001.233-.04.326-.121z" fill="#2B3332"/><path d="M15.978.336c-.143.006-.283.071-.378.198l-1.1 1.466-.656-.656c-.144-.144-.39-.065-.424.135l-.082.49c-.212 1.274.204 2.573 1.117 3.486l1.523 1.523v-6.642z" fill="#FFF3D9"/><path d="M18.58 1.479c-.034-.2-.28-.279-.424-.135l-.656.656-1.1-1.467c-.105-.14-.264-.204-.422-.198v6.643l.022.022 1.544-1.544c.913-.913 1.329-2.212 1.117-3.486l-.081-.491z" fill="#FDEBBB"/><path fill="#FCA15E" d="M9.999 20v-.001h.001v.001z"/><path d="M11 22h-1.595c-.186 0-.307-.196-.224-.362l.819-1.638-1 1v2l1.875-.625.125-.375z" fill="#373F3F"/><path d="M18.879 9.972c.85-.055 1.536-.177 2.092-.279-.034-.653-.153-1.284-.38-1.865-.143-.366-.638-.432-.874-.118l-1.653 2.204c.268.054.542.075.815.058z" fill="#F7F7F7"/><path d="M22.819 21.638c.083.166-.038.362-.223.362h-1.596l.125.375 1.875.625v-2l-1-1 .819 1.638zM18.879 9.972c.404-.026.772-.068 1.107-.115-.018-.699-.15-1.368-.388-1.988l-1.534 2.045c.268.054.542.075.815.058z" fill="#2B3332"/><path d="M13.147 9.974c.265.016.531-.004.79-.057l-1.654-2.207c-.236-.315-.731-.249-.874.118-.227.581-.346 1.212-.38 1.865.562.103 1.256.227 2.118.281z" fill="#fff"/><path d="M13.147 9.974c.265.016.531-.004.79-.057l-1.536-2.048c-.237.62-.37 1.289-.388 1.987.343.049.719.092 1.134.118z" fill="#373F3F"/></svg>