<svg xmlns="http://www.w3.org/2000/svg" width="32" height="32" viewBox="0 0 32 32"><path d="M18.875 20l-7-7s-2-13 10-13c10.647 0 10.273 11.808 10.053 14.471-.018.213-.275.307-.426.156l-2.627-2.627v2.396c0 .223-.269.334-.427.177l-2.573-2.573s1 8-7 8z" fill="#F7D684"/><path d="M23.058 25c0-3-1-6-1-6l-1 .5.803 1.205c.096.144.02.339-.147.381l-1.656.414.741 1.111c.11.166-.009.389-.209.389h-1.533v1.653c0 .171-.167.291-.329.237l-.661-.22c.103 3.97 1.101 6.037 1.644 6.873.186.286.5.457.841.457h3.505c.552 0 1-.448 1-1 .001-2-1.999-3-1.999-6z" fill="#F79654"/><path d="M13.387 24.89c-.162.054-.329-.067-.329-.237v-1.653h-1.533c-.2 0-.319-.223-.208-.389l.741-1.111-1.656-.414c-.168-.042-.243-.237-.147-.381l.803-1.205-1-.5s-1 3-1 6-2 4-2 6c0 .552.448 1 1 1h3.505c.341 0 .656-.171.841-.457.543-.835 1.541-2.903 1.644-6.873l-.661.22z" fill="#FCA15E"/><path d="M16.058 14h-6l.5 1.5-1.188.792c-.148.099-.148.317 0 .416l1.188.792-1.142.761c-.16.106-.145.346.027.432l1.615.807-.803 1.205c-.096.144-.02.339.147.381l1.656.414-.741 1.111c-.111.166.008.389.208.389h1.533v1.653c0 .171.167.291.329.237l1.171-.39 1.146 1.146c.098.098.226.146.354.146v-11.792z" fill="#FDEBBB"/><path d="M16.411 25.646l1.146-1.146 1.171.39c.162.054.329-.067.329-.237v-1.653h1.533c.2 0 .319-.223.208-.389l-.74-1.111 1.656-.414c.168-.042.243-.237.147-.381l-.803-1.205 1.615-.807c.172-.086.187-.325.027-.432l-1.142-.761 1.188-.792c.148-.099.148-.317 0-.416l-1.188-.792.5-1.5h-6v11.793c.128 0 .256-.049.353-.147z" fill="#FAE09F"/><path d="M22.058 19l-1 .5.803 1.205c.096.144.02.339-.147.381l-.062.015 1.093.698c-.294-1.619-.687-2.799-.687-2.799z" fill="#2B3332"/><path d="M16.058.167c-.075 0-.15.033-.2.1l-1.3 1.733-1.638-.819c-.166-.083-.362.038-.362.224v1.595l-1.111-.741c-.166-.111-.389.008-.389.208v1.533l-1.432-.358c-.214-.053-.387.175-.278.367l.959 1.679-1 2-1.788.347c-.196.038-.271.281-.129.422l.668.668-.785.784c-.112.112-.093.297.038.385l1.246.831-.757 1.514c-.096.191.077.406.284.354l1.473-.368v2.033c0 .2.223.319.389.208l1.111-.741.393 1.572c.047.189.282.254.419.116l.688-.688.845 1.69c.076.153.28.186.4.065l.755-.755 1.3 1.733c.05.067.125.1.2.1v-17.791z" fill="#FFF3D9"/><path d="M16.258 17.858l1.3-1.733.755.755c.121.121.324.088.4-.065l.845-1.69.688.688c.137.137.372.072.419-.116l.393-1.572 1.111.741c.166.111.389-.008.389-.208v-2.033l1.473.368c.207.052.38-.163.284-.354l-.757-1.514 1.246-.831c.131-.088.15-.273.038-.385l-.784-.784.668-.668c.142-.142.068-.384-.129-.422l-1.788-.348-1-2 .959-1.679c.109-.191-.064-.42-.278-.367l-1.432.359v-1.533c0-.2-.223-.319-.389-.208l-1.111.741v-1.595c0-.186-.196-.307-.362-.224l-1.638.819-1.3-1.733c-.05-.067-.125-.1-.2-.1v17.792c.075-.001.15-.034.2-.101z" fill="#FDEBBB"/><path d="M23.058 25l-.013-.59-1.987 1.59-2.002-1.334c-.008.164-.17.277-.328.225l-.661-.22c.025.926.101 1.744.206 2.474l2.785 1.855 2.384-1.907c-.224-.589-.384-1.259-.384-2.093z" fill="#2B3332"/><path d="M18.068 24.67l.661.22-1.171-.39-.477.477c.051 2.496.205 3.91.631 4.566.186.286.5.457.841.457h.411c-.428-1.158-.833-2.881-.896-5.33z" fill="#EF8C48"/><path d="M14.558 24.5l-.51.17c-.063 2.449-.467 4.173-.895 5.33h.41c.341 0 .656-.171.841-.457.426-.656.58-2.07.631-4.566l-.477-.477z" fill="#F79654"/><path d="M13.387 24.89c-.158.053-.319-.061-.328-.225l-2.001 1.335-1.988-1.59-.012.59c0 .834-.161 1.504-.384 2.093l2.384 1.907 2.784-1.856c.105-.729.18-1.547.206-2.474l-.661.22zM10.402 21.086c-.168-.042-.243-.237-.147-.381l.803-1.205-1-.5s-.393 1.18-.686 2.8l1.093-.698-.063-.016z" fill="#373F3F"/><path d="M13.058 7c-.552 0-1.053.224-1.415.586-.047-.598-.216-1.338-.723-1.845-.675-.675-1.77-.755-2.381-.739-.264.007-.473.216-.48.48-.015.61.064 1.705.74 2.381.65.65 1.678.746 2.299.739-.026.128-.04.261-.04.398 0 1.105.895 2 2 2l3-2s-1.896-2-3-2z" fill="#FCA15E"/><path d="M23.576 5.002c-.61-.015-1.705.064-2.381.739-.507.507-.676 1.248-.723 1.845-.362-.362-.862-.586-1.414-.586-1.105 0-3 2-3 2s1.895 2 3 2 2-.895 2-2c0-.137-.014-.27-.04-.399.621.007 1.649-.089 2.299-.739.676-.676.755-1.771.74-2.381-.008-.263-.217-.473-.481-.479z" fill="#F79654"/><path d="M16.058 9c-.729 0-1.412.646-2 .901-1.195.519-2 .488-2 1.599 0 1.657 1.791 2.5 4 2.5v-5z" fill="#FDEBBB"/><path d="M20.058 11.5c0-1.11-.804-1.079-1.999-1.598-.589-.256-1.272-.902-2.001-.902v5c2.209 0 4-.843 4-2.5z" fill="#FAE09F"/><path d="M15.058 8.498v-.426c-.627-.523-1.421-1.072-2-1.072l-.003.003c-.33.33-.463.784-.396 1.213.072.464.515.781.985.782l.914.001c.275 0 .5-.224.5-.501z" fill="#fff"/><path d="M14.558 7.68c-.331-.241-.679-.451-1-.572v1.391c0 .276.224.5.501.5.276 0 .499-.224.499-.5v-.819z" fill="#373F3F"/><path d="M17.058 8.498v-.426c.626-.523 1.421-1.072 2-1.072l.003.003c.33.33.463.784.396 1.213-.072.464-.515.781-.985.782l-.914.001c-.276 0-.5-.224-.5-.501z" fill="#F7F7F7"/><path d="M17.558 7.68c.331-.241.679-.451 1-.572v1.391c0 .276-.224.5-.501.5-.276 0-.499-.224-.499-.5v-.819z" fill="#2B3332"/><path d="M16.058 14v-2c-1.194 0-2.669.324-3.809.322.499 1.107 2.006 1.678 3.809 1.678z" fill="#FAE09F"/><path d="M19.867 12.322c-1.141.002-2.615-.322-3.809-.322v2c1.803 0 3.309-.571 3.809-1.678z" fill="#F7D684"/><path d="M23.323 5.495c-2.241 0-2.4 1.728-2.381 2.371.004.138.121.242.258.24 2.258-.024 2.403-1.739 2.379-2.373-.005-.135-.12-.238-.256-.238z" fill="#FAE09F"/><path d="M8.792 5.495c-.136 0-.25.103-.256.238-.024.634.121 2.348 2.379 2.373.138.002.254-.103.258-.24.019-.643-.14-2.371-2.381-2.371z" fill="#FDEBBB"/><path d="M16.058 10c-.552 0-1-.052-1 .5 0 .341.382.738.674.991.094.081.21.122.326.122v-1.613z" fill="#373F3F"/><path d="M16.384 11.491c.292-.253.674-.65.674-.991 0-.552-.448-.5-1-.5v1.613c.116 0 .232-.04.326-.122z" fill="#2B3332"/></svg>