<svg xmlns="http://www.w3.org/2000/svg" width="32" height="32" viewBox="0 0 32 32"><path d="M16 25s7 3 12 0l1 1s-5 6-13 4v-5z" fill="#E8803A"/><path d="M19 14.002s4.601-.92 5.859-6.292c.104-.445.039-.914-.166-1.322l-.4-.8c-.175-.35-.106-.772.17-1.048.325-.325.839-.355 1.203-.074 1.717 1.328 6.175 5.668 6.33 15.032.005.278-.222.505-.5.505h-.004c-.292 0-.56-.153-.715-.4-.603-.96-2.443-3.2-5.776-1.6 0 0-3-1.833-5 0l-1.001-4.001" fill="#0A6F8E"/><path d="M19 14.002s4.601-.92 5.859-6.292c.104-.445.039-.914-.166-1.322l-.4-.8c-.175-.35-.106-.772.17-1.048.325-.325.839-.355 1.203-.074 1.717 1.328 6.172 5.665 6.33 15.024.005.282-.226.512-.508.512-.269 0-.491-.208-.506-.476-.097-1.699-.703-7.548-4.482-11.024 0 0-1.458 6.32-7.251 6.496l-.249-.996" fill="#E8803A"/><path d="M13.006 14.002s-4.601-.92-5.859-6.292c-.104-.445-.038-.913.166-1.322l.4-.8c.175-.35.106-.772-.17-1.048-.325-.326-.839-.355-1.203-.074-1.717 1.328-6.175 5.668-6.33 15.032-.005.278.222.505.5.505h.004c.292 0 .56-.153.715-.4.603-.96 2.443-3.2 5.776-1.6 0 0 3-1.833 5 0l1.001-4.001" fill="#0F769B"/><path d="M13.006 14.002s-4.601-.92-5.859-6.292c-.104-.445-.038-.913.166-1.322l.4-.8c.175-.35.106-.772-.17-1.048-.325-.326-.839-.355-1.203-.074-1.716 1.327-6.172 5.665-6.33 15.024-.005.282.226.512.508.512.269 0 .491-.208.506-.476.097-1.699.703-7.548 4.482-11.024 0 0 1.458 6.32 7.251 6.496l.249-.996" fill="#EF8C48"/><path d="M27.063 19.594l-1.159-1.739c-1.234-1.85-3.049-3.237-5.158-3.94l-2.185-.728c-.362-1.018-.561-2.095-.561-3.187h-2v20c1.094 0 2.117-.257 3-.763v1.348c0 .265.105.52.293.707l.414.414c.188.189.442.294.707.294h4.98c.359 0 .611-.372.46-.698-.6-1.302-2.854-1.302-2.854-1.302s1-1 1-4c0-1.854-1.145-2.943-2.021-3.505-.089-2.237-.755-4.556-1.796-6.344 1.281.78 2.335 1.885 3.009 3.234l.951 1.903c.455.909 1.603 1.214 2.449.65l.001-.001c.777-.517.987-1.567.47-2.343z" fill="#EF8C48"/><path d="M19.863 7.451l-.62-2.481c-.159-.637-.159-1.303 0-1.94l.447-1.788c.157-.631-.32-1.242-.97-1.242-.43 0-.812.275-.948.683l-.544 1.633c-.136.409-.518.684-.949.684h-.279v10h.438c.918 0 1.718-.625 1.94-1.515l.554-2.216c.044-.176.135-.336.263-.465l.405-.404c.248-.248.348-.608.263-.949zM16 10h-2c0 1.091-.199 2.168-.56 3.186l-2.185.728c-2.11.703-3.925 2.09-5.158 3.94l-1.159 1.739c-.518.777-.308 1.827.468 2.344l.001.001c.846.564 1.994.259 2.449-.65l.951-1.903c.674-1.349 1.729-2.454 3.009-3.234-1.1 1.888-1.787 4.37-1.812 6.721-1.001.625-2.004 1.625-2.004 3.128 0 3 1 4 1 4s-2.254 0-2.854 1.302c-.151.326.101.698.46.698h4.98c.265 0 .52-.105.707-.293l.414-.414c.188-.188.293-.442.293-.707v-1.348c.883.505 1.906.762 3 .762v-20z" fill="#F79654"/><path d="M16 3h-.279c-.43 0-.813-.275-.949-.684l-.544-1.633c-.136-.408-.518-.683-.948-.683-.65 0-1.127.611-.969 1.242l.447 1.788c.159.637.159 1.303 0 1.94l-.62 2.481c-.086.341.014.701.262.949l.404.404c.128.128.219.289.263.465l.554 2.216c.223.89 1.023 1.515 1.94 1.515h.439v-10z" fill="#FCA15E"/><path d="M18.917 29.291c.284-.156.507-.417.615-.722.353-.998.468-2.23.468-3.569 0-3.314-.686-6-4-6v11c1.059 0 2.053-.236 2.917-.709z" fill="#FAE09F"/><path d="M12 25c0 1.339.115 2.571.468 3.569.108.305.331.566.615.722.864.473 1.858.709 2.917.709v-11c-3.314 0-4 2.686-4 6z" fill="#FDEBBB"/><path d="M14.978 7.717c-.187-.36-.601-.969-1.356-1.254-.06-.023-.129-.014-.18.024-.102.075-.265.243-.379.599-.118.366-.045.647.019.796.03.072.101.118.18.118h1.541c.145 0 .242-.154.175-.283z" fill="#fff"/><path d="M14.978 7.717c-.174-.334-.545-.878-1.199-1.183-.1.09-.228.252-.325.552-.118.366-.045.647.019.796.031.072.102.118.181.118h1.149c.145 0 .242-.154.175-.283z" fill="#0F769B"/><path d="M14.527 7.881c.061-.144.128-.414.026-.763-.14-.154-.304-.307-.509-.437-.069.095-.139.222-.197.404-.118.366-.045.647.019.796.03.073.101.119.18.119h.3c.079 0 .15-.046.181-.119z" fill="#373F3F"/><path d="M17.022 7.717c.187-.36.601-.969 1.356-1.254.06-.023.129-.014.18.024.102.075.265.243.379.599.118.366.045.647-.019.796-.03.072-.101.118-.18.118h-1.541c-.145 0-.242-.154-.175-.283z" fill="#F7F7F7"/><path d="M18.527 7.881c.063-.149.136-.43.019-.796-.096-.3-.225-.462-.325-.552-.654.305-1.025.85-1.199 1.183-.067.13.03.284.175.284h1.149c.079 0 .15-.046.181-.119z" fill="#0A6F8E"/><path d="M18.135 7.881c.063-.149.136-.43.019-.796-.059-.182-.129-.309-.197-.404-.205.13-.368.283-.509.437-.102.349-.036.619.026.763.03.073.101.119.18.119h.3c.079 0 .15-.046.181-.119z" fill="#2B3332"/><path d="M28 25v-.001c0-1.175.799-2.199 1.939-2.484l1.252-.313c.366-.092.698.24.606.606l-.313 1.252c-.284 1.141-1.308 1.94-2.483 1.94h-.001l-1-1z" fill="#FF4A00"/><path d="M28.106 24.789l-.106.211 1 1 .211-.106c1.009-.505 1.676-1.494 1.776-2.605.014-.159-.118-.291-.277-.277-1.11.101-2.1.768-2.604 1.777z" fill="#FF8F00"/><path d="M28 25l1 1s.804-.785.97-1.672c.033-.178-.12-.332-.298-.298-.879.168-1.672.97-1.672.97z" fill="#FFD400"/></svg>