<svg xmlns="http://www.w3.org/2000/svg" width="32" height="32" viewBox="0 0 32 32"><path fill="#529CCF" d="M18 30h3l-1-7h-2z"/><path d="M17 30.667c0 1.333 1.567 1.333 3.5 1.333s3.5 0 3.5-1.333c0-2.209-1.567-2.667-3.5-2.667s-3.5.458-3.5 2.667zM14 30h-3l1-7h2z" fill="#5CA3D5"/><path d="M15 30.667c0 1.333-1.567 1.333-3.5 1.333s-3.5 0-3.5-1.333c0-2.209 1.567-2.667 3.5-2.667s3.5.458 3.5 2.667z" fill="#65A9DC"/><path d="M10.916 1.285c-.921-1-2.336-1.531-3.872-1.173-1.345.313-2.457 1.354-2.859 2.676-.327 1.073-.2 2.086.218 2.934.274.557.233 1.214-.065 1.759-.853 1.556-1.338 3.398-1.338 5.519 0 7.41 5.82 11.5 13 11.5v-23c-1.146 0-2.255.11-3.312.319-.644.127-1.327-.051-1.772-.534z" fill="#71B1E1"/><path d="M27.597 5.722c.417-.848.544-1.861.218-2.934-.402-1.321-1.514-2.363-2.859-2.676-1.536-.358-2.951.174-3.872 1.173-.445.483-1.129.661-1.772.534-1.057-.209-2.166-.319-3.312-.319v23c7.18 0 13-4.09 13-11.5 0-2.121-.485-3.963-1.337-5.519-.298-.545-.339-1.202-.066-1.759z" fill="#65A9DC"/><circle cx="24" cy="4" r="3" fill="#F7F7F7"/><circle cx="8" cy="4" r="3" fill="#fff"/><circle cx="8" cy="4" r="2" fill="#373F3F"/><circle cx="24" cy="4" r="2" fill="#2B3332"/><circle cx="23.5" cy="3.5" r=".5" fill="#F7F7F7"/><circle cx="8.5" cy="3.5" r=".5" fill="#fff"/><path d="M16 8c4.418 0 8 3.134 8 7s-3.582 7-8 7v-14z" fill="#F7F7F7"/><path d="M8 15c0-3.866 3.582-7 8-7v14c-4.418 0-8-3.134-8-7z" fill="#fff"/><g fill="#2B3332"><path d="M18.512 15c0 .827-1.077 1.45-2.512 1.463v-.75c1.06-.012 1.762-.433 1.762-.714s-.702-.7-1.762-.713v-.75c1.434.014 2.512.637 2.512 1.464zM20.693 15c0 1.999-2.102 3.624-4.693 3.644v-.75c2.178-.018 3.943-1.308 3.943-2.894 0-1.587-1.766-2.877-3.943-2.895v-.75c2.592.02 4.693 1.645 4.693 3.645zM16 20.077c3.381-.021 6.125-2.289 6.125-5.077s-2.744-5.058-6.125-5.078v-.75c3.795.021 6.875 2.626 6.875 5.828 0 3.201-3.08 5.806-6.875 5.827v-.75z"/></g><g fill="#373F3F"><path d="M15.579 13.909c0-.207.168-.375.375-.375l.046.003v.75l-.046-.002c-.207-.001-.375-.169-.375-.376zM12.307 13.909c0-1.435 1.603-2.558 3.647-2.558l.046.004v.75l-.046-.003c-1.57 0-2.897.828-2.897 1.808s1.327 1.807 2.897 1.807l.046-.002v.75l-.046.003c-2.045-.002-3.647-1.125-3.647-2.559zM15.579 20.454c0-.207.168-.375.375-.375l.046-.002v.75l-.046.002c-.207 0-.375-.168-.375-.375zM15.954 9.17l.046.002v.75l-.046-.002c-2.801 0-5.079 1.79-5.079 3.989s2.278 3.988 5.079 3.988l.046-.003v.75l-.046.004c-3.214 0-5.829-2.126-5.829-4.738 0-2.614 2.615-4.74 5.829-4.74z"/></g><path d="M1 20l3-3 1 1h2.382c.379 0 .725.214.894.553l.401.803c.192.385.117.85-.187 1.154l-.49.49.586.586c.781.781.781 2.047 0 2.828l-1.172 1.172c-.781.781-2.047.781-2.828 0l-3-3c-.375-.375-.586-.884-.586-1.414v-1.172z" fill="#F7F7F7"/><path d="M1 20v-2.729c0-2.087.653-4.121 1.867-5.818l.279-.39s-.271 4.312.854 5.938l-3 2.999z" fill="#65A9DC"/><path d="M31 20l-3-3-1 1h-2.382c-.379 0-.725.214-.894.553l-.401.803c-.192.385-.117.85.187 1.154l.49.49-.586.586c-.781.781-.781 2.047 0 2.828l1.172 1.172c.781.781 2.047.781 2.828 0l3-3c.375-.375.586-.884.586-1.414v-1.172z" fill="#EDEEEE"/><path d="M31 20v-2.729c0-2.087-.653-4.121-1.867-5.818l-.279-.39s.271 4.312-.854 5.938l3 2.999z" fill="#5CA3D5"/><circle cx="14.5" cy="6.5" r=".5" fill="#373F3F"/><circle cx="17.5" cy="6.5" r=".5" fill="#2B3332"/></svg>