<svg xmlns="http://www.w3.org/2000/svg" width="32" height="32" viewBox="0 0 32 32"><path d="M30 18c1.105 0 2-.895 2-2v-3.451c0-3.543-1.911-6.812-5-8.549v3.312l3 10.688z" fill="#5CA3D5"/><path d="M2 18c-1.105 0-2-.895-2-2v-3.451c0-3.543 1.911-6.812 5-8.549v3.312l-3 10.688z" fill="#65A9DC"/><path fill="#529CCF" d="M23 22l-1 7h-3l-1-6z"/><path fill="#5CA3D5" d="M9 22l1 7h3l1-6zM17 30.667c0 1.333 1.567 1.333 3.5 1.333s3.5 0 3.5-1.333c0-2.209-1.567-2.667-3.5-2.667s-3.5.458-3.5 2.667z"/><path d="M15 30.667c0 1.333-1.567 1.333-3.5 1.333s-3.5 0-3.5-1.333c0-2.209 1.567-2.667 3.5-2.667s3.5.458 3.5 2.667z" fill="#65A9DC"/><path d="M10.916 1.285c-.921-1-2.336-1.531-3.872-1.173-1.345.313-2.457 1.354-2.859 2.676-.327 1.073-.2 2.086.218 2.934.274.557.233 1.214-.065 1.759-.853 1.556-1.338 3.398-1.338 5.519 0 7.41 5.82 11.5 13 11.5v-23c-1.146 0-2.255.11-3.312.319-.644.127-1.327-.051-1.772-.534z" fill="#71B1E1"/><path d="M27.597 5.722c.417-.848.544-1.861.218-2.934-.402-1.321-1.514-2.363-2.859-2.676-1.536-.358-2.951.174-3.872 1.173-.445.483-1.129.661-1.772.534-1.057-.209-2.166-.319-3.312-.319v23c7.18 0 13-4.09 13-11.5 0-2.121-.485-3.963-1.337-5.519-.298-.545-.339-1.202-.066-1.759z" fill="#65A9DC"/><path d="M27 4c0 1.657-1.343 3-3 3s-3-1.343-3-3l5.12-2.123c.544.543.88 1.294.88 2.123z" fill="#F7F7F7"/><path d="M11 4c0 1.657-1.343 3-3 3s-3-1.343-3-3c0-.828.336-1.578.878-2.121l5.122 2.121z" fill="#fff"/><path d="M16 8c4.418 0 8 3.134 8 7s-3.582 7-8 7v-14z" fill="#F7F7F7"/><path d="M8 15c0-3.866 3.582-7 8-7v14c-4.418 0-8-3.134-8-7z" fill="#fff"/><g fill="#2B3332"><path d="M18.512 15c0 .827-1.077 1.45-2.512 1.463v-.75c1.06-.012 1.762-.433 1.762-.714s-.702-.7-1.762-.713v-.75c1.434.014 2.512.637 2.512 1.464zM20.693 15c0 1.999-2.102 3.624-4.693 3.644v-.75c2.178-.018 3.943-1.308 3.943-2.894 0-1.587-1.766-2.877-3.943-2.895v-.75c2.592.02 4.693 1.645 4.693 3.645zM16 20.077c3.381-.021 6.125-2.289 6.125-5.077s-2.744-5.058-6.125-5.078v-.75c3.795.021 6.875 2.626 6.875 5.828 0 3.201-3.08 5.806-6.875 5.827v-.75z"/></g><g fill="#373F3F"><path d="M15.579 13.909c0-.207.168-.375.375-.375l.046.003v.75l-.046-.002c-.207-.001-.375-.169-.375-.376zM12.307 13.909c0-1.435 1.603-2.558 3.647-2.558l.046.004v.75l-.046-.003c-1.57 0-2.897.828-2.897 1.808s1.327 1.807 2.897 1.807l.046-.002v.75l-.046.003c-2.045-.002-3.647-1.125-3.647-2.559zM15.579 20.454c0-.207.168-.375.375-.375l.046-.002v.75l-.046.002c-.207 0-.375-.168-.375-.375zM15.954 9.17l.046.002v.75l-.046-.002c-2.801 0-5.079 1.79-5.079 3.989s2.278 3.988 5.079 3.988l.046-.003v.75l-.046.004c-3.214 0-5.829-2.126-5.829-4.738 0-2.614 2.615-4.74 5.829-4.74z"/></g><circle cx="14.5" cy="6.5" r=".5" fill="#373F3F"/><circle cx="17.5" cy="6.5" r=".5" fill="#2B3332"/><path d="M6 11h1c1.105 0 2 .895 2 2v.023c.625.054 1.22.334 1.599.837 1.173 1.554-.599 3.14-.599 3.14s1.771 1.586.599 3.14c-.421.559-1.106.86-1.806.86h-2.793c-1.657 0-3-1.343-3-3h-1l-.217-.941c-.27-1.174.215-2.392 1.217-3.059 0-1.657 1.343-3 3-3z" fill="#F7F7F7"/><path d="M26 11h-1c-1.105 0-2 .895-2 2v.023c-.625.054-1.22.334-1.599.837-1.173 1.554.599 3.14.599 3.14s-1.771 1.586-.599 3.14c.421.559 1.106.86 1.806.86h2.793c1.657 0 3-1.343 3-3h1l.217-.941c.27-1.174-.215-2.392-1.217-3.059 0-1.657-1.343-3-3-3z" fill="#EDEEEE"/><path d="M24.237 2.658l-1.679.696c-.035.204-.058.419-.058.646 0 1.105.448 2 1 2s1-.895 1-2c0-.519-.101-.987-.263-1.342z" fill="#2B3332"/><path d="M7.5 4c0 1.105.448 2 1 2s1-.895 1-2c0-.227-.023-.442-.058-.645l-1.68-.695c-.161.355-.262.822-.262 1.34z" fill="#373F3F"/></svg>