<svg xmlns="http://www.w3.org/2000/svg" width="32" height="32" viewBox="0 0 32 32"><path d="M16.291 15.982s8.926-3.183 14.85-8.828c.357-.34.943-.001.828.479-2.079 8.671-9.469 13.805-9.469 13.805l-6.209-5.456z" fill="#F0C13E"/><path d="M29.167 14.167c.504-.805.978-1.669 1.407-2.593l-2.144-2.144c-.776.584-1.566 1.132-2.357 1.643l3.094 3.094z" fill="#845331"/><path fill="#FFD04D" d="M11.5 17h4.5v5h-4.5z"/><path fill="#F7C845" d="M16 17h4.5v5h-4.5z"/><path fill="#96643B" d="M11.5 14v3l4.5 1v-4z"/><path fill="#8D5B36" d="M16 14v4l4.5-1v-3z"/><path d="M10.5 11s-2.629 0-3.785 2.461c-.13.278-.002.609.288.706l2.497.833h6.5v-4h-5.5z" fill="#9E6E43"/><path d="M21.5 11s2.629 0 3.785 2.461c.13.278.002.609-.288.706l-2.497.833h-6.5v-4h5.5z" fill="#96643B"/><path fill="#FFD04D" d="M9.5 15l-1 4 3-2v-2z"/><path fill="#F7C845" d="M22.463 15l1 4-3-2v-2z"/><path d="M11.5 20s-3 0-4 4l2 4s1-4 3-4l-1-4z" fill="#FFD04D"/><path d="M20.5 20s3 0 4 4l-2 4s-1-4-3-4l1-4z" fill="#F7C845"/><path d="M13.5 2l-3.276-1.638c-.333-.166-.724.075-.724.447v4.191l-.694 2.774c-.204.814-.167 1.67.106 2.463l.014.042c.381 1.11 1.183 2.025 2.233 2.55l1.959.979c.302.151.539.408.664.722.355.888 1.215 1.47 2.17 1.47h.048v-14h-2.5z" fill="#FFD96C"/><path d="M23.194 7.774l-.694-2.774v-4.191c0-.372-.391-.613-.724-.447l-3.276 1.638h-2.5v14h.23c.845 0 1.605-.515 1.919-1.299.169-.423.488-.769.896-.973l1.795-.897c1.05-.525 1.851-1.44 2.233-2.55l.014-.042c.273-.795.31-1.651.107-2.465z" fill="#FFD04D"/><path d="M9.705.41c-.121.089-.205.229-.205.399v4.191l2-1-1.795-3.59z" fill="#E8BA67"/><path d="M22.5 5v-4.191c0-.17-.084-.31-.205-.399l-1.795 3.59 2 1z" fill="#DDAA5F"/><path d="M2.563 22.937c.517-.517 1.356-.517 1.874 0l1.063 1.063-.741-2.223c-.159-.476-.035-1.001.32-1.356.673-.673 1.814-.438 2.167.445l2.538 6.346c.472 1.181.715 2.442.715 3.714v.074c0 .552-.448 1-1 1s-1-.448-1-1v-.54c0-.292-.128-.569-.349-.759l-5.564-4.769c-.586-.503-.62-1.398-.074-1.944l.051-.051z" fill="#FFD96C"/><path d="M29.437 22.937c-.517-.517-1.356-.517-1.874 0l-1.063 1.063.741-2.223c.159-.476.035-1.001-.32-1.356-.673-.673-1.814-.438-2.167.445l-2.538 6.346c-.472 1.181-.715 2.442-.715 3.714v.074c0 .552.448 1 1 1s1-.448 1-1v-.54c0-.292.128-.569.349-.759l5.564-4.769c.586-.502.62-1.397.075-1.943l-.052-.052z" fill="#FFD04D"/><path d="M14.75 12.003c-.091 0-.18-.051-.224-.139-.673-1.347-2.26-1.361-2.276-1.361-.138 0-.25-.111-.25-.25 0-.138.112-.25.25-.25.083 0 1.915.02 2.724 1.639.062.123.012.273-.112.335l-.112.026z" fill="#373F3F"/><path d="M17.25 12.003l-.112-.026c-.124-.062-.173-.212-.112-.335.809-1.619 2.641-1.639 2.724-1.639.138 0 .25.111.25.25 0 .138-.111.249-.249.25-.065 0-1.607.021-2.277 1.361-.044.088-.133.139-.224.139z" fill="#2B3332"/><path d="M16 20.791c-.162-.242-.347-.468-.579-.654l-3.921-3.137-3 2c0 .552.448 1 1 1s1 .448 1 1v.394c0 .395.117.781.336 1.109l1.174 1.762c.28.42.828.565 1.279.34l2.658-1.329.053-.036v-2.449z" fill="#FFD96C"/><path d="M20.5 17l-3.921 3.137c-.232.186-.417.413-.579.654v2.449l.053.036 2.658 1.329c.451.226 1 .08 1.279-.34l1.174-1.762c.219-.329.336-.715.336-1.109v-.394c0-.552.448-1 1-1s1-.448 1-1l-3-2z" fill="#FFD04D"/></svg>