<svg xmlns="http://www.w3.org/2000/svg" width="32" height="32" viewBox="0 0 32 32"><path fill="#3A4274" d="M21 17l-5 .002v4h1l5-2.002z"/><path d="M17 21.002l1.703 2.555c.185.278.498.445.832.445h.465v2.055c0 .621.145 1.234.423 1.79l.577 1.153-.894 1.789c-.07.139-.106.292-.106.447v.264c0 .276.224.5.5.5h6c.276 0 .5-.224.5-.5v.035c0-.334-.167-.647-.445-.832l-2.555-1.703.723-3.615c.173-.866-.098-1.76-.722-2.385h-.001v-.394c0-.395-.117-.781-.336-1.109l-1.664-2.497-5 2.002zM22 12v1.586c0 .265-.105.52-.293.707l-.707.707h-5v-3h6z" fill="#707EB7"/><path fill="#2B3332" d="M16 15.001h5v2h-5z"/><path d="M16 14c1.105 0 2 .895 2 2s-.895 2-2 2v-4z" fill="#FFCF6E"/><path fill="#424B7E" d="M11 17l5 .002v4h-1l-5-2.002z"/><path d="M15 21.002l-1.703 2.555c-.185.278-.498.445-.832.445h-.465v2.055c0 .621-.145 1.234-.423 1.79l-.577 1.153.894 1.789c.07.139.106.292.106.447v.264c0 .276-.224.5-.5.5h-6c-.276 0-.5-.224-.5-.5v.035c0-.334.167-.647.445-.832l2.555-1.703-.723-3.615c-.173-.866.098-1.76.722-2.385h.001v-.394c0-.395.117-.781.336-1.109l1.664-2.497 5 2.002zM10 12v1.586c0 .265.105.52.293.707l.707.707h5v-3h-6z" fill="#7C8AC4"/><path fill="#373F3F" d="M11 15.001h5v2h-5z"/><path d="M16 14c-1.105 0-2 .895-2 2s.895 2 2 2v-4z" fill="#FFD98D"/><path d="M10.414 5c-.265 0-.52.105-.707.293l-.707.707-.914-.305c-.359-.12-.755-.026-1.023.242l-1.735 1.735c-.268.268-.362.664-.242 1.023-.359-.12-.755-.026-1.023.242l-1.477 1.477c-.375.375-.586.884-.586 1.414v1.869c0 .792.467 1.509 1.192 1.829l3.334 1.474.025.937c.018.665.364 1.277.925 1.634l.88.561c.441.281 1.024.175 1.337-.243l1.924-2.565c.299-.398.259-.955-.093-1.307l-.801-.801c-.375-.375-.884-.586-1.414-.586h-1.172l-1.137-2.63h3v.586c0 .265.105.52.293.707l.414.414c.188.188.442.293.707.293h3.172c.265 0 .52-.105.707-.293l.414-.414c.188-.188.293-.442.293-.707v-7.586h-5.586z" fill="#8694D1"/><path d="M21.586 5c.265 0 .52.105.707.293l.707.707.914-.305c.359-.12.755-.026 1.023.242l1.735 1.735c.268.268.361.664.242 1.023.359-.12.755-.026 1.023.242l1.477 1.477c.375.375.586.884.586 1.414v1.869c0 .792-.467 1.509-1.192 1.829l-3.334 1.474-.025.937c-.018.665-.364 1.277-.925 1.634l-.88.561c-.441.281-1.024.175-1.337-.243l-1.924-2.565c-.299-.398-.259-.955.093-1.307l.801-.801c.375-.375.884-.586 1.414-.586h1.172l1.137-2.63h-3v.586c0 .265-.105.52-.293.707l-.414.414c-.188.188-.442.293-.707.293h-3.172c-.265 0-.52-.105-.707-.293l-.414-.414c-.188-.188-.293-.442-.293-.707v-7.586h5.586z" fill="#7C8AC4"/><path d="M16 1.251c.378-.002.757.051 1.114.194l1.644.658c1.309.524 2.077 1.888 1.845 3.279l-.352 2.111c-.158.947-.759 1.761-1.618 2.19l-1.292.646c-.422.211-.881.293-1.341.291v-9.369z" fill="#9AA6D6"/><path d="M16 1.251c-.378-.002-.757.051-1.114.194l-1.644.658c-1.309.524-2.077 1.888-1.845 3.279l.352 2.111c.158.947.759 1.761 1.618 2.19l1.292.646c.422.211.881.293 1.341.291v-9.369z" fill="#ABB4DD"/><path d="M14.41 3.277l-.352-2.813c-.033-.265-.259-.464-.526-.464h-.002c-.293 0-.53.237-.53.53v.934c0 .663.263 1.299.732 1.768l.253.253c.168.168.454.028.425-.208z" fill="#F7F7F7"/><path d="M17.59 3.277l.352-2.813c.033-.265.259-.464.526-.464h.002c.293 0 .53.237.53.53v.934c0 .663-.263 1.299-.732 1.768l-.253.253c-.168.168-.454.028-.425-.208z" fill="#EDEEEE"/><g fill="#373F3F"><path d="M14.978 6.717c-.187-.36-.601-.969-1.356-1.254-.06-.023-.129-.014-.18.024-.102.075-.265.243-.379.599-.118.366-.045.647.019.796.03.072.101.118.18.118h1.541c.145 0 .242-.154.175-.283zM14.978 6.717c-.174-.334-.545-.878-1.199-1.183-.1.09-.228.252-.325.552-.118.366-.045.647.019.796.031.072.102.118.181.118h1.149c.145 0 .242-.154.175-.283zM14.527 6.881c.061-.144.128-.414.026-.763-.14-.154-.304-.307-.509-.437-.069.095-.139.222-.197.404-.118.366-.045.647.019.796.03.073.101.119.18.119h.3c.079 0 .15-.046.181-.119z"/></g><path d="M14.978 6.717c-.187-.36-.601-.969-1.356-1.254-.06-.023-.129-.014-.18.024-.102.075-.265.243-.379.599-.118.366-.045.647.019.796.03.072.101.118.18.118h1.541c.145 0 .242-.154.175-.283z" fill="#EDEEEE"/><path d="M14.978 6.717c-.174-.334-.545-.878-1.199-1.183-.1.09-.228.252-.325.552-.118.366-.045.647.019.796.031.072.102.118.181.118h1.149c.145 0 .242-.154.175-.283z" fill="#E85160"/><path d="M14.527 6.881c.061-.144.128-.414.026-.763-.14-.154-.304-.307-.509-.437-.069.095-.139.222-.197.404-.118.366-.045.647.019.796.03.073.101.119.18.119h.3c.079 0 .15-.046.181-.119z" fill="#373F3F"/><g fill="#2B3332"><path d="M17.022 6.717c.187-.36.601-.969 1.356-1.254.06-.023.129-.014.18.024.102.075.265.243.379.599.118.366.045.647-.019.796-.03.072-.101.118-.18.118h-1.541c-.145 0-.242-.154-.175-.283zM18.527 6.881c.063-.149.136-.43.019-.796-.096-.3-.225-.462-.325-.552-.654.305-1.025.85-1.199 1.183-.067.13.03.284.175.284h1.149c.079 0 .15-.046.181-.119zM18.135 6.881c.063-.149.136-.43.019-.796-.059-.182-.129-.309-.197-.404-.205.13-.368.283-.509.437-.102.349-.036.619.026.763.03.073.101.119.18.119h.3c.079 0 .15-.046.181-.119z"/></g><path d="M17.022 6.717c.187-.36.601-.969 1.356-1.254.06-.023.129-.014.18.024.102.075.265.243.379.599.118.366.045.647-.019.796-.03.072-.101.118-.18.118h-1.541c-.145 0-.242-.154-.175-.283z" fill="#F7F7F7"/><path d="M18.527 6.881c.063-.149.136-.43.019-.796-.096-.3-.225-.462-.325-.552-.654.305-1.025.85-1.199 1.183-.067.13.03.284.175.284h1.149c.079 0 .15-.046.181-.119z" fill="#D84459"/><path d="M18.135 6.881c.063-.149.136-.43.019-.796-.059-.182-.129-.309-.197-.404-.205.13-.368.283-.509.437-.102.349-.036.619.026.763.03.073.101.119.18.119h.3c.079 0 .15-.046.181-.119z" fill="#2B3332"/><path d="M11.957 8.191c.277.64.771 1.173 1.409 1.492l1.292.646c.423.211.882.293 1.342.291v-1.897c-.92 0-1.839-.091-2.746-.272l-1.297-.26z" fill="#9AA6D6"/><path d="M18.746 8.451c-.907.181-1.826.272-2.746.272v1.897c.46.002.919-.08 1.342-.291l1.292-.646c.638-.319 1.132-.851 1.409-1.492l-1.297.26z" fill="#8694D1"/><path d="M13.254 8.451l-.008-.002s1.621 1.051 2.754 1.051v-.777c-.92 0-1.839-.091-2.746-.272z" fill="#F6B392"/><path d="M18.754 8.449l-.008.002c-.907.181-1.826.272-2.746.272v.777c1.133 0 2.754-1.051 2.754-1.051z" fill="#F4A984"/><path d="M24.5 15.8l-.166-.05c-.139-.093-.176-.278-.084-.416l2-3c.095-.139.28-.175.416-.084.139.093.176.278.084.416l-2 3c-.059.087-.153.134-.25.134zM25 16.3c-.097 0-.191-.047-.25-.134-.092-.138-.055-.323.084-.416l3-2c.137-.092.323-.055.416.084.092.138.055.323-.084.416l-3 2-.166.05z" fill="#C84054"/><path d="M7.5 15.75c-.08 0-.16-.039-.208-.111l-2-3c-.076-.115-.046-.271.069-.347.114-.076.27-.046.347.069l2 3c.076.115.046.271-.069.347l-.139.042zM7 16.25l-.139-.042-3-2c-.115-.076-.146-.231-.069-.347s.231-.145.347-.069l3 2c.115.076.146.231.069.347-.048.072-.128.111-.208.111z" fill="#D84459"/><path d="M16 .006l-.098-.001c-.52.049-.902.516-.902 1.038v.367c0 .388.09.771.264 1.118l.512 1.025c.046.092.135.138.224.138v-3.685z" fill="#F7F7F7"/><path d="M16 .006v3.685c.089 0 .178-.046.224-.138l.512-1.025c.174-.347.264-.73.264-1.118v-.41c0-.552-.448-.993-1-.994z" fill="#EDEEEE"/></svg>