<svg xmlns="http://www.w3.org/2000/svg" width="32" height="32" viewBox="0 0 32 32"><path d="M17 22.002l1.703 2.555c.185.278.498.445.832.445h.465v1.055c0 .621.145 1.234.423 1.79l.577 1.153-.894 1.789c-.07.139-.106.292-.106.447v.264c0 .276.224.5.5.5h6c.276 0 .5-.224.5-.5v.035c0-.334-.167-.647-.445-.832l-2.555-1.703.725-2.901c.17-.682-.029-1.403-.526-1.899l-.199-.2.001-.584c0-.266-.105-.52-.293-.708l-3.708-3.708-3 3.002z" fill="#529CCF"/><path d="M15 22.002l-1.703 2.555c-.185.278-.498.445-.832.445h-.465v1.055c0 .621-.145 1.234-.423 1.79l-.577 1.153.894 1.789c.07.139.106.292.106.447v.264c0 .276-.224.5-.5.5h-6c-.276 0-.5-.224-.5-.5v.035c0-.334.167-.647.445-.832l2.555-1.703-.725-2.901c-.17-.682.029-1.403.526-1.899l.199-.2-.001-.584c0-.266.105-.52.293-.708l3.708-3.708 3 3.002zM22 13l-2 5h-4v-10l6 1z" fill="#5CA3D5"/><path d="M20.123 16h-4.123v-8l6 1v4l-.949 2.371c-.151.38-.519.629-.928.629zM18 5h3.172c.53 0 1.039.211 1.414.586l.414.414h1.708l1.292-3-.5-.5c-.276-.276-.276-.724 0-1s.724-.276 1 0l.5.5 1.293-1.293c.391-.391 1.024-.391 1.414 0l1.586 1.586c.391.391.391 1.024 0 1.414l-.707.707c-.375.375-.884.586-1.414.586h-1.172l-2.126 3.543c-.542.904-1.519 1.457-2.573 1.457h-5.301v-5zM10 13l2 5h4v-10l-6 1z" fill="#65A9DC"/><path d="M11.877 16h4.123v-8l-6 1v4l.949 2.371c.151.38.519.629.928.629zM14 5h-3.172c-.53 0-1.039.211-1.414.586l-.414.414h-1.708l-1.292-3 .5-.5c.276-.276.276-.724 0-1s-.724-.276-1 0l-.5.5-1.293-1.293c-.391-.391-1.024-.391-1.414 0l-1.586 1.586c-.391.391-.391 1.024 0 1.414l.707.707c.375.375.884.586 1.414.586h1.172l2.126 3.543c.542.904 1.519 1.457 2.573 1.457h5.301v-5z" fill="#71B1E1"/><path d="M16 3.183c-.361 0-.722.058-1.069.173h-.001c-1.188.396-2.059 1.416-2.265 2.651l-.665 3.993h4v-6.817z" fill="#8EC0E0"/><path d="M20 10l-.665-3.993c-.206-1.235-1.077-2.255-2.265-2.651h-.001c-.347-.115-.708-.173-1.069-.173v6.817h4z" fill="#7FB8E0"/><path fill="#3A4274" d="M20 18l-4 .002v4h1l3-3.002z"/><path d="M16 17c.828 0 1.5.672 1.5 1.5s-.672 1.5-1.5 1.5v-3z" fill="#FFCF6E"/><path fill="#424B7E" d="M12 18l4 .002v4h-1l-3-3.002z"/><path d="M16 17c-.828 0-1.5.672-1.5 1.5s.672 1.5 1.5 1.5v-3z" fill="#FFD98D"/><path d="M10.149 13.371c.151.38.519.629.928.629h4.923v-6l-4.452.742c-1.03.172-2.046.424-3.037.754l-1.063.355c-.295.098-.562.264-.782.483l-.274.274c-.256.256-.438.577-.526.929l-.806 3.224c-.04.159-.06.322-.06.485 0 1.104.52 2.144 1.403 2.806l1.662 1.246c.607.456 1.345.702 2.104.702h1.831c.552 0 1-.448 1-1v-1c0-.552-.448-1-1-1h-.586c-.265 0-.52.105-.707.293l-.207.207-1.5-2.5 1-2 .149.371z" fill="#7FB8E0"/><path d="M17.75 6c-.739 0-.75 1.172-.75 2h1.5c0-.828 0-2-.75-2z" fill="#F7F7F7"/><path d="M17.75 6c-.5 0-.5 1.172-.5 2h1c0-.828 0-2-.5-2z" fill="#D84459"/><ellipse cx="17.75" cy="6.841" rx=".25" ry=".5" fill="#2B3332"/><path d="M14.25 6c-.739 0-.75 1.172-.75 2h1.5c0-.828 0-2-.75-2z" fill="#fff"/><path d="M14.25 6c-.5 0-.5 1.172-.5 2h1c0-.828 0-2-.5-2z" fill="#E85160"/><ellipse cx="14.25" cy="6.841" rx=".25" ry=".5" fill="#373F3F"/><path d="M26.94 14.761l-.806-3.224c-.088-.352-.27-.673-.526-.929l-.274-.274c-.22-.22-.487-.385-.782-.483l-2.552-.851-6-1v6h4.923c.409 0 .777-.249.928-.629l.149-.371 1 2-1.5 2.5-.207-.207c-.188-.188-.442-.293-.707-.293h-.586c-.552 0-1 .448-1 1v1c0 .552.448 1 1 1h1.831c.759 0 1.497-.246 2.105-.702l1.662-1.246c.882-.662 1.402-1.702 1.402-2.806 0-.163-.02-.326-.06-.485z" fill="#71B1E1"/><path d="M16 8.213h-3.493c-.28 0-.507.227-.507.507v.18c0 .192.108.367.28.453l.136.068c1.041.521 2.19.792 3.354.792h.23v-2z" fill="#FFCF6E"/><path d="M19.493 8.213h-3.493v2h.229c1.164 0 2.313-.271 3.354-.792l.136-.068c.173-.086.281-.261.281-.453v-.18c0-.28-.227-.507-.507-.507z" fill="#FFC550"/><path d="M16 7.905c-.815 0-1.629-.1-2.425-.299l-.945-.236c-.32-.08-.63.162-.63.492 0 .211.131.4.329.474l1.565.587c.678.255 1.392.382 2.106.382v-1.4z" fill="#FFD98D"/><path d="M18.107 8.923l1.565-.587c.197-.074.328-.263.328-.474 0-.33-.31-.571-.63-.492l-.945.236c-.796.2-1.61.299-2.425.299v1.4c.714 0 1.428-.127 2.107-.382z" fill="#FFCF6E"/><path d="M16 2.003c-.276 0-.5.221-.5.497v3.25l-1.372-3.43c-.065-.163-.208-.29-.382-.315-.369-.053-.646.295-.534.632l.228.683c.368 1.104.988 2.108 1.812 2.931l.395.394c.097.099.225.148.353.148v-4.79z" fill="#F7F7F7"/><path d="M18.253 2.005c-.173.025-.316.152-.381.315l-1.372 3.43v-3.223c0-.249-.17-.48-.416-.52l-.084-.004v4.79c.128 0 .256-.049.354-.146l.395-.394c.823-.823 1.444-1.827 1.812-2.931l.228-.683c.111-.338-.167-.687-.536-.634z" fill="#EDEEEE"/></svg>