<svg xmlns="http://www.w3.org/2000/svg" width="32" height="32" viewBox="0 0 32 32"><path d="M18.071 29.071c-1.81 1.81-4.31 2.929-7.071 2.929h-1.348c-1.087 0-2.159-.253-3.13-.739l-.051-.025c-.297-.148-.646-.148-.942 0l-1.082.541c-.294.146-.618.223-.947.223-.276 0-.5-.224-.5-.5s.224-.5.5-.5h.001c.32 0 .626-.127.852-.353l.901-.901c.446-.446 1.126-.556 1.689-.274.69.345 1.464.483 2.231.398l.709-.079c2.348-.261 4.364-1.52 5.645-3.327l2.543 2.607z" fill="#845331"/><path d="M13 16v6c0 5.523 4.477 10 10 10h1.348c1.087 0 2.159-.253 3.13-.739l.051-.025c.297-.148.646-.148.942 0l1.082.541c.294.146.618.223.947.223.276 0 .5-.224.5-.5s-.224-.5-.5-.5h-.001c-.32 0-.626-.127-.852-.353l-.901-.901c-.446-.446-1.126-.556-1.689-.274-.69.345-1.464.483-2.231.398l-.709-.079c-4.052-.45-7.117-3.875-7.117-7.951v-5.84h-4z" fill="#8D5B36"/><path d="M28.771 17.675c-.664 1.801-2.806 6.625-6.876 7.256-2.307.358-4.592-1.125-4.866-3.444-.287-2.426 1.601-4.487 3.971-4.487h7.302c.35 0 .59.348.469.675z" fill="#54B668"/><path d="M15 13v-12.997c-.239 0-.481.011-.726.04-2.621.307-4.793 2.388-5.199 4.995-.322 2.073.42 3.983 1.762 5.275.733.707 1.163 1.668 1.163 2.686v.001h3z" fill="#FFE28A"/><path d="M15 .003v12.997h3v-.001c0-.987.379-1.95 1.1-2.625 1.168-1.093 1.9-2.647 1.9-4.374 0-3.314-2.687-5.997-6-5.997z" fill="#FFD96C"/><circle cx="13" cy="7" r="1" fill="#373F3F"/><circle cx="17" cy="7" r="1" fill="#2B3332"/><path d="M15 13c-1.657 0-3 .895-3 2s1.343 2 3 2v-4z" fill="#373F3F"/><path d="M18 15c0-1.105-1.343-2-3-2v4c1.657 0 3-.895 3-2z" fill="#2B3332"/><path d="M15 16c-1.221 0-2-.592-2-1s.779-1 2-1v-2c-2.243 0-4 1.317-4 3s1.757 3 4 3v-2z" fill="#F8A1C4"/><path d="M28.675 30.265l.972.382-.901-.901c-.446-.446-1.126-.556-1.689-.274-.69.345-1.464.483-2.231.398l-.709-.079c-4.052-.45-7.117-3.875-7.117-7.951v-5.84h-2v6c0 4.971 4.029 9 9 9 .662 0 1.32-.107 1.948-.316l1.363-.454c.445-.149.928-.136 1.364.035z" fill="#845331"/><path d="M17 15c0 .408-.779 1-2 1v2c2.243 0 4-1.317 4-3s-1.757-3-4-3v2c1.221 0 2 .592 2 1z" fill="#F297BE"/><path d="M17 21c0 .179.03.351.053.524.24.008 6.955.185 11.674-4.274-.086-.145-.236-.25-.425-.25h-7.302c-2.209 0-4 1.791-4 4z" fill="#60C46F"/><path d="M1.229 25.325c.664-1.801 2.806-6.625 6.876-7.256 2.307-.358 4.592 1.125 4.866 3.444.287 2.426-1.601 4.487-3.971 4.487h-7.302c-.35 0-.59-.348-.469-.675z" fill="#6CD275"/><path d="M13 22c0-.179-.03-.351-.053-.524-.24-.008-6.955-.185-11.674 4.274.086.145.236.25.425.25h7.302c2.209 0 4-1.791 4-4z" fill="#60C46F"/><path d="M20.805 4.506c-.665-2.589-3.008-4.503-5.805-4.503v1.997c2.288 0 4.347.966 5.805 2.506z" fill="#FFE28A"/><path d="M15 2v-1.997c-.239 0-.481.011-.726.04-2.432.285-4.459 2.105-5.065 4.448 1.457-1.532 3.51-2.491 5.791-2.491z" fill="#FFEAA7"/></svg>