<svg xmlns="http://www.w3.org/2000/svg" width="32" height="32" viewBox="0 0 32 32"><path d="M26 20c0-5.523-4.477-10-10-10v20c5.523 0 10-4.477 10-10z" fill="#FFEAA7"/><path d="M16 10c-5.523 0-10 4.477-10 10s4.477 10 10 10v-20z" fill="#FEF1C6"/><path d="M8.518 15h7.482v-4c-3.12 0-5.868 1.589-7.482 4z" fill="#FFD96C"/><path d="M23.482 15c-1.615-2.411-4.362-4-7.482-4v4h7.482z" fill="#FFD04D"/><path d="M16 15v5h9c0-1.851-.56-3.57-1.518-5h-7.482z" fill="#F7C845"/><path d="M16 25h7.482c.958-1.43 1.518-3.149 1.518-5h-9v5z" fill="#F0C13E"/><path d="M16 25v4c3.12 0 5.868-1.589 7.482-4h-7.482z" fill="#E8BA36"/><path d="M16 15h-7.482c-.958 1.43-1.518 3.149-1.518 5h9v-5z" fill="#FFD04D"/><path d="M16 25v-5h-9c0 1.851.56 3.57 1.518 5h7.482z" fill="#F7C845"/><path d="M8.518 25c1.615 2.411 4.362 4 7.482 4v-4h-7.482z" fill="#F0C13E"/><path d="M29.696 14.93c-.571-.99-1.79-1.399-2.843-.955l-3.188 1.345c.836 1.367 1.335 2.961 1.335 4.68 0 .351-.039.693-.078 1.033l4.18-3.164c.911-.689 1.166-1.949.594-2.939zM25 9.143c0-5.05-3.951-9.143-9-9.143v16c5.049 0 9-1.808 9-6.857z" fill="#51BAC5"/><path d="M16 0c-5.049 0-9 4.093-9 9.143 0 5.049 3.951 6.857 9 6.857v-16z" fill="#56C7CD"/><path d="M10.049 10.841c-.37-.062-.682-.32-.789-.68-.128-.435-.26-1.133-.26-2.161 0-2 .966-3 1.983-3s2.017 1 2.017 3c0 .967-.117 1.758-.238 2.318-.114.527-.613.873-1.145.785l-1.568-.262z" fill="#fff"/><path d="M13 8c0-1.666-.696-2.627-1.515-2.906h-.001c-.811.278-1.484 1.24-1.484 2.906 0 1.385.238 2.398.385 2.897l1.057.176.175.029c.532.089 1.031-.258 1.145-.785.121-.559.238-1.35.238-2.317z" fill="#C27BC6"/><path d="M13 8c0-1.666-.696-2.628-1.516-2.906-.811.278-1.484 1.24-1.484 2.906 0 .42.022.801.057 1.145.045.445.39.797.831.871l.881.147c.564.094 1.095-.298 1.16-.866.042-.385.071-.819.071-1.297z" fill="#373F3F"/><circle cx="11.488" cy="6.5" r=".5" fill="#fff"/><path d="M21.951 10.841c.37-.062.682-.32.789-.68.128-.435.26-1.133.26-2.161 0-2-.966-3-1.983-3s-2.017 1-2.017 3c0 .967.117 1.758.238 2.318.114.527.613.873 1.145.785l1.568-.262z" fill="#F7F7F7"/><path d="M19 8c0-1.666.696-2.627 1.515-2.906h.001c.811.278 1.484 1.24 1.484 2.906 0 1.385-.238 2.398-.385 2.897l-1.057.176-.175.029c-.532.089-1.031-.258-1.145-.785-.121-.559-.238-1.35-.238-2.317z" fill="#B370B9"/><path d="M19 8c0-1.666.696-2.628 1.516-2.906.811.278 1.484 1.24 1.484 2.906 0 .42-.022.801-.057 1.145-.045.445-.39.797-.831.871l-.881.147c-.564.094-1.095-.298-1.16-.866-.042-.385-.071-.819-.071-1.297z" fill="#2B3332"/><circle cx="20.512" cy="6.5" r=".5" fill="#F7F7F7"/><path d="M7.28 11.237c-.083-.294-.146-.606-.193-.93.045.327.11.636.193.93zM7.072 10.215c-.046-.34-.072-.695-.072-1.072 0 .377.029.73.072 1.072z" fill="#56C7CD"/><path d="M7.28 11.238c.971 3.458 4.447 4.762 8.72 4.762v-2.571c-.679-.047-1.347-.832-2.001-.929-2.524-.375-4.827-.392-6.719-1.262zM24.923 10.246c.046-.351.077-.714.077-1.103 0 .389-.029.754-.077 1.103z" fill="#51BAC5"/><path d="M24.696 11.323c-1.896.846-4.188.846-6.696 1.195-.633.088-1.28.919-1.938.919l-.062-.009v2.572c4.614 0 8.301-1.518 8.904-5.632-.052.334-.119.654-.208.955z" fill="#4CAEBC"/><path d="M7 20c0-1.719.499-3.313 1.335-4.679l-3.188-1.345c-1.053-.444-2.271-.035-2.843.955s-.316 2.25.595 2.939l4.18 3.164c-.04-.341-.079-.683-.079-1.034z" fill="#56C7CD"/><path d="M26.5 30h-.5s-.002-2.971-1.972-5.956c-.166.329-.342.652-.545.956-.956 1.427-2.315 2.555-3.907 3.247.201.694.386 1.731.419 3.254.006.273.224.5.498.5h7.007c.276 0 .5-.224.5-.5 0-.829-.672-1.501-1.5-1.501z" fill="#51BAC5"/><path d="M8.518 25c-.204-.304-.379-.627-.545-.956-1.971 2.985-1.973 5.956-1.973 5.956h-.5c-.828 0-1.5.672-1.5 1.5 0 .276.224.5.5.5h7.008c.273 0 .492-.227.498-.5.033-1.522.218-2.56.419-3.253-1.592-.692-2.952-1.82-3.907-3.247z" fill="#56C7CD"/></svg>