<svg xmlns="http://www.w3.org/2000/svg" width="32" height="32" viewBox="0 0 32 32"><path d="M.229 17.675c.664 1.801 2.806 6.625 6.876 7.256 2.307.358 4.592-1.125 4.866-3.444.287-2.426-1.601-4.487-3.971-4.487h-7.302c-.35 0-.59.348-.469.675z" fill="#60C46F"/><path d="M31.771 17.675c-.664 1.801-2.806 6.625-6.876 7.256-2.307.358-4.592-1.125-4.866-3.444-.287-2.426 1.601-4.487 3.971-4.487h7.302c.35 0 .59.348.469.675z" fill="#54B668"/><path d="M13.991 29.828c-2.551 1.328-6.65-1.439-6.65-1.439l-.953 1s6.018 5.627 11.612.367l-4.009.072z" fill="#96643B"/><path d="M16 29.998s-4.542 2.794-9-.998l.341-.612s4.099 2.767 6.65 1.439l2.009.171z" fill="#9E6E43"/><path d="M.274 17.249c4.719 4.46 11.434 4.282 11.674 4.274.022-.172.052-.344.052-.523 0-2.209-1.791-4-4-4h-7.302c-.189 0-.339.105-.424.249z" fill="#6CD275"/><path d="M20.003 20.972l-.002.039c.001.175.029.343.052.513.24.008 6.955.185 11.674-4.274-.086-.145-.236-.25-.425-.25h-7.302c-2.2 0-3.982 1.776-3.997 3.972z" fill="#60C46F"/><path d="M9.32 12h-.32l.345 1.609c.48 2.239.099 4.528-.803 6.632-.33.768-.519 1.632-.54 2.585-.075 3.479 2.558 6.419 5.989 7.001.682.116 1.355.17 2.009.17v-13.997c-2.862 0-5.742-1.255-6.68-4z" fill="#FFD96C"/><path d="M23.371 20.047c-.942-2.005-1.181-4.266-.717-6.432l.346-1.615h-.32c-.938 2.745-3.817 4-6.68 4v13.998c4.418 0 8-2.58 8-6.998 0-1.103-.224-2.091-.629-2.953z" fill="#FFD04D"/><path d="M10.382 15.186c-.238.382-.382.83-.382 1.314 0 1.381 1.119 2.5 2.5 2.5 1.229 0 2.245-.888 2.455-2.056-1.772-.17-3.363-.771-4.573-1.758zM10.382 15.186c-.238.382-.382.83-.382 1.314 0 1.381 1.119 2.5 2.5 2.5 1.229 0 2.245-.888 2.455-2.056-1.772-.17-3.363-.771-4.573-1.758z" fill="#fff"/><path d="M11.648 16.008c-.086.147-.148.309-.148.492 0 .552.448 1 1 1 .486 0 .871-.353.962-.812-.645-.164-1.254-.391-1.814-.68z" fill="#373F3F"/><path d="M21.618 15.186c.238.382.382.83.382 1.314 0 1.381-1.119 2.5-2.5 2.5-1.229 0-2.245-.888-2.455-2.056 1.772-.17 3.363-.771 4.573-1.758zM21.618 15.186c.238.382.382.83.382 1.314 0 1.381-1.119 2.5-2.5 2.5-1.229 0-2.245-.888-2.455-2.056 1.772-.17 3.363-.771 4.573-1.758z" fill="#F7F7F7"/><path d="M20.352 16.008c.086.147.148.309.148.492 0 .552-.448 1-1 1-.486 0-.871-.353-.962-.812.645-.164 1.254-.391 1.814-.68z" fill="#2B3332"/><path d="M16 4c-3.484 0-7 1.855-7 6s3.516 6 7 6v-12z" fill="#373F3F"/><path d="M23 10c0-4.145-3.516-6-7-6v12c3.484 0 7-1.855 7-6z" fill="#2B3332"/><path d="M16 15c-2.768 0-6-1.31-6-5 0-3.691 3.232-5 6-5v-2c-4.418 0-8 2.582-8 7s3.582 7 8 7v-2z" fill="#F297BE"/><path d="M22 10c0 3.69-3.232 5-6 5v2c4.418 0 8-2.582 8-7s-3.582-7-8-7v2c2.768 0 6 1.309 6 5z" fill="#EA8BB4"/><path d="M16 2v-2c-.552 0-1 .448-1 1v1h1z" fill="#9E6E43"/><path d="M16 2v-2c.552 0 1 .448 1 1v1h-1z" fill="#96643B"/><path d="M14 14.761v-2.294c0-.2-.223-.319-.389-.208l-2.016 1.344c.681.567 1.522.941 2.405 1.158z" fill="#fff"/><path d="M18 14.761v-2.294c0-.2.223-.319.389-.208l2.016 1.344c-.681.567-1.522.941-2.405 1.158z" fill="#F7F7F7"/><path d="M3.714 25.128c-.349-.072-.658.237-.586.586.349 1.705 1.459 5.699 3.872 3.286s-1.581-3.523-3.286-3.872z" fill="#FFD04D"/><path d="M3.712 25.128c-.174-.035-.338.024-.449.135l3.737 3.737c.25-.25.447-.533.61-.824.863-1.849-2.402-2.743-3.898-3.048z" fill="#FFD96C"/><path d="M16 2s-1-1-4-1c-2.116 0-3.268.995-3.763 1.581-.19.224-.157.554.076.732.812.619 2.805 1.845 4.687.687-1.029 2.599 1.508 3.791 2.611 5.283.096.13.242.194.389.194v-7.477z" fill="#6CD275"/><path d="M16.389 9.283c1.103-1.492 3.64-2.684 2.611-5.283 1.882 1.158 3.875-.068 4.687-.687.233-.178.266-.507.077-.732-.496-.586-1.648-1.581-3.764-1.581-3 0-4 1-4 1v7.477c.147 0 .294-.065.389-.194z" fill="#60C46F"/></svg>