<svg xmlns="http://www.w3.org/2000/svg" width="32" height="32" viewBox="0 0 32 32"><path d="M16.257 12.704s7.062 1.768 11.392 4.268 3.696 5.598 2.33 5.964c-1.366.366-1.598-3.232-3.33-4.232s-10.892-5.134-10.892-5.134l.5-.866z" fill="#C8CCCB"/><path d="M17.603 12.595s6.032 4.077 9.246 7.907 1.559 6.525.15 6.401-.396-3.584-1.682-5.116c-.803-.958-3.915-4.058-6.136-6.249-1.332-1.314-2.344-2.301-2.344-2.301l.766-.642z" fill="#D1D4D4"/><path d="M19.043 13.133s4.274 5.894 5.984 10.592-.767 6.664-2.049 6.067c-1.282-.598.853-3.503.169-5.383-.464-1.274-2.616-5.843-3.954-8.656l-.15-2.62z" fill="#DADDDC"/><path d="M20 14.652s2 7 2 12-3 6-4 5 2-3 2-5l-1-12h1z" fill="#E3E5E5"/><path d="M15.743 12.704s-7.062 1.768-11.392 4.268-3.696 5.598-2.33 5.964 1.598-3.232 3.33-4.232l10.892-5.134-.5-.866z" fill="#D1D4D4"/><path d="M14.397 12.595s-6.032 4.077-9.246 7.907-1.559 6.525-.15 6.401.396-3.584 1.682-5.116l8.479-8.55-.765-.642z" fill="#DADDDC"/><path d="M12.957 13.133s-4.274 5.894-5.984 10.592.767 6.664 2.049 6.067c1.282-.598-.853-3.503-.169-5.383.684-1.879 5.044-10.934 5.044-10.934l-.94-.342z" fill="#E3E5E5"/><path d="M12 14.652s-2 7-2 12 3 6 4 5-2-3-2-5l1-12h-1z" fill="#EDEEEE"/><path d="M16 10h-7s0 6 7 6v-6z" fill="#373F3F"/><path d="M16 16c7 0 7-6 7-6h-7v6z" fill="#2B3332"/><circle cx="12" cy="11" r="1.5" fill="#fff"/><ellipse cx="12" cy="10.5" rx=".5" ry="1.5" fill="#373F3F"/><circle cx="20" cy="11" r="1.5" fill="#F7F7F7"/><ellipse cx="20" cy="10.5" rx=".5" ry="1.5" fill="#2B3332"/><path d="M16 0l-.161.001c-3.339.039-6.35 2.021-7.843 5.008-.655 1.309-1.606 2.448-2.777 3.327l-1.405 1.054c-.471.353-.622.993-.359 1.52.301.602 1.033.846 1.635.545l.169-.084c.474-.237 1.024-.276 1.527-.109l1.286.429c.586.195 1.228.109 1.742-.234l1.009-.672c.706-.47 1.631-.445 2.309.064l1.068.801c.533.4 1.167.6 1.8.6v-12.25z" fill="#B0D3EA"/><path d="M17.8 11.65l1.068-.801c.678-.509 1.604-.534 2.309-.064l1.009.672c.514.342 1.156.428 1.742.233l1.286-.429c.503-.168 1.052-.129 1.527.109l.169.084c.602.301 1.334.057 1.635-.545.263-.527.112-1.167-.359-1.52l-1.405-1.054c-1.171-.878-2.122-2.017-2.776-3.327-1.494-2.987-4.504-4.97-7.843-5.008h-.162v12.25c.633 0 1.267-.2 1.8-.6z" fill="#9FC9E4"/><path d="M9.635 2.724l.365 1.276 6 3v-7l-.161.001c-2.383.027-4.587 1.057-6.204 2.723z" fill="#C1DDEE"/><path d="M22.365 2.724c-1.616-1.666-3.82-2.696-6.203-2.723l-.162-.001v7l6-3 .365-1.276z" fill="#B0D3EA"/><path d="M13.277.423s-.531 5.475-6.531 6.475c0 0-1.469-7.475 6.531-6.475z" fill="#E85160"/><path d="M18.723.423s.531 5.475 6.531 6.475c.001 0 1.469-7.475-6.531-6.475z" fill="#D84459"/><path d="M16 5c-1.105 0-2 .895-2 2s.895 2 2 2v-4z" fill="#E85160"/><path d="M18 7c0-1.105-.895-2-2-2v4c1.105 0 2-.895 2-2z" fill="#D84459"/><path d="M16 12.25s-.326.744-1.142 1.314c-.551.384-.852 1.031-.822 1.702.089 1.982.399 5.948 1.488 9.394.073.231.275.347.476.347v-12.757z" fill="#B0D3EA"/><path d="M16.476 24.66c1.089-3.446 1.4-7.412 1.488-9.394.03-.671-.272-1.318-.822-1.702-.816-.57-1.142-1.314-1.142-1.314v12.757c.202 0 .403-.116.476-.347z" fill="#9FC9E4"/></svg>