<svg xmlns="http://www.w3.org/2000/svg" width="32" height="32" viewBox="0 0 32 32"><path d="M28.164 12.398l-2.164 4.602s-2-1-4 0v2h4c2 0 3-3 3-3h2l.414-.414-3.25-3.188z" fill="#687271"/><path d="M6 17l-2.164-4.602-3.25 3.188.414.414h2s1 3 3 3h4v-2s-2-1-4 0z" fill="#757F7E"/><path d="M16 9c-.466 0-.893.16-1.233.427-.428.337-.947.476-1.486.398-.427-.062-.878.014-1.281.247s-.694.585-.854.986c-.202.506-.582.886-1.088 1.088-.401.16-.753.451-.986.854-.349.605-.345 1.315-.053 1.896.138.274.147.59.092.892-.236 1.303-.125 2.725.624 4.232 1.049 2.112 3.086 3.659 5.429 3.931.282.033.561.046.837.046v-14.997z" fill="#838C8A"/><path d="M23 17c0-.611-.086-1.201-.234-1.766.49-.624.582-1.505.162-2.234-.233-.403-.585-.694-.986-.854-.506-.202-.886-.582-1.088-1.088-.16-.401-.451-.753-.854-.986s-.854-.308-1.281-.246c-.539.078-1.059-.061-1.486-.398-.34-.268-.767-.428-1.233-.428v14.997c3.866 0 7-3.131 7-6.997z" fill="#757F7E"/><path d="M15 19v-1.465c0-.334-.167-.647-.445-.832l-1.612-1.075c-.5-.334-1.18-.153-1.449.385l-.046.092c-.248.495-.048 1.095.446 1.342l3.106 1.553z" fill="#909997"/><path d="M17 19v-1.465c0-.334.167-.647.445-.832l1.612-1.075c.5-.334 1.18-.153 1.449.385l.046.092c.248.495.048 1.095-.446 1.342l-3.106 1.553z" fill="#838C8A"/><path d="M12 17.5v2c0 .276.224.5.5.5h2c.276 0 .5-.224.5-.5v-.5l-3-1.5z" fill="#fff"/><path d="M20 17.5v2c0 .276-.224.5-.5.5h-2c-.276 0-.5-.224-.5-.5v-.5l3-1.5z" fill="#F7F7F7"/><path d="M31.707 13.879l-2.586-2.586c-.391-.391-1.024-.391-1.414 0l-.793.793c-.276.276-.276.724 0 1s.724.276 1 0c-.276.276-.276.724 0 1s.724.276 1 0c-.276.276-.276.724 0 1s.724.276 1 0c-.276.276-.276.724 0 1s.724.276 1 0l.793-.793c.391-.391.391-1.024 0-1.414zM16 21c-1.555 0-2.63.32-3.271.597-.531.23-1.135.199-1.654-.06l-.545-.272c1.133 1.455 2.783 2.472 4.633 2.686.282.033.561.046.837.046v-2.997z" fill="#757F7E"/><path d="M5.086 12.086l-.793-.793c-.391-.391-1.024-.391-1.414 0l-2.586 2.586c-.391.391-.391 1.024 0 1.414l.793.793c.276.276.724.276 1 0s.276-.724 0-1c.276.276.724.276 1 0s.276-.724 0-1c.276.276.724.276 1 0s.276-.724 0-1c.276.276.724.276 1 0s.276-.724 0-1z" fill="#838C8A"/><path d="M21.583 21.208l-.659.329c-.518.259-1.122.29-1.654.06-.64-.277-1.715-.597-3.27-.597v2.997c2.283 0 4.305-1.097 5.583-2.789z" fill="#687271"/><path d="M4.379 11.793l-.586.586c-.391.391-.391 1.024 0 1.414l.086.086c.391.391 1.024.391 1.414 0l.586-.586c.391-.391.391-1.024 0-1.414l-.086-.086c-.391-.391-1.024-.391-1.414 0z" fill="#909997"/><path fill="#845331" d="M14 20h-1v-2l1 .5z"/><path fill="#724D31" d="M18 20h1v-2l-1 .5z"/><path d="M27.621 11.793l.586.586c.391.391.391 1.024 0 1.414l-.086.086c-.391.391-1.024.391-1.414 0l-.586-.586c-.391-.391-.391-1.024 0-1.414l.086-.086c.391-.391 1.024-.391 1.414 0z" fill="#838C8A"/></svg>