<svg xmlns="http://www.w3.org/2000/svg" width="32" height="32" viewBox="0 0 32 32"><path d="M24.854 10.854l-3.707-3.707c-.094-.094-.221-.147-.354-.147h-.793l-.854-.854c-.093-.093-.22-.146-.353-.146h-2.793v20h3l1-1h1l3.854-3.854c.093-.093.146-.22.146-.353v-.793l.854-.854c.093-.093.146-.22.146-.353v-5.793l-1-1v-.793c0-.133-.053-.26-.146-.353z" fill="#687271"/><path d="M16 6h-2.793c-.133 0-.26.053-.354.146l-.853.854h-.793c-.133 0-.26.053-.354.146l-3.707 3.707c-.093.094-.146.221-.146.354v.793l-1 1v5.793c0 .133.053.26.146.354l.854.853v.793c0 .133.053.26.146.354l3.854 3.853h1l1 1h3v-20z" fill="#757F7E"/><path d="M10 24v2.586c0 .265-.105.52-.293.707l-.414.414c-.188.188-.293.442-.293.707v.086c0 .276.224.5.5.5h5c.276 0 .5-.224.5-.5v-.086c0-.265-.105-.52-.293-.707l-.414-.414c-.188-.188-.293-.442-.293-.707v-2.586h-4z" fill="#687271"/><path d="M18 24v2.586c0 .265-.105.52-.293.707l-.414.414c-.188.188-.293.442-.293.707v.086c0 .276.224.5.5.5h5c.276 0 .5-.224.5-.5v-.086c0-.265-.105-.52-.293-.707l-.414-.414c-.188-.188-.293-.442-.293-.707v-2.586h-4z" fill="#5C6664"/><path d="M18 16.5l3-1.25v1.25c0 .276-.224.5-.5.5h-2.5v-.5z" fill="#F7F7F7"/><path d="M19 16.083v.417c0 .138.112.25.25.25s.25-.112.25-.25v-.625l-.5.208z" fill="#2B3332"/><path d="M14 16.5l-3-1.25v1.25c0 .276.224.5.5.5h2.5v-.5z" fill="#fff"/><path d="M13 16.083v.417c0 .138-.112.25-.25.25s-.25-.112-.25-.25v-.625l.5.208z" fill="#373F3F"/><path d="M7.146 21.146l4.268 4.268c.375.375.884.586 1.414.586h1.672c.276 0 .5-.224.5-.5v-2.05c0-.276-.224-.5-.5-.5h-.75c-.138 0-.25-.112-.25-.25v-.07c0-.108.069-.203.171-.237l.987-.329c.204-.068.342-.259.342-.475v-.154c0-.271-.215-.492-.486-.5l-1.53-.038c-2.067-.059-4.065-.757-5.719-1.998l-1.265-.949v.843c0 .133.053.26.146.354l.854.853v.793c0 .133.053.26.146.353z" fill="#838C8A"/><path d="M24.854 21.146l-4.268 4.268c-.375.375-.884.586-1.414.586h-1.672c-.276 0-.5-.224-.5-.5v-2.05c0-.276.224-.5.5-.5h.75c.138 0 .25-.112.25-.25v-.07c0-.108-.069-.203-.171-.237l-.987-.329c-.204-.068-.342-.259-.342-.475v-.154c0-.271.215-.492.486-.5l1.53-.038c2.067-.059 4.065-.757 5.719-1.998l1.265-.949v.843c0 .133-.053.26-.146.354l-.854.853v.793c0 .133-.053.26-.146.353z" fill="#757F7E"/><path d="M6 13l-4.828 4.828c-.751.751-1.172 1.768-1.172 2.829v2.843c0 .276.224.5.5.5h1.5c.276 0 .5-.224.5-.5v-1.22c0-.155.125-.28.28-.28h.001c.128 0 .24.087.272.212l.352 1.409c.056.223.256.379.485.379h.61c.276 0 .5-.224.5-.5v-4.55l1-.95v-5z" fill="#687271"/><path d="M26 13l4.828 4.828c.75.75 1.172 1.768 1.172 2.828v2.844c0 .276-.224.5-.5.5h-1.5c-.276 0-.5-.224-.5-.5v-1.22c0-.155-.125-.28-.28-.28h-.001c-.128 0-.24.087-.272.212l-.352 1.409c-.056.223-.256.379-.485.379h-.61c-.276 0-.5-.224-.5-.5v-4.55l-1-.95v-5z" fill="#5C6664"/><path d="M16 18.5c-1.01 0-2.019.127-2.771.254-.277.047-.277.446 0 .493.752.126 1.761.253 2.771.253v-1z" fill="#F6B392"/><path d="M18.771 18.754c-.752-.127-1.761-.254-2.771-.254v1c1.01 0 2.019-.127 2.771-.254.278-.046.278-.446 0-.492z" fill="#F4A984"/><path d="M16 17.333v-6.532l-.231-1.309c-.048-.272-.307-.454-.579-.406l-.985.174c-.272.048-.453.308-.405.58l.231 1.309-.664-1.151c-.138-.239-.444-.321-.683-.183l-.866.5c-.239.138-.321.444-.183.683l.664 1.151-1.018-.854c-.212-.177-.527-.15-.704.062l-.752.896c-.129.153-.153.368-.063.547l1.238 2.45 3.002 1.251-.002.499 2 .333z" fill="#838C8A"/><path d="M16 17.333l2-.333v-.5l3-1.25 1.239-2.451c.09-.179.065-.394-.063-.547l-.752-.896c-.177-.212-.493-.239-.704-.062l-1.018.854.664-1.151c.138-.239.056-.545-.183-.683l-.866-.5c-.239-.138-.545-.056-.683.183l-.664 1.151.23-1.308c.048-.272-.134-.531-.406-.579l-.984-.174c-.272-.048-.531.134-.579.406l-.231 1.308v6.532z" fill="#757F7E"/></svg>