<svg xmlns="http://www.w3.org/2000/svg" width="32" height="32" viewBox="0 0 32 32"><path d="M16 16c0 2.968 1.957 4.957 5.871 4.999 3.349.037 6.171-2.297 6.866-5.573 1.264-5.958-2.285-9.815-5.077-10.36-.231-.045-.391.227-.242.409.587.716 1.582 2.136 1.582 3.525 0 3-2.297 3-4 3 0 0-5 0-5 4z" fill="#FFD400"/><path d="M21.871 20.999c3.349.037 6.165-2.298 6.866-5.573 1.099-5.132-1.296-8.592-3.734-9.857.082.082 1.966 1.869 1.966 4.431s-1.812 5.188-4.719 4.969l-4.469 1.906s-.596.549-1.304 1.356c.789 1.687 2.576 2.738 5.394 2.768z" fill="#FF8F00"/><path d="M28.607 10.129c.036.313.251 2.59-.482 4.496-.525 1.366-1.781 3.281-5.031 3.281l-4.722 2.031.027.289c.9.483 2.055.757 3.473.773 3.349.037 6.165-2.298 6.866-5.573.433-2.028.328-3.835-.131-5.297z" fill="#FF4A00"/><path fill="#F7D684" d="M18 22v7h2l.434-9.472z"/><path d="M18.5 31h1c.276 0 .5-.224.5-.5v-1.5h-2v1.5c0 .276.224.5.5.5z" fill="#2B3332"/><path fill="#FAE09F" d="M14 22v7h-2l-.434-9.472z"/><path d="M13.5 31h-1c-.276 0-.5-.224-.5-.5v-1.5h2v1.5c0 .276-.224.5-.5.5z" fill="#373F3F"/><path d="M18 12l.774 3.096c.149.598.401 1.166.743 1.679l.025.037c.92 1.381 1.152 3.109.627 4.683-.112.336-.19.682-.234 1.033l-.935 7.472h-2v-7h-1v-11h2z" fill="#FAE09F"/><path d="M17.5 32h1c.276 0 .5-.224.5-.5v-1.5h-2v1.5c0 .276.224.5.5.5z" fill="#373F3F"/><path d="M14 12l-.774 3.096c-.149.598-.401 1.166-.743 1.679l-.025.037c-.92 1.381-1.152 3.109-.627 4.683.112.336.19.682.234 1.033l.935 7.472h2v-7h1v-11h-2zM21.688 6.008l-3.205.801-.099-.122h-2.384v9.313c1.173 0 1.658-.688 1.859-1.258.151-.429.419-.804.802-1.05.582-.372 1.339-1.153 1.339-2.692 0-.607-.097-1.17-.241-1.679l2.19-2.92c.141-.189-.032-.45-.261-.393z" fill="#FDEBBB"/><path d="M13.616 6.687l-.099.122-3.205-.801c-.228-.057-.402.204-.261.393l2.19 2.92c-.144.509-.241 1.072-.241 1.679 0 1.539.757 2.32 1.339 2.693.383.245.651.62.802 1.05.201.569.686 1.257 1.859 1.257v-9.313h-2.384z" fill="#FFF3D9"/><path d="M16 9c-1.657 0-3-1.378-3-3.078 0-2.861 3.457-3.062 2.337-5.549-.1-.221.111-.451.326-.348 1.137.546 3.337 2.093 3.337 5.897 0 1.7-1.343 3.078-3 3.078z" fill="#FF4A00"/><path d="M15.517 8.939c-.937-.231-1.585-1.21-1.511-2.213.057-.773.484-1.239 1.15-1.908.428-.429.958-.961 1.228-1.667.069-.179.302-.204.421-.056.647.799 1.195 2.009 1.195 3.814 0 1.316-1.172 2.353-2.483 2.03z" fill="#FF8F00"/><path d="M15.77 8.973c-.495-.117-.807-.606-.765-1.139.027-.342.199-.58.841-1.233.148-.151.317-.322.49-.517.13-.147.365-.098.423.093.16.526.241 1.116.243 1.767.001.662-.578 1.183-1.232 1.029z" fill="#FFD400"/><path d="M14.486 11.536c-.084-.236-.353-.856-1.015-1.457-.134-.122-.323-.097-.357.045-.111.467-.257 1.379.194 1.67.663.426 1.03.088 1.158-.079.036-.048.044-.113.02-.179z" fill="#373F3F"/><circle cx="13.75" cy="11.25" r=".25" fill="#fff"/><path d="M17.514 11.536c.084-.236.353-.856 1.015-1.457.134-.122.323-.097.357.045.111.467.257 1.379-.194 1.67-.663.426-1.03.088-1.158-.079-.036-.048-.044-.113-.02-.179z" fill="#2B3332"/><circle cx="18.25" cy="11.25" r=".25" fill="#F7F7F7"/><path d="M14.5 32h-1c-.276 0-.5-.224-.5-.5v-1.5h2v1.5c0 .276-.224.5-.5.5z" fill="#434C4B"/></svg>