<svg xmlns="http://www.w3.org/2000/svg" width="32" height="32" viewBox="0 0 32 32"><path d="M3.164 1.982s-1.496-.564-1.097-1.552 3.689-.282 5.484 2.21 3.54 5.596 1.595 6.866-3.451-.141-3.146-1.599c0 0-2.188-1.49-2.885-2.907s-.798-2.407.049-3.018z" fill="#65A9DC"/><path d="M28.836 1.982s1.496-.564 1.097-1.552c-.399-.988-3.689-.282-5.484 2.21s-3.54 5.596-1.595 6.866 3.451-.141 3.146-1.599c0 0 2.188-1.49 2.885-2.907s.798-2.407-.049-3.018z" fill="#5CA3D5"/><path d="M26 20c0-5.523-4.477-10-10-10v20c5.523 0 10-4.477 10-10z" fill="#FFEAA7"/><path d="M16 10c-5.523 0-10 4.477-10 10s4.477 10 10 10v-20z" fill="#FEF1C6"/><path d="M16 11c-4.971 0-9 4.029-9 9s4.029 9 9 9v-18z" fill="#FFD96C"/><path d="M25 20c0-4.971-4.029-9-9-9v18c4.971 0 9-4.029 9-9z" fill="#FFD04D"/><path d="M7 20c0-1.937.618-3.727 1.659-5.196l-7.561 4.537c-.558.335-.653 1.105-.193 1.565l.43.43c1.027 1.027 2.531 1.417 3.927 1.018l1.919-.548c-.118-.584-.181-1.188-.181-1.806z" fill="#65A9DC"/><path d="M16 29v-9h-9c0 4.971 4.029 9 9 9z" fill="#FFD04D"/><path d="M16 29c4.971 0 9-4.029 9-9h-9v9zM16 29v-5l-5.361 3.217c1.498 1.115 3.349 1.783 5.361 1.783z" fill="#F7C845"/><path d="M21.361 27.217l-5.361-3.217v5c2.012 0 3.863-.668 5.361-1.783z" fill="#F0C13E"/><path d="M24 9c0-4.418-3.512-8-8-8v14c4.488 0 8-1.582 8-6z" fill="#5CA3D5"/><path d="M16 1c-4.488 0-8 3.582-8 8s3.512 6 8 6v-14zM16 1s.037 11.195.056 11.195c.584 0 1.159-.727 1.722-.805 2.229-.305 4.267.257 5.952-.483.17-.568.27-1.197.27-1.907 0-4.418-3.512-8-8-8z" fill="#65A9DC"/><path d="M8 9c0 .679.092 1.283.249 1.833 1.682.762 3.729.214 5.973.542.581.085 1.174.772 1.778.813v-11.188c-4.488 0-8 3.582-8 8z" fill="#71B1E1"/><path d="M13.198 6.45l-2.25-.375c-.26-.043-.511.122-.569.38-.226.998-.515 3.295 1.621 3.295 2.213 0 1.823-2.137 1.597-2.945-.052-.186-.208-.324-.399-.355z" fill="#fff"/><path d="M11.453 6.159c-.182.659-.922 3.345 1.059 3.542 1.629-.313 1.291-2.154 1.085-2.894-.052-.187-.208-.326-.399-.358l-1.745-.29z" fill="#96643B"/><path d="M12.502 9.095c-.263 0-.419-.112-.548-.322-.296-.484-.207-1.807-.061-2.54l1.141.19c.136.488.358 1.837.075 2.34-.121.216-.344.332-.607.332z" fill="#373F3F"/><circle cx="12" cy="7" r=".5" fill="#fff"/><path d="M18.802 6.45l2.25-.375c.26-.043.511.122.569.38.226.998.515 3.295-1.621 3.295-2.213 0-1.823-2.137-1.597-2.945.052-.186.208-.324.399-.355z" fill="#F7F7F7"/><path d="M20.547 6.159c.182.659.922 3.345-1.059 3.542-1.629-.313-1.291-2.154-1.085-2.894.052-.187.208-.326.399-.358l1.745-.29z" fill="#8D5B36"/><path d="M19.498 9.095c.263 0 .419-.112.548-.322.296-.484.207-1.807.061-2.54l-1.141.19c-.136.488-.358 1.837-.075 2.34.121.216.344.332.607.332z" fill="#2B3332"/><circle cx="20" cy="7" r=".5" fill="#F7F7F7"/><path d="M30.902 19.341l-7.561-4.537c1.041 1.469 1.659 3.259 1.659 5.196 0 .618-.063 1.222-.182 1.805l1.919.548c1.397.399 2.9.01 3.927-1.018l.43-.43c.46-.459.366-1.229-.192-1.564zM26.5 30h-.5s-.002-2.968-1.97-5.952c-.946 1.872-2.52 3.37-4.452 4.208.2.694.383 1.728.417 3.244.006.273.224.5.498.5h7.007c.276 0 .5-.224.5-.5 0-.828-.672-1.5-1.5-1.5z" fill="#5CA3D5"/><path d="M7.97 24.048c-1.968 2.984-1.97 5.952-1.97 5.952h-.5c-.828 0-1.5.672-1.5 1.5 0 .276.224.5.5.5h7.008c.273 0 .492-.227.498-.5.033-1.516.216-2.55.417-3.244-1.933-.838-3.508-2.336-4.453-4.208z" fill="#65A9DC"/></svg>