<svg xmlns="http://www.w3.org/2000/svg" width="32" height="32" viewBox="0 0 32 32"><path d="M5 22h-2v-3h2c.551 0 1-.448 1-1s-.449-1-1-1h-2v-3h2c2.206 0 4 1.794 4 4s-1.794 4-4 4z" fill="#505957"/><path d="M.5 19h2.5v3h-2.5c-.276 0-.5-.224-.5-.5v-2c0-.276.224-.5.5-.5z" fill="#56C7CD"/><path d="M.5 14h2.5v3h-2.5c-.276 0-.5-.224-.5-.5v-2c0-.276.224-.5.5-.5z" fill="#E55D53"/><path d="M29 22h-2c-2.206 0-4-1.794-4-4s1.794-4 4-4h2v3h-2c-.551 0-1 .448-1 1s.449 1 1 1h2v3zM18 6h-2v5h2v-3h1v-1c0-.552-.448-1-1-1z" fill="#434C4B"/><path d="M16 11v-5h-2c-.552 0-1 .448-1 1v1h1v3h2z" fill="#505957"/><path d="M8 18c0 4.418 3.582 8 8 8v-16c-4.418 0-8 3.582-8 8z" fill="#687271"/><path d="M16 10v16c4.418 0 8-3.582 8-8s-3.582-8-8-8z" fill="#5C6664"/><path d="M12 18c0 2.209 1.791 4 4 4v-8c-2.209 0-4 1.791-4 4z" fill="#fff"/><path d="M16 14v8c2.209 0 4-1.791 4-4s-1.791-4-4-4z" fill="#F7F7F7"/><path d="M31.5 17h-2.5v-3h2.5c.276 0 .5.224.5.5v2c0 .276-.224.5-.5.5z" fill="#51BAC5"/><path d="M31.5 22h-2.5v-3h2.5c.276 0 .5.224.5.5v2c0 .276-.224.5-.5.5z" fill="#D64F45"/><path d="M16 17c-.552 0-1 .448-1 1s.448 1 1 1v-2z" fill="#373F3F"/><path d="M17 18c0-.552-.448-1-1-1v2c.552 0 1-.448 1-1z" fill="#2B3332"/></svg>