<svg xmlns="http://www.w3.org/2000/svg" width="32" height="32" viewBox="0 0 32 32"><path d="M28.792 10.794l-1.061 1.061-1.414-1.414 1.061-1.061c.195-.195.512-.195.707 0l.707.707c.195.195.195.511 0 .707z" fill="#4CAEBC"/><path d="M31.621 13.622l-1.061 1.061-1.414-1.414 1.061-1.061c.195-.195.512-.195.707 0l.707.707c.195.195.195.512 0 .707z" fill="#D1473D"/><path d="M30.56 14.683l-1.414 1.414c-1.17 1.17-3.073 1.17-4.243 0-1.17-1.17-1.17-3.073 0-4.243l1.414-1.414 1.414 1.414-1.414 1.414c-.39.39-.39 1.024 0 1.414.39.39 1.024.39 1.414 0l1.414-1.414 1.415 1.415z" fill="#373F3F"/><path d="M3.208 10.794l1.061 1.061 1.414-1.414-1.061-1.062c-.195-.195-.512-.195-.707 0l-.707.707c-.195.196-.195.512 0 .708z" fill="#5BD3D5"/><path d="M.379 13.622l1.061 1.061 1.414-1.414-1.061-1.061c-.195-.195-.512-.195-.707 0l-.707.707c-.195.195-.195.512 0 .707z" fill="#E7685F"/><path d="M2.854 16.097l-1.414-1.414 1.414-1.414 1.414 1.414c.39.39 1.024.39 1.414 0 .39-.39.39-1.024 0-1.414l-1.414-1.414 1.414-1.414 1.414 1.414c1.17 1.17 1.17 3.073 0 4.243s-3.072 1.169-4.242-.001z" fill="#5C6664"/><path d="M6.794 3.207l1.061 1.061-1.415 1.414-1.061-1.061c-.195-.195-.195-.512 0-.707l.707-.707c.196-.195.512-.195.708 0z" fill="#56C7CD"/><path d="M9.622.379l1.061 1.061-1.415 1.414-1.06-1.061c-.195-.195-.195-.512 0-.707l.707-.707c.195-.196.512-.196.707 0z" fill="#E55D53"/><path d="M9.976 7.975c-.801 0-1.555-.312-2.122-.879l-1.414-1.414 1.414-1.414 1.415 1.414c.378.379 1.037.379 1.414 0 .189-.189.293-.44.293-.707s-.104-.518-.293-.707l-1.414-1.414 1.414-1.414 1.414 1.414c1.17 1.17 1.17 3.072 0 4.242-.567.566-1.32.879-2.121.879z" fill="#505957"/><path d="M25.206 3.207l-1.061 1.061 1.414 1.414 1.061-1.061c.195-.195.195-.512 0-.707l-.707-.707c-.195-.195-.511-.195-.707 0z" fill="#51BAC5"/><path d="M22.378.379l-1.061 1.061 1.414 1.414 1.061-1.061c.195-.195.195-.512 0-.707l-.707-.707c-.195-.196-.512-.196-.707 0z" fill="#D64F45"/><path d="M22.024 7.975c-.801 0-1.555-.312-2.122-.879-1.169-1.17-1.169-3.072 0-4.242l1.414-1.414 1.414 1.414-1.414 1.414c-.189.189-.293.44-.293.707s.104.518.293.707c.378.379 1.037.379 1.414 0l1.415-1.414 1.414 1.414-1.415 1.414c-.565.566-1.318.879-2.12.879z" fill="#434C4B"/><path d="M22 31.5v-1.5h-2v1.5c0 .276.224.5.5.5h1c.276 0 .5-.224.5-.5z" fill="#51BAC5"/><path d="M26 31.5v-1.5h-2v1.5c0 .276.224.5.5.5h1c.276 0 .5-.224.5-.5z" fill="#D1473D"/><path d="M23 25c1.654 0 3 1.346 3 3v2h-2v-2c0-.552-.449-1-1-1v-2z" fill="#373F3F"/><path d="M22 28v2h-2v-2c0-1.654 1.346-3 3-3v2c-.551 0-1 .448-1 1z" fill="#434C4B"/><path d="M10 31.5v-1.5h2v1.5c0 .276-.224.5-.5.5h-1c-.276 0-.5-.224-.5-.5z" fill="#56C7CD"/><path d="M6 31.5v-1.5h2v1.5c0 .276-.224.5-.5.5h-1c-.276 0-.5-.224-.5-.5z" fill="#E7685F"/><path d="M9 25c-1.654 0-3 1.346-3 3v2h2v-2c0-.552.449-1 1-1v-2z" fill="#5C6664"/><path d="M10 28v2h2v-2c0-1.654-1.346-3-3-3v2c.551 0 1 .448 1 1z" fill="#505957"/><path d="M10 10.45c0 3.314 2.686 6 6 6v-12c-3.314 0-6 2.686-6 6z" fill="#687271"/><path d="M16 4.45v12c3.314 0 6-2.686 6-6s-2.686-6-6-6z" fill="#5C6664"/><path d="M13 10.45c0 1.657 1.343 3 3 3v-6c-1.657 0-3 1.343-3 3z" fill="#fff"/><path d="M16 7.45v6c1.657 0 3-1.343 3-3s-1.343-3-3-3z" fill="#F7F7F7"/><path d="M16 9.45c-.552 0-1 .448-1 1s.448 1 1 1v-2z" fill="#373F3F"/><path d="M17 10.45c0-.552-.448-1-1-1v2c.552 0 1-.448 1-1z" fill="#2B3332"/><path d="M17 20.5c0 3.314 2.686 6 6 6v-12c-3.314 0-6 2.686-6 6z" fill="#5C6664"/><path d="M23 14.5v12c3.314 0 6-2.686 6-6s-2.686-6-6-6z" fill="#505957"/><path d="M20 20.5c0 1.657 1.343 3 3 3v-6c-1.657 0-3 1.343-3 3z" fill="#fff"/><path d="M23 17.5v6c1.657 0 3-1.343 3-3s-1.343-3-3-3z" fill="#F7F7F7"/><path d="M23 19.5c-.552 0-1 .448-1 1s.448 1 1 1v-2z" fill="#373F3F"/><path d="M24 20.5c0-.552-.448-1-1-1v2c.552 0 1-.448 1-1z" fill="#2B3332"/><path d="M3 20.5c0 3.314 2.686 6 6 6v-12c-3.314 0-6 2.686-6 6z" fill="#757F7E"/><path d="M9 14.5v12c3.314 0 6-2.686 6-6s-2.686-6-6-6z" fill="#687271"/><path d="M6 20.5c0 1.657 1.343 3 3 3v-6c-1.657 0-3 1.343-3 3z" fill="#fff"/><path d="M9 17.5v6c1.657 0 3-1.343 3-3s-1.343-3-3-3z" fill="#F7F7F7"/><path d="M9 19.5c-.552 0-1 .448-1 1s.448 1 1 1v-2z" fill="#373F3F"/><path d="M10 20.5c0-.552-.448-1-1-1v2c.552 0 1-.448 1-1z" fill="#2B3332"/><circle cx="12.5" cy="15.5" r="1.5" fill="#434C4B"/><circle cx="19.5" cy="15.5" r="1.5" fill="#373F3F"/><path fill="#2B3332" d="M19 15h1v1h-1z"/><path fill="#373F3F" d="M12 15h1v1h-1z"/></svg>