<svg xmlns="http://www.w3.org/2000/svg" width="32" height="32" viewBox="0 0 32 32"><path d="M8 20c0 .407.035.794.087 1.17-1.514 1.783-3.732 2.83-6.087 2.83-1.105 0-2 .895-2 2s.895 2 2 2h.001c2.912 0 5.632-1.37 7.392-3.661 1.351 1.702 3.626 2.661 6.607 2.661v-14c-4.971 0-8 2.651-8 7z" fill="#D2E6F3"/><path d="M30 24c-2.355 0-4.573-1.047-6.087-2.83.052-.376.087-.763.087-1.17 0-4.349-3.029-7-8-7v14c2.981 0 5.256-.959 6.606-2.661 1.761 2.291 4.48 3.661 7.393 3.661h.001c1.105 0 2-.895 2-2s-.895-2-2-2z" fill="#C1DDEE"/><path d="M20.855 5.962c.724-1.99 3.196-2.585 4.763-1.233.258-.121.543-.194.847-.194 1.105 0 2 .895 2 2 0 .304-.073.589-.194.847 1.352 1.568.757 4.04-1.233 4.763l-6.573 2.39-2-2 2.39-6.573z" fill="#B0D3EA"/><path d="M11.145 5.962c-.724-1.99-3.196-2.585-4.763-1.233-.258-.121-.543-.194-.847-.194-1.105 0-2 .895-2 2 0 .304.073.589.194.847-1.352 1.568-.757 4.04 1.233 4.763l6.573 2.39 2-2-2.39-6.573z" fill="#C1DDEE"/><path d="M15.553 3.894l-1.698 3.396c-2.49.684-3.855 2.64-3.855 5.71 0 3.866 2.134 6 6 6v-15.382c-.178 0-.355.092-.447.276z" fill="#E2EFF7"/><path d="M18.145 7.29l-1.698-3.396c-.092-.184-.27-.276-.447-.276v15.382c3.866 0 6-2.134 6-6 0-3.07-1.365-5.026-3.855-5.71z" fill="#D2E6F3"/><ellipse cx="13" cy="11.5" rx="1" ry="1.5" fill="#5BD3D5"/><path d="M14 11.5c0 .828-.448 1-1 1s-1-.172-1-1 .448-1.5 1-1.5 1 .672 1 1.5z" fill="#373F3F"/><circle cx="13" cy="11" r=".5" fill="#fff"/><ellipse cx="19" cy="11.5" rx="1" ry="1.5" fill="#56C7CD"/><path d="M20 11.5c0 .828-.448 1-1 1s-1-.172-1-1 .448-1.5 1-1.5 1 .672 1 1.5z" fill="#2B3332"/><circle cx="19" cy="11" r=".5" fill="#F7F7F7"/><path d="M16 14.8c-.635-.523-1.519-.8-2.5-.8-1.933 0-3.5 1.067-3.5 3s1.567 3 3.5 3c.981 0 1.865-.277 2.5-.8v-4.4z" fill="#FFF3D9"/><path d="M18.5 20c1.933 0 3.5-1.067 3.5-3s-1.567-3-3.5-3c-.981 0-1.865.277-2.5.8v4.4c.635.523 1.519.8 2.5.8z" fill="#FDEBBB"/><path d="M18 18.602h1.113c.683 0 1.165-.669.949-1.316l-.37-1.111c-.07-.211-.361-.232-.461-.033l-1.231 2.46z" fill="#F7F7F7"/><path d="M18.5 18.806v-.29c0-.495-.318-.947-.822-1.168h-.001c-.528-.232-1.102-.348-1.677-.348v4c1.381 0 2.5-.982 2.5-2.194z" fill="#F8A1C4"/><path d="M16 14.001c-.552 0-1-.032-1 .25 0 .414.448.75 1 .75v-1z" fill="#373F3F"/><path d="M17 14.251c0-.282-.448-.25-1-.25v1c.552 0 1-.336 1-.75z" fill="#2B3332"/><path d="M14 18.602h-1.113c-.683 0-1.165-.669-.949-1.316l.37-1.111c.07-.211.361-.232.461-.033l1.231 2.46z" fill="#fff"/><path d="M16 17c-.575 0-1.149.116-1.677.347h-.001c-.504.221-.822.673-.822 1.168v.29c0 1.213 1.119 2.195 2.5 2.195v-4z" fill="#F9ADC8"/><path d="M10.411 22.884l-.638.957c-.112.168-.242.32-.364.479 1.348 1.705 3.607 2.68 6.591 2.68v-3c-1.988 0-3.955-.395-5.589-1.116z" fill="#C1DDEE"/><path d="M22.227 23.841l-.638-.957c-1.634.721-3.601 1.116-5.589 1.116v3c2.984 0 5.243-.975 6.592-2.68-.122-.16-.253-.311-.365-.479z" fill="#B0D3EA"/></svg>