<svg xmlns="http://www.w3.org/2000/svg" width="32" height="32" viewBox="0 0 32 32"><path d="M29.737 4.582c.136-.274-.024-.6-.315-.692-.38-.12-.901-.369-1.422-.89-1-1-1-2-2-2s-2 1-3 1-2-2-3-2v11c0 14-5 14-5 14v4c11.991 0 7-18 7-18s5.475-1.844 7.737-6.418z" fill="#9FC9E4"/><path d="M17 2l-3-1-2 2c-.521.521-1.042.77-1.421.89-.292.092-.451.417-.315.692 2.261 4.574 7.736 6.418 7.736 6.418h.015s-1.93 6.966-.502 12.231c1.246-1.756 2.487-5.255 2.487-12.231v-11l-3 2zM18 11s2 11-3 11v3" fill="#B0D3EA"/><path d="M10 14v1.505c0 .329-.033.658-.097.981l-.703 3.515-2.462 2.11c-1.786 1.531-3.083 3.553-3.729 5.814l-.464 1.625c-.298 1.044.327 2.127 1.38 2.39l.009.002c1.105.276 2.205-.464 2.366-1.591l.39-2.731c.202-1.415.78-2.75 1.673-3.866l.637-.796v1.042c0 2.761 2.239 5 5 5h1v-20c-2.761 0-5 2.239-5 5z" fill="#D2E6F3"/><path d="M28.455 29.55l-.464-1.624c-.646-2.262-1.943-4.284-3.729-5.814l-3.669-3.144-.496-2.481c-.064-.324-.097-.653-.097-.982v-1.505c0-2.761-2.239-5-5-5v20h1c2.761 0 5-2.239 5-5v-2.292l1.636 2.045c.893 1.116 1.471 2.451 1.673 3.866l.39 2.731c.161 1.127 1.262 1.867 2.366 1.591l.009-.002c1.053-.262 1.679-1.346 1.381-2.389z" fill="#C1DDEE"/><path d="M12 15.541l.763 2.288c.076.228.398.228.474 0l.763-2.288h-2z" fill="#fff"/><path d="M16 15.541l.763 2.288c.076.228.398.228.474 0l.763-2.288h-2z" fill="#F7F7F7"/><path d="M10 14v1.346c.648.798 1.466 1.654 2 1.654 2 0 2-1 3-1v-7c-2.761 0-5 2.239-5 5z" fill="#E2EFF7"/><path d="M15 9v7c1 0 1 1 3 1 .534 0 1.352-.856 2-1.654v-1.346c0-2.761-2.239-5-5-5z" fill="#D2E6F3"/><path d="M14 13.5c0 .828-.448 1-1 1s-1-.172-1-1 .448-1.5 1-1.5 1 .672 1 1.5z" fill="#8D5B36"/><path d="M18 13.5c0 .828-.448 1-1 1s-1-.172-1-1 .448-1.5 1-1.5 1 .672 1 1.5z" fill="#845331"/><path d="M17 12c-.552 0-1 .672-1 1.5l.009.118c.264.235.609.382.991.382s.727-.147.991-.382l.009-.118c0-.828-.448-1.5-1-1.5z" fill="#2B3332"/><path d="M13 12c-.552 0-1 .672-1 1.5l.009.118c.264.235.609.382.991.382s.727-.147.991-.382l.009-.118c0-.828-.448-1.5-1-1.5zM15 14.5c-.276 0-.5.043-.5.25s.224.25.5.25v-.5z" fill="#373F3F"/><path d="M15.5 14.75c0-.207-.224-.25-.5-.25v.5c.276 0 .5-.043.5-.25z" fill="#2B3332"/><circle cx="13" cy="12.75" r=".5" fill="#fff"/><circle cx="17" cy="12.75" r=".5" fill="#F7F7F7"/></svg>