<svg xmlns="http://www.w3.org/2000/svg" width="32" height="32" viewBox="0 0 32 32"><path d="M15.997 8.167c-2.643 0-5.12 1.39-6.997 3.389v-3.556h-3l-.605 10.258-.007.112-.011.183.021-.003c.015.534.209 1.056.602 1.449v.001h10v-11.833h-.003z" fill="#9179C6"/><path d="M26.623 18.554l-.011-.184-.007-.111-.605-10.259h-3v3.555c-1.876-1.999-4.354-3.389-6.997-3.389h-.003v11.834h10v-.001c.393-.393.587-.915.602-1.449l.021.004zM6 20l-1.142.761c-1.062.708-1.43 2.095-.86 3.237l.002.002h12v-4h-10z" fill="#866EBA"/><path d="M26 20l1.142.761c1.062.708 1.43 2.095.86 3.237l-.002.002h-12v-4h10zM4 24l-3.317 1.658c-.418.21-.683.638-.683 1.106 0 .683.553 1.236 1.236 1.236h14.764v-4h-12z" fill="#7A63AD"/><path d="M28 24l3.317 1.658c.418.21.683.638.683 1.106 0 .683-.553 1.236-1.236 1.236h-14.764v-4h12z" fill="#6E57A0"/><path d="M14.48 12.768c.151-.12.113-.358-.067-.427-.381-.147-1.003-.341-1.626-.341s-1.245.194-1.627.34c-.18.069-.218.307-.067.427.372.296 1.033.732 1.693.732s1.322-.435 1.694-.731z" fill="#fff"/><path d="M12.787 12.25c0 .414.224.75.5.75s.5-.336.5-.75l-.015-.112c-.293-.075-.62-.132-.952-.135l-.033.247z" fill="#373F3F"/><path d="M17.52 12.768c-.151-.12-.113-.358.067-.427.381-.147 1.003-.341 1.626-.341s1.245.194 1.627.34c.18.069.218.307.067.427-.372.296-1.033.732-1.693.732-.662.001-1.322-.435-1.694-.731z" fill="#F7F7F7"/><path d="M16 14.724c-1.1 0-2.199-.091-3.288-.272l-1.997-.333c-.345-.057-.641.248-.572.591l.536 2.682c.186.935 1.007 1.608 1.961 1.608h3.36v-4.276z" fill="#373F3F"/><path d="M16 17c-2.031 0-3.879.191-5.289.502.228.876 1.014 1.498 1.929 1.498h3.36v-2z" fill="#7A63AD"/><path d="M19.213 12.25c0 .414-.224.75-.5.75s-.5-.336-.5-.75l.015-.112c.293-.075.62-.132.952-.135l.033.247z" fill="#2B3332"/><path d="M9.5 5.549c0 .272.072.539.208.775l.909 1.574c.276.478.112 1.09-.366 1.366-.479.275-1.091.111-1.367-.367l-.001-.002c-.105-.182-.383-.108-.383.102v.003c0 .552-.448 1-1 1s-1-.448-1-1v-.003c0-.21-.278-.284-.383-.102l-.001.002c-.276.478-.888.642-1.366.366-.478-.276-.642-.888-.366-1.366l.908-1.574c.136-.235.208-.502.208-.774 0-.855.693-1.549 1.549-1.549h.902c.855 0 1.549.694 1.549 1.549z" fill="#9D85D3"/><path d="M22.5 5.549c0 .272-.072.539-.208.775l-.909 1.574c-.276.478-.112 1.09.366 1.366s1.09.112 1.366-.366l.001-.003c.106-.182.384-.108.384.102v.003c0 .552.448 1 1 1s1-.448 1-1v-.003c0-.21.278-.284.383-.102l.001.003c.276.478.888.642 1.366.366.478-.276.642-.888.366-1.366l-.908-1.574c-.136-.236-.208-.503-.208-.775 0-.855-.693-1.549-1.549-1.549h-.902c-.855 0-1.549.694-1.549 1.549z" fill="#9179C6"/><g fill="#2B3332"><path d="M19.007 15.53l-.253-1.011c-.914.127-1.834.206-2.755.206v4.275h2.625l.382-1.53c.161-.637.161-1.303.001-1.94zM21.285 14.119l-.981.164-.312 1.247c-.159.637-.159 1.303 0 1.94l.321 1.285c.507-.276.888-.764 1.008-1.363l.536-2.682c.07-.343-.226-.648-.572-.591z"/></g><g fill="#6E57A0"><path d="M19.065 17.158c-.945-.1-1.975-.158-3.065-.158v2h2.625l.382-1.53.058-.312zM19.955 17.268l.038.202.321 1.286c.473-.259.833-.707.975-1.254-.407-.09-.86-.166-1.334-.234zM19.065 17.158c-.945-.1-1.975-.158-3.065-.158v2h2.625l.382-1.53.058-.312zM19.955 17.268l.038.202.321 1.286c.473-.259.833-.707.975-1.254-.407-.09-.86-.166-1.334-.234z"/></g></svg>