<svg xmlns="http://www.w3.org/2000/svg" width="32" height="32" viewBox="0 0 32 32"><path d="M25.497 22.195l2.349 4.697c.36.72.068 1.594-.651 1.954-.436.218-.951.203-1.374-.038l-6.323-3.613 5.999-3z" fill="#675099"/><path d="M6.503 22.195l-2.349 4.697c-.36.72-.068 1.594.651 1.954.436.218.951.203 1.374-.038l6.323-3.613-5.999-3zM16 17h9.921c1.251 0 2.37.776 2.809 1.947l2.017 5.378c.154.411.054.875-.257 1.185l-.001.001c-.3.3-.744.405-1.146.271l-2.218-.739c-1.597-.532-3.319-.326-4.813.451-1.833.952-3.995 1.506-6.312 1.506v-10z" fill="#6E57A0"/><path d="M16 17h-9.921c-1.251 0-2.37.776-2.809 1.947l-2.017 5.378c-.154.411-.054.875.257 1.185l.001.001c.3.3.744.405 1.146.271l2.218-.739c1.597-.532 3.319-.326 4.813.451 1.833.952 3.995 1.506 6.312 1.506v-10z" fill="#7A63AD"/><path d="M16 8c-6.075 0-11 4.029-11 9s4.925 9 11 9v-18z" fill="#373F3F"/><path d="M27 17c0-4.971-4.925-9-11-9v18c6.075 0 11-4.029 11-9z" fill="#2B3332"/><path d="M6.578 7.664l-5.115-2.557c-.388-.195-.858-.119-1.165.189l-.002.002c-.292.292-.377.732-.214 1.112l2.353 5.489c-.465.791-.837 1.623-1.079 2.497-.126.455.408.796.786.515 3.197-2.376 8.208-3.911 13.858-3.911v-6c-3.57 0-6.847.999-9.422 2.664z" fill="#866EBA"/><path d="M31.704 5.298l-.002-.002c-.307-.307-.777-.384-1.166-.189l-5.115 2.557c-2.574-1.665-5.851-2.664-9.421-2.664v6c5.65 0 10.661 1.535 13.858 3.911.379.281.912-.06.786-.515-.242-.874-.613-1.706-1.079-2.497l2.353-5.489c.163-.38.078-.82-.214-1.112z" fill="#675099"/><path d="M8 6.86v5.255c2.397-.71 5.113-1.115 8-1.115v-6c-2.944 0-5.683.687-8 1.86z" fill="#7A63AD"/><path d="M24 6.86v5.255c-2.397-.71-5.113-1.115-8-1.115v-6c2.944 0 5.683.687 8 1.86z" fill="#6E57A0"/><circle cx="10.5" cy="16.5" r="3.5" fill="#fff"/><circle cx="10.5" cy="16.5" r=".5" fill="#373F3F"/><circle cx="21.5" cy="16.5" r="3.5" fill="#F7F7F7"/><circle cx="21.5" cy="16.5" r=".5" fill="#2B3332"/><path d="M16 29.513v-8.513h-1.022c-1.2 0-2.285.715-2.757 1.818l-.911 2.126c-.705 1.645.146 3.541 1.844 4.107.924.308 1.885.462 2.846.462z" fill="#F6B392"/><path d="M19.779 22.818c-.472-1.103-1.557-1.818-2.757-1.818h-1.022v8.513c.961 0 1.922-.154 2.846-.462 1.698-.566 2.549-2.462 1.844-4.107l-.911-2.126z" fill="#F4A984"/></svg>