<svg xmlns="http://www.w3.org/2000/svg" width="32" height="32" viewBox="0 0 32 32"><path d="M20 30c-1.249 0-2.416-.624-3.109-1.664l-.891-1.336v-14l1.586-5.549c.245-.859 1.03-1.451 1.923-1.451h.991v3.207l1.849 1.849-1.197 1.696s2.344 1.79 2.344 5.248l-2.344 5.248 1.197 1.696-1.849 1.849v3.207h-.5z" fill="#604893"/><path d="M20.998 6l2 2 2.5-.5-.532-.532c-.235-.235-.18-.629.11-.79l6.55-3.647c.22-.122.462.12.34.34l-3.647 6.55c-.161.29-.556.345-.79.11l-.531-.531-2 3 1.709.19c.337.037.632.243.784.547l.487.975c.166.331.135.727-.081 1.028l-.9 1.26v1l4.51.902c.285.057.49.307.49.598s-.205.541-.49.598l-4.509.902v1l.9 1.26c.215.301.246.697.081 1.028l-.487.975c-.152.303-.447.509-.784.547l-1.71.19v1l2.576 3.434c.243.325.211.779-.076 1.066-.287.287-.741.319-1.066.076l-3.434-2.576-2 2h-.5v-2.793l2.151-2.151-1.203-1.705s2.048-2.936 2.048-5.351l-1.548-5.351.703-1.705-2.151-2.151v-2.793h.5z" fill="#866EBA"/><path d="M20 30h1v-2.379c0-.265.105-.52.293-.707l1.263-1.263c.344-.344.391-.886.11-1.284l-.718-1.017c2.73-3.033 2.73-7.668 0-10.701l.718-1.017c.281-.398.234-.94-.11-1.284l-1.263-1.263c-.188-.187-.293-.441-.293-.706v-2.379h-1v2.379c0 .53.211 1.039.586 1.414l1.263 1.263-.954 1.352c-.14.199-.117.47.055.642 2.734 2.734 2.734 7.166 0 9.9-.172.172-.195.443-.055.642l.954 1.352-1.263 1.263c-.375.375-.586.884-.586 1.414v2.379z" fill="#9179C6"/><path d="M12 30c1.249 0 2.416-.624 3.109-1.664l.891-1.336v-14l-1.586-5.549c-.245-.859-1.03-1.451-1.923-1.451h-.991v3.207l-1.849 1.849 1.197 1.696s-2.344 1.79-2.344 5.248l2.344 5.248-1.197 1.696 1.849 1.849v3.207h.5z" fill="#675099"/><path d="M11.002 6l-2 2-2.5-.5.532-.532c.235-.235.18-.629-.11-.79l-6.55-3.647c-.22-.122-.462.12-.34.34l3.647 6.55c.161.29.556.345.79.11l.531-.531 2 3-1.709.19c-.337.037-.632.243-.784.547l-.487.975c-.166.331-.135.727.081 1.028l.9 1.26v1l-4.51.902c-.285.057-.49.307-.49.598s.205.541.49.598l4.509.902v1l-.9 1.26c-.215.301-.246.697-.081 1.028l.487.975c.152.303.447.509.784.547l1.71.19v1l-2.576 3.434c-.243.325-.211.779.076 1.066.287.287.741.319 1.066.076l3.434-2.576 2 2h.5v-2.793l-2.152-2.151 1.203-1.705s-2.048-2.936-2.048-5.351l1.548-5.351-.703-1.705 2.151-2.151v-2.793h-.499z" fill="#9179C6"/><path d="M15.521 6.596l-1.269 4.229c-.26.866-.772 1.658-1.529 2.153-1.639 1.07-2.723 2.918-2.723 5.022 0 3.314 2.686 6 6 6v-17.759999999999998c-.204 0-.408.119-.479.356z" fill="#7A63AD"/><path d="M19.277 12.978c-.757-.494-1.27-1.287-1.529-2.153l-1.269-4.229c-.071-.237-.275-.356-.479-.356v17.759999999999998c3.314 0 6-2.686 6-6 0-2.104-1.084-3.952-2.723-5.022z" fill="#6E57A0"/><path d="M16 13c-2.761 0-5 2.239-5 5s2.239 5 5 5v-10z" fill="#373F3F"/><path d="M21 18c0-2.761-2.239-5-5-5v10c2.761 0 5-2.239 5-5z" fill="#2B3332"/><path d="M15.221 18.221c.104.104.103.285-.014.374-.784.595-1.906.535-2.621-.181-.715-.715-.776-1.838-.181-2.621.089-.117.27-.117.374-.014l2.442 2.442z" fill="#fff"/><path d="M14.472 17.472l-.945-.945c-.016.15-.027.307-.027.473 0 .828.224 1.5.5 1.5.221 0 .406-.432.472-1.028z" fill="#373F3F"/><path d="M16.779 18.221c-.104.104-.103.285.014.374.784.595 1.906.535 2.621-.181s.776-1.838.181-2.621c-.089-.117-.27-.117-.374-.014l-2.442 2.442z" fill="#EDEEEE"/><path d="M17.528 17.472l.945-.945c.016.15.027.307.027.473 0 .828-.224 1.5-.5 1.5-.221 0-.406-.432-.472-1.028z" fill="#2B3332"/><path d="M16 21c-.722 0-1.201-.103-1.509-.216-.214-.078-.422.143-.314.344.22.41.714.872 1.823.872v-1z" fill="#fff"/><path d="M17.509 20.784c-.308.113-.787.216-1.509.216v1c1.109 0 1.603-.462 1.823-.873.108-.2-.1-.422-.314-.343z" fill="#EDEEEE"/><path d="M12 30h-1v-2.379c0-.265-.105-.52-.293-.707l-1.263-1.263c-.344-.344-.391-.886-.11-1.284l.718-1.017c-2.73-3.033-2.73-7.668 0-10.701l-.718-1.017c-.281-.398-.234-.94.11-1.284l1.263-1.263c.188-.187.293-.441.293-.706v-2.379h1v2.379c0 .53-.211 1.039-.586 1.414l-1.263 1.263.954 1.352c.14.199.117.47-.055.642-2.734 2.734-2.734 7.166 0 9.9.172.172.195.443.055.642l-.954 1.352 1.263 1.263c.375.375.586.884.586 1.414v2.379z" fill="#9D85D3"/></svg>