<svg xmlns="http://www.w3.org/2000/svg" width="32" height="32" viewBox="0 0 32 32"><path d="M4 29.5c0 .828-.672 1.5-1.5 1.5s-1.5-.672-1.5-1.5.672-1.5 1.5-1.5 1.5.672 1.5 1.5zm12-28.104c-.733-.844-1.794-1.396-3-1.396-2.209 0-4 1.791-4 4-4.971 0-9 4.029-9 9 0 2.661 1.161 5.044 2.997 6.692-.629.948-.997 2.085-.997 3.308 0 3.314 2.686 6 6 6 1.6 0 3.05-.63 4.126-1.651.698.238 1.424.411 2.174.517.33 1.008.93 1.887 1.7 2.582v-29.052z" fill="#6E57A0"/><path d="M26.839 21.124c-.148.312-.306.616-.479.912 2.037.185 3.64 1.878 3.64 3.964 0 2.209-1.791 4-4 4-.467 0-.909-.095-1.326-.243-1.1 1.367-2.783 2.243-4.674 2.243-1.543 0-2.938-.595-4-1.553v-29.051l.074.073c1.053-.913 2.423-1.469 3.926-1.469 2.775 0 5.104 1.887 5.789 4.446 3.604 1.175 6.211 4.558 6.211 8.554 0 3.595-2.113 6.685-5.161 8.124zm3.161-17.624c0-.828-.672-1.5-1.5-1.5s-1.5.672-1.5 1.5.672 1.5 1.5 1.5 1.5-.672 1.5-1.5z" fill="#675099"/><path d="M16 4c-6.627 0-12 5.373-12 12s5.373 12 12 12v-24z" fill="#373F3F"/><path d="M28 16c0-6.627-5.373-12-12-12v24c6.627 0 12-5.373 12-12z" fill="#2B3332"/><path d="M7.434 20.851c2.624.497 5.078-.288 6.843-1.839.213-.187.212-.523.012-.723l-10.578-10.578c-.201-.201-.536-.202-.723.012-1.551 1.765-2.336 4.219-1.839 6.843.596 3.149 3.136 5.689 6.285 6.285z" fill="#fff"/><path d="M24.566 20.851c-2.624.497-5.078-.288-6.843-1.839-.213-.187-.212-.523-.012-.723l10.578-10.578c.201-.201.536-.202.723.012 1.551 1.765 2.336 4.219 1.839 6.843-.596 3.149-3.136 5.689-6.285 6.285z" fill="#F7F7F7"/><path d="M16 23h-6.47c-.219 0-.334.258-.185.419.761.826 2.83 2.581 6.655 2.581v-3z" fill="#F4A984"/><path d="M16 26c3.825 0 5.894-1.755 6.656-2.581.148-.161.034-.419-.186-.419h-6.47v3z" fill="#EA9C7A"/><path d="M11 23h2l-.776 1.553c-.092.184-.355.184-.447 0l-.777-1.553z" fill="#fff"/><path d="M19 23h2l-.776 1.553c-.092.184-.355.184-.447 0l-.777-1.553z" fill="#F7F7F7"/><ellipse cx="22.5" cy="16" rx=".5" ry="1" fill="#2B3332"/><ellipse cx="9.5" cy="16" rx=".5" ry="1" fill="#373F3F"/></svg>