<svg xmlns="http://www.w3.org/2000/svg" width="32" height="32" viewBox="0 0 32 32"><path d="M.581 8.955l3.66.587-4.176-7.516c-.233-.42.202-.895.64-.7l6.572 2.921c2.189-2.06 5.282-3.247 8.723-3.247v26c-3.872 0-7.307-2.865-9.501-6.563l-5.319-4.503c-.396-.334-.085-.976.423-.872l2.598.534-4.109-5.861c-.254-.361.052-.85.489-.78z" fill="#866EBA"/><path d="M31.419 8.955l-3.66.587 4.175-7.516c.233-.42-.202-.895-.64-.7l-6.572 2.921c-2.188-2.06-5.281-3.247-8.722-3.247v26c3.872 0 7.307-2.865 9.501-6.563l5.319-4.503c.396-.334.085-.976-.423-.872l-2.598.534 4.109-5.861c.254-.361-.052-.85-.489-.78z" fill="#7A63AD"/><path d="M18.453 17.456l4.02-4.824c.265-.318.78-.201.872.202.087.379.155.916.155 1.666 0 1.313-.21 1.974-.358 2.277-.068.14-.197.234-.35.265l-4.098.82c-.231.045-.392-.225-.241-.406z" fill="#F7F7F7"/><path d="M20.5 17c.276 0 .5-.672.5-1.5 0-.366-.045-.698-.118-.958l-.879 1.054c.017.783.232 1.404.497 1.404z" fill="#2B3332"/><path d="M13.547 17.456l-4.02-4.824c-.265-.318-.78-.201-.872.202-.087.379-.155.916-.155 1.666 0 1.313.21 1.974.358 2.277.068.14.197.234.35.265l4.098.82c.231.045.392-.225.241-.406z" fill="#fff"/><path d="M11.5 17c-.276 0-.5-.672-.5-1.5 0-.366.045-.698.118-.958l.879 1.054c-.017.783-.232 1.404-.497 1.404z" fill="#373F3F"/><path d="M15.504 18.993l-.78 1.56c-.092.184-.355.184-.447 0l-.838-1.675c-.366-.033-.725-.071-1.071-.112l-.644 1.287c-.092.184-.355.184-.447 0l-.777-1.555c-.869-.145-1.57-.289-2.007-.385-.203-.044-.37.17-.279.356 2.347 4.778 7.786 4.531 7.786 4.531v-4l-.496-.007z" fill="#F6B392"/><path d="M16.5 18.993l.78 1.56c.092.184.355.184.447 0l.838-1.675c.366-.033.725-.071 1.071-.112l.644 1.287c.092.184.355.184.447 0l.777-1.555c.869-.145 1.57-.289 2.007-.385.203-.044.37.17.279.356-2.348 4.778-7.787 4.531-7.787 4.531v-4l.497-.007z" fill="#F4A984"/><path d="M30.99 24h-5.009c-.53 0-1.039.211-1.414.586l-1.778 1.778c-.351.351-.351.921 0 1.273l.003.003c.224.224.548.313.855.237l3.506-.877h4.546l.28-1.85c.091-.605-.377-1.15-.989-1.15z" fill="#6E57A0"/><path d="M31 24h-4.694c-.609 0-1.076.539-.99 1.141l.696 4.871c.081.567.566.988 1.138.988h.005c.572 0 1.057-.421 1.138-.987l.359-2.513.359 2.513c.082.566.567.987 1.139.987h.005c.572 0 1.057-.421 1.138-.987l.696-4.871c.087-.603-.381-1.142-.989-1.142zM1.01 24h5.009c.53 0 1.039.211 1.414.586l1.778 1.778c.351.351.351.921 0 1.273l-.004.003c-.224.224-.548.313-.855.237l-3.505-.877h-4.545l-.28-1.85c-.092-.605.376-1.15.988-1.15z" fill="#7A63AD"/><path d="M1 24h4.694c.609 0 1.076.539.99 1.141l-.696 4.871c-.081.567-.566.988-1.138.988h-.005c-.572 0-1.057-.421-1.138-.987l-.36-2.513-.359 2.513c-.081.566-.566.987-1.138.987h-.005c-.572 0-1.057-.421-1.138-.987l-.697-4.872c-.086-.602.382-1.141.99-1.141z" fill="#866EBA"/></svg>