<svg xmlns="http://www.w3.org/2000/svg" width="32" height="32" viewBox="0 0 32 32"><path d="M24 23s3.033 2.587 3.279 6.16c.043.625.226 1.233.506 1.793l.162.323c.166.333-.076.724-.448.724h-5.044c-.25 0-.458-.181-.494-.429-.125-.866-.663-2.805-2.961-3.571l5-5z" fill="#7A63AD"/><path d="M8 23s-3.033 2.587-3.279 6.16c-.043.625-.226 1.233-.506 1.793l-.162.323c-.166.333.076.724.448.724h5.044c.25 0 .458-.181.494-.429.125-.866.663-2.805 2.961-3.571l-5-5z" fill="#866EBA"/><path d="M15.789.335l-1.789 2.834-1.566-1.699c-.155-.167-.434-.058-.434.17v2.079l-1.638-.819c-.166-.084-.362.037-.362.223v1.632l-6.336-3.399c-.212-.114-.447.109-.345.326l3.24 6.92c-.544 1.006-.943 2.116-1.207 3.292-2.197 1.402-5.01 3.94-5.323 7.902-.028.353.322.617.657.505l.814-.271.209.628c.122.365.591.461.848.174.526-.588 1.407-1.4 2.538-1.887.378 5.948 2.219 10.055 10.905 10.055v-28.782c-.081 0-.162.039-.211.117z" fill="#9D85D3"/><path d="M26.648 11.895c-.264-1.176-.663-2.287-1.207-3.292l3.24-6.92c.102-.218-.133-.44-.345-.326l-6.336 3.398v-1.632c0-.186-.196-.307-.362-.224l-1.638.819v-2.078c0-.228-.279-.337-.434-.169l-1.566 1.698-1.789-2.834c-.049-.078-.13-.117-.211-.117v28.782c8.686 0 10.527-4.108 10.905-10.055 1.131.486 2.013 1.299 2.538 1.887.257.287.726.191.848-.174l.209-.628.814.271c.336.112.685-.152.657-.505-.314-3.961-3.126-6.499-5.323-7.901z" fill="#9179C6"/><path d="M22.407 11.134c.126-.073.298-.026.358.107.558 1.233.097 2.71-1.105 3.401-1.203.691-2.719.349-3.513-.75-.085-.118-.04-.288.086-.36l4.174-2.398z" fill="#F6B392"/><path d="M20.5 14c.276 0 .5-.672.5-1.5 0-.19-.013-.37-.034-.538l-.965.554c.003.821.225 1.484.499 1.484z" fill="#2B3332"/><path d="M9.593 11.134c-.126-.073-.298-.026-.358.107-.558 1.233-.097 2.71 1.105 3.401 1.203.691 2.719.349 3.513-.75.085-.118.04-.288-.086-.36l-4.174-2.398z" fill="#F9BDA0"/><path d="M11.5 14c-.276 0-.5-.672-.5-1.5 0-.19.013-.37.034-.538l.965.554c-.003.821-.225 1.484-.499 1.484z" fill="#373F3F"/><path d="M22.59 16.326c-.81.567-2.87 1.674-6.59 1.674v4s6.568 0 6.98-5.453c.015-.204-.222-.338-.39-.221z" fill="#D1D4D4"/><path d="M9.41 16.326c.81.567 2.87 1.674 6.59 1.674v4s-6.568 0-6.98-5.453c-.015-.204.222-.338.39-.221z" fill="#fff"/><path d="M16 29v-4c-5.155 0-8.411-1.018-10.473-2.786.932 4.13 3.49 6.786 10.473 6.786z" fill="#9179C6"/><path d="M16 25v4c6.983 0 9.541-2.656 10.473-6.786-2.062 1.768-5.318 2.786-10.473 2.786z" fill="#866EBA"/><path d="M10 19.325c.787 1.086 1.922 1.733 3 2.115v-3.715c-1.369-.266-2.352-.679-3-1.036v2.636z" fill="#F7F7F7"/><path d="M13 21.44c1.568.555 3 .56 3 .56v-4c-1.159 0-2.151-.11-3-.275v3.715z" fill="#EDEEEE"/><path d="M22 19.325c-.787 1.086-1.922 1.733-3 2.115v-3.715c1.369-.266 2.352-.679 3-1.036v2.636z" fill="#DADDDC"/><path d="M19 21.44c-1.568.554-3 .56-3 .56v-4c1.159 0 2.151-.11 3-.275v3.715z" fill="#E3E5E5"/></svg>