<svg xmlns="http://www.w3.org/2000/svg" width="32" height="32" viewBox="0 0 32 32"><path d="M15.951 0c-.244 0-.453.177-.493.418l-.931 5.582h-1.217c-.176 0-.338.092-.429.243l-2.712 4.52c-.093.155-.143.333-.143.515v2.446c0 .181.049.359.143.514l2.712 4.52c.091.15.254.242.429.242h2.717v-19h-.076z" fill="#ABB2B1"/><path d="M21.885 10.762l-2.858-4.762h-1.5l-.93-5.582c-.04-.241-.249-.418-.494-.418h-.076v19h2.717c.176 0 .338-.092.429-.243l2.854-4.757v-2.723c0-.181-.049-.359-.142-.515z" fill="#9DA5A4"/><path d="M22.027 14l-3 3h-3v2h2.717c.176 0 .338-.092.429-.243l2.854-4.757z" fill="#909997"/><path d="M19.027 17l-.854.854c-.093.093-.22.146-.353.146h-1.793v-1h3z" fill="#5C6664"/><path d="M17.301 11.909l2.397-.799c.162-.054.329.067.329.237v.535c0 .078-.018.154-.053.224l-.309.618c-.084.169-.258.276-.447.276h-1.382c-.189 0-.363-.107-.447-.276l-.233-.466c-.068-.136 0-.301.145-.349z" fill="#F7F7F7"/><path d="M14.754 11.909l-2.397-.799c-.162-.054-.329.067-.329.237v.535c0 .078.018.154.053.224l.309.618c.084.169.257.276.446.276h1.382c.189 0 .363-.107.447-.276l.233-.466c.068-.136 0-.301-.144-.349z" fill="#fff"/><path d="M10.088 14.052l.081.176 2.712 4.52c.09.151.253.243.429.243h2.717v-2h-3l-2.939-2.939z" fill="#9DA5A4"/><path d="M13.027 17l.854.854c.093.093.221.146.353.146h1.793v-1h-3z" fill="#687271"/><path d="M19.027 6l2.857 4.762c.093.155.143.333.143.514v2.724h3l1.854-1.854c.094-.094.146-.221.146-.354v-3.792l-2.854-2.854c-.093-.093-.22-.146-.353-.146h-3.586c-.133 0-.26.053-.354.146l-.853.854z" fill="#909997"/><path d="M26.027 15l-1-1 1.854-1.854c.094-.094.146-.221.146-.354v-3.792h1.793c.133 0 .26.053.354.146l1.707 1.707c.094.094.146.221.146.354v4.793h-5z" fill="#838C8A"/><path d="M31.974 17.842l-.947-2.842h-5l-.947 2.842c-.034.103-.034.214 0 .316l.947 2.842h5l.947-2.842c.035-.103.035-.213 0-.316z" fill="#757F7E"/><path d="M24.173 22.854l1.854-1.854h5v4.793c0 .133-.053.26-.146.354l-1.854 1.853-5-3v-1.793c0-.133.053-.26.146-.353z" fill="#687271"/><path d="M22.027 27l2-2 5 3v1.793c0 .133-.053.26-.146.354l-1.707 1.707c-.094.093-.221.146-.354.146h-3.586c-.133 0-.26-.053-.354-.146l-.853-.854v-4z" fill="#757F7E"/><path d="M21.173 31.854l.854-.854v-4h-3.793c-.133 0-.26.053-.354.146l-.853.854v3l.854.854c.093.093.221.146.353.146h2.586c.133 0 .26-.053.353-.146z" fill="#838C8A"/><path d="M16.173 31.854l.854-.854v-3h-2.793c-.133 0-.26.053-.354.146l-.853.854v2l.854.854c.093.093.221.146.353.146h1.586c.133 0 .26-.053.353-.146z" fill="#909997"/><path d="M13.027 29h-1.793c-.133 0-.26.053-.354.146l-.853.854v1l.854.854c.093.093.221.146.353.146h.586c.133 0 .26-.053.354-.146l.853-.854v-2z" fill="#9DA5A4"/><path d="M10.027 30h-1.793c-.133 0-.26.053-.354.146l-.5.5c-.195.195-.195.512 0 .707l.5.5c.094.094.222.147.354.147h.586c.133 0 .26-.053.354-.146l.853-.854v-1z" fill="#ABB2B1"/><path d="M18.527 12.5c.276 0 .5-.448.5-1l-.016-.161-.967.323c.039.472.236.838.483.838z" fill="#2B3332"/><path d="M13.043 11.339l-.016.161c0 .552.224 1 .5 1 .247 0 .444-.366.484-.839l-.968-.322z" fill="#373F3F"/></svg>