<svg xmlns="http://www.w3.org/2000/svg" width="32" height="32" viewBox="0 0 32 32"><path d="M29.686 13.552c-1.276-1.22-3.177-2.327-5.892-2.513-.01-.617.027-1.237.119-1.852.135-.908.118-1.867-.081-2.849-.625-3.095-3.129-5.58-6.229-6.181-.544-.107-1.078-.146-1.603-.146v29.973c5.521-.002 10-4.463 10-9.985 0-1.227-.227-2.399-.632-3.483 1.106.563 1.986 1.545 2.398 2.78l.12.361c.068.205.259.343.474.343h.14c.276 0 .5-.224.5-.5v-1l.386 1.158c.068.204.259.342.474.342h.14c.276 0 .5-.224.5-.5v-1l.386 1.158c.068.204.259.342.474.342h.14c.276 0 .5-.224.5-.5v-.277c0-2.121-.781-4.207-2.314-5.671zM24 30h1.5c.828 0 1.5.672 1.5 1.5 0 .276-.224.5-.5.5h-6c-.276 0-.5-.224-.5-.5v-1.5h4z" fill="#FFD04D"/><path d="M14.397.156c-3.1.602-5.604 3.086-6.229 6.181-.198.982-.216 1.941-.08 2.849.092.615.128 1.235.119 1.852-2.715.186-4.616 1.294-5.892 2.513-1.534 1.465-2.315 3.551-2.315 5.672v.277c0 .276.224.5.5.5h.14c.215 0 .406-.138.474-.342l.386-1.158v1c0 .276.224.5.5.5h.14c.215 0 .406-.138.474-.342l.386-1.158v1c0 .276.224.5.5.5h.14c.215 0 .406-.138.474-.342l.12-.361c.412-1.235 1.292-2.217 2.398-2.78-.405 1.084-.632 2.256-.632 3.483 0 5.522 4.479 9.983 10 9.985v-29.974c-.525 0-1.059.039-1.603.145zM8 30h-1.5c-.828 0-1.5.672-1.5 1.5 0 .276.224.5.5.5h6c.276 0 .5-.224.5-.5v-1.5h-4z" fill="#FFD96C"/><path d="M15.763.016l-.514.023c-.282.026-.566.061-.853.116-1.282.249-2.451.833-3.438 1.636l-3.052-.61c-.389-.078-.71.307-.562.676l1.248 3.121c-.178.438-.329.889-.425 1.36-.188.928-.209 1.834-.097 2.698.72.814 1.811 1.574 2.782 2.009 1.584.71 2.677.201 2.893 1.923l.145 1.156c.063.5.488.876.992.876h1.117v-14.989l-.236.005z" fill="#FFE28A"/><path d="M24.095 1.181l-3.054.611c-.987-.803-2.156-1.387-3.438-1.636-.287-.056-.571-.091-.853-.117l-.514-.023-.236-.005v14.989h1.117c.504 0 .93-.376.992-.876l.145-1.156c.215-1.722 1.309-1.214 2.893-1.923.97-.435 2.062-1.195 2.782-2.009.112-.864.091-1.77-.096-2.699-.095-.47-.246-.92-.424-1.358l1.249-3.122c.147-.369-.174-.754-.563-.676z" fill="#FFD96C"/><path d="M12.682 7.85l-2.416-.647c-.148-.04-.232-.205-.165-.342.313-.646 1.049-1 1.768-.808.719.193 1.18.868 1.127 1.584-.011.152-.166.253-.314.213z" fill="#fff"/><path d="M12.18 7.384v-1.208c-.097-.051-.201-.094-.311-.123l-.197-.032v1.364c0 .115.077.215.188.245h.001c.161.043.319-.079.319-.246z" fill="#373F3F"/><path d="M19.318 7.85l2.416-.647c.148-.04.232-.205.165-.342-.313-.646-1.049-1-1.768-.808-.719.193-1.18.868-1.127 1.584.011.152.166.253.314.213z" fill="#F7F7F7"/><path d="M19.82 7.384v-1.208c.097-.051.201-.094.311-.123l.197-.032v1.364c0 .115-.077.215-.188.245h-.001c-.161.043-.319-.079-.319-.246z" fill="#2B3332"/><path d="M8.878 4.348c.321-.626.727-1.199 1.197-1.718l-1.597-.323c-.195-.039-.356.153-.282.338l.682 1.703z" fill="#604631"/><path d="M23.123 4.353l.684-1.708c.074-.185-.087-.377-.282-.338l-1.6.324c.471.52.877 1.094 1.198 1.722zM20 30h4s3 0 3-5c0-1.766-.502-2.774-1.148-3.351.038-.23.077-.46.099-.695-.484-.484-.982-.954-1.951-.954l-4 2s-2-2-4-2v9.985c1.424 0 2.774-.307 4-.842v.857z" fill="#4F4032"/><path d="M12 22l-4-2c-.969 0-1.467.47-1.952.954.022.235.061.465.099.695-.645.577-1.147 1.585-1.147 3.351 0 4.299 2.213 4.9 2.835 4.985h4.165v-.842c1.226.536 2.576.842 4 .842v-9.985l-4 2z" fill="#604631"/></svg>