<svg xmlns="http://www.w3.org/2000/svg" width="32" height="32" viewBox="0 0 32 32"><path d="M24.894 29.447l-.894-.447-.328-1.313c-.44-1.758-1.349-3.364-2.63-4.646l-.872-.871c.549-1.165.83-2.605.83-4.17 0-3.866-1.686-7-5-7h-.001v14h.001c.503 0 .964-.08 1.392-.216l1.397 2.794c.139.277.211.584.211.894v3.028c0 .276.224.5.5.5h6c.276 0 .5-.224.5-.5v-.264c0-.757-.428-1.45-1.106-1.789z" fill="#F7C845"/><path d="M15.999 11c-3.313.001-4.999 3.134-4.999 7 0 1.565.281 3.005.83 4.17l-.871.871c-1.282 1.282-2.191 2.887-2.63 4.646l-.329 1.313-.894.447c-.678.339-1.106 1.032-1.106 1.789v.264c0 .276.224.5.5.5h6c.276 0 .5-.224.5-.5v-3.028c0-.31.072-.617.211-.894l1.397-2.794c.428.136.888.216 1.391.216v-14z" fill="#FFD04D"/><path d="M29.5 20c-1.381 0-2.5 1.119-2.5 2.5s1.119 2.5 2.5 2.5 2.5-1.119 2.5-2.5-1.119-2.5-2.5-2.5zm0 3.5c-.552 0-1-.448-1-1s.448-1 1-1 1 .448 1 1-.448 1-1 1z" fill="#D1D4D4"/><path d="M29.5 22c-.276 0-.5-.224-.5-.5v-6.208c0-.276.224-.5.5-.5s.5.224.5.5v6.208c0 .276-.224.5-.5.5z" fill="#4F4032"/><path d="M21 13l3.434 2.575c.339.254.802.267 1.155.032l2.189-1.459c.138-.092.222-.248.222-.416v-1.115c0-.341.276-.617.618-.617h.001c.234 0 .448.132.552.341l.829 1.659h1v3l-5.127 1.709c-.554.185-1.161.118-1.661-.182l-4.212-2.527 1-3z" fill="#F7C845"/><path d="M32 15.75c0-.414-.336-.75-.75-.75.414 0 .75-.336.75-.75s-.336-.75-.75-.75h-2c-.414 0-.75.336-.75.75s.336.75.75.75c-.414 0-.75.336-.75.75s.336.75.75.75c-.414 0-.75.336-.75.75s.336.75.75.75h2c.414 0 .75-.336.75-.75s-.336-.75-.75-.75c.414 0 .75-.336.75-.75zM11 13l-3.434 2.575c-.339.254-.802.267-1.155.032l-2.189-1.459c-.138-.092-.222-.248-.222-.416v-1.115c0-.341-.276-.617-.618-.617-.234 0-.448.132-.552.341l-.83 1.659h-1v3l5.127 1.709c.554.185 1.161.118 1.661-.182l4.212-2.527-1-3z" fill="#FFD04D"/><path d="M19.999 10s2 1 3 4c0 0 0 2-2 2 0 0 0 2-2 2 0 0-1 1-3 1v-8l4-1z" fill="#EDEEEE"/><path d="M12 10s-2 1-3 4c0 0 0 2 2 2 0 0 0 2 2 2 0 0 1 1 3 1v-8l-4-1z" fill="#F7F7F7"/><path d="M14.508 3.155l-2.566-2.566c-.337-.337-.909-.057-.85.416l.521 4.165c-.398.753-.613 1.688-.613 2.83 0 3.314 1.686 5 5 5v-10c-.547 0-1.034.063-1.492.155z" fill="#FFD96C"/><path d="M20.318 5.018l.502-4.014c.059-.472-.513-.752-.85-.416l-2.549 2.549c-.439-.081-.903-.137-1.421-.137v10c3.314 0 5-1.686 5-5 0-1.215-.232-2.207-.682-2.982z" fill="#FFD04D"/><path d="M16 8.154c-.252 0-.504.048-.743.143l-.5.2c-.759.304-1.257 1.039-1.257 1.857 0 1.076.302 2.13.872 3.042l.78 1.247c.196.313.522.47.848.47v-6.959z" fill="#FFE28A"/><path d="M16.848 14.643l.78-1.247c.57-.912.872-1.966.872-3.042 0-.818-.498-1.553-1.257-1.857l-.5-.2c-.239-.095-.491-.143-.743-.143v6.959c.326 0 .652-.157.848-.47z" fill="#FFD96C"/><path d="M13.676 8.482l-2.03-.841c-.182-.075-.195-.326-.023-.422.322-.178.833-.341 1.426-.092.591.247.838.72.941 1.072.056.189-.132.358-.314.283z" fill="#fff"/><path d="M18.324 8.482l2.03-.841c.182-.075.195-.326.023-.422-.322-.178-.833-.341-1.426-.092-.591.247-.838.72-.941 1.072-.056.189.132.358.314.283z" fill="#F7F7F7"/><path d="M13.049 7.127c-.194-.081-.375-.108-.548-.115.004.546.225.988.499.988.209 0 .387-.256.462-.62-.116-.096-.248-.184-.413-.253z" fill="#373F3F"/><path d="M18.951 7.127c.194-.081.375-.108.548-.115-.004.546-.225.988-.499.988-.209 0-.387-.256-.462-.62.116-.096.248-.184.413-.253z" fill="#2B3332"/><path d="M3.5 15.75c0-.414-.336-.75-.75-.75.414 0 .75-.336.75-.75s-.336-.75-.75-.75h-2c-.414 0-.75.336-.75.75s.336.75.75.75c-.414 0-.75.336-.75.75s.336.75.75.75c-.414 0-.75.336-.75.75s.336.75.75.75h2c.414 0 .75-.336.75-.75s-.336-.75-.75-.75c.414 0 .75-.336.75-.75z" fill="#FFD96C"/><path d="M13.935 3.289l-1.831-1.83c-.168-.169-.454-.029-.425.207l.359 2.872c.473-.576 1.099-1.001 1.897-1.249z" fill="#604631"/><path d="M19.885 4.441l.346-2.774c.029-.236-.257-.376-.425-.208l-1.813 1.813c.786.233 1.415.625 1.892 1.169z" fill="#4F4032"/></svg>